<svg id="Layer_1" data-name="Layer 1" xmlns="http://www.w3.org/2000/svg" viewBox="0 0 400 400"><defs><style>.cls-1{fill:#44622d;}.cls-1,.cls-10,.cls-11,.cls-12,.cls-13,.cls-14,.cls-15,.cls-16,.cls-17,.cls-18,.cls-19,.cls-2,.cls-20,.cls-21,.cls-22,.cls-23,.cls-24,.cls-3,.cls-4,.cls-5,.cls-6,.cls-7,.cls-8,.cls-9{fill-rule:evenodd;}.cls-2,.cls-24{fill:#2b2b2b;}.cls-2{opacity:0.1;}.cls-3{fill:#3f8e6f;}.cls-4{fill:#35785e;}.cls-5{fill:#185e60;}.cls-6{fill:#738c57;}.cls-7{fill:#709c52;}.cls-8{fill:#5a753d;}.cls-9{fill:#98c16c;}.cls-10{fill:#a2a1a1;}.cls-11{fill:#cecdcc;}.cls-12{fill:#9d8d56;}.cls-13{fill:#c1b170;}.cls-14{fill:#e1ce7f;}.cls-15{fill:#b6a763;}.cls-16{fill:#c18f7c;}.cls-17{fill:#dcdcdb;}.cls-18{fill:#fff7ae;}.cls-19{fill:#f4cab2;}.cls-20{fill:#fbe3d4;}.cls-21{fill:#54af8a;}.cls-22{fill:#fff0e8;}.cls-23{fill:#9ecd7e;}</style></defs><title>diplomats_INFJ_famous_fictional_galadriel_lord_of_the_rings</title><polygon class="cls-1" points="154.67 203.95 143.89 202.77 151.32 262.98 163.84 271.28 185.17 253.43 173.63 211.9 154.67 203.95"/><polygon class="cls-2" points="93.19 383.02 205.12 400 306.81 384.62 212.89 376.26 93.19 383.02"/><polygon class="cls-3" points="154.56 371.63 143.16 379.09 174.11 382.98 181.76 371.86 154.56 371.63"/><polygon class="cls-4" points="143.16 379.09 142.98 382.96 171.08 384.54 174.26 380.76 143.16 379.09"/><polygon class="cls-4" points="190.53 381.64 174.72 370.29 154.56 371.63 165.65 380.3 174.45 382.48 190.53 381.64"/><polygon class="cls-5" points="171.08 384.54 195.75 385.38 190.53 381.64 165.65 380.3 171.08 384.54"/><polygon class="cls-6" points="219.99 379.04 195.75 385.38 154.56 371.63 175.73 336.7 229.19 373.16 219.99 379.04"/><polygon class="cls-3" points="247.68 386.87 234.27 389.28 215.18 386.21 219.99 379.04 228.84 367.65 243.18 375.77 247.38 381.77 247.68 386.87"/><polygon class="cls-4" points="247.68 391.54 215.35 391.08 215.18 386.21 247.54 386.87 247.68 391.54"/><polygon class="cls-4" points="247.09 372.01 247.38 381.77 219.99 379.04 239.81 363.97 247.09 372.01"/><polygon class="cls-7" points="242.36 355.08 256.96 369.57 219.99 379.04 157.35 345.13 195.22 302.52 242.36 355.08"/><polygon class="cls-6" points="232.57 276.99 199.89 298.94 197.51 316.71 256.96 369.57 232.57 276.99"/><polygon class="cls-7" points="173.74 263.49 163.84 271.28 154.56 371.63 197.51 316.71 173.74 263.49"/><polygon class="cls-8" points="213.71 299.79 235.85 314.5 256.96 369.57 239.45 282.64 213.71 299.79"/><polygon class="cls-7" points="172.05 243.27 167.05 250.22 163.84 271.28 197.51 316.71 205.41 305.83 220.21 236.81 172.05 243.27"/><polygon class="cls-9" points="175.42 231.78 167.39 236.34 167.05 250.22 189.36 262.11 224.44 240.06 215.22 225.91 175.42 231.78"/><path class="cls-1" d="M205.6,237.45c1.1.34-.36,63-.19,68.38l30.44,8.66-7.43-85Z"/><path class="cls-6" d="M168.68,188.59l-12.77,4.29,12,41,19.71,11.66,43.74-20.52s7.35-31.71,7.35-33.09-24.3-13.49-25.73-12.87c-1,.43-16.5,6.4-26.4,10.21Z"/><polygon class="cls-10" points="157.87 207.37 163.56 236.24 168.63 230.36 166.19 216.42 157.87 207.37"/><path class="cls-11" d="M178.16,243.74c-.17-1.26-14.6-7.5-14.6-7.5l15.21-36.76,6-4.25,11.42,5,13.22,35.06L194,244Z"/><polygon class="cls-10" points="202.52 250.33 192.41 256.15 177.93 250.71 163.56 236.24 207.94 236.63 202.52 250.33"/><path class="cls-12" d="M256.83,179.4l7.2,4-11,34.16s-4.57-33.62-5.82-33.39S256.83,179.4,256.83,179.4Z"/><path class="cls-13" d="M251.78,158.26l3.52,11.49L264,183.38l-17.46,4.44s-3.48-19.37-4.29-19.14S251.78,158.26,251.78,158.26Z"/><polygon class="cls-14" points="245.34 139.27 252.93 141.11 255.3 169.75 244.58 179.86 234.93 145.86 245.34 139.27"/><polygon class="cls-15" points="243.59 122.58 245.12 124.03 252.93 141.11 245.44 157.07 220.22 155.76 238.99 116.75 243.59 122.58"/><path class="cls-12" d="M233.55,127.94l5.54,6.12,6.41,23.21-16.39,5.44s-6.5-25.88-5.89-25.81S233.55,127.94,233.55,127.94Z"/><polygon class="cls-12" points="246.91 111.66 245.12 124.03 239.09 134.06 224.25 105.44 248.87 97.38 246.91 111.66"/><path class="cls-13" d="M239.3,99.29c-.37.21,1.27,3.26,1.27,3.26L245.12,124l9.46-19.91Z"/><polygon class="cls-16" points="238.61 98.91 240.57 102.55 233.71 114.69 228.98 102.06 238.61 98.91"/><polygon class="cls-7" points="227.42 179.71 228.83 192.3 232.72 219.03 235.62 239.14 263.88 249.55 245.5 157.27 227.42 179.71"/><polygon class="cls-9" points="155.91 192.88 159.74 189.08 161.58 196.01 178.78 199.48 196.24 200.25 228.97 195.51 245.5 157.27 225.81 146.28 161.99 155.25 160.59 175.16 155.91 192.88"/><polygon class="cls-10" points="162.16 185.09 169.07 180.56 173.95 180.72 181.27 185.55 162.16 185.09"/><polygon class="cls-11" points="160.63 200.98 155.91 192.88 160.07 180.36 163.17 180.39 167.78 179.71 169.07 180.56 161.43 196.31 160.63 200.98"/><polygon class="cls-17" points="178.78 199.48 173.95 180.72 202.71 181.48 196.24 200.25 178.78 199.48"/><polygon class="cls-9" points="172.94 153.71 187.81 181.1 199.48 144.53 185.74 122.65 164.78 144.4 172.94 153.71"/><polygon class="cls-18" points="158.73 175.57 156.96 180.32 155.91 192.88 160.79 184.48 163.17 180.39 158.73 175.57"/><polygon class="cls-18" points="157.96 169.83 163.17 180.39 169.07 180.56 166.54 166.26 158.45 161.42 157.96 169.83"/><polygon class="cls-13" points="158.27 160.87 153.75 166 156.96 180.32 163.17 180.39 160.14 166.53 158.27 160.87"/><polygon class="cls-18" points="160.26 137.43 159.4 142.69 153.75 166 160.14 166.53 177.56 140.26 160.26 137.43"/><polygon class="cls-14" points="171.32 138.88 167.99 142.9 160.14 166.53 166.54 166.26 178.4 143.02 171.32 138.88"/><path class="cls-7" d="M187.1,153.13l1.61,12.53-.9,15.44,21-15.45s10.58-13.88,11.39-13.59-3.52-19.45-3.52-19.45Z"/><polygon class="cls-16" points="174.8 135.1 188.71 165.66 215.68 143.46 178.98 133.83 174.8 135.1"/><polygon class="cls-19" points="205.41 135.67 212.09 143.6 223.11 143.16 233.6 52.2 204.88 49.42 205.41 135.67"/><polygon class="cls-18" points="249.46 80.18 254.58 104.12 240.57 102.55 240.33 94.31 249.46 80.18"/><polygon class="cls-13" points="216.56 184.84 216.63 195.11 219.41 195.2 225.22 178.94 217.1 179.17 216.56 184.84"/><polygon class="cls-18" points="215.65 177.41 215.72 181.54 213.22 195 216.63 195.11 220.47 181.54 215.65 177.41"/><polygon class="cls-18" points="214.65 172.2 220.47 181.54 225.22 178.94 222.31 165.61 213.27 158.87 214.65 172.2"/><polygon class="cls-13" points="213.27 158.87 208.79 165.65 215.72 181.54 220.47 181.54 216.14 166.11 213.27 158.87"/><polygon class="cls-14" points="230.88 127.17 235.48 134.06 222.31 165.61 216.14 166.11 221.96 126.44 230.88 127.17"/><path class="cls-13" d="M224.84,125l2.32,9.85,11.93-.81L233.68,105s-12.85-1-10.11-1.07S224.84,125,224.84,125Z"/><polygon class="cls-18" points="221.96 126.44 219.35 131.65 208.79 165.65 216.14 166.11 227.16 134.87 221.96 126.44"/><polygon class="cls-16" points="217.64 56.52 219.76 58.68 227.14 71.64 222 48.78 217.64 56.52"/><polygon class="cls-12" points="147.74 39.63 136.58 55.07 149.9 91.82 160.47 52.61 147.74 39.63"/><polygon class="cls-13" points="244.4 63.34 249.15 65.17 249.46 80.18 229.62 85.85 231.46 67.85 244.4 63.34"/><polygon class="cls-18" points="241.34 53.69 251.15 53.39 249.15 65.17 235.52 77.58 227.4 58.13 241.34 53.69"/><polygon class="cls-13" points="243.94 43.88 251.15 53.39 232.3 63.8 225.41 39.59 243.94 43.88"/><polygon class="cls-19" points="237.51 81.87 242.1 75.28 260.18 68.24 240.57 102.55 233.68 105 234.29 88.15 237.51 81.87"/><path class="cls-16" d="M245.17,82l-9.27,3s-1.76,10.19-.69,10.49S245.17,82,245.17,82Z"/><polygon class="cls-12" points="231.38 81.87 235.52 77.58 242.1 75.28 233.68 105 226.64 110.82 225.87 94.28 231.38 81.87"/><polygon class="cls-14" points="223.57 103.92 219.13 109.59 219.35 131.65 227.16 134.87 226.64 110.82 223.57 103.92"/><polygon class="cls-13" points="229.85 72.83 228.17 77.43 219.13 109.59 226.64 110.82 235.52 77.58 229.85 72.83"/><polygon class="cls-12" points="219.44 47.41 220.36 52.01 228.17 77.43 235.52 77.58 233.18 46.53 219.44 47.41"/><polygon class="cls-15" points="230.58 11.79 244.82 19.9 249.91 38.64 236.09 41.81 202.85 29.43 220.93 9.04 230.58 11.79"/><path class="cls-14" d="M182.64,4.75l12.56-.92,19-3.83,20.32,9.34L244.82,19.9l-24-.14s-38.59-2.66-39.06-3.37S182.64,4.75,182.64,4.75Z"/><path class="cls-13" d="M176.21,19c-.05-.83,13.78-9,13.78-9l30.79,9.8L217.6,30.57l-38.79-3Z"/><polygon class="cls-13" points="177.58 18.07 189.99 9.96 195.2 3.83 178.96 0.46 160.58 4.9 145.42 19.91 177.58 18.07"/><polygon class="cls-13" points="157.21 23.59 145.42 19.91 138.95 40.06 170.54 37.37 157.21 23.59"/><polygon class="cls-14" points="175.59 28.49 183.29 20.46 189.99 9.96 145.42 19.91 159.52 30.45 175.59 28.49"/><polygon class="cls-20" points="145.22 59.51 146.07 109.14 159.4 142.69 212.09 143.6 219.76 58.68 181 34.55 145.22 59.51"/><path class="cls-19" d="M145.31,56l-.09,3.52,15.48,2.68,10.64-9.42,8.12,6.58,9.73-5,11,7.51,19.54-3.2.6-6.67-16.64-7.38-11.93,4.84-13.86.24-6.77-5.48c2.8,1.62,5.2,2.91,5.2,2.91l4.82-3.91s5.36,5.69,5.37,6,12.26-3.33,16.94-4.72L181,34.55Z"/><polygon class="cls-7" points="169.04 120.24 160.58 119.55 171.69 128.89 183.82 129.12 194.89 120.05 182.83 120.39 175.9 123.64 169.04 120.24"/><polygon class="cls-16" points="173.64 100.71 171.27 105.23 176.4 108.98 179.7 105.31 173.64 100.71"/><path class="cls-19" d="M167.66,74.78l1.54,2.5,5.14,5.52L176,85.47l3.16-2.69,8.61-4.89,14.43-8.31,11.53,2.11-34,33.62L173.83,103l-2.56,2.27L149.6,72.76s10.29-1,10.75-2.11S167.66,74.78,167.66,74.78Z"/><polygon class="cls-18" points="185.13 38.68 181.38 38.28 173.8 45.58 158.02 35.31 159.52 30.45 183.29 20.46 192.33 31.02 185.13 38.68"/><polygon class="cls-14" points="194.94 47.11 188.96 47.87 181.38 38.28 183.29 20.46 217.6 30.57 194.94 47.11"/><polygon class="cls-14" points="245.79 41.13 220.36 52.01 200.14 60.43 188.96 47.87 216.69 34.7 245.79 41.13"/><path class="cls-18" d="M143,45.88l-6.43,9.19,23.74,3.83s12.46-12.21,13.48-13.32S158,35.31,158,35.31Z"/><polygon class="cls-3" points="177.93 49.71 180.38 49.56 217.6 30.57 231.96 34.15 230.63 40.8 218.22 40.37 180.23 55.69 177.93 49.71"/><polygon class="cls-4" points="231.96 34.15 249.91 38.64 251.15 53.39 218.22 40.37 231.96 34.15"/><polygon class="cls-21" points="159.09 39.45 180.23 55.69 180.38 49.56 159.52 30.45 151.86 34.03 146.93 40.76 159.09 39.45"/><polygon class="cls-3" points="136.58 55.07 159.09 39.45 151.86 34.03 138.95 40.06 136.58 55.07"/><polygon class="cls-12" points="149.6 72.76 158.94 68.78 170.97 73.91 169.2 77.28 158.56 72.15 149.6 72.76"/><polygon class="cls-12" points="185.52 74.22 201.6 67.71 213.7 71.69 203.05 71.38 187.74 77.89 185.52 74.22"/><polygon class="cls-22" points="174.34 82.8 171.27 105.23 179.7 105.31 179.13 82.78 174.34 82.8"/><polygon class="cls-8" points="160.58 119.55 172.6 118.28 176.36 120.77 180.72 118.36 194.89 120.05 176.59 125.25 160.58 119.55"/><polygon class="cls-19" points="189.36 262.11 174.58 254.24 177.93 250.71 190.49 253.62 207.12 236.63 217.1 244.81 212.82 253.07 189.36 262.11"/><path class="cls-20" d="M210.56,238.11l-3.9-1.49-16.94-.15s-.15,3.23-.07,3.83,21.74,8.94,21.74,8.94Z"/><polygon class="cls-23" points="232.72 219.03 206.66 236.62 235.85 314.5 263.88 249.55 232.72 219.03"/><polygon class="cls-19" points="154.67 203.95 155.91 192.88 167.83 197.27 166.84 220.1 161.64 226.51 154.67 203.95"/><polygon class="cls-20" points="143.89 202.77 155.91 192.88 161.64 226.51 152.43 225.28 143.89 202.77"/><path class="cls-24" d="M165.51,83.2a3.85,3.85,0,1,1-3.85-3.85A3.86,3.86,0,0,1,165.51,83.2Z"/><path class="cls-24" d="M198.76,84.05a3.85,3.85,0,1,1-3.85-3.86A3.85,3.85,0,0,1,198.76,84.05Z"/></svg>