<svg id="Layer_1" data-name="Layer 1" xmlns="http://www.w3.org/2000/svg" viewBox="0 0 400 400"><defs><style>.cls-1{fill:#848585;}.cls-1,.cls-10,.cls-11,.cls-12,.cls-13,.cls-14,.cls-15,.cls-16,.cls-17,.cls-18,.cls-19,.cls-2,.cls-20,.cls-21,.cls-22,.cls-23,.cls-24,.cls-3,.cls-4,.cls-5,.cls-6,.cls-7,.cls-8,.cls-9{fill-rule:evenodd;}.cls-2{fill:#737373;}.cls-3{fill:#4f5253;}.cls-4{fill:#f4c9b2;}.cls-5{fill:#c1907d;}.cls-6{fill:#fce3d4;}.cls-7{fill:#ffefe7;}.cls-8,.cls-9{fill:#2b2b2b;}.cls-9{opacity:0.1;}.cls-10{fill:#5a753d;}.cls-11{fill:#72c8a5;}.cls-12{fill:#6f7173;}.cls-13{fill:#446125;}.cls-14{fill:#b7c645;}.cls-15{fill:#e7ef78;}.cls-16{fill:#d8e254;}.cls-17{fill:#54af8a;}.cls-18{fill:#dcdcdb;}.cls-19{fill:#cdcdcc;}.cls-20{fill:#35785d;}.cls-21{fill:#3f8e6f;}.cls-22{fill:#c3c3c3;}.cls-23{fill:#9ca0a1;}.cls-24{fill:#474747;}</style></defs><title>diplomats_INFJ_famous_fictional_michael_scofield_prison_break</title><polygon class="cls-1" points="117.3 33.66 144.22 7.43 203.83 1.5 207.02 7.22 201.64 25.93 183.19 29.24 124.62 35.63 117.3 33.66"/><polygon class="cls-2" points="220.83 44.27 229.38 45.79 239.68 29.48 203.83 1.5 201.18 11.37 198.17 22.61 211.83 47.3 220.83 44.27"/><polygon class="cls-3" points="245.88 60.61 241.59 69.28 234.57 62.8 232.6 79.79 220.25 73.02 220.83 44.27 239.68 29.48 245.88 60.61"/><polygon class="cls-4" points="220.87 155.8 183.19 168.95 187.69 154.53 173.82 132.96 183.19 29.24 198.16 22.61 220.83 44.27 220.25 73.02 230.18 73.18 230.67 61.7 242.28 72.25 239.65 85.61 220.87 155.8"/><polygon class="cls-4" points="239.65 85.61 235.71 100.32 227.19 84.74 239.65 85.61"/><polygon class="cls-5" points="212.58 129.31 181.83 132.4 152.31 128.77 159.07 149.01 158.68 159.18 183.19 168.95 212.58 129.31"/><polygon class="cls-6" points="181.83 132.4 147.09 134.82 126.4 113.53 117.3 33.66 131.94 26.91 142.52 29.05 166.43 19.82 198.16 22.61 202.27 106.79 181.83 132.4"/><polygon class="cls-4" points="159.4 92.28 172.74 72.52 182.69 61.85 168.35 59.34 154.49 66.83 151.26 70.4 149.12 67.59 134.41 64.15 130.95 64.73 126.2 68.52 138.17 74.59 148.49 84.58 153.7 88.24 159.4 92.28"/><polygon class="cls-2" points="149.26 63.95 132.24 62.83 125.71 67.32 126.2 68.52 132 65.76 149.12 67.59 149.26 63.95"/><polygon class="cls-5" points="148.16 93.28 153.64 90.83 159.4 92.28 154.13 99.11 148.16 93.28"/><polygon class="cls-7" points="154.48 66.83 149.12 67.59 148.16 93.28 159.4 92.28 154.48 66.83"/><polygon class="cls-2" points="154.49 66.83 168.94 61.82 182.69 61.85 182.94 60.09 167.12 58.21 154.41 63.28 154.49 66.83"/><polygon class="cls-5" points="146.3 107.81 166.67 107.06 167.18 110.46 146.39 111.91 146.3 107.81"/><polygon class="cls-6" points="227.19 84.74 228.82 59.77 245.88 60.61 239.65 85.61 227.19 84.74"/><polygon class="cls-5" points="231.84 75.74 233.07 65.07 239.99 65.42 231.84 75.74"/><path class="cls-8" d="M138.07,69.65a4.22,4.22,0,1,1-4.28,4.21,4.25,4.25,0,0,1,4.28-4.21"/><path class="cls-8" d="M170,66.57a4.22,4.22,0,1,1-4.28,4.22A4.25,4.25,0,0,1,170,66.57"/><polygon class="cls-9" points="88.03 383.74 184.25 400.5 300.62 381.73 199.74 368.42 88.03 383.74"/><polygon class="cls-10" points="153.66 298.03 149.74 293.22 143.67 296.38 142.95 326.99 156.34 321.69 155.47 304.14 153.66 298.03"/><polygon class="cls-11" points="153.66 298.03 143.67 296.38 145.92 260.98 163.8 259.17 184.98 270.17 178.73 298.03 153.66 298.03"/><polygon class="cls-10" points="191.22 307.9 170.48 353.01 161.2 337.36 177.34 313.7 191.22 307.9"/><polygon class="cls-12" points="215.43 362.05 223.17 359.83 243.63 363.16 253.9 384.46 233.44 387.76 212.99 384.6 215.43 362.05"/><polygon class="cls-10" points="202.27 332.61 219.01 344.98 240.71 329.88 237.5 293.22 212.5 295.25 191.22 307.9 202.27 332.61"/><polygon class="cls-13" points="215.43 362.05 243.63 363.16 240.71 329.88 202.27 332.61 215.43 362.05"/><polygon class="cls-13" points="191.22 307.9 201.82 304.97 203.56 281.01 184.98 270.17 176.21 299.04 191.22 307.9"/><polygon class="cls-14" points="108.25 372.61 130.82 390.38 166.93 387.37 152.35 366.32 108.25 372.61"/><polygon class="cls-15" points="108.25 372.61 141.06 369.74 166.93 387.37 173.87 320.18 171.09 308.28 154.43 311.9 108.25 372.61"/><polygon class="cls-16" points="171.58 310.38 166.23 312.65 141.06 369.74 166.93 387.37 173.87 320.18 171.58 310.38"/><polygon class="cls-16" points="154.43 311.9 166.23 312.65 173.87 320.18 191.22 307.9 181.97 291.66 183.07 285.2 175.39 288.43 153.22 290.06 154.43 311.9"/><polygon class="cls-14" points="181.97 291.66 183.07 285.2 181.94 285.67 166.23 312.65 173.87 320.18 191.22 307.9 181.97 291.66"/><polygon class="cls-17" points="201.82 304.97 237.5 293.22 235.41 259.17 222.39 258.19 185.6 271.45 201.82 304.97"/><polygon class="cls-17" points="185.6 271.45 145.92 260.98 128.13 203.06 125.79 170.51 159.07 149.01 160.58 154.8 183.07 189.95 192.97 227.23 185.6 271.45"/><polygon class="cls-18" points="190.65 172.11 184.63 166.22 160.58 154.8 169.36 173.3 183.07 189.95 188.38 179.48 190.65 172.11"/><polyline class="cls-19" points="184.63 166.22 183.07 189.95 220.34 158.24 220.78 152.25"/><polygon class="cls-20" points="284.45 217.59 270.57 179.18 257.55 169.16 243.19 199.66 248.68 205.24 284.45 217.59"/><polygon class="cls-21" points="235.41 259.17 185.6 271.45 183.07 252.99 186.72 233.79 183.07 189.95 215.19 175.86 222.39 147.92 257.55 169.16 235.41 259.17"/><polygon class="cls-11" points="125.79 170.51 148.7 220.91 122.92 236.05 111.99 236.05 125.79 170.51"/><polygon class="cls-6" points="186.72 233.79 148.7 220.91 111.99 236.05 183.07 252.99 189.88 239.66 186.72 233.79"/><polygon class="cls-4" points="207.55 227.69 186.72 233.79 183.07 252.99 195.31 252.99 207.55 233.79 207.55 227.69"/><polygon class="cls-15" points="199.74 260.23 198.44 252.99 195.31 252.99 175.39 288.43 179.43 288.43 181.97 291.66 199.74 260.23"/><polygon class="cls-15" points="207.55 227.69 243.19 160.48 248.87 157.19 250.16 164.7 209.63 240.34 207.55 227.69"/><polygon class="cls-6" points="217.71 240.34 207.55 227.69 195.31 252.99 199.74 260.23 217.71 240.34"/><polygon class="cls-11" points="215.1 177.52 183.07 189.95 220.78 152.25 215.1 177.52"/><polygon class="cls-17" points="222.39 147.92 210.74 179.21 229.94 184.52 222.39 147.92"/><polygon class="cls-15" points="253.58 139.71 255.2 142.95 263.97 139.71 281.5 107.32 271.95 103.4 253.58 139.71"/><polygon class="cls-6" points="243.19 160.48 250.16 164.7 254.07 162.59 263.97 139.71 253.58 139.71 243.19 160.48"/><polygon class="cls-4" points="257.55 169.16 268.48 166.22 271.95 160.04 263.97 139.71 250.16 164.7 257.55 169.16"/><polygon class="cls-6" points="284.45 217.59 257.55 169.16 271.95 160.04 309.97 186.71 284.45 217.59"/><polygon class="cls-21" points="183.07 189.95 161.89 176.16 160.58 154.8 183.07 189.95"/><polygon class="cls-11" points="159.07 149.01 151.48 187.92 167.03 179.51 159.07 149.01"/><polygon class="cls-22" points="154.53 222.88 128.9 240.08 111.99 236.05 148.7 220.91 154.53 222.88"/><polygon class="cls-22" points="279.7 209.05 302.34 181.36 309.97 186.71 284.45 217.59 279.7 209.05"/><path class="cls-23" d="M186.29,236.05m0,0-7,1.2,5.59,6m-49.16-1.57,14.09-3-2.54-5.89-7.55,0-10.86,7.29m27-16.72-6.09,6.37,3.66,7.52,2.32-5.95,7.67-5.38m11.89,11v7l-9,5,9,2.15,5-6.36Zm-16-4.16,8.25-1,7.76,3.58,11.33-1.55L177,230.49,167,229Zm-16.51,10.62,12.5-2.28,4-5.56,6.85-1.09,6.69,3.14-.7,4.48L167.35,244l-5.16-1.86,6.13-1.76L166.23,237l-5,1.4L157.89,244l-7,1.37"/><polyline class="cls-23" points="290.94 195.31 291.68 186.54 296.53 188.47"/><path class="cls-23" d="M278.21,206.36m0,0,6.24-6.88s-9.31,1.36-9.29,1.4M260.32,167.4l7.09,3.48.27-8.13m5.44,34.45L286,195.57l3.14-8.62-6.88,3.57-13.57-1.3m1.79-15.63,5.79-5.9,8.18.94-8.2-5.57-3.46.83Zm10,13.47-7.81-4.26L269.14,175l-11.6-5.79,5.36,9.64,8.11,6.73Zm17.92-.91-7.64-3.62-8,2.19-6.67-3.36-3-6.8,4.29-3.33L283,172.7l2.8,4.77-6.62-2.34-1,4.16,5.38,1.94,7.44-2.64,11.34,2.77"/><polygon class="cls-24" points="212.99 391.06 253.39 390.54 253.9 384.46 233.43 384.53 212.99 384.6 212.99 391.06"/><polygon class="cls-5" points="227.19 84.74 237.44 93.85 239.65 85.61 227.19 84.74"/></svg>