<svg id="Layer_1" data-name="Layer 1" xmlns="http://www.w3.org/2000/svg" viewBox="0 0 400 400"><defs><style>.cls-1{fill:#f4cab2;}.cls-2{fill:#fbe3d4;}.cls-3{fill:#c18f7c;}.cls-13,.cls-4{fill:#2b2b2b;}.cls-5{fill:#fff0e8;}.cls-6{fill:#8a6651;}.cls-7{fill:#a8836c;}.cls-8{fill:#bfa38e;}.cls-9{fill:#876959;}.cls-10{fill:#73584d;}.cls-11{fill:#5a753d;}.cls-12{fill:#44622d;}.cls-13{opacity:0.1;}.cls-14{fill:#4f5353;}.cls-15,.cls-21{fill:#fff;}.cls-16{fill:#dcdcdb;}.cls-17{fill:#98c16c;}.cls-18{fill:#738c57;}.cls-19{fill:#bfda8e;}.cls-20{fill:#74c7a5;}.cls-20,.cls-21,.cls-22{fill-rule:evenodd;}.cls-22{fill:#1d7678;}.cls-23{fill:#474748;}.cls-24,.cls-26{fill:#ebebea;}.cls-24{opacity:0.59;}.cls-25{fill:#709c52;}</style></defs><title>diplomats_INFJ_tom_kirkman_designated_survivor</title><polygon class="cls-1" points="214.22 118.45 217.62 59.35 214.22 34.69 242.16 45.08 219.75 179.72 188.42 160.49 171.64 140.11 214.22 118.45"/><polygon class="cls-2" points="171.64 140.11 189.33 140.11 214.22 118.45 219.75 22.37 156.15 22.37 145.85 58.85 149.78 115.8 171.64 140.11"/><polygon class="cls-1" points="188.85 93.88 195.31 74.6 206.33 71.49 199.96 67.99 183.86 70.61 182.13 73.73 188.85 93.88"/><polygon class="cls-1" points="166.94 93.88 173.31 73.73 170.25 70.2 155.1 65.78 153.01 71.49 161.69 73.73 166.94 93.88"/><rect class="cls-3" x="165.57" y="110.8" width="29.86" height="3.47"/><circle class="cls-4" cx="161.69" cy="73.73" r="3.12"/><circle class="cls-4" cx="195.31" cy="74.61" r="3.12"/><polygon class="cls-3" points="166.94 93.88 188.85 93.88 176.53 98.31 166.94 93.88"/><polygon class="cls-5" points="166.94 93.88 173.31 73.73 182.13 73.73 188.85 93.88 166.94 93.88"/><polygon class="cls-1" points="166.94 93.88 160.94 96.92 159.77 108.28 166.94 93.88"/><polygon class="cls-6" points="183.86 70.61 199.88 68.83 206.33 71.49 207.29 70.61 201.9 65.29 185.47 66.26 183.86 70.61"/><polygon class="cls-6" points="153.01 71.49 155.99 67.31 170.25 70.2 170.25 65.94 153.9 64.49 151.64 70.61 153.01 71.49"/><polygon class="cls-1" points="200.29 81.4 206.33 78.58 210.51 79.99 200.29 81.4"/><polygon class="cls-1" points="158.57 82.04 154.62 79.83 151.16 82.04 158.57 82.04"/><polygon class="cls-1" points="190.54 94.45 199.13 106.14 194.89 96.1 190.54 94.45"/><polygon class="cls-2" points="232.51 103.07 237.77 71.49 225.74 68.39 223.8 100.16 232.51 103.07"/><polygon class="cls-3" points="171.64 140.11 189.33 140.11 213.66 140.11 188.42 160.49 171.64 140.11"/><polygon class="cls-3" points="229.36 79.83 233.71 80.94 228.39 93.88 229.36 79.83"/><polygon class="cls-7" points="172.46 26.47 154.86 11.61 177.9 0.5 202.71 2.67 205.4 22.37 190.58 27.68 172.46 26.47"/><polygon class="cls-8" points="154.86 11.61 177.9 0.5 190.58 27.68 172.46 26.47 154.86 11.61"/><polygon class="cls-9" points="205.4 22.37 212.81 27.68 219.75 20.8 218.61 15.24 202.71 2.67 205.4 22.37"/><polygon class="cls-7" points="212.81 27.68 219.75 20.8 228.88 23.33 242.16 45.08 217.28 35.9 212.81 27.68"/><polygon class="cls-9" points="242.16 45.08 237.77 71.49 217.62 59.35 217.28 35.9 242.16 45.08"/><polygon class="cls-10" points="217.62 59.35 221.02 83.81 224.61 86.86 231.96 67.99 217.62 59.35"/><polygon class="cls-7" points="154.86 11.61 143.1 39.99 152.86 35.99 167.6 22.37 154.86 11.61"/><polygon class="cls-10" points="143.1 39.99 147.88 85.73 148.77 52.33 152.86 35.99 143.1 39.99"/><polygon class="cls-11" points="143.73 264.8 155.84 318 173.61 340.68 192.9 337.32 195.19 297.62 178.09 262.65 143.73 264.8"/><polygon class="cls-11" points="195.19 297.62 203.57 335.5 221.81 347.57 241.04 345.81 250.37 276.01 211.99 281.08 195.19 297.62"/><polygon class="cls-12" points="203.57 335.5 241.04 345.81 238.03 368.29 218.6 367.83 208.37 360.35 203.57 335.5"/><polygon class="cls-12" points="190.36 363.36 192.9 337.32 155.84 318 164.37 353.21 173.86 361.57 190.36 363.36"/><polygon class="cls-13" points="168.37 368.43 292.1 385.8 219.75 402.44 105.03 380.75 168.37 368.43"/><polygon class="cls-14" points="164.37 353.21 142.25 371.42 164.37 373.45 190.36 371.42 190.36 363.36 164.37 353.21"/><rect class="cls-4" x="142.25" y="371.42" width="48.11" height="6.85"/><polygon class="cls-14" points="208.37 360.35 201.87 380.75 238.32 380.75 238.03 368.29 208.37 360.35"/><rect class="cls-4" x="201.86" y="380.75" width="36.45" height="6.85"/><polygon class="cls-12" points="166.33 283.88 195.19 297.62 178.15 266.95 166.33 283.88"/><polygon class="cls-11" points="140.66 156.71 129.14 183.06 147.82 242.55 153.17 190.91 140.66 156.71"/><polygon class="cls-15" points="171.64 140.11 175.18 234.65 226.62 144.87 188.42 160.49 171.64 140.11"/><polygon class="cls-16" points="188.47 161.48 164.84 173.92 175.18 234.65 205.41 181.49 188.47 161.48"/><polygon class="cls-14" points="198.43 173.25 188.47 161.48 173.75 169.23 180.95 178.95 173.31 197.12 175.18 234.65 191.01 206.81 189.29 180.02 198.43 173.25"/><polygon class="cls-17" points="171.64 140.11 140.66 156.71 143.73 264.8 166.33 283.88 177.15 271.95 178.02 238.99 175.18 234.65 164.84 173.92 171.64 140.11"/><polygon class="cls-18" points="226.62 144.87 206.68 179.25 175.18 234.65 177.15 271.95 195.19 297.62 239.35 280.32 250.37 276.01 251.44 155.94 226.62 144.87"/><polygon class="cls-19" points="171.64 140.11 150.83 174.56 175.18 234.65 171.64 140.11"/><polygon class="cls-17" points="175.18 234.65 227.77 187.11 226.62 144.87 175.18 234.65"/><polygon class="cls-12" points="185.08 230.79 189.14 236.87 183.31 240.68 179.25 235.73 185.08 230.79"/><polygon class="cls-20" points="216.92 176.42 223.5 177.45 220.94 186.32 210.51 181.83 211.34 178.95 216.92 176.42"/><polygon class="cls-21" points="216.2 176.31 223.5 177.45 223.11 178.82 215.89 177.4 216.2 176.31"/><polygon class="cls-21" points="215.7 178.05 222.87 179.64 222.48 181 215.38 179.14 215.7 178.05"/><polygon class="cls-21" points="211.33 178.97 222.13 182.2 221.74 183.57 211.06 179.92 211.33 178.97"/><polygon class="cls-21" points="210.78 180.88 221.34 184.96 220.94 186.32 210.51 181.83 210.78 180.88"/><polygon class="cls-22" points="212.28 175.69 216.92 176.42 215.8 180.31 211.33 178.97 212.28 175.69"/><polygon class="cls-23" points="180.95 178.95 189.29 180.02 198.43 173.25 188.42 160.49 173.75 169.23 180.95 178.95"/><polygon class="cls-24" points="182.77 237.08 171.18 251.3 184.12 263.86 195.44 256.52 194.67 246.66 182.77 237.08"/><polygon class="cls-24" points="205.89 259.43 218.42 269.86 217.83 277.8 207.22 285.79 194 274.03 201.08 261.7 205.89 259.43"/><rect class="cls-23" x="193.9" y="257.44" width="8.48" height="1.33" transform="translate(239.92 -64.59) rotate(44.89)"/><polygon class="cls-23" points="171.18 251.3 180.93 238.92 181.6 239.39 172.39 251.09 184.38 262.71 195.06 255.79 195.44 256.52 184.12 263.86 171.18 251.3"/><polygon class="cls-23" points="207.03 287.01 194 274.03 200.28 261.43 201.08 261.7 195.09 273.71 207.22 285.79 220.09 275.32 220.57 275.99 207.03 287.01"/><polygon class="cls-4" points="199.65 261.05 200.09 262.99 206.98 260.69 216.75 269.73 217.46 277.43 218.44 278.4 220.44 277.32 228.16 281.79 231.34 283.63 231.87 281.38 222.45 272 209.66 259.25 204.25 257.97 199.65 261.05"/><polygon class="cls-4" points="196.7 256.75 197.76 251.5 195.94 246.62 182.47 233.2 179.24 236.45 180.38 238.1 179.15 240.45 180.01 241.32 186.23 240.86 194.34 248.09 195.26 252.75 193.46 256.38 196.7 256.75"/><polygon class="cls-25" points="129.14 183.06 150.56 242.76 148.38 252.92 143.73 264.8 115.17 229.76 129.14 183.06"/><polygon class="cls-26" points="154.03 244.36 154.17 257.53 148.53 267.66 143.73 264.8 150.56 242.76 154.03 244.36"/><polygon class="cls-3" points="154.03 244.36 168.26 242.55 176.84 251.44 163.15 252.95 154.03 244.36"/><polygon class="cls-1" points="154.03 244.36 176.84 251.44 177.3 268.21 169.12 279.2 148.53 267.66 154.03 244.36"/><polygon class="cls-2" points="176.84 251.44 189.43 259.15 183.3 273.95 169.12 279.2 176.84 251.44"/><polygon class="cls-11" points="251.44 155.94 284.46 228.51 262.77 228.14 250.52 220.37 251.44 155.94"/><polygon class="cls-17" points="250.52 220.37 232.62 260.85 245.97 269.48 254.16 271.05 284.46 228.51 250.52 220.37"/><polygon class="cls-26" points="254.16 271.05 256 268.47 233.72 258.35 232.62 260.85 254.16 271.05"/><polygon class="cls-3" points="232.62 260.85 224.86 264.41 220.56 275.99 233.71 271.89 232.62 260.85"/><polygon class="cls-1" points="232.62 260.85 220.56 275.99 226.87 291.55 243.76 295.34 254.16 271.05 232.62 260.85"/><polygon class="cls-2" points="220.56 275.99 212.12 288.11 223.66 299.21 243.76 295.34 220.56 275.99"/><polygon class="cls-1" points="201.47 105.3 203.42 109.65 200.29 111.74 201.47 105.3"/><polygon class="cls-3" points="223.8 100.16 231.05 111.85 232.51 103.07 223.8 100.16"/></svg>