<svg id="Layer_1" data-name="Layer 1" xmlns="http://www.w3.org/2000/svg" viewBox="0 0 400 400"><defs><style>.cls-1,.cls-4{fill:#2b2b2b;}.cls-1{opacity:0.2;}.cls-2{fill:#f4cab2;}.cls-3{fill:#fbe3d4;}.cls-5{fill:#51362a;}.cls-6{fill:#c18f7c;}.cls-7{fill:#fff0e8;}.cls-8{fill:#a06061;}.cls-9{fill:#614538;}.cls-10{fill:#412b23;}.cls-11{fill:#33231b;}.cls-12{fill:#5a753d;}.cls-13{fill:#44622d;}.cls-14{fill:#738c57;}.cls-15{fill:#474748;}.cls-16{fill:#4f5353;}.cls-17{fill:#6f7273;}.cls-18{fill:#9b9fa0;}.cls-19{fill:#848585;}</style></defs><title>diplomats_INFJ_famous_fictional_Matt_Murdock_daredevil</title><polygon class="cls-1" points="43.07 386.56 190.39 356.97 330.83 392.31 269.46 400 43.07 386.56"/><polygon class="cls-2" points="166.65 137.97 211.23 165.52 239.5 61.38 215.34 26.35 166.65 137.97"/><polygon class="cls-3" points="166.65 137.97 186.59 137.97 214.54 115.27 215.09 92.65 215.34 29.35 148.29 27.18 139.95 50.13 145.15 92.65 153.24 122.85 166.65 137.97"/><polygon class="cls-2" points="183.81 97.61 190.39 78.06 204.1 72.3 187.19 70.91 174.75 74.05 174.5 78.06 183.81 97.61"/><polygon class="cls-2" points="160.13 99.06 166.65 79.06 160.85 75.1 148.29 74.05 143.46 76.1 157.05 79.06 160.13 99.06"/><circle class="cls-4" cx="155.05" cy="81.06" r="3.81"/><circle class="cls-4" cx="188.39" cy="78.89" r="3.81"/><polygon class="cls-5" points="172.93 70.55 174.75 74.05 195.77 73.05 204.1 72.3 191.54 67.77 172.93 70.55"/><polygon class="cls-6" points="166.65 137.97 186.59 137.97 214.54 115.27 200 156.09 166.65 137.97"/><polygon class="cls-5" points="160.85 75.1 161.94 72 145.75 70.91 143.46 76.1 149.86 75.89 160.85 75.1"/><polygon class="cls-6" points="160.13 99.06 183.81 97.61 172.93 104.73 167.5 104.73 160.13 99.06"/><polygon class="cls-6" points="160.85 115.85 165.69 110.05 172.93 111.38 181.24 109.2 189.85 113.43 172.93 115.85 160.85 115.85"/><polygon class="cls-7" points="160.13 99.06 166.65 79.06 174.5 78.06 183.81 97.61 160.13 99.06"/><polygon class="cls-2" points="160.85 115.85 165.44 114.62 173.66 114.62 183.81 112.47 189.85 113.43 179.34 119.07 170.4 120.08 160.85 115.85"/><polygon class="cls-2" points="194.2 82.87 200 81.18 204.1 85.4 194.2 82.87"/><polygon class="cls-2" points="154.21 85.4 148.29 85.4 146.24 89.27 154.21 85.4"/><polygon class="cls-8" points="144.06 72.48 147.08 60.28 149.38 67.77 144.06 72.48"/><polygon class="cls-8" points="148.17 79.61 144.06 85.4 145.15 92.65 148.29 85.4 148.17 79.61"/><polygon class="cls-5" points="148.29 9.54 164.12 0.5 205.91 0.5 218.48 6.88 196.49 17.27 183.38 27.66 148.29 9.54"/><polygon class="cls-9" points="149.38 30.56 148.29 9.54 189.85 11.47 196.49 17.27 149.38 30.56"/><polygon class="cls-9" points="196.49 17.27 218.48 6.88 237.08 30.56 238.53 52.06 199.15 37.56 196.49 17.27"/><polygon class="cls-5" points="149.38 30.56 196.49 17.27 207.85 14.61 228.38 34.42 149.38 30.56"/><polygon class="cls-10" points="149.38 30.56 183.81 36.12 201.08 50.37 228.38 44.81 228.38 34.42 149.38 30.56"/><polygon class="cls-11" points="201.08 50.37 210.99 54.48 215.09 92.65 219.69 92.65 227.18 60.28 239.5 64.38 238.53 52.06 228.38 44.81 201.08 50.37"/><polygon class="cls-11" points="148.29 20.05 130.05 34.42 130.05 55.45 143.46 81.18 141.4 44.81 149.38 30.56 148.29 20.05"/><polygon class="cls-10" points="130.05 34.42 141.4 44.81 149.38 30.56 148.29 20.05 130.05 34.42"/><polygon class="cls-3" points="227.18 60.28 239.5 64.38 230.65 96.99 219.69 92.65 227.18 60.28"/><polygon class="cls-6" points="229.59 71.87 233.22 73.08 227.78 84.08 229.59 71.87"/><polygon class="cls-12" points="261.11 360.6 230.66 302.99 263.9 291.98 284.3 352.28 261.11 360.6"/><polygon class="cls-13" points="230.66 302.99 189.83 263.47 233.28 230.67 263.9 291.98 230.66 302.99"/><polygon class="cls-13" points="189.83 263.47 156.25 231.75 116.34 291.47 149.78 304.04 189.83 263.47"/><polygon class="cls-12" points="149.78 304.04 122.72 364.71 99.98 342.25 116.34 291.47 149.78 304.04"/><polygon class="cls-13" points="156.25 231.75 233.28 230.67 189.83 263.47 156.25 231.75"/><polygon class="cls-12" points="156.25 231.75 144.59 176.01 163.91 189.06 227.66 183.32 254.81 148.71 234.32 224.74 156.25 231.75"/><polygon class="cls-14" points="127.78 152.81 166.65 137.97 241.28 138.8 254.81 148.71 227.66 183.32 163.91 189.06 144.59 176.01 127.78 152.81"/><polygon class="cls-13" points="127.78 152.81 100.84 196.24 131.42 208.45 147.56 190.23 144.59 176.01 127.78 152.81"/><polygon class="cls-12" points="100.84 196.24 103.54 244 127.67 241.75 131.42 208.45 100.84 196.24"/><polygon class="cls-13" points="254.81 148.71 258.16 187.16 239.5 207 238.99 206.91 254.81 148.71"/><polygon class="cls-12" points="233.32 212.6 267.11 237 288.5 221.04 257.71 186.67 233.32 212.6"/><polygon class="cls-15" points="149.78 304.04 128.13 296.12 113.75 339.82 133.43 342.34 149.78 304.04"/><polygon class="cls-4" points="128.41 383.61 105.14 383.61 105.14 380.38 83.87 385.22 70.02 385.22 70.02 376.38 128.41 376.38 128.41 383.61"/><polygon class="cls-15" points="120.08 250.6 130.85 256.93 128.73 264.35 131.56 266.33 138 258.47 133.28 248.97 127.67 241.75 120.08 250.6"/><polygon class="cls-15" points="230.66 302.99 249.04 296.9 264.13 337.77 251.32 343.2 230.66 302.99"/><polygon class="cls-15" points="128.41 376.38 128.41 361.73 98.69 360.6 85.81 367.52 70.02 368.49 70.02 376.38 128.41 376.38"/><polygon class="cls-16" points="98.69 360.6 99.98 327.72 138.87 333.86 128.41 361.73 98.69 360.6"/><rect class="cls-4" x="259.69" y="386.56" width="36.67" height="5.74"/><polygon class="cls-15" points="259.69 386.56 265.16 373.38 290.24 373.38 296.36 386.56 259.69 386.56"/><polygon class="cls-16" points="265.16 373.38 245.97 340.79 282.02 326.29 290.24 373.38 265.16 373.38"/><polygon class="cls-17" points="103.54 244 97.33 261.45 120.08 250.6 127.67 241.75 103.54 244"/><polygon class="cls-4" points="267.11 237 273.52 245.78 292.36 229.25 288.5 221.04 267.11 237"/><polygon class="cls-15" points="288.5 221.04 299.93 228.56 292.36 229.25 278.16 239.67 272.47 237 288.5 221.04"/><polygon class="cls-4" points="267.11 257.31 323.24 176.95 328.36 180.53 275.16 260.39 267.11 257.31"/><polygon class="cls-16" points="273.52 245.78 292.36 229.25 299.93 228.56 305.14 236.72 285.01 254.83 273.52 245.78"/><polygon class="cls-15" points="251.9 226.01 277.95 209.26 283.05 214.96 258.44 230.74 251.9 226.01"/><polygon class="cls-15" points="245.95 221.72 271.47 202.03 257.71 186.67 233.32 212.6 245.95 221.72"/><polygon class="cls-15" points="219.19 136.21 217.41 142.75 214.97 151.75 192.14 153.2 166.65 137.97 219.19 136.21"/><polygon class="cls-16" points="219.19 136.21 241.28 138.8 254.81 148.71 227.66 183.32 211.83 185.43 212.92 176.97 222.59 176.25 246.6 152.81 217.41 142.75 219.19 136.21"/><polygon class="cls-15" points="189.83 263.47 228.21 235.85 161.41 237.38 189.83 263.47"/><polygon class="cls-16" points="166.65 137.97 176.01 143.56 146.52 159.82 152.2 166.83 183.24 181.08 189.4 179.27 191.7 186.3 163.91 189.06 144.59 176.01 127.78 152.81 166.65 137.97"/><polygon class="cls-16" points="149.04 197.29 161.74 196.67 171.16 208.38 181.31 209.35 181.86 225.88 154.91 224.74 149.04 197.29"/><polygon class="cls-16" points="168.75 201.86 166.81 196.67 177.2 189.54 221.5 186.16 226.09 190.5 226.09 196.67 168.75 201.86"/><polygon class="cls-16" points="209.42 225.67 206.76 207 222.46 204.5 228.87 194.01 242.32 194.69 234.32 224.74 209.42 225.67"/><polygon class="cls-15" points="139.38 166.58 112.76 202.52 121.43 205.32 142.41 172.06 139.38 166.58"/><polygon class="cls-15" points="100.84 196.24 131.42 208.45 129.72 223.61 102.06 217.89 100.84 196.24"/><polygon class="cls-15" points="128.1 237.97 128.64 233.17 102.74 229.93 103.14 237 128.1 237.97"/><polygon class="cls-16" points="189.83 263.47 223.48 232.71 229.47 256.55 207.71 276.9 189.83 263.47"/><polygon class="cls-16" points="189.83 263.47 163.74 237.32 152.14 256.13 174.47 275 189.83 263.47"/><polygon class="cls-17" points="154.2 222.2 151.18 222.2 150.29 239.8 237.09 238.42 234.32 224.74 154.2 222.2"/><polygon class="cls-16" points="239.5 282.07 245.78 275 253.71 275.24 263.9 291.98 237.85 300.28 239.5 282.07"/><polygon class="cls-16" points="137.78 299.53 116.41 291.98 126 280.26 136.63 278.57 141.58 287.39 137.78 299.53"/><polygon class="cls-15" points="257.31 278.57 241.47 247.07 251.7 242.21 265.35 278.57 257.31 278.57"/><polygon class="cls-4" points="218.59 291.3 222.48 295.06 259.48 272.65 254.84 267.22 218.59 291.3"/><polygon class="cls-4" points="212.28 285.2 208.44 281.48 246.75 252 249.04 258 212.28 285.2"/><polygon class="cls-18" points="217.27 273.13 222.34 280.75 225 278.09 220.29 270.24 217.27 273.13"/><polygon class="cls-18" points="225 285.22 229.47 291.98 232.25 290.77 227.9 283.16 225 285.22"/><polygon class="cls-16" points="200 223.63 193.7 239.8 211.83 241.41 209.06 223.08 200 223.63"/><polygon class="cls-19" points="166.23 222.62 166.23 242.66 177.24 241.41 177.24 223.01 166.23 222.62"/><polygon class="cls-4" points="94.15 265.77 159.61 239.48 161.41 248.26 95.92 271.38 94.15 265.77"/><polygon class="cls-16" points="97.33 261.45 120.08 250.6 129.04 256.02 129.04 262.36 104.92 271.38 97.33 261.45"/></svg>