<svg id="Layer_1" data-name="Layer 1" xmlns="http://www.w3.org/2000/svg" viewBox="0 0 400 400"><defs><style>.cls-1{fill:#35785e;}.cls-1,.cls-10,.cls-11,.cls-12,.cls-13,.cls-14,.cls-15,.cls-16,.cls-17,.cls-18,.cls-19,.cls-2,.cls-20,.cls-21,.cls-22,.cls-3,.cls-4,.cls-5,.cls-6,.cls-7,.cls-8,.cls-9{fill-rule:evenodd;}.cls-2{fill:#6d6e6e;}.cls-23,.cls-3{fill:#2b2b2b;}.cls-3{opacity:0.1;}.cls-4{fill:#b7c644;}.cls-5{fill:#d8e156;}.cls-6{fill:#3f8e6f;}.cls-7{fill:#5a753d;}.cls-8{fill:#709c52;}.cls-9{fill:#e5e97b;}.cls-10{fill:#474748;}.cls-11{fill:#44622d;}.cls-12{fill:#54af8a;}.cls-13{fill:#74c7a5;}.cls-14{fill:#738c57;}.cls-15{fill:#98c16c;}.cls-16{fill:#c18f7c;}.cls-17{fill:#6e5f51;}.cls-18{fill:#554537;}.cls-19{fill:#8b7a6e;}.cls-20{fill:#f4cab2;}.cls-21{fill:#fbe3d4;}.cls-22{fill:#fff0e8;}</style></defs><title>diplomats_INFJ_famous_fictional_aramis_the_three_musketeers</title><polygon class="cls-1" points="249.48 317.29 252.52 317.22 262.48 312.14 267.77 211.45 243.43 202.48 232.54 276.12 249.48 317.29"/><polygon class="cls-1" points="238.59 293.37 245.93 292.08 262.48 312.14 244.18 324.82 234.01 309.27 238.59 293.37"/><polygon class="cls-2" points="245.9 285.45 284.53 323.07 312.94 346.31 250.62 277.69 245.9 285.45"/><polygon class="cls-3" points="103.51 385.12 204.58 399.25 296.59 387.42 195.16 370.99 103.51 385.12"/><polygon class="cls-4" points="215.67 382.4 208.51 384.98 209.22 391.86 245.47 392.15 245.32 385.27 232 380.69 215.67 382.4"/><polygon class="cls-5" points="228.85 359.77 222.4 366.79 208.51 384.98 245.32 385.27 240.74 366.36 228.85 359.77"/><polygon class="cls-4" points="163.67 372.23 136.45 380.11 136.31 387.42 166.11 387.42 172.41 382.69 172.84 387.13 185.16 387.13 184.73 378.82 163.67 372.23"/><polygon class="cls-5" points="177.42 349.88 166.68 357.91 136.45 380.11 184.73 378.82 183.87 365.64 177.42 349.88"/><polygon class="cls-4" points="227.13 306.05 215.38 334.13 222.4 366.79 240.74 366.36 244.18 324.82 227.13 306.05"/><polygon class="cls-4" points="176.13 316.79 167.68 327.25 166.68 357.91 183.87 365.64 193.63 335.24 176.13 316.79"/><polygon class="cls-6" points="211.37 286.14 206.43 298.96 215.38 334.13 244.18 324.82 245.93 292.08 242.17 280.84 219.12 274.83 211.37 286.14"/><path class="cls-6" d="M204.64,290l1.79,8.95-12.8,36.28-25.95-8,.71-29.11s12.75-27.54,11.61-27S204.64,290,204.64,290Z"/><polygon class="cls-1" points="191.89 276.25 183.15 281.54 206.43 298.96 228.6 281.05 214.59 273.46 191.89 276.25"/><polygon class="cls-7" points="201.41 273.28 205.1 281.12 215.45 281.09 215.45 281.09 220.11 278.51 221.04 281.08 221.04 281.08 228.6 281.05 232.72 276.79 227.99 258.88 201.84 257.59 201.41 273.28"/><polygon class="cls-8" points="225.91 273.57 218.57 275.89 215.45 281.09 221.04 281.08 225.91 273.57"/><polygon class="cls-8" points="199.23 251.47 205.14 260.78 205.1 281.12 199.67 281.23 199.67 281.23 196.54 279.37 195.22 281.31 183.15 281.54 178.03 269.66 181.59 251.94 199.23 251.47"/><polygon class="cls-8" points="177.88 258.2 184.97 258.71 190.99 268.59 183.15 281.54 181.31 277.28 187.69 268.39 181.46 259.27 177.88 258.2"/><polygon class="cls-8" points="204.26 256.84 194.43 269.02 199.67 281.23 195.22 281.31 190.99 268.59 199.16 256.48 204.26 256.84"/><polygon class="cls-4" points="171.37 306.48 173.94 309.49 181.61 310.71 181.68 304.9 179.96 302.25 172.66 302.18 171.37 306.48"/><polygon class="cls-9" points="161.62 304.9 164.2 307.7 173.94 309.49 175.02 301.04 166.14 300.46 161.62 304.9"/><polygon class="cls-4" points="167.78 296.74 157.97 301.39 154.75 305.91 164.2 307.7 169 299.53 167.78 296.74"/><polygon class="cls-5" points="168.07 290.01 165.21 291.01 157.97 301.39 181.68 304.9 182.18 295.59 177.96 291.22 168.07 290.01"/><polygon class="cls-5" points="171.22 290.36 173.73 293.37 182.18 295.59 182.54 289.15 177.74 285.92 171.65 286.75 171.22 290.36"/><polygon class="cls-9" points="164.06 288.72 165.21 291.01 173.73 293.37 177.17 285.06 166.71 284.35 164.06 288.72"/><polygon class="cls-5" points="164.78 282.13 158.47 283.85 155.75 288.43 165.21 291.01 170.22 281.99 164.78 282.13"/><polygon class="cls-4" points="180.53 252.47 185.16 259.01 182.54 289.15 158.47 283.85 173.01 257.85 180.53 252.47"/><polygon class="cls-5" points="173.13 240.13 170.83 244.61 173.13 249.89 237.34 256.7 245.93 249.97 246.57 239.37 234.33 235.93 173.13 240.13"/><polygon class="cls-9" points="173.01 257.85 225.3 262.86 244.07 264.94 246.43 259.35 245.93 249.97 173.13 249.89 170.81 250.34 173.01 257.85"/><polygon class="cls-10" points="212.27 244.52 208.4 244.95 208.24 261.1 222.72 272.03 225.66 266.37 213.84 260.28 212.27 244.52"/><polygon class="cls-2" points="226.02 269.88 225.3 262.86 208.4 244.95 211.91 240.33 215.69 240.22 238.44 264.54 226.02 269.88"/><polygon class="cls-2" points="232.61 264.44 225.3 262.86 218.57 275.89 229.15 277.7 237.19 271.6 232.61 264.44"/><polygon class="cls-10" points="246.36 264.15 246.43 259.35 225.3 262.86 230.46 269.74 241.78 265.73 246.36 264.15"/><polygon class="cls-5" points="242.35 270.31 230.46 269.74 228.6 281.05 245.93 292.08 246.07 286.21 242.35 270.31"/><polygon class="cls-4" points="255.81 257.7 246.43 259.35 230.46 269.74 245.93 292.08 262.19 267.73 255.81 257.7"/><polygon class="cls-5" points="261.4 225.4 258.61 233.64 246.43 259.35 262.19 267.73 267.99 260.35 261.4 225.4"/><polygon class="cls-11" points="242.42 205.27 258.61 233.64 270.61 218.3 253.02 175.93 242.42 205.27"/><polygon class="cls-1" points="271.79 169.46 279.38 177.91 268.2 197.25 258.98 168.59 271.79 169.46"/><path class="cls-12" d="M282.39,256.41l4.3-19.19-22.64-71.06-7.12-5.68s-4.19,9.51-1.47,9.12S267,276.11,267,276.11l13.11-11.39Z"/><polygon class="cls-6" points="279.38 177.91 254.78 166.67 256.33 160.34 271.79 162.44 279.38 177.91"/><polygon class="cls-6" points="264.77 346.95 272.5 353.68 286.74 317.46 286.69 237.22 271.5 263.43 264.77 346.95"/><polygon class="cls-12" points="267.49 327.9 262.19 335.49 262.62 359.7 272.5 353.68 272.07 331.34 267.49 327.9"/><polygon class="cls-13" points="268.21 304.98 262.48 312.14 262.19 335.49 272.07 331.34 271.93 312.57 268.21 304.98"/><polygon class="cls-12" points="267.2 287.21 262.48 291.08 262.48 312.14 271.93 312.57 271.79 291.51 267.2 287.21"/><polygon class="cls-13" points="265.92 260.71 262.19 267.73 262.48 291.08 271.79 291.51 271.5 263.43 265.92 260.71"/><path class="cls-1" d="M262.76,228.05c-.14.72-4.15,5.59-4.15,5.59l3.58,34.09,9.31-4.3-4.15-28.5Z"/><polygon class="cls-6" points="259.32 207.71 256.6 214.08 258.61 233.64 267.35 234.93 264.19 213.15 259.32 207.71"/><polygon class="cls-1" points="257.18 186.51 261.33 191.38 264.19 213.15 256.6 214.08 253.75 190.61 257.18 186.51"/><polygon class="cls-6" points="244.71 165.88 249.44 190.8 253.81 190.95 261.33 191.38 256.93 160.48 244.71 165.88"/><path class="cls-4" d="M173,257.85,157.42,231l4.63-10,13.37-1.1s3.19,14.39,2,13.85-4.25,6.35-4.25,6.35Z"/><path class="cls-14" d="M162.34,208.14l-13.75,7.45L157.42,231,178,221.46s-.52-13.4.28-12.46S162.34,208.14,162.34,208.14Z"/><polygon class="cls-7" points="183.11 185.93 174.42 166.37 148.59 215.59 173.84 214.35 183.11 185.93"/><polygon class="cls-7" points="202.31 232.28 205.5 240.51 246.57 239.37 253.81 190.95 249.37 163.01 238.19 151.7 199.36 173.84 202.31 232.28"/><path class="cls-8" d="M217.6,166.09l-4.08,16.08,3.94-.89,4.15-16.48-4,1.29Zm-5.69,74.24c1.26-3.21,5.39-11.17,5.39-11.17l-5.16-9.74,6.52-11-5.84-10.07.47-3.58L224.92,182l9.17,13.61-6.87,11.74,5.65,12-6.23,9.38,5.3,11-3.78.11-5.74-11,6.8-8.66-5.87-12.4L229,197.07,224.28,186l-9.38,8.52,7.73,13.25-6.23,12,5.19,8.95s-4.51,8.19-5.9,11.5Z"/><polygon class="cls-8" points="192.4 158.06 186.79 160.74 174.42 166.37 173.84 214.35 178 229.05 173.13 240.13 178.64 240.2 178.64 240.2 181.93 238.87 182.94 240.25 182.94 240.25 195.69 240.39 195.69 240.39 197.37 238.97 200.24 240.45 205.5 240.51 206.73 208.31 206.61 172.63 192.4 158.06"/><path class="cls-15" d="M190.19,159.12,197,173.93l-5.59,11.75,7.45,11.1L194,216l3.37,4.73-7,10.38,5.3,9.3,4.55.06-5.62-9.29,7.09-10.67-5-7.52,4.95-18.34L195.69,186l4.55-10.28s-2.43-11.79-2.9-11.56S190.19,159.12,190.19,159.12Z"/><polygon class="cls-15" points="188.67 158.96 186.79 160.74 179.22 175.15 186.66 186.89 179.79 199.07 186.52 208.67 184.09 229.23 185.52 231.23 178.64 240.2 182.94 240.25 190.39 231.09 185.81 224.86 189.6 205.23 184.16 198.93 191.39 185.68 183.37 174.36 190.68 160.89 188.67 158.96"/><polygon class="cls-6" points="240.35 157.87 237.27 161.9 208.91 186.1 205.8 187.21 173.84 214.35 173.13 240.13 206.73 208.31 207.32 205.95 209.23 205.82 256.93 160.48 245.15 157.59 240.35 157.87"/><polygon class="cls-4" points="193.76 162.22 206.73 189.14 241.26 159.1 239.6 156.27 236.89 160.81 207.1 186.11 195.76 162 193.76 162.22"/><polygon class="cls-16" points="199.59 137.53 192.12 145.77 191.93 151.28 203.39 169.4 206.61 172.63 216 166.54 230.75 141.9 199.59 137.53"/><polygon class="cls-11" points="228.53 142.33 206.61 172.63 245.15 157.59 246.15 144.76 240.2 144.62 228.53 142.33"/><polygon class="cls-17" points="239.25 127.56 254.65 139.81 261.67 128.21 239.25 127.56"/><polygon class="cls-18" points="232.74 119.33 241.47 136.09 254.65 139.81 243.62 109.44 232.74 119.33"/><polygon class="cls-17" points="237.03 119.04 241.47 136.09 257.39 97.06 253.1 95.63 238.77 110.38 237.03 119.04"/><polygon class="cls-4" points="283.88 70.59 289.52 71.42 287.05 60.67 293.5 72.14 318.56 77.15 300.37 58.1 268.65 38.52 283.88 70.59"/><polygon class="cls-5" points="253.1 27.73 257.09 23.75 283.9 26.01 281.46 36.75 289.77 33.6 318.56 77.15 275.14 46.81 253.1 27.73"/><polygon class="cls-6" points="243.58 78.31 257.39 97.06 283.88 70.59 268.28 66.26 243.58 78.31"/><path class="cls-19" d="M254.39,68.27l.26,9.2,2.75,19.59-12,12.79L241.23,96s2.42-19.27,2.84-20.56S254.39,68.27,254.39,68.27Z"/><polygon class="cls-20" points="242.21 105.23 245.38 109.85 240.2 144.62 205.08 145.7 206.4 139.03 222.87 123.13 228.03 64.83 238.2 67.41 242.21 105.23"/><polygon class="cls-16" points="243.52 98.24 235.24 102.4 245.38 109.85 245.99 104.12 243.52 98.24"/><polygon class="cls-17" points="234.49 63 230.3 69.49 232.49 87.93 239.66 89.06 248.71 83.77 254.65 77.47 252.83 72.24 234.49 63"/><polygon class="cls-13" points="226.15 9.57 166.7 8.56 185.32 42.66 211.18 43.45 223.86 23 226.15 9.57"/><polygon class="cls-6" points="241.15 44.85 275.14 46.81 283.88 70.59 254.65 77.47 230.3 69.49 241.15 44.85"/><polygon class="cls-6" points="223 43.81 223 22.6 220.56 -0.75 257.09 23.75 275.14 46.81 223 43.81"/><path class="cls-12" d="M178.59,54.55c-.13-1,17.9-14,17.9-14L166.7,8.56,148.5,46.1Z"/><polygon class="cls-12" points="151.94 45.95 196.49 40.51 223 22.6 275.14 46.81 230.3 69.49 149.22 75.61 151.94 45.95"/><polygon class="cls-12" points="145.5 36.64 137.47 27.48 84.61 45.09 110.11 79.76 121.28 74.17 145.5 36.64"/><polygon class="cls-6" points="133.18 79.91 110.11 79.76 137.47 27.48 196.49 40.51 155.52 67.19 133.18 79.91"/><polygon class="cls-1" points="170.56 69.73 155.52 67.19 110.11 79.76 163.4 99.53 170.56 69.73"/><polygon class="cls-21" points="155.52 67.19 157.67 124.06 179.16 145.84 190.47 143.69 205.08 145.7 226.29 125.78 230.3 69.49 190.62 58.31 155.52 67.19"/><polygon class="cls-20" points="168.41 75.82 160.82 80.05 171.23 86.72 179.44 103.22 186.17 96.02 193.41 102.94 205.02 85.55 217.4 78.69 205.01 75.04 192.62 79.19 187.82 83.95 186.53 86.42 185.1 83.95 181.38 79.05 168.41 75.82"/><polygon class="cls-17" points="184.81 105.3 170.77 113.46 170.6 118.93 187 110.91 205.84 118 204.23 112 186.96 105.08 184.81 105.3"/><polygon class="cls-16" points="186.1 98.28 179.44 103.22 186.82 108.09 193.41 102.94 186.1 98.28"/><polygon class="cls-17" points="188.04 137.25 179.16 145.84 205.08 145.7 188.04 137.25"/><polygon class="cls-22" points="185.1 83.95 179.44 103.22 193.41 102.94 187.82 83.95 185.1 83.95"/><polygon class="cls-16" points="175.5 117.74 187.1 115.08 197.88 117.01 201 116.44 201.86 117.76 198.67 119.8 187.39 117.8 176.36 119.64 175.5 117.74"/><polygon class="cls-17" points="183.31 123.06 194.34 122.88 188.5 129.83 183.31 123.06"/><polygon class="cls-20" points="161.18 91.72 172.35 96.09 165.4 98.74 161.18 91.72"/><polygon class="cls-20" points="208.95 96.38 220.48 90.44 216.4 98.31 208.95 96.38"/><polygon class="cls-17" points="181.38 77.4 169.41 74.68 160.03 78.9 160.82 80.05 169.56 77.54 181.38 79.05 181.38 77.4"/><polygon class="cls-17" points="192.62 77.4 205.01 73.6 217.55 77.11 217.4 78.69 205.08 76.15 192.62 79.19 192.62 77.4"/><polygon class="cls-20" points="210.47 83.95 220.04 84.57 213.89 86.26 210.47 83.95"/><polygon class="cls-20" points="161.55 87.49 168.9 86.53 166.02 88.45 161.55 87.49"/><polygon class="cls-21" points="237.1 83.06 235.24 102.4 245.99 104.12 248.71 83.77 237.1 83.06"/><polygon class="cls-16" points="239.07 95.09 239.86 87 246.2 87.14 239.07 95.09"/><polygon class="cls-7" points="192.12 145.77 206.61 172.63 176.38 154.5 192.12 145.77"/><polygon class="cls-5" points="207.75 204.34 209.23 205.82 206.73 208.31 204.24 205.82 205.71 204.34 205.71 197.5 201.63 197.5 199.93 199.2 197.43 196.71 199.93 194.21 201.6 195.88 205.71 195.88 205.71 193.11 204.24 191.63 206.73 189.14 209.23 191.63 207.75 193.11 207.75 195.88 211.86 195.88 213.53 194.21 216.03 196.71 213.53 199.2 211.83 197.5 207.75 197.5 207.75 204.34"/><path class="cls-23" d="M206.42,83.18a2.83,2.83,0,1,1-2.82-2.82A2.83,2.83,0,0,1,206.42,83.18Z"/><path class="cls-23" d="M175.18,84.19a2.83,2.83,0,1,1-2.83-2.83A2.83,2.83,0,0,1,175.18,84.19Z"/></svg>