<svg id="Layer_1" data-name="Layer 1" xmlns="http://www.w3.org/2000/svg" viewBox="0 0 400 400"><defs><style>.cls-1,.cls-18,.cls-26{fill:#2b2b2b;}.cls-1{fill-opacity:0.1;}.cls-2{fill:#165e60;}.cls-3{fill:#46382d;}.cls-4{fill:#524137;}.cls-5{fill:#382f26;}.cls-6{fill:#dcdcdb;}.cls-7{fill:#a2a2a2;}.cls-8{fill:#848585;}.cls-9{fill:#8e8e8e;}.cls-10{fill:#9ca0a1;}.cls-11{fill:#c3c3c3;}.cls-12{fill:#446125;}.cls-13{fill:#35785d;}.cls-14{fill:#3f8e6f;}.cls-15{fill:#b7c645;}.cls-16{fill:#d8e254;}.cls-17{fill:#e7ef78;}.cls-19{fill:#54af8a;}.cls-20{fill:#72c8a5;}.cls-21{fill:#474747;}.cls-22{fill:#f4c9b2;}.cls-23{fill:#c1907d;}.cls-24{fill:#5a753d;}.cls-25{fill:#738c57;}.cls-26{opacity:0.2;}.cls-27{fill:#98c16d;}.cls-28{fill:#9fce7e;}.cls-29{fill:#beda8d;}.cls-30{fill:#fce3d4;}.cls-31{fill:#ffefe7;}.cls-32{fill:#5e5043;}.cls-33{fill:#4f5253;}</style></defs><title>diplomats_INFJ_famous_fictional_jon_snow_game_of_thrones</title><polygon class="cls-1" points="100.95 363.3 244.46 400.26 347.12 362.57 225.07 344.75 100.95 363.3"/><polygon class="cls-2" points="225.79 380.87 216.95 386.81 217.07 390.81 244.1 392.87 263.37 361.72 225.79 380.87"/><path class="cls-2" d="M196.1,374.93,186,379.05l.48,4.61,36.12-.73s3.52-8.48,3-8.6S196.1,374.93,196.1,374.93Z"/><path class="cls-3" d="M154.16,106.83l-3.27,7.88,1.7,15.75,14.3,8.49S180.34,120.4,181,121.86s-13.33-18.42-13.33-18.42Z"/><polygon class="cls-4" points="153.19 88.04 145.56 97.01 150.77 114.71 165.56 114.23 171.01 104.17 164.59 88.89 153.19 88.04"/><polygon class="cls-3" points="289.31 104.89 293.67 105.74 280.82 133.86 270.88 104.89 289.31 104.89"/><polygon class="cls-4" points="280.58 68.41 286.15 85.01 293.67 105.74 282.04 113.13 265.43 87.19 280.58 68.41"/><polygon class="cls-5" points="263.37 31.32 290.39 48.89 286.15 85.01 275.12 81.86 266.64 59.44 263.37 31.32"/><polygon class="cls-4" points="236.82 18.96 259.13 9.38 290.39 48.89 275.61 60.17 261.43 67.32 244.7 37.26 236.82 18.96"/><polygon class="cls-5" points="280.94 121.86 280.82 133.86 252.22 148.04 247 146.46 258.88 128.65 280.94 121.86"/><polygon class="cls-6" points="83.86 290.57 80.83 305.85 84.83 324.02 91.26 324.39 95.02 320.15 97.2 324.75 102.77 325.12 112.83 307.06 107.26 286.69 83.86 290.57"/><path class="cls-7" d="M85.08,271.91c.85,1,11.51,24.84,11.51,24.84l16.24,10.31,22.43-5.1,28.6-23.63-43-18.66L85.08,271.79Z"/><polygon class="cls-7" points="80.72 266.46 67.14 271.42 55.02 286.69 80.83 305.85 96.59 296.64 96.96 286.82 80.72 266.46"/><polygon class="cls-8" points="147.13 310.57 112.83 307.06 141.92 287.91 147.13 310.57"/><polygon class="cls-8" points="160.34 339.9 158.04 348.87 151.01 360.51 169.68 358.45 171.13 336.63 160.34 339.9"/><polygon class="cls-9" points="157.44 324.88 156.47 339.06 158.04 348.87 170.16 349.48 183.74 299.3 156.83 300.76 157.44 324.88"/><polygon class="cls-8" points="139.98 346.57 131.38 353.6 119.5 364.63 145.07 364.75 139.98 346.57"/><polygon class="cls-9" points="149.31 322.21 141.07 335.54 131.38 353.6 145.07 364.75 156.47 339.06 149.31 322.21"/><path class="cls-7" d="M141.19,270.33l.73,17.58-.85,47.75,15.28,3.4,8-53.82s-.25-9.57,2.06-10.91l-25.34-4Z"/><path class="cls-7" d="M156.47,339.06,173.8,305l4.6-21.58c-3.75-3.76-7.27-7-9.09-8.72l-2.66-.37c-2.43,1.34-7.64,3.4-7.64,3.4l-2.42,61.44Z"/><polygon class="cls-10" points="151.86 256.76 158.89 277.61 173.68 305 199.74 267.42 175.25 244.76 151.86 256.76"/><polygon class="cls-11" points="120.59 245.49 128.47 234.94 179.13 240.15 173.56 256.51 158.89 277.61 141.92 287.91 129.32 272.88 120.59 245.49"/><polygon class="cls-6" points="98.29 269.73 96.96 252.51 128.47 234.94 129.32 272.88 98.29 269.73"/><polygon class="cls-8" points="102.05 260.27 121.32 247.67 120.59 271.55 102.05 260.27"/><polygon class="cls-6" points="94.29 261.48 96.96 252.51 64.6 234.34 67.14 271.42 94.29 261.48"/><polygon class="cls-8" points="89.93 260.39 74.29 250.46 75.5 269.24 89.93 260.39"/><polygon class="cls-12" points="213.56 345.6 205.07 358.57 175.98 367.78 189.68 298.33 205.07 303.42 213.56 345.6"/><polygon class="cls-13" points="214.16 352.63 205.07 358.57 186.04 379.05 224.22 378.2 230.76 353.72 214.16 352.63"/><path class="cls-14" d="M230.76,353.72,223,361.11l-6.18,25.58,26.42,1.82s3.39-29.09,4.24-29.33-17-5.46-17-5.46Z"/><polygon class="cls-14" points="209.8 321.72 201.19 336.02 205.07 358.57 223.01 361.11 227 328.27 209.8 321.72"/><polygon class="cls-13" points="227.98 326.93 220.82 337.36 223.01 361.11 249.31 361.36 236.34 318.21 227.98 326.93"/><polygon class="cls-15" points="190.04 300.39 194.16 306.21 201.19 336.02 220.82 337.36 228.83 292.27 190.77 294.33 190.04 300.39"/><path class="cls-16" d="M190,300.39l3.76,5.33c8.72,3,26,9,30.78,10.67l.49-2.91c-.49-4.73-1-13.7-1.21-21l-33.09,1.81-.73,5.94Z"/><polygon class="cls-17" points="222.77 293.36 218.04 298.94 220.82 337.36 242.03 336.15 244.34 301.12 222.77 293.36"/><polygon class="cls-15" points="222.77 293.36 218.04 298.94 219.13 314.45 219.13 314.45 243.85 308.75 244.34 301.12 222.77 293.36"/><path class="cls-13" d="M213.31,293.36l4.85,5.58,9.82,2.18s13.81-10.42,12.84-12.24-12.12-24.73-12.12-24.73l-33.57-.85,18.18,30.18Z"/><polygon class="cls-6" points="222.64 271.18 220.71 278.82 227.25 301 247.49 282.21 234.64 266.57 222.64 271.18"/><polygon class="cls-13" points="197.31 289 205.07 303.42 218.04 298.94 217.07 279.66 213.79 246.58 198.04 248.52 197.31 289"/><polygon class="cls-18" points="214.89 273.24 204.58 279.3 200.83 288.51 204.95 294.69 209.8 292.75 214.89 273.24"/><polygon class="cls-19" points="203.98 251.79 204.58 279.3 204.95 294.69 205.07 303.42 189.68 298.33 185.8 248.52 203.98 251.79"/><path class="cls-13" d="M189.92,251.3c1.09.12,51.87-1.57,51.87-1.57l-1.57-53.21-3.27-41L193.8,166.82l-14.18,36.25,10.3,48.11Z"/><polygon class="cls-20" points="190.77 253.73 214.4 255.06 210.89 243.67 204.95 243.31 191.98 243.91 190.77 253.73"/><polygon class="cls-21" points="217.92 258.7 215.13 268.64 204.58 279.3 217.07 279.66 230.76 276.27 232.46 260.88 217.92 258.7"/><polygon class="cls-18" points="213.79 246.58 214.52 233.49 210.64 222.82 202.89 224.76 200.95 234.09 204.95 243.31 213.79 246.58"/><polygon class="cls-22" points="223.13 241.24 214.52 233.49 204.95 243.31 215.13 268.64 226.64 263.43 227.98 246.82 223.13 241.24"/><polygon class="cls-23" points="231.37 237.24 225.79 235.79 214.52 233.49 226.64 263.43 231.37 237.24"/><path class="cls-19" d="M188.22,189l8.49-7.76,34.66,43.51-5.7,11.15S194,191.67,191.13,191.67a2.62,2.62,0,0,1-2.91-2.54Z"/><polygon class="cls-20" points="234.64 193.61 224.1 182.94 188.46 224.03 191.86 237.97 228.46 193.85 234.64 193.61"/><polygon class="cls-24" points="168.71 196.76 168.95 208.4 173.68 305 179.37 310.09 188.83 305.48 188.22 174.34 171.74 180.64 168.71 198.09 168.71 196.76"/><polygon class="cls-12" points="173.68 305 156.83 371.05 167.98 375.17 188.83 312.75 188.83 305.48 183.74 305 173.68 305"/><path class="cls-25" d="M183.62,175.31c.12-1.33,13.21,5.94,13.21,5.94l-2.67,125-5.82,5.45-4.6-6.66h0l-1-121.93.73-7.76Z"/><polygon class="cls-24" points="194.16 306.21 177.07 384.02 167.98 375.17 183.74 305.12 183.74 305 183.74 305 194.16 306.21"/><polygon class="cls-25" points="241.07 174.34 224.1 182.94 227.85 301.12 249.43 366.32 268.1 297.84 241.07 174.34"/><polygon class="cls-24" points="240.34 176.4 239.61 296.15 259.61 366.57 293.67 323.06 266.28 176.4 240.34 176.4"/><polygon class="cls-12" points="272.82 249.48 274.52 198.46 253.67 185.98 255.13 296.64 274.15 362.57 287.73 351.78 273.79 276.03 272.82 249.48"/><path class="cls-24" d="M296.22,333l-8.73,48.84-18.31-79.51-2.3-108.11s18.55-9.58,18.43-7.52,6.18,126.66,6.18,126.66l5,19.76Z"/><polygon class="cls-25" points="284.94 194.58 291.73 209.49 294.76 293.24 303.73 345.48 280.94 297.97 279.49 202.22 284.94 194.58"/><polygon class="cls-24" points="227.85 301.12 244.1 392.87 256.82 388.99 267.61 301.73 255.13 296.64 239.61 296.15 227.85 301.12"/><polygon class="cls-12" points="239.61 296.15 256.82 388.99 267.49 382.2 293.67 323.06 288.58 295.3 280.94 297.97 269.07 302.33 255.13 296.64 239.61 296.15"/><polygon class="cls-12" points="255.13 296.64 267.49 382.2 287.49 381.84 287.73 351.78 278.03 299.06 269.07 302.33 255.13 296.64"/><polygon class="cls-26" points="255.13 296.64 267.49 382.2 287.49 381.84 287.73 351.78 278.03 299.06 269.07 302.33 255.13 296.64"/><path class="cls-12" d="M296.22,333l7,34.66-2.07,3.63-13.69,10.55-18.31-79.51L280.94,298l9.45-3.15c.61,11.15,1,18.54,1,18.54l5,19.76Z"/><polygon class="cls-24" points="294.76 293.24 314.27 368.14 301.18 371.3 280.94 297.97 294.76 293.24"/><path class="cls-27" d="M171.74,180.64l-7.64,2.43-1.33,12.6L169,208.4l5.94-17.58S171.5,180.76,171.74,180.64Z"/><polygon class="cls-28" points="188.22 174.34 182.77 182.94 174.89 190.82 164.1 183.07 166.41 172.04 188.22 174.34"/><polygon class="cls-29" points="284.94 194.58 279.49 202.22 253.67 185.98 278.03 178.34 284.94 194.58"/><polygon class="cls-28" points="278.03 178.34 298.4 189.73 291.73 209.49 279.49 202.22 278.03 178.34"/><polygon class="cls-27" points="250.52 167.8 278.03 161.86 298.4 189.73 253.67 185.98 250.52 167.8"/><polygon class="cls-13" points="196.95 161.49 203.25 167.43 211.61 176.64 242.76 163.43 238.52 142.34 196.95 161.49"/><polygon class="cls-29" points="203.25 167.43 196.83 181.25 182.89 183.07 166.41 172.04 176.1 163.55 201.8 163.31 203.25 167.43"/><polygon class="cls-27" points="208.1 157.25 203.25 167.43 176.1 163.55 208.1 157.25"/><path class="cls-29" d="M229.43,169.13,224.1,183l29.57,3.15L278,162l-9.45-1.21s-17.94,1.21-19.15.72c-11-3.51-.37-22.3-19.88,7.64Z"/><polygon class="cls-27" points="233.06 159.68 229.43 169.13 229.43 169.13 278.03 161.86 270.28 159.92 246.76 153.85 233.06 159.68"/><polygon class="cls-22" points="210.4 151.68 242.4 154.95 251.73 155.07 252.22 148.04 262.64 121.62 244.34 56.17 232.58 37.38 215.01 34.84 206.28 127.07 210.4 151.68"/><polygon class="cls-22" points="212.82 170.94 231.49 163.68 251.73 155.07 252.22 148.04 241.92 146.83 223.25 152.04 212.82 170.94"/><polygon class="cls-23" points="195.37 137.86 189.68 146.59 212.82 170.94 229.19 152.04 210.4 151.68 195.37 137.86"/><polygon class="cls-3" points="219.13 136.77 212.46 149.98 217.43 152.04 229.19 152.04 253.79 123.31 256.22 114.47 249.31 108.16 232.7 125.49 219.13 136.77"/><polygon class="cls-5" points="169.31 127.19 152.47 130.47 182.89 151.07 183.13 132.28 169.31 127.19"/><polygon class="cls-3" points="172.22 70.47 148.59 80.65 145.56 97.01 161.19 99.56 177.07 89.13 172.22 70.47"/><polygon class="cls-4" points="156.59 51.08 142.28 58.47 148.59 80.65 160.95 78.59 170.53 50.83 156.59 51.08"/><polygon class="cls-30" points="160.47 42.72 161.68 114.34 167.01 127.56 182.53 145.61 187.37 149.73 214.52 149.86 217.67 144.77 232.7 125.49 236.22 111.44 234.16 42.35 190.04 49.14 169.56 36.78 160.47 42.72"/><polygon class="cls-4" points="167.01 127.56 182.89 151.07 217.43 152.04 232.7 125.49 216.83 138.95 200.46 142.22 195.37 137.86 190.28 142.47 179.37 140.52 167.01 127.56"/><polygon class="cls-23" points="205.31 45.62 195.01 52.05 213.19 53.87 220.71 58.95 234.64 56.9 221.31 42.11 205.31 45.62"/><polygon class="cls-23" points="182.4 40.17 182.89 48.05 160.59 54.47 154.53 40.9 182.4 40.17"/><polygon class="cls-22" points="174.04 72.89 187.86 78.23 191.86 84.89 194.4 89.26 197.8 84.89 202.77 78.35 213.92 72.41 220.34 71.56 229.79 74.22 214.28 86.83 199.86 105.5 195.25 98.23 189.31 101.14 179.01 86.83 164.1 76.41 174.04 72.89"/><polygon class="cls-23" points="193.07 100.16 188.71 105.62 194.28 109.25 199.86 105.5 193.07 100.16"/><polygon class="cls-3" points="188.95 73.5 187.86 78.23 173.19 74.59 164.1 76.41 172.22 70.47 188.95 73.5"/><polygon class="cls-3" points="200.46 73.5 202.77 78.35 219.49 73.14 229.79 74.22 219.97 69.14 200.46 73.5"/><polygon class="cls-31" points="197.8 84.89 191.86 84.89 188.71 105.62 199.86 105.5 197.8 84.89"/><polygon class="cls-3" points="192.95 112.65 178.16 120.4 173.92 128.28 180.1 123.8 192.95 118.1 192.95 112.65"/><polygon class="cls-3" points="195.13 112.89 195.25 118.35 212.1 122.58 220.22 128.77 214.16 119.31 195.13 112.89"/><polygon class="cls-23" points="184.46 123.68 204.95 124.04 204.34 126.71 184.71 126.83 184.46 123.68"/><polygon class="cls-11" points="96.96 252.51 67.14 271.42 96.96 286.82 129.32 272.88 96.96 252.51"/><polygon class="cls-8" points="89.08 315.54 100.83 316.27 97.2 324.75 91.26 324.39 89.08 315.54"/><path class="cls-13" d="M81.08,292.39c1.33,0,2.42-1.45,2.42-3.27s-1.09-3.27-2.42-3.27-2.43,1.45-2.43,3.27S79.74,292.39,81.08,292.39Z"/><path class="cls-13" d="M111.5,292.39c1.33,0,2.42-1.45,2.42-3.27s-1.09-3.27-2.42-3.27-2.42,1.45-2.42,3.27S110.17,292.39,111.5,292.39Z"/><polygon class="cls-4" points="256.82 111.31 266.64 133.74 280.82 133.86 282.04 113.13 272.58 111.44 256.82 111.31"/><polygon class="cls-3" points="259.37 113.13 253.79 123.31 252.22 148.04 266.64 133.74 267.73 115.31 259.37 113.13"/><polygon class="cls-3" points="272.09 80.41 275.12 81.86 282.04 113.13 267.73 115.31 253.31 98.59 263.97 88.77 272.09 80.41"/><polygon class="cls-4" points="261.06 94.22 259 99.68 267.73 115.31 253.79 123.31 249.31 108.16 261.06 94.22"/><polygon class="cls-3" points="259.85 49.98 275.61 60.17 275.12 81.86 259 99.68 252.34 93.74 257.19 59.8 259.85 49.98"/><polygon class="cls-32" points="255.98 68.05 248.95 76.29 249.31 108.16 259 99.68 263.13 62.71 255.98 68.05"/><path class="cls-32" d="M275.61,60.17l-12.48,2.54s-8.49-4.12-13.7-6.42l-1.82,1.33-2.3-2.91h0L230.16,35l16.48-13,29,38.3Z"/><polygon class="cls-3" points="228.95 37.99 234.16 43.32 248.95 76.29 263.13 62.71 248.7 42.83 228.95 37.99"/><polygon class="cls-3" points="234.28 9.26 259.13 9.38 246.64 21.87 183.5 38.71 187.37 21.14 234.28 9.26"/><polygon class="cls-5" points="186.89 18.71 175.74 10.11 203.01 1.26 234.28 9.26 215.01 21.14 186.89 18.71"/><polygon class="cls-4" points="174.53 35.8 152.34 28.9 175.74 10.11 216.1 21.26 195.74 45.02 174.53 35.8"/><path class="cls-5" d="M185.19,40.41l9.58-6.79,10.91-6.3c8,6.18,16.12,12.49,22.54,17.45l-33.09,7.4-9.82-11.64Z"/><path class="cls-3" d="M205.55,27.2,215,21.14l31.63.73L234.28,43.32l-6.06,1.33c-6.3-5-14.55-11.27-22.54-17.45Z"/><polygon class="cls-5" points="218.4 42.83 220.46 51.08 241.55 59.8 248.7 42.83 226.64 36.9 218.4 42.83"/><path class="cls-5" d="M194.77,33.5,184.22,23.32S153,31.44,153.44,32.17s15.39,11.15,15.75,11.27l25.7,8.61-.24-18.55Z"/><polygon class="cls-32" points="220.46 51.08 236.58 39.56 215.01 21.14 194.77 33.5 220.46 51.08"/><polygon class="cls-3" points="160.59 54.47 142.28 58.47 152.34 28.9 184.22 23.44 160.59 54.47"/><path class="cls-33" d="M81.08,285.73a3.4,3.4,0,1,1-3.52,3.39A3.45,3.45,0,0,1,81.08,285.73Z"/><path class="cls-33" d="M111.5,285.73a3.4,3.4,0,1,1-3.52,3.39A3.46,3.46,0,0,1,111.5,285.73Z"/><path class="cls-18" d="M179,83.07a3.76,3.76,0,1,1-3.76,3.76A3.76,3.76,0,0,1,179,83.07Z"/><circle class="cls-18" cx="214.28" cy="86.83" r="3.76"/></svg>