<svg id="Layer_1" data-name="Layer 1" xmlns="http://www.w3.org/2000/svg" viewBox="0 0 400 400"><defs><style>.cls-1,.cls-2{fill:#2b2b2b;}.cls-1,.cls-10,.cls-11,.cls-12,.cls-13,.cls-14,.cls-15,.cls-16,.cls-17,.cls-18,.cls-19,.cls-2,.cls-20,.cls-21,.cls-3,.cls-4,.cls-5,.cls-6,.cls-7,.cls-8,.cls-9{fill-rule:evenodd;}.cls-1{opacity:0.1;}.cls-3{fill:#474748;}.cls-4{fill:#35785e;}.cls-5{fill:#3f8f6f;}.cls-6{fill:#dfbda5;}.cls-7{fill:#c2987a;}.cls-8{fill:#5a753d;}.cls-9{fill:#738d57;}.cls-10{fill:#6f9d52;}.cls-11{fill:#54b08b;}.cls-12{fill:#8b6651;}.cls-13{fill:#4f5353;}.cls-14{fill:#46382d;}.cls-15{fill:#6f7273;}.cls-16{fill:#35291b;}.cls-17{fill:#514237;}.cls-18{fill:#605044;}.cls-19{fill:#6e5f51;}.cls-20{fill:#74665b;}.cls-21{fill:#e9cbb7;}</style></defs><title>diplomats_INFJ_famous_fictional_desmond_hume_lost</title><polygon class="cls-1" points="80.54 384.27 198.73 400 289.25 386.32 188.37 375.93 80.54 384.27"/><polygon class="cls-2" points="219.25 377.37 205.72 386.17 205.72 392.31 246.88 393.21 246.88 386.69 219.25 377.37"/><polygon class="cls-2" points="138.62 376.45 123.62 381.68 124.12 388.06 180.14 386.59 180.14 380.85 138.62 376.45"/><polygon class="cls-3" points="169.65 355.12 152.11 360.81 123.62 381.68 180.14 380.85 180.6 367.44 169.65 355.12"/><polygon class="cls-4" points="173.85 304.78 155.63 323.54 152.11 360.81 180.6 367.44 189.74 335.84 173.85 304.78"/><polygon class="cls-5" points="188.28 278.95 160.03 276.55 155.63 323.54 189.74 335.84 199.85 300.91 197.84 292.43 197.84 292.43 188.28 278.95"/><polygon class="cls-3" points="226.59 354.81 216.82 367.27 205.72 386.17 246.88 386.69 242.19 369.76 226.59 354.81"/><polygon class="cls-4" points="223.59 301.92 209.07 337.44 216.82 367.27 242.19 369.76 244.22 329.95 223.59 301.92"/><polygon class="cls-5" points="212.77 270.83 199.85 300.91 209.07 337.44 244.22 329.95 246.88 286.77 212.77 270.83"/><polygon class="cls-4" points="199.85 300.91 159.95 277.82 161 265.81 205.1 266.82 205.1 266.82 245.87 267.5 246.88 286.77 199.85 300.91"/><polygon class="cls-3" points="177.08 247.48 160.64 254.34 161 265.81 192.02 273.09 245.87 267.5 246.2 257.47 177.08 247.48"/><polygon class="cls-4" points="281.31 20.95 295.12 16.84 299.08 22.14 284.82 26.7 281.31 20.95"/><polygon class="cls-5" points="248.17 40.17 259.34 50.9 295.16 16.95 287.2 7.64 248.17 40.17"/><polygon class="cls-6" points="188.58 156.65 164.84 181.29 167.54 239.29 225.84 237.79 231.95 150.13 188.58 156.65"/><polygon class="cls-7" points="188.76 208.41 169.44 216.89 177.31 217.64 188.76 214.7 200.87 218.71 223.36 222.69 188.76 208.41"/><polygon class="cls-6" points="173.44 173.54 165.87 182.04 146.7 181.37 138.91 196.62 157.4 220.66 166.11 203.23 174.23 173.49 173.44 173.54"/><polygon class="cls-8" points="173.44 173.54 156.8 161.6 151.39 172.2 154.53 179.63 167.66 209.47 166.11 203.23 174.23 173.49 173.44 173.54"/><polygon class="cls-9" points="173.44 173.54 164.3 183.8 151.39 172.2 146.7 181.37 167.66 209.47 166.11 203.23 174.23 173.49 173.44 173.54"/><polygon class="cls-7" points="117.47 189.05 115.74 197.14 137.7 238.77 157.4 220.66 135.98 189.41 117.47 189.05"/><polygon class="cls-8" points="165.21 174.08 156.8 161.6 164.58 136.03 194.21 150.19 193.49 166.16 187.43 168.33 165.21 174.08"/><polygon class="cls-10" points="168.07 202.18 156.2 187.6 156.8 161.6 187.43 168.33 177.08 191.06 168.07 202.18"/><polygon class="cls-10" points="168.97 231.32 177.31 217.64 177.08 191.06 156.2 187.6 157.4 220.66 168.97 231.32"/><polygon class="cls-9" points="207.58 240.94 190.15 238.84 177.31 217.64 157.4 220.66 160.64 254.34 190.91 259.13 207.58 240.94"/><polygon class="cls-8" points="210.59 208.19 200.87 218.71 190.15 238.84 190.91 259.13 246.2 257.47 245 227.87 224.26 202.63 210.59 208.19"/><polygon class="cls-10" points="226.97 182.04 209.07 193.65 200.87 218.71 232.23 221.65 243.44 188.71 226.97 182.04"/><polygon class="cls-10" points="224.87 156.8 219.28 162.91 209.07 193.65 241.83 191.5 249.21 154.09 224.87 156.8"/><polygon class="cls-5" points="282.31 244.03 286.72 217.64 311.72 234.47 291.56 276.95 283.81 270.12 282.31 244.03"/><polygon class="cls-4" points="311.72 234.47 309.51 296.29 285.57 302.85 283.81 270.12 287.38 262.69 311.72 234.47"/><polygon class="cls-11" points="245.6 237.34 246.2 257.47 257.77 273.7 278.66 275.8 277.14 221.65 245.6 237.34"/><polygon class="cls-5" points="240.94 211.19 232.23 221.65 246.2 257.47 262.58 231.78 254.77 215.85 240.94 211.19"/><polygon class="cls-5" points="263.18 274.9 259.57 279.86 262.58 295.34 281.59 289.33 273.55 269.94 263.18 274.9"/><polygon class="cls-7" points="280.91 268.14 267.54 265.44 257.77 273.7 259.57 279.86 274.15 278.66 280.91 268.14"/><polygon class="cls-7" points="283.77 277.01 293.8 286.3 285.57 302.85 262.58 295.34 267.39 285.57 283.77 277.01"/><polygon class="cls-6" points="277.91 254.77 287.37 264.38 293.8 286.3 267.39 285.57 267.54 265.44 277.91 254.77"/><polygon class="cls-7" points="270.77 215.7 262.58 231.78 267.54 265.44 287.37 264.38 291.92 215.7 270.77 215.7"/><polygon class="cls-6" points="268.14 194.06 273.78 190.24 291.92 215.7 262.58 231.78 248.43 218.71 268.14 194.06"/><polygon class="cls-8" points="241.39 183.39 253.9 162.35 266.22 179.63 259.23 197.72 248.43 218.71 241.39 183.39"/><polygon class="cls-11" points="246.2 154.39 240.31 161.08 232.23 221.65 248.43 218.71 253.9 162.35 246.2 154.39"/><path class="cls-12" d="M188.51,130.12l-13.22,16.14L187.87,160l5.62,6.14,25.1-14.95s-5.75-16.76-5.61-16.76S188.51,130.12,188.51,130.12Z"/><polygon class="cls-5" points="136.47 159.65 126.61 186.02 140.31 182.26 156.8 161.6 152.37 154.86 142.63 153.2 136.47 159.65"/><path class="cls-4" d="M156.8,161.6l22.9-19.46s-27.6-1-26.71-1.25c.41-.13-4.65-.57-7.52,4l-3.53,9Z"/><polygon class="cls-5" points="85.98 196.09 60.14 211.56 89.89 236.81 99.21 235.01 85.98 196.09"/><path class="cls-11" d="M114.08,171.45,60.14,211.56l12.17-.45s49.89-24,50.49-24.94S114.08,171.45,114.08,171.45Z"/><polygon class="cls-4" points="121.3 189.78 116.82 199.19 99.21 235.01 72.31 211.11 110.7 180.71 121.3 189.78"/><polygon class="cls-5" points="132.42 182.87 135.98 189.41 116.82 199.19 110.7 180.71 121 170.54 132.57 175.05 132.42 182.87"/><polygon class="cls-7" points="135.98 189.41 125.28 179.15 132.57 175.05 141.83 180.36 135.98 189.41"/><polygon class="cls-13" points="139.69 126.8 125.66 133.54 141.94 153.92 146.92 149.42 139.69 126.8"/><path class="cls-14" d="M137.54,90.47l-8.25,8.81,9.86,22.31s11.75,9.91,10.42,10.13S159.08,104,159.08,104L145,90.89Z"/><polygon class="cls-15" points="151.39 123.33 146.98 119.63 139.15 121.59 125.66 133.54 133.07 133.12 151.39 123.33"/><polygon class="cls-3" points="146.98 119.63 133.07 133.12 146.92 149.42 156.76 141.19 146.98 119.63"/><polygon class="cls-14" points="259.48 106.83 267.45 109.07 253.05 158.71 240.39 157.52 235.57 125.01 259.48 106.83"/><polygon class="cls-16" points="248.43 115.64 243.19 136.83 230.96 148.99 231.65 123.47 240.63 108.78 248.43 115.64"/><polygon class="cls-7" points="238.22 100.12 239.02 120.93 228.84 156.35 219.28 162.91 193.49 166.16 214.2 149.74 223.71 96.36 238.22 100.12"/><polygon class="cls-12" points="226.2 100.32 228.12 109.05 239.02 120.93 255.56 103.48 226.2 100.32"/><polygon class="cls-6" points="240.6 110.75 226.2 108.79 226.2 81.38 241.02 81.38 240.6 110.75"/><polygon class="cls-17" points="239.9 73.97 228.69 81.62 243.19 136.83 267.45 109.07 254.87 77.89 239.9 73.97"/><polygon class="cls-7" points="228.69 81.62 212.32 131.37 202.15 43.91 230.81 31.88 243.26 57.89 228.69 81.62"/><polygon class="cls-18" points="231.95 94.02 221.87 150.74 214.2 149.74 205.24 148.39 218.61 112.26 228.69 81.62 231.95 94.02"/><polygon class="cls-19" points="244.94 45.17 259.34 50.9 254.87 77.89 228.69 81.62 233.89 54.25 244.94 45.17"/><polygon class="cls-20" points="204.8 25.17 209 47.54 222.61 45.37 233.89 54.25 259.34 50.9 245.36 17.06 204.8 25.17"/><polygon class="cls-20" points="161.25 51.95 136 71.03 129.29 99.28 142.51 97.88 170.3 78.48 161.25 51.95"/><path class="cls-14" d="M164.81,18.46C164,16.11,130.13,47,130.13,47L136,71l21.68,14.41Z"/><polygon class="cls-18" points="157.26 22.37 139.46 20.42 130.13 46.98 154.46 53.7 157.26 22.37"/><polygon class="cls-18" points="215.71 15.66 230.12 13.86 245.36 17.06 213.4 33.42 215.71 15.66"/><polygon class="cls-14" points="174.98 32.44 218.61 2.8 230.12 13.86 212.95 39.01 165.75 60.41 174.98 32.44"/><polygon class="cls-18" points="153.45 25.17 139.46 20.42 185.05 0 218.61 2.8 153.45 25.17"/><polygon class="cls-20" points="166.31 53.14 145.79 37.06 139.46 20.42 218.61 2.8 175.75 44.61 166.31 53.14"/><polygon class="cls-6" points="145.79 37.06 142.51 97.88 144.43 109.3 154.41 142.33 180.06 144.31 196.54 142.98 218.61 112.26 222.61 45.37 212.95 39.01 175.5 42.86 145.79 37.06"/><polygon class="cls-7" points="166.63 73.76 155.3 68.59 146.7 72.64 158.51 86.3 167.66 103.28 175.58 94.04 181.31 104.01 193.63 87.17 210.82 76.28 201.87 71.39 184.17 77.05 178.41 79.98 175.86 83.97 172.71 79.91 167.89 77.05 166.63 73.76"/><polygon class="cls-20" points="144.43 109.3 153.07 144.28 205.24 148.39 218.61 112.26 205.24 120.16 194.21 112.32 160.45 111.63 152.41 119.63 144.43 109.3"/><polygon class="cls-12" points="173.06 99.14 167.66 103.28 175.29 108.56 181.31 104.01 173.06 99.14"/><polygon class="cls-6" points="172.71 79.91 167.66 103.28 181.31 104.01 178.41 79.98 172.71 79.91"/><polygon class="cls-18" points="182.78 72.78 202.34 68.99 210.82 76.28 200.89 73.63 184.17 77.05 182.78 72.78"/><path class="cls-18" d="M169.7,73.13,155.21,68l-8.51,4.62,7.8-.66,13.39,5.07S169.69,73.13,169.7,73.13Z"/><polygon class="cls-6" points="157.93 123.9 163.13 119.17 192.45 119.52 200.23 124.99 196.47 135.53 160.2 133.54 157.93 123.9"/><polygon class="cls-12" points="164.84 121.42 190.88 121.94 189.9 124.93 165.43 124.28 164.84 121.42"/><polygon class="cls-9" points="214.2 149.74 243.19 136.83 240.39 157.52 219.28 162.91 214.2 149.74"/><polygon class="cls-6" points="105.8 170.17 136.47 159.65 138.5 178.66 110.7 180.71 105.8 170.17"/><polygon class="cls-15" points="184.37 265.51 190.91 259.13 199.85 265.81 192.02 273.09 184.37 265.51"/><path class="cls-2" d="M162.81,85a3.73,3.73,0,1,1-3.73-3.73A3.73,3.73,0,0,1,162.81,85Z"/><path class="cls-2" d="M196.17,85.84a3.72,3.72,0,1,1-3.72-3.72A3.72,3.72,0,0,1,196.17,85.84Z"/><polygon class="cls-10" points="266.22 179.63 250.33 199.17 248.43 218.71 273.78 190.24 266.22 179.63"/><polygon class="cls-7" points="190.06 211.41 188.76 213.24 186.16 209.87 190.15 189.41 191.37 210.59 190.06 211.41"/><polyline class="cls-7" points="195.37 110.01 202.15 111.1 205.24 117.59"/><polygon class="cls-7" points="152.46 116.18 159.08 110.01 153.22 112 152.46 116.18"/><polygon class="cls-7" points="172.53 69.26 175.39 74.14 172.53 77.67 172.53 69.26"/><polygon class="cls-1" points="80.54 384.27 198.73 400 289.25 386.32 188.37 375.93 80.54 384.27"/><polygon class="cls-2" points="219.25 377.37 205.72 386.17 205.72 392.31 246.88 393.21 246.88 386.69 219.25 377.37"/><polygon class="cls-2" points="138.62 376.45 123.62 381.68 124.12 388.06 180.14 386.59 180.14 380.85 138.62 376.45"/><polygon class="cls-3" points="169.65 355.12 152.11 360.81 123.62 381.68 180.14 380.85 180.6 367.44 169.65 355.12"/><polygon class="cls-4" points="173.85 304.78 155.63 323.54 152.11 360.81 180.6 367.44 189.74 335.84 173.85 304.78"/><polygon class="cls-5" points="188.28 278.95 160.03 276.55 155.63 323.54 189.74 335.84 199.85 300.91 197.84 292.43 197.84 292.43 188.28 278.95"/><polygon class="cls-3" points="226.59 354.81 216.82 367.27 205.72 386.17 246.88 386.69 242.19 369.76 226.59 354.81"/><polygon class="cls-4" points="223.59 301.92 209.07 337.44 216.82 367.27 242.19 369.76 244.22 329.95 223.59 301.92"/><polygon class="cls-5" points="212.77 270.83 199.85 300.91 209.07 337.44 244.22 329.95 246.88 286.77 212.77 270.83"/><polygon class="cls-4" points="199.85 300.91 159.95 277.82 161 265.81 205.1 266.82 205.1 266.82 245.87 267.5 246.88 286.77 199.85 300.91"/><polygon class="cls-3" points="177.08 247.48 160.64 254.34 161 265.81 192.02 273.09 245.87 267.5 246.2 257.47 177.08 247.48"/><polygon class="cls-4" points="281.31 20.95 295.12 16.84 299.08 22.14 284.82 26.7 281.31 20.95"/><polygon class="cls-5" points="248.17 40.17 259.34 50.9 295.16 16.95 287.2 7.64 248.17 40.17"/><polygon class="cls-6" points="188.58 156.65 164.84 181.29 167.54 239.29 225.84 237.79 231.95 150.13 188.58 156.65"/><polygon class="cls-7" points="188.76 208.41 169.44 216.89 177.31 217.64 188.76 214.7 200.87 218.71 223.36 222.69 188.76 208.41"/><polygon class="cls-6" points="173.44 173.54 165.87 182.04 146.7 181.37 138.91 196.62 157.4 220.66 166.11 203.23 174.23 173.49 173.44 173.54"/><polygon class="cls-8" points="173.44 173.54 156.8 161.6 151.39 172.2 154.53 179.63 167.66 209.47 166.11 203.23 174.23 173.49 173.44 173.54"/><polygon class="cls-9" points="173.44 173.54 164.3 183.8 151.39 172.2 146.7 181.37 167.66 209.47 166.11 203.23 174.23 173.49 173.44 173.54"/><polygon class="cls-7" points="117.47 189.05 115.74 197.14 137.7 238.77 157.4 220.66 135.98 189.41 117.47 189.05"/><polygon class="cls-8" points="165.21 174.08 156.8 161.6 164.58 136.03 194.21 150.19 193.49 166.16 187.43 168.33 165.21 174.08"/><polygon class="cls-10" points="168.07 202.18 156.2 187.6 156.8 161.6 187.43 168.33 177.08 191.06 168.07 202.18"/><polygon class="cls-10" points="168.97 231.32 177.31 217.64 177.08 191.06 156.2 187.6 157.4 220.66 168.97 231.32"/><polygon class="cls-9" points="207.58 240.94 190.15 238.84 177.31 217.64 157.4 220.66 160.64 254.34 190.91 259.13 207.58 240.94"/><polygon class="cls-8" points="210.59 208.19 200.87 218.71 190.15 238.84 190.91 259.13 246.2 257.47 245 227.87 224.26 202.63 210.59 208.19"/><polygon class="cls-10" points="226.97 182.04 209.07 193.65 200.87 218.71 232.23 221.65 243.44 188.71 226.97 182.04"/><polygon class="cls-10" points="224.87 156.8 219.28 162.91 209.07 193.65 241.83 191.5 249.21 154.09 224.87 156.8"/><polygon class="cls-5" points="282.31 244.03 286.72 217.64 311.72 234.47 291.56 276.95 283.81 270.12 282.31 244.03"/><polygon class="cls-4" points="311.72 234.47 309.51 296.29 285.57 302.85 283.81 270.12 287.38 262.69 311.72 234.47"/><polygon class="cls-11" points="245.6 237.34 246.2 257.47 257.77 273.7 278.66 275.8 277.14 221.65 245.6 237.34"/><polygon class="cls-5" points="240.94 211.19 232.23 221.65 246.2 257.47 262.58 231.78 254.77 215.85 240.94 211.19"/><polygon class="cls-5" points="263.18 274.9 259.57 279.86 262.58 295.34 281.59 289.33 273.55 269.94 263.18 274.9"/><polygon class="cls-7" points="280.91 268.14 267.54 265.44 257.77 273.7 259.57 279.86 274.15 278.66 280.91 268.14"/><polygon class="cls-7" points="283.77 277.01 293.8 286.3 285.57 302.85 262.58 295.34 267.39 285.57 283.77 277.01"/><polygon class="cls-6" points="277.91 254.77 287.37 264.38 293.8 286.3 267.39 285.57 267.54 265.44 277.91 254.77"/><polygon class="cls-7" points="270.77 215.7 262.58 231.78 267.54 265.44 287.37 264.38 291.92 215.7 270.77 215.7"/><polygon class="cls-6" points="268.14 194.06 273.78 190.24 291.92 215.7 262.58 231.78 248.43 218.71 268.14 194.06"/><polygon class="cls-8" points="241.39 183.39 253.9 162.35 266.22 179.63 259.23 197.72 248.43 218.71 241.39 183.39"/><polygon class="cls-11" points="246.2 154.39 240.31 161.08 232.23 221.65 248.43 218.71 253.9 162.35 246.2 154.39"/><path class="cls-12" d="M188.51,130.12l-13.22,16.14L187.87,160l5.62,6.14,25.1-14.95s-5.75-16.76-5.61-16.76S188.51,130.12,188.51,130.12Z"/><polygon class="cls-5" points="136.47 159.65 126.61 186.02 140.31 182.26 156.8 161.6 152.37 154.86 142.63 153.2 136.47 159.65"/><path class="cls-4" d="M156.8,161.6l22.9-19.46s-27.6-1-26.71-1.25c.41-.13-4.65-.57-7.52,4l-3.53,9Z"/><polygon class="cls-5" points="85.98 196.09 60.14 211.56 89.89 236.81 99.21 235.01 85.98 196.09"/><path class="cls-11" d="M114.08,171.45,60.14,211.56l12.17-.45s49.89-24,50.49-24.94S114.08,171.45,114.08,171.45Z"/><polygon class="cls-4" points="121.3 189.78 116.82 199.19 99.21 235.01 72.31 211.11 110.7 180.71 121.3 189.78"/><polygon class="cls-5" points="132.42 182.87 135.98 189.41 116.82 199.19 110.7 180.71 121 170.54 132.57 175.05 132.42 182.87"/><polygon class="cls-7" points="135.98 189.41 125.28 179.15 132.57 175.05 141.83 180.36 135.98 189.41"/><polygon class="cls-13" points="139.69 126.8 125.66 133.54 141.94 153.92 146.92 149.42 139.69 126.8"/><path class="cls-14" d="M137.54,90.47l-8.25,8.81,9.86,22.31s11.75,9.91,10.42,10.13S159.08,104,159.08,104L145,90.89Z"/><polygon class="cls-15" points="151.39 123.33 146.98 119.63 139.15 121.59 125.66 133.54 133.07 133.12 151.39 123.33"/><polygon class="cls-3" points="146.98 119.63 133.07 133.12 146.92 149.42 156.76 141.19 146.98 119.63"/><polygon class="cls-14" points="259.48 106.83 267.45 109.07 253.05 158.71 240.39 157.52 235.57 125.01 259.48 106.83"/><polygon class="cls-16" points="248.43 115.64 243.19 136.83 230.96 148.99 231.65 123.47 240.63 108.78 248.43 115.64"/><polygon class="cls-7" points="238.22 100.12 239.02 120.93 228.84 156.35 219.28 162.91 193.49 166.16 214.2 149.74 223.71 96.36 238.22 100.12"/><polygon class="cls-12" points="226.2 100.32 228.12 109.05 239.02 120.93 255.56 103.48 226.2 100.32"/><polygon class="cls-6" points="240.6 110.75 226.2 108.79 226.2 81.38 241.02 81.38 240.6 110.75"/><polygon class="cls-17" points="239.9 73.97 228.69 81.62 243.19 136.83 267.45 109.07 254.87 77.89 239.9 73.97"/><polygon class="cls-7" points="228.69 81.62 212.32 131.37 202.15 43.91 230.81 31.88 243.26 57.89 228.69 81.62"/><polygon class="cls-18" points="231.95 94.02 221.87 150.74 214.2 149.74 205.24 148.39 218.61 112.26 228.69 81.62 231.95 94.02"/><polygon class="cls-19" points="244.94 45.17 259.34 50.9 254.87 77.89 228.69 81.62 233.89 54.25 244.94 45.17"/><polygon class="cls-20" points="204.8 25.17 209 47.54 222.61 45.37 233.89 54.25 259.34 50.9 245.36 17.06 204.8 25.17"/><polygon class="cls-20" points="161.25 51.95 136 71.03 129.29 99.28 142.51 97.88 170.3 78.48 161.25 51.95"/><path class="cls-14" d="M164.81,18.46C164,16.11,130.13,47,130.13,47L136,71l21.68,14.41Z"/><polygon class="cls-18" points="157.26 22.37 139.46 20.42 130.13 46.98 154.46 53.7 157.26 22.37"/><polygon class="cls-18" points="215.71 15.66 230.12 13.86 245.36 17.06 213.4 33.42 215.71 15.66"/><polygon class="cls-14" points="174.98 32.44 218.61 2.8 230.12 13.86 212.95 39.01 165.75 60.41 174.98 32.44"/><polygon class="cls-18" points="153.45 25.17 139.46 20.42 185.05 0 218.61 2.8 153.45 25.17"/><polygon class="cls-20" points="166.31 53.14 145.79 37.06 139.46 20.42 218.61 2.8 175.75 44.61 166.31 53.14"/><polygon class="cls-6" points="145.79 37.06 142.51 97.88 144.43 109.3 154.41 142.33 180.06 144.31 196.54 142.98 218.61 112.26 222.61 45.37 212.95 39.01 175.5 42.86 145.79 37.06"/><polygon class="cls-7" points="166.63 73.76 155.3 68.59 146.7 72.64 158.51 86.3 167.66 103.28 175.58 94.04 181.31 104.01 193.63 87.17 210.82 76.28 201.87 71.39 184.17 77.05 178.41 79.98 175.86 83.97 172.71 79.91 167.89 77.05 166.63 73.76"/><polygon class="cls-20" points="144.43 109.3 153.07 144.28 205.24 148.39 218.61 112.26 205.24 120.16 194.21 112.32 160.45 111.63 152.41 119.63 144.43 109.3"/><polygon class="cls-12" points="173.06 99.14 167.66 103.28 175.29 108.56 181.31 104.01 173.06 99.14"/><polygon class="cls-21" points="172.71 79.91 167.66 103.28 181.31 104.01 178.41 79.98 172.71 79.91"/><polygon class="cls-18" points="182.78 72.78 202.34 68.99 210.82 76.28 200.89 73.63 184.17 77.05 182.78 72.78"/><path class="cls-18" d="M169.7,73.13,155.21,68l-8.51,4.62,7.8-.66,13.39,5.07S169.69,73.13,169.7,73.13Z"/><polygon class="cls-6" points="157.93 123.9 163.13 119.17 192.45 119.52 200.23 124.99 196.47 135.53 160.2 133.54 157.93 123.9"/><polygon class="cls-12" points="164.84 121.42 190.88 121.94 189.9 124.93 165.43 124.28 164.84 121.42"/><polygon class="cls-9" points="214.2 149.74 243.19 136.83 240.39 157.52 219.28 162.91 214.2 149.74"/><polygon class="cls-6" points="105.8 170.17 136.47 159.65 138.5 178.66 110.7 180.71 105.8 170.17"/><polygon class="cls-15" points="184.37 265.51 190.91 259.13 199.85 265.81 192.02 273.09 184.37 265.51"/><path class="cls-2" d="M162.81,83a3.73,3.73,0,1,1-3.73-3.73A3.73,3.73,0,0,1,162.81,83Z"/><path class="cls-2" d="M196.17,83.84a3.72,3.72,0,1,1-3.72-3.72A3.72,3.72,0,0,1,196.17,83.84Z"/><polygon class="cls-10" points="266.22 179.63 250.33 199.17 248.43 218.71 273.78 190.24 266.22 179.63"/><polygon class="cls-7" points="190.06 211.41 188.76 213.24 186.16 209.87 190.15 189.41 191.37 210.59 190.06 211.41"/><polygon class="cls-7" points="205.24 117.59 203.07 110.01 194.21 108.78 205.24 117.59"/><polygon class="cls-7" points="152.46 116.18 160.38 107.89 152.46 109.3 152.46 116.18"/><polygon class="cls-7" points="172.53 69.26 175.39 74.14 172.53 77.67 172.53 69.26"/></svg>