<svg id="illustration_layer_copy_3" data-name="illustration_layer copy 3" xmlns="http://www.w3.org/2000/svg" viewBox="0 0 400 400"><defs><style>.cls-1,.cls-14,.cls-20,.cls-31{fill:#2b2b2b;}.cls-1{opacity:0.1;}.cls-2{fill:#709c53;}.cls-3{fill:#666;}.cls-4{fill:#98c16d;}.cls-5{fill:#4f4f4f;}.cls-6{fill:#6f7173;}.cls-7{fill:#446125;}.cls-8{fill:#f4c9b2;}.cls-9{fill:#c1907d;}.cls-10{fill:#35785d;}.cls-11{fill:#9fce7e;}.cls-12{fill:#165e60;}.cls-13{fill:#3a3a3a;}.cls-14{opacity:0.3;}.cls-15{fill:#738c57;}.cls-16{fill:#281b0e;}.cls-17{fill:#493f38;}.cls-18{fill:#fce3d4;}.cls-19{fill:#ffefe7;}.cls-21{fill:#46382d;}.cls-22{fill:#b99d8d;}.cls-23{fill:#7c6157;}.cls-24{fill:#98796a;}.cls-25{fill:#3f3023;}.cls-26{fill:#5a753d;}.cls-27{fill:#3f8e6f;}.cls-28{fill:#54af8a;}.cls-29{fill:#72c8a5;}.cls-30{fill:#4f5253;}.cls-31{opacity:0.21;}.cls-32{fill:#3f3f3f;}.cls-33{fill:#636363;}.cls-34{fill:#6b6b6b;}.cls-35{fill:#545454;}.cls-36{fill:#7a7a7a;}.cls-37{fill:#cfcecd;}.cls-38{fill:#969696;}.cls-39{fill:#b2b2b2;}</style></defs><title>diplomats_INFJ_famous_fictional_aragorn_the_lord_of_the_rings</title><polygon class="cls-1" points="90.16 387.09 205.49 374.96 328.41 389.59 202.1 400 90.16 387.09"/><polygon class="cls-2" points="257.92 65.69 260.27 81.69 272.65 62.02 270.56 47.51 257.92 65.69"/><polygon class="cls-3" points="239.4 109.82 243.21 112.47 276.46 64.67 271.88 67.19 266.14 71.41 239.4 109.82"/><polygon class="cls-3" points="257.88 122.67 261.69 125.33 294.94 77.53 290.36 80.05 284.62 84.27 257.88 122.67"/><polygon class="cls-2" points="306.59 99.55 290.77 102.91 304.91 84.46 319.24 81.37 306.59 99.55"/><polygon class="cls-4" points="286.37 85.48 288.72 101.48 301.1 81.81 299.01 67.3 286.37 85.48"/><rect class="cls-3" x="284.06" y="77.92" width="4.64" height="58.23" transform="translate(112.4 -144.36) rotate(34.82)"/><polygon class="cls-4" points="266.14 71.41 268.49 87.41 280.87 67.74 278.79 53.23 266.14 71.41"/><polygon class="cls-2" points="286.37 85.48 270.55 88.84 284.68 70.39 299.01 67.3 286.37 85.48"/><rect class="cls-3" x="263.83" y="63.85" width="4.64" height="58.23" transform="translate(431.56 321.26) rotate(-145.18)"/><polygon class="cls-5" points="266.36 118.34 278.21 138.52 258.68 167.11 245.24 152.97 266.36 118.34"/><polygon class="cls-6" points="278.21 138.52 252.68 121.54 266.36 118.34 283.77 130.39 278.21 138.52"/><polygon class="cls-7" points="259.84 139.05 278.43 210.68 283.6 276.26 289.08 366 268.92 368.03 259.69 372.16 229.59 371.73 171.38 365.3 146.2 356.73 125.41 349.56 159.5 220.71 154.33 153.51 259.84 139.05"/><polygon class="cls-8" points="137.24 248.78 138.42 268.45 128.6 258.18 137.24 248.78"/><polygon class="cls-9" points="126.21 275.42 131.55 272.41 125.41 269.03 124.29 270.87 126.21 275.42"/><polygon class="cls-10" points="154.33 153.51 125.58 207.97 138.7 219.75 154.47 216.89 170.77 156.3 154.33 153.51"/><polygon class="cls-8" points="280.64 256.63 283.6 276.26 300.73 269.22 307.15 252.35 292.6 251.1 280.64 256.63"/><polygon class="cls-8" points="278.05 235.39 268.77 256.63 272.69 261.59 280.64 256.63 283.19 245.03 278.05 235.39"/><polygon class="cls-10" points="278.05 235.39 280.64 256.63 307.15 252.35 299.12 231.2 288.8 228.52 278.05 235.39"/><polygon class="cls-10" points="259.84 139.05 296.98 193.15 283.19 203.86 268.77 203.86 247.58 190.44 248.41 167.08 259.84 139.05"/><polygon class="cls-2" points="268.77 203.86 278.05 235.39 299.12 231.2 296.98 193.15 268.77 203.86"/><polygon class="cls-11" points="273.3 219.26 283.19 198.38 298.02 211.73 288.8 233.25 273.3 219.26"/><polygon class="cls-2" points="288.8 233.25 289.08 215.82 283.19 198.38 282.87 217.59 288.8 233.25"/><polygon class="cls-12" points="241.04 217.85 256.62 255.22 285.97 312.5 253.53 334.11 185.61 328.46 152.13 319.99 124.58 310.08 140.71 269.96 155.18 223.78 158.88 209.74 241.04 217.85"/><polygon class="cls-10" points="247.58 190.44 256.62 255.22 240.2 221.38 243.18 193.24 247.58 190.44"/><polygon class="cls-13" points="199.33 290.09 232.44 365.57 258.41 367.71 248.06 294.49 222.23 285.79 199.33 290.09"/><polygon class="cls-13" points="199.33 290.09 171.38 365.3 146.2 356.73 147.84 346.24 156.06 334.11 151.95 319.96 157.22 286.28 178.27 282 199.33 290.09"/><polygon class="cls-13" points="216.69 325.25 257.04 356.73 258.41 367.71 244.49 370.66 232.44 365.57 216.69 325.25"/><polygon class="cls-5" points="232.44 365.57 222.23 386.68 241.55 388.65 264.13 386.68 258.41 367.71 232.44 365.57"/><rect class="cls-13" x="222.23" y="386.68" width="41.9" height="5.71"/><polygon class="cls-5" points="146.2 356.73 115.4 377.93 143.59 379.54 171.38 377.93 171.38 365.3 146.2 356.73"/><polygon class="cls-14" points="248.06 294.49 203.16 299.89 199.33 290.09 219.98 287.71 248.06 294.49"/><polygon class="cls-14" points="157.22 286.28 178.27 282 199.33 290.09 196.08 299.89 157.22 286.28"/><polygon class="cls-6" points="215.88 329.35 217.85 356.65 257.04 356.73 253.53 334.11 215.88 329.35"/><polygon class="cls-6" points="185.11 328.34 183.51 354.24 147.84 346.24 151.95 319.94 185.11 328.34"/><rect class="cls-13" x="115.81" y="377.93" width="55.56" height="5.71"/><polygon class="cls-15" points="172.85 143.79 160.66 157.49 163.09 207.38 162 225.67 161.63 235.5 157.22 286.28 248.06 294.49 240.2 221.38 255.74 143.79 228.69 134.05 172.85 143.79"/><polygon class="cls-16" points="172.85 143.79 189.91 144 166.86 124.12 151.05 133.01 172.85 143.79"/><polygon class="cls-16" points="134.97 110.74 128.18 139.05 154.33 153.51 166.96 154.37 172.85 143.79 155.78 133.53 134.97 110.74"/><polygon class="cls-17" points="117.2 42.9 102.16 82.1 119.44 108.02 118.26 143.37 150.24 161.25 154.33 153.51 131.72 137.87 134.97 110.74 130.04 95.45 114.73 75.94 119.44 55.69 117.2 42.9"/><polygon class="cls-16" points="119.44 55.69 112.37 75.94 127.69 97.81 133.72 97.81 119.44 55.69"/><polygon class="cls-16" points="174.52 6.11 196.55 0.61 221.8 18.87 225.28 34.58 251.59 58.14 256.3 111.19 266.36 118.34 259.84 139.05 257.09 145.92 250.37 137.53 255.13 123.93 240.99 107.83 239.22 73.07 206.43 27.71 174.52 6.11"/><polygon class="cls-16" points="158.1 6.92 139.66 5.91 128.67 16.51 147.91 22.21 158.1 6.92"/><polygon class="cls-17" points="146.51 13.96 166.57 1.79 209.96 25.35 240.6 72.18 242.17 106.65 257.68 122.85 250.37 137.53 243.33 141.55 239.81 135.84 227.05 109.2 232.35 77.12 216.05 69.34 207.61 36.94 186.91 33.99 166.86 13.96 146.51 13.96"/><polygon class="cls-18" points="132.4 26.82 119.44 55.69 127.69 97.81 132.64 103.52 138.13 116.35 148.6 134.93 166.86 131.39 201.03 145.05 232.84 137.87 221.06 81.61 198.08 42.73 159.79 16.51 132.4 26.82"/><polygon class="cls-8" points="198.08 42.73 201.03 90.74 203.68 129.03 180.21 139.74 172.85 143.79 184.55 154.51 192.07 182.96 205.74 156.33 201.32 154.37 232.84 137.87 221.06 81.61 198.08 42.73"/><polygon class="cls-8" points="182.28 61.29 161.95 90.55 127.1 73.07 134.36 67.08 146.51 66.32 156.06 64.44 169.12 60.11 182.28 61.29"/><polygon class="cls-19" points="156.06 64.44 155.96 75.13 161.95 90.55 151.05 92.7 150.81 76.01 146.51 66.32 156.06 64.44"/><circle class="cls-20" cx="169.24" cy="69.26" r="3.76"/><circle class="cls-20" cx="138.93" cy="75.5" r="3.76"/><polygon class="cls-21" points="156.06 64.44 156.99 60.11 170.25 56.28 182.28 61.29 169.12 60.11 156.06 64.44"/><polygon class="cls-21" points="146.51 66.32 144.33 62.76 131.91 64.44 127.1 73.07 134.36 67.08 146.51 66.32"/><polygon class="cls-22" points="161.95 90.55 171.43 92.12 201.03 90.74 211.04 100.26 204.86 127.71 167.49 131.64 148.6 134.93 131.81 105.13 144.65 97.81 151.05 92.7 161.95 90.55"/><polygon class="cls-23" points="161.95 90.55 157.29 97.66 151.05 92.7 161.95 90.55"/><polygon class="cls-24" points="201.03 90.74 217.35 75.33 221.06 81.61 216.64 122.85 203.43 126.38 201.03 90.74"/><polygon class="cls-9" points="167.49 131.64 216.64 122.85 207.24 145.28 201.32 154.37 194.36 148.75 167.49 131.64"/><polygon class="cls-23" points="145.7 108.72 175.79 103.52 176.73 107.23 146.67 112.52 145.7 108.72"/><polygon class="cls-23" points="151.05 92.7 144.65 97.81 144.77 106.06 151.05 92.7"/><polygon class="cls-23" points="161.95 90.55 171.43 92.12 174.52 99.87 161.95 90.55"/><polygon class="cls-23" points="131.81 105.13 132.98 102.53 135.36 103.1 138.14 116.36 131.81 105.13"/><polygon class="cls-8" points="127.69 97.81 134.95 101.15 135.36 103.1 131.81 105.13 127.69 97.81"/><polygon class="cls-23" points="191.47 90.15 186.91 91.48 188.95 108.02 194.13 91.06 191.47 90.15"/><polygon class="cls-8" points="196.02 84.85 186.91 91.48 194.13 91.06 196.02 84.85"/><polygon class="cls-9" points="144.77 32.82 132.55 36.1 121.4 65.7 119.44 55.69 132.9 31.87 144.77 32.82"/><polygon class="cls-9" points="144.77 32.82 165.09 34.23 187.34 51.14 198.46 48.52 201.03 46.71 184.01 41.55 164.51 21.18 144.77 32.82"/><polygon class="cls-25" points="144.77 32.82 147.69 18.87 128.67 16.51 110.99 32.81 119.44 55.69 132.9 31.87 144.77 32.82"/><polygon class="cls-16" points="229.41 106.84 234.71 75.94 218.41 66.98 208.79 34.58 186.91 31.63 166.86 11.6 146.51 13.96 144.77 32.82 164.75 25.55 186.79 46.27 198.46 48.52 203.11 66.88 217.52 85.15 216.64 122.85 232.84 137.87 238.63 140.62 239.81 135.84 229.41 106.84"/><polygon class="cls-26" points="192.5 184.81 195.21 194.04 199.33 290.09 195.21 289.72 191.07 194.4 192.5 184.81"/><rect class="cls-4" x="184.65" y="211.33" width="19.13" height="5" transform="translate(-9.7 9.23) rotate(-2.66)"/><rect class="cls-4" x="183.92" y="199.67" width="19.13" height="5" transform="translate(-9.16 9.19) rotate(-2.66)"/><polygon class="cls-27" points="230.83 136.2 208.87 151.02 216.37 159.49 240.2 221.38 259.84 139.05 230.83 136.2"/><polygon class="cls-27" points="172.85 143.79 163.09 207.38 155.18 223.78 151.33 186.36 154.33 153.51 172.85 143.79"/><polygon class="cls-7" points="211.07 153.51 250.37 141.86 239.81 135.84 228.69 134.05 200.03 149.05 211.07 153.51"/><polygon class="cls-7" points="172.85 143.79 193.49 151.02 179.81 157.84 154.33 153.51 172.85 143.79"/><polygon class="cls-27" points="211.07 153.51 204.61 139.63 191.07 143.03 197.69 150.46 199.33 161.7 198.75 169.95 210.21 164.76 211.07 153.51"/><polygon class="cls-10" points="211.07 153.51 191.07 143.03 194.91 149.7 207.53 154.27 197.49 161.1 198.75 169.95 211.07 153.51"/><polygon class="cls-28" points="211.07 153.51 194.36 148.75 179.81 157.84 197.61 163.38 211.07 153.51"/><polygon class="cls-29" points="211.07 153.51 195.21 154.4 179.81 157.84 195.2 156.64 211.07 153.51"/><polygon class="cls-30" points="259.84 139.05 162 225.67 163.09 207.38 239.81 135.84 259.84 139.05"/><polygon class="cls-30" points="162 225.67 240.2 221.38 241.55 233.91 161.63 235.5 162 225.67"/><polygon class="cls-31" points="202.57 262.63 216.77 279.63 213.56 291.38 225.76 292.48 230.9 280.57 217.54 263.16 202.57 262.63"/><polygon class="cls-32" points="227.88 269.72 230.9 280.57 224.67 285.79 216.77 279.63 213.56 265.7 219.31 263.16 227.88 269.72"/><polygon class="cls-30" points="213.56 265.7 227.88 269.72 224.94 258.61 205.49 251.78 213.56 265.7"/><polygon class="cls-33" points="205.92 228.88 213.56 265.7 202.57 262.63 197.42 242.26 199.33 235.84 205.92 228.88"/><polygon class="cls-29" points="192.17 219.75 205.92 228.88 197.42 242.26 182.88 235.08 192.17 219.75"/><polygon class="cls-30" points="189 233.25 193.49 225.67 200.03 230.09 195.69 236.32 189 233.25"/><polygon class="cls-2" points="125.58 207.97 119.07 241.41 137.24 248.78 154.47 216.89 125.58 207.97"/><polygon class="cls-11" points="139.7 213 145.09 234.26 127.64 244.89 122.28 224.89 139.7 213"/><polygon class="cls-2" points="139.85 213.79 136.47 229.34 127.64 244.89 129.87 226.87 139.85 213.79"/><polygon class="cls-34" points="143.64 266.06 136.75 276.51 97.43 250.59 99.82 245 104.32 240.14 143.64 266.06"/><polygon class="cls-35" points="100.06 232.19 92.91 241.09 88.45 249.8 97.43 250.59 104.32 240.14 100.06 232.19"/><polygon class="cls-36" points="100.06 232.19 88.45 249.8 86.56 235.93 100.06 232.19"/><polygon class="cls-37" points="279.84 351.47 301.23 377.45 269.65 365.25 137.52 278.15 147.5 264.23 279.84 351.47"/><polygon class="cls-38" points="142.48 272.79 301.23 377.45 268.92 368.03 136.59 280.79 142.48 272.79"/><polygon class="cls-39" points="169.7 241.65 143.56 273.5 124.58 310.08 115.26 303.94 161.58 235.5 169.7 241.65"/><polygon class="cls-10" points="137.24 248.78 125.41 269.03 116.84 265.7 104.32 255.13 119.07 241.41 137.24 248.78"/><polygon class="cls-8" points="104.32 255.13 109.18 269.56 126.21 275.42 125.41 269.03 104.32 255.13"/></svg>