<svg id="Layer_1" data-name="Layer 1" xmlns="http://www.w3.org/2000/svg" viewBox="0 0 400 400"><defs><style>.cls-1{opacity:0.15;}.cls-2{fill:#15243a;}.cls-10,.cls-11,.cls-12,.cls-13,.cls-14,.cls-15,.cls-16,.cls-18,.cls-19,.cls-2,.cls-21,.cls-22,.cls-23,.cls-24,.cls-25,.cls-26,.cls-27,.cls-3,.cls-4,.cls-5,.cls-6,.cls-7,.cls-8,.cls-9{fill-rule:evenodd;}.cls-3{fill:#f4cab2;}.cls-4{fill:#98c16c;}.cls-5{fill:#9ecd7e;}.cls-6{fill:#738c57;}.cls-20,.cls-7{fill:#709c52;}.cls-8{fill:#fbe3d4;}.cls-9{fill:#c18f7c;}.cls-10{fill:#74c7a5;}.cls-11{fill:#5a753d;}.cls-12{fill:#bfda8e;}.cls-13{fill:#045f66;}.cls-14{fill:#28788b;}.cls-15{fill:#3a9fb9;}.cls-16{fill:#74cee4;}.cls-17{opacity:0.1;}.cls-18{fill:#2b2b2b;}.cls-19{fill:#3f8e6f;}.cls-21{fill:#6b3d17;}.cls-22{fill:#54af8a;}.cls-23{fill:#44622d;}.cls-24{fill:#35785e;}.cls-25{fill:#965824;}.cls-26{fill:#aa6b28;}.cls-27{fill:#fff0e8;}</style></defs><title>diplomats_INFJ_famous_fictional_rose_dewitt_bukater_titanic</title><g class="cls-1"><polygon class="cls-2" points="157.25 389.65 209.46 399.99 266.83 388.99 210.13 374.46 157.25 389.65"/></g><polygon class="cls-3" points="201.75 382 182.2 379.62 196.84 366.59 205.92 364.52 211.05 369.27 201.75 382"/><polygon class="cls-3" points="226.22 372.14 226.33 385.4 241.52 385.68 240.86 374.9 232.34 368.85 226.22 372.14"/><polygon class="cls-4" points="196.84 366.59 256.16 377.8 241.52 342.33 232.81 337.04 195.9 333.16 189.45 337.62 196.84 366.59"/><polygon class="cls-5" points="170.66 278.17 189.45 337.62 241.52 342.33 248.26 283.23 236.36 265.82 187.19 255.26 170.66 278.17"/><polygon class="cls-6" points="182.2 379.62 201.92 379.51 211.05 369.27 211.24 386.16 174.91 385.96 182.2 379.62"/><polygon class="cls-6" points="226.22 372.14 227.42 384.09 240.72 384.07 240.86 374.9 247.41 391.01 222.77 391.01 226.22 372.14"/><polygon class="cls-3" points="268.94 172.28 253.67 191.13 249.97 207.11 253.6 228.39 264.4 234.35 273.76 231.87 268.94 172.28"/><polygon class="cls-7" points="123.16 258.41 138.14 251.06 141.13 260.97 123.16 258.41"/><polygon class="cls-3" points="167.73 215.28 175.09 196.5 182.73 214.05 182.8 231.87 173.23 226.84 167.73 215.28"/><polygon class="cls-8" points="139.75 230.6 140.07 238.26 147.36 243.22 182.8 231.87 167.73 215.28 139.75 230.6"/><polygon class="cls-9" points="129.06 237.58 138.14 251.06 147.36 243.22 140.07 238.26 129.06 237.58"/><polygon class="cls-10" points="127.41 216.94 131.21 228.72 123.42 243.91 93.85 264.02 67.68 234.69 127.41 216.94"/><polygon class="cls-7" points="67.68 234.69 81.44 244.59 87.81 255.71 88.19 263.17 90.7 271.02 84.06 278.17 67.68 234.69"/><polygon class="cls-11" points="108.33 270.86 99.5 264.88 88.19 263.17 84.06 278.17 108.33 270.86"/><polygon class="cls-7" points="114.47 254.92 99.89 256.43 88.19 263.17 108.33 270.86 117.09 261.25 114.47 254.92"/><polygon class="cls-11" points="141.58 260.84 127.72 257.68 122.76 253.61 114.47 254.92 108.33 270.86 141.58 260.84"/><polygon class="cls-12" points="90.28 245.45 83.28 246.94 90.11 257.19 96.58 252.72 90.28 245.45"/><polygon class="cls-4" points="101.64 258.53 94.31 261.06 90.94 259.75 90.88 256.66 96.58 252.72 100.92 254.99 101.64 258.53"/><polygon class="cls-12" points="92.54 234.81 81.44 244.59 83.28 246.94 91.16 242.03 92.81 239.24 92.54 234.81"/><polygon class="cls-5" points="96.58 252.72 91.16 242.03 92.54 234.81 100.42 245.44 99.66 249.94 96.58 252.72"/><polygon class="cls-12" points="107.61 241.97 100.42 245.44 96.6 252.72 101.64 258.53 106.09 257.03 108.23 247.95 107.61 241.97"/><polygon class="cls-5" points="114.47 254.92 106.09 257.03 107.61 241.97 114.28 245.34 116.62 249.46 114.47 254.92"/><polygon class="cls-4" points="138.14 251.06 127.72 257.68 114.47 254.92 114.28 245.34 129.14 246.16 138.14 251.06"/><polygon class="cls-12" points="120.11 241.57 114.28 245.34 138.14 251.06 134.63 239.29 129.06 237.58 124.11 241.66 120.11 241.57"/><polygon class="cls-3" points="126.79 227.74 120.11 241.57 123.42 243.91 129.06 237.58 147.36 243.22 139.75 230.6 126.79 227.74"/><polygon class="cls-12" points="182.8 231.87 170.66 278.17 248.26 283.23 233.06 240.57 210.92 230.15 182.8 231.87"/><polygon class="cls-4" points="175.09 196.5 182.8 231.87 219.13 236 239.68 225.99 249.97 207.11 235.65 201.12 203.99 213.15 189.21 197.59 175.09 196.5"/><polygon class="cls-12" points="175.09 196.5 203.99 213.15 200.28 189.48 187.48 166.78 175.09 196.5"/><polygon class="cls-12" points="226.15 189.62 203.99 213.15 249.97 207.11 268.94 172.28 226.15 189.62"/><polygon class="cls-8" points="211 207.04 221.06 222.78 215.41 222.23 211.01 217.68 209.59 209.63 211 207.04"/><polygon class="cls-8" points="192.99 206.81 190.23 217.97 202.02 234.05 204.82 223.2 203.99 213.15 192.99 206.81"/><polygon class="cls-3" points="221.06 222.78 203.99 213.15 202.02 234.05 219.13 236 222.98 231.18 221.06 222.78"/><polygon class="cls-8" points="187.48 166.78 210.5 158.07 211.8 158.56 212.81 157.19 216.72 163.87 244.18 160.09 244.9 161.23 246.66 161.31 268.94 172.28 222.21 201.68 207.87 203.59 199.43 200.32 187.48 166.78"/><polygon class="cls-5" points="199.43 200.32 208.01 201.66 207.73 207.04 203.99 213.15 199.43 200.32"/><polygon class="cls-13" points="209.44 198.85 208.46 192.17 209.74 190.55 215.51 189.09 223.44 191 209.44 198.85"/><polygon class="cls-14" points="201.79 186.34 209.44 198.85 209.74 190.55 208.16 187.54 201.79 186.34"/><polygon class="cls-15" points="207.37 183.81 201.79 186.34 209.74 190.55 212.66 187.15 212.76 183.62 207.37 183.81"/><polygon class="cls-14" points="223.44 191 218.9 185.83 212.76 183.62 209.74 190.55 223.44 191"/><polygon class="cls-15" points="219.33 182.41 212.76 183.62 223.44 191 219.33 182.41"/><polygon class="cls-16" points="208.71 180.39 212.76 183.62 201.79 186.34 208.71 180.39"/><polygon class="cls-4" points="210.5 158.07 212.76 183.62 246.66 161.31 244.18 160.08 214.3 180.24 212.81 157.19 210.5 158.07"/><polygon class="cls-8" points="273.76 231.87 221.06 222.78 219.13 236 263.99 250.72 273.76 231.87"/><polygon class="cls-5" points="81.44 244.59 94.31 261.06 88.19 263.17 81.44 244.59"/><polygon class="cls-7" points="83.28 246.94 90.28 245.45 86.72 251.34 83.28 246.94"/><g class="cls-1"><path class="cls-2" d="M238,254.44l-36-20.39L219.13,236l13.93,4.57ZM123.42,243.91l11.21-4.62-5.57-1.71Zm71.42-10.67,7.18.81L190.23,218Z"/></g><polygon class="cls-4" points="208.01 201.66 203.99 213.15 222.21 201.68 208.01 201.66"/><g class="cls-17"><polygon class="cls-18" points="248.26 283.23 189.45 337.62 241.52 342.33 248.26 283.23"/></g><polygon class="cls-10" points="189.4 21 200.48 4.95 254.43 11.83 247.55 26.41 189.4 21"/><polygon class="cls-19" points="269.21 49.61 254.43 11.83 247.55 26.41 269.21 49.61"/><polygon class="cls-11" points="277.1 24.73 250.04 21.13 247.31 23.06 247.55 26.41 260.46 35.24 275.29 34.5 277.1 24.73"/><polygon class="cls-7" points="255.73 38.86 247.55 26.41 275.29 34.5 272.54 49.38 255.73 38.86"/><polygon class="cls-20" points="211.39 10.61 223.33 19.85 239.91 25.43 244.18 23.09 242.42 18.39 218.98 0.01 211.39 10.61"/><polygon class="cls-4" points="211.39 10.61 239.91 25.43 221.52 27.56 204.09 20.81 211.39 10.61"/><polygon class="cls-21" points="193.49 45.67 185.03 51.84 176.34 53.33 170.07 47.87 167.28 39.59 181.31 40.32 193.49 45.67"/><polygon class="cls-22" points="101.95 33.57 115.44 81.18 144.5 68.23 167.28 39.59 140.88 28.57 101.95 33.57"/><polygon class="cls-23" points="242.42 18.39 239.91 25.43 243.28 26.6 247.55 26.41 250.04 21.13 242.42 18.39"/><polygon class="cls-22" points="247.55 26.41 140.76 12.65 147.93 27.46 167.28 39.59 211.3 37.72 247.55 26.41"/><polygon class="cls-19" points="241.22 57.76 208.48 51.77 190.91 45.4 167.28 39.59 247.55 26.41 257.51 51.31 241.22 57.76"/><polygon class="cls-22" points="282.15 99.24 261.89 82.98 241.76 65.3 241.22 57.76 247.55 26.41 332.32 104.3 282.15 99.24"/><polygon class="cls-24" points="282.5 119.99 332.32 104.3 283.61 95.49 278.89 107.63 282.5 119.99"/><polygon class="cls-19" points="101.95 33.57 167.28 39.59 140.76 12.65 101.95 33.57"/><polygon class="cls-19" points="115.44 81.18 167.28 39.59 159.2 80.91 138.97 85.99 115.44 81.18"/><polygon class="cls-24" points="142.14 100.45 115.44 81.18 137.46 81.04 159.2 80.91 142.14 100.45"/><polygon class="cls-25" points="174.28 161.87 187.48 166.78 200.06 164.62 212.81 157.19 187.76 155.82 174.28 161.87"/><polygon class="cls-26" points="178.96 151.14 174.28 161.87 212.81 157.19 194.98 149.39 178.96 151.14"/><polygon class="cls-21" points="199.46 136.62 185.29 141.51 178.96 151.14 212.81 157.19 211.65 145.66 199.46 136.62"/><polygon class="cls-25" points="157.22 146.19 178.96 151.14 199.46 136.62 191.82 136.5 166.43 137.52 157.22 146.19"/><polygon class="cls-26" points="160.79 124.86 157.22 146.19 181 136.34 173.04 125.68 160.79 124.86"/><polygon class="cls-21" points="173.4 102.6 163.41 109.86 160.79 124.86 179.38 137.01 191.82 136.5 173.4 102.6"/><polygon class="cls-25" points="142.14 100.45 160.79 124.86 174.28 104.02 159.28 99.12 142.14 100.45"/><polygon class="cls-26" points="154.05 80.94 142.14 100.45 174.28 104.02 174.84 94.63 169.63 75.15 154.05 80.94"/><polygon class="cls-25" points="177.44 49.72 165.74 58.39 154.05 80.94 169.63 75.15 175.85 72 177.44 49.72"/><polygon class="cls-26" points="167.28 39.59 177.44 49.72 154.05 80.94 167.28 39.59"/><polygon class="cls-25" points="244.18 160.08 248.04 166.15 268.94 172.28 294.69 146.18 267.85 148.94 244.18 160.08"/><polygon class="cls-26" points="275.83 132.29 258.91 141.37 244.18 160.09 294.69 146.18 275.83 132.29"/><polygon class="cls-25" points="258.08 119.49 250.49 132.3 244.18 160.08 275.83 132.29 267.58 120.59 258.08 119.49"/><polygon class="cls-26" points="287.97 118.27 275.83 132.29 256.94 122.83 271.63 114.19 287.97 118.27"/><polygon class="cls-3" points="216.72 163.87 221.56 136.5 235.16 88.6 241.22 57.76 251.54 100.43 258.08 119.49 244.18 160.09 216.72 163.87"/><polygon class="cls-21" points="263.86 104.02 259.65 105.28 256.94 122.83 287.97 118.27 276.43 106.69 263.86 104.02"/><polygon class="cls-26" points="263.86 104.02 274.42 95.12 283.64 95.48 287.97 118.27 263.86 104.02"/><polygon class="cls-25" points="241.22 57.76 247.86 74.78 253.75 85.7 263.86 104.02 283.61 95.49 241.22 57.76"/><polygon class="cls-9" points="212.81 157.19 216.72 163.87 235.97 136.5 199.46 136.62 212.81 157.19"/><polygon class="cls-8" points="237.4 118.27 221.56 136.5 191.82 136.5 176.66 119.47 169.63 75.15 177.44 49.72 193.41 49.02 241.22 57.76 237.4 118.27"/><polygon class="cls-21" points="241.22 57.76 250.58 102.77 253.75 85.7 241.22 57.76"/><polygon class="cls-9" points="256.04 104.88 249.58 106.18 256.94 122.83 261.86 109.59 256.04 104.88"/><polygon class="cls-8" points="249.58 106.18 261.86 109.59 263.86 104.02 253.75 85.7 249.58 106.18"/><polygon class="cls-9" points="258.18 93.73 256.18 103.19 261.26 99.31 258.18 93.73"/><polygon class="cls-9" points="193.06 104.25 197.94 102.25 204.6 104.25 198.29 107.8 193.06 104.25"/><polygon class="cls-3" points="175.28 74.41 186.93 85.38 193.61 98.41 196.2 81.29 194.04 75.65 179.93 72.53 175.28 74.41"/><polygon class="cls-3" points="216.21 74.94 204.91 76.09 202.94 81.71 204.6 104.25 214.69 85.38 228.57 74.43 220.73 73.09 216.21 74.94"/><path class="cls-3" d="M186.53,111.13a1.5,1.5,0,1,0-1.49-1.5,1.49,1.49,0,0,0,1.49,1.5"/><polygon class="cls-4" points="197.09 119.8 189.18 114.84 198.97 115.48 210.47 115.12 202.5 119.8 197.09 119.8"/><polygon class="cls-6" points="189.18 114.84 195.98 112.23 198.74 113.23 202.12 111.99 210.47 115.12 199.44 116.46 189.18 114.84"/><polygon class="cls-21" points="175.28 74.41 179.53 71.36 193.49 73.43 194.04 75.65 184.46 74.43 179.93 72.53 175.28 74.41"/><polygon class="cls-21" points="204.91 76.09 205.67 73.81 221.3 71.47 228.57 74.43 220.73 73.09 216.21 74.94 204.91 76.09"/><polygon class="cls-27" points="196.2 81.29 192.73 104.25 204.6 104.25 202.94 81.71 196.2 81.29"/><polygon class="cls-9" points="177.44 49.72 241.22 57.76 190.91 45.4 177.44 49.72"/><path class="cls-18" d="M218.39,85.62a3.7,3.7,0,1,1-3.45-3.94A3.71,3.71,0,0,1,218.39,85.62Z"/><path class="cls-18" d="M190.63,85.62a3.71,3.71,0,1,1-3.46-3.94A3.71,3.71,0,0,1,190.63,85.62Z"/></svg>