<svg id="Layer_1" data-name="Layer 1" xmlns="http://www.w3.org/2000/svg" viewBox="0 0 400 403.13"><defs><style>.cls-1{fill:#f4c9b2;}.cls-2{fill:#fce3d4;}.cls-21,.cls-3{fill:#2b2b2b;}.cls-3{fill-opacity:0.1;}.cls-4{fill:#5a753d;}.cls-5{fill:#709c53;}.cls-6{fill:#54af8a;}.cls-7,.cls-8{fill:#3f8e6f;}.cls-8{opacity:0.55;}.cls-9{fill:#35785d;}.cls-10{fill:#c1907d;}.cls-11{fill:#a98c80;}.cls-12{fill:#7f5d4e;}.cls-13{fill:#66483a;}.cls-14{fill:#98796a;}.cls-15{fill:#738c57;}.cls-16{fill:#c3c3c3;}.cls-17{fill:#ebebea;}.cls-18{fill:#b7c645;}.cls-19{fill:#98c16d;}.cls-20{fill:#72c8a5;}.cls-22{fill:#ffefe7;}</style></defs><title>diplomats_INFJ_famous_fictional_james_wilson_house_m_d</title><polygon class="cls-1" points="107.13 200.53 89.55 183.96 73.69 203.75 97.27 216.18 107.13 200.53"/><polygon class="cls-2" points="82.12 172.45 89.84 184.24 73.91 204.03 68.69 182.81 82.12 172.45"/><polygon class="cls-2" points="94.69 181.46 95.91 202.89 101.63 209.53 107.13 200.53 100.13 179.46 94.69 181.46"/><polygon class="cls-3" points="107.2 387.42 206 372.49 300.02 384.92 221.36 401.57 107.2 387.42"/><polygon class="cls-4" points="223.29 380.2 214.93 386.63 215.07 390.78 249.22 391.56 249.15 387.35 223.29 380.2"/><polygon class="cls-5" points="281.8 205.39 256.94 169.52 250.22 252.61 284.59 223.89 281.8 205.39"/><polygon class="cls-6" points="159.28 286.58 166.06 330.23 184.64 343.73 201.57 332.23 203.22 294.15 190.64 266.51 169.28 265.22 159.28 286.58"/><polygon class="cls-7" points="166.06 329.98 171.92 368.06 187.35 373.99 199.71 372.63 201.57 331.98 166.06 329.98"/><polygon class="cls-8" points="163.64 313.05 165.35 324.12 190.85 322.48 190.64 266.26 183.43 273.69 163.64 313.05"/><polygon class="cls-6" points="211.29 331.7 203.22 293.9 209.07 269.76 222.79 271.11 237.15 306.33 246.51 313.05 246.22 329.34 225.43 339.2 211.29 331.7"/><polygon class="cls-7" points="220 372.7 211.29 331.7 246.22 329.34 245.44 368.85 233.51 373.56 220 372.7"/><polygon class="cls-8" points="222.79 266.04 229.36 264.33 241.94 281.76 246.51 313.05 246.29 323.34 216.07 323.48 212.79 278.04 222.79 266.04"/><polygon class="cls-9" points="153.02 279.74 203.22 293.9 238.78 284.33 240.86 261.11 222.79 252.61 177.5 254.11 153.02 279.74"/><polygon class="cls-4" points="171.92 368.06 155.06 382.78 176.14 384.35 199.57 382.49 199.71 372.63 171.92 368.06"/><polygon class="cls-4" points="155.06 382.78 155.35 386.63 199.5 386.42 199.57 382.49 155.06 382.78"/><polygon class="cls-4" points="220 372.7 214.93 386.63 249.15 387.35 245.44 368.85 220 372.7"/><polygon class="cls-1" points="232.36 166.24 241.72 105.51 226.93 65.22 215.86 54.15 195.78 142.59 199.5 176.88 232.36 166.24"/><polygon class="cls-10" points="223.07 142.59 195.78 142.59 173.64 138.88 177.71 154.74 181 176.24 205.22 163.17 223.07 142.59"/><polygon class="cls-2" points="124.49 43.79 132.42 52.93 138.7 126.23 157.99 142.59 195.78 142.59 213.65 122.02 215.86 54.15 212.14 26.14 193.43 20.64 138.42 36.79 124.49 43.79"/><polygon class="cls-10" points="164.06 52.65 203.22 31.14 184.5 26.57 159.99 33.93 164.06 52.65"/><polygon class="cls-11" points="164.06 52.65 132.49 53.72 132.06 31.57 148.13 9.35 194.07 1.56 184.07 23.5 172.14 32 164.06 52.65"/><polygon class="cls-12" points="194.07 1.56 197.14 11.35 205.86 19.35 203.22 31.14 180.35 27.21 177.07 18.71 194.07 1.56"/><polygon class="cls-13" points="203.22 31.14 177.07 18.71 171.92 32.36 185.35 32 203.22 31.14"/><polygon class="cls-14" points="238.22 8.71 197.14 11.35 203.22 31.14 218.5 25.71 238.22 8.71"/><polygon class="cls-12" points="256.94 49.79 238.22 8.71 203.22 31.14 215.86 54.15 236.79 60.51 256.94 49.79"/><polygon class="cls-13" points="246.65 73.22 256.94 49.79 215.86 54.15 215.65 67.22 222.15 81.79 233.29 81.94 246.65 73.22"/><polygon class="cls-2" points="226.5 71.51 246.65 73.22 243.15 96.65 238.58 99.23 226.72 95.08 226.5 71.51"/><polygon class="cls-10" points="231.86 86.22 231.65 75.94 240.94 75.94 231.86 86.22"/><polygon class="cls-13" points="119.77 41.93 131.2 40.5 132.49 53.72 135.13 84.65 119.77 41.93"/><polygon class="cls-12" points="148.13 9.35 119.77 41.93 132.49 53.72 148.13 9.35"/><polygon class="cls-15" points="110.34 193.17 93.12 220.61 137.49 242.32 156.71 234.54 156.71 224.11 144.49 207.75 134.7 209.32 110.34 193.17"/><polygon class="cls-5" points="154.28 174.45 134.7 209.32 156.71 224.11 158.85 210.18 154.28 174.45"/><polygon class="cls-16" points="175.85 164.74 162.49 231.75 182.35 256.11 226.08 255.68 233.08 230.46 223 172.74 205.22 163.17 175.85 164.74"/><polygon class="cls-17" points="184.93 182.81 188.85 162.52 177.71 154.74 175.85 164.74 184.93 182.81"/><polygon class="cls-17" points="211.29 181.03 205.22 163.17 234.36 153.66 239.94 160.81 211.29 181.03"/><polygon class="cls-15" points="191.43 186.88 190.43 183.03 184.93 182.81 188.85 162.52 205.22 163.17 202.79 170.31 207.57 170.17 211.29 181.03 205 186.67 199.71 190.38 191.43 186.88"/><polygon class="cls-5" points="191.43 186.88 192.5 191.89 190.21 194.96 188.85 202.1 190 207.53 186.93 212.39 184.93 223.25 187.57 231.04 183 233.61 199.5 255.9 205.43 245.47 202.79 239.54 210.14 236.68 209.07 226.03 204.14 219.1 208 216.1 207.07 207.96 202.57 200.89 206.29 199.31 205 186.67 191.43 186.88"/><path class="cls-18" d="M191.43,186.88,190,194.74,206.86,208l-.79-8.64-14.79-12.44Zm-2.79,15.22h0l-1.93,10.29L208.86,226l-1.07-9.93Zm-3.93,21.15h0l-1.93,10.36,22.44,11.86,4.71-8.79Z"/><polygon class="cls-19" points="175.85 164.74 182.57 261.75 185.64 312.62 149.92 313.26 154.28 174.45 175.85 164.74"/><polygon class="cls-5" points="165.99 178.88 175.85 164.74 179.71 218.82 164.92 192.1 172.14 183.24 165.99 178.88"/><polygon class="cls-19" points="217.15 176.88 217.36 218.18 218.5 261.11 220.43 314.62 262.44 312.19 260.87 269.76 256.94 169.52 239.94 160.81 223 172.74 217.15 176.88"/><polygon class="cls-19" points="261.08 275.9 260.87 269.76 260.65 266.97 250.87 268.69 261.08 275.9"/><path class="cls-5" d="M226.5,179.74l4.15,10.86s-13.29,29.15-13.29,27.58c0-1.29-.21-41.3-.21-41.3L239.94,161l-1.5,15.22Z"/><polygon class="cls-5" points="223 214.96 246.94 213.68 247.37 229.75 224.29 230.04 223 214.96"/><polygon class="cls-18" points="226.72 217.53 227.36 225.82 233.51 225.61 232.58 217.1 226.72 217.53"/><polygon class="cls-18" points="235.44 217.96 235.86 219.53 243.94 219.32 244.15 217.1 235.44 217.96"/><polygon class="cls-18" points="235.86 222.32 236.29 224.75 244.58 224.32 244.15 221.89 235.86 222.32"/><polygon class="cls-20" points="230 202.1 231.29 214.53 235.65 214.32 235.01 201.89 230 202.1"/><polygon class="cls-7" points="234.36 193.39 235.44 208.89 239.72 208.67 239.94 200.39 239.94 192.96 234.36 193.39"/><polygon class="cls-20" points="245.44 200.39 239.94 200.89 239.72 208.67 245.44 208.46 245.44 200.39"/><polygon class="cls-7" points="294.59 189.74 293.73 196.03 301.3 195.81 301.95 189.96 294.59 189.74"/><polygon class="cls-7" points="306.16 189.46 304.81 196.03 315.24 196.03 316.09 189.74 306.16 189.46"/><polygon class="cls-6" points="285.87 198.67 273.73 193.89 263.94 193.39 250.87 268.69 260.87 269.76 285.87 198.67"/><polygon class="cls-20" points="325.09 194.96 273.73 193.89 260.87 269.76 308.52 273.47 312.38 255.83 311.16 237.39 318.31 226.25 325.09 194.96"/><polygon class="cls-2" points="320.09 218.03 302.45 223.53 300.8 243.82 313.95 247.97 320.24 234.18 320.09 218.03"/><path class="cls-1" d="M331.31,226.25c-1.14-.79-11.22-8.22-11.22-8.22L317,233.61,314,248,328,241,331,226.25Z"/><polygon class="cls-10" points="241.72 105.51 226.72 95.08 243.15 96.65 241.72 105.51"/><polygon class="cls-18" points="205.22 163.17 184.93 182.81 191.43 186.88 207.57 170.17 205.22 163.17"/><polygon class="cls-7" points="300.8 243.82 312.38 255.83 313.95 247.97 300.8 243.82"/><polygon class="cls-1" points="145.92 72.94 159.64 73.51 165.85 81.08 167.14 84.08 169.92 80.94 176.42 71.65 181.78 68.15 202.86 71.29 189.5 81.65 175.28 101.16 167.71 93.44 159.56 101.37 152.63 86.3 138.06 75.86 145.92 72.94"/><polygon class="cls-10" points="167.49 95.65 159.56 101.37 169.21 107.01 175.28 101.16 167.49 95.65"/><path class="cls-21" d="M153.49,79.15a3.72,3.72,0,1,1-3.71,3.72A3.72,3.72,0,0,1,153.49,79.15Z"/><path class="cls-21" d="M186.85,76.22a3.69,3.69,0,0,1,3.72,3.72,3.75,3.75,0,0,1-3.72,3.78,3.8,3.8,0,0,1-3.78-3.78A3.75,3.75,0,0,1,186.85,76.22Z"/><polygon class="cls-13" points="176.14 66.58 197.93 64.36 202.86 71.29 176.42 71.65 176.14 66.58"/><path class="cls-13" d="M159.14,68,140.2,70l-2.14,5.85,21.58-2.35S159.06,68,159.14,68Z"/><polygon class="cls-22" points="165.85 81.08 163.99 89.72 159.56 101.37 175.28 101.16 171.35 89.3 169.92 80.94 165.85 81.08"/><polygon class="cls-10" points="158.21 118.87 170.35 116.37 182.28 115.8 190.5 115.44 189.5 117.52 170.71 118.59 159.35 120.87 158.21 118.87"/></svg>