<svg id="Layer_1" data-name="Layer 1" xmlns="http://www.w3.org/2000/svg" viewBox="0 0 400 400"><defs><style>.cls-1{fill:#a3a3a3;}.cls-1,.cls-16,.cls-19,.cls-2,.cls-21,.cls-24{fill-rule:evenodd;}.cls-2,.cls-6{fill:#d0af96;}.cls-3{fill:#3f8f6f;}.cls-24,.cls-4{fill:#efd3c2;}.cls-5{fill:#e8f078;}.cls-16,.cls-7{fill:#a9846c;}.cls-8{fill:#72c9a6;}.cls-9{fill:#b8c745;}.cls-10{fill:#54b08b;}.cls-11,.cls-23{fill:#2b2b2b;}.cls-12{fill:#f7e6dc;}.cls-13{fill:#709d53;}.cls-14,.cls-19{fill:#ececeb;}.cls-15{fill:#35785d;}.cls-17{fill:#dddddc;}.cls-18,.cls-21{fill:#cececd;}.cls-20{fill:#3aa0ba;}.cls-22{fill:#73cfe5;}.cls-23{opacity:0.2;}</style></defs><title>diplomats_INFJ_famous_real_Lady_Gaga</title><polygon class="cls-1" points="169.59 146.98 185 140.18 182.39 137.97 171.84 125.27 169.59 146.98"/><polygon class="cls-2" points="169.59 146.98 190 137.97 236.79 127.77 234.9 160.7 195.68 222.71 167.91 163.16 169.59 146.98"/><polygon class="cls-2" points="192.99 140.59 203.06 123.92 224.92 90.89 233.72 93.37 221.48 136.19 218.63 137.97 192.99 140.59"/><polygon class="cls-3" points="223.84 223.05 234.9 182.26 229.56 151.1 229.56 123.58 205.77 140.59 202.35 186.04 195.21 216.83 191.03 186.04 181.41 130.54 163.97 140.59 158.52 197.29 162.42 222.71 177.29 237.06 196.28 253.02 223.84 223.05"/><polygon class="cls-4" points="182.39 137.97 197.92 137.97 220.36 119.51 229.21 94.16 236.79 34 165.35 22.19 155.78 80.34 163.43 115.15 182.39 137.97"/><polygon class="cls-5" points="194.43 61.26 240.08 60.53 212.47 109.03 194.43 61.26"/><polygon class="cls-6" points="200.64 99.29 211.5 78.66 226.65 71.63 215.56 64.86 201.64 69.69 196.58 75.01 200.64 99.29"/><polygon class="cls-5" points="194.43 61.26 168.96 106.46 157.2 51.56 194.43 61.26"/><polygon class="cls-6" points="181.41 98.32 190.32 75.01 184.97 67.42 171.84 58.5 163.43 61.54 176.87 75.01 181.41 98.32"/><polygon class="cls-7" points="195.21 216.83 196.71 187.51 204.63 159.12 202.35 186.04 195.21 216.83"/><polygon class="cls-8" points="229.37 137.97 243.98 105.19 277.84 105.07 292.59 135.74 229.37 137.97"/><polygon class="cls-9" points="179.39 87.94 188.3 72.14 184.97 67.42 172.45 59.6 164.84 62.96 176.87 75.01 179.39 87.94"/><polygon class="cls-9" points="205.39 90.27 198.79 72.81 201.64 69.69 215.99 66.67 226.65 71.63 211.5 78.66 205.39 90.27"/><polygon class="cls-10" points="229.37 137.97 229.56 151.1 234.9 182.26 236.79 202.53 256.17 197.86 292.59 135.74 229.37 137.97"/><polygon class="cls-10" points="163.97 140.59 102.99 146.98 115.47 197.29 132.02 197.29 163.97 140.59"/><polygon class="cls-8" points="163.97 140.59 158.52 126.46 151.78 96.28 114.35 99.29 95.98 111.61 102.99 146.98 163.97 140.59"/><circle class="cls-11" cx="175.38" cy="74.73" r="4.48"/><circle class="cls-11" cx="212.47" cy="78.66" r="4.48"/><polygon class="cls-11" points="203.06 77.53 218.63 78.66 224.29 77.53 215.32 72.81 203.06 77.53"/><polygon class="cls-11" points="184.34 75.01 173.65 68.25 163.43 70.61 184.34 75.01"/><polygon class="cls-7" points="181.41 98.32 200.64 99.29 189.56 103.51 181.41 98.32"/><polygon class="cls-12" points="181.41 98.32 190.32 75.01 196.58 75.01 200.64 99.29 181.41 98.32"/><line class="cls-6" x1="261.09" y1="143.58" x2="234.9" y2="140.59"/><polygon class="cls-13" points="201.64 69.69 201.64 66.04 216.96 61.26 226.65 71.63 215.99 66.67 201.64 69.69"/><polygon class="cls-13" points="184.97 67.42 185.91 62.58 171.84 55.66 163.43 61.54 172.45 59.6 184.97 67.42"/><polygon class="cls-14" points="175.38 110.71 186.31 110.71 204.63 113.54 197.43 118.13 182.92 117.1 175.38 110.71"/><polygon class="cls-15" points="175.38 110.71 185.91 108.19 189.56 110.08 195.33 108.19 204.63 113.54 188.9 112.75 180.74 112.26 175.38 110.71"/><polygon class="cls-15" points="175.38 110.71 182.93 121.87 196.58 121.87 204.63 113.54 197.63 116.39 183.66 116.42 175.38 110.71"/><polygon class="cls-4" points="143.72 197.29 121.86 134.63 103.1 146.89 115.47 197.29 143.72 197.29"/><polygon class="cls-16" points="182.39 137.97 197.92 137.97 220.36 119.51 214.51 133.19 186.09 149.83 182.39 137.97"/><polygon class="cls-14" points="220.22 32.64 178.68 37.74 164.84 77.05 161.26 38.86 185.13 18.24 222.64 18.7 220.22 32.64"/><polygon class="cls-17" points="222.64 18.7 213.68 0 153.04 24.24 132.25 87.43 161.26 38.86 185.13 18.24 222.64 18.7"/><polygon class="cls-18" points="213.68 0 170.58 4.46 145.65 21.09 126.27 74.73 132.25 87.43 153.04 24.24 213.68 0"/><polygon class="cls-17" points="161.26 38.86 164.84 77.05 164.84 193.73 144.36 91.68 161.26 38.86"/><polygon class="cls-18" points="161.26 38.86 132.25 87.43 142.59 203.08 164.84 193.73 144.36 91.68 161.26 38.86"/><polygon class="cls-14" points="220.22 32.64 231.73 74.18 211.38 197.29 216.96 200.74 255.89 70.25 229.01 36.95 220.22 32.64"/><polygon class="cls-17" points="220.22 32.64 222.64 18.7 267.21 77.05 229.37 198.38 216.96 200.74 255.89 70.25 220.22 32.64"/><polygon class="cls-18" points="267.21 77.05 254.96 129.42 243.42 198.38 231.32 192.12 267.21 77.05"/><polygon class="cls-19" points="132.25 87.43 126.27 74.73 133.47 198.38 142.59 203.08 138.48 140.59 132.25 87.43"/><line class="cls-20" x1="153.83" y1="186.04" x2="143.72" y2="178.49"/><polygon class="cls-21" points="170 200.13 171.84 125.27 163.43 115.15 162.45 110.71 164.84 193.73 170 200.13"/><line class="cls-22" x1="261.09" y1="152.07" x2="282.78" y2="168.51"/><line class="cls-18" x1="238.36" y1="124.2" x2="220.75" y2="140.59"/><line class="cls-22" x1="260.44" y1="180.97" x2="261.09" y2="152.07"/><line class="cls-20" x1="261.09" y1="152.07" x2="260.44" y2="180.97"/><polygon class="cls-6" points="191.68 266.2 229.56 230.19 226.1 304.73 202.3 305.35 191.68 266.2"/><polygon class="cls-6" points="191.68 266.2 159.26 229.17 145.78 302.76 170.46 305.35 191.68 266.2"/><polygon class="cls-23" points="70 380.56 176.52 359.11 287.31 389.07 172.44 400 70 380.56"/><polygon class="cls-15" points="191.68 266.2 159.26 229.17 196.28 246.71 229.56 230.19 191.68 266.2"/><polygon class="cls-10" points="252.88 240.77 225.51 216.9 196.28 246.71 252.88 240.77"/><polygon class="cls-10" points="196.28 246.71 161.72 218.16 133.1 237.06 196.28 246.71"/><polygon class="cls-4" points="202.3 305.35 212.71 363.44 224.58 363.44 226.1 302.76 202.3 305.35"/><polygon class="cls-4" points="144.6 360.84 170.46 305.35 145.78 302.76 133.1 356.76 144.6 360.84"/><polygon class="cls-18" points="267.21 77.05 252.44 22.19 222.64 18.7 267.21 77.05"/><polygon class="cls-18" points="222.64 18.7 215.55 3.9 240.36 6.11 252.44 22.19 222.64 18.7"/><polygon class="cls-8" points="206.92 332.81 218.09 342.75 225.6 331.61 233.12 363.62 230.02 386.61 206.92 386.61 201.39 363.14 206.92 332.81"/><polygon class="cls-15" points="206.92 386.61 206.92 391.53 230.16 391.53 230.02 386.61 206.92 386.61"/><polygon class="cls-3" points="206.92 386.61 201.39 363.14 217.38 354.2 233.12 363.62 230.02 386.61 206.92 386.61"/><polygon class="cls-10" points="217.38 354.2 218.09 342.75 225.6 331.61 233.12 363.62 217.38 354.2"/><polygon class="cls-8" points="151.78 347.62 156.96 385.61 151.13 385.61 151.13 362.03 128.87 385.61 106.27 385.61 106.27 373.67 137.54 337.74 151.78 347.62"/><polygon class="cls-15" points="106.27 385.61 106.27 380.56 134.29 380.56 128.87 385.61 106.27 385.61"/><polygon class="cls-3" points="134.29 380.56 151.13 362.03 124.78 352.41 106.27 373.67 106.27 380.56 134.29 380.56"/><polygon class="cls-15" points="151.13 385.61 151.13 380.56 157.2 380.56 156.96 385.61 151.13 385.61"/><polygon class="cls-3" points="151.13 362.03 151.13 380.56 157.2 380.56 157.86 366.48 151.13 362.03"/><polygon class="cls-10" points="151.13 362.03 137.54 337.74 156.96 334.32 157.86 366.48 151.13 362.03"/><polygon class="cls-7" points="103.1 146.89 90.97 125.14 120.19 120.51 121.86 134.63 103.1 146.89"/><polygon class="cls-5" points="124.48 104.56 124.67 94.25 140.64 93.77 148.7 113.2 138.01 124.17 124.48 104.56"/><polygon class="cls-9" points="116 110.65 118.26 101.42 124.67 94.25 138.01 124.17 122.16 124.94 116 110.65"/><polygon class="cls-9" points="106.11 116.17 93.09 116.13 76.43 126.41 80.65 136.24 112.61 126.82 119.43 116.65 106.11 116.17"/><polygon class="cls-6" points="119.43 116.65 126.71 117.56 121.86 134.63 114.52 139.38 109.36 123.58 119.43 116.65"/><polygon class="cls-4" points="118.26 101.42 93.09 116.13 98.55 127.32 126.71 117.56 118.26 101.42"/><polygon class="cls-2" points="293.02 197.14 264.92 182.94 236.79 202.53 289.56 210.35 307.1 199.11 293.02 197.14"/><polygon class="cls-2" points="317.21 187.22 306.38 198.91 293.02 197.14 313.28 183.27 317.21 187.22"/><polygon class="cls-24" points="320.43 201.28 309.46 195.58 293.02 197.14 289.56 210.35 319.15 214.58 335.74 208.09 333.83 195.1 320.43 201.28"/><polygon class="cls-2" points="319.15 214.58 320.43 201.28 333.83 195.1 335.74 208.09 319.15 214.58"/><polygon class="cls-6" points="220.22 32.64 182.39 43.72 171.84 55.66 178.68 37.74 220.22 32.64"/></svg>