<svg id="illustration_layer_copy_3" data-name="illustration_layer copy 3" xmlns="http://www.w3.org/2000/svg" viewBox="0 0 400 400"><defs><style>.cls-1,.cls-18,.cls-24{fill:#2b2b2b;}.cls-1{opacity:0.1;}.cls-2{fill:#fce3d4;}.cls-3{fill:#54af8a;}.cls-4{fill:#35785d;}.cls-5{fill:#c1907d;}.cls-6{fill:#709c53;}.cls-7{fill:#98c16d;}.cls-8{fill:#beda8d;}.cls-9{fill:#f4c9b2;}.cls-10{fill:#a2a2a2;}.cls-11{fill:#dcdcdb;}.cls-12{fill:#3f8e6f;}.cls-13{fill:#5a753d;}.cls-14{fill:#738c57;}.cls-15{fill:#6f7173;}.cls-16{fill:#737373;}.cls-17{fill:#ffefe7;}.cls-19{fill:#cdcdcc;}.cls-20{fill:#c3c3c3;}.cls-21{fill:#848585;}.cls-22{fill:#8e8e8e;}.cls-23{fill:#9fce7e;}.cls-24{opacity:0.2;}.cls-25{fill:#72c8a5;}.cls-26{fill:#ebebea;}</style></defs><title>diplomats_INFJ_famous_real_goethe</title><polygon class="cls-1" points="99.59 388.34 183.31 373.74 272.85 387.39 185.34 400 99.59 388.34"/><polygon class="cls-2" points="108.21 203.88 97.9 207.33 90.54 218.28 93.24 228.67 104.79 217.44 108.21 203.88"/><polygon class="cls-3" points="142.48 169.01 115.2 209.62 139.19 238.41 144.65 201.72 142.48 169.01"/><polygon class="cls-4" points="137.77 232.01 123.21 217.57 114.05 215.49 99.59 235.84 117.6 257.11 140.55 244.53 137.77 232.01"/><polygon class="cls-5" points="115.2 209.62 123.21 217.57 117.57 227.23 112.21 224.88 115.2 209.62"/><polygon class="cls-6" points="124.45 232.7 125.38 240.85 120.42 234.32 98.65 180.03 102.69 178.42 124.45 232.7"/><polygon class="cls-7" points="106.4 199.35 112.08 184.33 101.33 152.22 85.66 135.95 93.27 166.59 106.4 199.35"/><polygon class="cls-8" points="85.66 135.95 80.81 155.71 93.98 185.39 106.4 199.35 85.66 135.95"/><polygon class="cls-9" points="115.2 209.62 117.57 227.23 99.59 235.84 93.24 228.67 108.21 203.88 115.2 209.62"/><polygon class="cls-10" points="245.07 273.67 277.91 285.85 265.37 304.44 241.96 289.87 245.07 273.67"/><polygon class="cls-11" points="245.35 264.08 268.72 269.33 263.79 288.58 244.85 281.09 245.35 264.08"/><polygon class="cls-3" points="249.25 159 262.44 160.59 276.68 222.33 242.54 213.75 249.25 159"/><polygon class="cls-12" points="276.68 222.33 245.35 264.08 236.85 229.82 245.26 211.69 276.68 222.33"/><polygon class="cls-4" points="183.97 366.04 182.53 384.77 164.25 384.77 169.92 374.45 183.97 366.04"/><polygon class="cls-4" points="257.91 332.21 235.47 345.39 144.28 334.2 134.59 277.27 164.87 258.65 214.55 262.27 257.91 332.21"/><polygon class="cls-13" points="134.59 277.27 159.06 336.02 177.36 344.57 189.17 339.71 196 307.13 134.59 277.27"/><polygon class="cls-6" points="181.59 307.98 203.51 341.47 219.72 349.64 235.47 345.39 237.14 314.79 198.56 273.48 181.59 307.98"/><polygon class="cls-14" points="151.99 288.25 181.59 307.98 202.52 286.61 157.6 263.12 151.99 288.25"/><polygon class="cls-10" points="145.43 53.77 136.03 64.24 141.7 84.24 147.33 70.51 145.43 53.77"/><polygon class="cls-10" points="164.19 27.91 148.36 23.38 145.43 53.77 158.26 43 164.19 27.91"/><polygon class="cls-15" points="261.67 115.78 265.67 128.03 239.94 129.56 240.58 119.22 251.38 109.01 261.67 115.78"/><polygon class="cls-16" points="271.42 96.09 261.67 115.78 248.19 114.75 250.38 100.34 262.78 88.5 271.42 96.09"/><polygon class="cls-2" points="159.37 31.1 145.43 53.77 136.6 126 154.7 130.39 178.73 148.99 220.25 155.63 257.32 93.19 246.07 87.49 234.66 103.81 223.12 99.4 222 74.35 238.73 43.51 227.27 28.18 203.01 30.34 174.29 23.3 159.37 31.1"/><polygon class="cls-9" points="227.27 28.18 193.49 140.11 154.7 130.39 183.82 147.41 222.85 158.22 234.36 147.88 239.94 129.56 240.58 119.22 248.19 114.75 261.55 90.76 244.72 83.2 234.81 100.17 227.72 97.31 226.78 75.16 244.47 42.08 227.27 28.18"/><polygon class="cls-9" points="199.83 67.29 172.08 92.05 163.11 83.39 152.82 57.24 160.31 52.98 169.21 55.99 169.31 59 178.7 60.9 180.23 58.35 190.84 59.27 199.83 67.29"/><polygon class="cls-5" points="248.19 114.75 235.34 109.23 239.94 129.56 248.19 114.75"/><polygon class="cls-5" points="241.3 104.15 246.8 91.27 253.95 94.48 241.3 104.15"/><polygon class="cls-5" points="172.08 92.05 162.91 100.06 158.44 89.04 172.08 92.05"/><polygon class="cls-17" points="178.7 60.9 172.08 92.05 164.28 92.51 158.44 89.04 169.31 59 178.7 60.9"/><polygon class="cls-5" points="153.12 103.73 178.2 109.34 177.17 113.41 152.08 107.79 153.12 103.73"/><polygon class="cls-9" points="187.49 78.3 195.01 83.53 192.07 94.51 187.49 78.3"/><polygon class="cls-9" points="158.44 71.52 148.19 75.15 148.05 83.71 158.44 71.52"/><ellipse class="cls-18" cx="186.53" cy="71.26" rx="3.59" ry="4.89" transform="translate(-0.35 0.92) rotate(-0.28)"/><ellipse class="cls-18" cx="158.47" cy="65.15" rx="4.89" ry="3.59" transform="translate(40.73 189.62) rotate(-68.94)"/><polygon class="cls-5" points="153.25 130.04 206.15 141.72 222.85 158.22 175.85 155.65 160.43 135.84 153.25 130.04"/><polygon class="cls-10" points="176.59 25.35 189.78 11.74 211.6 0.44 220.9 9.9 213.87 23.14 203.14 32.52 176.59 25.35"/><polygon class="cls-19" points="211.6 0.44 184.3 8.06 179.12 14.38 176.59 25.35 211.6 0.44"/><polygon class="cls-19" points="220.9 9.9 241.56 13.04 237.68 24.1 227.27 28.18 203.14 32.52 220.9 9.9"/><polygon class="cls-10" points="227.27 28.18 241.56 13.04 261.69 12.85 278.29 46.17 253.47 41.55 227.27 28.18"/><polygon class="cls-20" points="270.72 65.75 276.55 85.86 236.05 55.85 244.34 39.9 270.72 65.75"/><polygon class="cls-21" points="227.27 28.18 278.29 46.17 270.72 65.75 227.27 28.18"/><polygon class="cls-22" points="236.05 55.85 276.55 85.86 271.42 96.09 244.58 83.51 234.89 101.53 224.69 99.95 226.78 75.16 236.05 55.85"/><polygon class="cls-10" points="176.59 25.35 159.37 31.1 159.51 22.72 172.89 6.01 184.3 8.06 176.59 25.35"/><polygon class="cls-19" points="172.89 6.01 148.36 23.38 159.37 31.1 172.89 6.01"/><polygon class="cls-16" points="199.83 67.29 201.77 65.46 193.85 57 181.9 53.75 180.23 58.35 190.11 59.95 199.83 67.29"/><polygon class="cls-16" points="169.21 55.99 170.21 51.12 160.53 50.57 151.97 55.66 152.82 57.24 160.76 54.5 169.21 55.99"/><polygon class="cls-17" points="181.58 151.79 171.29 170.15 172.89 193.17 199.44 182.75 222.41 158.22 181.58 151.79"/><polygon class="cls-19" points="203.73 172.91 177.97 169.01 175.34 161 181.58 151.79 213.07 165.56 211.81 171.38 203.73 172.91"/><polygon class="cls-19" points="188.25 182.32 177.97 169.01 171.64 178.07 172.89 193.17 185.17 188.35 188.25 182.32"/><polygon class="cls-23" points="172.89 193.17 160.7 243.34 162.99 274.01 181.25 291.57 215.81 283.52 188.05 198.27 172.89 193.17"/><polygon class="cls-24" points="188.05 245 188.67 270.43 202.52 286.61 236.33 329.63 237.14 314.79 212.6 266.01 188.05 245"/><polygon class="cls-8" points="172.89 193.17 162.99 274.01 151.99 288.25 134.59 277.27 152.85 220.26 172.89 193.17"/><polygon class="cls-4" points="222.41 158.22 249.25 159 245.35 264.08 217.22 272.38 179.85 267.95 174.7 212.65 181.32 196 222.41 158.22"/><polygon class="cls-12" points="245.35 264.08 257.91 332.21 179.85 267.95 245.35 264.08"/><polygon class="cls-12" points="167.76 193.47 164.73 211.09 151.94 265.28 134.59 277.27 142.48 169.01 152.88 163.28 181.58 151.79 167.76 193.47"/><polygon class="cls-3" points="176.37 230.53 183.73 230.09 187.74 225.7 192.15 230.18 188.2 235.51 184.39 232.53 176.69 233.94 176.37 230.53"/><polygon class="cls-3" points="178.12 249.38 183.84 249.04 188.05 245 192.56 249.11 187.95 254.36 183.98 251.4 178.43 252.68 178.12 249.38"/><polygon class="cls-7" points="159.06 336.02 189.17 339.71 183.97 366.04 172.22 364.47 167.63 358.3 159.06 336.02"/><polygon class="cls-8" points="203.51 341.47 235.47 345.39 234.73 369.96 225.6 367.96 218.05 366.04 203.51 341.47"/><polygon class="cls-24" points="174.7 212.65 221.79 218.39 249.25 159 210.42 192.52 174.7 212.65"/><polygon class="cls-24" points="164.73 211.09 150.61 209.97 150.99 199.52 152.88 163.28 159.99 193.93 164.73 211.09"/><polygon class="cls-3" points="239.94 129.56 249.25 159 214.54 208.14 174.7 212.65 172.89 193.17 222.41 158.22 239.94 129.56"/><polygon class="cls-25" points="160.43 135.84 152.88 163.28 150.99 199.52 164.73 211.09 172.89 193.17 181.58 151.79 160.43 135.84"/><polygon class="cls-24" points="222.41 158.22 244 144.29 239.94 129.56 222.41 158.22"/><polygon class="cls-12" points="235.81 383.33 236.52 392.04 203.9 392.04 211.52 378.04 228.64 372.08 235.81 383.33"/><polygon class="cls-12" points="183.97 366.04 164.25 384.77 130.91 384.77 155.38 367.25 168.74 359.82 175.84 362.17 183.97 366.04"/><polygon class="cls-3" points="211.52 378.04 235.81 383.33 234.73 369.96 218.05 366.04 211.52 378.04"/><polygon class="cls-3" points="167.63 358.3 175.84 362.17 164.47 372.3 155.38 367.25 167.63 358.3"/><polygon class="cls-12" points="220.21 369.96 231.92 373.81 231.19 379.02 217.65 375.94 220.21 369.96"/><polygon class="cls-12" points="164.75 360.4 170.18 363 164.5 367.76 158.96 364.63 164.75 360.4"/><polygon class="cls-20" points="222.55 195.87 212.39 196.47 208.96 248.44 215.99 251.28 222.55 195.87"/><polygon class="cls-22" points="246.74 216.92 253.2 221.82 232.23 254.66 224.12 255.14 241.9 220.09 246.74 216.92"/><polygon class="cls-22" points="247.8 190.33 257.73 196.67 240.21 222.59 236.14 220.7 247.8 190.33"/><polygon class="cls-10" points="227.09 233.21 252.79 185.67 221.54 187.52 227.09 233.21"/><polygon class="cls-20" points="257.73 196.67 239.93 197.97 218.46 252.56 226.05 255.03 257.73 196.67"/><polygon class="cls-26" points="221.54 187.52 213.85 250.41 218.9 255.45 239.93 197.97 221.54 187.52"/><polygon class="cls-22" points="220.22 198.27 230.34 204.37 230.82 203.56 220.35 197.24 220.22 198.27"/><polygon class="cls-22" points="219.5 204.21 228.35 209.86 228.86 209.06 219.62 203.17 219.5 204.21"/><polygon class="cls-22" points="218.72 210.56 226.09 215.4 226.6 214.61 218.85 209.51 218.72 210.56"/><polygon class="cls-22" points="217.97 216.68 224.25 220.91 224.78 220.13 218.1 215.63 217.97 216.68"/><polygon class="cls-12" points="233.47 252.72 201.17 243.27 198.87 250.22 231.84 259.51 233.47 252.72"/></svg>