<svg id="Layer_1" data-name="Layer 1" xmlns="http://www.w3.org/2000/svg" viewBox="0 0 400 400"><defs><style>.cls-1,.cls-15,.cls-17{fill:#2b2b2b;}.cls-1,.cls-10,.cls-11,.cls-12,.cls-13,.cls-14,.cls-15,.cls-16,.cls-17,.cls-18,.cls-2,.cls-3,.cls-4,.cls-5,.cls-6,.cls-7,.cls-8,.cls-9{fill-rule:evenodd;}.cls-1{opacity:0.1;}.cls-2{fill:#5a753d;}.cls-3{fill:#d0b996;}.cls-4{fill:#eedfc6;}.cls-5{fill:#f4cab2;}.cls-6{fill:#fbe3d4;}.cls-7{fill:#e5e97b;}.cls-8{fill:#c18f7c;}.cls-9{fill:#738c57;}.cls-10{fill:#74c7a5;}.cls-11{fill:#709c52;}.cls-12{fill:#b7c644;}.cls-13{fill:#fff1da;}.cls-14{fill:#fff0e8;}.cls-16{fill:#ab913c;}.cls-17{opacity:0.15;}.cls-18{fill:#54af8a;}</style></defs><title>diplomats_INFJ_famous_real_nicole_kidman</title><polygon class="cls-1" points="115.49 390.21 194.31 400.11 273.43 389.31 193.84 381.8 115.49 390.21"/><polygon class="cls-2" points="163.28 169.25 170.28 150.98 182.82 150.84 192.7 161.39 184.67 181.28 169.3 188.15 163.28 169.25"/><polygon class="cls-3" points="114.66 97.39 126.12 77.25 148.12 57.32 153.23 124.99 142.07 137.45 139.6 137.23 114.66 97.39"/><polygon class="cls-3" points="278.33 157.91 257 194.26 249.23 171.65 248.21 157.31 251.04 152.81 259.07 150.84 270.56 153.16 278.33 157.91"/><polygon class="cls-3" points="277.29 94.19 285.34 96.93 271.6 142.49 267.18 138.97 258.66 121.7 256.38 107.63 267.06 97.75 277.29 94.19"/><polygon class="cls-4" points="285.34 96.93 256.38 107.63 258.93 86.39 264.51 77.05 270.31 78.25 285.34 96.93"/><polygon class="cls-5" points="136.6 265.36 143.23 286.9 152.49 276.52 145.93 267.88 136.6 265.36"/><polygon class="cls-6" points="139.78 260.81 136.48 265.06 147.86 274.64 152.49 276.52 156.16 258.45 139.78 260.81"/><polygon class="cls-6" points="152.9 229.78 137.77 252.23 142.65 254.52 152.62 252.94 158.03 249.02 161.73 233.15 152.9 229.78"/><polygon class="cls-7" points="130.76 253.34 132.81 265.91 155.33 262.6 158.03 249.02 130.76 253.34"/><polygon class="cls-8" points="183.89 150.36 182.94 154.49 186.2 161.48 191.02 162.54 199.63 158.62 201.77 154.71 197.83 150.36 183.89 150.36"/><polygon class="cls-3" points="130.36 207.79 156.59 234.88 159.46 222.71 161 194.62 139.78 201.11 130.36 207.79"/><polygon class="cls-9" points="260.76 380.66 233.92 393.74 223 385.45 215.27 364.97 207.95 340.7 260.76 380.66"/><polygon class="cls-10" points="151.43 378.53 145.19 393.74 176.12 393.74 171.13 387.63 160.22 380.23 151.43 378.53"/><polygon class="cls-9" points="165.22 344.92 151.43 378.53 176.12 393.74 179.32 385.45 171.13 348.84 165.22 344.92"/><polygon class="cls-11" points="233.92 393.74 207.95 340.7 200.04 337.71 172.43 339.94 162.86 350.66 176.12 393.74 233.92 393.74"/><polygon class="cls-9" points="205.37 247.06 197.17 257.67 165.2 334.56 162.86 350.66 207.95 340.7 220.16 298.19 223.31 295.22 226.27 285.09 226.28 276.91 205.37 247.06"/><polygon class="cls-12" points="143.23 286.9 152.49 276.52 193.07 250.59 205.37 247.06 162.86 350.66 143.23 286.9"/><polygon class="cls-11" points="156.59 234.88 143.23 286.9 205.37 247.06 202.5 242.47 161.73 233.15 156.59 234.88"/><polygon class="cls-10" points="226.28 276.91 237.34 276.91 249.23 271.02 261.79 276.99 267.56 298.5 232.97 298.19 230.07 295.63 226.27 285.09 226.28 276.91"/><polygon class="cls-5" points="242.26 304.79 237.21 298.23 242.26 294.98 254.97 295.37 260.89 298.44 242.26 304.79"/><polygon class="cls-5" points="242.72 276.93 229.49 287.14 228.38 289.55 230.43 290.13 239.98 287.57 245.13 280.84 242.72 276.93"/><polygon class="cls-6" points="255.98 276.97 248.82 274.55 242.72 276.93 237.21 298.23 260.89 298.44 255.98 276.97"/><polygon class="cls-9" points="233.59 208.4 205.37 247.06 156.59 234.88 154.95 200.32 161 194.62 173.81 194.82 180.78 192.07 227.92 205.75 233.59 208.4"/><polygon class="cls-13" points="145.93 175.19 130.36 207.79 173.81 194.82 168.89 186.58 152.08 175.19 145.93 175.19"/><polygon class="cls-6" points="261.12 214.86 257.02 211.24 241.85 212.42 236.93 217.13 241.08 265.46 249.23 268.66 256.46 265.2 261.12 214.86"/><polygon class="cls-12" points="216.85 164.58 224.63 172.05 236.53 205.82 233.59 208.4 211.43 203.51 208.51 197.99 211.93 169.69 216.85 164.58"/><polygon class="cls-11" points="170.12 183.63 169.3 188.15 173.81 194.82 211.44 203.37 216.85 164.58 210.59 162.76 183.24 173.62 180.62 179.28 170.12 183.63"/><polygon class="cls-9" points="166.43 170.08 180.62 179.28 216.85 164.58 218.08 154.76 217.28 147.5 201.77 154.71 166.43 170.08"/><polygon class="cls-2" points="232.66 148.41 217.28 147.5 201.77 154.71 216.85 164.58 224.23 158.69 232.66 148.41"/><polygon class="cls-5" points="226.07 164 216.85 164.58 236.93 217.13 261.12 214.86 253.74 177.94 249.23 171.65 226.07 164"/><polygon class="cls-3" points="122.16 158.3 146.75 161.05 166.43 170.08 173.81 194.82 122.16 158.3"/><polygon class="cls-13" points="134.87 152.8 122.16 158.3 166.43 170.08 174.83 154.39 163.97 150.84 134.87 152.8"/><polygon class="cls-4" points="149.74 124.99 122.16 158.3 174.83 154.39 173.67 147.25 156.48 126.32 149.74 124.99"/><polygon class="cls-3" points="210.34 41.77 207.12 31.06 193.28 17.47 175.82 32.73 170.53 44.85 175.49 47.56 205.27 44.85 210.34 41.77"/><polygon class="cls-13" points="211.31 17.7 186.22 -0.11 182.03 10.13 184.55 25.1 190.4 26.16 210.38 42.19 216.42 31.95 211.31 17.7"/><polygon class="cls-3" points="237.1 60.8 226.17 59.46 213.28 46.01 210.38 42.19 216.42 31.95 228.25 27.21 240.11 37.73 237.1 60.8"/><polygon class="cls-4" points="233.61 9.24 211.31 17.7 210.38 42.19 226.17 34.17 236.4 21.26 233.61 9.24"/><polygon class="cls-13" points="256.38 31.06 233.61 9.24 226.17 34.17 237.1 60.8 251.73 49.31 256.38 31.06"/><polygon class="cls-13" points="256.38 107.63 278.33 157.91 255.05 151.83 250.46 142.12 250.95 119.59 256.38 107.63"/><polygon class="cls-13" points="256.38 31.06 270.31 78.25 256.38 107.63 251.73 89.37 251.73 49.31 256.38 31.06"/><polygon class="cls-5" points="229.89 119.2 230.36 92.05 236.93 80.88 247.08 92.94 248.48 103.62 251.95 115.23 246.62 138.34 232.66 148.41 201.77 154.71 204.34 141.91 229.89 119.2"/><polygon class="cls-8" points="243.13 107.85 248.48 103.62 256.38 107.63 253.59 118.31 246.91 122.94 243.13 107.85"/><polygon class="cls-6" points="247.08 92.94 244.1 92.48 243.13 107.85 256.38 107.63 247.08 92.94"/><polygon class="cls-8" points="248.05 97.35 248.04 102.98 252.91 99.54 248.05 97.35"/><polygon class="cls-6" points="144.59 78.06 149.74 124.99 174.83 154.39 201.77 154.71 233.43 125.09 236.9 83.6 237.1 60.8 210.38 42.19 170.53 44.85 158.75 55.93 148.41 66.78 144.59 78.06"/><polygon class="cls-5" points="181.14 91.69 178 85.3 159.42 79.51 150.59 83.07 165.92 91.09 179.4 116.02 184.04 102.66 181.14 91.69"/><polygon class="cls-5" points="190.59 92.11 194.29 85.86 212.56 80.52 221.71 83.64 206.06 91.65 192.57 115.84 186.96 103.69 190.59 92.11"/><polygon class="cls-8" points="179.4 116.02 185.98 121.12 192.57 115.84 185.9 113.35 179.4 116.02"/><polygon class="cls-14" points="181.14 91.69 190.55 91.53 192.57 115.84 179.4 116.02 181.14 91.69"/><path class="cls-15" d="M166.54,95.88a4.16,4.16,0,1,0-4.33-4.16A4.26,4.26,0,0,0,166.54,95.88Z"/><polygon class="cls-12" points="182.57 135.13 171.37 129.45 186.55 130.89 203.88 129.13 192.06 135.13 182.57 135.13"/><polygon class="cls-5" points="170.39 124.99 161 124.49 175.3 116.75 170.39 124.99"/><polygon class="cls-3" points="150.59 83.07 158.21 80.85 178 85.3 176.15 81.74 159.42 77.73 150.59 83.07"/><polygon class="cls-3" points="221.71 83.64 214.09 81.41 194.29 85.86 196.15 82.3 212.88 78.29 221.71 83.64"/><polygon class="cls-9" points="171.37 129.45 181.05 128.88 186.77 127.4 192.06 128.83 204.3 129.04 186.55 132.12 171.37 129.45"/><polygon class="cls-4" points="216.85 164.58 256.38 107.63 253.74 177.94 216.85 164.58"/><polygon class="cls-16" points="244.27 111.37 249.6 102.98 254.05 110.98 249.3 117.43 244.27 111.37"/><polygon class="cls-4" points="256.38 31.06 256.38 107.63 228.8 73.61 256.38 31.06"/><polygon class="cls-7" points="237.34 265.52 237.34 276.91 261.79 276.99 261.12 265.13 237.34 265.52"/><polygon class="cls-5" points="201.2 123.59 210.97 125.51 196.4 116.75 201.2 123.59"/><polygon class="cls-5" points="144.62 77.46 170.53 44.85 159.71 46.98 147.65 58.69 143.81 69.97 144.62 77.46"/><polygon class="cls-4" points="134.22 33.52 114.66 97.39 190.4 26.16 186.22 -0.11 134.22 33.52"/><polygon class="cls-9" points="244.27 111.37 254.05 110.98 249.14 118.06 244.27 111.37"/><path class="cls-17" d="M205.37,247.06l6.06-43.55,22.17,4.89-18.82,25.77ZM143.23,286.9l83-10-20.9-29.85Z"/><path class="cls-15" d="M205.54,95.88a4.16,4.16,0,1,0-4.34-4.16A4.26,4.26,0,0,0,205.54,95.88Z"/><polygon class="cls-18" points="226.28 276.91 232.97 298.19 220.16 298.19 226.28 276.91"/></svg>