<svg id="Layer_1" data-name="Layer 1" xmlns="http://www.w3.org/2000/svg" viewBox="0 0 400 400"><defs><style>.cls-1{fill:#35785d;}.cls-2{fill:#446125;}.cls-20,.cls-3{fill:#2b2b2b;}.cls-3{fill-opacity:0.1;}.cls-4{fill:#dcdcdb;}.cls-5{fill:#fff;}.cls-6{fill:#5a753d;}.cls-7{fill:#98c16d;}.cls-8{fill:#709c53;}.cls-9{fill:#3f8e6f;}.cls-10{fill:#72c8a5;}.cls-11{fill:#eed2c1;}.cls-12{fill:#fce3d4;}.cls-13{fill:#ffefe7;}.cls-14{fill:#c8ac9a;}.cls-15{fill:#825940;}.cls-16{fill:#f4c9b2;}.cls-17{fill:#754f40;}.cls-18{fill:#4f5253;}.cls-19{fill:#c1907d;}.cls-21{fill:#a67e62;}.cls-22{fill:#bf9b83;}.cls-23{fill:#54af8a;}</style></defs><title>Atticus Finch (To Kill a Mockingbird)</title><polygon class="cls-1" points="145.48 152.54 137.82 158.43 128.57 230.15 150.11 219.02 148.83 209.48 163.02 198.65 145.48 152.54"/><polygon class="cls-2" points="158.9 267.91 178.97 279.93 198.41 287.64 214.55 280.52 245.41 264.5 192.87 240 158.9 267.91"/><polygon class="cls-3" points="120.96 379.71 213.21 370.52 307.09 384.07 211.79 398.91 120.96 379.71"/><polygon class="cls-4" points="178.21 153.59 176.33 173.62 190.11 197.34 206.49 173.74 225.1 159.12 193.53 147.82 178.21 153.59"/><polygon class="cls-5" points="178.97 171.91 196.12 155.72 177.98 143.23 171.14 157.36 178.97 171.91"/><polygon class="cls-5" points="206.49 173.74 196.12 155.72 220.27 142.17 222.98 157.84 206.49 173.74"/><polygon class="cls-6" points="156.48 271.33 160.25 313.91 164.84 314.68 179.8 329.06 195.39 319.63 198.41 287.64 156.48 271.33"/><polygon class="cls-6" points="208.54 319.55 198.41 287.64 238.94 262.32 242.41 311.94 208.54 319.55"/><polygon class="cls-7" points="166.9 161.02 172.32 158.43 190.23 194.75 198.36 213.13 192.28 251.19 168.02 251.76 167.54 267.91 165.9 254.72 166.9 161.02"/><polygon class="cls-2" points="208.54 319.55 221.81 369.34 240.65 376.29 248.25 366.28 242.41 311.94 226.33 315.15 208.54 319.55"/><polygon class="cls-8" points="231.86 249.48 192.28 251.19 190.23 194.75 215.68 161.49 218.74 154.89 233.16 247.18 231.86 249.48"/><polygon class="cls-1" points="190.11 161.62 192.11 165.5 184.41 182.93 190.23 194.75 198.15 184.39 196.12 166.07 200 162.46 196.12 155.72 190.11 161.62"/><polygon class="cls-9" points="177.98 143.23 171.73 165.96 175.39 209.13 178.97 282.87 153.34 283.81 148.83 209.48 145.48 152.54 177.98 143.23"/><polygon class="cls-10" points="163.96 164.78 175.39 209.13 177.98 143.23 163.96 164.78"/><polygon class="cls-9" points="220.27 142.17 225.45 166.67 201.3 209.01 214.55 280.52 246.71 282.87 245.71 205.12 252.43 194.88 250.78 151.83 220.27 142.17"/><polygon class="cls-2" points="161.72 358.54 160.25 313.91 195.39 319.63 195.06 368.28 179.15 370.4 161.72 358.54"/><polygon class="cls-10" points="148.17 376.88 161.72 358.54 195.06 368.28 196.12 375.82 169.73 378.77 148.17 376.88"/><polygon class="cls-1" points="196.12 375.82 196.59 379.94 148.17 381.24 148.17 376.88 196.12 375.82"/><polygon class="cls-10" points="218.04 386.54 221.81 369.34 248.25 366.28 253.84 386.42 238.29 390.78 218.04 386.54"/><polygon class="cls-1" points="218.04 392.19 218.04 386.54 253.84 386.42 253.37 392.19 218.04 392.19"/><polygon class="cls-10" points="201.3 209.01 234.87 167.97 220.27 142.17 201.3 209.01"/><polygon class="cls-1" points="245.27 219.61 245.71 205.12 250.78 151.83 260.91 160.91 263.82 239.01 245.27 219.61"/><line class="cls-9" x1="249.49" y1="221.38" x2="268.47" y2="205.95"/><polygon class="cls-1" points="189.52 201.35 184.69 205.24 189.17 209.95 194.12 205.95 189.52 201.35"/><polygon class="cls-1" points="188.7 220.79 183.51 224.44 188.34 229.16 193.06 224.8 188.7 220.79"/><polygon class="cls-11" points="220.27 142.17 236.29 110.77 248.05 65.49 222.98 47.27 189.76 142.1 196.12 155.72 220.27 142.17"/><polygon class="cls-12" points="142.48 59.84 146.92 116.77 162.66 140.8 195.47 142.57 220.85 113.47 232.16 22.58 163.96 22.33 142.48 59.84"/><polygon class="cls-13" points="233.7 74.95 228.16 99.34 240.3 102.75 251.37 80.72 233.7 74.95"/><polygon class="cls-14" points="233.93 91.33 237.35 80.37 245.71 82.96 233.93 91.33"/><polygon class="cls-14" points="228.16 99.34 236.29 110.77 240.3 102.75 228.16 99.34"/><polygon class="cls-14" points="175.39 141.51 196.12 155.72 198.94 154.06 206.84 142.1 195.47 142.57 175.39 141.51"/><polygon class="cls-15" points="162.72 14.86 136.75 50.62 143.69 77.44 146.42 51.7 166.45 22.31 162.72 14.86"/><polygon class="cls-16" points="189.13 95.92 194.44 77.16 214.09 70.15 207.89 63.38 190.66 64.11 183.83 75.65 189.13 95.92"/><polygon class="cls-17" points="184.3 65.23 206.76 59.84 216.19 68.62 213.09 71.15 204.32 64.87 186.31 70.15 184.3 65.23"/><polygon class="cls-16" points="165.85 95.23 173.17 75.22 166.5 65.56 153.77 61.45 143.69 68.41 155.87 75.3 165.85 95.23"/><polygon class="cls-17" points="171.17 69.55 172.74 64.64 153.45 57.55 140.89 64.99 143.69 68.41 153.21 60.75 171.17 69.55"/><polygon class="cls-18" points="171.17 69.02 187.71 69.34 185.34 76.51 178.18 72.77 171.97 75.65 171.17 69.02"/><polygon class="cls-13" points="165.85 95.23 189.13 95.92 182.83 75.65 178.18 72.77 173.97 75.65 165.85 95.23"/><path class="cls-18" d="M199.34,63.38a15.93,15.93,0,1,0,15.92,15.93A15.93,15.93,0,0,0,199.34,63.38Zm0,28.83a12.9,12.9,0,1,1,12.9-12.9A12.9,12.9,0,0,1,199.34,92.21Z"/><path class="cls-18" d="M156.81,59.84a15.93,15.93,0,1,0,15.93,15.93A15.93,15.93,0,0,0,156.81,59.84Zm0,28.71a12.9,12.9,0,1,1,12.9-12.9A12.9,12.9,0,0,1,156.81,88.55Z"/><polygon class="cls-19" points="165.85 95.23 177.49 102.28 189.13 95.92 165.85 95.23"/><path class="cls-20" d="M155.22,71.65a3.3,3.3,0,1,1-3.3,3.3A3.3,3.3,0,0,1,155.22,71.65Z"/><path class="cls-20" d="M194.44,73.36a3.3,3.3,0,1,1-3.29,3.29A3.29,3.29,0,0,1,194.44,73.36Z"/><polygon class="cls-18" points="211.76 70.15 233.7 74.95 232.82 78.8 213.05 74.01 211.76 70.15"/><polygon class="cls-15" points="177.49 30.97 179.44 17.81 202.95 12.81 204.28 30.2 177.49 30.97"/><polygon class="cls-21" points="204.28 30.2 202.95 12.81 255.46 86.65 245.25 92.91 234.72 71.65 214.09 52.56 204.28 30.2"/><polygon class="cls-22" points="179.44 17.81 175.57 5 182.57 0 220.72 4.85 202.95 12.81 179.44 17.81"/><polygon class="cls-21" points="220.72 4.85 248.67 26.46 244.67 61.88 221.32 44.3 202.95 12.81 220.72 4.85"/><polygon class="cls-22" points="202.95 12.81 226.73 36.8 248.42 56.55 255.46 86.65 219.42 44.96 202.95 12.81"/><polygon class="cls-21" points="255.46 86.65 258.4 52.99 248.42 56.55 255.46 86.65"/><polygon class="cls-21" points="177.49 30.97 179.44 17.81 162.72 14.86 166.45 22.31 177.49 30.97"/><polygon class="cls-14" points="179.44 17.81 175.57 5 151.92 7.01 162.72 14.86 179.44 17.81"/><polygon class="cls-21" points="151.92 7.01 136.75 50.62 162.72 14.86 151.92 7.01"/><polygon class="cls-15" points="248.67 26.46 258.4 52.99 248.42 56.55 226.73 36.8 248.67 26.46"/><polygon class="cls-15" points="255.46 86.65 236.29 110.77 245.25 92.91 255.46 86.65"/><polygon class="cls-16" points="193.99 115.93 185.5 121.62 171.1 121.4 163.57 117.06 169.69 115.63 193.99 115.93"/><polygon class="cls-19" points="197.16 115.94 180.94 112.76 177.83 115.37 173.58 112.65 161.72 116.64 162.85 118.98 173.32 115.89 178.41 117.53 182.52 116.03 196.71 118.19 197.16 115.94"/><polyline class="cls-23" points="263.82 239.01 214.41 254.35 204.71 246.99 210.49 235.55 245.82 213.67"/><polygon class="cls-13" points="194.46 234.95 201.11 232.78 210.49 235.55 214.41 254.35 200.79 260.38 193.22 248.09 194.46 234.95"/><polygon class="cls-16" points="187.56 235.85 194.46 234.95 200.79 260.38 187.38 255.03 187.56 235.85"/><polygon class="cls-12" points="210.49 235.55 198.69 229.82 194.46 234.95 210.49 235.55"/><polyline class="cls-23" points="128.57 230.15 163.22 254.92 174.4 250.1 171.53 237.62 148.83 209.48"/><polygon class="cls-13" points="187.24 240.88 181.3 237.18 171.53 237.62 163.22 254.92 175 264.05 185.29 253.92 187.24 240.88"/><polygon class="cls-12" points="193.72 243.4 187.24 240.88 175 264.05 189.3 262.07 193.72 243.4"/><polygon class="cls-12" points="171.53 237.62 184.36 234.87 187.24 240.88 171.53 237.62"/><polygon class="cls-16" points="172.74 124.91 183.41 125.32 182.01 127.01 172.74 125.96 172.74 124.91"/><polygon class="cls-16" points="175.39 59.84 177.98 59.84 177.49 67.17 175.39 66.41 175.39 59.84"/><polygon class="cls-16" points="179.44 60.4 182.13 60.4 180.78 66.41 179.44 66.41 179.44 60.4"/><polygon class="cls-15" points="214.09 52.56 219.42 44.96 237.96 66.41 234.72 71.65 214.09 52.56"/><polygon class="cls-21" points="219.42 44.96 226.73 36.8 248.42 56.55 237.96 66.41 219.42 44.96"/><polygon class="cls-16" points="177.49 30.97 199.34 38.9 214.09 52.56 204.28 30.2 177.49 30.97"/><polygon class="cls-16" points="177.49 30.97 166.45 30.97 146.42 51.7 166.45 22.31 177.49 30.97"/></svg>