<svg id="Layer_1" data-name="Layer 1" xmlns="http://www.w3.org/2000/svg" viewBox="0 0 400 400"><defs><style>.cls-1{fill:#369395;}.cls-2{fill:#33231b;fill-opacity:0.15;}.cls-3{fill:#318ea5;}.cls-4{fill:#72cacb;}.cls-5{fill:#c1907d;}.cls-6{fill:#cdcdcc;}.cls-7{fill:#1c7678;}.cls-8{fill:#50a8a9;}.cls-9{fill:#3a9fb9;}.cls-10{fill:#27788b;}.cls-11{fill:#165e60;}.cls-12{fill:#ebebea;}.cls-13{fill:#73cee4;}.cls-14{fill:#a2a2a2;}.cls-15{fill:#dcdcdb;}.cls-16{fill:#f4c9b2;}.cls-17{fill:#fce3d4;}.cls-18{fill:#5ebfd8;}.cls-19{fill:#8bdfdb;}.cls-20{fill:#6f7173;}.cls-21{fill:#ffefe7;}.cls-22,.cls-23{fill:#2b2b2b;}.cls-23{fill-opacity:0.1;}.cls-24{fill:#c3c3c3;}</style></defs><title>sentinels_ESTJ_famous_fictional_violet_crawley_downtown_abbey</title><g id="Layer_1-2" data-name="Layer_1"><polygon class="cls-1" points="265.49 343.1 265.49 334.68 295.45 366.33 280.64 378.45 274.92 374.75 265.49 343.1"/><polygon class="cls-2" points="112.29 383.17 133.5 380.81 137.54 381.14 204.88 375.08 280.64 378.45 308.92 382.15 207.91 399.33 112.29 383.17"/><polygon class="cls-3" points="236.53 31.99 231.82 29.29 230.81 26.94 232.83 21.55 238.22 20.2 243.94 33 236.53 31.99"/><polygon class="cls-4" points="126.77 252.53 135.52 245.12 137.88 241.41 130.13 210.1 126.77 252.53"/><polygon class="cls-3" points="116.33 100.67 129.12 99.66 131.82 96.3 130.47 86.87 127.78 83.5 123.4 83.84 115.32 95.96 116.33 100.67"/><polygon class="cls-5" points="157.74 152.19 166.5 159.26 170.2 166.33 178.28 172.05 199.83 160.94 200.51 156.9 197.14 144.78 182.66 146.8 160.44 148.82 157.74 152.19"/><polygon class="cls-6" points="179.29 215.49 175.93 212.12 163.13 213.47 153.37 214.14 148.65 217.84 146.63 221.55 149.33 237.04 180.64 237.37 180.64 218.85 179.29 215.49"/><polygon class="cls-7" points="149.33 238.05 151.01 235.35 178.28 235.69 172.22 241.08 150.34 246.13 149.33 238.05"/><polygon class="cls-8" points="243.27 270.03 280.64 378.45 257.74 380.47 252.02 377.11 242.59 295.62 243.27 270.03"/><polygon class="cls-1" points="225.76 390.91 223.06 377.11 237.54 277.11 243.27 270.03 257.74 380.47 225.76 390.91"/><polygon class="cls-7" points="186.03 380.47 225.76 390.91 243.27 270.03 227.44 270.03 175.25 277.11 180.64 373.74 186.03 380.47"/><polygon class="cls-1" points="157.74 368.35 158.42 385.52 186.03 380.47 178.96 279.8 174.58 282.49 157.74 368.35"/><polygon class="cls-7" points="143.6 273.4 151.68 334.01 151.01 351.18 154.04 377.44 158.42 385.52 178.96 279.8 170.88 274.75 151.68 271.72 143.6 273.4"/><polygon class="cls-1" points="137.54 381.14 158.42 385.52 151.68 334.01 137.54 381.14"/><polygon class="cls-9" points="134.18 281.48 133.5 380.81 137.54 381.14 143.6 273.4 139.23 270.71 134.18 281.48"/><polygon class="cls-1" points="230.81 254.88 221.04 253.54 180.64 273.74 161.78 252.19 146.63 256.23 142.93 267.34 143.94 273.74 178.96 279.8 243.27 270.03 230.81 254.88"/><polygon class="cls-10" points="149.66 259.93 160.44 269.36 158.42 255.22 149.66 259.93"/><polygon class="cls-11" points="166.16 266.67 178.96 279.8 174.24 259.6 166.16 266.67"/><polygon class="cls-1" points="144.61 216.16 141.58 212.46 132.83 208.42 130.13 210.1 135.86 246.8 140.24 249.5 146.97 248.15 148.65 243.77 144.61 216.16"/><polygon class="cls-1" points="218.69 210.1 211.28 207.07 192.09 209.76 186.7 214.48 184.68 234.01 188.38 236.7 210.27 230.3 219.03 215.49 218.69 210.1"/><polygon class="cls-8" points="188.38 275.42 183.33 270.03 173.91 242.76 174.58 236.7 208.25 227.95 215.32 230.98 225.42 243.1 230.81 254.88 188.38 275.42"/><polygon class="cls-12" points="151.35 198.32 156.4 193.6 161.11 187.88 172.56 182.15 175.25 182.49 182.32 182.15 188.72 187.88 190.07 192.26 192.09 195.29 184.34 211.11 179.29 215.49 148.65 217.84 145.62 214.14 151.35 198.32"/><polygon class="cls-13" points="176.26 185.52 170.54 197.64 167.84 201.01 156.73 200.34 172.22 184.51 176.26 185.52"/><polygon class="cls-8" points="183.33 201.35 167.84 201.01 174.58 186.53 175.25 184.51 177.95 184.51 183.33 201.35"/><polygon class="cls-12" points="166.5 159.26 164.14 169.7 166.16 175.08 177.27 182.83 178.62 180.47 178.96 170.37 176.6 167.68 166.5 159.26"/><polygon class="cls-14" points="237.88 137.04 214.98 149.16 210.94 143.77 214.31 117.17 228.12 111.78 233.17 115.15 237.88 137.04"/><polygon class="cls-15" points="240.91 94.28 233.17 115.15 218.69 120.54 213.97 121.89 214.65 102.36 235.86 90.91 240.91 94.28"/><polygon class="cls-16" points="178.62 150.84 194.78 149.83 176.6 167.68 182.32 167.68 212.96 152.86 214.98 149.16 218.69 120.2 211.95 105.72 211.95 89.22 203.53 71.38 201.85 67.68 197.14 67.34 193.44 72.39 192.09 131.31 178.96 144.11 178.62 150.84"/><polygon class="cls-6" points="176.6 167.68 175.25 183.16 197.47 176.09 198.82 172.73 202.19 169.02 202.53 159.26 199.5 156.57 176.6 167.68"/><polygon class="cls-8" points="175.59 182.49 189.06 193.94 194.78 189.9 200.51 175.76 198.82 172.73 175.59 182.49"/><polygon class="cls-13" points="153.7 188.89 156.4 193.6 175.59 182.83 164.14 169.7 159.43 173.74 153.7 188.89"/><polygon class="cls-8" points="148.32 176.09 157.07 172.39 156.4 181.15 145.29 211.45 140.57 214.48 130.13 210.1 148.32 176.09"/><polygon class="cls-8" points="221.04 165.99 216.67 164.31 209.93 169.36 203.53 175.08 187.71 209.43 188.72 214.14 218.69 210.1 224.41 208.42 237.88 185.86 237.88 177.44 221.04 165.99"/><polygon class="cls-6" points="216.67 88.22 214.65 106.4 240.91 94.28 248.99 73.4 229.8 76.09 216.67 88.22"/><polygon class="cls-5" points="218.69 120.54 206.56 110.44 210.94 109.76 216.33 110.1 219.7 112.46 218.69 120.54"/><polygon class="cls-17" points="206.56 110.44 206.9 97.31 209.26 92.26 216.67 88.22 223.06 88.22 219.7 112.46 206.56 110.44"/><polygon class="cls-5" points="211.95 106.06 211.95 96.78 218.69 96.38 211.95 106.06"/><polygon class="cls-8" points="211.28 111.16 216.13 107.37 219.7 112.46 215.68 117.17 211.28 111.16"/><polygon class="cls-15" points="248.99 73.4 206.9 97.31 197.14 67.34 209.6 64.98 239.56 68.69 248.99 73.4"/><polygon class="cls-6" points="225.42 49.49 248.99 73.4 197.14 67.34 197.47 61.62 218.01 49.16 225.42 49.49"/><polygon class="cls-15" points="176.94 55.56 176.94 59.93 190.07 69.02 197.14 67.34 225.42 49.49 221.04 45.79 186.36 45.79 177.27 51.18 176.94 55.56"/><polygon class="cls-17" points="127.78 83.5 132.83 142.42 147.31 152.53 178.62 150.84 196.47 135.02 197.14 67.34 177.27 55.89 172.22 55.89 138.55 70.03 127.78 83.5"/><polygon class="cls-9" points="91.08 84.85 116.33 100.67 128.12 86.53 139.9 72.39 139.23 68.69 129.46 57.58 125.76 56.9 109.6 60.27 94.11 76.09 91.08 84.85"/><polygon class="cls-3" points="187.71 32.66 191.08 45.79 188.05 51.18 139.9 72.39 125.76 56.9 128.79 49.49 158.75 36.7 177.27 30.98 184.01 31.31 187.71 32.66"/><polygon class="cls-9" points="187.71 28.96 184.01 31.31 188.05 51.18 225.42 49.49 243.94 33 230.81 26.94 220.37 23.57 187.71 28.96"/><polygon class="cls-18" points="91.75 54.88 91.08 84.85 119.02 58.25 125.76 56.9 128.79 49.49 124.75 40.07 119.7 38.05 110.61 38.38 91.75 54.88"/><polygon class="cls-9" points="123.74 30.98 119.7 38.05 125.76 56.9 159.09 37.37 184.01 31.31 166.16 30.64 163.13 20.54 156.4 15.82 142.26 18.86 123.74 30.98"/><polygon class="cls-1" points="120.03 50.51 118.69 58.59 126.09 60.94 137.54 54.55 137.54 46.8 129.8 45.45 120.03 50.51"/><polygon class="cls-7" points="152.69 33.67 148.99 41.41 152.36 44.44 156.06 43.44 159.09 37.37 157.07 34.01 152.69 33.67"/><polygon class="cls-18" points="161.78 9.09 156.4 15.82 161.45 29.63 166.16 30.64 177.95 30.98 184.01 31.31 212.63 27.61 218.01 18.86 214.65 2.02 192.76 3.37 161.78 9.09"/><polygon class="cls-1" points="210.94 19.53 215.99 19.53 220.71 20.2 220.37 24.91 214.98 28.62 209.6 27.95 209.93 23.91 210.94 19.53"/><polygon class="cls-7" points="222.73 12.79 215.99 19.53 220.37 24.91 225.76 23.91 226.77 18.52 222.73 12.79"/><polygon class="cls-1" points="224.41 29.97 220.37 24.91 226.43 20.54 228.79 21.55 231.48 25.25 230.81 26.94 224.41 29.97"/><polygon class="cls-1" points="194.44 20.2 189.06 26.26 192.09 30.3 195.46 29.97 199.83 29.29 200.84 25.25 194.44 20.2"/><polygon class="cls-1" points="205.22 17.51 200.17 24.58 201.52 29.29 205.56 28.96 209.6 28.28 209.93 23.91 210.27 19.19 205.22 17.51"/><polygon class="cls-7" points="195.46 29.97 201.18 34.68 207.24 30.3 200.17 24.58 195.46 29.97"/><polygon class="cls-1" points="168.85 27.61 177.95 30.98 174.58 37.71 165.82 33.67 168.85 27.61"/><polygon class="cls-9" points="214.65 2.02 232.16 8.75 230.13 12.79 222.73 15.15 216.33 10.44 214.65 2.02"/><polygon class="cls-13" points="120.03 18.52 91.75 54.88 156.4 15.82 142.93 13.47 120.03 18.52"/><polygon class="cls-13" points="155.72 0.67 153.37 8.08 156.4 15.82 214.65 2.02 155.72 0.67"/><polygon class="cls-18" points="120.03 18.52 155.72 0.67 156.4 15.82 120.03 18.52"/><polygon class="cls-19" points="116.33 49.49 127.78 52.52 127.78 42.76 119.7 38.05 116.33 49.49"/><polygon class="cls-4" points="129.12 64.65 127.78 52.52 135.19 54.21 139.56 51.85 142.59 55.56 139.9 72.39 129.12 64.65"/><polygon class="cls-4" points="139.9 39.06 141.58 49.16 150.34 57.24 156.06 43.44 139.9 39.06"/><polygon class="cls-4" points="155.39 28.62 156.4 15.82 172.22 25.59 167.84 33 168.52 38.72 163.81 40.07 155.39 28.62"/><polygon class="cls-4" points="181.31 40.07 177.61 35.69 173.57 36.03 167.84 33 168.52 43.77 173.91 52.86 181.31 40.07"/><polygon class="cls-4" points="180.98 21.89 180.3 34.34 186.36 42.76 195.46 29.97 180.98 21.89"/><polygon class="cls-4" points="209.93 23.91 220.37 33.67 211.62 44.78 208.59 34.34 209.93 23.91"/><polygon class="cls-4" points="207.58 12.79 214.65 2.02 222.73 15.15 209.93 23.91 207.58 12.79"/><polygon class="cls-4" points="230.81 26.94 228.79 15.82 232.16 8.75 238.22 20.2 230.81 26.94"/><path class="cls-16" d="M175.59,83.84l-12.8,7.41-5,7.74-1.34,6.06,4.37,11.45,9.77-19.87,16.83-11.78-11.78-1Zm-23.23,2.69.67,8.08,1.35-2Z"/><polygon class="cls-16" points="136.87 89.56 147.31 93.27 151.35 99.66 153.03 106.06 148.99 117.17 141.92 101.68 131.48 90.23 136.87 89.56"/><polygon class="cls-20" points="136.87 87.88 131.48 90.23 136.87 90.57 147.31 93.27 144.61 88.89 136.87 87.88"/><polygon class="cls-20" points="165.49 86.19 162.79 91.25 175.93 85.19 187.37 84.85 175.59 82.16 165.49 86.19"/><polygon class="cls-5" points="155.05 122.9 148.99 117.17 154.71 114.48 160.77 116.5 155.05 122.9"/><polygon class="cls-21" points="151.35 99.66 148.99 117.17 160.77 116.5 157.74 98.99 151.35 99.66"/><path class="cls-22" d="M140.57,98a2.75,2.75,0,0,1,3,2.69,2.87,2.87,0,1,1-5.72.34A3.58,3.58,0,0,1,140.57,98Z"/><path class="cls-22" d="M170.54,96a2.85,2.85,0,0,1,3.37,2.69,3.32,3.32,0,0,1-3,3.37,2.75,2.75,0,0,1-3-2.69C167.85,97.64,169.19,96,170.54,96Z"/><polygon class="cls-8" points="145.96 135.02 155.72 130.98 173.91 134.01 157.41 135.02 145.96 135.02"/><polygon class="cls-4" points="157.41 138.05 145.96 135.02 156.4 134.01 173.91 134.01 157.41 138.05"/><polygon class="cls-4" points="237.88 177.44 208.25 227.95 230.81 254.88 255.72 206.73 237.88 177.44"/><polygon class="cls-4" points="120.03 38.05 127.78 52.52 130.81 40.74 120.03 38.05"/><polygon class="cls-19" points="139.9 72.39 127.78 52.52 125.08 67.68 139.9 72.39"/><polygon class="cls-19" points="139.9 39.06 150.34 57.24 135.19 54.21 139.9 39.06"/><polygon class="cls-19" points="156.4 15.82 163.81 40.07 148.32 31.31 156.4 15.82"/><polygon class="cls-19" points="173.91 52.86 167.84 33 163.81 40.07 160.44 46.46 173.91 52.86"/><polygon class="cls-19" points="180.98 21.89 186.36 42.76 181.31 40.07 173.57 36.03 180.98 21.89"/><polygon class="cls-19" points="209.93 23.91 211.62 44.78 201.18 34.68 209.93 23.91"/><polygon class="cls-19" points="200.51 11.11 209.93 23.91 214.65 2.02 200.51 11.11"/><polygon class="cls-19" points="232.16 8.75 230.81 26.94 222.73 15.15 232.16 8.75"/><polygon class="cls-7" points="209.93 169.36 190.07 213.8 188.38 233 178.28 235.69 179.29 215.49 198.82 172.73 201.52 170.03 207.24 167.34 209.93 169.36"/><polygon class="cls-11" points="221.04 165.99 218.35 158.59 208.25 159.6 199.16 165.32 198.82 172.73 221.04 165.99"/><polygon class="cls-1" points="199.5 156.57 199.16 165.32 205.56 167.34 209.26 161.62 215.66 163.3 218.35 158.59 214.98 149.16 199.5 156.57"/><polygon class="cls-7" points="114.31 58.59 113.3 63.97 118.69 63.64 118.69 58.59 114.31 58.59"/><polygon class="cls-7" points="157.07 172.39 140.57 214.48 144.95 242.09 152.69 242.42 148.65 217.84 164.14 169.7 157.07 172.39"/><polygon class="cls-9" points="165.82 239.06 152.69 242.42 151.68 245.79 154.71 256.56 157.07 258.25 160.44 269.36 173.57 263.3 174.58 257.91 169.87 242.76 165.82 239.06"/><polygon class="cls-10" points="175.59 180.47 170.2 182.83 174.58 186.53 180.98 182.49 175.59 180.47"/><polygon class="cls-3" points="170.2 182.83 180.98 182.49 175.59 178.45 170.2 182.83"/><polygon class="cls-7" points="165.82 239.06 174.58 236.7 188.38 275.42 178.96 279.8 165.82 239.06"/><path class="cls-23" d="M134.18,281.48l8.75,6.06,1-13.8-4,.67.67,4.71Zm44.1-45.79,10.1-2.69,1.69-19.2-10.78,1.69-1,20.2Zm-37.71-21.21,8.08,3.36,4,24.58L151,244.11l-3.7-.68L145,242.09l-4.38-27.61Zm48.49-20.54-9.77,21.55-18.85,1.34,2,18.52H151.35l-2.7-17.51,11.79-1L167.85,201l15.48.34L178,184.51m47.47-135-48.48,6.4,11.11-4.71Zm.34,341.42L186,380.47,179,279.8ZM243.27,270l-30-6.73,17.51-8.42Z"/><polygon class="cls-14" points="143.94 273.74 139.9 274.41 137.21 271.72 136.2 260.61 149.66 259.93 143.94 273.74"/><polygon class="cls-24" points="121.04 274.41 134.18 281.48 140.57 279.12 137.88 262.63 130.13 260.94 124.41 266.33 121.04 274.41"/><polygon class="cls-15" points="121.38 260.27 121.04 274.41 137.88 262.63 140.57 256.56 138.22 244.78 135.19 241.08 121.38 260.27"/><polygon class="cls-6" points="152.69 242.42 135.19 241.08 137.88 262.63 157.07 258.25 152.69 242.42"/><path class="cls-16" d="M160.77,116.5l13.81,4.71,4,11.45-6.4-9.76ZM155.72,131l1.69-4-2.36-4Zm19.87-30.64L186.7,102l-5,1.68Zm-42.09,6.73-3.7-1.68,7.74-2Zm6.74,27.61,2.69-10.1,6.06-7.41-8.42,6.06Z"/></g></svg>