<svg id="Layer_1" data-name="Layer 1" xmlns="http://www.w3.org/2000/svg" viewBox="0 0 400 400"><defs><style>.cls-1{fill:#3a9fb9;}.cls-2{fill:#33231b;fill-opacity:0.15;}.cls-3{fill:#27788b;}.cls-4{fill:#fce3d4;}.cls-5{fill:#5ebfd8;}.cls-6{fill:#318ea5;}.cls-7{fill:#a09160;}.cls-8{fill:#c1b274;}.cls-9{fill:#bda476;}.cls-10{fill:#e2d086;}.cls-11{fill:#fff7ae;}.cls-12{fill:#ecdbb4;}.cls-13{fill:#c1907d;}.cls-14{fill:#50a8a9;}.cls-15{fill:#369395;}.cls-16{fill:#f4c9b2;}.cls-17{fill:#72cacb;}.cls-18{fill:#1c7678;}.cls-19{fill:#ffefe7;}.cls-20{fill:#fff;}.cls-21,.cls-23{fill:#2b2b2b;}.cls-22{fill:#8bdfdb;}.cls-23{fill-opacity:0.1;}</style></defs><title>sentinels_ESTJ_famous_fictional_claire_dunphy_modern_family</title><g id="Layer_1-2" data-name="Layer_1"><polygon class="cls-1" points="125.25 202 128.6 208.82 132.5 204.38 131.2 200.05 125.25 202"/><path class="cls-2" d="M126.87,386.7c1.08.21,88.34,12.23,88.34,12.23l78.82-12L213.8,376.3Z"/><polygon class="cls-3" points="242.38 369.48 253.64 369.92 251.8 373.7 238.27 383.88 235.24 383.88 235.13 381.07 242.38 369.48"/><polygon class="cls-4" points="225.6 360.39 226.79 357.36 231.45 354.98 236.21 353.03 248.56 363.64 235.24 383.88 233.72 384.96 217.7 384.96 214.45 383.88 221.81 379.55 224.31 379.55 227.01 378.04 227.23 376.41 225.6 360.39"/><polygon class="cls-5" points="221.81 379.55 227.01 384.96 233.72 384.96 235.24 383.88 227.23 376.41 221.81 379.55"/><polygon class="cls-6" points="214.56 388.32 253.64 388.32 253.64 369.92 235.24 383.88 214.45 383.88 214.56 388.32"/><polygon class="cls-7" points="179.48 159.67 188.58 139.97 199.94 136.18 207.31 148.96 206.22 157.29 179.48 159.67"/><polygon class="cls-7" points="240.54 145.6 239.35 155.45 246.72 164.44 265.12 167.03 249.75 136.07 240.54 145.6"/><polygon class="cls-8" points="248.34 126.33 247.26 140.73 265.12 167.03 264.47 125.14 260.25 116.48 248.34 126.33"/><polygon class="cls-9" points="263.71 108.57 246.28 112.69 251.26 96.01 260.57 89.09 271.4 95.58 263.71 108.57"/><polygon class="cls-10" points="265.12 167.03 275.19 139.32 271.4 95.58 262.52 101.64 260.25 116.48 265.12 167.03"/><polygon class="cls-11" points="281.36 174.83 265.12 167.03 272.48 136.29 283.42 134.23 286.77 152.2 281.36 174.83"/><polygon class="cls-8" points="297.81 133.26 286.77 152.2 272.48 136.29 271.4 95.58 286.23 104.78 297.81 133.26"/><polygon class="cls-11" points="293.81 105.22 297.81 133.26 271.4 95.58 267.5 81.62 273.35 81.18 289.91 94.5 293.81 105.22"/><polygon class="cls-12" points="246.28 62.56 251.26 96.01 271.4 95.58 269.02 78.26 246.28 62.56"/><polygon class="cls-10" points="293.81 105.22 300.52 87.46 275.51 67.65 249.06 60.59 262.09 87.14 271.4 95.58 293.81 105.22"/><path class="cls-11" d="M249.06,60.59c1.19,0,17.79-.73,17.79-.73l19.92,5.52,13.75,22.08Z"/><polygon class="cls-8" points="221.16 28.24 221.16 35.5 243.47 61.16 249.06 60.59 286.77 65.38 246.28 36.04 221.16 28.24"/><polygon class="cls-11" points="225.5 11.68 218.78 17.53 221.16 28.24 286.77 65.38 225.5 11.68"/><polygon class="cls-10" points="238.81 5.29 224.09 5.72 225.5 11.68 286.77 65.38 276.92 27.59 238.81 5.29"/><polygon class="cls-8" points="199.94 136.18 179.48 159.67 175.48 139.21 180.46 124.06 187.28 133.37 199.94 136.18"/><polygon class="cls-11" points="184.57 135.53 179.48 159.67 167.47 168.22 165.09 152.2 175.91 137.91 184.57 135.53"/><polygon class="cls-8" points="161.08 120.59 152.53 137.05 165.09 152.2 171.04 137.69 170.17 115.29 161.08 120.59"/><polygon class="cls-10" points="165.09 152.2 184.57 135.53 175.8 122.11 167.9 120.59 165.09 152.2"/><polygon class="cls-11" points="164.22 99.26 156.97 111.5 152.53 137.05 167.9 120.59 172.34 109.87 171.47 98.72 164.22 99.26"/><polygon class="cls-8" points="155.88 79.34 149.82 93.09 156.97 111.5 168.66 102.57 174.72 93.42 172.34 58.99 155.88 79.34"/><polygon class="cls-8" points="225.5 11.68 221.16 28.24 219.54 33.33 198.1 39.72 191.61 37.88 180.78 32.79 186.09 19.26 209.26 8.11 225.5 11.68"/><polygon class="cls-11" points="153.39 53.47 164.11 48.6 186.09 19.26 182.73 16.12 176.99 16.98 153.39 53.47"/><polygon class="cls-10" points="149.82 93.09 153.39 53.47 185.22 20.12 185.87 19.26 185.98 19.37 186.09 19.26 185.98 19.47 191.61 37.88 191.28 42.64 171.91 68.84 170.17 66.14 149.82 93.09"/><polygon class="cls-10" points="222.79 4.64 213.48 1.07 176.99 16.98 186.09 19.26 225.5 11.68 222.79 4.64"/><polygon class="cls-11" points="213.48 1.07 225.5 11.68 238.81 5.29 213.48 1.07"/><polygon class="cls-3" points="140.29 286.99 136.83 283.74 137.26 255.05 140.4 250.94 143.11 249.2 150.15 250.61 151.44 253.21 154.48 284.82 140.29 286.99"/><polygon class="cls-5" points="122 266.42 131.09 251.8 131.85 256.24 127.63 273.13 125.35 274.75 122 266.42"/><polygon class="cls-1" points="131.09 251.8 140.4 250.94 140.29 286.99 123.19 283.74 131.09 251.8"/><polygon class="cls-13" points="203.95 160.32 207.52 171.69 231.34 161.94 233.72 157.72 245.2 129.79 234.05 132.17 204.93 131.52 199.62 135.1 205.03 153.5 203.95 160.32"/><polygon class="cls-4" points="209.26 166.82 207.42 161.19 203.52 162.6 188.47 200.05 191.39 204.6 199.51 201.24 224.2 167.14 222.46 162.38 217.81 161.3 209.26 166.82"/><polygon class="cls-14" points="244.22 195.29 257.43 172.01 265.12 167.03 275.62 203.09 273.78 214.56 261.11 221.6 254.51 219.11 245.09 203.73 244.22 195.29"/><polygon class="cls-15" points="168.77 189.23 162.92 205.03 160.1 207.41 161.95 224.85 165.84 232.97 170.61 231.13 175.26 224.31 171.91 191.5 168.77 189.23"/><polygon class="cls-4" points="179.16 362.12 181.32 359.63 189.88 359.63 192.91 361.9 197.02 369.92 195.4 373.81 179.81 384.96 161.08 384.96 157.83 383.88 165.19 379.55 167.79 379.55 170.39 378.04 170.61 376.41 179.16 362.12"/><polygon class="cls-5" points="165.19 379.55 170.39 384.96 179.81 384.96 178.62 383.88 170.61 376.41 165.19 379.55"/><polygon class="cls-6" points="158.05 388.32 197.02 388.32 197.02 369.92 178.62 383.88 157.83 383.88 158.05 388.32"/><polygon class="cls-1" points="146.57 260.25 164.22 315.46 167.47 320.55 188.15 324.23 191.83 321.09 195.62 319.57 185.11 282.33 176.78 273.56 151.34 259.81 146.57 260.25"/><polygon class="cls-6" points="164.22 315.46 191.83 321.09 192.69 349.89 190.09 352.05 178.94 352.27 175.26 350 164.22 315.46"/><polygon class="cls-16" points="192.69 349.89 175.26 350 179.16 362.12 192.91 361.9 192.69 349.89"/><polygon class="cls-6" points="216.51 349.78 221.71 349.89 228.31 345.77 230.37 339.93 217.05 310.37 209.47 309.61 193.88 316.22 191.83 321.09 216.51 349.78"/><polygon class="cls-16" points="216.51 349.78 230.37 339.93 236.21 353.03 225.6 360.39 216.51 349.78"/><polygon class="cls-5" points="185.01 273.02 180.57 278.11 191.83 321.09 217.05 310.37 226.47 266.09 219.76 265.01 185.01 273.02"/><polygon class="cls-14" points="140.73 211.42 165.84 232.97 163.57 203.3 159.02 206.66 158.48 200.81 151.34 197.35 145.38 198.54 139.64 205.57 140.73 211.42"/><polygon class="cls-16" points="140.73 211.42 151.34 197.35 139.43 191.5 132.5 195.62 134.23 205.9 140.73 211.42"/><polygon class="cls-3" points="146.57 260.25 187.71 239.24 226.47 266.09 180.57 278.11 146.57 260.25"/><polygon class="cls-14" points="187.71 239.24 185.66 233.29 178.08 225.06 172.34 223.66 146.57 260.25 175.37 264.58 187.71 239.24"/><polygon class="cls-5" points="140.4 250.94 158.48 200.81 163.57 203.3 151.55 253.32 140.4 250.94"/><polygon class="cls-17" points="187.39 240 191.28 235.67 211.42 233.29 215.97 235.02 226.47 266.09 190.42 265.55 187.39 240"/><polygon class="cls-14" points="192.26 202.22 187.82 202.87 185.66 233.29 191.93 237.08 215.97 235.02 245.09 203.73 243.57 198.11 192.26 202.22"/><polygon class="cls-17" points="173.42 188.47 168.66 189.34 172.34 223.66 185.01 236.21 187.6 236.21 188.25 233.62 190.74 206.22 189.12 198.43 173.42 188.47"/><polygon class="cls-14" points="179.48 159.67 168.66 189.34 191.39 204.6 200.92 178.73 201.79 168.12 197.89 157.29 205.03 153.5 179.48 159.67"/><polygon class="cls-17" points="244.98 159.89 219.87 170.07 208.72 179.92 193.13 199.73 191.39 204.6 245.09 203.73 265.12 167.03 251.15 160.75 244.98 159.89"/><polygon class="cls-4" points="202.98 242.49 215.97 235.02 220.95 238.81 223.11 246.39 222.79 255.38 207.63 254.84 202.98 242.49"/><polygon class="cls-16" points="229.72 237.94 215.97 235.02 222.79 255.38 236.1 250.29 237.84 245.96 235.24 240.54 229.72 237.94"/><polygon class="cls-5" points="275.62 203.09 284.17 232.53 254.19 243.57 248.01 241.19 243.9 233.4 243.68 227.34 275.62 203.09"/><polygon class="cls-4" points="243.68 227.34 254.19 243.57 236.1 250.29 229.72 237.94 243.68 227.34"/><polygon class="cls-18" points="188.25 233.62 191.93 237.08 187.39 240 184.57 235.89 188.25 233.62"/><polygon class="cls-18" points="189.88 215.97 193.23 219.32 189.23 222.46 186.2 218.57 189.88 215.97"/><polygon class="cls-18" points="193.13 199.73 195.72 204.38 190.63 206.98 187.82 202.33 193.13 199.73"/><polygon class="cls-16" points="228.26 137.16 240.11 137.59 209.26 166.82 222.46 162.38 235.67 160.11 239.24 155.78 260.25 116.48 259.71 107.6 255.05 71.76 249.06 60.59 246.72 66.57 230.15 132.07 228.26 137.16"/><polygon class="cls-8" points="184.57 135.53 167.9 120.59 168.66 102.57 185.33 127.09 184.57 135.53"/><polygon class="cls-4" points="170.17 66.14 168.66 102.57 184.57 135.53 228.26 137.16 242.85 109.76 249.06 60.59 221.16 28.24 203.52 33.98 185.66 49.14 170.17 66.14"/><polygon class="cls-16" points="172.99 71.98 181.54 69.49 192.48 74.69 195.83 80.64 196.16 89.52 192.8 99.37 186.95 80.21 172.99 71.98"/><polygon class="cls-16" points="200.92 88.76 202.11 80.53 206.44 74.15 219.11 69.17 233.29 71.22 218.03 79.56 203.84 99.37 200.92 88.76"/><polygon class="cls-13" points="198.1 103.92 192.8 99.37 198.97 97.1 203.84 99.37 198.1 103.92"/><polygon class="cls-7" points="181.22 68.41 190.74 70.9 192.48 74.69 180.35 70.47 172.99 71.98 181.22 68.41"/><polygon class="cls-7" points="208.39 70.57 206.44 74.15 220.3 70.68 233.29 71.22 220.19 67.97 208.39 70.57"/><polygon class="cls-19" points="202.11 80.53 203.84 99.37 192.8 99.37 195.83 80.64 202.11 80.53"/><polygon class="cls-17" points="196.7 119.29 187.6 110.2 191.93 110.52 215.32 109.76 219.76 109.33 208.06 119.62 196.7 119.29"/><polygon class="cls-20" points="191.93 110.52 197.46 116.48 207.2 116.58 215.32 109.76 191.93 110.52"/><polygon class="cls-14" points="187.6 110.2 194.32 109.66 198.65 108.14 204.93 109.22 219.76 109.33 198.75 112.47 187.6 110.2"/><path class="cls-21" d="M185,86.06a3.71,3.71,0,0,0,3.68-3.9,3.79,3.79,0,0,0-3.9-3.79,3.93,3.93,0,0,0-3.68,4A3.85,3.85,0,0,0,185,86.06Z"/><path class="cls-21" d="M217.38,85.3a3.87,3.87,0,0,0,3.68-4,3.93,3.93,0,0,0-3.9-3.79,3.86,3.86,0,0,0-3.68,4A3.79,3.79,0,0,0,217.38,85.3Z"/><polygon class="cls-13" points="257.32 107.6 260.25 116.48 264.9 107.82 262.63 105.11 257.32 107.6"/><polygon class="cls-17" points="195.29 155.88 200.92 178.73 207.42 161.19 205.03 153.5 195.29 155.88"/><polygon class="cls-22" points="208.72 179.92 251.15 160.75 239.35 155.45 222.46 162.38 208.72 179.92"/><path class="cls-23" d="M207.63,254.83l18.84,11.26-3.68-10.71ZM140.29,287l6.28-26.74,7.91,24.57Z"/><polygon class="cls-8" points="249.06 60.59 257.32 107.6 261.87 104.78 265.55 88.22 263.28 82.27 249.06 60.59"/><polygon class="cls-4" points="263.28 82.27 257.32 107.6 264.9 107.82 271.4 95.58 263.28 82.27"/><polygon class="cls-13" points="265.55 91.36 263.39 99.91 269.67 92.66 265.55 91.36"/><polygon class="cls-16" points="203.52 33.98 170.17 66.14 191.61 37.88 203.52 33.98"/><polygon class="cls-16" points="111.28 193.45 117.99 187.93 123.62 188.36 134.45 195.94 130.22 203.3 114.85 206.22 111.28 193.45"/><polygon class="cls-4" points="101.54 186.85 99.48 197.46 114.85 206.22 117.99 187.93 101.54 186.85"/><polygon class="cls-4" points="121.56 177.54 134.34 189.12 134.45 196.26 126.87 194.86 119.08 179.16 121.56 177.54"/><polygon class="cls-5" points="128.6 208.82 134.34 189.12 139.43 191.5 132.82 209.91 128.6 208.82"/></g></svg>