<svg id="Layer_1" data-name="Layer 1" xmlns="http://www.w3.org/2000/svg" viewBox="0 0 400 400"><defs><style>.cls-1{fill:#165e60;}.cls-2,.cls-23{fill:#2b2b2b;}.cls-2{fill-opacity:0.1;}.cls-3{fill:#1c7678;}.cls-4{fill:#318ea5;}.cls-5{fill:#27788b;}.cls-6{fill:#5ebfd8;}.cls-7{fill:#3a9fb9;}.cls-8{fill:#8bdfdb;}.cls-9{fill:#f4c9b2;}.cls-10{fill:#fce3d4;}.cls-11{fill:#c1907d;}.cls-12{fill:#ebebea;}.cls-13{fill:#cdcdcc;}.cls-14{fill:#50a8a9;}.cls-15{fill:#369395;}.cls-16{fill:#be8e00;}.cls-17{fill:#dcdcdb;}.cls-18{fill:#fff;}.cls-19{fill:#73cee4;}.cls-20{fill:#72cacb;}.cls-21{fill:#66483a;}.cls-22{fill:#51362a;}.cls-24{fill:#ffefe7;}.cls-25{fill:#4f5253;}.cls-26{fill:#6f7173;}.cls-27{fill:#8e8e8e;}</style></defs><title>sentinels_ESTJ_famous_fictional_porthos_the_three_musketeers</title><g id="Layer_1-2" data-name="Layer_1"><polygon class="cls-1" points="134.92 231.81 122.06 323.67 149.91 313.14 196.51 296.32 248.87 301.49 267.91 310.61 284.53 244.67 145.56 203.95 134.92 231.81"/><polygon class="cls-2" points="110.11 383.33 190.83 374.62 284.73 384.75 215.65 399.34 110.11 383.33"/><polygon class="cls-3" points="149.91 313.14 147.78 270.9 150.62 259.25 196.51 296.32 189.92 311.62 173.92 320.33 149.91 313.14"/><polygon class="cls-4" points="152.85 358.92 151.33 337.04 168.14 335.63 183.34 345.86 179.79 363.28 162.98 366.22 152.85 358.92"/><polygon class="cls-5" points="151.43 337.35 151.33 331.27 185.57 332.69 183.34 345.86 151.43 337.35"/><polygon class="cls-6" points="129.45 375.53 152.75 357 179.79 363.28 179.79 374.93 170.98 379.28 138.97 379.28 129.45 375.53"/><polygon class="cls-4" points="179.79 374.93 179.79 382.22 129.45 382.22 129.45 375.53 179.79 374.93"/><polygon class="cls-3" points="205.93 315.27 196.51 296.32 250.29 255.61 246.64 274.55 250.29 281.84 249.58 313.14 231.45 321.85 205.93 315.27"/><polygon class="cls-4" points="249.58 359.63 248.87 337.04 229.93 334.92 216.86 348.69 222.64 365.51 237.22 370.57 249.58 359.63"/><polygon class="cls-5" points="248.97 337.25 248.87 331.98 212.51 335.63 216.86 348.69 216.86 348.69 248.97 337.25"/><polygon class="cls-6" points="215.85 382.93 222.64 365.51 249.58 359.63 255.46 383.64 250.29 387.99 224.87 390.22 215.85 382.93"/><polygon class="cls-4" points="255.46 383.64 255.46 390.93 215.55 391.33 215.85 382.93 255.46 383.64"/><polygon class="cls-7" points="146.97 175.59 141.2 159.99 112.64 192.71 114.97 229.47 134.92 231.81 159.33 214.89 146.97 175.59"/><polygon class="cls-4" points="96.84 187.95 86 201.11 96.84 243.96 134.92 231.81 112.64 192.71 96.84 187.95"/><polygon class="cls-8" points="78.5 203.75 80.12 179.24 90.96 169.81 103.32 176.3 112.64 192.71 78.5 203.75"/><polygon class="cls-9" points="74.25 160.29 80.12 179.24 103.32 176.3 95.32 146.52 74.25 160.29"/><polygon class="cls-10" points="99.77 162.52 74.25 160.29 85.19 145.81 99.06 144.19 100.89 150.77 99.77 162.52"/><polygon class="cls-9" points="112.03 152.19 106.97 148.65 104.03 144.9 99.06 144.19 99.77 162.52 110.61 163.94 112.03 152.19"/><polygon class="cls-11" points="103.32 176.3 110.61 163.94 99.77 162.52 90.96 169.81 91.77 177.82 103.32 176.3"/><polygon class="cls-12" points="107.07 115.22 99.77 131.93 106.97 148.65 122.36 141.46 121.55 115.22 107.07 115.22"/><polygon class="cls-1" points="196.51 296.32 147.78 270.9 191.34 267.56 237.93 273.03 196.51 296.32"/><polygon class="cls-13" points="93.9 115.22 91.87 140.14 106.97 148.65 106.97 145.81 106.97 123.93 107.07 115.22 93.9 115.22"/><polygon class="cls-14" points="106.97 123.93 101.19 134.87 106.97 143.78 118.82 137.81 118.61 123.93 106.97 123.93"/><polygon class="cls-15" points="96.64 123.93 95.32 137.81 106.97 143.78 106.97 123.93 96.64 123.93"/><polygon class="cls-12" points="118.31 171.94 90.96 169.81 99.77 162.52 110.61 163.94 118.31 171.94"/><polygon class="cls-5" points="265.59 266.55 275 203.24 227.81 161.81 215.45 263.61 265.59 266.55"/><polygon class="cls-15" points="144.85 207.6 146.27 266.55 198.63 266.55 244.52 267.96 257.58 201.82 195.8 186.53 144.85 207.6"/><polygon class="cls-16" points="186.28 184.3 184.86 197.37 170.98 198.18 180.5 193.01 186.28 184.3"/><polygon class="cls-16" points="206.63 182.17 205.22 195.95 221.22 194.53 210.99 190.88 206.63 182.17"/><polygon class="cls-17" points="170.27 216.31 184.15 215.6 184.15 232.31 178.98 220.66 170.27 216.31"/><polygon class="cls-17" points="206.63 214.18 205.93 229.47 211.8 219.95 222.64 212.66 206.63 214.18"/><polygon class="cls-17" points="162.98 223.6 173.92 221.47 167.33 227.96 162.98 223.6"/><polygon class="cls-17" points="171.79 233.83 177.56 224.31 176.86 235.96 171.79 233.83"/><polygon class="cls-17" points="226.99 219.95 216.16 218.54 224.16 224.31 226.99 219.95"/><polygon class="cls-17" points="220.51 230.89 213.22 222.18 216.16 233.83 220.51 230.89"/><polygon class="cls-16" points="165.92 191.59 174.63 193.01 168.85 188.66 165.92 191.59"/><polygon class="cls-16" points="173.21 182.88 178.98 189.36 176.86 180.65 173.21 182.88"/><polygon class="cls-16" points="227.81 187.95 217.57 190.88 224.16 185.01 227.81 187.95"/><polygon class="cls-16" points="217.57 179.24 211.8 187.95 213.22 177.82 217.57 179.24"/><polygon class="cls-16" points="197.22 168.3 191.34 179.24 202.99 178.53 197.22 168.3"/><polygon class="cls-17" points="188.5 236.67 200.86 235.96 193.57 249.02 188.5 236.67"/><polygon class="cls-14" points="153.56 157.05 142.62 182.88 145.56 207.6 223.75 204.35 249.58 203.24 267 162.52 254.65 151.58 243 150.17 153.56 157.05"/><polygon class="cls-17" points="191.34 182.88 188.5 201.82 168.85 206.58 168.85 211.95 188.5 211.24 188.5 233.83 200.86 232.31 201.57 210.53 222.64 209.01 222.64 204.35 201.57 198.89 202.28 181.36 191.34 182.88"/><polygon class="cls-17" points="161.97 204.96 163.79 206.89 163.79 211.95 152.14 207.6 161.97 204.96"/><polygon class="cls-17" points="231.15 201.82 239.76 203.65 227.81 209.01 228.11 204.15 231.15 201.82"/><polygon class="cls-15" points="257.58 201.82 267 162.52 254.65 151.58 257.58 201.82"/><polygon class="cls-18" points="168.85 206.58 222.64 204.35 222.64 197.37 201.57 198.89 202.28 182.07 191.34 182.88 189.21 199.59 168.85 201.01 168.85 206.58"/><polygon class="cls-18" points="186.28 184.3 184.86 197.37 170.98 198.18 180.5 193.01 186.28 184.3"/><polygon class="cls-18" points="206.63 182.17 205.22 195.95 221.22 194.53 210.99 190.88 206.63 182.17"/><polygon class="cls-18" points="165.92 191.59 174.63 193.01 168.85 188.66 165.92 191.59"/><polygon class="cls-18" points="173.21 182.88 178.98 189.36 176.86 180.65 173.21 182.88"/><polygon class="cls-18" points="227.81 187.95 217.57 190.88 224.16 185.01 227.81 187.95"/><polygon class="cls-18" points="217.57 179.24 211.8 187.95 213.22 177.82 217.57 179.24"/><polygon class="cls-18" points="152.14 207.6 163.79 206.89 163.79 202.53 152.14 207.6"/><polygon class="cls-18" points="228.11 204.15 239.76 203.65 228.51 197.37 228.11 204.15"/><polygon class="cls-18" points="197.22 168.3 191.34 179.24 202.99 178.53 197.22 168.3"/><polygon class="cls-6" points="132.49 208.31 138.97 270.9 152.14 270.9 237.93 273.03 246.64 273.03 252.52 253.48 257.58 228.66 263.46 217.02 264.77 202.84 256.87 190.18 249.58 202.53 245.23 242.54 240.16 264.32 194.28 263.61 150.62 263.61 145.56 207.6 137.56 187.24 132.49 208.31"/><path class="cls-19" d="M132.49,208.31l13.07-.71,8-50.55L141.2,160Zm131.68-13.58-.71-27.14-8.81-15.3-5.07,51,12.56-.61Z"/><polygon class="cls-8" points="153.56 157.05 170.98 153 182.63 145.81 197.22 166.17 164.5 181.36 153.56 157.05"/><polygon class="cls-8" points="227.81 177.82 197.22 166.17 226.79 144.19 244.01 150.37 254.65 152.29 227.81 177.82"/><polygon class="cls-7" points="280.88 185.82 303.47 216.31 294.65 244.67 261.94 233.83 257.58 228.66 262.14 202.63 261.23 193.01 267 182.88 280.88 185.82"/><polygon class="cls-4" points="248.87 245.48 257.58 228.66 305.59 215.6 301.95 239.6 272.17 266.55 248.16 265.84 248.87 245.48"/><polygon class="cls-8" points="233.58 266.55 245.23 241.83 277.23 273.84 250.29 281.84 239.25 275.66 233.58 266.55"/><polygon class="cls-6" points="254.65 151.58 265.69 226.54 275 229.27 284.42 226.03 283.01 195.95 267 153 254.65 151.58"/><polygon class="cls-4" points="305.59 215.6 267 153 280.88 222.38 293.95 225.83 305.59 215.6"/><polygon class="cls-20" points="239.76 37.73 255.96 16.87 262.14 23.86 267.61 13.02 314 22.34 266.8 37.02 239.76 37.73"/><polygon class="cls-15" points="272.98 45.53 239.76 37.73 314 22.34 296.17 33.89 287.67 31.56 290.81 37.02 272.98 45.53"/><polygon class="cls-9" points="228.92 147.53 245.13 122.82 241.28 83.42 232.77 72.58 217.27 62.55 202.58 137.5 197.22 166.17 228.92 147.53"/><polygon class="cls-10" points="135.33 59.41 137.66 120.49 150.82 141.35 215.75 136.79 217.27 54.04 174.83 38.55 135.33 59.41"/><path class="cls-11" d="M135.33,59.41v3.85h0l52.57-5.37,28.66,4.66h0s-1.52-4.66-3.85-10.13L174,38.54l-39.4,20.87Z"/><polygon class="cls-9" points="141.5 77.24 150.82 81.09 162.37 100.43 169.36 102.76 176.35 100.43 190.23 80.28 198.02 74.91 191.04 69.44 181.01 74.91 172.5 78.76 169.36 81.9 165.51 79.57 158.52 74.91 147.68 70.25 141.5 77.24"/><polygon class="cls-7" points="184.05 51.71 135.33 63.26 174.83 22.34 212.71 16.87 224.26 14.54 252.92 35.51 243.6 53.23 217.27 62.55 184.05 51.71"/><polygon class="cls-19" points="170.17 11.5 182.53 20.72 181.01 36.22 160.14 37.02 153.86 28.52 170.17 11.5"/><polygon class="cls-6" points="218.08 10.69 170.17 11.5 181.01 36.22 199.54 25.38 212.71 16.87 218.08 10.69"/><polygon class="cls-4" points="215.75 0.66 212.71 16.87 252.92 35.51 215.75 0.66"/><polygon class="cls-4" points="217.27 62.55 222.74 73.39 232.77 72.58 251.3 72.58 265.28 57.08 252.92 35.51 217.27 62.55"/><polygon class="cls-5" points="245.93 88.08 233.58 84.13 232.77 72.58 265.28 57.08 245.93 88.08"/><polygon class="cls-11" points="227.4 134.47 218.89 136.79 163.99 139.84 170.98 153 197.22 166.17 227.4 134.47"/><polygon class="cls-10" points="226.59 79.57 224.26 101.14 237.43 104.28 242.79 92.63 241.28 83.42 234.29 77.95 226.59 79.57"/><polygon class="cls-11" points="228.11 93.44 229.73 84.13 237.43 84.94 228.11 93.44"/><polygon class="cls-11" points="224.26 101.14 235.1 115.83 237.43 104.28 224.26 101.14"/><polygon class="cls-21" points="216.56 80.28 225.07 93.44 226.59 79.57 233.58 78.76 232.77 72.58 217.27 62.55 216.56 80.28"/><polygon class="cls-22" points="241.28 83.42 232.77 72.58 226.59 79.57 232.77 81.09 241.28 83.42"/><polygon class="cls-22" points="246.75 105.09 245.93 88.08 241.28 83.42 231.25 134.47 240.47 122.82 246.75 105.09"/><polygon class="cls-21" points="235.71 153.61 228.92 147.53 231.25 134.47 246.75 105.09 244.42 128.29 242.09 150.67 235.71 153.61"/><polygon class="cls-22" points="254.85 152.6 244.72 161.71 235.71 153.61 246.75 105.09 255.25 127.48 254.85 152.6"/><polygon class="cls-21" points="265.28 133.66 254.85 152.6 246.75 105.09 265.28 133.66"/><polygon class="cls-22" points="139.99 73.39 141.5 77.24 148.5 73.39 158.52 74.91 158.52 71.06 148.5 67.92 139.99 73.39"/><polygon class="cls-22" points="199.54 71.06 198.02 74.91 190.23 71.77 181.01 74.91 180.2 71.06 190.23 66.4 199.54 71.06"/><path class="cls-23" d="M150.42,77.44A3.49,3.49,0,0,1,154.07,81a3.55,3.55,0,0,1-3.45,3.75A3.48,3.48,0,0,1,147,81.19,3.55,3.55,0,0,1,150.42,77.44Z"/><path class="cls-23" d="M190,76.33A3.58,3.58,0,0,1,193.77,80a3.72,3.72,0,0,1-3.54,3.85,3.78,3.78,0,0,1-3.75-3.64A3.73,3.73,0,0,1,190,76.33Z"/><polygon class="cls-24" points="165.51 79.57 162.37 100.43 176.35 100.43 172.5 78.76 165.51 79.57"/><polygon class="cls-11" points="170.17 105.09 162.37 100.43 176.35 100.43 170.17 105.09"/><polygon class="cls-22" points="149.31 115.83 170.17 106.61 192.56 113.6 195.69 138.31 150.82 141.35 149.31 115.83"/><polygon class="cls-10" points="170.88 111.27 157 118.97 157 135.17 164.7 135.17 170.88 126.67 178.68 133.66 186.38 132.84 184.05 115.83 170.88 111.27"/><polygon class="cls-11" points="160.85 118.97 170.17 119.78 183.34 117.45 183.34 119.78 170.17 122.11 160.85 121.3 160.85 118.97"/><polygon class="cls-5" points="102.92 71.77 136.14 84.13 135.33 63.26 127.63 49.38 102.92 71.77"/><polygon class="cls-7" points="70.4 31.56 102.92 71.77 127.63 49.38 124.49 20.01 70.4 31.56"/><polygon class="cls-4" points="181.01 36.22 124.49 20.01 116.79 37.73 102.92 71.77 135.33 63.26 181.01 36.22"/><polygon class="cls-25" points="197.22 256.32 189.11 271.81 201.57 279.61 207.34 276.68 194.99 272.02 203.8 263.61 208.86 262.9 208.15 256.32 197.22 256.32"/><polygon class="cls-26" points="217.57 263.71 202.28 251.25 197.22 256.32 208.46 272.02 216.16 268.88 217.57 263.71"/><polygon class="cls-27" points="240.87 295.62 311.16 352.14 329.6 366.93 245.63 288.73 240.47 290.65 240.87 295.62"/><polygon class="cls-14" points="265.69 226.54 267 327.62 281.29 321.95 291.82 235.96 281.59 222.18 265.69 226.54"/><polygon class="cls-5" points="305.59 215.6 295.46 316.69 281.29 321.95 280.88 222.38 305.59 215.6"/><polygon class="cls-6" points="144.85 337.35 149.91 313.14 189.92 311.62 192.15 337.04 144.85 337.35"/><polygon class="cls-6" points="255.76 336.44 249.58 313.14 205.93 315.27 206.23 342.11 255.76 336.44"/><polygon class="cls-25" points="208.46 272.02 211.8 274.55 220.51 277.69 224.87 272.22 224.16 257.84 208.46 272.02"/><polygon class="cls-26" points="198.63 281.84 212.51 280.32 219.8 278.7 218.79 276.27 208.46 272.02 198.63 281.84"/><polygon class="cls-10" points="218.59 276.37 233.58 266.55 250.29 281.84 240.87 295.62 224.87 288.32 218.59 276.37"/><polygon class="cls-9" points="212.51 280.32 218.79 276.27 240.87 295.62 227.81 298.55 212.51 280.32"/></g></svg>