<svg id="Layer_1" data-name="Layer 1" xmlns="http://www.w3.org/2000/svg" viewBox="0 0 400 400"><defs><style>.cls-1{fill:#66483a;}.cls-2{fill:#369395;}.cls-3{fill:#82624d;}.cls-4{fill:#51362a;}.cls-5{fill:#1c7678;}.cls-6{fill:#72cacb;}.cls-7{fill:#8bdfdb;}.cls-8{fill:#3a9fb9;}.cls-9{fill:#318ea5;}.cls-10{fill:#73cee4;}.cls-11{fill:#5ebfd8;}.cls-12{fill:#6f7173;}.cls-13{fill:#a8836c;}.cls-14{fill:#cfae95;}.cls-15{fill:#eed2c1;}.cls-16{fill:#50a8a9;}.cls-17{fill:#33231b;}.cls-17,.cls-29{fill-opacity:0.15;}.cls-18{fill:#4f5253;}.cls-19{fill:#474747;}.cls-20{fill:#165e60;}.cls-21{fill:#848585;}.cls-22{fill:#9ca0a1;}.cls-23{fill:#27788b;}.cls-24{fill:#cdcdcc;}.cls-25{fill:#a2a2a2;}.cls-26{fill:#98796a;}.cls-27{fill:#f6e5db;}.cls-28,.cls-29{fill:#2b2b2b;}</style></defs><title>sentinels_ESTJ_famous_fictional_boromir_the_lord_of_the_rings</title><g id="Layer_1-2" data-name="Layer_1"><polygon class="cls-1" points="127.87 67.84 137.84 107.03 140.33 92.78 138.2 55.73 127.87 67.84"/><polygon class="cls-2" points="258.24 164.38 265.37 167.59 274.63 154.05 277.12 139.09 262.52 128.04 250.05 126.62 240.07 129.11 235.44 135.88 238.65 156.19 258.24 164.38"/><polygon class="cls-1" points="260.02 105.6 255.03 93.14 252.19 107.39 256.1 118.43 260.02 105.6"/><polygon class="cls-3" points="242.92 131.96 242.92 102.75 247.2 78.17 252.54 102.04 251.83 128.04 247.91 133.39 242.92 131.96"/><polygon class="cls-4" points="228.68 139.44 229.74 153.34 230.46 157.25 238.65 156.19 237.58 135.88 233.31 115.22 228.68 139.44"/><polygon class="cls-1" points="230.1 153.34 233.31 119.5 223.33 140.51 230.1 153.34"/><polygon class="cls-4" points="237.58 142.29 242.92 131.96 248.62 141.94 238.65 156.19 237.58 142.29"/><polygon class="cls-1" points="238.65 156.19 242.92 131.96 232.24 114.51 233.31 119.5 238.65 156.19"/><polygon class="cls-4" points="235.44 105.96 233.31 119.5 242.92 131.96 242.92 125.91 240.78 95.98 235.44 105.96"/><polygon class="cls-5" points="231.17 229.21 231.88 254.5 254.68 233.84 284.6 233.13 294.93 220.31 298.49 203.92 290.3 203.21 286.74 204.99 241.14 206.06 231.17 229.21"/><polygon class="cls-6" points="283.18 241.32 286.74 245.95 305.97 208.91 303.13 206.06 297.07 207.12 284.6 233.13 283.18 241.32"/><polygon class="cls-2" points="282.82 171.5 273.91 180.76 273.2 191.09 286.74 204.99 297.07 207.12 300.27 185.4 297.07 171.5 282.82 171.5"/><polygon class="cls-7" points="305.62 168.3 299.92 167.59 297.07 171.5 297.07 207.12 305.97 208.91 305.62 168.3"/><polygon class="cls-5" points="277.12 139.09 265.37 164.38 266.08 176.49 273.91 180.76 297.07 171.5 289.94 152.27 277.12 139.09"/><polygon class="cls-6" points="281.39 130.9 276.76 134.1 277.12 139.09 297.07 171.5 305.62 168.3 281.39 130.9"/><polygon class="cls-7" points="256.1 118.43 281.39 130.9 277.12 139.09 258.6 130.54 253.61 123.77 256.1 118.43"/><polygon class="cls-8" points="165.63 148.35 165.27 154.05 173.46 162.24 183.08 165.8 181.66 154.41 167.41 146.92 165.63 148.35"/><polygon class="cls-9" points="185.93 153.69 183.08 165.8 209.44 162.6 230.1 153.34 227.96 145.5 219.41 144.43 185.93 153.69"/><polygon class="cls-10" points="181.3 145.14 165.98 143.01 165.63 148.35 179.87 154.41 183.08 165.8 181.3 145.14"/><polygon class="cls-11" points="188.42 143.72 183.08 165.8 187 154.76 227.96 145.5 226.54 139.8 188.42 143.72"/><polygon class="cls-12" points="279.97 206.06 260.38 204.99 241.85 210.33 250.76 232.42 266.79 242.74 286.74 245.95 279.97 206.06"/><polygon class="cls-9" points="265.37 164.38 282.46 196.79 261.09 202.49 244.35 201.07 249.34 183.61 265.37 164.38"/><polygon class="cls-10" points="244.35 201.07 282.46 196.79 286.74 204.99 241.85 210.33 244.35 201.07"/><polygon class="cls-13" points="139.62 299.03 128.22 294.04 134.28 289.77 137.13 286.92 138.2 289.41 139.62 299.03"/><polygon class="cls-14" points="122.88 271.6 128.22 294.04 134.28 289.77 130.72 279.44 122.88 271.6"/><polygon class="cls-15" points="139.98 266.26 131.78 265.54 122.88 271.6 134.28 289.77 138.2 289.41 143.54 276.23 139.98 266.26"/><polygon class="cls-10" points="122.52 265.54 122.88 271.6 140.33 266.26 141.76 262.69 140.69 260.2 131.07 259.49 122.52 265.54"/><polygon class="cls-9" points="119.32 233.84 122.17 263.41 131.43 263.05 140.69 260.2 143.54 244.53 138.55 230.99 122.52 225.65 119.32 233.84"/><polygon class="cls-10" points="119.32 233.84 123.24 227.43 138.55 230.99 139.62 229.57 137.84 225.65 127.87 219.23 118.25 221.73 119.32 233.84"/><polygon class="cls-12" points="128.58 197.86 118.25 221.73 137.84 225.65 139.98 209.97 133.57 198.93 128.58 197.86"/><polygon class="cls-10" points="121.45 192.52 134.28 201.78 138.2 197.51 137.13 193.59 133.21 187.18 126.8 186.11 121.45 192.52"/><polygon class="cls-9" points="149.95 159.03 126.8 186.11 137.13 193.59 145.68 181.12 149.95 159.03"/><polygon class="cls-16" points="104 236.33 94.03 253.43 104.71 270.89 107.56 266.97 101.86 253.43 107.21 240.61 104 236.33"/><polygon class="cls-2" points="107.21 240.61 99.73 253.43 107.56 266.97 116.82 253.79 107.21 240.61"/><polygon class="cls-6" points="125.73 248.8 113.62 253.08 104.71 270.89 126.8 264.48 132.85 252.36 125.73 248.8"/><polygon class="cls-7" points="113.62 253.08 132.85 252.36 124.66 241.32 104 236.33 113.62 253.08"/><polygon class="cls-7" points="124.66 241.32 131.07 252.36 126.8 264.48 131.43 263.05 137.13 251.65 129.65 242.74 124.66 241.32"/><polygon class="cls-6" points="139.98 240.25 129.65 242.74 135.35 252.36 131.43 263.05 141.05 254.15 143.54 243.81 139.98 240.25"/><polygon class="cls-17" points="102.58 382.38 190.56 399.84 277.48 380.6 262.52 378.11 193.05 366.71 102.58 382.38"/><polygon class="cls-18" points="115.04 373.83 115.04 380.24 158.86 379.53 158.86 373.48 130.36 370.27 115.04 373.83"/><polygon class="cls-19" points="132.5 358.16 115.04 373.83 158.86 373.48 158.86 358.87 153.87 355.31 136.77 355.31 132.5 358.16"/><polygon class="cls-18" points="133.92 343.56 132.5 358.16 158.86 358.87 164.56 345.69 149.24 342.13 133.92 343.56"/><polygon class="cls-5" points="133.92 343.56 164.56 345.69 167.05 339.28 151.73 329.31 134.63 332.15 133.92 343.56"/><polygon class="cls-18" points="227.25 376.33 227.61 383.09 262.16 383.81 262.52 378.11 244.7 374.55 227.25 376.33"/><polygon class="cls-19" points="231.17 364.93 227.25 376.33 262.52 378.11 252.19 364.57 246.13 361.72 234.38 362.08 231.17 364.93"/><polygon class="cls-18" points="223.69 350.68 231.17 364.93 252.19 364.57 240.43 348.54 231.17 347.12 223.69 350.68"/><polygon class="cls-5" points="224.04 332.15 216.92 337.14 223.69 350.68 239.72 349.97 238.65 341.06 235.8 332.87 224.04 332.15"/><polygon class="cls-8" points="159.93 267.68 139.98 266.26 134.63 332.15 174.53 340.7 178.45 335 179.16 278.01 159.93 267.68"/><polygon class="cls-9" points="179.16 278.01 203.38 279.79 219.06 294.4 232.24 335 182.01 342.13 177.38 308.64 179.16 278.01"/><polygon class="cls-11" points="173.11 313.63 174.53 340.7 182.01 342.13 179.16 278.01 174.18 292.62 173.11 313.63"/><polygon class="cls-5" points="163.49 273.38 172.75 271.95 179.16 278.01 173.11 313.63 162.78 311.49 157.08 306.15 163.49 273.38"/><polygon class="cls-20" points="158.86 312.92 157.08 306.15 173.11 313.63 174.89 319.33 158.86 312.92"/><polygon class="cls-7" points="163.84 324.32 158.15 317.55 158.86 312.92 165.63 315.77 166.34 319.69 163.84 324.32"/><polygon class="cls-20" points="193.77 267.32 184.86 261.63 201.96 257.35 208.37 263.05 207.66 268.04 193.77 267.32"/><polygon class="cls-9" points="154.94 193.94 134.28 201.78 141.4 249.16 155.65 258.42 169.19 256.99 173.46 226 170.26 203.56 154.94 193.94"/><polygon class="cls-9" points="184.86 203.56 178.81 224.94 184.86 261.63 202.67 259.13 219.77 249.87 234.73 252.01 241.85 210.33 208.01 200.71 184.86 203.56"/><polygon class="cls-8" points="185.93 177.56 184.86 203.56 241.85 210.33 265.37 164.38 229.39 163.67 185.93 177.56"/><polygon class="cls-8" points="149.95 159.03 134.28 201.78 163.49 203.56 170.26 203.56 176.31 176.49 149.95 159.03"/><polygon class="cls-10" points="173.11 260.91 169.19 256.99 170.26 204.27 173.46 177.2 149.95 159.03 157.08 156.9 169.9 162.24 181.66 175.06 179.52 208.19 179.87 244.88 177.02 259.49 173.11 260.91"/><polygon class="cls-11" points="180.23 261.98 184.86 261.63 184.86 203.56 187.71 197.15 187 190.74 188.42 179.69 247.91 159.03 238.65 156.19 209.44 162.6 181.66 175.06 177.38 203.92 177.02 259.49 180.23 261.98"/><polygon class="cls-5" points="139.98 266.26 141.4 249.16 169.19 256.99 169.9 265.9 163.49 273.38 179.16 278.01 178.45 268.75 184.86 261.63 207.66 268.04 207.3 277.3 206.23 286.2 139.98 266.26"/><polygon class="cls-7" points="207.66 268.04 214.07 265.9 221.55 279.79 206.23 286.2 207.66 268.04"/><polygon class="cls-12" points="216.56 303.66 247.2 364.93 258.95 367.42 257.53 352.1 236.87 297.6 232.24 293.68 222.62 293.33 216.56 303.66"/><polygon class="cls-21" points="233.66 296.89 235.09 301.52 250.05 342.49 258.95 367.42 266.79 358.16 246.49 291.9 239.01 292.26 233.66 296.89"/><polygon class="cls-22" points="211.22 292.62 226.89 283 242.92 280.15 243.99 283.71 241.85 286.2 245.42 287.98 246.49 291.9 216.56 303.66 214.78 300.1 215.85 297.25 213 296.53 211.22 292.62"/><polygon class="cls-23" points="233.66 267.68 226.89 274.81 237.22 276.59 240.78 273.02 238.65 266.61 233.66 267.68"/><polygon class="cls-24" points="191.63 298.67 199.47 301.88 201.6 296.18 252.19 276.23 257.17 279.08 259.67 270.89 240.78 273.02 229.39 271.24 214.78 278.72 191.63 298.67"/><polygon class="cls-20" points="167.41 262.34 165.27 268.04 175.24 273.02 179.16 264.12 167.41 262.34"/><polygon class="cls-7" points="169.19 256.99 167.41 262.34 177.38 265.19 174.89 270.89 165.27 268.04 163.49 273.38 179.16 278.01 184.86 261.63 169.19 256.99"/><polygon class="cls-24" points="266.79 358.16 260.73 360.3 258.95 367.42 253.25 362.79 247.2 364.93 262.52 378.11 266.79 358.16"/><polygon class="cls-11" points="165.27 154.05 183.08 165.8 183.44 171.15 175.24 170.43 157.08 156.9 165.27 154.05"/><polygon class="cls-5" points="137.84 225.65 157.08 209.26 162.06 217.46 164.2 228.85 141.4 249.16 137.84 225.65"/><polygon class="cls-5" points="163.49 203.56 164.2 216.03 169.9 223.87 177.02 214.25 175.96 207.48 170.26 203.56 163.49 203.56"/><polygon class="cls-7" points="157.08 209.26 163.49 203.56 169.9 223.87 164.2 228.85 157.08 209.26"/><polygon class="cls-7" points="170.26 203.56 173.82 208.55 177.74 208.91 184.86 203.56 170.26 203.56"/><polygon class="cls-5" points="238.65 156.19 265.37 164.38 200.89 205.34 188.78 199.64 187 190.74 238.65 156.19"/><polygon class="cls-7" points="193.05 197.15 190.56 201.43 184.86 203.56 187 190.74 193.05 197.15"/><polygon class="cls-24" points="193.77 228.85 200.89 219.23 212.64 220.66 204.45 227.07 193.77 228.85"/><polygon class="cls-25" points="204.81 238.12 193.77 228.85 212.64 220.66 212.29 234.55 209.08 237.76 204.81 238.12"/><polygon class="cls-12" points="208.37 254.15 204.81 238.12 212.29 234.55 217.63 245.6 214.78 252.01 208.37 254.15"/><polygon class="cls-15" points="240.78 273.02 238.65 257.35 234.73 252.01 217.63 245.6 218.35 261.98 230.81 274.45 240.78 273.02"/><polygon class="cls-13" points="211.93 258.77 208.37 254.15 202.67 259.13 207.66 268.04 212.64 269.82 211.93 258.77"/><polygon class="cls-9" points="247.2 236.69 240.43 244.88 241.14 259.13 247.91 268.75 271.42 254.86 274.63 242.74 247.2 236.69"/><polygon class="cls-10" points="240.43 244.88 247.91 268.75 240.78 273.02 234.73 252.01 240.43 244.88"/><polygon class="cls-10" points="247.2 236.69 271.42 246.66 271.42 254.86 286.74 245.95 250.76 232.42 247.2 236.69"/><polygon class="cls-24" points="179.16 224.22 177.02 229.57 169.9 223.87 177.02 219.95 179.16 224.22"/><polygon class="cls-14" points="208.37 254.15 217.63 245.6 230.81 274.45 214.78 278.72 208.37 254.15"/><polygon class="cls-10" points="183.08 165.8 183.44 170.43 191.27 171.86 238.65 156.19 230.1 153.34 183.08 165.8"/><polygon class="cls-24" points="183.08 165.8 175.24 170.43 181.66 175.06 185.22 170.79 183.08 165.8"/><polygon class="cls-3" points="143.18 22.96 127.87 67.84 134.99 63.57 141.05 58.94 151.38 30.8 143.18 22.96"/><polygon class="cls-26" points="176.31 9.78 163.13 13.34 143.18 22.96 147.1 31.15 161.71 30.09 168.83 26.17 174.18 17.26 176.31 9.78"/><polygon class="cls-3" points="215.85 25.46 193.05 16.19 172.39 13.34 168.83 26.17 180.59 30.09 197.69 33.65 204.1 31.51 215.85 25.46"/><polygon class="cls-1" points="208.01 66.42 198.75 50.03 197.69 33.65 208.01 25.1 214.78 40.77 217.99 58.94 214.07 64.28 208.01 66.42"/><polygon class="cls-13" points="233.31 119.5 231.17 103.11 232.59 100.62 236.51 98.83 239.72 100.26 233.31 119.5"/><polygon class="cls-1" points="242.92 131.96 247.2 78.17 241.5 91.71 239.72 100.26 242.92 131.96"/><polygon class="cls-15" points="232.59 100.62 230.1 88.5 232.59 79.96 237.94 75.68 247.2 78.17 239.72 100.26 232.59 100.62"/><polygon class="cls-1" points="185.57 0.16 182.72 6.93 172.39 13.34 143.18 22.96 185.57 0.16"/><polygon class="cls-26" points="228.32 21.18 203.03 10.14 179.87 5.86 172.39 13.34 208.01 25.1 215.85 25.46 228.32 21.18"/><polygon class="cls-3" points="228.32 21.18 221.55 20.47 179.87 5.86 185.57 0.16 217.99 9.78 236.87 17.98 228.32 21.18"/><polygon class="cls-26" points="241.85 15.13 237.94 19.04 231.53 17.62 185.57 0.16 241.85 15.13"/><polygon class="cls-3" points="228.32 58.94 226.54 39.35 221.55 20.47 208.01 25.1 215.5 57.87 222.62 60.01 228.32 58.94"/><polygon class="cls-1" points="231.53 17.62 221.55 20.47 225.83 57.51 236.51 61.08 240.43 58.94 237.58 35.43 231.53 17.62"/><polygon class="cls-3" points="249.34 59.65 244.7 60.36 238.65 57.51 231.53 17.62 241.85 15.13 247.2 38.63 249.34 59.65"/><polygon class="cls-26" points="258.6 59.3 254.32 61.79 247.91 58.23 241.85 15.13 258.6 59.3"/><polygon class="cls-1" points="232.59 79.96 220.13 73.19 215.5 57.87 225.83 57.51 238.29 64.64 247.2 78.17 232.59 79.96"/><polygon class="cls-3" points="238.65 57.51 225.83 57.51 247.2 78.17 243.99 64.28 238.65 57.51"/><polygon class="cls-1" points="247.91 58.23 238.65 57.51 247.2 78.17 250.4 68.2 247.91 58.23"/><polygon class="cls-3" points="253.25 71.41 247.91 58.23 247.2 78.17 250.4 89.93 255.03 93.14 253.25 71.41"/><polygon class="cls-1" points="256.1 118.43 255.03 93.14 247.2 78.17 251.83 128.04 256.46 125.19 256.1 118.43"/><polygon class="cls-1" points="254.32 138.02 248.27 155.83 242.92 131.96 251.83 128.04 254.32 130.9 254.32 138.02"/><polygon class="cls-3" points="260.02 131.25 256.1 118.43 251.83 128.04 256.46 147.99 260.02 131.25"/><polygon class="cls-13" points="156.72 132.32 165.98 144.43 174.89 147.99 183.08 165.8 189.85 147.28 207.66 143.72 199.11 132.68 162.42 129.11 156.72 132.32"/><polygon class="cls-14" points="199.11 132.68 207.66 143.72 226.54 139.8 233.31 119.5 228.32 83.87 208.01 66.42 203.74 74.61 202.67 107.39 197.33 122.34 199.11 132.68"/><polygon class="cls-13" points="236.16 83.87 241.5 82.81 236.51 93.14 236.16 83.87"/><polygon class="cls-15" points="134.99 63.57 147.1 31.15 168.83 26.17 197.69 33.65 208.01 66.42 208.01 107.03 177.38 125.91 148.53 125.55 137.84 107.03 134.99 63.57"/><polygon class="cls-13" points="151.02 103.82 160.64 102.04 173.46 103.82 175.6 107.39 161 105.25 149.95 107.39 151.02 103.82"/><polygon class="cls-3" points="232.59 79.96 215.5 57.87 208.01 66.42 215.14 74.26 226.18 86.01 230.1 88.5 232.59 79.96"/><polygon class="cls-26" points="232.59 79.96 226.18 86.01 227.25 110.23 233.31 119.5 232.59 79.96"/><polygon class="cls-3" points="226.18 86.01 208.01 104.89 196.97 120.92 199.11 132.68 217.99 121.28 226.18 86.01"/><path class="cls-26" d="M137.84,107,146,119.5V99.19l13.54-6.41,19.59,6,4.28,18.53L208,104.89l-8.9,27.79-54.5-.36L137.84,107ZM151,122l10.33-2.85,16,2.14-3.92-17.46-13.18-4.27L151,103.82Z"/><polygon class="cls-14" points="146.39 69.98 137.84 62.5 144.97 60.36 155.29 63.93 157.08 68.91 157.79 74.97 152.09 87.44 146.39 69.98"/><polygon class="cls-14" points="164.2 68.91 166.34 63.93 175.6 60.36 188.78 61.79 177.74 70.34 168.12 86.72 163.49 77.11 164.2 68.91"/><polygon class="cls-13" points="159.57 92.78 152.09 87.44 159.93 85.3 168.12 86.72 159.57 92.78"/><polygon class="cls-27" points="164.2 68.91 168.12 86.72 152.09 87.44 157.08 68.91 164.2 68.91"/><polygon class="cls-4" points="153.87 60.01 155.29 63.93 137.84 62.5 141.05 58.94 153.87 60.01"/><polygon class="cls-4" points="168.12 59.65 166.34 63.93 188.78 61.79 184.5 57.87 168.12 59.65"/><path class="cls-28" d="M146.39,73.9a3.21,3.21,0,1,0-3.21-3.21A3.19,3.19,0,0,0,146.39,73.9Z"/><path class="cls-28" d="M177,74.26a3.58,3.58,0,0,0,3.57-3.57,3.29,3.29,0,0,0-3.57-3.2,3.18,3.18,0,0,0-3.2,3.2A3.51,3.51,0,0,0,177,74.26Z"/><polygon class="cls-26" points="161 113.8 154.58 109.88 169.19 109.52 161 113.8"/><polygon class="cls-25" points="191.27 171.86 181.66 175.06 182.01 169.72 183.08 165.8 191.27 171.86"/><polygon class="cls-25" points="184.86 224.22 177.02 219.95 176.31 224.22 177.02 229.57 184.86 224.22"/><path class="cls-12" d="M213,296.53l15.32-6,1.42,3.56-15,6.06L213,296.53ZM233,288.34l11-4.63,1.43,4.27-11,4.28Z"/><path class="cls-29" d="M206.23,286.2l24.58-11.75-16,4.27-2.14-8.9-5-1.78,7.12,10.68-8.55,7.48Zm53.44-123.6-21-6.41,7.48-10.69,2.14,10.33,6-17.81,2.14,10L260,131.25ZM247.2,364.93l6.05-2.14,5.7,4.63,3.57,10.69L247.2,364.93Zm-30.64-61.27L232.24,335l-11,11.05-4.28-8.91,7.12-1.07-15.31-39.54-7.13-.35-2.13,5.7-7.84-3.21,68-27.78-2.5,8.19-5-2.85L229,285.49l4.63,11.4-17.1,6.77Zm-5.34-11,3.56,7.48,15-6.06-1.42-3.56-15.32,6-1.78-3.91Zm-26.36-68.4-15-.35,7.12,5.7,7.84-5.35Zm-9.62-53.79,6.77-.71,9.26,2.14-9.61,3.2-6.42-4.63Zm-44.17,81.93,10.33-3.2-.35,5-9.62,8.91-4.63,1.42-13.54,3.92,6.41-15.31-8.19-14.61,13.18,2.85,6.41,11Zm86.56-6.76,17.1,6.41,16-19.59-8.9-22.09L280,206.05l1.07,7.49-39.18-3.21L217.63,245.6Zm-89-47.74,5.7,3.92,3.56,23.87-9.26-27.79Zm44.53,115.77,1.78,5.7-1.43,4.28,5.7-3.92-1.78-7.13L179.16,278l-6,35.62Zm-8.55,32.06-29.92-13.54,32.41,7.13Z"/><polygon class="cls-6" points="173.82 208.55 184.86 203.56 177.02 214.25 173.82 208.55"/><polygon class="cls-6" points="193.05 197.15 184.86 203.56 200.89 205.34 193.05 197.15"/><polygon class="cls-6" points="165.63 315.77 163.84 324.32 173.46 323.61 174.89 319.33 165.63 315.77"/><polygon class="cls-1" points="255.03 93.14 247.91 58.23 258.6 59.3 255.03 93.14"/><polygon class="cls-14" points="141.05 97.77 149.6 88.5 147.46 94.92 141.05 97.77"/><polygon class="cls-14" points="171.68 88.15 177.74 94.2 187.35 97.05 171.68 88.15"/><polygon class="cls-14" points="148.53 46.83 181.66 44.33 161.35 47.54 148.53 46.83"/></g></svg>