<svg id="Layer_2" data-name="Layer 2" xmlns="http://www.w3.org/2000/svg" viewBox="0 0 400 400"><defs><style>.cls-1,.cls-5{fill:#33231b;}.cls-1{opacity:0.1;}.cls-2{fill:#50a8a9;}.cls-3{fill:#593e35;}.cls-4{fill:#412b23;}.cls-6{fill:#debca4;}.cls-7{fill:#c2977a;}.cls-8{fill:#72cbcb;}.cls-9{fill:#5ebfd8;}.cls-10{fill:#1d7678;}.cls-11{fill:#3a9fb9;}.cls-12{fill:#185e60;}.cls-13{fill:#369395;}.cls-14{fill:#92d5d5;}.cls-15{fill:#e8c9b6;}.cls-16{fill:#8a6651;}.cls-17{fill:#2b2b2b;}.cls-18{fill:#c3c3c3;}.cls-19{fill:none;}</style></defs><title>sentinels_ESTJ_famous_fictional_lisa_cuddy_house_m_d</title><polygon class="cls-1" points="115.56 388.49 197.23 371.14 284.44 386.6 201.99 400 115.56 388.49"/><polygon class="cls-2" points="252.2 215.6 233.83 245.22 241.13 257.73 267.01 230.91 262.84 214.02 252.2 215.6"/><polygon class="cls-3" points="166.22 127.39 161.78 148.71 175.76 156.64 169.63 167.44 189.59 178.91 201.55 151.96 187.59 127.91 166.22 127.39"/><polygon class="cls-4" points="167.56 166.86 167.88 170.8 188.63 166.01 178.76 138.28 161.78 148.71 171.18 158.53 167.56 166.86"/><polygon class="cls-5" points="180.05 135.5 174.51 147.49 188.67 164.35 194.27 130.17 180.05 135.5"/><polygon class="cls-6" points="244.93 313.09 244.93 362.65 230.06 362.62 214.54 309.25 244.93 313.09"/><polygon class="cls-7" points="212.19 295.53 236.92 289.23 222.16 285.06 210.83 290.13 212.19 295.53"/><polygon class="cls-6" points="160.78 310.24 160.78 357.02 177.25 359.75 191.84 309.25 160.78 310.24"/><polygon class="cls-7" points="192.39 290.79 180.66 286.75 167.57 291.63 191.84 296.58 192.39 290.79"/><polygon class="cls-8" points="173.28 252.54 160.78 248.06 164.44 228.13 179.79 251.89 173.28 252.54"/><polygon class="cls-5" points="171.18 158.53 188.63 166.01 179.01 134.45 161.78 148.71 171.18 158.53"/><polygon class="cls-9" points="172.4 246.24 160.78 310.24 244.93 313.09 245.82 264.24 214.54 240.15 189.01 239.65 172.4 246.24"/><polygon class="cls-10" points="182.14 244.04 172.4 246.24 160.78 310.24 182.14 244.04"/><polygon class="cls-11" points="214.54 240.15 239 193.96 181.51 203.96 166.59 206.23 181.95 244.63 214.54 240.15"/><polygon class="cls-12" points="177.25 359.75 181.72 370.91 177.11 384.85 170.52 384.85 165.23 362.96 177.25 359.75"/><polygon class="cls-10" points="177.25 359.75 165.53 384.89 132.25 384.89 150.53 370.91 172.75 359.01 177.25 359.75"/><polygon class="cls-6" points="148.71 372.3 165.79 372.3 172.75 359.01 160.78 357.02 148.71 372.3"/><polygon class="cls-6" points="248.58 156.94 199.77 158.53 187.39 164.44 181.45 165.16 164.13 171.76 150.96 197.48 181.48 204.99 237.42 200.33 248.58 156.94"/><polygon class="cls-7" points="187.39 164.44 205.49 162.22 220.6 143.82 223.11 143.82 243.59 80.19 210.88 54.46 206.34 119.62 191.63 138.73 187.39 164.44"/><polygon class="cls-6" points="146.19 37.29 138.79 47.57 138.52 60.53 143.87 104.67 160.34 138.83 191.63 138.73 206.22 124.95 214.11 68.61 173.44 31.68 146.19 37.29"/><polygon class="cls-9" points="207.12 187.76 181.48 204.99 202.89 206.02 237.42 200.33 239 193.96 207.12 187.76"/><polygon class="cls-9" points="150.96 197.48 166.59 206.23 181.48 204.99 170.49 192.69 150.96 197.48"/><polygon class="cls-9" points="236.28 204.95 236.28 204.95 237.27 200.93 236.28 204.95"/><polygon class="cls-6" points="234.97 81.68 224.5 74.85 218.87 101.3 230.11 102.67 234.97 81.68"/><polygon class="cls-13" points="181.95 244.63 164.83 212.09 161.85 194.17 150.96 197.48 172.4 246.24 181.95 244.63"/><polygon class="cls-13" points="229.17 238.03 239 193.96 225.04 189.99 211.69 202.47 214.54 240.15 230.41 254.8 229.17 238.03"/><polygon class="cls-14" points="239 193.96 248.58 156.94 213.74 159.16 202.89 206.02 239 193.96"/><polygon class="cls-10" points="214.54 240.15 244.93 313.09 245.82 264.24 229.17 238.03 214.54 240.15"/><polygon class="cls-10" points="202.89 206.02 214.54 240.15 224.34 205.84 212.39 192.69 202.89 206.02"/><polygon class="cls-13" points="202.89 206.02 227.65 197.75 213.74 159.16 202.89 206.02"/><polygon class="cls-3" points="198.09 169.47 209.23 200.74 224.34 205.84 239 193.96 234.36 173.25 248.58 156.94 244.19 139.54 261.8 119.72 255.35 84.42 262.84 69.53 249.24 32.38 195.64 0 150.67 13.55 127.44 36.83 126.73 71.13 138.19 76.79 138.52 60.53 138.79 47.57 146.19 37.29 173.44 31.68 218.5 67.09 234.97 81.68 228.96 107.09 236.6 123.31 220.6 143.82 198.09 169.47"/><polygon class="cls-10" points="237.42 200.33 267.01 230.91 281.31 216.42 248.58 156.94 242 181.86 237.42 200.33"/><polygon class="cls-14" points="181.45 165.16 167.56 166.86 150.96 197.48 166.59 206.23 181.45 165.16"/><polygon class="cls-12" points="244.93 362.65 249.49 373.76 246.71 392.43 241.63 392.43 240.94 371.86 244.93 362.65"/><polygon class="cls-6" points="230.06 362.62 224.61 376.15 241.24 379.19 244.93 362.65 230.06 362.62"/><polygon class="cls-10" points="217.04 392.43 224.61 376.15 240.94 376.25 244.93 362.65 241.63 392.43 217.04 392.43"/><polygon class="cls-15" points="165.24 73.22 169.47 73.22 169.47 91.08 173.06 99.53 162.12 99.53 165.24 91.51 165.24 73.22"/><polygon class="cls-16" points="173.06 99.53 168 104.67 162.65 99.53 173.06 99.53"/><polygon class="cls-13" points="157.16 114.85 166.44 120.46 175.09 120.46 185.4 114.58 157.16 114.85"/><polygon class="cls-12" points="189.05 112.04 185.4 114.58 171.47 116.71 157.16 114.85 153.31 112.69 157.42 113.16 166.85 112.04 169.74 112.78 172.58 111.95 184.56 112.95 189.05 112.04"/><polygon class="cls-7" points="173.7 66.61 169.47 73.22 169.47 91.08 173.06 99.53 182.74 75.29 202.39 64.31 190.14 63.74 173.7 66.61"/><polygon class="cls-7" points="141.21 64.31 154.98 75.29 165.24 91.51 165.24 73.22 161.07 67.03 147.55 63.74 141.21 64.31"/><polygon class="cls-16" points="218.87 101.3 227.19 114.73 230.11 102.67 218.87 101.3"/><polygon class="cls-5" points="220.08 95.6 214.11 68.61 222.01 72.56 224.5 74.85 220.08 95.6"/><polygon class="cls-4" points="150.67 13.55 146.19 37.29 173.44 31.68 195.64 0 150.67 13.55"/><polygon class="cls-4" points="139.46 68.6 132.04 65.29 126.73 71.13 143.87 104.67 139.46 68.6"/><polygon class="cls-3" points="127.44 36.83 132.44 46.16 146.19 37.29 150.67 13.55 127.44 36.83"/><polygon class="cls-5" points="146.19 37.29 132.44 46.16 132.04 65.29 140.2 75.93 138.52 60.53 138.79 47.57 146.19 37.29"/><polygon class="cls-5" points="262.84 69.53 234.97 81.68 256.71 91.88 262.84 69.53"/><polygon class="cls-4" points="173.44 31.68 214.11 68.61 234.97 81.68 262.84 69.53 249.24 32.38 173.44 31.68"/><polygon class="cls-4" points="261.8 119.72 230.11 102.67 220.6 143.82 244.19 139.54 261.8 119.72"/><polygon class="cls-4" points="198.09 169.47 234.36 173.25 248.58 156.94 220.6 143.82 198.09 169.47"/><polygon class="cls-5" points="239 193.96 205.09 189.13 209.23 200.74 224.34 205.84 239 193.96"/><polygon class="cls-16" points="222.66 95.6 225.65 79.42 231.82 82.77 222.66 95.6"/><polygon class="cls-11" points="186.53 171.31 194.48 172.57 194.94 177.93 188.8 180.22 184.52 176.18 186.53 171.31"/><polygon class="cls-11" points="184.27 199.38 188.52 194.76 187.67 191.49 184.68 190.9 182.74 193.12 184.27 199.38"/><polygon class="cls-13" points="188.22 180.1 186.18 183.27 187.7 185.82 190.68 183.77 189.69 180.39 188.22 180.1"/><polygon class="cls-13" points="187.7 185.82 185.29 187.81 186.25 191.21 189.19 188.66 187.7 185.82"/><polygon class="cls-10" points="166.59 206.23 169.21 183.56 150.96 197.48 160.78 219.81 181.95 244.63 166.59 206.23"/><polygon class="cls-16" points="180.33 138.76 187.39 164.44 208.34 138.7 180.33 138.76"/><polygon class="cls-7" points="181.48 204.99 184.27 199.38 182.74 193.12 177.88 200.97 181.48 204.99"/><polygon class="cls-13" points="198.87 171.68 196.91 171.68 194.48 172.57 194.69 174.99 197.75 174.99 199.52 173.5 198.87 171.68"/><polygon class="cls-13" points="184.52 169.94 182.6 170.21 182.33 168.09 181.45 165.16 180.07 168.97 180.93 170.53 182.11 170.8 183.03 172.52 185.52 173.75 186.53 171.31 184.52 169.94"/><polygon class="cls-5" points="161.07 67.03 160.32 64.81 147.72 61.87 141.21 64.31 147.55 63.74 161.07 67.03"/><polygon class="cls-5" points="173.7 66.61 190.14 63.74 202.39 64.31 190.39 61.35 174.43 64.73 173.7 66.61"/><polygon class="cls-13" points="181.45 165.16 150.96 197.48 166.59 206.23 181.45 165.16"/><polygon class="cls-16" points="160.78 310.52 189.16 318.52 191.22 311.37 160.78 310.27 160.78 310.52"/><polygon class="cls-16" points="244.93 313.09 215.35 312.04 217.18 318.33 244.93 313.09"/><polygon class="cls-6" points="214.54 240.15 233.83 245.22 241.63 257.44 221.73 257.4 214.54 240.15"/><polygon class="cls-7" points="214.54 240.15 199.39 250.21 210.24 260.27 221.73 257.4 214.54 240.15"/><path class="cls-17" d="M188,76.29a4.22,4.22,0,1,1-4.22-4.21A4.22,4.22,0,0,1,188,76.29Z"/><circle class="cls-17" cx="153.98" cy="76.29" r="4.22"/><polygon class="cls-18" points="228.91 97.97 229.63 99.84 228.38 101.4 226.4 101.09 225.68 99.22 226.94 97.66 228.91 97.97"/><line class="cls-19" x1="167.34" y1="247.1" x2="229.17" y2="238.03"/><polygon class="cls-6" points="160.78 248.06 158.43 262.52 164.4 266.48 164.93 249.54 160.78 248.06"/><polygon class="cls-16" points="158.43 262.52 160.78 274.94 165.35 285.06 167.34 274.13 164.4 266.48 158.43 262.52"/><polygon class="cls-7" points="164.93 249.54 164.19 273.4 167.34 274.13 171.46 251.89 164.93 249.54"/><polygon class="cls-7" points="184.33 335.25 160.78 326.14 160.78 357.02 177.25 359.75 184.33 335.25 184.33 335.25"/><polygon class="cls-7" points="222.57 336.86 230.06 362.62 244.93 362.65 244.93 336.86 222.57 336.86"/></svg>