<svg id="Layer_1" data-name="Layer 1" xmlns="http://www.w3.org/2000/svg" viewBox="0 0 400 400"><defs><style>.cls-1{fill:#33231b;}.cls-1,.cls-26{fill-opacity:0.15;}.cls-2{fill:#4f5253;}.cls-3{fill:#474747;}.cls-4{fill:#8e8e8e;}.cls-5{fill:#6f7173;}.cls-6{fill:#cdcdcc;}.cls-7{fill:#dcdcdb;}.cls-26,.cls-8{fill:#2b2b2b;}.cls-9{fill:#165e60;}.cls-10{fill:#318ea5;}.cls-11{fill:#73cee4;}.cls-12{fill:#1c7678;}.cls-13{fill:#27788b;}.cls-14{fill:#369395;}.cls-15{fill:#c3c3c3;}.cls-16{fill:#a2a2a2;}.cls-17{fill:#3a9fb9;}.cls-18{fill:#5ebfd8;}.cls-19{fill:#9ca0a1;}.cls-20{fill:#c1907d;}.cls-21{fill:#f4c9b2;}.cls-22{fill:#ebebea;}.cls-23{fill:#fce3d4;}.cls-24{fill:#ffefe7;}.cls-25{fill:#72cacb;}</style></defs><title>sentinels_ESTJ_famous_fictional_robb_stark_game_of_thrones</title><path class="cls-1" d="M137,384.24,222.73,400l86.91-14.91-24.26-3.63-63.8-9.89L137,384.24ZM95.5,375l27.42-4.25,29,5.26-32.29,6Z"/><polygon class="cls-2" points="116.08 234.48 121.69 236.35 130.12 374.63 123.37 378.4 122.16 376.38 115.06 236.59 116.08 234.48"/><polygon class="cls-3" points="112.88 236.82 116.08 234.48 123.37 378.4 118.33 376.82 112.88 236.82"/><polygon class="cls-4" points="68.81 42.85 64.37 48.07 71.08 50.34 145.87 36.14 149.69 27.8 68.81 42.85"/><polygon class="cls-5" points="144 33.72 148.37 35.13 148.84 40.04 141.04 44.72 75.21 55.09 70.14 53.07 64.37 48.07 144 33.72"/><polygon class="cls-6" points="148.84 40.04 70.14 53.07 74.51 153.99 82.7 161.48 135.81 155.55 156.71 145.25 148.84 40.04"/><polygon class="cls-7" points="65.85 187.61 74.51 153.99 156.71 145.25 145.33 174.81 138.23 192.91 126.84 197.43 76.38 194.55 65.85 187.61"/><polygon class="cls-6" points="65.85 187.61 71.7 185.27 138.23 192.91 143.69 224.19 126.92 233.15 105.55 236.59 94.63 219.97 65.85 187.61"/><polygon class="cls-7" points="92.45 252.5 94.63 219.97 100.64 218.57 136.67 221.45 143.69 224.19 92.45 252.5"/><polygon class="cls-8" points="158.19 71.99 152.67 67.06 162.02 65.98 166.03 69.57 172.63 78.59 167.37 80.34 162.36 79.51 158.19 71.99"/><polygon class="cls-2" points="157.52 83.6 158.19 71.99 166.28 79.34 170.88 85.94 157.52 83.6"/><polygon class="cls-3" points="169.13 93.37 157.52 83.6 166.28 79.34 172.63 78.59 169.13 93.37"/><polygon class="cls-8" points="287.72 105.65 276.02 112.83 272.18 112.66 278.53 102.64 282.54 101.31 287.72 105.65"/><polygon class="cls-9" points="173.72 145.64 175.74 140.34 198.52 140.73 201.01 144.55 203.2 162.41 200.23 167.72 173.72 145.64"/><polygon class="cls-9" points="190.09 171.69 190.48 194.94 194.07 207.49 203.59 213.19 218.64 207.73 228.7 200.47 248.12 172.79 245.16 163.19 242.66 162.18 203.2 162.41 199.92 165.38 195.87 165.38 190.09 171.69"/><polygon class="cls-10" points="145.72 254.76 158.59 257.64 157.1 248.05 151.88 240.17 145.72 254.76"/><polygon class="cls-11" points="159.21 233.54 151.88 240.17 150.71 244.62 158.04 257.49 168.33 250.55 177.77 252.34 181.13 249.53 181.05 240.17 176.68 236.12 159.21 233.54"/><polygon class="cls-9" points="128.99 348.12 167.79 342.89 172.63 336.89 166.93 328.54 156.71 323.31 166.7 264.51 161.78 258.74 158.04 257.49 128.99 348.12"/><polygon class="cls-9" points="202.34 337.74 205.67 341.56 242.09 343.94 249.06 349.44 234.47 331.11 215.36 306 202.34 337.74"/><polygon class="cls-9" points="275.5 314.42 274.48 349.75 278.81 345.12 299.99 345.12 306.23 327.21 308.49 228.71 306.7 205.31 299.83 200.94 292.03 201.88 272.61 230.97 271.83 253.74 289.77 324.02 275.5 314.42"/><polygon class="cls-12" points="335.63 341.88 306.7 205.31 298.66 361.69 335.63 341.88"/><polygon class="cls-2" points="255.73 390.94 286.93 390.94 286.93 383.06 281.23 380.95 262.2 380.8 255.73 383.06 255.73 390.94"/><polygon class="cls-2" points="152.15 384.77 197.62 384.77 197.62 377.52 192.08 374.95 160.11 375.42 152.15 377.52 152.15 384.77"/><polygon class="cls-3" points="257.91 365.67 255.73 383.06 286.93 383.06 278.81 365.35 272.81 362.39 263.37 362.94 257.91 365.67"/><polygon class="cls-2" points="242.09 343.94 257.91 365.67 278.81 365.35 278.81 345.12 269.84 337.9 248.47 339.23 242.09 343.94"/><polygon class="cls-13" points="235.19 334.47 242.09 343.94 278.81 345.12 277.52 319.34 271.05 318.95 234.47 331.11 235.19 334.47"/><polygon class="cls-3" points="176.56 359.97 152.15 377.52 197.62 377.52 197.62 361.77 194.27 359.11 176.56 359.97"/><polygon class="cls-2" points="183.19 338.68 187.09 334.47 197.08 334.94 205.67 341.56 197.62 361.77 181.94 361.38 183.19 338.68"/><polygon class="cls-13" points="186.83 339.62 205.67 341.56 214.58 319.18 211.46 315.59 174.89 316.42 186.83 339.62"/><polygon class="cls-12" points="189.63 309.98 191.34 318.63 214.58 319.18 216.92 313.18 205.77 274.18 200.7 274.41 189.63 309.98"/><polygon class="cls-12" points="163.58 265.91 154.37 312.47 154.69 319.88 166.93 328.54 170.13 325.19 168.8 293.99 173.64 291.26 193.92 296.41 202.03 265.06 199.22 255.54 177.69 255.93 163.58 265.91"/><polygon class="cls-14" points="152.03 324.49 167.4 335.95 169.5 334.23 166.54 321.6 154.37 312.47 152.03 324.49"/><polygon class="cls-14" points="198.05 258.35 188.61 290.48 185.02 297.03 183.31 325.03 186.83 339.62 196.72 298.98 202.96 277.06 204.44 262.71 198.05 258.35"/><polygon class="cls-7" points="171.14 295.24 165.14 299.29 170.75 390.45 173.87 394.99 180.81 387.74 179.64 302.41 171.14 295.24"/><path class="cls-5" d="M172.08,276.83l-1.33,2.73-.08,10.22,1,1.48h10.92l1.09-1.48-.16-12.87-2.73-2.19Z"/><polygon class="cls-15" points="183.15 295.24 189.24 298.98 183.78 390.94 180.5 394.99 177.15 387.74 177.23 307.01 178.16 298.98 183.15 295.24"/><polygon class="cls-16" points="189.24 298.98 177.23 307.01 165.14 299.29 177.15 296.25 189.24 298.98"/><polygon class="cls-12" points="203.43 259.36 225.66 329.16 274.64 312.16 275.11 304.05 259.04 263.65 245.31 249.06 217.94 251.56 214.74 256.94 203.43 259.36"/><polygon class="cls-14" points="207.64 256.08 226.91 323.55 276.28 307.09 277.52 319.34 220.28 339.62 208.66 297.58 198.05 258.35 207.64 256.08"/><polygon class="cls-4" points="289.38 318.25 284.08 320.19 277.52 319.34 253.89 265.52 270.97 244.54 290.08 315.83 289.38 318.25"/><polygon class="cls-16" points="288.06 318.71 291.33 318.01 294.29 313.33 277.68 249.61 270.59 247.04 269.73 252.11 288.06 318.71"/><polygon class="cls-5" points="198.05 258.35 185.34 271.84 184.24 267.08 186.19 257.8 189.7 254.76 195.87 254.68 198.05 258.35"/><polygon class="cls-4" points="163.5 266.3 170.75 279.56 183.54 276.91 189.94 258.66 177.93 254.84 164.2 261.62 163.5 266.3"/><polygon class="cls-15" points="277.52 319.34 294.29 313.33 290.94 328.15 277.52 319.34"/><polygon class="cls-17" points="149.07 233.7 145.72 254.76 160.69 235.57 162.64 232.76 159.75 225.2 156.71 223.48 151.8 224.34 147.04 229.88 149.07 233.7"/><polygon class="cls-10" points="143.69 224.19 149.07 233.7 156.71 223.48 157.65 220.91 155.7 215.84 152.81 212.02 143.69 224.19"/><polygon class="cls-18" points="161.24 221.45 155.62 224.97 160.69 235.57 170.75 237.37 185.65 241.73 183.54 229.25 180.03 227.07 174.34 222.94 161.24 221.45"/><polygon class="cls-17" points="155.93 210.07 152.81 212.02 155.62 224.97 180.03 227.07 182.06 223.33 181.67 216.23 178.47 211.47 155.93 210.07"/><polygon class="cls-12" points="154.22 197.98 150.63 201.02 152.81 212.02 177.46 213.03 179.64 208.74 177.54 198.13 154.22 197.98"/><polygon class="cls-9" points="175.74 203.13 179.1 205.86 177.46 213.03 180.03 227.07 184.71 231.28 209.75 233.15 247.89 227.77 258.88 204.69 247.58 178.25 234.55 200.55 207.64 215.61 192.28 201.25 187.21 185.27 178.08 191.82 175.74 203.13"/><polygon class="cls-13" points="193.92 228.32 197.89 229.64 198.28 243.45 195.16 245.01 182.69 242.59 180.03 227.07 193.92 228.32"/><polygon class="cls-17" points="193.92 228.32 193.76 238.38 198.28 243.45 209.91 237.21 212.56 242.9 223.24 235.49 211.39 229.72 193.92 228.32"/><polygon class="cls-15" points="158.04 257.49 163.5 266.3 178.94 259.05 180.74 253.9 176.68 242.2 170.75 237.37 158.04 257.49"/><polygon class="cls-19" points="193.76 238.38 170.75 237.37 178.94 259.05 198.05 258.35 200.39 252.81 198.28 243.45 193.76 238.38"/><polygon class="cls-10" points="249.13 246.49 237.67 252.26 253.89 265.52 260.6 255.62 260.76 246.65 249.13 246.49"/><polygon class="cls-11" points="211.54 240.72 211.39 229.72 224.8 223.17 233.69 226.29 253.27 239.24 257.79 249.22 217.55 255.31 213.49 253.67 211.54 240.72"/><polygon class="cls-18" points="224.8 223.17 257.79 249.22 260.68 249.46 269.26 243.06 272.22 236.9 268.56 231.36 243.44 215.06 234.86 218.26 224.8 223.17"/><polygon class="cls-17" points="253.89 265.52 257.79 249.22 272.22 236.9 274.8 238.15 273 248.67 269.26 252.57 253.89 265.52"/><polygon class="cls-10" points="271.99 231.2 272.22 236.9 269.73 252.26 284.08 247.5 285.48 222.7 280.88 223.25 271.99 231.2"/><polygon class="cls-15" points="217.31 264.58 198.05 258.35 193.76 238.38 211.39 229.72 217.55 255.31 217.31 264.58"/><polygon class="cls-12" points="207.72 213.73 252.49 197.74 253.66 192.44 239.62 161.71 202.65 162.26 199.92 165.38 193.76 167.72 179.41 190.88 184.4 197.82 207.72 213.73"/><polygon class="cls-14" points="179.41 190.88 206.32 208.9 249.37 190.49 253.66 192.44 256.78 199.69 255.38 204.69 241.26 208.27 206.47 222.62 175.74 203.13 175.2 198.13 179.41 190.88"/><polygon class="cls-4" points="184.87 167.33 181.44 171.07 183.31 175.59 239.78 208.9 244.92 210.38 255.38 209.44 255.38 204.69 188.93 167.33 184.87 167.33"/><polygon class="cls-16" points="177.46 213.03 242.74 174.89 244.77 170.99 242.35 163.9 238.53 164.75 175.74 203.13 177.46 213.03"/><polygon class="cls-18" points="145.33 174.81 143.92 200.47 175.74 203.13 199.92 165.38 190.33 165.3 170.52 172.4 162.02 184.95 156.25 179.34 145.33 174.81"/><polygon class="cls-12" points="156.4 170.29 159.05 184.95 162.72 192.36 173.09 175.52 172.39 168.96 166.77 163.9 159.13 160.46 156.4 170.29"/><polygon class="cls-14" points="141.04 170.53 144.47 164.75 152.97 159.76 159.13 160.46 162.72 192.36 141.04 170.53"/><polygon class="cls-9" points="199.92 165.38 193.68 161.79 167.01 157.97 159.13 160.46 173.09 175.52 199.92 165.38"/><polygon class="cls-14" points="142.68 146.74 145.48 155.39 150.08 158.82 159.13 160.46 164.28 151.1 167.56 132.54 164.51 131.22 142.68 146.74"/><polygon class="cls-12" points="142.68 146.74 141.04 170.53 159.13 160.46 142.68 146.74"/><polygon class="cls-12" points="174.26 130.67 164.51 131.22 159.13 160.46 167.01 157.97 177.77 150.87 177.77 144.09 181.05 142.21 174.26 130.67"/><polygon class="cls-14" points="177.77 144.09 159.13 160.46 199.92 165.38 177.77 144.09"/><polygon class="cls-20" points="199.06 153.91 198.28 144.47 199.45 140.34 237.2 139.95 247.11 136.21 250.46 139.8 253.66 142.06 247.65 155.94 204.13 156.41 199.06 153.91"/><path class="cls-10" d="M250.77,152.51l-26.59.62h0L222,156.49l.16,5.85,2.26,2.65,14.12-.24,6.63-1.48,5.61-10.76Zm-41.1.93-10.61.47.86,11.47,10-.16,2.57-2.88-.08-5.85Z"/><polygon class="cls-17" points="212.4 156.49 212.48 162.34 222.15 162.34 224.41 161.4 224.26 157.19 221.99 156.49 212.4 156.49"/><polygon class="cls-21" points="268.84 129.78 264.5 139.22 253.39 140.89 249.8 137.05 254.14 123.27 261.99 112.41 269.01 117.59 268.84 129.78"/><polygon class="cls-22" points="177.19 400 177.19 400 170.75 390.45 177.15 383.06 183.78 390.94 177.19 400"/><path class="cls-11" d="M145.72,297.58l5.45,5.46,5.78-3.59,39.77-.47L203.2,303l5.46-5.46-20-7.1-3.51-1-15.21.32-4.6.93C165.68,290.71,145.72,297.58,145.72,297.58Z"/><polygon class="cls-16" points="170.67 284.63 165.29 290.71 188.61 290.48 183.62 284.63 170.67 284.63"/><polygon class="cls-18" points="209.67 153.44 209.91 165.22 224.41 164.99 224.41 161.4 213.73 161.48 213.65 157.27 224.26 157.19 224.18 153.13 209.67 153.44"/><polygon class="cls-20" points="270.01 108.82 261.99 112.41 268.84 129.78 276.02 112.83 270.01 108.82"/><polygon class="cls-21" points="246.29 79.84 242.12 86.27 240.28 118.34 244.96 123.35 254.14 123.27 258.32 114.75 264.58 82.6 246.29 79.84"/><polygon class="cls-23" points="245.29 120.76 246.29 84.35 252.89 60.72 239.19 56.29 239.44 35.99 172.55 42.93 173.55 53.95 164.95 63.22 165.7 69.74 168.71 119.26 184.49 142.23 223.49 143.23 245.29 120.76"/><polygon class="cls-8" points="259.82 86.44 255.56 112.33 258.07 117.84 261.99 112.41 266 110.57 271.26 92.2 269.34 87.94 266.17 83.77 259.82 86.44"/><polygon class="cls-3" points="269.34 68.57 258.15 72.74 246.29 84.35 250.22 84.94 269.34 87.94 272.94 83.52 269.34 68.57"/><polygon class="cls-2" points="246.21 66.81 246.29 84.35 267.5 73.24 259.24 66.06 246.21 66.81"/><polygon class="cls-8" points="286.38 90.61 282.04 93.79 271.26 92.2 269.34 87.94 267.5 73.24 274.52 71.82 284.54 76.58 287.13 84.43 286.38 90.61"/><polygon class="cls-2" points="286.38 90.61 287.72 105.65 279.03 106.32 279.28 95.79 286.38 90.61"/><polygon class="cls-3" points="296.15 81.59 286.38 90.61 282.54 79.34 291.06 77.17 296.15 81.59"/><polygon class="cls-8" points="291.98 66.39 284.8 69.99 282.54 79.34 296.15 81.59 291.98 66.39"/><polygon class="cls-2" points="274.6 57.71 276.11 68.4 282.54 79.34 291.98 66.39 285.8 61.47 274.6 57.71"/><polygon class="cls-3" points="268.43 65.14 276.11 60.63 282.54 79.34 267.5 73.24 268.43 65.14"/><polygon class="cls-8" points="295.48 50.69 287.55 49.02 276.11 60.63 291.98 66.39 295.48 50.69"/><polygon class="cls-3" points="282.29 35.74 275.52 45.68 276.11 60.63 295.48 50.69 282.29 35.74"/><polygon class="cls-3" points="274.69 15.37 267.59 19.88 257.32 30.23 254.89 40.59 258.4 53.87 268.76 50.36 275.52 45.68 282.29 35.74 274.69 15.37"/><polygon class="cls-2" points="263.25 60.63 258.4 53.87 282.29 35.74 276.11 60.63 263.25 60.63"/><polygon class="cls-8" points="249.63 59.3 246.21 66.81 267.5 73.24 276.11 60.63 258.4 53.87 249.63 59.3"/><polygon class="cls-2" points="231.18 57.21 243.12 51.78 258.4 53.87 246.71 66.81 231.18 57.21"/><polygon class="cls-8" points="237.52 42.34 231.18 57.21 258.4 53.87 256.65 47.27 242.28 39.84 237.52 42.34"/><polygon class="cls-2" points="237.44 30.48 237.52 42.34 258.4 53.87 259.99 32.15 256.82 24.8 250.8 20.38 242.87 16.12 237.44 30.48"/><polygon class="cls-5" points="248.63 12.69 244.12 20.54 259.99 32.15 274.69 15.37 257.4 10.61 248.63 12.69"/><polygon class="cls-8" points="202.28 47.35 237.52 42.34 232.85 35.74 225.16 30.48 212.3 36.33 202.28 47.35"/><polygon class="cls-3" points="196.94 34.99 202.28 47.35 224.41 35.41 216.39 25.39 200.44 22.72 196.94 34.99"/><polygon class="cls-2" points="181.49 38.33 189.84 43.76 202.28 47.35 200.44 22.72 190.34 26.31 181.49 38.33"/><polygon class="cls-8" points="176.47 45.35 202.28 47.35 185.16 37.42 177.81 39.34 176.47 45.35"/><polygon class="cls-3" points="244.12 20.54 233.69 23.89 224.41 35.41 237.52 42.34 244.12 20.54"/><polygon class="cls-2" points="244.79 2.17 229.17 3.84 233.85 17.45 244.12 20.54 257.4 10.61 244.79 2.17"/><polygon class="cls-2" points="229.17 3.84 232.01 18.12 224.41 35.41 200.44 22.72 213.97 6.18 229.17 3.84"/><polygon class="cls-5" points="204.87 7.01 215.73 0 229.17 3.84 200.44 22.72 197.94 12.86 204.87 7.01"/><polygon class="cls-2" points="182.9 8.19 204.87 7.01 200.44 22.72 189.42 14.7 182.9 8.19"/><polygon class="cls-3" points="173.22 22.55 182.9 8.19 200.44 22.72 185.16 37.42 177.89 30.4 173.22 22.55"/><polygon class="cls-5" points="158.52 32.99 173.22 22.55 185.16 37.42 176.47 45.35 163.28 43.18 158.52 32.99"/><polygon class="cls-3" points="159.02 48.86 158.52 32.99 176.47 45.35 180.56 58.29 166.62 57.96 159.02 48.86"/><polygon class="cls-2" points="159.52 63.89 159.02 48.86 171.46 50.61 180.56 58.29 165.62 69.15 159.52 63.89"/><polygon class="cls-2" points="253.39 140.89 237.11 146.74 235.6 139.97 237.94 129.87 245.29 120.76 255.56 112.33 261.99 112.41 253.39 140.89"/><path class="cls-5" d="M168.71,119.26l12.52,17.37.67-19.21,16.79-8.85,19.63,7.52L226,136.71l19.29-16-8.18,26-61.55-1.26Zm29.56-3.76-11.52,4.6-.92,18.37,14-3.84-5-6,10.6.17-5.59,5.85L221,139.22l-6.6-19.29Z"/><polygon class="cls-20" points="189.59 120.68 199.52 119.18 212.47 120.51 212.89 123.69 200.28 122.18 190.09 123.52 189.59 120.68"/><polygon class="cls-20" points="191.51 101.97 198.69 108.57 206.71 101.72 191.51 101.97"/><polygon class="cls-21" points="194.1 80.26 196.35 84.18 198.6 92.95 191.51 101.97 183.99 87.19 173.22 78.75 183.99 77.17 194.1 80.26"/><polygon class="cls-21" points="205.29 80.01 203.11 83.93 201.78 92.28 206.71 101.72 215.81 86.86 229.09 77.33 216.14 76.33 205.29 80.01"/><polygon class="cls-8" points="176.47 74.91 173.22 78.75 194.1 80.26 191.59 76 176.47 74.91"/><polygon class="cls-8" points="207.79 75.5 205.2 80.09 229.09 77.33 224.08 73.24 207.79 75.5"/><polygon class="cls-24" points="196.35 84.18 203.11 83.93 206.71 101.72 191.51 101.97 196.35 84.18"/><path class="cls-8" d="M185.24,91.2a3.55,3.55,0,1,0-3.5-3.51A3.53,3.53,0,0,0,185.24,91.2Z"/><path class="cls-8" d="M216.73,91.45a3.68,3.68,0,1,0-3.68-3.68A3.69,3.69,0,0,0,216.73,91.45Z"/><polygon class="cls-23" points="269.34 87.94 286.38 90.61 276.02 112.83 261.99 112.41 269.34 87.94"/><polygon class="cls-20" points="273.69 95.04 270.18 104.31 279.28 95.79 273.69 95.04"/><polygon class="cls-25" points="207.41 212.72 210.22 215.84 207.41 218.96 204.52 215.84 207.41 212.72"/><polygon class="cls-25" points="218.17 208.9 222.07 210.69 220.75 214.59 216.85 212.8 218.17 208.9"/><polygon class="cls-25" points="227.84 204.06 231.82 205.78 230.5 209.76 226.52 207.96 227.84 204.06"/><polygon class="cls-25" points="197.89 206.95 193.92 208.66 195.24 212.64 199.22 210.85 197.89 206.95"/><polygon class="cls-2" points="154.61 33.8 149.69 27.8 144 33.72 148.84 40.04 154.61 33.8"/><path class="cls-16" d="M144.47,78.65l-11.78.23-3.43-2.34L119,77.71l-4.68-1.87-7.8.78L109,79.9l-28.47,14,8.11,3-6.24,8.35,10.85-.71-2.5,10.38,9.59-4.45,1.72,11,7.8-9,4.44,7.18L121.85,98l7.49-.86,2.81,3.12,3.66-6.31-9.67-4.37,3.12-3.28,6.47.39.24,3.43L138.85,87l1.41.08,4.21-8.42Zm-20.12,1.48,5.22.16L127.23,82Z"/><path class="cls-1" d="M70.14,53.07l4.6-.78L80,153.37l-8.27,31.9,28.94,33.3-1.88,23.32,37.91-20.44-4.68-29,9-21.91,4.29,4.28-7.1,18.1,5.46,31.27L92.45,252.5,94.63,220,65.85,187.61,74.51,154,70.14,53.07ZM143.61,40.9l7.72,99.68,4.76-3.36L148.84,40Z"/><polygon class="cls-5" points="229.17 3.84 244.12 20.54 224.41 35.41 229.17 3.84"/><polygon class="cls-17" points="239.78 208.9 234.86 218.26 272.22 236.9 285.48 222.7 280.41 216.78 259.27 209.05 239.78 208.9"/><polygon class="cls-12" points="249.37 190.49 261.07 201.96 294.29 201.65 301.7 205.31 285.48 222.7 239.78 208.9 249.37 190.49"/><polygon class="cls-18" points="255.38 204.69 238.53 164.75 245.16 163.27 263.41 169.9 273.24 188.62 287.59 174.74 301.7 169.98 307.09 173.88 306.7 205.31 255.38 204.69"/><polygon class="cls-9" points="248.8 142.54 249.37 144.63 271.44 153.91 278.23 151.65 277.45 145.64 282.54 135.09 268.84 129.78 248.8 142.54"/><polygon class="cls-12" points="248.8 142.54 278.23 151.65 271.36 158.28 250.54 165.53 238.53 164.75 248.8 142.54"/><polygon class="cls-9" points="260.52 173.33 238.53 164.75 278.23 151.65 279.55 157.58 270.97 173.25 260.52 173.33"/><polygon class="cls-14" points="272.06 195.17 260.52 173.33 278.23 151.65 280.18 161.79 277.92 184.17 272.06 195.17"/><polygon class="cls-12" points="307.09 173.88 289.23 179.88 285.17 177.08 280.18 161.79 278.23 151.65 283.06 147.99 295.62 144.4 299.99 145.88 303.5 150.17 306.77 166.24 307.09 173.88"/><polygon class="cls-9" points="316.13 158.05 307.09 173.88 299.99 145.88 302.56 144.09 308.1 145.41 316.13 158.05"/><polygon class="cls-12" points="288.21 129.73 291.95 138.16 299.99 145.88 308.1 145.41 288.21 129.73"/><polygon class="cls-14" points="281.74 133.09 277.45 145.64 278.23 151.65 299.99 145.88 288.21 129.73 281.74 133.09"/><polygon class="cls-12" points="268.84 129.78 288.21 129.73 278.23 151.65 268.84 129.78"/><polygon class="cls-9" points="278.23 151.65 272.06 195.17 289.23 179.88 278.23 151.65"/><path class="cls-26" d="M217.16,289.54l20,12.64-10.21,21.37L255.76,314l-18.64-11.78,10.61-21.45,18.33,12.56L255.69,314,273,308.18l-19.11-42.66,26.68-5-2.89-10.92-7.95,2.65-15.84,13.26-6.16,15.21-18.64-12.32,8.58-16.15-20.12,3-19.5,3,31,10.14-11.93,21.13Zm13-99.05-7.17-4L213,192.36l17.23-1.87Zm47.74,140.94-42.73,3,42.34-15.13.39,12.09ZM152,246.8l18.79-9.43-10.06-1.8L152,246.8Zm72.84-23.63,33,26.05-8.58,1.33Zm17.94-48.28,17.78-1.56-22-8.58,4.21,10.14Zm-69.65.63,23-4.14,3.82-6-26.83,10.14Zm134-1.64-.08,9.05-34.94,12.24,17.15-15.29,17.87-6ZM144.7,186.05l18,6.31-17.39-17.55-.63,11.24Zm110.68,18.64,46.32.62-11.62,12.48Zm-79.64-1.56L150.63,201l2.18,11Zm22.47,90.7-.16-35.48,5,18.32-4.83,17.16Zm-43.84,18.64,10.77-13.18-8.19.16-2.58,13Zm6.09-30.8,4.83,9-7.09,2.58,2.26-11.62Zm23.08-4.76.08,7.72,5,5.85,9.44-32.13-12.71,13.49Z"/><polygon class="cls-8" points="159.02 48.86 176.47 45.35 180.56 58.29 159.02 48.86"/><polygon class="cls-5" points="159.02 48.86 165.62 69.15 152.67 67.06 159.02 48.86"/></svg>