<svg id="Layer_1" data-name="Layer 1" xmlns="http://www.w3.org/2000/svg" viewBox="0 0 400 400"><defs><style>.cls-1{fill:#165e60;}.cls-2{fill:#c3c3c3;}.cls-3{fill:#dcdcdb;}.cls-4{fill:#9ca0a1;}.cls-5{fill:#ebebea;}.cls-6{fill:#72cacb;}.cls-7{fill:#8bdfdb;}.cls-16,.cls-8{fill:#474747;}.cls-8{fill-opacity:0.15;}.cls-9{fill:#848585;}.cls-10{fill:#1c7678;}.cls-11{fill:#debca4;}.cls-12{fill:#c2977b;}.cls-13{fill:#5ebfd8;}.cls-14{fill:#8a6651;}.cls-15{fill:#73cee4;}.cls-17{fill:#6f7173;}.cls-18{fill:#3a9fb9;}.cls-19{fill:#318ea5;}.cls-20{fill:#27788b;}.cls-21{fill:#369395;}.cls-22{fill:#50a8a9;}.cls-23{fill:#2b2b2b;}.cls-24{fill:#4f5253;}.cls-25{fill:#e7c9b5;}</style></defs><title>sentinels_ESTJ_famous_fictional_ana_lucia_cortez_lost</title><g id="Layer_1-2" data-name="Layer_1"><polygon class="cls-1" points="229.05 208.99 240.21 261.24 234.72 264.42 229.22 261.59 223.91 229.89 223.2 217.49 229.05 208.99"/><polygon class="cls-2" points="130.93 325.7 141.91 333.32 157.32 329.25 142.79 320.21 144.03 304.98 142.44 307.64 130.93 325.7"/><polygon class="cls-3" points="158.21 329.85 150.59 328.71 138.37 322.52 144.03 304.98 139.43 299.31 145.98 289.93 149.88 297.37 158.21 329.85"/><polygon class="cls-4" points="303.96 364.31 198.41 343.77 94.44 358.64 150.59 328.71 185.83 305.69 241.97 319.15 303.96 364.31"/><polygon class="cls-2" points="303.96 364.31 193.8 339.52 94.44 358.64 155.9 373.88 176.62 373.88 223.91 373.88 303.96 364.31"/><polygon class="cls-5" points="281.47 342.53 240.03 318.09 243.39 314.9 271.02 310.83 279.35 311.53 302.01 337.57 281.47 342.53"/><polygon class="cls-3" points="289.97 337.57 281.47 342.53 292.98 342.53 302.01 337.57 289.97 337.57"/><polygon class="cls-3" points="279.35 311.53 241.97 319.15 232.94 317.02 228.51 321.99 179.85 331.83 177.15 316.32 183.53 285.32 270.49 309.06 279.35 311.53"/><polygon class="cls-5" points="244.81 287.98 254.02 289.93 276.16 304.1 279.35 311.53 189.2 305.9 230.46 285.15 244.81 287.98"/><polygon class="cls-3" points="282.18 250.08 267.83 264.6 264.12 270.45 257.74 275.05 244.81 287.98 279.35 311.53 290.33 287.63 290.86 283.37 293.69 280.01 298.3 270.09 297.76 267.79 299.71 266.9 305.56 253.97 288.02 254.5 282.18 250.08"/><path class="cls-6" d="M257.74,275.05l4.78,11.16,16.3,5,11.51-3.54,3.36-7.62-4.25-9.92-11.16-5-10.45-.53-10.09,10.45Zm10.09-6.38,10.81-.7,9.56,4.6,2.3,6.91-2.48,5-9,2.48-12.75-4.79-3.37-7.79Z"/><path class="cls-7" d="M269.78,270.8,268,277.88l11,9,6.91-4.43.35-7.26L278.64,268l-8.86,2.83Zm3.19,2.48,5.49-1.95,4.25,4.6v5.32L279.52,283l-7.26-6.2Z"/><polygon class="cls-6" points="277.22 274.34 276.16 276.47 277.75 278.95 280.58 277.88 280.05 274.87 277.22 274.34"/><polygon class="cls-6" points="277.57 293.12 275.98 295.95 278.46 299.67 282.36 298.25 281.65 293.65 277.57 293.12"/><polygon class="cls-6" points="261.99 288.33 258.09 288.51 256.5 291.52 259.51 294.71 262.88 292.23 261.99 288.33"/><polygon class="cls-6" points="257.56 281.6 255.08 279.48 251.01 281.78 252.25 284.79 255.79 285.32 257.56 281.6"/><polygon class="cls-6" points="270.31 292.05 266.77 293.65 266.77 297.01 270.85 298.78 272.79 295.06 270.31 292.05"/><polygon class="cls-6" points="278.99 262.65 280.23 259.82 278.28 256.99 274.39 258.4 275.1 262.83 278.99 262.65"/><polygon class="cls-6" points="294.4 270.27 298.3 270.09 299.71 266.9 296.88 263.72 293.34 266.19 294.4 270.27"/><polygon class="cls-6" points="286.43 264.6 289.97 262.83 289.97 259.64 285.9 257.87 283.95 261.41 286.43 264.6"/><polygon class="cls-2" points="230.64 298.25 236.31 298.78 235.95 305.34 229.93 305.34 226.75 301.62 230.64 298.25"/><polygon class="cls-8" points="225.86 322.52 241.97 319.15 303.96 364.31 225.86 322.52"/><polygon class="cls-8" points="111.45 383.35 185.3 400 260.04 385.83 185.3 370.95 111.45 383.35"/><polygon class="cls-9" points="130.04 250.43 132.17 265.13 136.42 265.66 141.2 261.59 142.09 257.34 141.91 251.85 137.48 245.83 130.04 250.43"/><polygon class="cls-10" points="136.06 290.99 132.17 265.13 142.09 257.34 145.45 260 148.11 283.91 145.98 289.93 136.06 290.99"/><polygon class="cls-11" points="120.83 210.05 137.48 245.83 140.85 244.06 147.58 235.2 145.45 212 141.73 203.14 136.42 202.26 126.15 205.62 120.83 210.05"/><polygon class="cls-12" points="136.24 180.65 120.83 210.05 141.73 203.14 144.21 198.89 142.62 186.85 136.24 180.65"/><polygon class="cls-13" points="158.2 249.19 189.2 250.61 184.59 206.33 178.57 191.46 163.52 188.98 159.8 191.28 158.2 197.65 158.2 249.19"/><polygon class="cls-11" points="175.21 141.16 185.48 153.2 208.68 146.82 205.14 159.22 192.92 182.25 180.16 180.83 176.62 177.11 172.55 162.76 175.21 141.16"/><polygon class="cls-14" points="172.73 134.6 175.21 141.16 182.64 159.22 210.27 136.37 208.86 129.29 180.34 128.23 172.73 134.6"/><polygon class="cls-15" points="164.76 177.46 159.97 185.79 159.8 191.28 184.41 193.93 185.83 196.59 191.85 184.19 194.86 168.25 175.03 164.71 164.76 177.46"/><polygon class="cls-16" points="134.82 383 176.62 383 176.62 377.33 169.54 375.03 145.63 375.56 134.82 377.33 134.82 383"/><polygon class="cls-16" points="225.86 389.2 196.81 389.2 196.81 383.35 202.66 381.05 220.19 380.87 225.86 383.35 225.86 389.2"/><polygon class="cls-17" points="155.9 361.57 134.82 377.33 176.62 377.33 176.62 361.57 173.43 359.26 160.68 359.26 155.9 361.57"/><polygon class="cls-18" points="144.39 277.35 151.76 327.94 154.13 334.74 177.33 336.15 179.85 331.83 184.14 290.1 184.24 283.37 154.66 260.88 150.41 264.07 145.81 270.27 144.39 277.35"/><polygon class="cls-17" points="225.86 383.35 223.56 365.64 219.13 361.39 207.08 361.57 203.01 365.64 196.81 383.35 225.86 383.35"/><polygon class="cls-18" points="184.14 290.1 184.24 283.37 203.01 272.22 211.34 272.75 225.33 282.13 230.29 312.95 225.86 322.52 212.75 325.17 221.78 339.34 198.76 338.28 194.45 331.37 184.14 290.1"/><polygon class="cls-19" points="151.76 327.94 179.85 331.83 176.62 361.57 155.9 361.57 151.76 327.94"/><polygon class="cls-19" points="193.86 329 225.86 322.52 223.38 366 203.01 365.64 193.86 329"/><polygon class="cls-20" points="153.24 256.28 151.47 266.19 184.14 290.1 211.34 272.75 190.79 258.93 153.24 256.28"/><polygon class="cls-21" points="144.39 277.35 154.84 261.06 153.24 256.28 144.21 253.44 142.09 257.34 144.39 277.35"/><path class="cls-1" d="M155.9,249.9l-2.66,6.38,1.42,4.6,11,.53,2.13-2.83-.18-6.55a28.4,28.4,0,0,0-2-3l-5.13-.36-4.61,1.24Zm22.32,12.4,13.1.71,2.13-5.14-4.25-7.26-3.37-.18-7.44-.53-1.59,2.66v6.37l1.42,3.37Z"/><polygon class="cls-10" points="167.77 252.56 167.94 259.11 176.8 259.46 178.39 258.4 178.39 253.44 176.8 252.56 167.77 252.56"/><polygon class="cls-21" points="165.64 249.02 165.64 261.41 178.22 262.3 178.39 258.4 169.54 258.05 169.54 253.27 178.39 253.8 178.39 249.9 165.64 249.02"/><polygon class="cls-21" points="147.75 239.81 157.14 249.55 160.51 248.66 159.8 191.28 151.12 196.94 144.03 194.29 139.25 196.41 146.16 233.96 147.75 239.81"/><polygon class="cls-22" points="143.15 187.38 136.24 180.65 151.83 151.25 175.21 141.16 160.86 164.18 175.03 164.71 159.8 191.28 153.6 191.63 143.15 187.38"/><polygon class="cls-6" points="139.25 196.41 151.12 201.9 159.8 191.28 136.24 180.65 139.25 196.41"/><polygon class="cls-22" points="182.47 205.62 185.48 250.43 189.2 250.61 198.94 245.65 202.48 237.15 202.84 233.08 186.72 206.69 182.47 205.62"/><polygon class="cls-12" points="137.48 245.83 142.09 257.34 144.21 253.44 147.58 243.17 146.16 233.96 137.48 245.83"/><polygon class="cls-11" points="160.51 248.66 146.16 233.96 142.09 257.34 154.66 260.88 160.51 248.66"/><polygon class="cls-10" points="166 166.66 166.17 164.36 172.55 162.76 175.03 164.71 184.41 193.93 183.53 198.01 179.46 198.89 174.5 192.87 166 166.66"/><polygon class="cls-21" points="234 188.62 223.2 232.72 219.66 240.69 211.69 240.51 183.53 198.01 184.41 193.93 188.49 191.1 229.05 185.26 234 188.62"/><polygon class="cls-1" points="201.24 236.97 174.5 192.87 184.41 193.93 191.15 198.01 193.09 206.69 215.76 240.69 213.46 242.64 207.08 241.4 201.24 236.97"/><polygon class="cls-21" points="192.92 259.29 191.32 263.01 231.35 290.1 231.7 286.38 213.81 250.43 192.92 259.29"/><polygon class="cls-10" points="217.89 265.31 222.49 267.96 232.76 268.5 238.97 264.6 240.21 261.41 229.22 261.59 217.89 265.31"/><polygon class="cls-1" points="212.75 255.92 218.77 265.66 223.2 268.14 228.69 268.32 231.88 266.02 223.73 252.2 216.83 252.38 212.75 255.92"/><polygon class="cls-11" points="191.32 263.01 185.83 250.43 197.7 236.44 202.3 239.27 209.03 252.2 209.03 257.16 191.32 263.01"/><polygon class="cls-12" points="215.76 240.69 197.7 236.44 209.03 257.16 223.73 252.2 223.73 249.9 219.66 243.35 215.76 240.69"/><polygon class="cls-11" points="215.76 240.69 223.73 252.2 270.31 216.6 268.37 210.94 248.53 205.09 240.56 207.57 215.76 240.69"/><polygon class="cls-12" points="233.65 190.04 240.56 207.57 270.31 216.6 253.66 162.41 243.75 163.65 236.49 173.03 232.41 183.31 233.65 190.04"/><polygon class="cls-22" points="194.86 168.25 184.41 193.93 194.33 196.06 202.13 191.99 234 188.62 194.86 168.25"/><polygon class="cls-6" points="193.09 206.69 204.25 198.01 201.42 192.34 184.41 193.93 193.09 206.69"/><polygon class="cls-16" points="201.42 192.34 193.09 206.69 216.65 201.55 215.23 196.24 206.55 191.63 201.42 192.34"/><polygon class="cls-16" points="194.86 168.25 201.42 192.34 210.45 190.57 229.58 169.67 212.75 166.31 194.86 168.25"/><polygon class="cls-16" points="233.65 190.04 234.36 178.17 226.39 171.44 221.43 178.53 215.76 194.11 216.65 201.55 233.65 190.04"/><polygon class="cls-16" points="239.5 170.2 238.97 175.87 253.66 162.41 249.24 148.06 245.7 153.91 239.5 170.2"/><polygon class="cls-23" points="234 158.16 226.39 171.44 233.65 190.04 249.77 149.66 234 158.16"/><polygon class="cls-16" points="221.61 154.26 226.39 171.44 249.77 149.66 240.38 142.93 226.21 139.92 221.61 154.26"/><polygon class="cls-23" points="208.68 146.82 194.86 168.25 226.39 171.44 223.91 162.06 215.59 148.42 208.68 146.82"/><polygon class="cls-24" points="226.75 137.61 219.84 137.97 208.68 146.82 226.39 171.44 226.75 137.61"/><polygon class="cls-23" points="234.72 130 226.75 142.4 249.77 149.66 247.47 125.57 234.72 130"/><polygon class="cls-16" points="234 113.53 222.32 135.49 226.75 142.4 247.47 125.57 234 113.53"/><polygon class="cls-23" points="234 113.53 226.75 142.4 221.96 139.92 218.07 119.9 220.37 113 227.27 110.52 234 113.53"/><polygon class="cls-16" points="215.76 116.89 223.02 113.17 226.75 142.4 208.68 146.82 206.02 139.56 215.76 116.89"/><polygon class="cls-21" points="224.62 97.41 224.26 110.16 234.18 104.14 234.72 96.52 224.62 97.41"/><polygon class="cls-10" points="234.18 104.14 234 113.53 223.02 113.17 220.9 108.75 234.18 104.14"/><polygon class="cls-23" points="241.09 92.45 228.34 100.6 227.63 92.63 235.78 88.73 241.09 92.45"/><polygon class="cls-16" points="252.07 63.76 241.09 92.45 231.88 92.45 232.59 72.79 241.62 65 252.07 63.76"/><polygon class="cls-12" points="208.68 146.82 228.34 100.6 226.21 78.81 207.79 49.24 198.41 44.98 198.23 109.1 180.34 128.23 179.1 134.43 205.84 134.07 182.64 159.22 208.68 146.82"/><polygon class="cls-11" points="203.54 58.8 200.71 112.46 179.1 134.43 156.61 134.43 136.42 112.11 130.57 75.09 129.69 41.8 148.46 25.68 199.65 32.23 203.54 58.8"/><polygon class="cls-23" points="203.54 58.8 219.48 92.98 240.03 73.32 252.07 63.76 243.04 58.09 208.86 51.54 203.54 58.8"/><polygon class="cls-24" points="194.16 38.61 203.54 58.8 227.1 45.87 240.21 27.98 224.09 24.26 194.16 38.61"/><polygon class="cls-16" points="180.87 24.09 186.54 33.12 194.16 38.61 240.21 27.98 214.35 3.01 192.56 9.03 180.87 24.09"/><polygon class="cls-24" points="152.36 32.59 157.85 12.22 175.38 0 214.35 3.01 182.47 23.55 169.18 30.11 152.36 32.59"/><polygon class="cls-16" points="141.38 12.93 175.38 0 152.36 32.59 145.45 29.93 140.49 19.3 141.38 12.93"/><polygon class="cls-24" points="141.38 12.93 152.36 32.59 143.15 33.83 131.99 32.76 130.57 30.11 141.38 12.93"/><polygon class="cls-14" points="228.34 100.6 219.48 92.98 225.68 89.79 231.88 92.45 228.34 100.6"/><polygon class="cls-11" points="219.48 92.98 231.88 92.45 240.03 73.32 224.8 70.84 219.48 92.98"/><polygon class="cls-14" points="225.68 86.25 228.16 76.51 233.3 77.4 225.68 86.25"/><polygon class="cls-6" points="152.36 169.67 175.03 164.71 175.21 141.16 152.36 169.67"/><path class="cls-8" d="M216.65,201.55,234,188.62l-5,20.37Zm1.95,64.11L191.32,263l21.61-7.09Z"/><polygon class="cls-24" points="201.42 192.34 226.39 171.44 216.65 201.55 201.42 192.34"/><polygon class="cls-16" points="240.21 27.98 203.54 58.8 252.07 63.76 240.21 27.98"/><polygon class="cls-8" points="296.52 331.37 289.26 331.19 272.62 312.95 279.35 311.53 296.52 331.37"/><polygon class="cls-2" points="240.21 299.31 246.23 299.85 246.93 305.51 240.03 305.51 240.21 299.31"/><polygon class="cls-10" points="225.86 322.52 218.42 265.31 231.88 266.02 242.68 287.98 241.97 319.15 225.86 322.52"/><polygon class="cls-1" points="241.97 319.15 248.88 310.47 249.06 283.73 243.39 282.67 240.21 288.69 241.97 319.15"/><polygon class="cls-21" points="249.06 283.73 240.21 289.4 231.88 266.02 240.21 261.41 249.06 283.73"/><polygon class="cls-12" points="153.07 111.58 157.67 116.01 170.6 116.01 176.62 111.75 163.69 109.63 153.07 111.58"/><polygon class="cls-14" points="163.52 107.5 151.3 110.16 153.07 111.58 176.27 111.93 178.93 110.34 163.52 107.5"/><polygon class="cls-14" points="156.61 97.76 162.28 95.99 167.94 98.12 162.63 103.43 156.61 97.76"/><polygon class="cls-12" points="157.32 75.45 159.8 82 160.33 89.79 156.61 97.76 149.7 82.53 135.89 73.85 142.09 70.84 157.32 75.45"/><polygon class="cls-12" points="167.24 75.27 164.58 81.82 164.05 89.79 167.94 98.12 175.56 82.53 191.15 73.5 181.58 71.55 167.24 75.27"/><polygon class="cls-25" points="159.8 82 156.61 97.76 167.94 98.12 164.58 81.82 159.8 82"/><polygon class="cls-23" points="141.38 69.96 135.89 73.85 142.44 71.91 157.32 75.45 156.08 71.91 141.38 69.96"/><polygon class="cls-23" points="169.01 72.26 167.24 75.27 183.53 72.08 191.15 73.5 182.47 69.96 169.01 72.26"/><path class="cls-23" d="M148.82,76.86a3.55,3.55,0,1,1-3.55,3.55A3.55,3.55,0,0,1,148.82,76.86Z"/><path class="cls-23" d="M175.91,76.86a3.55,3.55,0,1,1-3.54,3.55A3.55,3.55,0,0,1,175.91,76.86Z"/><polygon class="cls-16" points="152.36 32.59 182.47 23.55 186.54 33.12 181.76 37.37 152.36 32.59"/><polygon class="cls-23" points="116.76 60.39 121.01 28.87 130.75 33.83 129.69 41.8 126.5 59.51 122.43 63.58 116.76 60.39"/><polygon class="cls-24" points="123.49 78.64 126.68 74.21 130.57 75.09 123.14 91.21 123.49 78.64"/><polygon class="cls-16" points="121.01 28.87 129.69 41.8 152.36 32.59 121.01 28.87"/><polygon class="cls-16" points="116.76 60.39 123.49 78.64 130.57 75.09 126.5 59.51 116.76 60.39"/><polygon class="cls-16" points="180.34 65.35 186.54 78.81 191.15 81.29 194.33 79.88 188.13 60.92 183.53 59.86 180.34 65.35"/><polygon class="cls-23" points="182.47 23.55 194.16 38.61 188.13 60.92 180.34 65.35 182.47 23.55"/><polygon class="cls-24" points="186.54 78.81 188.84 96.88 194.33 79.88 186.54 78.81"/></g></svg>