<svg id="Layer_1" data-name="Layer 1" xmlns="http://www.w3.org/2000/svg" viewBox="0 0 400 400"><defs><style>.cls-1,.cls-14{fill:#2b2b2b;}.cls-1{fill-opacity:0.1;}.cls-2{fill:#a09160;}.cls-3{fill:#369395;}.cls-4{fill:#f4c9b2;}.cls-5{fill:#318ea5;}.cls-6{fill:#c1907d;}.cls-7{fill:#27788b;}.cls-8{fill:#fce3d4;}.cls-9{fill:#1c7678;}.cls-10{fill:#50a8a9;}.cls-11{fill:#e2d086;}.cls-12{fill:#c1b274;}.cls-13{fill:#ffefe7;}.cls-15{fill:#72cacb;}.cls-16{fill:#98796a;}</style></defs><title>sentinels_ESTJ_famous_real_laura_linney</title><g id="Layer_1-2" data-name="Layer_1"><polygon class="cls-1" points="132.47 382.57 217.16 397.46 302.77 383.86 216.23 368.15 132.47 382.57"/><polygon class="cls-2" points="174.47 151.55 174.12 159.81 181.1 162.14 197.85 158.18 199.01 151.2 191.22 128.17 186.91 128.17 174.47 151.55"/><polygon class="cls-3" points="247.98 201.22 238.44 227.05 229.84 234.96 195.52 241.59 183.31 200.75 182.96 192.38 196.45 179.12 244.61 194.59 247.98 201.22"/><polygon class="cls-4" points="149.81 197.62 143.64 209.13 144.22 215.06 163.65 228.44 165.86 222.86 160.16 201.45 154.57 196.1 149.81 197.62"/><polygon class="cls-5" points="243.91 389.21 276.37 388.04 262.64 369.31 251.71 373.97 243.91 389.21"/><polygon class="cls-5" points="232.16 369.66 243.91 389.21 246.59 369.31 240.31 351.75 232.16 369.66"/><polygon class="cls-6" points="222.28 308.94 220.88 314.29 224.84 321.97 233.1 323.83 247.64 314.41 251.47 303.7 246.59 300.22 222.28 308.94"/><polygon class="cls-5" points="147.48 385.25 175.16 386.06 171.67 375.94 161.21 370.48 147.48 385.25"/><polygon class="cls-5" points="184.24 362.22 183.31 374.2 188.89 385.25 192.03 361.4 184.24 362.22"/><polygon class="cls-7" points="180.17 355.47 175.16 376.64 175.16 386.06 192.03 361.4 185.4 350.58 180.17 355.47"/><polygon class="cls-6" points="163.65 314.06 168.53 322.32 186.91 329.06 191.22 326.04 192.85 318.94 190.4 311.5 168.42 309.17 163.65 314.06"/><polygon class="cls-8" points="185.4 350.58 175.16 386.06 161.21 370.48 169.7 351.63 175.86 348.26 185.4 350.58"/><polygon class="cls-4" points="163.65 314.06 191.22 326.04 185.4 350.58 169.7 351.63 163.65 314.06"/><polygon class="cls-8" points="250.54 348.61 240.31 351.75 243.91 389.21 262.64 369.31 259.5 351.28 250.54 348.61"/><polygon class="cls-4" points="224.84 321.97 251.47 303.7 259.5 351.28 240.31 351.75 224.84 321.97"/><polygon class="cls-9" points="167.95 243.8 144.34 311.5 188.77 317.43 190.4 311.5 172.49 247.75 167.95 243.8"/><polygon class="cls-9" points="194.94 238.45 238.44 227.05 251.47 303.7 191.22 326.04 190.4 311.5 200.18 272.18 193.31 245.66 194.94 238.45"/><polygon class="cls-10" points="185.17 195.64 179.7 201.34 169.58 231.35 167.95 243.8 173.88 252.87 196.1 273.46 210.29 281.02 185.17 195.64"/><polygon class="cls-8" points="128.87 188.31 121.54 189.94 120.26 198.55 144.22 215.06 154.57 196.1 128.87 188.31"/><polygon class="cls-8" points="106.18 155.97 121.77 172.84 117.93 182.49 103.39 186.91 97.23 164.58 106.18 155.97"/><polygon class="cls-4" points="120.26 198.55 103.39 186.91 121.77 172.84 128.87 188.31 120.26 198.55"/><polygon class="cls-8" points="129.8 162.84 128.87 188.31 117.58 184.94 125.61 161.9 129.8 162.84"/><polygon class="cls-10" points="163.07 197.97 154.57 196.1 174.12 159.81 182.26 157.48 190.63 161.09 193.89 180.86 163.07 197.97"/><polygon class="cls-10" points="196.34 172.26 187.5 180.63 189.24 184.7 196.45 183.31 247.98 201.22 253.1 195.99 257.52 159.81 254.85 150.85 242.75 151.55 196.34 172.26"/><polygon class="cls-3" points="154.57 196.1 178.19 185.28 184.7 185.98 185.17 195.64 167.95 243.8 154.57 196.1"/><polygon class="cls-8" points="182.26 157.48 187.5 180.63 206.46 172.14 218.2 162.49 227.28 147.25 202.38 158.18 195.06 153.88 182.26 157.48"/><polygon class="cls-6" points="186.45 137.47 194.13 132.24 219.83 130.26 207.97 156.09 200.18 163.65 186.45 137.47"/><polygon class="cls-4" points="216.93 111.77 200.18 123.86 195.64 136.78 213.2 135.38 200.18 163.65 217.27 155.04 225.88 149.57 240.77 124.21 220.41 43.13 214.72 50.81 216.93 111.77"/><polygon class="cls-6" points="232.51 138.29 219.25 52.91 239.72 120.14 232.51 138.29"/><polygon class="cls-11" points="148.29 119.91 141.08 169.23 174.12 159.81 174.47 151.55 153.99 119.33 148.29 119.91"/><polygon class="cls-12" points="128.75 89.55 174.12 159.81 189.01 132.82 186.91 128.17 173.65 128.98 152.01 113.16 144.92 66.63 136.89 70 128.75 89.55"/><polygon class="cls-9" points="178.19 185.28 185.17 195.64 196.45 183.31 187.5 180.63 178.19 185.28"/><polygon class="cls-12" points="264.15 81.75 254.85 150.85 206.46 172.14 264.15 81.75"/><polygon class="cls-11" points="231.35 28.71 220.41 43.13 219.25 52.91 236 125.84 264.15 81.75 238.44 27.9 231.35 28.71"/><polygon class="cls-8" points="142.01 70.7 148.29 119.91 173.07 138.52 195.64 136.78 222.39 114.56 219.25 52.91 217.62 46.97 169.7 22.89 143.64 60.7 142.01 70.7"/><polygon class="cls-6" points="156.09 39.99 142.01 70.7 175.4 33.59 174.12 25.1 156.09 39.99"/><polygon class="cls-12" points="190.05 2.54 177.72 11.14 169.7 22.89 169.93 31.15 219.25 52.91 238.44 27.9 190.05 2.54"/><polygon class="cls-11" points="139.1 30.8 190.05 2.54 128.75 89.55 139.1 30.8"/><polygon class="cls-6" points="172.02 100.02 180.28 105.14 185.17 98.16 177.26 95.71 172.02 100.02"/><polygon class="cls-4" points="163.41 103.62 161.09 109.56 169.7 101.76 163.41 103.62"/><path class="cls-4" d="M190.75,99.67l10.59,5.12s-4.19-5.24-4-5.12Z"/><polygon class="cls-4" points="210.29 105.37 206.92 108.63 210.41 112.23 210.29 105.37"/><polygon class="cls-4" points="172.72 79.43 169.12 74.77 155.97 71.17 148.64 76.05 161.55 83.03 172.02 100.02 175.16 89.2 172.72 79.43"/><polygon class="cls-4" points="180.05 88.5 179.82 78.5 182.49 71.87 195.87 66.4 205.76 69.31 193.19 79.89 184.94 98.16 180.05 88.5"/><polygon class="cls-13" points="172.72 79.43 179.82 78.5 184.94 98.16 172.02 100.02 172.72 79.43"/><path class="cls-14" d="M162,81.09a3.57,3.57,0,1,1-3.65,3.47A3.57,3.57,0,0,1,162,81.09Z"/><path class="cls-14" d="M192.8,77.92a3.57,3.57,0,1,1-3.66,3.47A3.56,3.56,0,0,1,192.8,77.92Z"/><polygon class="cls-15" points="168.19 113.63 182.61 119.79 196.8 109.91 181.91 114.09 168.19 113.63"/><polygon class="cls-10" points="177.03 111.42 168.19 113.63 181.68 115.49 196.8 109.91 185.52 110.6 181.79 112.35 177.03 111.42"/><polygon class="cls-3" points="167.95 243.8 210.29 281.02 191.22 326.04 167.95 243.8"/><polygon class="cls-16" points="155.16 70.35 148.06 76.52 155.62 72.91 169.12 74.77 166.56 71.52 155.16 70.35"/><polygon class="cls-16" points="184.35 68.26 182.49 71.87 195.99 67.56 205.76 69.31 196.1 64.89 184.35 68.26"/><polygon class="cls-8" points="278.46 216.81 274.39 162.25 254.85 150.85 247.98 201.22 254.27 222.86 258.45 226 272.88 222.51 278.46 216.81"/><polygon class="cls-4" points="257.87 266.02 254.27 222.86 278.46 216.81 273.11 262.29 266.95 270.67 257.87 266.02"/><polygon class="cls-4" points="248.33 284.86 257.87 266.02 266.95 270.67 251.59 286.61 248.33 284.86"/><polygon class="cls-8" points="256.94 287.07 257.87 266.02 273.11 262.29 277.88 280.79 266.25 291.37 256.94 287.07"/><polygon class="cls-4" points="256.59 301.85 256.94 287.07 277.88 280.79 269.74 296.96 256.59 301.85"/></g></svg>