<svg id="Layer_1" data-name="Layer 1" xmlns="http://www.w3.org/2000/svg" viewBox="0 0 400 400"><defs><style>.cls-1,.cls-20{fill:#2b2b2b;}.cls-1,.cls-10,.cls-11,.cls-12,.cls-13,.cls-14,.cls-15,.cls-16,.cls-17,.cls-18,.cls-19,.cls-2,.cls-20,.cls-21,.cls-3,.cls-4,.cls-5,.cls-6,.cls-7,.cls-8,.cls-9{fill-rule:evenodd;}.cls-1{opacity:0.1;}.cls-2{fill:#4f5353;}.cls-3{fill:#474748;}.cls-4{fill:#50a8a9;}.cls-5{fill:#cecdcc;}.cls-6{fill:#a8836c;}.cls-7{fill:#369395;}.cls-23,.cls-8{fill:#318ea5;}.cls-9{fill:#5ebfd8;}.cls-10{fill:#74cee4;}.cls-11{fill:#ebebea;}.cls-12{fill:#1d7678;}.cls-13{fill:#6f7273;}.cls-14{fill:#d0ae95;}.cls-15{fill:#eed2c1;}.cls-16{fill:#185e60;}.cls-17{fill:#a2a1a1;}.cls-18{fill:#f6e5db;}.cls-19{fill:#848585;}.cls-21,.cls-24{fill:#3a9fb9;}.cls-22{fill:#fff;}</style></defs><title>sentinels_ESTJ_famous_real_lyndon_b_johnson</title><polygon class="cls-1" points="106.05 396.48 151.59 376.69 286.43 377.3 242.85 399.65 106.05 396.48"/><polygon class="cls-2" points="263.7 376.21 253.49 380.08 236.84 380.27 229.08 376.21 233.37 362.05 244.55 357.22 258.31 361.04 263.7 376.21"/><polygon class="cls-3" points="233.55 285.95 219.01 355.81 227.28 361.54 258.31 361.04 268.35 277.25 264.82 275 233.55 285.95"/><polygon class="cls-4" points="136.32 187.08 160.65 153.37 164.01 163.8 160.11 206.7 148.71 216.33 137.53 200.28 136.32 187.08"/><polygon class="cls-5" points="187.34 170.36 187.34 194.76 200.15 175.42 199.2 167.13 190.66 162.53 187.34 170.36"/><polygon class="cls-5" points="203.95 166.67 202.53 175.42 209.64 192.46 221.03 173.58 215.81 162.53 203.95 166.67"/><polygon class="cls-6" points="182.52 130.09 188.32 138.42 189.08 143.85 200.01 161.97 233.86 142.1 237.01 123.72 226.07 128.56 183.04 127.2 182.52 130.09"/><polygon class="cls-7" points="276.72 160.4 281.81 156.38 303.78 234.24 260.08 223.77 276.72 160.4"/><polygon class="cls-7" points="160.65 153.37 156.87 206.54 157.01 260.82 160.83 264.75 188.77 264.75 193.99 215.48 190.66 211.8 175.96 173.12 185.45 142.27 160.65 153.37"/><path class="cls-4" d="M247.35,143.67l34.46,12.71L268.9,212.14l-4.41,13.29L233.64,256.1l-18.3-4.67L202,263.3l-13.18,1.45,1.89-52.95,46.5-41,10.19-27.15Zm7,132.36L260.8,280l7.55-2.72.2-23.62-6-2.24-8,5.73Z"/><polygon class="cls-3" points="229.08 383.05 263.7 383.13 263.7 376.21 229.08 376.21 229.08 383.05"/><polygon class="cls-8" points="211.96 390.8 209.1 384.17 210 287.2 239.06 282.7 238.51 383.05 211.96 390.8"/><polygon class="cls-9" points="124.96 388.26 211.96 390.8 215.82 286.3 132.31 286.39 128.04 289.61 124.96 388.26"/><polygon class="cls-8" points="224.82 268.43 230.52 261.06 239.92 264.39 257.56 259.68 260.8 279.97 226.72 292.37 221.03 279.48 224.82 268.43"/><polygon class="cls-10" points="151.76 261.98 111.43 269.35 124.24 272.57 210.12 273.03 200.92 260.42 151.76 261.98"/><polygon class="cls-11" points="252.82 249.55 239.78 244.63 231.47 253.23 239.92 264.39 257.56 259.68 252.82 249.55"/><polygon class="cls-12" points="303.78 234.24 257.56 259.68 239.78 244.63 268.9 212.14 303.78 234.24"/><polygon class="cls-13" points="155.96 223.28 152.71 264.75 158.4 264.75 160.1 223.56 158.4 221.46 155.96 223.28"/><polygon class="cls-12" points="188.91 260.8 183.99 255.56 189.28 250.39 194.46 256.23 188.91 260.8"/><polygon class="cls-12" points="189.87 233.99 184.95 228.75 190.24 223.58 195.42 229.41 189.87 233.99"/><polygon class="cls-12" points="129.32 169.8 148.71 216.33 115.29 228.09 109.19 179.99 117.8 169.4 129.32 169.8"/><polygon class="cls-11" points="109.19 179.99 129.32 169.8 125.33 159.9 115.29 158.44 107.26 164.77 109.19 179.99"/><polygon class="cls-14" points="96.22 147.72 107.26 164.77 116.3 162.33 121.14 141.98 120.12 138.48 108.27 139.44 96.22 147.72"/><polygon class="cls-15" points="96.22 127.26 96.22 147.72 120.12 138.48 114.06 117.57 96.22 127.26"/><polygon class="cls-15" points="126.84 134.08 112.78 153.56 116.3 162.33 125.33 159.9 131.86 136.03 126.84 134.08"/><polygon class="cls-12" points="221.69 190.56 246.65 190.16 245.23 182.79 227.19 183.22 221.69 190.56"/><polygon class="cls-12" points="197.78 172.66 187.34 194.76 190.66 211.8 209.64 192.46 204.42 172.66 201.58 170.36 197.78 172.66"/><polygon class="cls-16" points="201.1 156.54 190.66 162.53 197.78 172.66 204.42 172.66 215.81 162.53 201.1 156.54"/><polygon class="cls-11" points="185.45 142.27 188.32 138.42 201.1 156.54 187.34 170.36 185.45 142.27"/><polygon class="cls-14" points="243.33 134.44 233.86 142.1 208.29 131.46 209.29 126.71 223.96 116.54 224.91 71.11 228.02 62.37 234.38 56.3 250.61 59.67 255.02 93.64 243.33 134.44"/><polygon class="cls-11" points="221.03 173.58 201.1 156.54 243.33 134.44 247.35 143.67 221.03 173.58"/><polygon class="cls-7" points="243.8 175.42 247.35 143.67 219.34 172.13 190.66 211.8 243.8 175.42"/><polygon class="cls-4" points="168.37 172.66 190.66 211.8 188.69 169.01 185.45 142.27 168.37 172.66"/><polygon class="cls-17" points="262.8 40.35 264.3 61.22 228.02 62.53 225.44 55.79 225.44 48.47 241.75 40.47 262.8 40.35"/><polygon class="cls-6" points="241.38 85.63 255.02 93.64 257.33 85.56 252.84 80.68 241.38 85.63"/><polygon class="cls-5" points="225.44 48.47 262.8 40.35 261.46 26.43 241.22 24.12 229.65 30.76 225.44 35.36 225.44 48.47"/><polygon class="cls-17" points="208.07 10.84 222.8 31.78 228.93 31.54 261.46 26.43 229.6 0.66 207.54 3.69 208.07 10.84"/><polygon class="cls-5" points="169.12 4.71 169.12 7.78 182.81 19.02 209.48 5.47 229.6 0.66 194.58 0.35 169.12 4.71"/><polygon class="cls-15" points="156.74 128.72 148.88 115.86 147.13 25.14 169.12 4.71 183.86 11.86 209.48 5.47 228.93 31.54 226.34 119.54 208.29 131.46 182.52 130.09 156.74 128.72"/><polygon class="cls-6" points="171.28 101.98 192.4 100.35 195.91 96.49 198.4 95.99 199.91 96.64 194.51 103.53 171.54 105.02 171.28 101.98"/><polygon class="cls-15" points="245.47 61.9 241.38 85.63 257.33 85.56 264.3 61.22 245.47 61.9"/><polygon class="cls-6" points="251.56 66.94 249.05 78.64 257.77 66.62 251.56 66.94"/><polygon class="cls-14" points="154.84 61.06 157.08 57.26 164.97 57.27 173.53 60.07 178.26 68.57 178.86 77.23 173.39 90.47 165.49 68.5 154.84 61.06"/><polygon class="cls-14" points="188.56 58.95 185.33 68.23 182.45 75.64 189.7 90.98 199.7 65.95 209.63 55.53 202.63 52.12 188.56 58.95"/><polygon class="cls-14" points="162.37 102.5 171.56 97.02 173.39 90.47 162.37 102.5"/><polygon class="cls-14" points="189.7 90.98 195.91 96.49 210.75 97.03 189.7 90.98"/><polygon class="cls-6" points="181.02 96.34 173.39 90.47 180.75 88.93 189.7 90.98 181.02 96.34"/><polygon class="cls-18" points="185.33 68.23 189.7 90.98 173.39 90.47 178.26 68.57 185.33 68.23"/><polygon class="cls-19" points="157.27 54.78 152.33 59.31 154.84 61.06 158.03 58.88 173.53 60.07 172.91 55.59 157.27 54.78"/><polygon class="cls-19" points="187.85 54.15 188.56 58.95 203.43 54.04 209.63 55.53 209.96 52.84 202.02 49.93 187.85 54.15"/><path class="cls-20" d="M167.36,72.63a3.28,3.28,0,1,0-3.31-3.28A3.3,3.3,0,0,0,167.36,72.63Z"/><path class="cls-20" d="M196.39,71.57a3.6,3.6,0,1,0-3.64-3.6A3.62,3.62,0,0,0,196.39,71.57Z"/><polygon class="cls-3" points="148.71 216.33 152.87 225.28 163.69 225.59 169.74 216.63 159.82 210.87 148.71 216.33"/><polygon class="cls-13" points="154.78 206.44 148.71 216.33 169.74 216.63 164.88 206.94 154.78 206.44"/><polygon class="cls-21" points="111.43 269.35 112.75 289.86 226.72 292.37 224.82 268.43 215.34 261.52 203.86 268.6 111.43 269.35"/><polygon class="cls-14" points="239.92 264.39 231.47 253.23 214.65 245.11 215.34 261.52 224.82 268.43 239.92 264.39"/><polygon class="cls-15" points="214.65 245.11 224.82 268.43 203.86 268.6 196.79 260.55 214.65 245.11"/><polygon class="cls-14" points="156.14 40.52 178.74 42.23 202.05 35.37 210.88 38.46 199.58 37.77 177.68 44.97 156.14 40.52"/><polygon class="cls-14" points="161.08 35.37 178.04 37.77 197.11 30.57 176.98 35.03 161.08 35.37"/><polygon class="cls-14" points="181.74 119.52 182.52 130.09 178.36 124.64 181.74 119.52"/><polygon class="cls-14" points="180.89 50.8 181.6 59.53 188.54 58.8 183.78 56.96 180.89 50.8"/><polygon class="cls-21" points="170.69 360.26 162.34 354.13 166.63 348 174.16 347.62 178.18 354.01 170.69 360.26"/><polygon class="cls-8" points="146.52 311.98 155.41 315.42 161.68 323.47 159.18 325.77 161.29 330.37 163.66 330.37 169.62 322.38 168.5 321.56 168.62 319.26 170.66 318.11 175.29 320.02 174.77 322.32 178.27 330.37 180.67 329.99 183.66 325.77 181.03 323.47 186.59 315.81 197.55 310.44 190.92 323.09 190.1 330.75 177.87 341.56 181.79 344.94 182.52 346.08 181.27 347.23 174.73 344.33 174.59 348.24 170.88 350.37 166.63 348 167.1 344.9 167.1 344.9 160.36 347.23 159.24 346.08 160.09 344.94 163.84 341.99 152.52 331.9 151.47 322.32 146.52 311.98"/><path class="cls-21" d="M184.76,308.14a1.89,1.89,0,0,0-1.88,1.73,1.64,1.64,0,0,0,1.68,1.72,1.88,1.88,0,0,0,1.88-1.72,1.64,1.64,0,0,0-1.68-1.73Zm-12-6.61a2.59,2.59,0,0,1,2.66,2.73,3,3,0,0,1-3,2.73,2.59,2.59,0,0,1-2.66-2.73,3,3,0,0,1,3-2.73Zm-7.14,3.35a2.09,2.09,0,0,1,2.14,2.21,2.39,2.39,0,0,1-2.39,2.2,2.1,2.1,0,0,1-2.15-2.2,2.4,2.4,0,0,1,2.4-2.21ZM160,308.14a1.64,1.64,0,0,1,1.68,1.73,1.87,1.87,0,0,1-1.87,1.72,1.64,1.64,0,0,1-1.68-1.72,1.87,1.87,0,0,1,1.87-1.73Zm19.54-3.26a2.4,2.4,0,0,0-2.4,2.21,2.1,2.1,0,0,0,2.15,2.2,2.4,2.4,0,0,0,2.4-2.2A2.11,2.11,0,0,0,179.51,304.88Z"/><polygon class="cls-21" points="166.13 321.56 166.61 320.02 168.62 319.26 168.5 321.56 166.13 321.56"/><polygon class="cls-21" points="152.33 349.53 154.26 349.91 156.78 347.62 160.36 347.23 160.09 344.94 156.1 345.7 152.33 349.53"/><polygon class="cls-21" points="147.4 338.8 147.8 345.7 153.27 346.85 152.75 341.87 147.4 338.8"/><polygon class="cls-21" points="163 328.07 166.79 329.78 171.29 328.07 175.29 329.56 179.33 328.02 178.81 340.73 170.82 347.79 162.74 341.01 163 328.07"/><path class="cls-9" d="M176.45,342.81,174,345l.33-11.29h2.37l-.21,9.09Zm-5.63,5-1.76-1.48.7-12.59h2.37l-.2,13.09-1.11,1ZM167,344.58l-2.27-1.9.5-9h2.37Z"/><polygon class="cls-21" points="189.04 349.53 186.86 349.69 184.8 347.62 181.27 347.23 181.79 344.94 185.7 345.7 189.04 349.53"/><polygon class="cls-21" points="195.17 338.8 193.99 345.7 188.4 346.85 189.47 341.87 195.17 338.8"/><polygon class="cls-22" points="226.43 203.83 224.32 207.56 224.23 209.07 225.78 209.72 224.25 210.82 224.25 212.5 241.06 213.11 241.09 211.43 240.4 210.41 241.11 209.92 241.14 208.09 240.48 207.54 241.16 206.52 241.19 204.92 240.73 203.98 241.23 203.61 241.23 202.14 231.6 202.07 226.43 203.83"/><polygon class="cls-23" points="231.6 207.82 224.32 207.56 224.4 202.01 231.6 202.07 231.6 207.82"/><polygon class="cls-24" points="241.11 209.92 224.23 209.07 224.25 210.82 241.09 211.43 241.11 209.92"/><polygon class="cls-24" points="231.6 206.26 241.16 206.52 241.14 208.09 231.6 207.82 231.6 206.26"/><polygon class="cls-24" points="231.6 204.65 241.19 204.92 241.23 203.61 231.6 203.32 231.6 204.65"/></svg>