<svg id="Layer_1" data-name="Layer 1" xmlns="http://www.w3.org/2000/svg" viewBox="0 0 400 400"><defs><style>.cls-1{fill:#33231b;fill-opacity:0.15;}.cls-2{fill:#369395;}.cls-3{fill:#1c7678;}.cls-4{fill:#474747;}.cls-5{fill:#4f5253;}.cls-6{fill:#165e60;}.cls-7{fill:#318ea5;}.cls-8{fill:#27788b;}.cls-9{fill:#f4c9b2;}.cls-10{fill:#c1907d;}.cls-11{fill:#3a9fb9;}.cls-12{fill:#5ebfd8;}.cls-13{fill:#ebebea;}.cls-14{fill:#cdcdcc;}.cls-15{fill:#50a8a9;}.cls-16{fill:#fce3d4;}.cls-17{fill:#fff;}.cls-18{fill:#ffefe7;}.cls-19{fill:#51362a;}.cls-20{fill:#2b2b2b;}.cls-21{fill:#6f7173;}.cls-22{fill:#66483a;}.cls-23{fill:#82624d;}</style></defs><title>sentinels_ESTJ_famous_fictional_dwight_schrute_the_office</title><g id="Layer_1-2" data-name="Layer_1"><polygon class="cls-1" points="117.81 382.24 205.91 363.62 283.69 383 195.09 398.61 117.81 382.24"/><polygon class="cls-2" points="137.7 288.86 144.25 331.65 149.03 361.85 160.86 365.88 164.38 361.6 167.4 309.75 163.12 296.41 156.33 290.62 137.7 288.86"/><polygon class="cls-3" points="243.68 287.85 235.62 283.57 220.52 288.1 216.24 295.9 214.73 306.48 234.61 366.38 240.4 369.66 250.97 366.89 247.7 329.13 243.68 287.85"/><polygon class="cls-3" points="176.21 295.4 163.12 296.41 160.86 365.88 172.19 361.6 189.3 310.25 176.21 295.4"/><polygon class="cls-2" points="208.18 294.14 189.3 310.25 227.81 366.38 240.4 369.66 216.24 295.9 208.18 294.14"/><polygon class="cls-4" points="130.9 375.45 149.03 361.85 172.19 361.6 172.69 375.19 169.16 376.2 136.19 376.45 130.9 375.45"/><polygon class="cls-4" points="224.54 380.23 227.81 366.38 250.97 366.89 257.01 380.23 250.97 381.74 229.58 381.74 224.54 380.23"/><polygon class="cls-5" points="172.69 375.19 172.69 381.74 130.9 381.74 130.9 375.45 172.69 375.19"/><polygon class="cls-5" points="224.54 388.28 257.01 388.28 257.01 380.23 224.54 380.23 224.54 388.28"/><polygon class="cls-6" points="137.7 288.86 189.3 310.25 243.68 287.85 178.98 282.81 137.7 288.86"/><polygon class="cls-7" points="139.46 172.06 150.03 221.9 116.31 224.92 139.46 172.06"/><polygon class="cls-8" points="163.63 162.49 139.46 172.06 138.71 219.13 177.22 210.57 162.87 184.39 163.63 162.49"/><polygon class="cls-7" points="213.72 188.92 177.22 210.57 196.85 227.44 249.21 180.11 253.24 171.56 228.57 161.24 213.72 188.92"/><polygon class="cls-9" points="200.63 219.63 200.13 210.57 193.83 203.02 187.54 203.52 177.22 210.57 186.28 216.86 200.63 219.63"/><polygon class="cls-10" points="210.95 210.07 193.83 203.02 200.63 219.63 206.67 217.87 210.95 210.07"/><polygon class="cls-8" points="138.2 254.37 137.7 288.86 178.98 288.35 181.75 283.82 181.5 249.84 179.74 236.5 157.84 240.27 138.2 254.37"/><polygon class="cls-7" points="178.98 238.26 178.98 288.35 243.68 287.85 247.95 227.69 211.71 251.35 178.98 238.26"/><polygon class="cls-6" points="172.69 255.13 178.98 261.17 185.02 255.13 178.98 248.33 172.69 255.13"/><polygon class="cls-11" points="134.18 237.5 138.2 254.37 178.98 238.26 162.87 222.4 138.71 215.61 134.18 237.5"/><polygon class="cls-12" points="178.98 238.26 163.38 229.45 164.38 216.36 169.67 207.81 200.63 219.63 196.85 227.44 178.98 238.26"/><polygon class="cls-8" points="270.1 216.11 241.16 236.5 207.93 229.7 200.63 219.63 253.24 171.56 270.1 216.11"/><polygon class="cls-12" points="116.31 224.92 138.71 215.61 138.2 254.37 116.31 224.92"/><polygon class="cls-11" points="200.63 219.63 178.98 238.26 211.96 257.14 241.16 236.5 200.63 219.63"/><polygon class="cls-9" points="157.59 226.18 162.87 215.61 163.12 205.29 138.71 215.61 157.59 226.18"/><polygon class="cls-13" points="169.67 207.81 163.38 229.45 157.59 226.18 163.12 205.29 169.67 207.81"/><polygon class="cls-13" points="185.28 167.03 179.74 158.22 169.92 156.45 163.63 162.49 166.65 176.59 174.7 181.88 181.75 175.58 185.28 167.03"/><polygon class="cls-13" points="198.11 183.64 188.04 175.08 185.28 167.03 197.36 157.96 223.28 154.69 228.57 161.24 210.7 178.86 198.11 183.64"/><polygon class="cls-14" points="171.18 188.42 174.7 181.88 178.48 176.59 185.28 178.86 192.83 176.59 198.11 183.64 192.83 195.97 184.77 184.9 173.44 196.73 171.18 188.42"/><polygon class="cls-15" points="173.44 196.73 182 180.87 185.28 178.86 187.79 181.37 192.83 195.97 177.22 210.57 173.44 196.73"/><polygon class="cls-2" points="178.48 176.59 182 180.87 187.79 181.37 192.83 176.59 185.28 167.03 178.48 176.59"/><polygon class="cls-7" points="157.84 185.15 177.22 210.57 174.7 181.88 163.63 162.49 157.84 185.15"/><polygon class="cls-8" points="228.57 161.24 198.11 183.64 177.22 210.57 219.26 191.19 228.57 161.24"/><polygon class="cls-10" points="160.35 140.09 169.92 156.45 185.02 167.28 211.45 158.72 217.75 150.16 214.73 133.8 164.63 136.57 160.35 140.09"/><polygon class="cls-9" points="202.39 161.8 223.28 154.69 238.39 119.95 230.84 74.39 216.99 68.35 196.01 140.24 210.95 140.24 202.39 161.8"/><polygon class="cls-16" points="150.92 140.24 196.01 140.24 213.47 113.16 217.39 74.72 220.77 60.55 204.4 30.09 170.93 17.25 137.95 33.87 126.37 74.39 126.88 76.16 129.9 80.94 127.51 89.5 127.61 93.92 128.26 119.2 150.92 140.24"/><polygon class="cls-10" points="151.8 99.31 160.35 104.35 167.91 98.31 159.35 95.79 151.8 99.31"/><polygon class="cls-9" points="127.51 89.5 132.92 82.45 147.27 81.94 152.8 89.5 156.83 80.69 154.56 76.91 126.88 76.16 127.51 89.5"/><polygon class="cls-9" points="163.88 76.41 160.86 80.69 166.14 89.25 174.7 81.44 196.85 81.69 198.36 88.99 205.41 72.63 163.88 76.41"/><polygon class="cls-9" points="149.03 106.36 147.77 116.18 145.5 111.39 149.03 106.36"/><polygon class="cls-9" points="178.48 100.57 187.29 109.89 186.78 103.84 178.48 100.57"/><polygon class="cls-10" points="148.27 112.15 162.37 119.2 184.02 106.36 148.27 112.15"/><polygon class="cls-17" points="154.31 113.16 174.95 109.63 161.87 116.68 154.31 113.16"/><path class="cls-5" d="M117.56,74.9l35.24-1.76,1.77,3.77h0l-32.22,1.26,2,11.58,28.44-.25,1.26,1.76-1.76,2.26L121.09,94,117.56,74.9Zm91.13-4.28.75,4.28-2.52,2-4.78,15.86-35.24.75-2-2.26,1.25-2L198.36,89l4.28-14.09-38.76,1.51,1.76-3.78Z"/><polygon class="cls-18" points="154.56 76.91 151.8 99.31 167.91 98.31 163.88 76.41 154.56 76.91"/><polygon class="cls-19" points="137.45 66.09 133.17 68.1 152.8 73.14 151.29 69.61 137.45 66.09"/><polygon class="cls-19" points="167.4 68.35 165.64 72.63 188.55 66.09 183.01 64.07 167.4 68.35"/><path class="cls-20" d="M143.49,86a3.84,3.84,0,0,0,3.78-3.52,3.9,3.9,0,0,0-4-3.53c-2,.26-3.78,1.77-3.53,3.78A3.64,3.64,0,0,0,143.49,86Z"/><polygon class="cls-19" points="224.54 108.88 218.75 108.12 226.05 84.71 234.86 82.95 233.35 92.27 224.54 108.88"/><polygon class="cls-19" points="264.31 68.6 251.22 90.5 233.1 87.73 217.39 74.72 229.07 70.11 253.99 65.33 264.31 68.6"/><polygon class="cls-21" points="233.1 87.48 206.92 76.91 208.69 70.62 234.86 82.95 236.12 86.48 233.1 87.48"/><polygon class="cls-10" points="238.39 119.95 224.54 108.88 232.35 108.38 241.66 112.91 238.39 119.95"/><polygon class="cls-16" points="241.66 112.91 224.54 108.88 234.86 82.95 251.22 90.5 241.66 112.91"/><polygon class="cls-10" points="238.39 90.75 244.43 93.27 233.86 102.33 238.39 90.75"/><polygon class="cls-22" points="235.37 19.27 209.19 21.28 230.58 66.09 242.67 72.38 264.31 68.6 235.37 19.27"/><polygon class="cls-23" points="199.62 35.13 209.44 20.78 220.01 26.06 242.67 72.38 217.39 74.72 199.62 35.13"/><polygon class="cls-22" points="169.16 22.54 185.53 31.1 199.62 35.13 220.01 26.06 199.37 8.19 178.23 7.69 167.91 15.99 169.16 22.54"/><polygon class="cls-23" points="195.34 1.4 178.23 7.69 220.01 26.06 235.37 19.27 195.34 1.4"/><polygon class="cls-22" points="130.15 24.05 160.61 19.77 178.23 7.69 164.89 2.4 130.15 24.05"/><polygon class="cls-23" points="132.92 31.35 130.15 24.05 178.23 7.69 169.16 22.54 151.04 33.87 138.96 38.15 132.92 31.35"/><polygon class="cls-22" points="130.15 24.05 138.96 38.15 126.37 74.39 117.56 59.54 130.15 24.05"/><polygon class="cls-23" points="141.73 56.77 135.18 59.8 138.96 38.15 143.74 37.64 145 39.91 141.73 56.77"/><polygon class="cls-22" points="169.16 22.54 145 39.91 138.96 38.15 169.16 22.54"/><polygon class="cls-22" points="193.08 40.16 194.34 36.38 199.62 35.13 207.43 58.53 198.62 55.52 193.08 40.16"/><polygon class="cls-23" points="169.16 22.54 193.08 40.16 199.62 35.13 169.16 22.54"/><path class="cls-20" d="M178.48,85a3.84,3.84,0,0,0,3.77-3.53,4.06,4.06,0,0,0-4-3.52c-2,.25-3.78,1.76-3.53,3.77A3.63,3.63,0,0,0,178.48,85Z"/></g></svg>