<svg id="Layer_1" data-name="Layer 1" xmlns="http://www.w3.org/2000/svg" viewBox="0 0 400 400"><defs><style>.cls-1,.cls-21{fill:#2b2b2b;}.cls-1{fill-opacity:0.1;}.cls-2{fill:#6f7173;}.cls-3{fill:#474747;}.cls-4{fill:#4f5253;}.cls-5{fill:#c1907d;}.cls-6{fill:#5ebfd8;}.cls-7{fill:#3a9fb9;}.cls-8{fill:#27788b;}.cls-9{fill:#318ea5;}.cls-10{fill:#f4c9b2;}.cls-11{fill:#1c7678;}.cls-12{fill:#165e60;}.cls-13{fill:#73cee4;}.cls-14{fill:#369395;}.cls-15{fill:#72cacb;}.cls-16{fill:#cdcdcc;}.cls-17{fill:#ebebea;}.cls-18{fill:#fce3d4;}.cls-19{fill:#8bdfdb;}.cls-20{fill:#ffefe7;}.cls-22{fill:#fff;}</style></defs><title>sentinels_ESTJ_famous_real_frank_sinatra</title><g id="Layer_1-2" data-name="Layer_1"><polygon class="cls-1" points="63.79 373.57 166.85 350.38 273.16 374.01 168.48 399.85 63.79 373.57"/><polygon class="cls-2" points="212.18 383.17 212.03 378.44 220.6 377.11 233.59 375.93 241.42 365.45 246.88 364.12 249.24 368.69 238.32 382.72 212.18 383.17"/><polygon class="cls-3" points="223.85 355.41 221.04 369.73 222.07 374.45 236.69 378.14 246.88 364.12 239.94 349.5 231.82 343 225.18 348.47 223.85 355.41"/><polygon class="cls-4" points="221.04 369.73 236.69 378.14 212.03 378.44 221.04 369.73"/><polygon class="cls-2" points="92.88 371.2 92.88 366.92 98.19 365.15 129.2 364.56 134.37 366.92 134.51 371.5 92.88 371.2"/><polygon class="cls-3" points="117.83 347.58 92.88 366.92 134.37 366.92 134.22 349.94 132 346.55 122.7 344.92 117.83 347.58"/><polygon class="cls-5" points="169.07 153.86 164.49 157.25 167.15 162.27 167.15 169.66 176.3 187.67 181.91 187.67 195.79 175.27 196.82 165.38 182.5 153.12 169.07 153.86"/><polygon class="cls-6" points="147.21 14.62 140.27 36.77 147.06 37.8 166.41 25.99 168.03 8.71 163.16 0.15 147.21 14.62"/><polygon class="cls-7" points="222.96 16.1 163.16 0.15 159.47 24.22 162.42 28.65 212.77 42.67 227.09 42.23 222.96 16.1"/><polygon class="cls-8" points="271.39 78.7 259.43 51.68 243.04 55.23 226.06 66.59 227.09 78.55 234.03 92.88 271.39 78.7"/><polygon class="cls-8" points="93.91 74.27 109.27 92.43 130.97 93.76 135.4 89.78 135.99 62.16 129.2 56.85 93.91 74.27"/><polygon class="cls-9" points="93.91 74.27 131.27 70.43 134.22 56.55 132.45 50.94 125.06 45.77 93.91 74.27"/><polygon class="cls-10" points="201.99 122.41 176.45 153.41 196.38 170.4 201.85 169.66 210.85 161.68 213.22 154.45 230.64 121.08 228.42 109.41 206.13 72.35 200.81 78.55 201.99 122.41"/><polygon class="cls-9" points="116.65 175.27 96.42 178.07 83.13 169.36 105.72 160.8 116.65 175.27"/><polygon class="cls-10" points="282.61 155.78 277.89 154.6 270.95 159.03 279.36 179.85 284.83 178.66 284.98 174.38 288.07 162.87 282.61 155.78"/><polygon class="cls-5" points="279.36 179.85 286.3 185.31 296.94 183.68 304.02 174.82 293.54 171.58 284.98 174.38 279.36 179.85"/><polygon class="cls-11" points="107.79 303.43 132.89 314.8 141.6 315.54 174.09 309.93 173.94 303.43 146.33 270.21 138.8 271.5 101.88 296.35 107.79 303.43"/><polygon class="cls-12" points="101.88 296.35 141.6 315.54 134.22 349.94 117.83 347.58 101.88 296.35"/><polygon class="cls-13" points="83.13 169.36 95.09 131.86 114.14 129.35 115.91 133.48 107.79 162.72 104.54 165.23 83.13 169.36"/><path class="cls-9" d="M92.88,138.8l1.47-4.28,6.5-1.19-1.18,4.29Zm14,17.72.15,2.95-1.33,1.33-8.27,1.47L98.63,158Zm2.22-8.27.44,3.1-1.62,1.18L99.67,154l1-4.28Zm2.21-8.27.59,3-1.77,1.33-8.41,1.33,1.18-4.13Zm2.22-8.42.88,3.69-2.06.59L104,137.32l1.18-4.28ZM90.22,147.21l1.33-4.28,7.08-1.33-1.18,4.28Zm-2.66,8.42,1.33-4.28L96.42,150l-1.18,4.28ZM84.9,163.9l1.33-4.28,8-1.33-1,4.28Z"/><polygon class="cls-7" points="114.14 129.35 128.9 140.13 116.65 175.27 104.54 165.23 114.14 129.35"/><path class="cls-8" d="M127.87,143.08l-1.48,4.13-4.87-4.28,1.18-4.13Zm-2.8,8-1.48,4.14-4.58-4,1.33-4.28Zm-2.81,8-1.48,4-4.13-3.54,1.18-4.28Zm-2.81,8-1.32,4-3.84-3.25,1.18-4.28Zm-13.73-6.2,1-4.14.14-.14,5,4.42-1.18,4.29Zm3.4-12.55-1.18,4.28L113.1,157l1.19-4.28Zm2.21-8.27-1.18,4.13,5.46,4.58,1.19-4.13Zm2.22-8.42-1,4.14,5.47,4.87,1.18-4.28Z"/><polygon class="cls-14" points="142.93 172.17 161.39 169.21 158.44 203.32 172.46 244.81 166.11 248.06 144.41 237.28 140.72 228.87 138.8 203.62 142.93 172.17"/><polygon class="cls-15" points="172.46 244.81 176.89 255.15 174.68 277.15 169.07 283.79 139.39 266.22 140.72 229.01 172.46 244.81"/><polygon class="cls-11" points="172.46 244.81 208.64 208.34 216.31 165.38 239.2 172.61 242.3 185.31 240.09 216.61 234.62 227.24 218.97 237.28 187.52 244.96 172.46 244.81"/><polygon class="cls-14" points="234.62 227.24 230.93 272.28 225.77 277.15 175.41 287.19 169.07 283.79 172.46 244.81 234.62 227.24"/><polygon class="cls-16" points="202.58 198.89 188.7 220.01 168.48 217.35 164.49 190.03 170.69 183.54 179.7 184.87 195.2 189 202.58 198.89"/><polygon class="cls-9" points="179.4 192.84 175.56 196.68 165.82 220.89 172.46 244.81 189 223.85 183.24 197.27 179.4 192.84"/><polygon class="cls-8" points="172.02 189.15 175.56 196.68 183.24 197.27 189.15 190.77 187.23 185.9 179.7 184.87 174.82 184.87 172.02 189.15"/><polygon class="cls-17" points="161.39 169.21 167.15 162.27 179.7 184.87 213.22 154.45 216.31 165.38 202.58 198.89 179.55 184.87 164.93 193.28 160.21 182.94 161.39 169.21"/><polygon class="cls-15" points="161.39 169.21 152.09 205.09 172.46 244.81 161.39 169.21"/><polygon class="cls-15" points="216.31 165.38 213.36 212.33 172.46 244.81 216.31 165.38"/><polygon class="cls-12" points="142.93 172.17 111.78 211.29 114.58 215.58 133.33 227.39 140.72 229.01 142.93 172.17"/><polygon class="cls-12" points="239.2 172.61 266.96 206.28 268.29 213.66 259.87 232.41 251.16 239.5 234.62 227.24 239.2 172.61"/><polygon class="cls-14" points="251.16 239.5 279.36 179.85 296.94 183.68 288.07 231.82 251.16 239.5"/><polygon class="cls-14" points="81.95 213.66 115.32 248.36 140.72 229.01 100.55 204.5 95.24 204.94 86.67 208.79 81.95 213.66"/><polygon class="cls-6" points="90.66 182.94 89.78 173.79 101 171.72 101.88 173.35 99.08 183.68 90.66 182.94"/><polygon class="cls-7" points="101 171.72 106.61 176.6 103.21 180.73 97.45 183.54 101 171.72"/><polygon class="cls-6" points="100.55 204.5 93.02 208.19 150.02 360.87 155.33 362.05 157.4 358.51 100.55 204.5"/><polygon class="cls-5" points="110.15 192.69 103.21 180.73 101.29 184.42 99.96 192.69 101.44 196.68 110.15 192.69"/><polygon class="cls-17" points="323.07 130.82 322.77 118.72 313.62 110.15 317.02 90.96 311.85 76.78 323.81 87.86 322.77 106.76 329.71 116.5 323.07 130.82"/><polygon class="cls-17" points="327.8 97.75 329.57 84.61 324.1 75.01 336.21 84.02 327.8 97.75"/><polygon class="cls-11" points="174.09 309.93 181.03 299.59 215.28 279.22 229.65 287.19 226.65 322.18 220.89 329.42 204.65 335.32 194.17 335.03 174.09 309.93"/><polygon class="cls-12" points="230.93 272.28 229.65 287.19 174.09 309.93 138.8 271.5 139.39 266.22 169.07 283.79 230.93 272.28"/><polygon class="cls-12" points="226.65 322.18 239.94 349.5 223.85 355.41 194.17 335.03 226.65 322.18"/><polygon class="cls-9" points="316.28 137.32 281.43 147.36 282.61 155.78 318.35 147.21 320.71 141.31 316.28 137.32"/><polygon class="cls-6" points="323.07 135.4 316.28 137.32 318.35 147.21 324.99 145.74 323.07 135.4"/><polygon class="cls-18" points="282.61 155.78 284.98 174.38 304.02 174.82 302.25 151.05 282.61 155.78"/><polygon class="cls-18" points="281.43 147.36 282.61 155.78 270.95 159.03 274.49 149.28 281.43 147.36"/><polygon class="cls-18" points="281.43 147.36 289.4 135.11 297.67 142.64 288.96 151.35 281.43 147.36"/><polygon class="cls-12" points="172.02 249.39 167.15 253.67 171.28 258.84 176.15 254.41 172.02 249.39"/><polygon class="cls-10" points="81.95 213.66 81.95 184.57 103.21 180.73 100.55 204.5 81.95 213.66"/><polygon class="cls-12" points="170.39 268.88 165.52 273.16 169.51 278.18 174.53 273.9 170.39 268.88"/><polygon class="cls-5" points="219.86 113.55 230.64 121.08 235.36 112.07 228.42 109.41 219.86 113.55"/><polygon class="cls-3" points="200.96 71.47 219.41 102.92 234.03 92.88 232.41 69.11 229.16 61.58 201.25 55.82 200.96 71.47"/><polygon class="cls-9" points="227.09 42.23 207.6 53.6 205.83 62.76 232.41 69.11 259.43 51.68 227.09 42.23"/><polygon class="cls-15" points="154.3 31.16 159.47 24.22 227.09 42.23 218.68 46.07 155.78 48.29 152.09 44.74 154.3 31.16"/><polygon class="cls-19" points="137.62 45.33 140.86 48.58 155.78 48.29 159.47 24.22 140.27 36.77 137.62 45.33"/><polygon class="cls-8" points="125.06 45.77 227.09 42.23 205.83 62.76 197.41 67.63 136.88 73.39 131.27 70.43 125.06 45.77"/><polygon class="cls-18" points="130.53 127.13 153.56 157.55 180.29 156.66 206.13 123.44 205.83 62.76 131.27 70.43 130.53 127.13"/><polygon class="cls-10" points="135.4 88.74 138.8 83.13 153.27 86.67 156.81 91.99 156.51 101.59 150.61 108.23 144.26 93.17 135.4 88.74"/><polygon class="cls-10" points="162.86 91.25 161.39 100.85 165.08 107.49 174.68 92.43 186.49 85.79 181.32 80.92 165.52 86.82 162.86 91.25"/><polygon class="cls-5" points="156.07 105.72 150.61 108.23 158.29 115.02 165.08 107.49 156.07 105.72"/><polygon class="cls-20" points="156.37 91.25 150.61 108.23 165.08 107.49 162.86 91.25 156.37 91.25"/><polygon class="cls-3" points="138.06 81.21 133.19 87.56 135.4 88.74 138.8 85.35 153.27 86.67 150.91 82.69 138.06 81.21"/><polygon class="cls-3" points="168.33 82.39 165.52 86.82 181.76 82.69 186.49 85.79 189.44 84.17 182.5 79.44 168.33 82.39"/><path class="cls-21" d="M144.26,89.78a3.4,3.4,0,1,1-3.4,3.39A3.4,3.4,0,0,1,144.26,89.78Z"/><path class="cls-21" d="M176.45,88.59a3.4,3.4,0,1,1-3.4,3.4A3.41,3.41,0,0,1,176.45,88.59Z"/><polygon class="cls-10" points="152.82 74.27 159.03 76.49 176.45 68.37 157.99 74.27 152.82 74.27"/><polygon class="cls-10" points="133.48 94.35 130.97 98.05 138.06 95.39 133.48 94.35"/><polygon class="cls-10" points="184.42 94.35 193.43 96.86 189.88 92.73 184.42 94.35"/><polygon class="cls-10" points="147.21 110.15 136.43 123.44 140.27 112.81 147.21 110.15"/><polygon class="cls-10" points="169.51 108.68 187.97 117.53 179.4 109.56 169.51 108.68"/><polygon class="cls-5" points="141.31 122.41 185.46 118.72 169.95 134.07 154.89 135.25 141.31 122.41"/><polygon class="cls-22" points="147.66 124.18 178.52 121.67 172.61 126.98 152.23 128.61 147.66 124.18"/><polygon class="cls-18" points="234.03 92.88 219.12 92.43 219.86 112.96 235.36 112.07 234.03 92.88"/><polygon class="cls-5" points="224.58 97.45 230.49 97.6 225.03 107.05 224.58 97.45"/><polygon class="cls-8" points="129.79 379.62 128.46 375.78 138.94 371.5 172.76 361.76 185.75 359.54 186.78 363.67 129.79 379.62"/><polygon class="cls-7" points="128.46 375.78 185.75 359.54 157.4 358.51 150.02 360.87 128.46 375.78"/></g></svg>