<svg id="Layer_1" data-name="Layer 1" xmlns="http://www.w3.org/2000/svg" viewBox="0 0 400 400"><defs><style>.cls-1{fill:#4f5253;}.cls-2{fill:#848585;}.cls-3{fill:#6f7173;}.cls-20,.cls-4{fill:#2b2b2b;}.cls-4{fill-opacity:0.1;}.cls-5{fill:#474747;}.cls-6{fill:#27788b;}.cls-7{fill:#8bdfdb;}.cls-8{fill:#3a9fb9;}.cls-9{fill:#8e8e8e;}.cls-10{fill:#c3c3c3;}.cls-11{fill:#cdcdcc;}.cls-12{fill:#ebebea;}.cls-13{fill:#72cacb;}.cls-14{fill:#318ea5;}.cls-15{fill:#5ebfd8;}.cls-16{fill:#a2a2a2;}.cls-17{fill:#f4c9b2;}.cls-18{fill:#fce3d4;}.cls-19{fill:#dcdcdb;}.cls-21{fill:#369395;}.cls-22{fill:#1c7678;}.cls-23{fill:#165e60;}.cls-24{fill:#9ca0a1;}.cls-25{fill:#c1907d;}.cls-26{fill:#737373;}.cls-27{fill:#ffefe7;}.cls-28{fill:#fff;}</style></defs><title>sentinels_ESTJ_famous_real_james_monroe</title><g id="Layer_1-2" data-name="Layer_1"><polygon class="cls-1" points="299.61 88.63 304.25 93.86 291.48 105.76 288.86 86.89 299.61 88.63"/><polygon class="cls-2" points="303.96 61.04 307.45 76.43 304.25 93.86 293.22 70.04 303.96 61.04"/><polygon class="cls-3" points="297.29 71.21 293.51 93.86 304.25 93.86 297.29 71.21"/><path class="cls-2" d="M238.33,14.87,224.69,7.61,252.27.35S263,13.42,263.6,14C264.47,14.87,238.33,14.87,238.33,14.87Z"/><polygon class="cls-4" points="43.18 374.39 242.69 399.65 356.82 379.62 252.27 363.64 43.18 374.39"/><polygon class="cls-5" points="264.76 378.74 254.31 383.39 255.18 389.49 287.41 389.49 287.12 384.26 264.76 378.74"/><polygon class="cls-5" points="238.33 370.9 210.74 376.71 211.03 381.65 255.18 381.65 255.47 375.26 238.33 370.9"/><polygon class="cls-3" points="158.47 359 142.79 368.29 141.05 376.42 162.25 376.13 158.47 359"/><path class="cls-6" d="M189.55,362.48l6.68-4.36,6.09-11.32,7.84-1.16,5.23-5.81,2-17.42s-41.52-2.33-41.81-1.46-44.15,3.49-66.51,4.94l45.31,11.62L158.76,348l17.43,4.94-2,5.22Z"/><polygon class="cls-7" points="186.35 346.22 186.06 340.7 197.39 335.48 206.97 338.96 210.16 345.64 202.32 353.77 196.22 353.77 186.35 346.22"/><polygon class="cls-3" points="215.39 339.83 236.01 359.87 255.47 363.93 221.78 316.31 213.94 319.5 215.39 339.83"/><polygon class="cls-1" points="200.29 325.89 215.39 339.83 222.07 326.18 213.94 319.5 200.29 325.89"/><polygon class="cls-8" points="141.92 355.22 142.5 369.16 189.54 362.48 176.19 352.9 161.96 344.19 154.41 337.51 109.1 325.89 86.74 327.63 96.03 342.73 141.92 355.22"/><path class="cls-9" d="M186.06,325l31.36-2.61L213.94,303l-32.82-5.52S161.67,316,162.25,317.18C162.54,318.63,186.06,325,186.06,325Z"/><polygon class="cls-10" points="91.39 316.6 98.07 334.02 109.1 343.31 120.72 337.51 154.41 337.51 177.64 313.4 128.27 295.4 91.39 316.6"/><polygon class="cls-11" points="76.58 299.75 64.96 303.53 64.96 314.86 98.07 334.02 114.04 313.69 103 299.75 76.58 299.75"/><polygon class="cls-12" points="99.52 288.14 82.1 292.78 64.96 303.53 89.36 303.53 99.52 288.14"/><path class="cls-7" d="M151.79,304.11l8.71,9.58,17.14-.29,25.84-4.93-14.81-11.62-3.19-17.14s13.07-2.61,18.88-4.06a5,5,0,0,1-.58-2L148,292.49Z"/><path class="cls-13" d="M203.48,308.47s7-17.14,5.81-17.43c-.87,0-3.77-10.74-4.93-15.39-5.81,1.45-18.88,4.06-18.88,4.06l-4.36,17.72Z"/><polygon class="cls-8" points="160.5 313.69 170.09 299.17 181.12 297.43 190.13 283.78 206.1 280.01 206.39 264.61 186.93 252.42 168.93 251.55 169.8 257.36 154.99 283.2 152.08 299.17 160.5 313.69"/><polygon class="cls-14" points="154.99 275.07 154.99 283.2 184.03 280.88 186.93 275.94 190.71 278.84 198.55 268.97 203.78 262.87 186.93 252.42 154.99 275.07"/><polygon class="cls-15" points="120.14 265.49 111.43 262.29 93.42 283.49 87.03 303.53 114.04 313.69 160.5 313.69 154.99 283.2 169.8 257.36 168.93 251.55 148.89 250.38 120.14 265.49"/><polygon class="cls-16" points="154.41 337.51 222.07 326.18 220.33 317.47 177.64 313.4 154.41 337.51"/><polygon class="cls-13" points="163.99 245.74 159.63 243.71 137.27 246.32 136.69 256.77 146.28 255.61 145.98 264.33 164.86 259.1 163.99 245.74"/><polygon class="cls-7" points="137.27 246.32 111.43 262.29 115.78 272.17 132.34 277.97 139.31 266.36 145.98 264.33 146.28 255.61 137.27 246.32"/><polygon class="cls-17" points="184.03 263.45 189.26 266.36 190.71 278.84 184.03 280.88 179.38 271 184.03 263.45"/><polygon class="cls-17" points="154.12 257.64 146.28 255.61 139.31 266.36 154.99 283.2 165.15 276.81 154.12 257.64"/><polygon class="cls-18" points="168.34 248.64 158.18 252.13 146.28 255.61 165.15 276.81 179.38 271 178.22 252.71 168.34 248.64"/><path class="cls-17" d="M165.15,248.93s-7.26,2.91-7,3.2c.29,0,11.91,5.81,11.91,5.81L179.38,271l-1.45-16.84-12.78-5.23Z"/><polygon class="cls-19" points="181.71 236.74 173.57 240.8 159.63 243.71 158.18 252.13 171.54 253 178.51 256.48 181.71 236.74"/><polygon class="cls-12" points="171.54 253 179.38 271 189.26 266.36 189.84 254.16 173.57 240.8 171.54 253"/><polygon class="cls-3" points="195.35 198.4 189.26 205.08 173.57 240.8 189.84 254.16 211.32 236.44 211.32 206.24 195.35 198.4"/><polygon class="cls-20" points="287.7 305.85 287.41 326.47 322.26 295.98 297.87 279.71 287.7 305.85"/><path class="cls-20" d="M210.16,264.9c-1.16-1.16-6.68,43.57-6.68,43.57l18.59,17.71,13.36-28.75Z"/><polygon class="cls-1" points="247.05 356.09 236.01 359.87 210.74 376.71 255.47 375.26 255.47 363.93 247.05 356.09"/><polygon class="cls-1" points="273.18 357.25 281.31 364.51 287.12 384.26 254.31 383.39 263.02 367.42 273.18 357.25"/><polygon class="cls-7" points="272.89 328.5 286.25 331.99 281.31 364.51 263.02 367.42 256.63 336.93 272.89 328.5"/><polygon class="cls-13" points="242.4 328.8 227.59 331.41 236.01 359.87 255.47 363.93 256.63 336.93 242.4 328.8"/><polygon class="cls-21" points="243.56 329.66 256.63 336.93 286.25 331.99 293.51 320.95 301.64 270.71 264.47 257.94 239.78 271.59 243.56 329.66"/><polygon class="cls-22" points="206.1 267.52 222.07 326.18 227.59 331.41 256.63 336.93 248.21 328.21 243.85 274.2 227.3 250.67 209.29 254.45 206.1 267.52"/><polygon class="cls-23" points="209.29 254.45 215.1 255.61 243.85 274.2 266.21 263.45 263.89 224.83 209 234.7 209.29 254.45"/><polygon class="cls-5" points="211.91 228.61 204.07 215.25 203.48 308.47 218.59 257.64 211.91 228.61"/><path class="cls-1" d="M313.26,176.91l4.35,26.72L285.67,228l-15.1-.58-8.13-48.2c.58,1.16,36-15.4,36-15.4Z"/><polygon class="cls-5" points="201.74 163.84 193.32 154.84 189.26 205.08 204.07 215.25 221.78 183.3 201.74 163.84"/><polygon class="cls-23" points="213.94 240.22 266.5 240.51 253.44 212.92 211.62 218.15 213.94 240.22"/><polygon class="cls-16" points="208.71 210.31 204.07 215.25 218.59 257.64 216.55 229.19 208.71 210.31"/><polygon class="cls-1" points="193.32 154.84 204.07 215.25 219.75 190.27 213.07 182.14 212.78 160.07 193.32 154.84"/><polygon class="cls-3" points="212.78 136.55 207.26 142.65 193.32 154.84 207.84 161.52 231.07 154.55 220.62 139.45 212.78 136.55"/><polygon class="cls-14" points="238.33 216.12 234.27 228.9 216.26 229.19 211.91 198.69 234.85 200.15 238.33 216.12"/><polygon class="cls-6" points="233.69 200.72 234.27 210.31 234.27 228.9 258.37 228.31 269.41 196.37 245.01 196.66 233.69 200.72"/><polygon class="cls-15" points="242.98 203.05 234.27 210.31 211.62 201.02 214.23 186.79 209.58 178.37 227.01 191.72 242.98 203.05"/><polygon class="cls-9" points="214.23 186.79 216.55 229.19 204.07 215.25 214.23 186.79"/><polygon class="cls-2" points="211.91 160.07 207.84 161.52 196.51 173.14 214.23 186.79 229.62 170.81 211.91 160.07"/><polygon class="cls-14" points="235.43 200.15 234.27 210.31 264.18 198.98 262.44 179.24 235.43 200.15"/><polygon class="cls-24" points="247.05 178.07 262.44 179.24 234.27 210.31 214.23 186.79 247.05 178.07"/><path class="cls-16" d="M218.29,166.75l-4.06,20,15.68,9.87s9.29-25.56,9.59-25C239.79,172,218.29,166.75,218.29,166.75Z"/><polygon class="cls-11" points="240.66 171.4 230.2 178.95 229.91 196.66 262.44 179.24 270.57 168.78 259.82 165.59 240.66 171.4"/><polygon class="cls-19" points="225.85 167.62 230.2 178.95 271.44 167.04 283.93 147.87 228.46 160.65 225.85 167.62"/><polygon class="cls-11" points="219.46 152.23 213.94 153.97 207.84 161.52 230.2 178.95 231.07 165.01 219.46 152.23"/><polygon class="cls-5" points="267.37 247.19 265.34 264.04 322.26 295.98 310.94 230.64 299.61 229.77 275.51 246.61 267.37 247.19"/><polygon class="cls-16" points="266.5 234.12 260.69 231.22 265.34 264.04 269.7 249.51 266.5 234.12"/><polygon class="cls-9" points="262.44 179.24 260.99 222.51 279.86 223.09 281.6 212.92 262.44 179.24"/><path class="cls-5" d="M303.38,157.46c1.75.29-1.16,18-1.16,18L304,194.63l8.43,18.29,34,1.75-14.23-72Z"/><polygon class="cls-5" points="307.74 142.35 317.9 134.51 332.13 142.65 302.22 175.46 307.74 142.35"/><polygon class="cls-2" points="293.8 148.74 277.54 152.23 262.44 179.24 302.22 175.46 293.8 148.74"/><polygon class="cls-3" points="297 126.67 317.9 134.51 302.22 175.46 277.54 152.23 282.76 122.61 297 126.67"/><polygon class="cls-5" points="282.48 113.02 291.48 105.76 317.9 134.51 287.99 135.09 282.48 113.02"/><path class="cls-17" d="M288.86,97.05l2.62,8.71L290,135.09l-18.59,13.07S249.37,40.42,250.82,41.29c1.16.59,26.72-3.77,26.72-3.77Z"/><polygon class="cls-25" points="266.21 128.13 273.47 131.03 281.89 126.09 278.99 143.52 237.46 159.2 236.59 141.19 266.21 128.13"/><path class="cls-19" d="M246.46,136.84l-7,14.52,1.74,9L231.07,165l-17.13-11s9.58-13.65,10.75-15.1C225.56,137.42,246.46,136.84,246.46,136.84Z"/><polygon class="cls-12" points="239.5 151.36 262.73 147.58 290.02 135.09 277.54 152.23 231.07 165.01 239.5 151.36"/><polygon class="cls-25" points="285.38 88.34 281.31 93.57 291.48 105.76 293.51 93.86 285.38 88.34"/><polygon class="cls-9" points="270.86 44.49 269.12 53.78 276.09 77.59 285.96 78.47 294.38 43.33 270.86 44.49"/><path class="cls-16" d="M297.87,60.46c.29,0,6.09.58,6.09.58L299.61,74.4l-6.1,19.46L292.35,62.2Z"/><polygon class="cls-18" points="292.06 64.24 282.18 68.01 281.31 93.57 293.51 93.86 295.25 68.88 292.06 64.24"/><polygon class="cls-2" points="292.06 45.07 286.25 49.42 282.18 68.01 295.25 68.88 303.96 61.04 292.06 45.07"/><polygon class="cls-10" points="294.67 51.75 286.25 49.42 269.12 53.78 260.99 47.97 265.34 27.65 294.67 51.75"/><polygon class="cls-16" points="287.12 43.33 286.25 49.42 303.96 61.04 300.19 40.71 287.12 43.33"/><polygon class="cls-26" points="298.74 36.94 305.71 39.55 303.96 61.04 298.45 46.52 298.74 36.94"/><polygon class="cls-16" points="293.22 34.91 284.8 25.61 267.08 39.55 286.25 49.42 298.45 46.52 293.22 34.91"/><polygon class="cls-9" points="288.57 27.07 294.38 27.94 305.71 39.55 298.45 46.52 287.12 32.29 288.57 27.07"/><polygon class="cls-26" points="184.32 58.43 178.22 65.4 188.09 78.17 200.29 57.27 184.32 58.43"/><polygon class="cls-2" points="189.26 44.49 183.74 48.55 178.22 65.4 193.32 59.01 200.29 42.46 189.26 44.49"/><path class="cls-9" d="M192.16,28.23l-7.55,3.48-.87,16.84,10.45-2.32S201.74,29.1,202,30C202,30.84,192.16,28.23,192.16,28.23Z"/><polygon class="cls-10" points="202.03 26.19 199.71 16.61 184.61 31.71 194.77 33.16 202.03 26.19"/><polygon class="cls-9" points="209.87 18.64 199.71 16.61 194.77 33.16 220.91 34.03 209.87 18.64"/><polygon class="cls-2" points="225.85 13.71 224.69 7.61 199.71 16.61 210.74 27.94 225.85 13.71"/><polygon class="cls-16" points="257.79 23.58 267.08 39.55 260.99 47.97 244.14 48.55 257.79 23.58"/><polygon class="cls-16" points="259.82 23.87 257.5 29.97 267.08 39.55 287.12 32.29 271.73 13.42 259.82 23.87"/><polygon class="cls-2" points="276.38 11.96 287.99 11.96 294.38 27.94 287.12 32.29 267.66 21.55 276.38 11.96"/><polygon class="cls-26" points="262.15 20.68 267.95 21.26 287.99 11.96 252.27 0.35 255.47 8.19 262.15 20.68"/><polygon class="cls-10" points="244.43 9.93 255.47 8.19 267.95 21.26 257.79 29.97 231.65 20.09 244.43 9.93"/><polygon class="cls-9" points="234.27 29.1 243.27 21.26 257.79 29.97 251.11 44.2 232.81 40.71 234.27 29.1"/><polygon class="cls-9" points="220.91 28.81 210.74 27.94 224.69 7.61 255.47 8.19 243.27 21.26 220.91 28.81"/><path class="cls-16" d="M203.48,54.36l-9.29-8.13.58-13.07,16-5.22s4.07,2.32,4.36,3.19c0,.87-4.36,25.27-4.36,25.27Z"/><polygon class="cls-10" points="214.23 59.3 210.74 45.94 210.74 27.94 243.27 21.26 239.5 32.58 214.23 59.3"/><polygon class="cls-18" points="188.09 78.17 207.26 142.65 231.07 151.65 233.69 151.36 235.14 149.32 236.3 151.36 239.5 151.36 273.47 131.03 260.99 47.97 239.5 32.58 210.74 45.94 194.19 46.23 188.09 78.17"/><polygon class="cls-17" points="200.58 73.53 194.19 80.5 209 84.86 219.46 108.67 230.49 109.83 241.82 78.76 256.34 63.95 243.85 62.78 227.3 77.59 224.69 81.66 221.78 90.08 218.88 82.53 213.36 77.01 200.58 73.53"/><polygon class="cls-25" points="222.07 108.09 219.75 113.31 228.46 115.64 230.49 109.83 222.07 108.09"/><polygon class="cls-17" points="232.23 151.65 238.04 151.36 235.43 144.1 232.23 151.65"/><polygon class="cls-25" points="211.91 125.51 230.78 124.64 250.53 116.8 233.4 135.38 211.91 125.51"/><polygon class="cls-27" points="218.88 82.53 219.75 113.31 230.49 109.83 224.69 81.66 218.88 82.53"/><polygon class="cls-2" points="226.72 71.79 242.11 61.33 256.05 61.33 256.34 63.95 242.69 65.11 227.3 77.59 226.72 71.79"/><polygon class="cls-2" points="213.07 72.08 199.13 71.21 193.32 79.05 194.19 80.5 200 75.56 213.36 77.01 213.07 72.08"/><path class="cls-20" d="M208.42,81.66a3.29,3.29,0,0,1,3.78,2.61,3.43,3.43,0,0,1-2.62,4.07,3.49,3.49,0,0,1-3.77-2.9A3.28,3.28,0,0,1,208.42,81.66Z"/><polygon class="cls-28" points="219.17 126.96 231.07 126.96 244.43 121.16 232.81 132.19 219.17 126.96"/><polygon class="cls-25" points="290.61 74.11 286.25 73.82 285.67 82.82 290.61 74.11"/><polygon class="cls-13" points="125.95 303.24 136.98 307.01 150.34 300.05 146.28 289.3 132.04 285.52 121.59 288.14 119.56 295.11 125.95 303.24"/><polygon class="cls-7" points="106.49 286.11 106.49 297.14 115.49 304.4 125.95 303.24 121.59 288.14 112.3 283.49 106.49 286.11"/><polygon class="cls-7" points="119.85 364.81 96.03 342.73 111.14 340.12 127.4 349.41 119.85 364.81"/><polygon class="cls-3" points="98.07 334.02 66.7 377.29 85.58 379.62 120.72 337.51 98.07 334.02"/><polygon class="cls-13" points="125.08 347.96 140.18 343.31 153.82 353.77 142.5 369.16 119.85 364.81 125.08 347.96"/><polygon class="cls-13" points="182.58 352.9 196.22 358.13 202.32 353.77 186.06 340.7 181.71 345.35 182.58 352.9"/><polygon class="cls-3" points="292.35 213.5 303.96 194.63 346.36 214.67 301.06 235.28 292.35 213.5"/><path class="cls-20" d="M241.24,75.56A3.15,3.15,0,0,1,245,78.47a3.23,3.23,0,1,1-3.77-2.91Z"/><path class="cls-4" d="M293.51,321l-7.26,11-29.62,4.94-29-5.52-5.52-5.23,26.14,2Zm4.65-28.75,1.45-9L265.34,264Z"/><polygon class="cls-17" points="265.63 226.28 258.66 227.44 260.69 231.22 269.7 249.51 276.67 250.67 275.51 227.44 265.63 226.28"/><polygon class="cls-18" points="287.12 217.57 260.99 218.44 244.43 228.61 246.17 233.83 270.57 229.19 276.67 250.67 288.86 239.93 287.12 217.57"/><polygon class="cls-17" points="285.67 217.57 279.57 217.57 285.38 226.86 288.86 239.93 290.31 226.57 285.67 217.57"/><polygon class="cls-12" points="297 219.6 292.35 213.5 281.6 212.92 279.57 217.57 287.41 225.12 296.41 241.09 301.06 235.28 297 219.6"/><path class="cls-19" d="M287.41,225.12c.58.87,1.45,14.81,1.45,14.81l7.55,1.16,4.65-5.8Z"/></g></svg>