<svg id="Layer_1" data-name="Layer 1" xmlns="http://www.w3.org/2000/svg" viewBox="0 0 400 400"><defs><style>.cls-1,.cls-24{fill:#2b2b2b;}.cls-1{opacity:0.1;}.cls-2{fill:#785d87;}.cls-3{fill:#8f759f;}.cls-4{fill:#594165;}.cls-27,.cls-5{fill:#734d60;}.cls-6{fill:#b07545;}.cls-25,.cls-7{fill:#543042;}.cls-8{fill:#95637c;}.cls-9{fill:#b2879c;}.cls-10{fill:#fff;}.cls-11{fill:#cfcfcf;}.cls-12{fill:#7d4f26;}.cls-13,.cls-26{fill:#f4c9b2;}.cls-14{fill:#c1907d;}.cls-15{fill:#cc9161;}.cls-16{fill:#fce3d4;}.cls-17{fill:#9c6633;}.cls-18{fill:#b0b0b0;}.cls-19{fill:#c9c9c9;}.cls-20{fill:#72cacb;}.cls-21{fill:#3a9fb9;}.cls-22{fill:#27788b;}.cls-23{fill:#ffefe7;}.cls-25,.cls-26,.cls-27{fill-rule:evenodd;}.cls-28{fill:none;}.cls-29{fill:#8f8f8f;}</style></defs><title>analysts_INTJ_famous_real_samantha_power</title><polygon class="cls-1" points="213.85 375.6 283.97 387.18 210.31 399.75 133.5 386.85 213.85 375.6"/><polygon class="cls-2" points="245.97 327.75 241.88 362.51 229.2 381.95 225.97 362.56 215.77 327.75 227.69 312.63 245.97 327.75"/><polygon class="cls-2" points="184.68 356.29 176.98 322.17 196.8 316.02 205.88 327.75 200.7 356.3 188.51 372.53 184.68 356.29"/><polygon class="cls-3" points="216.77 281.57 250.27 288.97 245.97 327.75 215.77 327.75 209.61 302.67 216.77 281.57"/><polygon class="cls-3" points="177.44 324.2 169.29 285.7 196.8 260.47 209.61 302.67 205.88 327.75 177.44 324.2"/><polygon class="cls-4" points="180.6 258.21 165.15 266.12 169.29 285.7 209.61 302.67 250.27 288.97 252.94 264.99 180.6 258.21"/><polygon class="cls-5" points="142.16 205.09 169.29 158.74 164.02 191.52 171.18 220.53 142.16 205.09"/><polygon class="cls-6" points="156.86 100.34 145.93 90.92 137.64 57.39 145.93 28 161.38 31.02 156.86 52.87 156.86 100.34"/><polygon class="cls-7" points="166.28 217.9 137.64 228.07 114.66 174.57 120.31 162.89 127.47 166.66 166.28 217.9"/><polygon class="cls-6" points="231.08 153.09 236.73 112.78 252.94 103.36 256.33 118.05 252.18 156.86 242.76 166.28 231.08 153.09"/><polygon class="cls-8" points="160.63 192.28 169.29 158.74 199.06 150.45 231.08 153.09 252.18 156.86 253.31 202.07 242.39 235.98 252.94 264.99 229.2 285.71 202.45 260.47 185.12 280.06 165.15 266.12 171.55 244.27 160.63 192.28"/><polygon class="cls-9" points="176.83 200.19 169.29 158.74 190.39 152.71 231.08 153.09 252.18 156.86 262.73 182.1 250.77 209.96 200.57 212.25 176.83 200.19"/><polygon class="cls-10" points="190.39 152.71 231.08 153.09 228.83 180.97 204.34 188.88 189.64 179.09 190.39 152.71"/><polygon class="cls-11" points="228.83 180.97 200.57 212.25 189.64 179.09 228.83 180.97"/><polygon class="cls-5" points="171.55 244.27 200.57 212.25 242.39 235.98 202.45 260.47 171.55 244.27"/><polygon class="cls-12" points="169.29 158.74 165.15 133.88 177.58 125.59 188.51 136.51 199.06 150.45 169.29 158.74"/><polygon class="cls-6" points="147.82 80 145.56 118.43 147.06 145.18 160.63 192.28 176.83 200.19 182.1 176.07 166.66 135.76 171.55 122.2 156.86 100.34 147.82 80"/><polygon class="cls-13" points="202.07 135.38 217.14 49.1 236.73 13.69 255.2 39.68 251.43 73.59 248.41 113.91 231.08 153.09 205.09 178.71 190.39 152.71 202.07 135.38"/><polygon class="cls-14" points="190.39 152.71 182.1 135.38 201.7 123.7 221.58 135.32 227.72 137.54 217.9 165.9 205.09 178.71 190.39 152.71"/><polygon class="cls-15" points="262.36 28.38 268.01 83.39 252.18 156.86 252.56 128.98 252.94 103.36 237.87 41.01 245.78 27.63 262.36 28.38"/><polygon class="cls-14" points="252.94 103.36 248.41 113.91 238.62 100.72 252.94 103.36"/><polygon class="cls-16" points="166.66 135.76 156.86 100.34 156.86 21.98 236.73 13.69 237.87 41.01 234.58 104.21 221.58 135.32 166.66 135.76"/><polygon class="cls-6" points="252.94 103.36 242.01 89.42 238.24 84.9 243.89 67.19 237.87 41.01 268.01 83.39 252.94 103.36"/><polygon class="cls-6" points="237.87 41.01 230.71 32.15 240.5 18.21 262.36 28.38 237.87 41.01"/><polygon class="cls-17" points="179.47 6.15 214.51 0.88 237.87 15.57 262.36 28.38 230.71 32.15 197.93 28.76 177.96 19.34 179.47 6.15"/><polygon class="cls-15" points="237.87 15.57 230.71 32.15 214.51 0.88 237.87 15.57"/><polygon class="cls-6" points="145.93 28 179.47 6.15 209.23 22.35 167.03 36.67 145.93 28"/><polygon class="cls-15" points="156.86 52.87 145.93 28 209.23 22.35 209.23 30.64 188.51 34.41 156.86 52.87"/><polygon class="cls-16" points="259.34 81.88 245.4 78.49 238.62 100.72 252.94 103.36 259.34 81.88"/><polygon class="cls-13" points="183.99 59.65 185.87 65.68 187 73.22 193.41 65.31 198.31 59.65 213.38 58.52 226.19 69.07 206.22 70.2 191.52 91.3 181.35 91.3 174.19 70.2 161.76 65.68 169.67 59.28 183.99 59.65"/><path class="cls-8" d="M204.33,184.36c6.41,0,6.41,9.42,0,9.42S197.93,184.36,204.33,184.36Z"/><polygon class="cls-14" points="246.16 92.06 248.41 82.64 255.2 84.52 246.16 92.06"/><polygon class="cls-15" points="145.87 123.97 156.86 100.34 137.64 57.39 145.87 123.97"/><polygon class="cls-15" points="150.2 152.32 182.1 176.07 157.24 179.84 148.19 163.64 150.2 152.32"/><polygon class="cls-17" points="157.24 179.84 143.67 164.77 147.82 147.82 150.2 152.32 157.24 179.84"/><polygon class="cls-18" points="145.87 123.97 158.41 129.3 159.25 138.38 154.96 146.67 151.71 138.13 138.9 127.45 145.87 123.97"/><polygon class="cls-19" points="136.64 133.86 138.9 127.45 152.49 135.76 154.96 146.67 146.44 146.67 136.64 133.86"/><polygon class="cls-14" points="128.83 168.44 128.35 154.96 121.57 149.68 107.84 170.8 114.66 174.57 128.83 168.44"/><polygon class="cls-20" points="119.31 138.76 134.38 130.47 149.45 138.76 132.87 153.45 124.58 148.55 119.31 138.76"/><polygon class="cls-21" points="133.25 162.12 130.99 153.45 132.5 148.55 149.45 138.76 150.2 152.32 133.25 162.12"/><polygon class="cls-22" points="119.31 138.76 118.18 151.94 133.25 162.12 132.5 148.55 119.31 138.76"/><polygon class="cls-10" points="132.5 132.35 134.76 133.48 126.09 138 128.35 140.26 135.89 134.24 137.39 135.37 127.97 141.4 124.96 137.63 132.5 132.35"/><polygon class="cls-10" points="127.6 141.77 129.86 141.4 138.53 135.74 136.64 142.9 142.67 139.13 142.67 137.63 145.31 139.51 134 145.92 135.89 139.13 130.24 142.9 130.24 144.41 127.6 141.77"/><polygon class="cls-19" points="121.57 146.67 87.41 170.2 95.22 179.07 128.56 157.22 121.57 146.67"/><polygon class="cls-18" points="124.42 153.45 104.63 168.38 97.83 172.5 95.88 181.19 128.83 158.74 124.42 153.45"/><polygon class="cls-17" points="161.76 65.68 168.16 58.15 182.48 54.38 183.99 59.65 169.29 62.67 161.76 65.68"/><polygon class="cls-17" points="199.81 54 198.31 59.65 216.77 63.42 226.19 69.07 216.77 57.77 199.81 54"/><polygon class="cls-23" points="181.35 91.3 185.87 65.68 193.41 65.31 191.52 91.3 181.35 91.3"/><polygon class="cls-14" points="186.62 96.2 181.35 91.3 191.52 91.3 186.62 96.2"/><polygon class="cls-8" points="170.42 109.76 182.86 101.47 187 102.6 190.77 101.1 209.23 107.5 203.58 110.14 183.99 112.4 170.42 109.76"/><polygon class="cls-10" points="176.83 109.76 186.62 105.62 202.45 109.76 176.83 109.76"/><polygon class="cls-9" points="187.38 112.02 202.45 109.76 209.23 107.5 188.13 119.94 170.42 109.76 176.83 109.76 187.38 112.02"/><polygon class="cls-7" points="183.61 113.91 191.9 113.91 202.45 109.76 176.83 109.76 183.61 113.91"/><path class="cls-24" d="M173.06,65.68a4.15,4.15,0,1,1-4.14,4.15A4.19,4.19,0,0,1,173.06,65.68Z"/><path class="cls-24" d="M206.22,65.68a4.15,4.15,0,1,1-4.15,4.15A4.18,4.18,0,0,1,206.22,65.68Z"/><polygon class="cls-13" points="194.54 92.06 207.35 97.33 214.13 107.88 209.23 93.94 194.54 92.06"/><polygon class="cls-13" points="180.22 92.43 173.06 96.95 167.41 108.26 170.42 95.07 180.22 92.43"/><polygon class="cls-12" points="188.51 34.41 230.71 32.15 209.23 22.35 188.51 34.41"/><polygon class="cls-8" points="250.77 209.96 270.91 219.18 282.22 215.88 283.04 191.85 252.18 156.86 250.77 209.96"/><polygon class="cls-7" points="303.25 162.89 289.99 169.3 270.91 219.18 299.77 232.37 304.13 178.71 303.25 162.89"/><polygon class="cls-16" points="301.89 140.2 289.99 169.3 300.24 167.65 306.49 157.76 306.96 142.09 301.89 140.2"/><polygon class="cls-13" points="318.62 166.59 304.13 175.78 289.99 169.3 306.49 157.76 322.39 161.17 318.62 166.59"/><polygon class="cls-16" points="339.59 157.87 322.39 161.17 304.13 175.78 327.93 172.6 339.59 157.87"/><polygon class="cls-25" points="241.88 362.51 247.47 373.42 245.6 392.83 243.67 392.83 241.3 377.67 241.88 362.51"/><polygon class="cls-26" points="241.88 362.51 225.97 362.56 225.97 380.76 239.08 380.76 241.88 362.51"/><polygon class="cls-27" points="241.88 362.51 237.23 377.61 228.78 377.64 225.97 362.56 225.98 362.56 225.97 362.56 219.17 392.83 243.67 392.83 241.88 362.51"/><polygon class="cls-26" points="172.69 372.71 178.72 376.11 187.9 374.19 200.7 356.3 184.68 356.29 172.69 372.71"/><polygon class="cls-25" points="203.59 384.59 197.94 384.59 197.94 372.98 200.7 356.3 206.27 371.84 203.59 384.59"/><polygon class="cls-27" points="172.69 372.71 164.01 384.59 185.72 384.59 204.51 366.93 200.7 356.3 184.29 372.97 172.69 372.71"/><line class="cls-28" x1="184.68" y1="356.29" x2="164.01" y2="384.59"/><polygon class="cls-13" points="104.63 168.38 97.13 158.74 118.97 142.68 126.69 149.33 117.8 160.61 104.63 168.38"/><polygon class="cls-16" points="128.83 168.44 129.5 158.31 126.69 149.33 114.66 155.21 117.8 160.61 123.56 158 119.31 165.23 122.39 171.22 128.83 168.44"/><polygon class="cls-29" points="97.83 172.5 87.41 170.2 95.88 181.19 97.83 172.5"/><polygon class="cls-2" points="248.87 98.17 252.94 103.36 249.98 110.26 243.94 107.88 242.98 101.53 248.87 98.17"/></svg>