<svg id="Layer_1" data-name="Layer 1" xmlns="http://www.w3.org/2000/svg" viewBox="0 0 400 400"><defs><style>.cls-1,.cls-9{fill:#d0ae95;}.cls-2,.cls-21{fill:#eed2c1;}.cls-22,.cls-3{fill:#a8836c;}.cls-4{fill:#f6e5db;}.cls-13,.cls-5{fill:#2b2b2b;}.cls-6{fill:#82624e;}.cls-7{fill:#66493b;}.cls-8{fill:#b08c79;}.cls-18,.cls-19,.cls-20,.cls-21,.cls-22,.cls-23,.cls-9{fill-rule:evenodd;}.cls-10{fill:#95637c;}.cls-11{fill:#734d61;}.cls-12{fill:#be9b82;}.cls-13{opacity:0.1;}.cls-14{fill:#474748;}.cls-15,.cls-18{fill:#dcdcdb;}.cls-16,.cls-20{fill:#ebebea;}.cls-17{fill:#543042;}.cls-19{fill:#d1a0b8;}.cls-23{fill:#fff;opacity:0.45;}</style></defs><title>analysts_INTJ_famous_fictional_Jay_Gatsby</title><polygon class="cls-1" points="245.34 37.51 259.23 66.73 248.06 104.11 241.28 137.7 203.86 184.16 201.02 129.02 177.95 124.9 212.07 98.01 245.34 37.51"/><polygon class="cls-2" points="164.59 118.42 187.44 136.45 208.92 136.76 238.56 114.99 246.34 37.51 234.47 21.34 194.51 18.02 163.63 29.56 157.99 74.25 164.59 118.42"/><polygon class="cls-1" points="210.81 96.9 217.42 74.43 232.6 71.61 226.02 62.45 205.47 70.53 203.88 72.35 197.88 91.4 210.81 96.9"/><polygon class="cls-1" points="185.57 96.91 193.09 87.72 193.21 72.34 190.67 70.85 177.56 66.05 171.34 61.67 166.14 70.25 180.53 74.84 185.57 96.91"/><polygon class="cls-3" points="180.81 108.8 196.25 107.71 199.15 108 202.08 107.51 217.94 109.14 205.76 111.02 193.68 110.92 180.81 108.8"/><polygon class="cls-1" points="180.81 108.8 193.04 116.02 205.31 116.03 217.94 109.14 205.76 111.02 193.68 110.92 180.81 108.8"/><polygon class="cls-1" points="185.57 96.91 198.3 102.05 210.81 96.9 185.57 96.91"/><polygon class="cls-4" points="185.57 96.91 193.09 87.72 193.21 72.34 203.88 72.35 202.06 88 210.81 96.9 197.09 96.91 185.57 96.91"/><circle class="cls-5" cx="217.42" cy="74.43" r="3.62"/><circle class="cls-5" cx="180.53" cy="74.84" r="3.62"/><polygon class="cls-6" points="204.66 65.54 226.02 62.45 234.43 69.23 232.6 71.61 225.28 67.27 205.47 70.53 204.66 65.54"/><polygon class="cls-6" points="190.67 70.85 190.46 66.23 171.34 61.67 164.97 66.75 166.14 70.25 171.64 66.3 190.67 70.85"/><polygon class="cls-1" points="218.13 103.56 223.75 106.17 222.14 112.43 221.66 107.14 218.13 103.56"/><polygon class="cls-1" points="175.16 102.13 170.58 106.06 179.68 117.54 172.66 106.38 175.16 102.13"/><polygon class="cls-1" points="213.07 119.13 200.71 122.32 189.97 121.64 201.65 124.07 213.07 119.13"/><polygon class="cls-3" points="187.44 136.45 208.98 156.67 234.85 139.59 207.92 136.76 187.44 136.45"/><polygon class="cls-2" points="244.58 93.32 250.44 96.14 259.23 66.73 248.32 63.4 244.58 93.32"/><polygon class="cls-1" points="250.92 73.85 254.66 75.67 249.74 89.27 250.92 73.85"/><polygon class="cls-3" points="244.58 93.32 248.06 104.11 250.44 96.14 244.58 93.32"/><polygon class="cls-7" points="156.18 24.24 154.27 41.98 158.15 32.66 156.18 24.24"/><polygon class="cls-7" points="157.99 74.25 165.73 36.98 154.27 41.98 154.27 59.69 157.99 74.25"/><polygon class="cls-1" points="208.39 36.13 235.24 26.55 243.77 21.58 198.48 5.56 208.39 36.13"/><polygon class="cls-8" points="172.1 3.5 156.18 24.24 158.15 31.66 192.35 8.15 172.1 3.5"/><polygon class="cls-8" points="208.39 36.13 188.05 17.85 187.99 8.15 198.48 5.56 208.39 36.13"/><polygon class="cls-1" points="187.99 8.15 161.18 23.23 158.15 31.66 188.05 16.85 187.99 8.15"/><polygon class="cls-6" points="178.19 24.6 165.73 36.98 154.27 41.98 158.15 31.66 188.05 16.85 208.39 36.13 178.19 24.6"/><polygon class="cls-1" points="173.47 28.91 178.19 24.6 208.39 36.13 173.47 28.91"/><polygon class="cls-8" points="234.69 26.5 245.79 44.05 253.24 19.19 243.77 21.58 234.69 26.5"/><polygon class="cls-7" points="245.79 44.05 242.63 74.02 246.81 75.55 248.32 63.4 259.23 66.73 261.66 37.15 245.79 44.05"/><polygon class="cls-6" points="245.79 44.05 261.66 37.15 253.24 19.19 245.79 44.05"/><polygon class="cls-6" points="243.77 21.58 234.75 3.31 253.24 19.19 243.77 21.58"/><polygon class="cls-8" points="243.77 21.58 198.48 5.56 195.3 0.5 234.75 3.31 243.77 21.58"/><polygon class="cls-9" points="97.81 181.12 97.66 164.76 97.37 157.94 110.56 167.34 119.11 181.5 110.87 201.21 89.47 186.95 97.81 181.12"/><polygon class="cls-6" points="198.48 5.56 195.3 0.5 172.1 3.5 187.99 8.15 198.48 5.56"/><polygon class="cls-10" points="158.4 151.33 127.56 211.26 159.59 223.08 163.43 220.66 158.4 151.33"/><polygon class="cls-11" points="119.11 181.5 104.98 204.23 144.48 247.41 162.59 223.08 119.11 181.5"/><polygon class="cls-12" points="161.18 23.23 159.12 20.4 156.18 24.24 158.15 32.66 161.18 23.23"/><polygon class="cls-13" points="116.45 388.09 212 374.18 304.85 392.82 211.83 400.5 116.45 388.09"/><polygon class="cls-14" points="208.83 292.67 191.28 373.52 178.76 327.93 162.74 363.21 161.41 270.38 181.04 245.78 208.83 292.67"/><polygon class="cls-14" points="208.83 289.68 233.96 369.2 244.03 356.58 261.25 372.19 261.87 275.79 247.74 239.45 208.83 289.68"/><polygon class="cls-5" points="208.83 292.67 161.41 270.38 247.74 249.76 261.87 275.79 208.83 292.67"/><polygon class="cls-15" points="243.01 146.09 207.11 148.09 184.22 143.38 171.76 169.3 203.42 221.16 244.74 175.61 243.01 146.09"/><polygon class="cls-16" points="241.28 137.7 243.01 146.09 226.88 169.63 207.11 148.09 183.64 164.56 184.22 143.38 187.44 136.45 208.95 143.02 241.28 137.7"/><polygon class="cls-14" points="207.11 148.09 233.53 146.34 226.88 169.63 209.32 157.74 205.83 156 200.59 156.5 183.64 164.56 186.23 144.29 207.11 148.09"/><polygon class="cls-5" points="207.31 148.22 209.52 157.86 200.59 156.5 207.31 148.22"/><polygon class="cls-16" points="204 174.45 206.86 179.61 202.43 183.6 198.01 178.61 204 174.45"/><polygon class="cls-16" points="200.15 195.56 202.28 191.07 209.02 196.72 203.54 200.05 200.15 195.56"/><polygon class="cls-11" points="184.22 143.38 158.4 151.33 159.13 206.7 160.07 240.46 161.41 270.38 204.59 280.09 204.67 260.41 211.33 236.13 203.42 221.16 171.76 163.3 184.22 143.38"/><polygon class="cls-17" points="243.01 146.09 271.56 151.74 266.62 235.78 247.74 249.76 243.03 273.38 204.59 280.09 204.67 260.41 203.42 221.16 242.74 170.28 243.01 146.09"/><polygon class="cls-10" points="184.22 143.38 181.28 169.51 203.42 221.16 165.02 187.07 174.75 180.61 162.15 173.63 184.22 143.38"/><polygon class="cls-10" points="243.01 146.09 257.49 182.27 240.74 187.26 248.97 198.55 203.42 221.16 233.53 168.45 243.01 146.09"/><polygon class="cls-10" points="210.5 232.38 216.12 227.64 220.66 233.68 214.66 238.12 210.5 232.38"/><polygon class="cls-10" points="215.15 243.78 218.83 248.44 213.72 253.99 208.25 248.91 215.15 243.78"/><polygon class="cls-10" points="271.56 151.74 299.19 221.16 277.55 219.66 265.72 211.26 271.56 151.74"/><polygon class="cls-11" points="265.72 211.26 247.74 249.76 260.63 259.07 268.72 261.07 299.19 221.16 265.72 211.26"/><polygon class="cls-1" points="247.74 249.76 261.87 275.79 268.72 261.07 247.74 249.76"/><polygon class="cls-5" points="219.57 323.67 261.55 325.66 261.25 372.19 249.74 373.52 233.96 369.2 219.57 323.67"/><polygon class="cls-5" points="161.98 310.68 201.71 325.51 191.28 373.52 177.76 372.25 162.74 363.21 161.98 310.68"/><polygon class="cls-11" points="233.96 369.2 227.3 387.82 246.09 390.44 263.87 387.82 261.25 372.19 233.96 369.2"/><rect class="cls-17" x="227.3" y="387.82" width="36.57" height="5.24"/><polygon class="cls-17" points="190.74 386.08 177.88 386.08 177.05 382.33 160.24 386.08 136.7 386.08 136.7 380.84 162.99 377.96 190.74 380.84 190.74 386.08"/><polygon class="cls-11" points="162.74 363.21 136.7 380.84 171.65 380.84 190.74 380.84 191.28 373.52 162.74 363.21"/><polygon class="cls-18" points="118.44 136.35 79.93 137.18 81.07 150.41 97.37 157.94 100.2 159.95 100.15 158.51 117.17 150.79 118.44 136.35"/><polygon class="cls-19" points="115.42 139.94 82.82 140.6 83.37 149.36 99.25 156.17 114.97 149.61 115.42 139.94"/><polygon class="cls-20" points="100.07 181.47 106.39 186.93 89.47 186.95 97.81 181.12 97.65 164.77 99.88 166.74 100.07 181.47"/><polygon class="cls-21" points="86.51 155.64 97.65 164.77 97.81 181.12 89.47 186.95 86.51 155.64"/><polygon class="cls-22" points="99.88 166.74 103.91 170.56 100.07 181.47 99.88 166.74"/><polygon class="cls-23" points="106.82 153.01 102.27 154.91 103.25 136.66 107.69 136.51 106.82 153.01"/></svg>