<svg id="Layer_1" data-name="Layer 1" xmlns="http://www.w3.org/2000/svg" viewBox="0 0 400 400"><defs><style>.cls-1{fill:#f4c9b2;}.cls-1,.cls-10,.cls-11,.cls-12,.cls-13,.cls-14,.cls-15,.cls-16,.cls-17,.cls-18,.cls-19,.cls-2,.cls-20,.cls-21,.cls-22,.cls-23,.cls-24,.cls-25,.cls-26,.cls-27,.cls-28,.cls-3,.cls-4,.cls-5,.cls-6,.cls-7,.cls-8,.cls-9{fill-rule:evenodd;}.cls-2{fill:#fce3d4;}.cls-3{fill:#c1907d;}.cls-4{fill:#ffefe7;}.cls-5{fill:#754f40;}.cls-6{fill:#545454;}.cls-7{fill:#6b6b6b;}.cls-13,.cls-8{fill:#2b2b2b;}.cls-9{fill:#785d87;}.cls-10{fill:#a587b9;}.cls-11{fill:#696969;}.cls-12{fill:#8a8a8a;}.cls-13{opacity:0.1;}.cls-14{fill:#734d60;}.cls-15{fill:#95637c;}.cls-16{fill:#543042;}.cls-17{fill:#d0a0b7;}.cls-18{fill:#e3e3e3;}.cls-19{fill:#525254;}.cls-20{fill:#8f759f;}.cls-21{fill:#fff;}.cls-22{fill:#594165;}.cls-23{fill:#ccc;}.cls-24{fill:#e6e6e6;}.cls-25{fill:#5ebfd8;}.cls-26{fill:#73cee4;}.cls-27{fill:#3a9fb9;}.cls-28{fill:#318ea5;}</style></defs><title>analysts_INTJ_famous_fictional_walter_white_breaking_bad</title><polygon class="cls-1" points="176.95 150.6 198.57 172.89 227.39 147.97 236.72 108.95 237 88.6 244.53 73.53 246.26 40.7 225.86 13.14 185.37 48.73 176.95 150.6"/><polygon class="cls-2" points="114.35 35.94 117.92 122.74 131.9 150.41 153.64 143.86 182.43 150.57 211.44 115.22 212.2 41.19 225.86 13.14 177.61 0 137.59 12.76 114.35 35.94"/><polygon class="cls-3" points="141.28 120.86 168.89 119.9 168.64 122.72 141.26 123.29 141.28 120.86"/><polygon class="cls-2" points="244.5 73.53 225.49 72.52 223.39 96.51 239.31 99.11 244.5 73.53"/><polygon class="cls-3" points="229.41 86.93 230.25 76.23 239.33 76.97 229.41 86.93"/><polygon class="cls-3" points="236.72 108.95 223.39 96.51 239.32 99.11 236.72 108.95"/><polygon class="cls-4" points="145.26 100.53 151.38 69.9 159.65 69.81 163.9 99.71 145.26 100.53"/><polygon class="cls-3" points="145.26 100.53 154.07 107.93 163.9 99.71 145.26 100.53"/><polygon class="cls-1" points="119.3 69.62 118.81 78.4 120.85 80.38 135.67 80.77 139.35 88.63 145.9 97.32 151.38 69.9 148.39 69.93 119.3 69.62"/><polygon class="cls-1" points="163.9 99.71 176.08 81.18 197.79 77.25 199.52 67.75 184.01 67.58 163.74 68.42 159.65 69.81 163.9 99.71"/><path class="cls-5" d="M131.9,150.41,127,140.74l5.93-26.21,15.59-6.61,5.86,3.12,5.94-3.25,17.55,5.89,11.5,28.42-7,8.48-24.74.13Zm7.25-29.47,32.48-1.13,1,11.48-10.66.51-7.2-4.58-6.52,4.69-9.32.72Z"/><polygon class="cls-6" points="244.53 73.53 201.44 66.25 199.73 68.21 201.32 69.83 225.48 72.52 244.53 73.53"/><polygon class="cls-5" points="124.91 67.94 125.12 71.54 146.91 73.73 148.68 67.41 124.91 67.94"/><path class="cls-7" d="M120.73,70.54l26.41-.19-1.27,12-6.52,6.29-14.76.2-3.74-8.45Zm-2.85-2.42L150,67.38l1.8,1.86-2.14,1L148,84.58l-7.42,6.58-18,.07-4.29-10Z"/><polygon class="cls-5" points="165.46 73.4 190.68 70.2 191.5 66.45 163.74 67.08 165.46 73.4"/><path class="cls-7" d="M166.73,69.69l31.11-1.07.09,12.86-4.77,7.27-22.29.41-4.26-4Zm-3-2.61,37.69-.83-.21,15.64-6.48,10.22-25.12.16-5.74-5.79-.14-16.71-1.06-1.55Z"/><polygon class="cls-6" points="149.63 70.41 163.74 69.77 163.74 68.26 163.74 67.08 150 67.39 149.63 70.41"/><path class="cls-8" d="M136,73.75a4.78,4.78,0,1,1-4.78,4.77A4.77,4.77,0,0,1,136,73.75"/><path class="cls-8" d="M175.16,74a4.78,4.78,0,1,1-4.78,4.78A4.78,4.78,0,0,1,175.16,74"/><path class="cls-3" d="M181.37,97.29a1.84,1.84,0,1,1-1.84,1.84,1.85,1.85,0,0,1,1.84-1.84"/><polygon class="cls-1" points="136.81 105.8 127.38 110.39 125.85 125.44 136.81 105.8"/><polygon class="cls-1" points="174.62 104 188.2 128.22 185.23 109.4 174.62 104"/><polygon class="cls-1" points="131.6 55.64 150.91 58.18 182.11 52.57 131.6 55.64"/><polygon class="cls-1" points="133.56 47.18 152.88 49.72 184.07 44.11 133.56 47.18"/><polygon class="cls-1" points="201.9 81.24 208.65 84.42 208.87 80.81 201.9 81.24"/><polygon class="cls-1" points="200.61 84.73 205.92 90.76 207.62 86.7 200.61 84.73"/><polygon class="cls-9" points="146.75 271.68 136.08 281 124.13 258.61 141.67 214.53 154.82 221.29 156.81 236.36 156.8 251.7 146.75 271.68"/><polygon class="cls-10" points="148.95 267.3 124.13 258.61 120.92 261.9 122.21 264.55 132.91 274.36 147.02 273.05 148.95 267.3"/><polygon class="cls-11" points="107.35 311.04 112 296.07 127.03 281.97 122.21 264.55 124.13 258.61 117.43 259.16 100.59 278.6 94.75 298.44 101.77 309.46 107.35 311.04"/><polygon class="cls-11" points="142.45 286.68 129.11 287.2 123.48 280.88 124.83 271.03 135.35 268.74 147.02 273.05 142.45 286.68"/><polygon class="cls-3" points="130.59 283.05 122.61 288.72 119.08 298.52 139.92 294.47 142.45 286.68 130.59 283.05"/><polygon class="cls-2" points="127.95 290.44 130.59 283.05 126.02 278.29 119.68 279.51 115.99 283.73 116.43 291.27 122.61 288.72 127.95 290.44"/><polygon class="cls-1" points="119.08 298.52 122.61 288.72 115.99 283.73 112 296.07 119.08 298.52"/><polygon class="cls-2" points="115.99 283.73 126.02 278.29 135.35 268.74 122.21 264.55 118.99 274.48 115.99 283.73"/><polygon class="cls-12" points="101.77 309.47 117.43 259.16 106.04 260.1 100.59 278.6 106.75 280.31 100.43 299.87 94.75 298.44 92.29 306.79 101.77 309.47"/><polygon class="cls-13" points="87.4 373.2 223.09 361.2 312.6 373.27 227.74 400 87.4 373.2"/><polygon class="cls-14" points="223.07 296.88 247.18 334.21 248.29 357.02 242.05 370.6 227.7 362.09 210.35 329.92 223.07 296.88"/><polygon class="cls-14" points="243.28 315.16 246.38 317.96 247.18 334.21 228.65 325.47 243.28 315.16"/><polygon class="cls-14" points="150.23 354.25 149.54 316.2 168.65 302.96 184.41 326.3 176.12 355.38 163.77 361.1 150.23 354.25"/><polygon class="cls-15" points="149.54 316.2 148.84 277.25 175.02 278.89 194.4 278.18 244.18 272.81 246.38 317.97 228.65 325.47 210.35 329.92 192.7 297.21 184.41 326.3 149.54 316.2"/><polygon class="cls-16" points="150.22 354.25 125.52 370.5 146.79 374.79 176.89 369.86 176.11 355.38 150.22 354.25"/><polygon class="cls-17" points="125.52 370.5 176.89 369.86 177.27 376.9 125.52 376.9 125.52 370.5"/><polygon class="cls-16" points="218.42 380.37 227.7 362.09 248.29 357.02 258.9 379.99 239.29 385.77 218.42 380.37"/><polygon class="cls-17" points="218.42 380.37 258.9 379.99 258.9 387.24 218.12 387.24 218.42 380.37"/><polygon class="cls-18" points="166.37 152.1 184.2 166.88 189.58 193.93 198.8 166.88 227.39 147.97 226.6 261.41 173.75 258.22 167.53 249.25 166.37 152.1"/><polygon class="cls-19" points="173.52 254.93 200.17 254.93 203.46 259.77 198.25 262.33 174.05 262.64 169.57 259.92 173.52 254.93"/><polygon class="cls-14" points="148.84 277.25 192.7 297.21 244.19 272.81 236.19 266.36 198.43 261.64 173.99 261.64 148.77 263.83 148.84 277.25"/><path class="cls-20" d="M145.16,162.93l18.66-8-3,30.74,9.45,22.71,4.14,60.41-14.3,5.69-11.34-7.19-.21-35.82-3.35-17.53Zm82.23-15,14,7.44,17.47,65.28-8.53,3.92-6.62,37.72-30.5,10.88-16.4-4.76,15-59.35,14.53-21.49Z"/><path class="cls-10" d="M174.42,268.78l.6,10.11-26.18-1.64-.06-10Zm22.35-.33,46.9-6.12.52,10.48-49.79,5.37Z"/><polygon class="cls-21" points="167.12 184.32 182.77 167.71 163.82 154.93 167.12 184.32"/><polygon class="cls-21" points="218.77 181.81 198.8 166.88 227.39 147.97 218.77 181.81"/><polygon class="cls-10" points="170.28 208.37 149 185.33 163.82 154.93 170.28 208.37"/><polygon class="cls-10" points="211.82 209.1 234.92 191.32 227.39 147.97 211.82 209.1"/><polygon class="cls-22" points="241.35 155.41 258.34 165.24 268.65 213.06 254.62 233.8 240.59 219.28 241.35 155.41"/><polygon class="cls-22" points="141.67 214.53 145.16 162.93 148.57 231.46 141.67 214.53"/><polygon class="cls-3" points="211.98 150.39 157.71 150.72 163.82 154.93 183.4 168.12 189.49 197.2 202.85 169.42 211.98 150.39"/><polygon class="cls-3" points="234.11 283.97 247.56 275.86 242.57 262.73 230.62 274.27 234.11 283.97"/><polygon class="cls-23" points="230.62 274.27 238.22 273.64 262.2 275.82 267.05 315.88 228.65 325.47 230.62 274.27"/><polygon class="cls-10" points="266.29 250.02 265.56 261.31 252.67 268.27 242.82 262.91 242.39 254.54 251.75 243.75 266.29 250.02"/><polygon class="cls-9" points="240.59 219.28 268.66 213.06 266.29 250.02 242.39 254.54 240.59 219.28"/><polygon class="cls-24" points="232.86 293.27 260.91 288.07 264.21 314.23 231.34 322.83 232.86 293.27"/><polygon class="cls-1" points="242.57 262.73 265.62 261.31 262.2 275.82 238.22 273.64 242.57 262.73"/><polygon class="cls-3" points="262.2 275.82 253.81 289.39 232.86 293.27 238.22 273.64 262.2 275.82"/><polygon class="cls-25" points="234.44 305.65 238.12 305.43 239.71 306.24 239.52 307.75 238.79 308.86 236.18 309.02 234.03 307.77 234.44 305.65"/><polygon class="cls-25" points="234.98 310.19 236.18 309.02 241.66 310.29 240.69 312.74 237.22 313.37 234.98 310.19"/><polygon class="cls-26" points="241.71 314.51 244.33 314.06 247.2 315.75 245.99 317.47 242.07 316.48 241.71 314.51"/><polygon class="cls-26" points="249.75 313.41 252.21 310.82 256.73 311.2 255.94 314.28 251.67 315.44 249.75 313.41"/><polygon class="cls-25" points="244.33 314.06 245.75 310.46 251.31 311.76 249.75 313.41 247.2 315.75 245.11 315.53 244.33 314.06"/><polygon class="cls-27" points="256.73 311.2 256.48 309.4 258.46 308.08 262.3 308.99 263.05 311.6 258.4 313.37 256.73 311.2"/><polygon class="cls-28" points="244.03 308.29 241.66 310.29 240.69 312.74 241.71 314.51 244.33 314.06 245.97 312.71 245.75 310.46 244.03 308.29"/><polygon class="cls-26" points="239.52 307.75 244.03 308.29 241.66 310.29 239.17 311.08 236.18 309.02 239.52 307.75"/><polygon class="cls-27" points="244.03 308.29 246.74 306.08 248.85 307.54 252.21 310.82 251.31 311.76 248 312.14 244.28 309.95 244.03 308.29"/><polygon class="cls-27" points="238.12 305.43 239.13 304.11 241.03 303.6 243.2 303.63 243.96 305.06 244.88 306.47 244.03 308.29 241.18 309.07 239.52 307.75 238.12 305.43"/><polygon class="cls-25" points="248.85 307.54 253.19 305.83 256.18 305.91 258.46 308.08 256.73 311.2 254.72 311.87 251.31 311.76 248.85 307.54"/><polygon class="cls-26" points="243.96 305.06 244.94 304.17 246.12 304.23 247.4 303.88 249.51 305.36 248.85 307.54 244.03 308.29 243.96 305.06"/><polygon class="cls-25" points="258.46 308.08 260.08 304.6 261.79 304.93 262.3 308.99 259.83 309.74 258.46 308.08"/><polygon class="cls-26" points="253.19 305.83 254.81 303.39 256.95 303.57 258.46 308.08 253.19 305.83"/><polygon class="cls-27" points="254.81 303.39 251.07 302.46 247.4 303.88 248.85 307.54 253.19 305.83 254.81 303.39"/><polygon class="cls-25" points="247.4 303.88 243.65 300.01 243.17 300.82 241.66 302.1 241.03 303.6 243.96 305.06 246.12 304.23 247.4 303.88"/><polygon class="cls-26" points="235.47 305.59 234.82 303.53 235.79 301.11 238.84 302.47 238.12 305.43 236.83 306.39 235.47 305.59"/><polygon class="cls-26" points="238.84 302.47 240.35 300.91 243.17 300.82 244.33 302.32 242.59 303 241.03 303.6 238.84 302.47"/><polygon class="cls-27" points="256.95 303.57 258.98 302.55 260.08 304.6 258.46 308.08 256.48 306.19 256.95 303.57"/><polygon class="cls-25" points="238.12 305.43 239.69 304.44 241.03 303.6 238.84 302.47 237.45 303.78 238.12 305.43"/><polygon class="cls-26" points="244.55 305.89 245.9 304.45 247 303.29 251.53 303.67 250.74 306.76 248.85 307.54 246.47 307.92 244.55 305.89"/><polygon class="cls-27" points="251.53 303.67 251.27 301.87 253.25 300.54 257.1 301.46 257.84 304.06 253.19 305.83 251.53 303.67"/><polygon class="cls-25" points="243.65 300.01 245.91 297.47 247.99 298.3 250.98 298.38 253.25 300.54 251.53 303.67 249.52 304.34 246.12 304.23 243.65 300.01"/><polygon class="cls-25" points="253.25 300.54 254.88 297.07 256.59 297.41 257.1 301.46 254.63 302.21 253.25 300.54"/><polygon class="cls-26" points="247.99 298.3 249.61 295.86 251.74 296.04 253.25 300.54 247.99 298.3"/><polygon class="cls-27" points="249.61 295.86 245.87 294.93 242.2 296.34 243.65 300.01 247.99 298.3 249.61 295.86"/><polygon class="cls-27" points="251.74 296.04 253.78 295.02 254.88 297.07 253.25 300.54 251.28 298.67 251.74 296.04"/></svg>