<svg id="illustration_layer_copy_3" data-name="illustration_layer copy 3" xmlns="http://www.w3.org/2000/svg" viewBox="0 0 400 400"><defs><style>.cls-1,.cls-20,.cls-26{fill:#2b2b2b;}.cls-1{opacity:0.1;}.cls-2{fill:#594165;}.cls-3{fill:#c1907d;}.cls-4{fill:#95637c;}.cls-5{fill:#d0a0b7;}.cls-6{fill:#734d60;}.cls-7{fill:#b2879c;}.cls-8{fill:#f4c9b2;}.cls-9{fill:#fce3d4;}.cls-10{fill:#8f759f;}.cls-11{fill:#a587b9;}.cls-12{fill:#785d87;}.cls-13{fill:#a0a0a0;}.cls-14{fill:#bfbfbf;}.cls-15{fill:#dddddc;}.cls-16{fill:#898989;}.cls-17{fill:#c4c4c4;}.cls-18{fill:#737474;}.cls-19{fill:#a3a2a2;}.cls-21{fill:#ffefe7;}.cls-22{fill:#969696;}.cls-23{fill:#eaeaea;}.cls-24{fill:#b2b2b2;}.cls-25{fill:#cecece;}.cls-26{opacity:0.2;}.cls-27{fill:#4f5253;}</style></defs><title>analysts_INTJ_famous_fictional_gandalf_the_lord_of_the_rings</title><polygon class="cls-1" points="76.17 376.64 168.43 361.61 228.48 354.89 307.54 365.74 345.22 374.48 221.51 400 76.17 376.64"/><polygon class="cls-2" points="115.15 260.84 101.53 255.52 93.3 235.09 106.88 210.28 113.77 231.56 115.15 260.84"/><polygon class="cls-3" points="111.02 235.61 95.86 238.45 92.07 208.78 106.88 210.28 111.87 224.39 111.02 235.61"/><polygon class="cls-4" points="118.79 378.71 101.53 255.52 93.3 223.62 94.34 203.43 86.75 148.49 79.59 138.94 75.47 154.47 83.02 208.78 88.19 222.17 87.72 242.54 106.91 378.71 118.79 378.71"/><polygon class="cls-5" points="83.28 123.39 77.33 125.8 72.43 132.58 75.47 154.47 86.75 148.49 83.28 123.39"/><polygon class="cls-6" points="72.43 132.58 64.67 127.09 72.43 111.08 90 92.9 83.28 123.39 72.43 132.58"/><polygon class="cls-7" points="90 92.9 81.73 86.88 59.34 114.24 75.3 112.74 90 92.9"/><polygon class="cls-6" points="55.55 109.94 57.96 95.7 79.59 64.83 81.73 86.88 62.6 113.14 55.55 109.94"/><polygon class="cls-4" points="75.3 112.74 55.55 109.94 64.67 127.09 75.3 112.74"/><polygon class="cls-7" points="79.59 64.83 63.47 76.97 50.04 95.7 55.55 109.94 79.59 64.83"/><polygon class="cls-4" points="50.04 95.7 54.52 76.97 59.34 75.16 64.81 80.27 50.04 95.7"/><polygon class="cls-5" points="54.52 76.97 59.34 60.35 64.81 80.27 54.52 76.97"/><polygon class="cls-4" points="79.59 64.83 51.76 48.29 64.81 80.27 79.59 64.83"/><polygon class="cls-8" points="111.13 222.58 101.54 223.62 96.1 216.17 92.88 211.84 94.34 203.43 106.88 210.28 111.13 222.58"/><polygon class="cls-6" points="87.72 242.54 101.53 255.52 96.1 216.17 89.44 215.72 85.35 225.53 87.72 242.54"/><polygon class="cls-8" points="93.3 237.76 78.37 240 77.33 213.52 83.02 208.78 90 213.52 91.03 224.5 93.3 237.76"/><polygon class="cls-9" points="94.34 203.43 83.02 208.78 85.35 225.53 91.03 224.5 96.1 216.17 94.34 203.43"/><polygon class="cls-9" points="83.02 208.78 78.37 240 74.67 210.28 83.02 208.78"/><polygon class="cls-10" points="163.63 185.06 146.28 214.34 150.97 228.64 163.63 240 183.05 205.9 173.22 175.73 163.63 185.06"/><polygon class="cls-11" points="146.28 214.34 106.88 210.28 115.15 260.84 163.63 240 146.28 214.34"/><polygon class="cls-6" points="163.63 240 155.11 330.95 170.49 346.09 195.66 278.24 184.37 227 163.63 240"/><polygon class="cls-4" points="163.63 240 170.49 346.09 146.32 334.22 163.63 240"/><polygon class="cls-6" points="301.52 224.39 295.69 268.59 304.99 347.66 307.54 365.74 278.13 370.13 253.23 319.37 247.71 255.52 301.52 224.39"/><polygon class="cls-4" points="295.69 268.59 286.01 245.74 275.56 247.97 284.54 271.46 290.49 274.37 295.69 268.59"/><polygon class="cls-4" points="168.43 361.61 144.08 378.66 193.46 378.66 168.43 361.61"/><polygon class="cls-6" points="232.62 383.83 260.67 390.6 280.16 383.83 260.01 365.74 232.62 383.83"/><polygon class="cls-10" points="183.05 258.6 183.05 344.04 194.69 367.48 232.62 383.83 260.01 371.94 270.51 369.53 263.28 277.03 240.54 243.66 183.05 258.6"/><polygon class="cls-12" points="201.89 308.89 232.62 383.83 193.46 378.66 193.46 378.66 188.53 342.83 201.89 308.89"/><polygon class="cls-12" points="198.81 258.6 235.98 292.47 231.96 297.88 212.85 283.02 198.81 258.6"/><polygon class="cls-11" points="183.05 258.6 201.89 308.89 193.46 378.66 168.43 361.61 183.05 258.6"/><polygon class="cls-12" points="239.15 344.9 260.01 371.94 280.16 383.83 263.28 277.03 242.91 252.57 227.15 258.6 236.78 283.75 239.15 344.9"/><polygon class="cls-10" points="180.27 237.53 182.08 251.18 271.21 262.97 277.75 154.48 249.68 133.01 180.27 237.53"/><polygon class="cls-12" points="249.41 179.8 259.83 220.15 271.93 210.28 249.41 179.8"/><polygon class="cls-12" points="249.41 179.8 242.61 208.78 240.54 243.66 227.15 258.6 202.78 252.99 182.08 251.18 180.27 237.53 196.75 232.2 209.88 224.39 214.97 203.43 249.41 179.8"/><polygon class="cls-4" points="183.05 258.6 227.15 258.6 256.04 237.35 221.51 244.89 182.08 251.18 183.05 258.6"/><polygon class="cls-6" points="227.15 258.6 256.04 237.35 221.51 244.89 227.15 258.6"/><polygon class="cls-7" points="180.27 237.53 191.37 249.7 197.93 252.57 206.66 247.26 196.75 235.09 186.36 233.17 180.27 237.53"/><polygon class="cls-4" points="277.75 154.48 266.89 171.28 249.41 179.8 256.04 148.19 277.75 154.48"/><polygon class="cls-2" points="299.14 33.9 253.14 78.07 234.89 56.53 299.14 33.9"/><polygon class="cls-2" points="195.73 0.67 236.65 11.63 208.95 27.69 195.73 0.67"/><polygon class="cls-13" points="141.07 150.9 163.63 185.06 173.22 182.47 168.43 159.91 156.05 143.37 141.07 150.9"/><polygon class="cls-14" points="145.09 117.86 141.07 150.9 155.67 147.61 158.27 114.61 145.09 117.86"/><polygon class="cls-13" points="152.75 92.3 143.4 102.53 141.07 109.99 146.73 118.15 155.67 122.24 158.96 112.6 152.75 92.3"/><polygon class="cls-15" points="155.67 122.24 141.07 150.9 141.07 109.99 155.67 122.24"/><polygon class="cls-16" points="153.75 102.53 143.4 102.53 147.28 90.09 155.67 90.34 153.75 102.53"/><polygon class="cls-17" points="264.51 90.34 280.16 119.68 265.01 128.6 259.71 145.97 253.14 113.47 264.51 90.34"/><polygon class="cls-9" points="154.94 93.35 153.75 102.53 155.67 122.24 166.26 144.51 212.62 141.59 240 122.97 238.45 102.53 227.22 70.49 154.94 93.35"/><polygon class="cls-8" points="219.52 71.64 231.71 128.6 240 122.97 240.73 102.53 240 86.1 229.41 68.58 219.52 71.64"/><polygon class="cls-3" points="153.75 102.53 180.14 100.55 187.07 99.64 191.45 94.49 203.27 91.94 236.65 79.31 229.41 68.58 152.75 90.17 153.75 102.53"/><polygon class="cls-8" points="212.26 98.59 187.39 126.41 159.48 102.11 169.55 99.17 180.14 100.55 187.07 99.64 191.45 94.49 203.68 90.34 212.26 98.59"/><polygon class="cls-18" points="159.48 102.11 180.14 100.55 179.04 96.23 158.96 96.23 159.48 102.11"/><polygon class="cls-18" points="191.45 94.49 190.13 89.66 204.91 85.69 209.27 89.64 208.95 94.11 203.27 91.94 191.45 94.49"/><polygon class="cls-19" points="209.27 89.64 203.27 91.94 212.26 98.59 214.63 94.49 209.27 89.64"/><circle class="cls-20" cx="198.13" cy="102.07" r="3.35"/><circle class="cls-20" cx="169.55" cy="106.63" r="3.35"/><polygon class="cls-8" points="202.33 109.99 208.33 117.86 213.94 112.52 208.14 112.66 202.33 109.99"/><polygon class="cls-8" points="171.94 112.6 168.22 123.61 161.79 120.87 166.87 119.09 171.94 112.6"/><polyline class="cls-21" points="187.07 99.64 186.99 100.22 185.06 115.26 187.39 126.41 180.14 127.85 177.34 117.15 180.14 100.55"/><polygon class="cls-15" points="155.67 122.24 169.55 139.94 180.14 127.85 187.39 126.41 211.34 129.9 228.72 114.61 256.43 115.67 240 154.82 219.52 161.39 173.22 182.47 155.67 147.61 155.67 122.24"/><polygon class="cls-19" points="187.39 126.41 184.85 132.44 180.14 127.85 187.39 126.41"/><polygon class="cls-19" points="171.94 147.97 177.34 147.97 187.39 142.41 199.66 142.5 212.85 133.01 214.63 139.13 201.12 145.42 188.35 146.15 178.49 150.9 171.94 147.97"/><polygon class="cls-14" points="228.72 114.61 223.61 154.34 247.21 152.63 256.04 148.19 256.43 115.67 248.4 102.07 237.12 106.16 228.72 114.61"/><polygon class="cls-14" points="173.22 182.47 218.11 155.38 223.61 154.34 235.98 169.73 230.03 197.11 218.11 207.45 193.14 201.76 173.22 182.47"/><polygon class="cls-22" points="223.61 154.34 256.04 148.19 249.41 179.8 230.03 197.11 223.61 154.34"/><polygon class="cls-15" points="173.22 182.47 202.78 198.92 208.44 220.15 188.53 224.39 180.96 224.39 176.55 208.78 173.22 182.47"/><polygon class="cls-23" points="176.55 208.78 163.63 240 180.27 237.53 188.53 224.39 176.55 208.78"/><polygon class="cls-13" points="229.41 68.58 231.97 81.07 238.45 91.57 237.12 106.16 256.43 115.67 267.38 81.35 256.43 78.16 253.67 68.58 240.73 56.53 229.41 68.58"/><polygon class="cls-16" points="280.16 119.68 277.75 154.48 256.04 148.19 266.65 129.42 280.16 119.68"/><polygon class="cls-15" points="267.38 81.35 237.12 106.16 231.97 81.07 253.66 68.58 267.38 81.35"/><polygon class="cls-13" points="280.16 119.68 256.43 115.67 256.04 148.19 280.16 119.68"/><polygon class="cls-11" points="89.96 94.11 190.13 89.66 193.38 72.59 190.13 56.53 152.75 62.37 89.96 94.11"/><polygon class="cls-10" points="185.87 62.37 202.33 48.13 226.86 38.64 299.14 33.9 190.13 89.66 185.87 62.37"/><polygon class="cls-10" points="185.87 62.37 196.88 38.64 195.73 0.67 166.2 14.55 152.75 62.37 185.87 62.37"/><polygon class="cls-12" points="195.73 0.67 226.86 38.64 185.87 62.37 195.73 0.67"/><polygon class="cls-22" points="218.11 155.38 202.78 198.92 208.44 205.25 213.81 208.78 230.03 197.11 218.11 155.38"/><polygon class="cls-24" points="202.78 198.92 188.53 224.39 188.53 232.2 196.75 235.09 213.5 223.98 215.57 217 213.81 208.78 202.78 198.92"/><polygon class="cls-25" points="188.53 224.39 163.63 240 196.75 235.09 188.53 224.39"/><polygon class="cls-11" points="249.41 179.8 271.93 210.28 280.5 221.57 301.52 224.39 277.75 154.48 249.41 179.8"/><polygon class="cls-2" points="263.28 277.03 227.15 258.6 245.36 217.78 259.49 243.66 263.28 277.03"/><polygon class="cls-26" points="223.61 154.34 229.87 164.21 230.03 197.11 221.51 157.58 223.61 154.34"/><polygon class="cls-7" points="212.85 133.01 223.61 154.34 218.11 155.38 210.91 140.86 212.85 133.01"/><polygon class="cls-4" points="223.61 154.34 230.03 197.11 225.04 201.44 218.11 155.38 223.61 154.34"/><polygon class="cls-5" points="230.03 197.11 242.61 208.78 228.21 211.84 213.81 208.78 224.41 197.28 230.03 197.11"/><polygon class="cls-27" points="224.82 199.97 229.52 199.97 235.98 205.9 220.99 205.9 224.82 199.97"/><polygon class="cls-4" points="242.61 208.78 227.15 225.53 219.87 220.15 213.81 208.78 242.61 208.78"/><polygon class="cls-9" points="245.36 217.78 242.61 208.78 235.98 215.97 237.1 228.64 249.84 227.23 245.36 217.78"/><polygon class="cls-9" points="221.51 244.89 213.5 223.98 213.81 208.78 227.15 225.53 228.21 235.09 221.51 244.89"/><polygon class="cls-8" points="247.71 225.53 227.15 225.53 221.51 244.89 247.71 240.81 254.49 232.2 247.71 225.53"/><polygon class="cls-3" points="247.71 225.53 247.71 240.81 252.14 240.19 253.23 232.2 247.71 225.53"/><polygon class="cls-11" points="271.93 210.28 245.36 217.78 263.28 277.03 301.52 224.39 271.93 210.28"/><polygon class="cls-5" points="206.66 247.26 191.37 249.7 231.96 297.88 238 297.53 236.78 283.75 206.66 247.26"/><polygon class="cls-4" points="231.96 297.88 239.15 344.9 260.01 357.65 252.28 313.03 236.78 283.75 231.96 297.88"/><polygon class="cls-7" points="246.13 316.34 266.44 290.5 304.99 295.55 304.99 347.66 260.01 357.65 246.13 316.34"/><polygon class="cls-5" points="236.78 283.75 246.13 316.34 304.99 295.55 295.69 268.59 236.78 283.75"/></svg>