<svg id="Layer_1" data-name="Layer 1" xmlns="http://www.w3.org/2000/svg" viewBox="0 0 400 400"><defs><style>.cls-1{opacity:0.15;}.cls-2{fill:#070908;}.cls-10,.cls-11,.cls-12,.cls-13,.cls-14,.cls-15,.cls-16,.cls-17,.cls-19,.cls-2,.cls-20,.cls-21,.cls-22,.cls-23,.cls-24,.cls-25,.cls-26,.cls-27,.cls-4,.cls-5,.cls-6,.cls-7,.cls-8,.cls-9{fill-rule:evenodd;}.cls-18,.cls-3{fill:none;}.cls-3{stroke:#a587b8;stroke-miterlimit:2.61;stroke-width:0.22px;}.cls-4{fill:#dddddc;}.cls-5{fill:#c2c1c2;}.cls-6{fill:#543042;}.cls-7{fill:#393939;}.cls-8{fill:#4b4e4f;}.cls-9{fill:#795d88;}.cls-10{fill:#8f759f;}.cls-11{fill:#594265;}.cls-12{fill:#734d61;}.cls-13{fill:#95637c;}.cls-14{fill:#412b23;}.cls-15,.cls-17{fill:#2b2b2b;}.cls-16{fill:#b2879c;}.cls-17{opacity:0.2;}.cls-19{fill:#c18f7c;}.cls-20{fill:#f4cab2;}.cls-21{fill:#888787;}.cls-22{fill:#9c9fa0;}.cls-23{fill:#575758;}.cls-24{fill:#6d6e6e;}.cls-25{fill:#fbe3d4;}.cls-26{fill:#444648;}.cls-27{fill:#fff0e8;}</style></defs><title>analysts_INTJ_famous_fictional_professor_moriarty_sherlock_holmes</title><g class="cls-1"><polygon class="cls-2" points="89.75 385.88 179.92 400 283.91 388.04 191.19 375.37 89.75 385.88"/><polygon class="cls-3" points="89.75 385.88 179.92 400 283.91 388.04 191.19 375.37 89.75 385.88"/></g><polygon class="cls-4" points="169.52 152.77 182.9 163.65 185.77 172.53 172.44 196.37 167.44 193.81 161.25 178.28 169.52 152.77"/><polygon class="cls-5" points="192.82 164.07 220.24 154.73 211.92 184.04 198.22 197.25 191.34 196.29 187.36 172.62 192.82 164.07"/><polygon class="cls-6" points="219.36 149.91 213.8 148.78 190.17 157.71 187.35 161.94 189.27 165.28 196.39 166.02 215.53 159.93 220.24 154.73 219.36 149.91"/><polygon class="cls-6" points="176.58 317.72 180.75 323.08 200.73 323.01 203.19 315.77 191.14 284.5 184.9 287.63 176.58 317.72"/><polygon class="cls-7" points="213.59 384.41 221.9 381.67 246.43 381.67 254.33 384.41 254.33 391.44 213.59 391.44 213.59 384.41"/><polygon class="cls-7" points="117.46 378.81 131.09 376.18 159.79 376.18 169.97 378.81 169.97 385.58 117.46 385.58 117.46 378.81"/><polygon class="cls-8" points="117.46 378.81 169.97 378.81 169.97 362.13 164.15 357.44 153.15 355.36 146.07 358.37 117.46 378.81"/><polygon class="cls-9" points="188.23 293.1 169.97 362.61 157.66 360.43 153.65 355.37 153.09 282.9 158.32 278.63 184.9 287.63 188.23 293.1"/><polygon class="cls-10" points="158.33 278.55 157.96 284.32 157.66 360.43 146.07 358.37 139.97 320.64 149.67 320.53 146.01 274.46 158.33 278.55"/><polygon class="cls-8" points="218.65 365.86 213.59 384.41 254.33 384.41 243.63 365.86 239.57 362 226.27 361.59 218.65 365.86"/><polygon class="cls-9" points="188.23 293.1 191.14 284.5 219.65 271.07 227.14 320.97 231.29 324.9 234.14 361.97 231.51 365.86 218.65 365.86 188.23 293.1"/><polygon class="cls-10" points="243.63 365.86 247.64 318.02 242.49 316.92 227.15 320.97 231.51 365.86 243.63 365.86"/><polygon class="cls-6" points="157.96 284.32 188.23 293.1 203.91 284.11 203.77 279.77 179.5 260.26 172.43 260.26 158.33 278.55 157.96 284.32"/><polygon class="cls-9" points="155.8 195.77 162.45 191.47 180.43 204.63 179.49 260.26 175.75 263 157.96 284.32 150.83 282.25 146.02 274.46 144.16 253.23 155.8 195.77"/><polygon class="cls-11" points="207.64 192.71 177 207.5 175.75 263 203.91 284.11 213.59 278.6 219.65 271.07 216.08 246.58 212.34 196.16 207.64 192.71"/><polygon class="cls-6" points="181.99 172.32 168.89 196.7 177 207.5 195.09 197.11 190.54 172.8 186.98 170.37 181.99 172.32"/><polygon class="cls-6" points="172.19 158.84 178.66 165.28 184.9 165.28 187.35 161.94 185.52 156.9 177.21 149.59 174.09 150.82 169.52 152.77 172.19 158.84"/><polygon class="cls-11" points="157.88 186.78 160.79 195.38 177 207.5 165.78 180.14 159.12 182.09 157.88 186.78"/><polygon class="cls-9" points="206.93 182.48 177 207.5 207.95 197.37 211.92 191.86 211.92 184.04 206.93 182.48"/><polygon class="cls-12" points="178.66 165.28 181.99 172.32 190.54 172.8 196.68 165.93 187.36 161.94 178.66 165.28"/><polygon class="cls-13" points="141.25 159.42 128.56 223.5 139.31 237.38 143.12 234.07 144.99 165.28 141.25 159.42"/><polygon class="cls-9" points="288.1 296.42 276.4 296.12 274.31 289.6 289.88 266.56 298.41 262.51 304.35 262.61 310.25 266.96 288.1 296.42"/><polygon class="cls-10" points="279.69 231.35 279.48 236.91 295.43 267.38 310.25 266.96 292.85 229.35 279.69 231.35"/><polygon class="cls-14" points="261.26 243.66 275.95 263 260.86 286.65 255.79 284.02 251.93 263.61 261.26 243.66"/><polygon class="cls-9" points="268.51 226.71 260.49 245.47 262.22 251.94 270.13 263 273.67 266.57 289.88 266.56 298.77 262.33 274.85 223.5 268.51 226.71"/><polygon class="cls-11" points="270.13 263 298.77 262.33 265.97 311.86 261.39 310.59 254.75 287.52 270.13 263"/><polygon class="cls-6" points="268.26 221.88 244.77 235.64 251.2 264.4 255.58 266.91 274.85 223.5 268.26 221.88"/><polygon class="cls-13" points="274.85 223.5 250 233.12 247.62 227.19 259.09 168.55 263.94 162.75 274.85 223.5"/><polygon class="cls-15" points="171.18 249.12 176.17 244.65 181.16 249.32 175.95 254.12 171.18 249.12"/><polygon class="cls-15" points="171.88 217.72 176.87 213.25 181.86 217.92 176.66 222.72 171.88 217.72"/><polygon class="cls-13" points="125.65 314.89 154.28 326.39 148.23 248.9 143.53 237.31 139.31 237.38 125.65 314.89"/><polygon class="cls-6" points="139.31 237.38 148.23 248.9 149.03 229.19 145.27 169.71 140.98 169.95 139.31 237.38"/><polygon class="cls-6" points="167.39 149.91 141.25 159.42 140.98 169.95 145.27 169.71 159 161.37 167.39 149.91"/><polygon class="cls-13" points="211.41 248.05 217.12 328.29 265.97 311.86 250 233.12 240.82 232.03 218.78 239.75 211.41 248.05"/><polygon class="cls-6" points="226.89 146.52 263.94 162.75 250 233.12 211.41 248.05 213.38 231.22 236.87 176.23 225.23 152.77 226.89 146.52"/><polygon class="cls-5" points="237.55 186.24 249.76 195.63 245.19 198.81 228.21 201.26 232.49 190.03 237.55 186.24"/><polygon class="cls-12" points="232.71 197.68 249.76 195.63 250 201.87 229.78 204.6 228.21 201.26 232.71 197.68"/><polygon class="cls-16" points="206.93 182.48 214.14 176.24 234.65 171.75 242.27 175.05 211.41 248.05 206.93 182.48"/><polygon class="cls-16" points="140.98 169.95 149.35 169.08 161.41 173.15 165.78 180.14 148.23 248.9 140.98 169.95"/><polygon class="cls-17" points="148.23 248.9 150.83 282.25 161.71 196.07 148.23 248.9"/><polygon class="cls-17" points="165.77 180.14 170.98 192.82 172.19 158.84 165.77 180.14"/><polygon class="cls-17" points="246.83 327.66 227.52 324.79 247.64 318.02 246.83 327.66"/><polygon class="cls-17" points="141.17 328.06 154.28 326.39 139.97 320.64 141.17 328.06"/><rect class="cls-18" x="139.97" y="158.84" width="107.67" height="169.21"/><polygon class="cls-19" points="182.82 137.2 177.12 142.5 175.38 146.67 187.77 155.33 210.26 147.35 215.67 140.04 218.16 127.05 182.82 137.2"/><polygon class="cls-20" points="223.62 92.41 233.05 110.48 222.86 141.45 218.68 147.22 202.31 149.91 214.7 132.93 212.4 123.91 216.88 104.92 223.62 92.41"/><polygon class="cls-21" points="224.95 15.01 233.02 11.88 252.63 50.99 244.67 55.79 192.01 60.5 224.95 15.01"/><polygon class="cls-22" points="174.99 0 160.42 10.53 155.61 19.98 153.63 27.28 161.35 38.66 191.79 55.79 200.31 54.9 233.02 11.88 174.99 0"/><polygon class="cls-21" points="125.47 36.52 138.69 15.69 174.99 0 155.61 19.98 149.89 27.79 131.29 38.77 125.47 36.52"/><polygon class="cls-20" points="196.62 124.56 195.38 61.62 200.87 55.39 211.2 64.5 223.62 92.41 202.22 132.15 196.62 124.56"/><polygon class="cls-23" points="218.23 92.09 201.65 122.12 196.62 124.57 196.78 133.75 202.1 136.46 214.7 132.93 223.62 92.41 221.56 87.79 218.23 92.09"/><polygon class="cls-24" points="252.63 50.99 200.87 55.39 218.23 92.09 223.62 92.41 244.1 76.9 252.63 50.99"/><polygon class="cls-19" points="233.05 110.48 221.37 102.61 229.96 96.5 236.3 100.59 233.05 110.48"/><polygon class="cls-25" points="244.1 76.9 226.75 78.2 221.37 102.61 236.3 100.59 244.1 76.9"/><polygon class="cls-19" points="229.44 94.33 232.12 84.03 238.14 83.29 229.44 94.33"/><polygon class="cls-5" points="177.12 142.5 188.02 151.41 190.72 156.88 187.36 161.94 174.09 150.82 173.47 147.15 177.12 142.5"/><polygon class="cls-4" points="223.1 140.1 188.02 151.41 187.35 161.94 219.36 149.91 222.32 145.94 223.1 140.1"/><polygon class="cls-12" points="224.6 136.16 206.93 182.48 242.27 175.05 224.6 136.16"/><polygon class="cls-12" points="140.98 169.95 177.12 142.5 165.78 180.14 140.98 169.95"/><polygon class="cls-25" points="125.47 36.52 133.29 122.63 136.95 127.56 162.21 137.8 196.66 127.3 201.65 122.12 200.87 55.39 164.23 35.85 155.61 19.98 125.47 36.52"/><polygon class="cls-19" points="147.56 115.04 158.07 112.52 170.09 115.5 170.73 112.17 157.62 109.38 146.79 112.2 147.56 115.04"/><path class="cls-24" d="M133.3,122.63l6.52,2.53L138,107.78l18.83-8.07,24,7.4,3.65,19,17.19-4,.65,14.35-39.19,11.2-28.68-12.54Zm34.35,7.42,12.25-2.86-3.35-16.72-19.27-3.59-14.79,4,1.26,15.79,7.92,3.07,2.48-7.2,8.06.45Z"/><polygon class="cls-20" points="131.74 71.93 136.22 67.22 148.99 71.48 155.04 77.98 147.2 94.56 141.43 78.48 131.74 71.93"/><polygon class="cls-20" points="161.9 71.87 156.16 77.98 163.56 94.33 173.19 78.2 183.92 72.36 176.78 68.12 161.9 71.87"/><polygon class="cls-26" points="136 64.98 130.4 69.46 131.74 71.93 136.44 68.79 148.99 71.48 147.96 67.71 136 64.98"/><polygon class="cls-26" points="163.56 67.92 161.9 71.87 176.33 69.46 183.92 72.37 185.29 69.69 178.12 65.88 163.56 67.92"/><polygon class="cls-19" points="155.94 90.75 147.2 94.56 156.84 99.71 163.56 94.33 155.94 90.75"/><polygon class="cls-27" points="148.99 71.48 161.9 71.87 158.18 78.42 163.56 94.33 147.2 94.56 152.58 78.42 148.99 71.48"/><path class="cls-15" d="M177,77.79A3.79,3.79,0,1,1,173.18,74,3.79,3.79,0,0,1,177,77.79Z"/><path class="cls-15" d="M144.37,77.79A3.79,3.79,0,1,1,140.58,74,3.79,3.79,0,0,1,144.37,77.79Z"/></svg>