<svg id="Layer_1" data-name="Layer 1" xmlns="http://www.w3.org/2000/svg" xmlns:xlink="http://www.w3.org/1999/xlink" viewBox="0 0 400 400"><defs><style>.cls-1{fill:none;}.cls-2,.cls-23{fill:#696b6d;}.cls-10,.cls-11,.cls-12,.cls-13,.cls-14,.cls-15,.cls-16,.cls-17,.cls-18,.cls-19,.cls-2,.cls-21,.cls-22,.cls-24,.cls-25,.cls-26,.cls-29,.cls-3,.cls-30,.cls-4,.cls-5,.cls-7,.cls-8,.cls-9{fill-rule:evenodd;}.cls-3{fill:#c1907d;}.cls-4{fill:#f4c9b2;}.cls-5{fill:#594165;}.cls-6{opacity:0.15;}.cls-7{fill:#060808;}.cls-8{fill:#424242;}.cls-9{fill:#7d7c7d;}.cls-10{fill:#5e5f5f;}.cls-11{fill:#fce3d4;}.cls-12{fill:#785d87;}.cls-13,.cls-20{fill:#e2e3e2;}.cls-14{fill:#444748;}.cls-15{fill:#a587b9;}.cls-16{fill:#8f759f;}.cls-17{fill:#c4c3c3;}.cls-18{fill:#fff;}.cls-19{fill:#b9b8b8;}.cls-21{fill:#737374;}.cls-22{fill:#ffefe7;}.cls-24{fill:#95637c;}.cls-25{fill:#b2879c;}.cls-26{fill:#d0a0b7;}.cls-27{opacity:0.25;}.cls-28{clip-path:url(#clip-path);}.cls-29{fill:#2b2b2b;}.cls-30{fill:#6f7173;}</style><clipPath id="clip-path"><rect class="cls-1" x="263.88" y="229.12" width="18.06" height="7.29"/></clipPath></defs><title>analysts_INTJ_famous_real_vladimir_putin</title><polygon class="cls-2" points="129.88 381.27 172.54 381.27 172.54 375.84 150.89 372.17 129.88 375.84 129.88 381.27"/><polygon class="cls-3" points="169.18 143.37 165.06 132.97 215.63 130.98 213.7 145.08 188.79 157.3 169.18 143.37"/><polygon class="cls-4" points="213.04 31.89 208.4 42.21 178.4 134.63 202.21 137.18 188.79 154.21 213.7 145.08 220.27 146.47 225.43 140.79 232.52 101.72 213.04 31.89"/><polygon class="cls-5" points="145.51 218.94 127.16 230.07 113.44 213.56 112.63 196.49 118.47 190.08 135.35 162.28 151.12 154.21 153.7 185.69 145.51 218.94"/><polygon class="cls-5" points="278.59 183.21 298.96 199.43 287.48 203.43 277.91 203.26 276.44 187.21 278.59 183.21"/><polygon class="cls-5" points="244.54 154.08 269.3 175.79 271.62 180.27 271.88 207.36 260.52 219.75 245.58 214.91 240.4 183.11 244.54 154.08"/><g class="cls-6"><polygon class="cls-7" points="190.5 399.38 87.34 384.64 132.47 373.6 193.83 364.44 309.05 386.18 190.5 399.38"/></g><polygon class="cls-8" points="171.12 359.16 172.54 375.84 129.88 375.84 129.24 373.77 148.68 357.42 161.85 355.71 171.12 359.16"/><polygon class="cls-9" points="142.08 271.62 148.68 357.42 159.21 357.9 163.97 352.3 172.54 300.89 166.53 285.25 162.34 274.02 142.08 271.62"/><polygon class="cls-10" points="179.92 284.58 166.53 285.25 159.21 357.9 171.12 359.16 190.97 298.88 179.92 284.58"/><polygon class="cls-8" points="224.69 384.97 229.43 363.83 240.34 359.65 252.78 362.71 261.23 384.97 255.28 387.31 230.41 386.94 224.69 384.97"/><polygon class="cls-9" points="221.93 288.53 242.69 358.36 241.14 363.27 229.43 363.83 190.97 298.88 200.01 284.44 216.73 286.33 221.93 288.53"/><polygon class="cls-10" points="216.73 286.33 241.14 363.27 252.78 362.71 250.51 305.19 243.05 297.99 240.15 274.93 223.2 277.52 216.73 286.33"/><polygon class="cls-4" points="111.89 161.95 104 163.36 106.73 151.63 118.08 141.82 120.41 152.92 111.89 161.95"/><polygon class="cls-11" points="87.64 140.27 80.93 167.11 90.22 170.72 100.54 168.66 118.08 141.82 87.64 140.27"/><polygon class="cls-12" points="90.22 229.56 82.73 179.21 89.93 174.94 105.38 179.73 127.16 230.07 90.22 229.56"/><polygon class="cls-13" points="82.73 179.21 105.38 179.74 100.54 168.66 80.93 167.11 82.73 179.21"/><polygon class="cls-10" points="125.13 276.28 129.44 178.02 132.02 172.27 133.99 173.03 132.03 276.78 125.13 276.28"/><polygon class="cls-14" points="142.08 271.62 173.91 267.26 240.15 274.93 190.97 298.88 142.08 271.62"/><polygon class="cls-12" points="142.08 271.62 173.82 272.91 177.44 256.39 177.69 210.2 162.47 166.08 166.08 150.59 151.12 154.21 148.53 158.34 149.05 164.53 142.08 271.62"/><polygon class="cls-15" points="230.96 148.43 212.53 175.88 174.77 211.9 173.82 272.91 249.33 275.21 244.54 154.08 230.96 148.43"/><polygon class="cls-5" points="204.97 185.73 210.62 183.62 229.04 183.62 229.04 190.85 201.86 190.54 204.97 185.73"/><polygon class="cls-16" points="156.79 168.66 166.08 150.59 173.91 163.22 174.77 211.9 156.79 168.66"/><polygon class="cls-12" points="202.21 165.56 174.77 211.9 226.98 170.72 230.96 148.43 202.21 165.56"/><polygon class="cls-17" points="174.85 158.34 171.76 164.53 173 183.97 178.47 179.5 180.02 169.17 180.02 162.46 174.85 158.34"/><polygon class="cls-17" points="199.11 160.92 190.34 161.95 187.76 169.69 185.69 178.98 190.13 188.47 203.24 168.14 199.11 160.92"/><polygon class="cls-8" points="174.77 211.9 173 183.97 180.02 169.17 185.18 165.04 187.76 169.69 190.13 188.47 174.77 211.9"/><polygon class="cls-10" points="174.85 158.34 180.02 169.17 187.76 169.69 199.11 160.92 188.79 154.21 174.85 158.34"/><polygon class="cls-13" points="169.18 143.37 166.08 150.59 171.76 164.53 188.79 154.21 169.18 143.37"/><polygon class="cls-13" points="225.43 140.79 188.79 154.21 203.24 168.14 230.96 148.43 225.43 140.79"/><polygon class="cls-11" points="128.32 23.12 123.25 99.59 142.06 130.66 178.4 134.63 202.47 115.76 213.04 31.89 194.28 14.86 172.83 6.6 128.32 23.12"/><polygon class="cls-4" points="129.51 54.46 138.21 63.38 141.82 91.24 147.76 66.31 145.95 55.3 129.51 54.46"/><polygon class="cls-4" points="160.32 56.64 185.69 58.97 171.05 64.89 159.37 92.79 156.28 66.86 160.32 56.64"/><polygon class="cls-3" points="145.44 106.21 146.47 116.53 167.11 118.08 166.6 110.86 145.44 106.21"/><polygon class="cls-18" points="147.5 108.79 164.53 112.66 164.53 115.76 148.02 113.95 147.5 108.79"/><polygon class="cls-19" points="223.45 78.38 217.17 78.86 213.04 31.89 226.46 26.73 245.56 29.83 238.59 68.24 223.45 78.38"/><polygon class="cls-3" points="221.82 94.34 232.52 101.72 234.22 92.31 229.04 90.73 221.82 94.34"/><polygon class="cls-20" points="172.83 6.6 213.04 31.89 245.56 29.83 188.86 0 172.83 6.6"/><polygon class="cls-21" points="185.92 56.33 161.26 54.51 159.77 58.01 185.69 58.97 185.92 56.33"/><polygon class="cls-21" points="129.66 52.11 145.76 53.37 146.21 56.91 129.51 54.46 129.66 52.11"/><polygon class="cls-22" points="147.76 66.31 156.28 66.86 159.37 92.79 149.57 93.82 141.82 91.24 147.76 66.31"/><polygon class="cls-3" points="150.08 97.95 141.82 91.24 159.37 92.79 150.08 97.95"/><polygon class="cls-5" points="169.35 229.75 174.59 223.71 180.16 230.03 174.41 235.23 169.35 229.75"/><polygon class="cls-5" points="169 251.94 174.25 245.89 179.81 252.22 174.06 257.42 169 251.94"/><polygon class="cls-10" points="111.38 183.62 118.47 190.08 123.36 184.71 121.7 178.46 116.02 177.95 111.38 183.62"/><polygon class="cls-9" points="130.99 157.82 116.02 177.95 123.36 184.71 139.71 166.75 137.18 160.92 130.99 157.82"/><polygon class="cls-9" points="132.02 146.98 138.21 158.85 149.05 164.53 151.12 154.21 144.41 144.92 132.02 146.98"/><polygon class="cls-10" points="132.02 146.98 149.05 164.53 139.71 166.75 130.99 157.82 132.02 146.98"/><rect class="cls-23" x="224.69" y="384.97" width="36.54" height="5.44"/><path class="cls-24" d="M289,329.81l6.4-6-7.66-12.32,3.55-3.92,11.51,18.49-13.53,9Zm-7.07-4.93,4,.29,4.31-4.07-1.74-2Z"/><polygon class="cls-25" points="294.82 305.99 291.48 305.48 290.86 309.44 300.63 325.05 291.11 333.13 290.4 337.95 294.37 338.31 306.91 326.51 294.82 305.99"/><path class="cls-26" d="M275.74,151.44l-2,2.42L261.22,321.39l8.09,7.21,10.84,50.28L293,388.51,320,374c-13.49-18.74-25.63-35.67-38-55l12.73-13,1.26-57-13.84-4-1.95-93.65Z"/><polygon class="cls-15" points="287.19 249.85 282.24 245.02 268.79 247.53 264.64 255.49 260.69 302.65 263.45 321.28 272.9 328.35 282.09 318.97 286.84 305.91 287.19 249.85"/><polygon class="cls-24" points="271.19 151.51 275.74 151.44 275.39 156.2 273.45 158.17 274.89 163.21 268.79 247.53 265.58 250.78 262.88 248.11 271.19 151.51"/><polygon class="cls-16" points="262.88 248.11 268.79 247.53 267.11 270.65 264.36 279.45 265.91 287.34 263.45 321.28 261.53 323.33 256.55 321.63 262.88 248.11"/><path class="cls-12" d="M243.57,297.91l-.52.08-9.83,1.56,1.29,4.26,16,1.38,2.21-4.31s-9.41-2.93-9.15-3"/><polygon class="cls-16" points="233.22 299.55 239.27 280.67 241.45 278.91 240.15 274.93 235.28 244.63 246.83 243.37 257.56 246.34 250.43 274.06 249.47 283.22 252.72 300.88 233.22 299.55"/><polygon class="cls-12" points="236.69 237.55 235.28 244.63 257.56 246.34 257 238.94 236.69 237.55"/><polygon class="cls-25" points="240.15 274.93 239.27 280.67 259.55 286.84 265.91 287.34 267.11 270.65 240.15 274.93"/><polygon class="cls-12" points="265.73 328.86 256.55 321.63 263.45 321.28 272.9 328.35 269.92 331.24 265.73 328.86"/><polygon class="cls-25" points="265.73 328.86 267.08 348.44 273.02 352.56 277.84 348.25 272.9 328.35 265.73 328.86"/><polygon class="cls-24" points="267.08 348.44 277.84 348.25 293.03 388.51 276.87 384.5 267.08 348.44"/><polygon class="cls-24" points="249.58 283.81 265.91 287.34 259.42 288.32 249.58 283.81"/><polygon class="cls-16" points="296.08 249.04 282.24 245.02 282.09 318.97 294.82 305.99 296.08 249.04"/><polygon class="cls-15" points="265.2 155.41 275.39 156.2 274.89 163.21 271.32 162.09 265.2 155.41"/><polygon class="cls-16" points="270.14 163.77 265.2 155.41 274.89 163.21 270.14 163.77"/><polygon class="cls-12" points="288.39 208.4 285.2 201.16 298.96 199.43 293.56 209.43 288.39 208.4"/><polygon class="cls-4" points="293.56 209.43 285.2 201.16 281.17 213.56 281.95 231.07 293.56 209.43"/><polygon class="cls-4" points="257.43 206.33 265.69 204.78 268.27 212.52 265.69 221.81 260.52 219.75 257.43 206.33"/><polygon class="cls-11" points="285.2 201.16 264.14 205.07 264.51 229.12 281.95 231.07 285.2 201.16"/><g class="cls-27"><g class="cls-28"><polygon class="cls-7" points="264.51 229.12 281.95 231.07 263.88 236.41 264.51 229.12"/></g></g><polygon class="cls-11" points="221.82 94.34 224.4 69.05 238.59 68.24 234.22 92.31 221.82 94.34"/><polygon class="cls-3" points="227.5 86.08 228.85 74.93 234.29 74.38 227.5 86.08"/><polygon class="cls-4" points="135.56 40.48 153.8 47.5 188.03 46.24 186.79 43.32 154.4 44.99 138.35 38.04 135.56 40.48"/><path class="cls-29" d="M141.74,65.82a3.68,3.68,0,1,1-3.67-3.67A3.67,3.67,0,0,1,141.74,65.82Z"/><path class="cls-29" d="M175.15,68.24a4,4,0,1,1-4-4A4,4,0,0,1,175.15,68.24Z"/><polygon class="cls-8" points="129.75 393.04 105.24 386.85 105.29 382.62 154.01 381.94 154.53 386.33 129.75 393.04"/><polygon class="cls-30" points="129.89 387.55 105.29 382.62 124.12 376.5 133.31 376.15 154.01 381.94 129.89 387.55"/><polygon class="cls-8" points="129.21 273.22 125.13 276.28 124.08 380.4 133.37 380.14 133.31 376.15 134.32 373.95 133.26 372.04 132.03 276.78 129.21 273.22"/></svg>