<svg id="illustration_layer_copy_5" data-name="illustration_layer copy 5" xmlns="http://www.w3.org/2000/svg" viewBox="0 0 400 400"><defs><style>.cls-1,.cls-26,.cls-29{fill:#2b2b2b;}.cls-1{opacity:0.1;}.cls-2{fill:#3d3d3d;}.cls-3{fill:#515151;}.cls-4{fill:#734d60;}.cls-5{fill:#95637c;}.cls-6{fill:#353535;}.cls-7{fill:#785d87;}.cls-8{fill:#543042;}.cls-9{fill:#dddddc;}.cls-10{fill:#cdcdcc;}.cls-11{fill:#444;}.cls-12{fill:#666;}.cls-13{fill:#a3a2a2;}.cls-14{fill:#474747;}.cls-15{fill:#b2879c;}.cls-16{fill:#a587b9;}.cls-17{fill:#d0a0b7;}.cls-18{fill:#fce3d4;}.cls-19{fill:#f4c9b2;}.cls-20{fill:#8f759f;}.cls-21{fill:#594165;}.cls-22{fill:#484748;}.cls-23{fill:#4f5253;}.cls-24{fill:#ffefe7;}.cls-25{fill:#c1907d;}.cls-27{fill:#7f7f7f;}.cls-28{fill:#fff;}.cls-29{opacity:0.2;}.cls-30{fill:#6f7173;}.cls-31{fill:#565656;}</style></defs><title>analysts_INTJ_famous_fictional_yennefer_of_vengerberg_the_witcher_series</title><polygon class="cls-1" points="111.02 384.07 205.83 374.23 293.76 384.56 201.15 400 111.02 384.07"/><polygon class="cls-2" points="194.34 352.86 187.77 369.09 193.56 371.36 205.24 371.36 207.42 355.3 206.15 347.77 197.4 347.77 194.34 352.86"/><polygon class="cls-3" points="187.77 369.09 176.56 377.8 189.36 379.36 199.32 377.8 205.24 371.36 187.77 369.09"/><polygon class="cls-4" points="171.9 259.64 167.7 309.39 186.9 326.6 198.92 301.25 195.99 268.26 171.9 259.64"/><polygon class="cls-5" points="178.99 265.39 177.6 307.3 173.99 309.65 176.11 260.67 178.99 265.39"/><polygon class="cls-6" points="167.7 309.39 199.48 301.25 206.15 347.77 194.34 352.86 179.24 328.23 178.99 323.38 173.99 319.65 167.7 309.39"/><polygon class="cls-7" points="200.87 323.86 179.24 328.22 173.99 319.66 199.48 313.79 203.17 317.79 200.87 323.86"/><rect class="cls-6" x="176.56" y="377.8" width="29.63" height="5.22"/><polygon class="cls-8" points="241.51 200.04 249.93 215.12 275.78 205.78 264.27 168.96 243.47 176.93 241.51 200.04"/><polygon class="cls-7" points="241.51 200.04 270.4 188.59 275.78 205.78 264.27 215.06 251.98 218.19 241.51 200.04"/><polygon class="cls-9" points="249.93 215.12 273.73 202.71 285.24 217.07 265.36 218.99 249.93 215.12"/><polygon class="cls-10" points="265.36 215.97 258.74 193.21 285.24 164.14 277 150.33 294.92 142.69 294.92 130.39 304.51 144.29 294.92 150.33 315.67 164.14 307.22 179.01 317.77 188.61 307.22 200.62 265.36 215.97"/><polygon class="cls-10" points="117.93 195.59 126.89 178.36 117.93 175.05 120.54 161.22 109.38 151.42 98.22 157.3 98.22 144.43 80.78 139.45 87.32 127 74.15 131.69 74.15 144.43 84.97 149.41 76.42 172.06 98.22 195.04 117.93 195.59"/><polygon class="cls-11" points="117.93 195.59 110.6 178.15 105.72 178.98 105.72 193.73 117.93 195.59"/><polygon class="cls-11" points="98.22 187.5 88.11 177.63 76.42 172.06 88.28 196.21 96.13 192.4 98.22 187.5"/><polygon class="cls-8" points="150.93 169.55 132.17 210.75 157.71 217.53 167.92 201.34 160.94 173 150.93 169.55"/><polygon class="cls-7" points="142.26 188.59 156.67 192.99 167.92 201.34 157.71 217.53 132.17 210.75 142.26 188.59"/><polygon class="cls-6" points="230.78 74.17 263.77 87.3 244.48 130.28 230.06 93.55 225.57 78.92 230.78 74.17"/><polygon class="cls-12" points="230.06 93.55 266.01 139.49 258.74 149.35 237.49 152.61 228.26 142.28 223.23 105.71 230.06 93.55"/><polygon class="cls-11" points="266.01 139.49 228.57 133.35 228.26 142.28 236.93 156.92 268.98 157.08 266.01 139.49"/><polygon class="cls-13" points="226.78 120.76 243.08 129.72 228.26 142.28 226.78 120.76"/><polygon class="cls-14" points="221.12 359.82 226.52 368.65 225.88 391.9 221.7 391.9 215.83 372.23 221.12 359.82"/><polygon class="cls-5" points="194.25 275.57 199.48 313.79 215.61 344.08 234.75 317.42 237.7 300.75 250.97 266.96 207.74 261.47 194.25 275.57"/><polygon class="cls-15" points="217.97 272.18 207.42 315.23 210.69 315.23 222.52 269.57 217.97 272.18"/><polygon class="cls-16" points="238.41 268.67 224.43 317.79 234.75 317.42 250.97 266.96 242.86 265.97 238.41 268.67"/><polygon class="cls-8" points="178.99 265.39 194.25 275.57 207.74 266.69 204.45 234.05 191.77 232.94 178.99 265.39"/><polygon class="cls-5" points="158.65 181.24 156.67 192.99 204.45 201.34 241.51 200.04 247.53 183.32 223.3 159.46 179.51 164 158.65 181.24"/><polygon class="cls-17" points="192.44 171.68 195.99 183.32 217.97 167.13 226.71 169.28 201.43 196.71 191.76 197.95 185.81 195.41 184.13 167.22 192.44 171.68"/><polygon class="cls-17" points="225.81 198.74 235.06 183.76 226.1 180.4 215.19 197.85 219.15 200.3 225.81 198.74"/><polygon class="cls-17" points="178.99 194.84 175.32 184.9 164.6 180.4 169.31 194.04 175.06 196.77 178.99 194.84"/><polygon class="cls-4" points="156.67 192.99 171.34 225.68 174.08 228.9 174.61 232.94 181.34 237.12 196.72 237.12 216.14 237.12 230.52 233.47 230.66 230.2 232.75 226.7 241.51 200.04 156.67 192.99"/><polygon class="cls-15" points="201.43 196.71 199.09 222.41 215.19 197.85 225.81 198.74 201.43 236.62 196.72 237.12 184.13 234.75 169.31 194.04 178.99 194.84 187.62 219.1 185.81 195.41 201.43 196.71"/><polygon class="cls-6" points="114.38 86.64 132.61 114.71 144.76 106.83 127.96 55.19 114.38 86.64"/><polygon class="cls-11" points="138.52 102.93 132.61 114.71 140.75 128.88 144.76 106.83 138.52 102.93"/><polygon class="cls-6" points="144.76 106.83 136.28 141.86 154.36 152.61 158.93 142.98 156.48 129.82 144.76 106.83"/><polygon class="cls-6" points="156.48 129.82 164.75 144.51 174.38 149.37 177.1 138.09 177.1 125.81 165.08 123.08 156.48 129.82"/><polygon class="cls-18" points="128.18 55.89 131.63 76.07 138.52 102.93 156.48 129.82 177.1 125.81 186.89 136.51 189.96 151.68 192.44 171.68 195.25 189.65 217.97 167.13 228.26 142.28 220.92 67.92 200.86 55.19 189.68 24.18 141.31 33.14 128.18 55.89"/><polygon class="cls-19" points="200.86 55.19 198.63 125.25 191.59 149.35 193.37 196.04 217.97 167.13 217.93 144.27 228.57 130.28 230.06 93.55 228.57 87.3 230.53 81.05 230.78 74.17 200.86 55.19"/><polygon class="cls-7" points="154.36 152.61 145.38 161.13 160.94 159.17 154.36 152.61"/><polygon class="cls-20" points="217.97 167.13 189.03 166.52 191.87 171.68 222.52 171.87 217.97 167.13"/><polygon class="cls-20" points="145.38 161.13 158.65 181.24 163.51 165.3 158.65 157.86 145.38 161.13"/><polygon class="cls-7" points="158.65 181.24 172.97 175.75 176.11 168.96 167.92 165.3 160.94 167.66 158.65 181.24"/><polygon class="cls-21" points="176.11 168.96 173.42 176.8 175.32 184.9 192.44 171.68 184.81 157.86 173.42 148.14 172.97 155.25 176.11 168.96"/><polygon class="cls-11" points="156.48 129.82 173.42 148.14 176.11 168.96 161.68 165.17 154.36 152.61 156.48 129.82"/><polygon class="cls-22" points="176.11 168.96 160.94 167.66 154.36 152.61 176.11 168.96"/><polygon class="cls-12" points="178.78 4.89 188.38 -0.18 230.01 13.19 245.04 52.4 178.78 4.89"/><polygon class="cls-19" points="186.33 62.73 166.38 91.06 135.16 72.78 142.43 68.31 154.36 70.55 160.75 69.15 174.59 62.73 186.33 62.73"/><polygon class="cls-23" points="186.33 62.73 175 59.8 164.39 65.36 160.75 69.15 174.59 62.73 186.33 62.73"/><polygon class="cls-23" points="135.16 72.78 139.78 67.9 150.75 68.45 154.36 70.55 141.07 70.27 135.16 72.78"/><polygon class="cls-24" points="160.75 69.15 161.44 80.11 166.38 91.06 156.97 92.95 157.81 80.94 154.36 70.55 160.75 69.15"/><polygon class="cls-25" points="156.97 92.95 163.26 97.27 166.38 91.06 156.97 92.95"/><ellipse class="cls-26" cx="173.33" cy="70.99" rx="3.82" ry="3.81"/><ellipse class="cls-26" cx="146.11" cy="77.32" rx="3.82" ry="3.81"/><polygon class="cls-20" points="181.83 103.2 166.83 110.45 154.5 108.79 165.29 105.72 181.83 103.2"/><polygon class="cls-25" points="177.1 125.81 214.1 117.34 196.38 142.55 185.51 139.47 177.1 125.81"/><polygon class="cls-21" points="154.5 108.79 181.83 103.2 164.45 102.65 154.5 108.79"/><polygon class="cls-25" points="230.53 81.05 220.62 82.55 230.06 93.55 230.53 81.05"/><polygon class="cls-6" points="200.86 55.19 215.82 80.64 220.92 67.92 200.86 55.19"/><polygon class="cls-11" points="193.36 51.29 225.57 56.31 258.74 70.99 263.77 87.3 200.86 64.48 193.36 51.29"/><polygon class="cls-12" points="193.36 51.29 184.09 35.38 253.15 51.29 258.74 70.99 193.36 51.29"/><polygon class="cls-11" points="160.75 32.59 166.38 20.77 178.78 4.89 253.15 51.29 160.75 32.59"/><polygon class="cls-12" points="178.78 4.89 149.51 0.75 124.15 33.15 149.51 25.98 178.78 4.89"/><polygon class="cls-27" points="149.51 0.75 115.62 35.38 135.16 30.9 142.62 23.15 149.51 0.75"/><polygon class="cls-6" points="142.62 23.15 178.78 4.89 160.75 32.59 142.62 23.15"/><polygon class="cls-25" points="160.75 32.59 139.91 48.5 131.63 76.06 126.77 57.15 141.87 37.05 160.75 32.59"/><polygon class="cls-12" points="160.75 32.59 142.62 23.15 115.62 35.38 114.38 86.64 141.5 38.82 160.75 32.59"/><polygon class="cls-11" points="160.75 32.59 134.04 34.26 114.38 86.64 141.5 42.17 160.75 32.59"/><polygon class="cls-22" points="228.57 130.28 185.51 139.47 191.59 149.35 228.26 142.28 228.57 130.28"/><polygon class="cls-7" points="201.51 147.36 209.42 153.64 202.46 162.42 195.25 155.07 201.51 147.36"/><polygon class="cls-16" points="205.24 150.33 196.72 156.57 207.74 155.76 198.41 151.18 202.46 162.42 205.24 150.33"/><polygon class="cls-28" points="192.44 171.68 173.42 148.14 177.1 125.81 191.59 149.35 192.44 171.68"/><polygon class="cls-29" points="174.79 139.81 177.1 125.81 191.59 149.35 174.79 139.81"/><polygon class="cls-21" points="217.97 167.13 223.3 159.46 233.93 167.13 247.53 183.32 222.71 185.82 217.97 167.13"/><polygon class="cls-7" points="234.45 149.37 223.3 159.46 247.53 183.32 249.1 168.96 244.91 149.37 234.45 149.37"/><polygon class="cls-20" points="244.91 149.37 256.95 157.08 264.27 168.96 247.53 183.32 244.91 149.37"/><polygon class="cls-7" points="244.91 149.37 264.27 168.96 268.98 157.08 259.04 149.37 244.91 149.37"/><polygon class="cls-20" points="175.32 184.9 158.65 181.24 176.11 168.96 175.32 184.9"/><polygon class="cls-5" points="197.56 236.6 217.97 270.87 247.05 265.39 246.53 259.74 230.52 233.47 197.56 236.6"/><polygon class="cls-5" points="174.61 232.94 196.72 237.12 178.99 261.47 172.89 259.64 172.63 251.13 174.61 232.94"/><polygon class="cls-17" points="205.96 236.13 222.52 264.26 246.53 259.74 250.97 266.96 217.97 272.18 197.13 236.13 205.96 236.13"/><polygon class="cls-17" points="188.14 235.5 176.63 254.85 172.63 251.13 171.9 259.64 178.99 265.39 196.72 237.12 188.14 235.5"/><polygon class="cls-6" points="232.75 226.7 190.45 231.44 196.72 237.12 230.52 233.47 232.75 226.7"/><polygon class="cls-6" points="207.74 242.43 217.97 272.18 207.74 266.69 198.15 238.08 207.74 242.43"/><polygon class="cls-14" points="234.75 317.42 199.48 313.79 200.87 323.86 202.58 329.76 202.39 334.98 205.56 358.08 211.35 362.44 221.12 359.82 227 341.54 225.32 335.86 230.53 330.55 234.75 317.42"/><polygon class="cls-20" points="230.53 330.55 200.87 323.86 202.39 334.98 227 341.54 230.53 330.55"/><polygon class="cls-30" points="205.56 358.08 187.77 386.68 204.44 388.42 217.4 386.68 221.12 359.82 205.56 358.08"/><rect class="cls-14" x="187.77" y="386.68" width="29.63" height="5.22"/><polygon class="cls-22" points="249.93 215.12 252.54 242.41 286.02 238.31 285.24 217.07 266.93 218.99 249.93 215.12"/><polygon class="cls-13" points="249.93 215.12 265.36 215.97 274.69 214.46 285.24 217.07 273.73 231.19 249.93 215.12"/><polygon class="cls-11" points="285.24 217.07 307.22 200.62 305.12 195.13 291.26 194.87 285.24 217.07"/><polygon class="cls-6" points="265.36 215.97 270.33 200.31 284.11 199.99 294.92 204.01 285.24 217.07 265.36 215.97"/><polygon class="cls-12" points="270.33 200.31 275.04 185.51 294.92 180.25 294.92 204.01 270.33 200.31"/><polygon class="cls-13" points="157.71 217.53 129.55 229.56 120.26 218.78 127.61 209.14 135.48 207.09 142.2 209.05 157.71 217.53"/><polygon class="cls-13" points="134.79 205 119.26 218.78 112.17 209.14 112.17 201.79 117.93 195.59 134.79 205"/><polygon class="cls-22" points="142.2 209.05 133.48 242.87 119.26 218.78 134.79 205 142.2 209.05"/><polygon class="cls-6" points="117.93 195.59 99.27 188.55 88.28 196.21 112.17 209.14 117.93 195.59"/><polygon class="cls-12" points="117.93 195.59 88.28 196.21 98.22 187.5 117.93 195.59"/><polygon class="cls-31" points="171.34 225.67 190.45 231.44 193.64 234.05 195.9 233.09 205.96 236.13 207.74 242.43 195.67 238.98 192.92 237.12 187.55 236.65 174.61 232.94 171.34 225.67"/><polygon class="cls-22" points="195.89 233.09 195.67 238.98 187.55 236.65 190.45 231.44 195.89 233.09"/><polygon class="cls-28" points="243.08 129.72 234.45 149.37 217.97 167.13 217.93 144.27 243.08 129.72"/></svg>