<svg id="Layer_1" data-name="Layer 1" xmlns="http://www.w3.org/2000/svg" viewBox="0 0 400 400"><defs><style>.cls-1{opacity:0.15;}.cls-2{fill:#070908;}.cls-10,.cls-11,.cls-12,.cls-13,.cls-14,.cls-15,.cls-16,.cls-17,.cls-18,.cls-19,.cls-2,.cls-20,.cls-21,.cls-22,.cls-3,.cls-4,.cls-5,.cls-6,.cls-7,.cls-8,.cls-9{fill-rule:evenodd;}.cls-3{fill:#734d61;}.cls-4{fill:#a587b8;}.cls-5{fill:#554537;}.cls-6{fill:#6e5f51;}.cls-7{fill:#795d88;}.cls-8{fill:#8f759f;}.cls-23,.cls-9{fill:#f4cab2;}.cls-10{fill:#444648;}.cls-11{fill:#393939;}.cls-12{fill:#565757;}.cls-13{fill:#95637c;}.cls-14,.cls-25{fill:#c18f7c;}.cls-15{fill:#b2879c;}.cls-16{fill:#372613;}.cls-17{fill:#543042;}.cls-18{fill:#fbe3d4;}.cls-19{fill:#8b7a6e;}.cls-20{fill:#cdcccb;}.cls-21{fill:#594265;}.cls-22{fill:#2b2b2b;}.cls-24{fill:#fff0e8;}.cls-26{fill:#2b2c2b;}</style></defs><title>analysts_INTJ_famous_fictional_katniss_everdeen_the_hunger_games</title><g class="cls-1"><polygon class="cls-2" points="254.38 399.92 135.96 390.22 253.81 379.17 364.79 389.6 335.02 392.75 254.38 399.92"/></g><polygon class="cls-3" points="153.9 176.51 150.93 158.87 162.39 145.25 214.29 141.15 209.78 181.38 199.93 182.48 153.9 176.51"/><polygon class="cls-4" points="338.88 81.44 326.63 89.85 318.65 102.88 318.45 112.38 335.41 98.27 341.41 89.13 338.88 81.44"/><polygon class="cls-5" points="324.91 75.75 315.74 86.88 298.42 124.32 307.19 121.72 318.45 112.38 325.96 92.95 324.91 75.75"/><polygon class="cls-6" points="318.45 112.38 308.27 126.74 298.42 124.32 306.94 119.25 318.45 112.38"/><polygon class="cls-5" points="225.04 133.16 215.76 130.06 214.85 137.39 223.31 139.01 230.17 137.39 225.04 133.16"/><polygon class="cls-6" points="215.76 130.06 230.17 137.39 239.16 131.71 223.84 123.02 215.76 130.06"/><polygon class="cls-6" points="212.22 92.02 210.41 62.32 199.25 62.79 212.22 92.02"/><polygon class="cls-7" points="233.53 209.38 234.61 248.04 254.09 257.73 286.1 245.13 287.02 192.68 239.37 187.35 233.53 209.38"/><polygon class="cls-8" points="300.1 320.15 278.05 319.12 261.25 288.99 255.44 277.06 271.47 265.85 284.54 256.64 288.4 278.62 311.27 275.94 315.34 309.11 300.1 320.15"/><polygon class="cls-7" points="278.05 319.12 315.34 309.11 319.63 344.15 309.23 350.56 295.23 350.19 278.05 319.12"/><polygon class="cls-9" points="60.34 141.18 60.49 145.78 80.86 150.69 83.05 152.19 81.52 139.37 60.34 141.18"/><polygon class="cls-10" points="168.1 379.75 168.57 386 218.53 386 218.19 378.83 199.85 375.06 168.1 379.75"/><polygon class="cls-11" points="196.88 359.74 168.1 379.75 218.19 378.83 217.22 359.92 214.95 356.64 200.69 356.71 196.88 359.74"/><polygon class="cls-10" points="301.07 392.75 300.95 385.69 319.08 381.81 334.83 386.24 335.02 392.75 301.07 392.75"/><polygon class="cls-11" points="304.46 366.9 300.95 385.69 334.83 386.24 322.13 364.52 318.51 362.59 307.15 364.45 304.46 366.9"/><polygon class="cls-8" points="207.81 278.24 203.47 313.05 221.35 320.75 243.39 318.07 271.47 265.85 232.87 271.79 230.49 280.7 207.81 278.24"/><polygon class="cls-7" points="203.47 313.05 243.39 318.07 226.13 350.19 212.55 349.9 199.59 344.2 203.47 313.05"/><polygon class="cls-10" points="199.73 343.07 226.13 350.19 217.44 366.9 197.79 359.02 199.73 343.07"/><polygon class="cls-10" points="304.46 366.9 322.13 364.52 319.63 344.15 295.23 350.19 304.46 366.9"/><polygon class="cls-11" points="242.34 246.29 240.4 255.56 244.15 260.8 267.23 248.52 242.34 246.29"/><polygon class="cls-10" points="231.76 260.8 230.49 280.7 257.91 270.94 263.97 264.28 271.55 266.09 285.34 261.19 287.06 248.62 284.09 242.68 267.23 248.52 261.56 254.95 252.94 253.47 231.76 260.8"/><path class="cls-11" d="M256.93,254.93c.15,1,4.16,12.52,4.16,12.52l9.4-5.69-2.21-8.95Z"/><polygon class="cls-12" points="182.78 245.81 186.89 260.92 202.02 264.16 195.19 251.15 182.78 245.81"/><polygon class="cls-11" points="212.48 215.27 182.78 245.81 202.02 264.16 213.96 251.27 223.41 234.32 212.48 215.27"/><polygon class="cls-3" points="279.96 291.39 311.27 275.94 304.16 245.73 294.63 249.71 284.09 242.68 279.96 291.39"/><polygon class="cls-13" points="294.85 253.09 284.09 242.68 293.41 232.75 300.64 230.77 304.16 245.73 294.85 253.09"/><polygon class="cls-3" points="315.36 182.36 299.6 187.26 284.01 194.98 284.09 242.68 300.64 230.77 315.36 182.36"/><polygon class="cls-3" points="243.96 293.58 207.81 278.24 213.96 251.27 224.53 251.4 242.34 246.29 243.96 293.58"/><polygon class="cls-13" points="213.96 251.27 232.94 259.18 242.34 246.29 222.75 234.86 217.15 237.08 213.96 251.27"/><polygon class="cls-3" points="212.44 182.71 199.21 180.17 212.97 224.42 216.91 229.03 217.15 237.08 242.34 246.29 242.15 192.38 212.44 182.71"/><polygon class="cls-8" points="243.55 147.19 232.97 163.86 242.15 192.38 284.01 194.98 289.13 168.25 280.22 150.58 263.54 165.17 243.55 147.19"/><polygon class="cls-14" points="263.29 169.16 244.12 151.22 255.96 146.01 281.89 149.22 273.6 160.82 263.29 169.16"/><polygon class="cls-15" points="214.29 141.15 206.31 179.27 199.93 182.48 242.15 192.38 239.88 151.32 234.21 139.51 214.29 141.15"/><polygon class="cls-16" points="206.09 202.29 200.69 184.95 207.99 183.2 213.96 185.77 206.09 202.29"/><polygon class="cls-6" points="204.95 178.57 209.3 176.73 213.16 172.16 210.64 169.06 205.63 171.33 204.95 178.57"/><polygon class="cls-16" points="205.63 171.33 201.94 160.93 211.68 162.14 220.12 166.73 216.49 171.25 212.36 172.78 205.63 171.33"/><polygon class="cls-5" points="215.58 154.2 208.86 155.2 201.94 160.93 220.12 166.73 219.89 158.67 215.58 154.2"/><polygon class="cls-16" points="205.48 147.75 208.86 155.2 219.89 158.67 229.62 153.54 216.84 146.35 205.48 147.75"/><polygon class="cls-5" points="205.48 147.75 229.62 153.54 226.5 143.85 219.85 141.55 214.29 141.15 205.48 147.75"/><polygon class="cls-16" points="230.22 141.15 226.81 144.81 214.29 141.15 220.17 139.89 230.22 141.15"/><polygon class="cls-15" points="315.36 182.36 284.01 194.98 280.22 150.58 290.16 142.5 302.12 143.23 312.37 163.28 315.36 182.36"/><polygon class="cls-3" points="370.43 157.19 314.93 183.79 302.12 143.23 343.4 144.12 370.43 157.19"/><polygon class="cls-13" points="114.49 171.39 153.9 176.51 162.39 145.25 115.02 148.8 110.88 158.56 114.49 171.39"/><polygon class="cls-14" points="87.12 157.78 94.95 171.82 105.73 170.25 107.38 167.77 105.83 165.28 94.52 153.25 87.12 157.78"/><polygon class="cls-11" points="86.5 94.9 79.22 137.39 85.79 139.27 92.82 137.39 95.85 93.86 91.54 92.08 86.5 94.9"/><polygon class="cls-12" points="93.33 75.59 86.5 94.9 95.85 93.86 100.31 77.94 96.65 74.42 93.33 75.59"/><polygon class="cls-10" points="212.97 224.42 280.22 150.58 290.16 142.5 302.12 143.23 217.15 237.08 212.97 224.42"/><polygon class="cls-8" points="360.02 96.62 335.69 120.02 321.76 115 335.41 98.27 344.45 92.8 360.02 96.62"/><polygon class="cls-17" points="347.42 83.05 307.73 123.25 308.81 125.86 313.56 123.01 350.88 86.51 347.42 83.05"/><polygon class="cls-9" points="306.77 109 298.42 124.32 287.65 125.74 272.93 120.21 274.16 88.61 286.65 39.29 306.77 109"/><polygon class="cls-5" points="285.73 38.04 287.13 46.85 296.59 79.59 300.39 92.75 309.18 79.58 308.33 69.01 285.73 38.04"/><polygon class="cls-14" points="314.42 94.75 310.54 91.46 300.39 92.75 306.77 109 314.42 94.75"/><polygon class="cls-18" points="324.95 75.77 318.83 68.19 308.33 69.01 300.39 92.75 314.42 94.75 324.95 75.77"/><polygon class="cls-14" points="312.64 76.43 308.79 86.77 318.58 78.59 312.64 76.43"/><polygon class="cls-19" points="324.83 19.45 293.07 34.16 287.13 46.85 308.33 69.01 323.6 50.44 324.83 19.45"/><polygon class="cls-6" points="267.08 20.87 275.12 39.05 287.13 46.85 324.83 19.45 297.11 16.39 267.08 20.87"/><polygon class="cls-19" points="295.94 10.47 269.39 14.99 269.55 22.31 324.83 19.45 295.94 10.47"/><polygon class="cls-6" points="278.37 0.08 256.51 8.21 242.85 29.9 262.06 30 269.55 22.31 295.94 10.47 278.37 0.08"/><polygon class="cls-19" points="237.29 1.32 226.56 21.83 227.32 31.78 242.24 35.47 242.85 29.9 278.37 0.08 237.29 1.32"/><path class="cls-6" d="M215.48,27.07l-5.17,3.7,17.81-.95,9.17-28.5s-21.67,25.94-21.81,25.75"/><polygon class="cls-18" points="207.97 112.38 206.99 64.53 219.22 29.78 266.49 30.02 281.89 71 278.37 120.21 255.96 136.59 232.97 133.97 207.97 112.38"/><polygon class="cls-15" points="235.04 114.16 225.91 109.48 238.81 108.92 252.4 109.95 242.48 114.16 235.04 114.16"/><polygon class="cls-13" points="225.91 109.48 235.66 106.79 238.53 107.56 241.87 106.88 252.4 109.95 238.51 109.95 225.91 109.48"/><path class="cls-11" d="M86.5,183.64,84.28,170.7h0l4.28-3,6.4,4.11h0l.89,12.86-4.31,1.78Zm-5.65-32.95-1.63-9.52,7.19-1,6.41,1-5.59,9.42Z"/><polygon class="cls-7" points="48.66 141.18 230.22 141.15 243.98 143.23 257.55 141.18 258.4 138.67 255.76 137.39 245.01 135.76 230.17 137.39 48.66 137.39 46.06 139.28 48.66 141.18"/><polygon class="cls-20" points="123.54 33.65 243.79 125.95 242.66 126.9 239.57 125.93 122.41 35.6 122.22 34.13 123.54 33.65"/><polygon class="cls-5" points="213.96 185.77 200.69 184.95 205.35 179.64 209.67 177.98 213.96 185.77"/><polygon class="cls-20" points="123.54 244.89 244.12 151.22 243.04 149.51 239.88 151.32 122.41 242.94 122.22 244.41 123.54 244.89"/><polygon class="cls-8" points="230.22 141.15 239.88 151.32 260.48 150.86 260.59 145.42 257.55 141.18 230.22 141.15"/><polygon class="cls-4" points="230.17 137.39 239.57 125.93 272.32 126.1 255.99 137.5 230.17 137.39"/><path class="cls-7" d="M29.57,139.19l12.26.41,6.83,1.58-3.39,7.6s-15.63-9.71-15.7-9.59"/><polygon class="cls-4" points="29.57 139.19 41.9 138.9 48.66 137.39 45.27 129.78 29.57 139.19"/><polygon class="cls-9" points="278.37 120.21 255.76 137.39 258.58 145.22 260.48 150.86 280.22 150.58 284.9 135.76 278.37 120.21"/><polygon class="cls-18" points="298.42 124.32 278.37 120.21 280.22 150.58 302.12 143.23 304.99 133.66 298.42 124.32"/><polygon class="cls-8" points="48.66 137.39 29.57 139.19 48.66 141.18 48.66 137.39"/><polygon class="cls-11" points="123.54 33.65 121.82 32.14 93.33 75.59 100.31 77.94 123.54 33.65"/><polygon class="cls-5" points="242.85 29.9 269.55 22.31 287.13 46.85 286.13 67.25 270.4 48.45 242.85 29.9"/><polygon class="cls-6" points="282.27 91.46 270.4 48.45 287.13 46.85 288.31 79.71 285.45 89.88 282.27 91.46"/><polygon class="cls-5" points="294.99 107.38 282.27 91.46 288.31 79.71 294.99 107.38"/><polygon class="cls-5" points="228.12 29.82 210.25 25.94 199.25 62.79 206.99 64.53 228.12 29.82"/><polygon class="cls-6" points="318.45 112.38 338.88 81.44 333.38 75.98 324.95 75.77 318.45 112.38"/><polygon class="cls-5" points="324.83 19.45 308.33 69.01 330.57 78.06 338.88 81.44 324.83 19.45"/><path class="cls-21" d="M267.23,248.52,284,195l.08,47.7Zm-7,38.3,22.23-24.6-39.07,13.9Zm32.57-133.26-12.55-3,21.9-7.35,46.57,24.37,21.74-10.41-68.31-14Z"/><polygon class="cls-13" points="368.55 116.22 307.73 123.25 306.38 133.34 311.12 145.07 370.43 157.19 368.55 116.22"/><polygon class="cls-4" points="311.12 145.07 307.73 123.25 298.42 124.32 302.12 143.23 311.12 145.07"/><polygon class="cls-12" points="93.33 202.94 86.5 183.64 95.85 184.68 100.31 200.6 96.65 204.11 93.33 202.94"/><polygon class="cls-11" points="123.54 244.89 121.82 246.4 93.33 202.94 100.31 200.6 123.54 244.89"/><polygon class="cls-9" points="84.28 170.7 94.95 171.82 93.69 153.76 80.85 150.69 84.28 170.7"/><polygon class="cls-18" points="80.86 150.69 81.98 157.25 93.69 153.76 105.83 165.28 108.63 157.05 106.17 149.47 92.82 141.17 80.86 150.69"/><polygon class="cls-4" points="115.02 148.8 114.49 171.39 105.73 170.25 106.17 149.47 115.02 148.8"/><polygon class="cls-12" points="258.56 255.97 268.28 252.81 267.23 248.52 252.94 253.47 257.91 270.94 271.55 266.09 270.49 261.76 261.31 264.92 258.56 255.97"/><polygon class="cls-22" points="230.76 64.05 232.4 67.4 216.12 65.95 210.67 67.4 216.21 63.36 230.76 64.05"/><polygon class="cls-23" points="245.36 97.05 257.65 105.97 269.17 99.6 245.36 97.05"/><polygon class="cls-23" points="230.04 96.58 216.83 99.48 224.42 102.67 230.04 96.58"/><polygon class="cls-24" points="234.89 72.47 241.62 72.32 242.28 95.54 232.75 95.3 234.89 72.47"/><polygon class="cls-25" points="232.75 95.3 237.33 99.35 242.28 95.54 232.75 95.3"/><polygon class="cls-23" points="241.62 72.32 244.54 66.83 265.32 64.09 270.86 64.74 254.04 77.18 242.28 95.54 241.62 72.32"/><path class="cls-26" d="M258.05,76.94a3.93,3.93,0,1,1-2.84-4.78A3.92,3.92,0,0,1,258.05,76.94Z"/><polygon class="cls-23" points="234.89 72.47 232.4 67.4 216.12 65.95 210.67 67.4 224.42 77.37 233.31 87.71 234.89 72.47"/><path class="cls-26" d="M228.08,77.2a3.77,3.77,0,1,1-2.73-4.58A3.78,3.78,0,0,1,228.08,77.2Z"/><polygon class="cls-22" points="245.74 64.08 244.43 67.04 265.32 64.09 270.86 64.74 265.22 62.08 245.74 64.08"/></svg>