<svg id="Layer_1" data-name="Layer 1" xmlns="http://www.w3.org/2000/svg" viewBox="0 0 400 400.07"><defs><style>.cls-1{fill:#7c4f24;}.cls-16,.cls-2{fill:#2b2b2b;}.cls-2{opacity:0.1;}.cls-3{fill:#734d60;}.cls-4{fill:#543042;}.cls-5{fill:#95637c;}.cls-6{fill:#f4c9b2;}.cls-7{fill:#8f759f;}.cls-8{fill:#fce3d4;}.cls-9{fill:#a587b9;}.cls-10{fill:#b2879c;}.cls-11{fill:#d0a0b7;}.cls-12{fill:#9b6533;}.cls-13{fill:#af7546;}.cls-14{fill:#b1744b;}.cls-15{fill:#c1907d;}.cls-17{fill:#ffefe7;}.cls-18{fill:#fff;}.cls-19{fill:#7c4d24;}.cls-20{fill:#785d87;}.cls-21{fill:#cc9262;}</style></defs><title>analysts_INTJ_famous_fictional_seven_of_nine_star_trek_voyager</title><polygon class="cls-1" points="157.02 31.71 145.64 34.45 154.93 82.39 157.02 31.71"/><polygon class="cls-2" points="92.94 379.87 212.81 400.03 307.06 383.4 204.68 370.3 92.94 379.87"/><polygon class="cls-3" points="126.42 378 155.22 380.23 150.68 367.78 142.76 363.89 126.42 378"/><polygon class="cls-4" points="169.91 357.63 165.95 368.36 167.75 379.44 170.48 379.66 175.52 359.36 169.91 357.63"/><polygon class="cls-5" points="152.41 345.75 142.76 363.89 150.61 374.04 152.63 374.33 163.14 367.78 168.75 355.97 169.33 346.32 161.41 341.29 152.41 345.75"/><polygon class="cls-3" points="169.33 346.32 162.35 363.1 150.61 374.04 155.22 380.23 175.52 359.36 169.33 346.32"/><polygon class="cls-6" points="264.87 267.92 261.7 265.4 260.19 269.51 252.27 278.58 251.48 279.51 254.36 282.03 258.39 280.31 264.87 267.92"/><polygon class="cls-7" points="261.7 265.4 260.98 264.83 250.18 275.19 251.33 279.37 251.48 279.51 252.27 278.58 260.19 269.51 261.7 265.4"/><polygon class="cls-7" points="250.18 275.19 247.73 277.57 251.33 283.26 254.36 282.03 250.18 275.19"/><polygon class="cls-6" points="276.03 281.67 282.65 284.34 277.54 294.35 273.15 295.06 257.95 296.22 257.67 284.19 276.03 281.67"/><path class="cls-7" d="M277.54,294.35,276,297.44l-18-1.22-.08-3.75,5,.36,3.24-17.13,13.68,4.46-5.47,13.61ZM266,293.12h0l5.11.36,4.9-11.81-8.36.43Z"/><polygon class="cls-8" points="270.12 257.41 274.3 264.11 280.85 280.02 281.14 283.11 261.99 282.39 258.39 280.31 260.19 269.51 263.93 272.68 260.98 264.83 263.93 262.24 270.12 257.41"/><polygon class="cls-9" points="274.3 264.11 275.95 279.95 280.85 280.02 282.58 284.55 257.67 284.19 258.39 280.31 265.3 280.45 260.19 269.51 260.55 267.42 260.98 264.83 268.9 280.02 273.15 279.95 271.63 264.25 272.07 258.06 274.3 264.11"/><polygon class="cls-3" points="267.17 247.55 274.3 259.5 274.3 264.11 260.98 264.83 260.12 260.08 267.17 247.55"/><polygon class="cls-10" points="265.37 205.5 276.53 220.77 274.3 259.5 260.12 260.08 254.43 227.32 265.37 205.5"/><path class="cls-3" d="M240.25,165.84c-1,.21,10.94-5.62,10.94-5.62l25.34,60.55-22.1,6.55-12.82-22.68Z"/><polygon class="cls-3" points="228.37 285.27 252.48 310.47 261.12 350.14 248.24 359.14 243.84 351.36 225.34 316.3 228.37 285.27"/><polygon class="cls-3" points="173.29 312.63 157.67 326.81 152.41 345.75 169.33 346.32 176.17 335.38 173.29 312.63"/><polygon class="cls-3" points="175.88 282.83 163 304.5 157.67 326.81 176.17 335.38 189.27 314.29 175.88 282.83"/><path class="cls-3" d="M179.84,165c.58.58-3.81-9-3.81-9l-30,64.15,18.22,2.3,6.62-6.55,11.74-12Z"/><polygon class="cls-5" points="193.23 249.49 172.79 263.75 163 304.5 189.27 314.29 207.63 284.91 193.23 249.49"/><polygon class="cls-5" points="213.82 246.61 207.63 284.91 225.34 316.37 252.48 310.47 242.26 262.74 213.82 246.61"/><polygon class="cls-3" points="204.03 216.59 231.39 233.65 242.26 262.74 207.63 284.91 172.79 263.75 181.71 234.81 204.03 216.59"/><polygon class="cls-5" points="178.83 182.9 170.48 199.1 181.71 234.81 231.46 233.8 242.12 205.5 178.83 182.9"/><path class="cls-10" d="M178.83,182.9l-5.18,16.27,68.47,6.33-3.6-43.7-19.8-14.32s-24.55,4-24.12,3.74S178.83,182.9,178.83,182.9Z"/><polygon class="cls-11" points="179.63 166.41 171.92 189.38 170.48 199.1 173.65 199.17 195.82 152.3 193.38 150.07 191.87 152.52 179.63 166.41"/><polygon class="cls-3" points="214.11 187 230.6 187 230.6 180.88 214.11 180.88 214.11 187"/><polygon class="cls-5" points="215.91 185.49 228.73 185.49 228.73 182.39 215.91 182.39 215.91 185.49"/><polygon class="cls-11" points="226.35 147.26 220.81 152.3 242.12 205.5 245.07 194.34 237.94 162.45 231.97 158.2 226.35 147.26"/><polygon class="cls-10" points="228 147.33 229.95 151.51 251.19 160.22 245.07 194.34 224.26 151.8 228 147.33"/><polygon class="cls-3" points="232.32 128.04 234.77 138.84 233.26 152.88 224.48 152.23 220.38 133.29 232.32 128.04"/><polygon class="cls-5" points="216.7 133.8 225.27 134.52 224.48 152.23 220.81 152.3 216.7 133.8"/><polygon class="cls-3" points="212.24 128.83 221.24 138.77 220.81 152.3 195.82 152.3 184.52 132.72 212.24 128.83"/><polygon class="cls-5" points="183.66 132.79 191.87 152.52 195.82 152.3 187.91 132.65 183.66 132.79"/><path class="cls-6" d="M247.3,87.51l.72,13.31-13.25,38-37.07-.15s5-120.66,5.11-122.75S247,35.17,247,35.17Z"/><polygon class="cls-12" points="246.72 27.25 228.44 41.36 235.49 71.45 240.1 71.31 255.44 66.77 266.38 66.92 265.37 45.39 246.72 27.25"/><polygon class="cls-1" points="246.8 91.9 252.05 89.23 266.38 66.92 232.04 56.76 234.63 76.2 248.38 77.14 246.8 91.9"/><polygon class="cls-13" points="210.37 32.14 228.44 41.36 247.01 35.17 265.37 45.39 250.47 15.8 210.37 32.14"/><polygon class="cls-13" points="250.47 15.8 238.73 24.01 212.96 31.64 178.19 38.05 171.13 21.27 174.37 5.87 209.22 0.03 216.7 9.25 228.15 7.23 250.47 15.8"/><polygon class="cls-12" points="209.22 0.03 190.21 17.38 182.72 32.79 172.28 31.71 166.59 14.43 174.37 5.87 209.22 0.03"/><polygon class="cls-12" points="168.75 16.16 159.4 8.96 145.64 34.45 154.14 51.01 172.93 26.74 168.75 16.16"/><polygon class="cls-14" points="160.4 36.68 161.41 30.77 159.4 8.96 174.37 5.87 175.95 32.79 160.4 36.68"/><polygon class="cls-8" points="154.14 51.01 154.93 82.39 159.97 126.09 177.97 138.91 197.7 138.69 224.77 125.88 228.44 41.36 209.57 31.21 182.87 33.22 161.7 30.2 154.14 51.01"/><polygon class="cls-6" points="161.77 61.23 157.16 64.54 167.1 76.28 176.89 92.83 182.79 86.86 186.82 92.69 203.46 79.37 212.67 77.57 215.69 63.75 219.58 48.7 217.57 48.34 206.55 55.76 190.14 71.09 183.94 75.99 182.5 78.94 180.85 75.92 174.66 67.42 170.84 65.19 161.77 61.23"/><polygon class="cls-3" points="222.25 175.41 215.77 191.47 222.89 187.87 229.95 191.82 222.25 175.41"/><polygon class="cls-10" points="191.87 152.52 176.03 155.97 171.92 189.38 191.87 152.52"/><polygon class="cls-15" points="181.71 90.82 176.89 92.83 182.5 97.51 187.4 92.69 181.71 90.82"/><path class="cls-16" d="M167.1,72.53a3.75,3.75,0,1,1-3.75,3.74A3.74,3.74,0,0,1,167.1,72.53Z"/><path class="cls-16" d="M202.59,72.31a3.75,3.75,0,1,1,0,7.49,3.75,3.75,0,0,1,0-7.49Z"/><polygon class="cls-17" points="180.2 74.98 176.89 92.83 187.4 92.69 184.88 75.19 180.2 74.98"/><polygon class="cls-5" points="170.84 111.77 178.11 102.62 182.79 103.7 187.26 102.62 198.78 112.49 188.19 120.05 178.11 120.26 170.84 111.77"/><polygon class="cls-18" points="172.86 111.84 180.27 108.6 186.39 108.53 195.61 112.63 190.21 112.85 176.6 112.99 172.86 111.84"/><polygon class="cls-19" points="172.71 63.96 161.05 60.08 156.66 63.17 157.16 64.54 161.12 62.88 174.66 67.42 172.71 63.96"/><path class="cls-7" d="M209.94,60.87c.64,3,1.08,5.76,1.51,8.64l5.11,2.3.21-4.89,2.16-.44s-1.65-1.94-2.51-3.09L215,59.28Z"/><path class="cls-20" d="M211.45,69.51c.5,3,.93,6,1.37,9.28L218.29,74l-1.73-2.23-.14-1.37,2-.43-1.22-2.3Z"/><polygon class="cls-20" points="185.75 65.33 200.86 51.29 206.77 53.09 206.55 55.76 194.17 69.8 190.14 71.09 185.75 65.33"/><polygon class="cls-20" points="200.86 51.29 206.55 55.76 209.94 54.75 213.18 53.67 214.47 53.31 217.57 48.34 213.39 49.06 208.85 49.85 204.61 50.64 200.86 51.29"/><polygon class="cls-20" points="219.22 48.48 215.77 55.11 207.78 57.56 202.52 65.19 213.9 62.02 215.34 73.97 208.28 83.47 209.94 85.27 220.23 75.63 220.01 57.99 221.45 49.56 219.22 48.48"/><path class="cls-20" d="M199.93,55.68l-4.54,4.18,2,1.87,4-4.39Zm-6,5.55h0l2,2.09-4,4.32L189.78,65Z"/><polygon class="cls-15" points="250.25 79.59 239.24 88.87 248.02 100.83 252.05 89.23 250.25 79.59"/><polygon class="cls-8" points="238.73 76.49 239.24 88.87 252.05 89.23 254.93 70.01 241.61 68.72 238.73 76.49"/><polygon class="cls-15" points="249.97 72.67 243.2 74.62 244.06 84.41 249.97 72.67"/><polygon class="cls-3" points="244.35 361.88 238.16 372.31 233.55 384.48 264.22 384.7 261.12 350.14 244.35 361.88"/><polygon class="cls-5" points="243.84 351.36 261.12 350.14 258.53 376.06 238.16 372.31 243.84 351.36"/><polygon class="cls-21" points="220.73 17.96 250.47 15.8 209.57 31.21 220.73 17.96"/><polygon class="cls-21" points="228.15 7.23 202.52 22.93 191.94 32.79 182.87 33.22 190.21 17.38 209.22 0.03 228.15 7.23"/><polygon class="cls-10" points="170.84 215.87 181.71 234.81 173.29 239.63 169.33 247.76 146 220.12 170.84 215.87"/><polygon class="cls-8" points="180.35 241.36 181.57 234.44 170.34 237.9 163.93 252.3 180.42 241 180.35 241.36"/><polygon class="cls-6" points="181.71 234.81 187.69 243.23 174.44 258.35 163.93 252.3 181.71 234.81"/></svg>