<?xml version="1.0" encoding="utf-8"?>
<!-- Generator: Adobe Illustrator 23.0.1, SVG Export Plug-In . SVG Version: 6.00 Build 0)  -->
<svg version="1.1" id="Layer_1" xmlns="http://www.w3.org/2000/svg" xmlns:xlink="http://www.w3.org/1999/xlink" x="0px" y="0px"
	 viewBox="0 0 199 400" style="enable-background:new 0 0 199 400;" xml:space="preserve">
<style type="text/css">
	.st0{opacity:0.1;fill-rule:evenodd;clip-rule:evenodd;fill:#2B2B2B;enable-background:new    ;}
	.st1{fill-rule:evenodd;clip-rule:evenodd;fill:#795D88;}
	.st2{fill-rule:evenodd;clip-rule:evenodd;fill:#4F5353;}
	.st3{fill-rule:evenodd;clip-rule:evenodd;fill:#737474;}
	.st4{fill-rule:evenodd;clip-rule:evenodd;fill:#594265;}
	.st5{fill-rule:evenodd;clip-rule:evenodd;fill:#DDDDDC;}
	.st6{fill-rule:evenodd;clip-rule:evenodd;fill:#8B6651;}
	.st7{fill-rule:evenodd;clip-rule:evenodd;fill:#C2987A;}
	.st8{fill:#795D88;}
	.st9{fill:#A588B9;}
	.st10{fill:#594265;}
	.st11{fill-rule:evenodd;clip-rule:evenodd;fill:#9075A0;}
	.st12{fill-rule:evenodd;clip-rule:evenodd;fill:#3F4036;}
	.st13{fill-rule:evenodd;clip-rule:evenodd;fill:#A588B9;}
	.st14{fill-rule:evenodd;clip-rule:evenodd;fill:#C4C4C4;}
	.st15{fill-rule:evenodd;clip-rule:evenodd;fill:#734D61;}
	.st16{fill-rule:evenodd;clip-rule:evenodd;fill:#D1A1B9;}
	.st17{fill-rule:evenodd;clip-rule:evenodd;fill:#96647C;}
	.st18{fill-rule:evenodd;clip-rule:evenodd;fill:#DFBDA5;}
	.st19{fill-rule:evenodd;clip-rule:evenodd;fill:#A3A3A3;}
	.st20{fill-rule:evenodd;clip-rule:evenodd;fill:#ECECEB;}
	.st21{fill-rule:evenodd;clip-rule:evenodd;fill:#474748;}
	.st22{fill-rule:evenodd;clip-rule:evenodd;fill:#E9CBB7;}
	.st23{fill-rule:evenodd;clip-rule:evenodd;fill:#FFFFFF;}
	.st24{fill-rule:evenodd;clip-rule:evenodd;fill:#9CA0A1;}
	.st25{fill-rule:evenodd;clip-rule:evenodd;fill:#2B2B2B;}
</style>
<title>analysts_INTJ_famous_real_colin_powell</title>
<polygon class="st0" points="198.1,389 128.2,380 62.1,379.6 0,386.6 89,400 "/>
<polygon class="st1" points="167.6,363.6 178.7,384.3 158.9,387 143.6,384.3 146.8,365.2 155.3,361 "/>
<polygon class="st2" points="148.6,267.6 152.2,278.5 160.5,354.7 158.1,364.4 146.8,365.2 128.8,321 122,296.4 119.4,260.9 
	143.4,263.9 "/>
<polygon class="st3" points="146,262.3 133.4,287 152.6,312.5 158,364.4 167.6,363.6 163.7,267.5 "/>
<polygon class="st4" points="159.1,162.5 154.9,213.9 161.8,235.3 168.2,246.1 186.1,239.8 177.4,200.4 "/>
<polygon class="st1" points="199,241.1 198,197.2 188.5,195.1 177.4,200.4 168.2,246.1 "/>
<polygon class="st5" points="198,185 198,197.2 177.4,200.4 180,186.6 189.5,181.9 "/>
<polygon class="st6" points="168.9,176 175.5,176.1 175.2,164.4 166.8,155.4 162.5,164.9 "/>
<polygon class="st7" points="195.4,154.8 198,185 180,186.6 166.8,155.4 "/>
<polygon class="st4" points="54.8,162.5 56.9,193.8 50.2,229.7 32.6,240.8 26.1,225 31.4,198 "/>
<polygon class="st1" points="10.8,194.3 21.4,192.2 31.4,198 32.6,240.8 0.8,232.7 "/>
<polygon class="st5" points="31.4,184.8 31.4,198 10.8,194.3 13.4,181 22.4,181 "/>
<polygon class="st6" points="47.9,162.5 44.2,155.6 35.7,163.6 35.9,174.5 42.9,172.8 "/>
<polygon class="st7" points="44.2,155.6 18.3,154.6 13.4,181 31.4,184.8 "/>
<polygon class="st1" points="163.7,267.5 140.5,285.3 90.3,297.3 95,234 99.2,220.1 145.3,184.2 138.9,159.1 159.1,162.5 "/>
<rect x="117.1" y="203.9" class="st8" width="7.8" height="3.9"/>
<rect x="125.8" y="203.9" class="st9" width="7.8" height="3.9"/>
<rect x="134.6" y="203.9" class="st8" width="7.8" height="3.9"/>
<rect x="143.3" y="203.9" class="st10" width="7.8" height="3.9"/>
<rect x="117.1" y="213.8" class="st8" width="7.8" height="3.9"/>
<polygon class="st4" points="124.8,208.9 127.2,208.9 131.6,208.9 131.6,212.8 127.2,212.8 124.8,212.8 117.1,212.8 117.1,208.9 "/>
<rect x="125.8" y="213.8" class="st9" width="7.8" height="3.9"/>
<polygon class="st4" points="122.8,218.7 124.6,218.7 128,218.7 128,222.6 124.6,222.6 122.8,222.6 117.1,222.6 117.1,218.7 "/>
<rect x="132.7" y="208.9" class="st10" width="9.7" height="3.9"/>
<rect x="134.6" y="213.8" class="st8" width="7.8" height="3.9"/>
<rect x="129.2" y="218.7" class="st8" width="11.5" height="3.9"/>
<rect x="143.3" y="208.9" class="st9" width="7.8" height="3.9"/>
<rect x="143.3" y="213.8" class="st10" width="7.8" height="3.9"/>
<rect x="141.7" y="218.7" class="st9" width="9.4" height="3.9"/>
<polygon class="st4" points="138.5,170.4 159.3,167.7 142.6,161.1 "/>
<polygon class="st11" points="138,166.5 159.3,167.6 158.9,162.4 139.2,157.2 "/>
<polygon class="st11" points="82,161.8 54.8,162.5 47.2,274 64.8,286 95.8,292.1 97.5,225.8 70.6,181 "/>
<polygon class="st4" points="56,205.7 80.1,207.2 80.2,215.8 55.2,213.4 "/>
<polygon class="st2" points="77.8,273 80.1,270.5 81.9,231.9 80.1,229.5 77.4,231.7 75.7,270.7 "/>
<polygon class="st12" points="90.3,222.6 85.5,215.9 76.7,215.5 70.4,221.5 76.5,224.3 83.5,225.2 "/>
<polygon class="st12" points="89.3,226.5 88.4,223.5 70.4,225.8 77.3,233.5 81.8,233.8 "/>
<polygon class="st4" points="103.3,237.4 97.2,231.8 91.5,237.1 96.9,242.7 "/>
<polygon class="st4" points="78.3,169.8 54.3,168.4 76.1,163.6 "/>
<polygon class="st11" points="54.3,168.4 77.2,165.4 76.4,156.9 54.8,162.5 "/>
<polygon class="st13" points="149.2,185.8 139.2,157.2 113.2,184.8 97.3,226.1 "/>
<polygon class="st13" points="76.4,156.9 85.1,181 97.3,226.1 61.8,182.1 "/>
<polygon class="st14" points="99.4,177.3 113.2,180.5 119.6,189.4 110.2,204.8 89.3,201.9 84.9,186.8 88.3,180 "/>
<polygon class="st6" points="142.6,132.2 137.4,152.3 99.4,194.3 76.4,156.9 68,137.3 129.4,136.3 "/>
<polygon class="st12" points="110.2,179.8 103.7,191.6 99.4,194.3 95.2,191.1 88.3,180 99.4,177.3 "/>
<polygon class="st2" points="110.2,204.8 103.7,191.6 95.2,191.1 89.3,201.9 97.3,226.1 "/>
<polygon class="st15" points="143.8,318.1 128.4,391.3 118.2,394.1 107.7,385.3 111.4,291 115.9,282.3 "/>
<path class="st15" d="M111.1,257.7l14-9.1l21.3,17.5l6.1,46.4L140,313c0,0-22.6-10.1-20.9-11.4S111.1,257.7,111.1,257.7z"/>
<polygon class="st16" points="69.7,309.7 34.9,302.8 48.8,250 125.1,248.5 135.8,304.2 113.1,309.5 "/>
<polygon class="st17" points="119.2,307.5 129.9,312.5 118.2,394.1 62.1,392.8 45.4,312 66.1,308.6 "/>
<polygon class="st4" points="129.9,312.5 143.8,318.1 152.6,312.5 135.8,304.2 34.9,302.8 45.6,312.9 "/>
<polygon class="st7" points="139.1,157.2 150.9,112.8 145.6,70.1 138.1,76.6 129.9,118.3 116.5,140.5 135.2,141.3 106.3,178.9 "/>
<polygon class="st18" points="46.6,114.3 60.8,139.1 116.5,140.5 136.1,121.7 139.6,79.3 142,45.3 132.9,20.3 127.4,16 65.4,14.2 
	53.2,19.7 45.9,34.3 43.5,63.5 "/>
<path class="st7" d="M124.4,71.4H95.2l-6,10.1l5.8,8.1l7.8-10l21.6-1.5L124.4,71.4L124.4,71.4z M52,77.5L52,77.5l-0.6-7.3l25.6,0.1
	l6,15.4L77,89.6L71,78.9L52,77.5z"/>
<polygon class="st19" points="163.5,25.8 160.3,70.3 146.3,78.7 139.6,79.3 141.2,46.7 138.6,35.8 132.9,20.3 140.2,10.6 "/>
<polygon class="st14" points="137.9,0.8 163.5,25.8 138.6,35.8 123.1,18.2 121,5.4 "/>
<polygon class="st19" points="139.6,28.2 145.6,32.9 141.2,46.7 138.6,35.8 "/>
<polygon class="st20" points="63.7,0 137.9,0.8 131,10.1 122.8,15.9 68.7,17 62,11.5 "/>
<polygon class="st14" points="45.9,16.2 63.7,0 68.7,17 50.7,30.9 47.1,29.7 "/>
<polygon class="st19" points="43.5,63.5 50.7,30.9 45.9,16.2 "/>
<polygon class="st6" points="150.9,112.8 142,95.3 148.4,95.1 154.9,97.2 "/>
<polygon class="st18" points="144.8,68.3 160.3,70.3 154.9,97.2 142,95.3 "/>
<polygon class="st6" points="150.3,73.8 155.4,74.7 149.1,86.5 "/>
<polygon class="st21" points="124.4,55.7 126.2,59.6 95.3,69.5 94.4,64.8 "/>
<polygon class="st21" points="53.2,53.5 77.5,64.8 76.5,68.9 50.8,57.2 "/>
<polygon class="st3" points="126.2,69.4 95.3,69.5 90.4,74.4 91.6,80.2 98.1,72.9 122.8,72.7 122.6,89.4 91.8,89.6 92.2,92.5 
	125.9,92.8 "/>
<polygon class="st3" points="80.5,74.5 76.5,68.9 49.8,68.5 49.8,91.3 81.1,93.2 76.9,91 79.9,89.8 52.9,88.2 52.9,71.7 75.2,72.5 
	79.9,81.1 "/>
<path class="st22" d="M90.4,74.4l-9.8,0.2L75.1,98l9.7,1.8L97.6,98C97.6,98,90,74.4,90.4,74.4z"/>
<polygon class="st6" points="84.8,104.7 97.6,98 75.1,98 "/>
<polygon class="st6" points="94.2,113.6 99.2,123.6 71.3,121.7 77.8,113.1 "/>
<polygon class="st23" points="91.9,116.2 94.7,121.2 76.5,120.4 79.1,115.9 "/>
<polygon class="st5" points="119.6,189.4 139.2,157.2 99.4,177.3 "/>
<polygon class="st5" points="76.4,156.9 99.4,177.3 84.9,186.8 "/>
<rect x="143.6" y="384.3" class="st10" width="35.1" height="4.7"/>
<path class="st19" d="M85.5,14.1c0,0.7-18.7-3.6-18.7-3.6L50.7,30.9l18-14L85.5,14.1z"/>
<polygon class="st24" points="121.5,18.3 68.7,17 66.8,10.5 131,10.1 145.6,32.9 138.6,35.8 "/>
<path class="st20" d="M58.7,207.1l-0.6,5l1.1,0.1l0.3-2l2.1-1.9L58.7,207.1L58.7,207.1z M59.6,209.1l0.1-1l0.7,0.5L59.6,209.1
	L59.6,209.1z M61.5,210.3l0.9-2.1l1.5-0.6l1.3,0.5l0.6,1.9l-0.6,2.2l-1.9,0.6l-1.6-0.8L61.5,210.3z M64.4,209.5h-1.2L63,211l1.2,0.1
	L64.4,209.5L64.4,209.5z M66.2,208.1l0.6,4.7L68,213l0.7-1.7l0.3,1.8l0.9,0.1l1.9-4.7l-1.3-0.1l-0.9,2.8l-0.2-1.5l-1-0.2l-0.7,1.5
	l-0.2-3L66.2,208.1L66.2,208.1z M72.1,208.2l3.1,0.3l-0.1,1.4l-2-0.2l-0.1,0.7l1.7,0.2l-0.1,1.1l-1.6-0.2l-0.1,0.7l1.8,0.2l-0.2,1.3
	l-3-0.3L72.1,208.2L72.1,208.2z M76.5,208.9l-1.3-0.2l-0.4,5.2l2.8,0.2l0.2-1.3h-1.7L76.5,208.9z"/>
<circle class="st10" cx="58.8" cy="164.7" r="1.6"/>
<path class="st4" d="M63.8,165.2c0.9-0.1,1.6-0.9,1.5-1.8c-0.1-0.8-0.7-1.5-1.5-1.5c-0.9-0.1-1.7,0.6-1.8,1.5
	c-0.1,0.9,0.6,1.7,1.5,1.8C63.6,165.2,63.7,165.2,63.8,165.2z"/>
<path class="st4" d="M68.8,164c0.9,0,1.7-0.7,1.7-1.7c0-0.9-0.7-1.7-1.7-1.7c-0.9,0-1.7,0.7-1.7,1.7C67.2,163.3,67.9,164,68.8,164z"
	/>
<path class="st4" d="M144,164.1c0.9,0,1.7-0.7,1.7-1.7c0-0.9-0.7-1.7-1.7-1.7c-0.9,0-1.7,0.7-1.7,1.7S143.1,164.1,144,164.1
	L144,164.1z"/>
<path class="st4" d="M149.4,165c0.9,0,1.7-0.7,1.7-1.6c0-0.9-0.7-1.7-1.6-1.7s-1.7,0.7-1.7,1.6c0,0,0,0,0,0
	C147.7,164.3,148.5,165,149.4,165z"/>
<path class="st4" d="M154.8,165.9c0.9,0,1.7-0.7,1.7-1.6c0-0.9-0.7-1.7-1.6-1.7c-0.9,0-1.7,0.7-1.7,1.6c0,0,0,0,0,0
	C153.1,165.2,153.9,165.9,154.8,165.9z"/>
<polygon class="st3" points="70.4,221.5 90.3,222.6 89.3,226.5 70.4,225.8 "/>
<path class="st25" d="M71.8,78.9c0,2.6-2.1,4.7-4.7,4.7s-4.7-2.1-4.7-4.7c0-2.6,2.1-4.7,4.7-4.7C69.7,74.2,71.8,76.3,71.8,78.9
	C71.8,78.9,71.8,78.9,71.8,78.9z"/>
<path class="st25" d="M116.8,79.3c0,2.6-2.1,4.7-4.7,4.7s-4.7-2.1-4.7-4.7c0-2.6,2.1-4.7,4.7-4.7c0,0,0,0,0,0
	C114.7,74.7,116.8,76.7,116.8,79.3z"/>
</svg>
