<svg xmlns="http://www.w3.org/2000/svg" viewBox="0 0 400 400"><defs><style>.cls-1,.cls-15,.cls-6{fill:#2b2b2b;}.cls-1{opacity:0.1;}.cls-2{fill:#95637c;}.cls-3{fill:#734d60;}.cls-4{fill:#b2879c;}.cls-5{fill:#d0a0b7;}.cls-6{opacity:0.2;}.cls-7{fill:#8f759f;}.cls-8{fill:#a587b9;}.cls-9{fill:#785d87;}.cls-10{fill:#f4c9b2;}.cls-11{fill:#fce3d4;}.cls-12{fill:#c1907d;}.cls-13{fill:#5f5044;}.cls-14{fill:#ffefe7;}.cls-16{fill:#74665b;}.cls-17{fill:#46382d;}</style></defs><title>analysts_INTJ_famous_real_arnold_schwarzenegger</title><g id="weights"><polygon class="cls-1" points="107 368 150.27 366.5 315 380.88 328 387 231.59 400 120 387 92.39 371.99 107 368"/><polygon class="cls-2" points="145.31 300.79 110.75 306.5 101 336.5 121 370.24 150.27 366.5 162.27 340.56 159.01 317.67 145.31 300.79"/><polygon class="cls-3" points="121 370.24 103 336.5 96.5 332.84 87.5 335.51 107 368 121 370.24"/><polygon class="cls-4" points="103 336.5 112.75 307.5 111.25 306 104.25 306.25 87.5 335.51 103 336.5"/><polygon class="cls-5" points="112.75 307.5 145.31 300.79 129.03 296.5 104.25 306.25 112.75 307.5"/><polygon class="cls-6" points="126.68 336.5 157.47 350.92 150.27 335.51 126.68 336.5"/><polygon class="cls-2" points="288 313.5 317.5 328.5 319.13 342.99 318 354.95 321.75 366.25 313 385 283.25 392.32 270.83 353.33 288 313.5"/><polygon class="cls-4" points="259.67 351.67 247.51 350.28 237.38 351.67 231.35 348.44 126.68 336.5 129.33 327.33 267 340 259.67 351.67"/><polygon class="cls-5" points="259.67 351.67 276.25 312 288 313.5 273.83 353.33 268.5 357.27 259.67 351.67"/><polygon class="cls-3" points="273.83 353.33 283.25 392.32 263.75 390 259.67 351.67 273.83 353.33"/><polygon class="cls-6" points="290.25 374.75 306.64 386.56 313 385 321.75 366.25 300.5 365.5 290.25 374.75"/><polygon class="cls-7" points="319.13 342.99 300.5 334.64 291.75 354.95 302.25 376 321.75 366.25 319.13 342.99"/><polygon class="cls-8" points="300.5 334.64 293.75 333.75 286.25 353.33 290.25 357.27 293.75 354.75 300.5 334.64"/><polygon class="cls-9" points="293.75 354.75 302.25 376 290.25 374.75 286.25 353.33 293.75 354.75"/><polygon class="cls-2" points="309 349.16 315 352.91 310.25 360.75 305 354.95 309 349.16"/></g><g id="arnold"><polygon class="cls-10" points="225.41 378.5 211.08 391.32 228.33 391.32 229.33 382.98 225.41 378.5"/><polygon class="cls-11" points="150.27 261.33 141.82 328.5 158.58 347.65 166.84 364.33 136 384.32 164.92 387 176.82 383.98 179.64 375.33 179 368 176.82 352.67 185.15 335 167.75 298 159.9 274.33 150.27 261.33"/><polygon class="cls-10" points="141.82 328.5 175.02 332.84 182.71 334.48 181 357.27 179 368 166.84 364.33 141.82 328.5"/><polygon class="cls-10" points="167.75 298 164.92 317.67 175.02 332.84 176.82 317.3 167.75 298"/><polygon class="cls-12" points="175.02 332.84 181 357.27 185.15 335 175.02 332.84"/><polygon class="cls-11" points="167.75 298 175.02 332.84 201.56 339.33 219.67 353.33 228.33 391.32 236 389.5 243.51 367.08 245.33 353.33 237.65 349.16 231.33 348.44 220.21 325.33 208.04 319.67 225.41 284.23 198.25 274.33 167.75 298"/><polygon class="cls-10" points="175.02 332.84 208.04 319.67 211.83 321.43 221.33 321.33 231.33 348.44 219.67 353.33 175.02 332.84"/><polygon class="cls-10" points="203.33 286.33 192.67 317.67 204.87 301.33 203.33 286.33"/><polygon class="cls-12" points="221.33 321.33 201.56 331.33 208.04 319.67 221.33 321.33"/><polygon class="cls-10" points="179.64 375.33 164.92 387 126.67 374.75 132 387 180.67 387 179.64 375.33"/><polygon class="cls-10" points="237.65 349.16 243.22 367 228.33 391.32 236.67 391.32 247.57 350.29 237.65 349.16"/><polygon class="cls-10" points="174.51 151.91 149.45 160.13 163.94 167.65 176.82 167.65 174.51 151.91"/><polygon class="cls-13" points="153.01 23.1 156.86 14.51 155.58 4.63 136.53 19.55 146.78 35.45 153.01 23.1"/><polygon class="cls-11" points="153.01 23.1 135.06 43.66 130.67 105.94 148.62 133.93 165.84 136.16 180.21 162.25 225.18 143.63 244.23 82.8 233.61 66.38 225.87 35.45 193.31 21.23 153.01 23.1"/><polygon class="cls-10" points="225.87 35.45 211.99 121.61 181.95 141.76 176.82 167.65 200 167.65 228.89 152.79 240.45 114.64 240.45 106.18 244.49 101.27 251.56 77.95 238 65.26 239.47 41.38 225.87 35.45"/><polygon class="cls-10" points="201.37 66.85 170.05 90.36 162.9 81.12 139.82 59.01 149.27 58.01 157.68 59.01 162.9 65.26 170.6 66.16 180.21 62.09 191.35 62.6 201.37 66.85"/><polygon class="cls-14" points="170.6 66.16 167.3 81.87 170.05 90.36 157.82 88.54 162.9 81.12 162.9 65.26 170.6 66.16"/><polygon class="cls-12" points="170.05 90.36 163.32 96.61 157.82 88.54 170.05 90.36"/><polygon class="cls-12" points="148.62 104.07 162.54 107.06 181.95 107.06 181.95 110.6 161.81 110.98 147.88 107.8 148.62 104.07"/><polygon class="cls-12" points="165.84 136.16 207.23 141.76 176.82 167.65 165.84 136.16"/><polygon class="cls-12" points="244.49 101.27 231.59 97.73 240.45 114.64 244.49 101.27"/><polygon class="cls-12" points="239.28 82.06 236.9 92.58 246.79 83.73 239.28 82.06"/><polygon class="cls-13" points="201.37 66.85 201.37 63.02 181.4 57.43 180.21 62.09 201.37 66.85"/><polygon class="cls-13" points="157.68 59.01 157.82 55 139.82 55.75 139.82 59.01 157.68 59.01"/><ellipse class="cls-15" cx="187.45" cy="72.54" rx="3.48" ry="3.55"/><ellipse class="cls-15" cx="150.27" cy="68.06" rx="3.48" ry="3.55"/><polygon class="cls-10" points="204.57 91.01 183.69 95.86 193.94 111.54 193.39 99.03 204.57 91.01"/><polygon class="cls-10" points="135.53 84.3 149.45 91.94 140.66 104.07 141.57 94 135.53 84.3"/><polygon class="cls-16" points="155.58 4.63 182.69 2.2 181.95 16.66 170.05 30 153.01 23.1 155.58 4.63"/><polygon class="cls-13" points="170.05 30 182.69 2.2 203.57 0.33 202.28 12.83 193.31 21.23 170.05 30"/><polygon class="cls-16" points="203.57 0.33 231.08 14.61 222.62 24.03 204.86 27.39 193.31 21.23 203.57 0.33"/><polygon class="cls-13" points="204.87 27.39 231.08 14.61 252.47 26.83 240.45 37.09 225.41 38.34 204.87 27.39"/><polygon class="cls-17" points="252.47 26.83 225.41 38.34 233.82 43.02 244.23 52.39 252 53.13 252.47 26.83"/><polygon class="cls-13" points="233.82 43.02 252 53.13 251.72 69 238.3 69.66 228.89 59.01 233.82 43.02"/><polygon class="cls-17" points="251.72 69 228.89 59.01 225.41 70.3 228.67 82.06 233.61 84.3 236.9 73.66 251.56 77.95 251.72 69"/><polygon class="cls-11" points="176.82 167.65 228.89 152.79 251.56 157 275.33 139 287.17 143 293.67 142.67 295 129 290 122 281.33 122 269.33 107.52 271.67 90.36 302.67 96.61 334.67 143 323 175.33 302.44 187.16 287.17 191.17 272.33 203 266.67 224 222 251.33 221.33 261 167.75 279.67 150.27 261.33 150.27 235.33 144 225.67 140.3 207.07 126.67 200 105.12 192.85 89 182.35 79.67 152.79 90.33 103.07 118.67 94.18 126.67 105.94 123.81 119.33 114.33 124.33 114.33 137.65 120 147.67 176.82 167.65"/><polygon class="cls-10" points="284.5 102.75 281 110.98 273.58 114.64 262.67 107.52 271.67 90.36 282.33 96.55 284.5 102.75"/><polygon class="cls-12" points="281 110.98 290 122 279.67 125 262.67 107.52 281 110.98"/><polygon class="cls-10" points="290 122 298 119.75 296.5 110.98 303.25 116.49 293.67 142.67 290 122"/><polygon class="cls-10" points="275.33 139 296.63 159.5 293.67 142.67 275.33 139"/><polygon class="cls-10" points="334.67 143 302.44 187.16 326 176 334.67 143"/><polygon class="cls-10" points="259.67 165.25 284.5 163.5 273.58 171.65 259.67 165.25"/><polygon class="cls-14" points="302.67 96.61 284.5 102.75 271.67 90.36 302.67 96.61"/><polygon class="cls-10" points="251.56 157 236.9 216.67 170.6 203 223 200 251.56 157"/><polygon class="cls-12" points="302.44 187.16 245.33 182.35 272.33 203 302.44 187.16"/><polygon class="cls-12" points="140.3 207.07 142.49 193.33 136 184 105.12 192.85 140.3 207.07"/><polygon class="cls-10" points="170.6 203 140.3 207.07 136 184 170.6 203"/><polygon class="cls-10" points="126.68 166.08 107.67 164.95 117.17 173 126.68 166.08"/><polygon class="cls-10" points="105.12 192.85 79.67 152.79 87.33 185.67 105.12 192.85"/><polygon class="cls-10" points="114.33 124.33 105.12 121.67 103.67 114.64 99.33 121 103 160.67 120 147.67 114.33 124.33"/><polygon class="cls-12" points="114.33 124.33 118.33 114.64 122.5 107.52 130.67 105.94 125.33 122.67 114.33 124.33"/><polygon class="cls-10" points="118.33 114.64 111.67 102.75 111.67 97.73 120 90.36 130.67 105.94 118.33 114.64"/><polygon class="cls-14" points="120 90.36 111.67 102.75 90.33 103.07 120 90.36"/><polygon class="cls-10" points="170.6 203 175.33 189 176.82 167.65 170.05 187.16 170.6 203"/><polygon class="cls-10" points="198.25 189 201.37 186.83 204.87 190 200 192.85 198.25 189"/><polygon class="cls-10" points="146.78 180.5 150.27 178.25 152.25 182.35 148.88 184.33 146.78 180.5"/><polygon class="cls-10" points="266.67 224 216 237.67 222 251.33 266.67 224"/><polygon class="cls-10" points="211.08 232 195.75 232 167.75 218.5 195.5 245.75 211.08 232"/><polygon class="cls-10" points="150.27 235.33 167.75 218.5 144 225.67 150.27 235.33"/><polygon class="cls-10" points="168.75 237.67 180.75 242.5 170.6 245.75 168.75 237.67"/><polygon class="cls-10" points="165.84 237.67 162.5 245.75 154.88 241.75 165.84 237.67"/><polygon class="cls-10" points="169.05 254.25 181 258.5 173.44 263.25 169.05 254.25"/><polygon class="cls-10" points="164.92 253.25 162 261.5 154.88 258.25 164.92 253.25"/><polygon class="cls-7" points="198.25 266.7 167.33 274.33 163.14 279.5 167.75 298 198.25 274.33 207.17 272.46 198.25 266.7"/><polygon class="cls-9" points="198.25 274.33 198.25 266.7 221.33 261 225.41 284.23 198.25 274.33"/><polygon class="cls-9" points="167.75 298 167.33 274.33 150.27 261.33 167.75 298"/><polygon class="cls-10" points="136 184 139.82 154.64 132.68 168.08 136 184"/></g></svg>