<svg id="illustration_layer_copy_4" data-name="illustration_layer copy 4" xmlns="http://www.w3.org/2000/svg" viewBox="0 0 400 400"><defs><style>.cls-1,.cls-12{fill:#2b2b2b;}.cls-1{opacity:0.1;}.cls-2{fill:#734d60;}.cls-3{fill:#785d87;}.cls-4{fill:#594165;}.cls-5{fill:#8f759f;}.cls-6{fill:#33231b;}.cls-7{fill:#fce3d4;}.cls-8{fill:#f4c9b2;}.cls-9{fill:#c1907d;}.cls-10{fill:#ffefe7;}.cls-11{fill:#82624d;}.cls-13{fill:#51362a;}.cls-14{fill:#66483a;}.cls-15{fill:#9ca0a1;}.cls-16{fill:#4f5253;}.cls-17{fill:#d0a0b7;}.cls-18{fill:#95637c;}</style></defs><title> </title><polygon class="cls-1" points="104.47 380.15 195.41 369.72 297.21 382.44 199.47 400 104.47 380.15"/><polygon class="cls-2" points="242.88 331.79 238.16 370.8 224.65 370.8 214.04 363.05 208.72 341.16 242.88 331.79"/><polygon class="cls-2" points="196.46 346.39 194.56 365.48 181.29 366.6 171.4 357.51 161.48 328.55 196.46 346.39"/><polygon class="cls-3" points="214.04 363.05 203.76 385.59 222.32 388.59 240.88 385.59 238.16 370.8 214.04 363.05"/><rect class="cls-4" x="203.76" y="385.59" width="37.11" height="5.99"/><polygon class="cls-3" points="171.4 357.51 138.93 376.74 167.68 379.64 194.56 376.74 194.56 365.48 171.4 357.51"/><rect class="cls-4" x="138.93" y="376.74" width="55.62" height="5.81"/><polygon class="cls-3" points="270.64 163.46 285.89 226.38 275.57 237.9 255.31 223.81 254.06 210.83 270.64 163.46"/><polygon class="cls-4" points="255.31 223.81 285.89 226.38 246.28 266.51 234.14 264.76 234.27 239.37 239.47 232.8 255.31 223.81"/><polygon class="cls-3" points="132.02 178.43 129.83 227.79 154.92 232.83 149.15 196.22 132.02 178.43"/><polygon class="cls-4" points="129.83 227.79 159.28 265.24 167.14 242.83 153.03 227.99 129.83 227.79"/><polygon class="cls-5" points="162.06 149 136.55 165.07 164.94 250.41 148.06 302.05 146.56 314.77 196.46 346.39 265.13 318.07 262.77 302.34 241.07 248.49 269.13 159.93 226.65 144 162.06 149"/><polygon class="cls-4" points="146.56 314.77 196.46 334.15 265.13 318.07 266.85 329.49 196.46 346.39 145.43 324.47 146.56 314.77"/><polygon class="cls-6" points="102.79 47.12 115.72 66.61 118.58 40.14 112.28 29.42 102.79 47.12"/><polygon class="cls-7" points="113.12 37.03 118.26 95.42 138.41 141.17 163.84 140.22 196.44 137.78 219.52 132.89 230.12 64.22 209.44 57.8 201.83 32.8 166.09 28.87 123.23 23.51 113.12 37.03"/><polygon class="cls-8" points="191.72 31.69 193.93 131.42 186.69 136.66 193.63 144.68 223.81 135.19 226.79 101.66 224.47 90.98 228.16 86.27 230.12 64.22 209.44 57.8 201.83 32.8 191.72 31.69"/><polygon class="cls-9" points="123.67 26.69 162.3 39.13 176.37 43.31 191.79 34.58 157.83 28.06 123.67 26.69"/><polygon class="cls-8" points="171.88 63.51 149.84 92.84 119.76 70.87 124.06 69.14 138.46 68.58 144.71 67.34 160.47 58.85 171.88 63.51"/><polygon class="cls-10" points="144.71 67.34 149.84 92.84 140.55 94.92 138.46 68.58 144.71 67.34"/><polygon class="cls-9" points="149.84 92.84 146.7 100.26 140.55 94.92 149.84 92.84"/><polygon class="cls-9" points="137.79 115.56 151.41 114.32 171.18 104.64 172.44 107.73 151.73 117.67 138.03 118.22 137.79 115.56"/><polygon class="cls-8" points="164.86 97.05 172.44 107.73 173.84 101.6 164.86 97.05"/><polygon class="cls-8" points="160.03 75.16 169.19 88.65 171.22 82.49 160.03 75.16"/><polygon class="cls-8" points="132.43 79.59 130.12 94.91 126.34 91.68 132.43 79.59"/><polygon class="cls-11" points="147.45 102.57 167.35 104.47 150.84 111.75 147.45 102.57"/><polygon class="cls-11" points="147.45 102.57 147.31 112.32 133.64 113.56 147.45 102.57"/><polygon class="cls-11" points="146.05 120.71 157.21 118.17 153.56 129 146.05 120.71"/><path class="cls-12" d="M164.56,69.27a3.07,3.07,0,1,1-2.58-3.5A3.07,3.07,0,0,1,164.56,69.27Z"/><path class="cls-12" d="M133,75.51A3.07,3.07,0,1,1,130.39,72,3.06,3.06,0,0,1,133,75.51Z"/><polygon class="cls-11" points="144.71 67.34 145.2 64.07 160.4 54.44 171.23 60.47 171.88 63.51 160.63 59.79 144.71 67.34"/><polygon class="cls-11" points="138.46 68.58 137.52 66.25 121.41 66 119.76 70.87 138.46 68.58"/><polygon class="cls-13" points="123.67 26.69 119.75 24.08 124.78 19.34 149.09 4.61 183 0 224.44 19.14 150.73 22.7 123.67 26.69"/><polygon class="cls-14" points="124.78 19.34 183 0 148.24 1.73 124.78 19.34"/><polygon class="cls-15" points="191.79 34.58 206.43 52.2 216.72 56.33 231.15 53.73 231.94 42.11 212.21 33.35 191.79 34.58"/><polygon class="cls-13" points="206.43 52.2 205.49 75.44 211.95 76.42 215.66 62.77 230.12 64.22 231.15 53.73 206.43 52.2"/><polygon class="cls-6" points="123.67 26.69 145.98 18.68 162.09 32.3 123.67 26.69"/><polygon class="cls-16" points="145.98 18.68 162.3 39.13 191.79 34.58 231.94 42.11 224.44 19.14 145.98 18.68"/><polygon class="cls-14" points="123.67 26.69 102.79 47.12 111.36 19.51 124.78 19.34 123.67 26.69"/><polygon class="cls-9" points="228.16 86.27 214.27 84.76 226.79 101.66 228.16 86.27"/><polygon class="cls-9" points="218.49 81.1 220.48 67.9 227.88 69.02 218.49 81.1"/><polygon class="cls-9" points="163.84 140.22 206.11 128.49 194.71 142.73 184.34 143.01 163.84 140.22"/><polygon class="cls-3" points="163.84 140.22 162.06 149 192.24 155.62 196.46 149 195.05 142.59 163.84 140.22"/><polygon class="cls-4" points="195.05 142.59 223.87 134.51 226.65 144 192.24 155.62 195.05 142.59"/><polygon class="cls-4" points="192.24 155.62 191.35 246.35 196.46 334.15 191.35 333.88 187.8 246.35 187.8 154.64 192.24 155.62"/><polygon class="cls-17" points="200.03 164.51 200.03 170.41 181.12 170.85 181.12 164.51 200.03 164.51"/><polygon class="cls-17" points="181.73 182.57 198.6 183.49 198.6 190.36 181.73 189.26 181.73 182.57"/><polygon class="cls-17" points="198.32 200.66 198.32 207.13 182.25 206.47 182.25 200.66 198.32 200.66"/><polygon class="cls-18" points="226.65 144 189.72 240.72 189.79 248.56 205.91 315.84 227.67 310.67 234.4 304.56 246.09 306.3 262.77 302.34 251.23 248.49 248.46 244.55 250.07 240.81 279.08 150.86 261.51 148.56 249.72 152.65 244.41 146.32 226.65 144"/><polygon class="cls-18" points="162.06 149 189.72 240.72 189.79 248.56 179.26 313.37 166.43 308.72 162.17 302.8 156.07 304.96 148.06 302.05 157.01 248.49 160.12 244.55 157.94 240.54 124.65 159.58 136.55 156.21 144.08 160.32 149.15 152.65 162.06 149"/><polygon class="cls-2" points="244.41 146.32 212.27 240.54 227.67 310.67 246.09 306.3 229.56 240.54 261.51 148.56 244.41 146.32"/><polygon class="cls-2" points="149.15 152.65 176.46 240.54 166.43 308.72 156.07 304.96 164.84 240.6 136.55 156.21 149.15 152.65"/><polygon class="cls-17" points="250.07 240.81 199.38 240.66 189.89 241.37 182.49 240.61 157.94 240.54 157.01 248.49 182.37 248.49 189.98 247.4 199.47 248.49 251.23 248.49 250.07 240.81"/><polygon class="cls-3" points="199.38 240.66 199.47 248.49 182.37 248.49 182.49 240.61 199.38 240.66"/></svg>