<svg id="Layer_1" data-name="Layer 1" xmlns="http://www.w3.org/2000/svg" viewBox="0 0 400 400"><defs><style>.cls-1{fill:#734d61;}.cls-1,.cls-10,.cls-11,.cls-12,.cls-13,.cls-14,.cls-15,.cls-16,.cls-17,.cls-18,.cls-2,.cls-3,.cls-4,.cls-5,.cls-6,.cls-7,.cls-8,.cls-9{fill-rule:evenodd;}.cls-2{fill:#95637c;}.cls-19,.cls-3{fill:#f4cab2;}.cls-17,.cls-4{fill:#2b2b2b;}.cls-4{opacity:0.1;}.cls-5{fill:#543042;}.cls-6{fill:#594265;}.cls-7{fill:#795d88;}.cls-8{fill:#8f759f;}.cls-9{fill:#d1a0b8;}.cls-10{fill:#4f4f51;}.cls-11{fill:#b2879c;}.cls-12{fill:#c18f7c;}.cls-13,.cls-20{fill:#a0a1a0;}.cls-14{fill:#cdcccb;}.cls-15{fill:#eaeceb;}.cls-16{fill:#fbe3d4;}.cls-18{fill:#fff0e8;}</style></defs><title>analysts_INTJ_famous_fictional_tywin_lannister_game_of_thrones</title><polygon class="cls-1" points="139.63 213.75 130.23 236.05 162.74 260.09 180.82 224.05 139.63 213.75"/><polygon class="cls-2" points="161.12 172.65 138.02 160.16 130.23 236.05 164.62 219.93 161.12 172.65"/><polygon class="cls-3" points="259.18 244.58 254.23 258.19 237.15 275.11 232.04 258.35 241.04 235.34 259.18 244.58"/><path class="cls-1" d="M271.26,226.65l.65,15.44-17.68,16.1S241.15,236.78,241,235.34l13.54-13.91Z"/><polygon class="cls-4" points="123.81 384.58 202.12 400 276.29 384.64 201.75 376.85 123.81 384.58"/><polygon class="cls-5" points="222.53 383.75 229.01 388.36 229.02 392.63 191.04 392.88 191.07 388.49 222.53 383.75"/><path class="cls-5" d="M166.46,381.74l-6.68,2,.12,4.52,32,.13,3.93-1.57s-1-6.19-1.29-6.19S166.46,381.74,166.46,381.74Z"/><polygon class="cls-1" points="183.96 358.01 181.81 362.51 159.78 383.75 202.21 383.75 210.9 366.86 183.96 358.01"/><polygon class="cls-2" points="212.3 355.73 225.32 365.13 229.01 388.36 191.07 388.49 201.75 371.14 212.3 355.73"/><polygon class="cls-6" points="226.4 312.48 228.38 334.04 225.32 365.13 201.75 371.14 194.43 340.29 226.4 312.48"/><polygon class="cls-7" points="183.02 324.57 175.26 334.82 181.81 362.51 201.75 371.14 200.68 340.3 183.02 324.57"/><polygon class="cls-8" points="206.39 335.98 200.68 340.3 186.38 337.33 180.82 319.5 175.53 336 168.78 313.95 191.61 278.09 209.21 293 206.39 335.98"/><polygon class="cls-7" points="206.52 274.46 199.67 292.73 200.68 340.3 215.66 338.67 237.15 315.3 206.52 274.46"/><path class="cls-6" d="M173.84,288,199.67,302l20.59-14.58L206,249.75S184.37,260.4,183.55,260,173.84,288,173.84,288Z"/><polygon class="cls-9" points="193.36 252.97 197.52 261.97 186.38 337.33 149.42 320.55 187.99 249.88 193.36 252.97"/><polygon class="cls-9" points="186.38 337.33 144.06 327.79 146.35 319.2 149.42 313.57 178.05 326.59 186.38 337.33"/><polygon class="cls-2" points="167.97 241.83 161.39 244.79 146.35 319.2 178.05 326.59 190.14 253.11 167.97 241.83"/><path class="cls-9" d="M200.34,247.88,197.52,255l18.14,83.68,10.88-9.13s7.12-23.46,7.62-23.84,9.82-.09,18.7.12l-46.61-60.09Z"/><path class="cls-9" d="M215.66,338.67l46.47-15.09-3-9.62-6.31-1.16c-8.88-.22-18.35-.38-18.7-.12-.66.49-15.56,8.1-15.56,8.1Z"/><polygon class="cls-1" points="226.81 237.26 240.88 241.81 259.18 313.96 222.91 327.93 205.85 251.91 226.81 237.26"/><path class="cls-7" d="M169.65,243l20.49,17.06,7.38,1.88.93-25.63-22.55,1L169.65,243Zm48.54-2.1h0l3.91-5.69-3.5.16Z"/><polygon class="cls-6" points="197.52 261.97 205.85 258.88 218.19 240.93 218.6 235.41 198.45 236.34 193.63 242.09 197.52 261.97"/><polygon class="cls-10" points="168.65 232.02 160.99 239.94 159.91 252.11 190.14 260.09 173.88 236.59 168.65 232.02"/><polygon class="cls-10" points="233.92 230.27 241.04 235.34 240.88 248.78 205.85 258.88 218.75 233.76 234.62 230.72 233.92 230.27"/><polygon class="cls-2" points="241.58 165.67 251.25 148.21 257.97 150.09 289.12 226.74 271.92 242.09 236.88 200.32 241.58 165.67"/><path class="cls-11" d="M244.46,210.13l5.47-49.83c-5.14-1.74-11.05-9.48-17.34-11.64-8.92-3.06-17.9-.45-20.61-1.55l-38.5,15.6,5.88,49.14,19.36,20Z"/><polygon class="cls-2" points="181.67 231.21 193.63 242.09 241.04 235.34 244.47 210.13 189.86 211 179.36 211.85 181.67 231.21"/><path class="cls-1" d="M249.93,160.3l1.32-12.09-23.1-7.66L212,147.11C216.6,149,237.51,156.1,249.93,160.3Z"/><path class="cls-9" d="M141.07,170.76l13,45.11,25.28,16.19L189.86,211l-5.63-46.41-11.91-9.77-6.23,1.43-17.28.62Z"/><polygon class="cls-11" points="154.06 215.87 160.99 239.94 193.63 242.09 189.86 211 154.06 215.87"/><path class="cls-1" d="M166.23,149.82l-12.36.8L138,160.16l3,10.6,25-14.51,6.23-1.43Z"/><polygon class="cls-11" points="190 154.52 184.23 164.59 153.87 150.62 157.69 142.11 177.38 142.56 190 154.52"/><polygon class="cls-9" points="185.84 142.03 183.15 151.83 184.23 164.59 228.15 140.55 223.1 133.07 185.84 142.03"/><polygon class="cls-12" points="214.32 121.22 215.35 134.41 184.86 151.83 160.58 142.56 172.06 123.4 211.25 114.3 214.32 121.22"/><polygon class="cls-3" points="227.19 102.31 223.1 133.07 203.8 142.35 204.6 133.07 201.45 129.52 202.28 90.99 215.52 74.74 227.19 102.31"/><polygon class="cls-12" points="213.36 88.4 227.19 102.31 228.65 89.27 225.19 80.21 213.36 88.4"/><polygon class="cls-13" points="190.18 39.88 199.53 30.4 233.57 39.45 231.61 65.9 213.57 87.31 204.6 133.07 187.56 136.69 186.29 124.93 190.18 39.88"/><polygon class="cls-3" points="197.09 26.05 201.45 39.45 203.28 86.22 191.72 94.08 186.29 90.51 173.27 28.36 182.49 13.24 197.09 26.05"/><polygon class="cls-14" points="173 3.84 207.72 3.02 233.57 39.45 201.45 39.45 187.97 25.88 180.18 13.24 173 3.84"/><polygon class="cls-15" points="125.99 29.08 124.2 20.37 130.99 11.4 154.3 0 207.72 3.02 180.18 13.24 157.88 26 125.99 29.08"/><polygon class="cls-16" points="124.2 20.37 110.88 39.71 114.97 83.39 134.52 136.93 150.47 144.34 165.46 137.84 182.86 133.07 185.66 120.7 191.72 94.08 187.97 25.88 180.18 13.24 157.37 23.95 127.91 26.9 124.2 20.37"/><path class="cls-3" d="M123.75,70.26l-4.21,3.23L133,80.57l9.47,17.27,3.47-1.69,6.67,3.07L167,72.82l11.82-8.77s-9-2-9.45-2.8S149.4,71,149.4,71l-2.23,3.72L145.11,78l-2.93-2.74-2.4-2.3Z"/><polygon class="cls-13" points="149.4 66.85 168.23 58.83 178.65 60.97 178.78 64.05 168.85 63.37 149.4 71.02 149.4 66.85"/><polygon class="cls-13" points="138.23 68.66 123.95 68.56 118.7 72.14 119.53 73.49 123.7 72.02 139.78 72.95 138.23 68.66"/><polygon class="cls-12" points="142.18 116.89 152.07 111.54 169.12 110.53 169.66 112.44 152.56 113.92 142.69 118.89 142.18 116.89"/><polygon class="cls-16" points="215.35 64.93 231.61 65.9 228.65 89.27 213.36 88.4 215.35 64.93"/><polygon class="cls-12" points="220.15 81.92 219.37 70.29 227.19 70.45 220.15 81.92"/><polygon class="cls-2" points="160.15 178.9 171.3 172.99 185.75 177.13 172.38 184 160.15 178.9"/><polygon class="cls-1" points="214.15 174.6 197.87 170.14 185.75 177.13 199.24 181.45 214.15 174.6"/><polygon class="cls-2" points="165.21 222.44 177.97 216.13 190.99 220.36 178.78 226.74 165.21 222.44"/><polygon class="cls-1" points="218.4 218.68 202.15 213.84 190.99 220.36 203.76 224.86 218.4 218.68"/><polygon class="cls-2" points="162.74 200.2 173.89 194.29 188.33 198.43 174.96 205.3 162.74 200.2"/><polygon class="cls-1" points="215.52 195.36 200.45 191.44 188.33 198.43 201.82 202.75 215.52 195.36"/><path class="cls-17" d="M166.05,74a3.59,3.59,0,1,1-3.59-3.59A3.59,3.59,0,0,1,166.05,74Z"/><path class="cls-17" d="M136.54,79.23A3.59,3.59,0,1,1,133,75.65,3.59,3.59,0,0,1,136.54,79.23Z"/><path class="cls-14" d="M191.72,94.08l-13.11,11-30.35-1.3h0L133,114.26l-7.09-1,8.65,23.71,15.95,7.41,37.09-7.65Zm-42.36,37-7.18-14.16,9.89-5.35,17.05-1,4.36,15.6Z"/><polygon class="cls-12" points="145.19 94.64 142.44 100.63 148.26 103.8 152.56 99.22 145.19 94.64"/><polygon class="cls-18" points="142.18 75.25 142.44 100.63 152.56 99.22 147.17 74.74 142.18 75.25"/><polygon class="cls-14" points="148.83 121.21 163.84 117.65 162.91 128.97 155.62 131.26 148.83 121.21"/><polygon class="cls-3" points="156.54 82.28 168.55 82.38 178.1 77.13 169.88 87.62 156.54 82.28"/><polygon class="cls-3" points="138.02 84 132.96 88.77 124.2 87.62 134.01 92.8 138.91 87.62 138.02 84"/><polygon class="cls-3" points="138.23 68.66 142.18 63.16 143.04 70.26 139.78 72.95 138.23 68.66"/><polygon class="cls-3" points="149.4 71.02 149.4 66.85 145.2 63.16 146.14 69.56 149.4 71.02"/><polygon class="cls-19" points="186.29 87.62 174.97 98.39 180.12 121.53 186.29 87.62"/><polygon class="cls-20" points="178.61 105.1 176.44 105 180.12 121.53 183.92 100.63 178.61 105.1"/><polygon class="cls-3" points="132.96 122.4 130.61 108.68 123.75 103.02 132.96 122.4"/><polygon class="cls-13" points="132.96 122.4 131.53 114.05 128.8 113.64 132.96 122.4"/></svg>