<svg id="illustration_layer_copy_4" data-name="illustration_layer copy 4" xmlns="http://www.w3.org/2000/svg" viewBox="0 0 400 400"><defs><style>.cls-1,.cls-14,.cls-20{fill:#2b2b2b;}.cls-1{opacity:0.1;}.cls-2{fill:#755800;}.cls-3{fill:#bb8e2d;}.cls-4{fill:#9d7700;}.cls-5{fill:#e1a842;}.cls-6{fill:#3a9fb9;}.cls-7{fill:#73cee4;}.cls-8{fill:#bbf9ff;}.cls-9{fill:#98ebf9;}.cls-10{fill:#5b5b5b;}.cls-11{fill:#3f3f3f;}.cls-12{fill:#494949;}.cls-13{fill:#f3d65d;}.cls-14{opacity:0.2;}.cls-15{fill:#916d5a;}.cls-16{fill:#755445;}.cls-17{fill:#51362a;}.cls-18{fill:#98796a;}.cls-19{fill:#484748;}.cls-21{fill:#fff;}.cls-22{fill:#9ca0a1;}</style></defs><title>explorers_ESFP_famous_real_jamie_foxx</title><g id="shadow_copy" data-name="shadow copy"><polygon class="cls-1" points="70.32 382.17 193.64 366.5 325.99 392.17 211.25 400 70.32 382.17"/></g><g id="stool_copy" data-name="stool copy"><polygon class="cls-2" points="131.76 280.75 127.01 376.33 142.26 376.33 141.51 283.15 131.76 280.75"/><polygon class="cls-3" points="90.51 268 83.26 381.5 100.76 381.5 101.88 284.95 90.51 268"/><polygon class="cls-4" points="101.74 297.2 96.01 303.5 101.58 310.8 138.1 313 140.1 304.58 101.74 297.2"/><polygon class="cls-2" points="150.59 298.99 192.45 295 192.45 305 149.17 307.03 150.59 298.99"/><polygon class="cls-3" points="148.65 275.25 157.51 380.25 139.49 383.25 137.77 287.29 148.65 275.25"/><polygon class="cls-5" points="90.51 268 139.01 263.25 206.78 268.1 148.65 277.25 90.51 268"/><polygon class="cls-4" points="148.65 275.25 153.08 280.75 149.69 288 89.54 284.16 90.51 268 148.65 275.25"/><polygon class="cls-2" points="149.69 288 207.01 281.75 206.78 268.1 148.65 275.25 149.69 288"/></g><g id="glass_copy" data-name="glass copy"><polygon class="cls-6" points="109.33 229.16 125.7 226.75 126.83 232.16 118.62 233.25 109.33 229.16"/><polygon class="cls-7" points="125.7 226.75 141.07 229.16 125.7 233.25 125.7 226.75"/><polygon class="cls-7" points="125.7 231.39 109.33 229.16 115.49 267.58 125.7 269.36 126.83 248.5 125.7 231.39"/><polygon class="cls-6" points="125.7 231.39 141.07 229.16 136.41 268 125.7 269.36 125.7 231.39"/><polygon class="cls-8" points="113.66 243.58 125.7 241.75 126.83 246.94 113.66 243.58"/><polygon class="cls-9" points="113.66 243.58 117.12 265.5 125.7 267.06 127.43 254 125.7 245.33 113.66 243.58"/><polygon class="cls-9" points="125.7 241.75 136.91 243.54 125.7 245.33 125.7 241.75"/><polygon class="cls-7" points="136.91 243.54 134.43 266 125.7 267.06 125.7 245.33 136.91 243.54"/></g><g id="character_copy" data-name="character copy"><polygon class="cls-10" points="268.66 270.83 271.8 330.82 251 338.99 232.67 327.82 217.58 294.16 206.75 325.52 187.49 325.99 170.89 310.41 172.01 265.61 222.66 258.16 268.66 270.83"/><polygon class="cls-11" points="217.58 294.16 263.25 265.16 184.83 265.16 217.58 294.16"/><polygon class="cls-12" points="232.67 327.82 271.8 330.82 273.66 366.49 258.83 369.38 248.67 363.49 232.67 327.82"/><polygon class="cls-12" points="170.89 310.41 206.75 325.52 193.64 363.5 180.49 361.99 170.78 355.83 170.89 310.41"/><polygon class="cls-4" points="174.92 221.6 142.33 181.83 179 147.17 189.35 200 174.92 221.6"/><polygon class="cls-4" points="282.49 153.83 306.66 219.83 263.66 223.83 282.49 153.83"/><polygon class="cls-13" points="191.64 145.5 179 147.17 174.43 230.5 172.01 265.61 217.58 278.16 264.66 266.83 258.83 234.16 282.49 153.83 263.16 150.16 191.64 145.5"/><polygon class="cls-5" points="218.99 163.17 217.58 278.16 268.66 270.83 268.83 236.17 282.49 153.83 268.83 150.12 229.99 152.17 218.99 163.17"/><polygon class="cls-14" points="208.92 222.67 218.08 238.41 242 247.25 268.66 270.83 268.83 236.17 219.66 221.6 208.92 222.67"/><polygon class="cls-15" points="180.71 14.98 162.88 62.05 165.2 118.03 192.48 123.38 206.81 143.49 191.64 145.5 218.51 168.67 268.83 150.12 252.68 145.69 275.57 77.74 251.24 29.04 246.33 16.04 191.77 10.34 180.71 14.98"/><polygon class="cls-16" points="251.24 29.04 218.51 128.73 213.35 140.83 214.06 154.14 252.68 145.69 284.84 75.6 251.24 29.04"/><polygon class="cls-17" points="192.48 123.38 241.51 132.29 214.06 154.14 192.48 123.38"/><polygon class="cls-16" points="224.04 60.09 207.81 54.74 197.03 55.72 192.03 54.74 182.79 50.22 170.02 50.46 186.24 70.25 198.72 75.95 224.04 60.09"/><polygon class="cls-18" points="197.03 55.72 195.24 61.78 198.72 75.95 180.62 72.57 191.23 60.98 192.03 54.74 197.03 55.72"/><polygon class="cls-17" points="198.72 75.95 188.83 80.32 180.62 72.57 198.72 75.95"/><polygon class="cls-19" points="224.04 60.09 211.91 52.42 204.43 51.7 202.65 55.21 207.81 54.74 224.04 60.09"/><polygon class="cls-19" points="170.02 50.46 180.62 47.25 187.67 48.94 187.67 52.6 182.79 50.22 170.02 50.46"/><circle class="cls-20" cx="209.87" cy="62.07" r="3.12"/><circle class="cls-20" cx="179.38" cy="55.73" r="3.12"/><polygon class="cls-17" points="275.57 96.03 261.66 91.59 268.61 111.36 275.57 96.03"/><polygon class="cls-17" points="267.37 87.9 270.75 76.44 278.95 78.98 267.37 87.9"/><polygon class="cls-19" points="239.37 38.34 244.19 19.26 191.77 10.34 228.32 0 288.94 36.37 270.75 43.5 239.37 38.34"/><polygon class="cls-20" points="239.37 38.34 288.94 36.37 286.44 64.01 268.61 59.97 245.26 47.25 239.37 38.34"/><polygon class="cls-19" points="284.84 75.6 266.47 69.53 245.26 47.25 286.44 64.01 284.84 75.6"/><polygon class="cls-17" points="172.05 86.65 206.68 92.98 198.19 104.84 176 100.7 172.05 86.65"/><polygon class="cls-21" points="177.46 91.33 200.19 95.48 196.45 100.83 178.53 97.48 177.46 91.33"/><polygon class="cls-19" points="188.83 80.32 208.48 91.33 206.68 92.98 188.83 85.76 188.83 80.32"/><polygon class="cls-19" points="188.83 80.32 186.42 85.05 172.05 86.65 170.84 84.69 188.83 80.32"/><polygon class="cls-19" points="208.48 91.33 197.03 124.21 182.92 126.64 170.02 118.97 170.84 84.69 172.05 86.65 174.11 111.08 197.03 115.19 206.68 92.98 208.48 91.33"/><polygon class="cls-19" points="191.64 103.62 188.4 108.72 182.94 107.91 181.96 101.81 191.64 103.62"/><polygon class="cls-16" points="198.72 75.95 206.68 80.32 208.48 91.33 198.72 75.95"/><polygon class="cls-16" points="180.62 72.57 173.4 75.6 170.84 84.69 180.62 72.57"/><polygon class="cls-15" points="306.66 219.83 271.8 218.29 253.99 229.38 261.01 242.07 290.75 252 306.66 219.83"/><polygon class="cls-16" points="250.5 216.83 237.75 195.83 232.67 198.83 235.75 214.17 250.5 216.83"/><polygon class="cls-15" points="174.92 221.6 156.15 183.56 150.24 149.58 140.49 163.17 137.24 216.83 174.92 221.6"/><polygon class="cls-10" points="138.87 193.5 142.33 180.82 151.49 153.13 168.78 157.07 156.15 183.56 149.53 197.44 138.87 193.5"/><polygon class="cls-20" points="150.24 149.58 148.66 135.28 163.83 139.2 179 147.17 168.78 157.07 150.24 149.58"/><polygon class="cls-10" points="149.99 131.24 163.17 121.31 179 127.19 180.62 143.17 162.33 138.17 149.99 131.24"/><polygon class="cls-22" points="148.66 135.28 179 147.17 180.62 143.17 149.99 131.24 148.66 135.28"/><polygon class="cls-15" points="250.5 216.83 228.49 208.7 224.43 222 222.43 233.16 245.67 236.5 250.5 227.13 250.5 216.83"/><polygon class="cls-16" points="228.49 208.7 208.92 206.5 208.92 222.67 222.43 233.16 228.49 208.7"/><polygon class="cls-4" points="255 239.89 254.5 228.36 258.68 217.33 271.8 218.29 261.01 242.07 255 239.89"/><polygon class="cls-2" points="245.67 236.5 250.5 216.83 258.68 217.33 255 239.89 245.67 236.5"/><polygon class="cls-17" points="168.78 171.62 170.99 177.83 156.15 183.56 163.83 169.83 168.78 171.62"/><polygon class="cls-18" points="150.24 149.58 163.83 149 160.67 165.2 154.15 177 142.33 180.82 150.24 149.58"/><polygon class="cls-16" points="163.83 149 174.43 166.28 156.15 183.56 154.15 177 163.83 149"/><polygon class="cls-5" points="248.67 363.49 238.99 385 257.62 387 276.24 385 273.66 366.49 261.99 365.09 259.62 367.54 257.12 364.51 248.67 363.49"/><rect class="cls-4" x="238.99" y="385" width="37.25" height="6.25"/><polygon class="cls-13" points="257.12 364.51 255.66 374.25 261.99 374.25 261.99 365.09 257.12 364.51"/><polygon class="cls-5" points="173 356.57 166.29 361.12 159.59 363.49 139.49 377.25 165.84 379.25 193.85 377.25 193.64 363.5 173 356.57"/><polygon class="cls-13" points="173 356.57 163.83 365.33 159.59 363.49 170.78 355.83 173 356.57"/><rect class="cls-4" x="139.49" y="377.25" width="54.34" height="6.25"/></g></svg>