<svg id="Layer_1" data-name="Layer 1" xmlns="http://www.w3.org/2000/svg" viewBox="0 0 400 400"><defs><style>.cls-1{fill:#33231b;opacity:0.1;}.cls-2{fill:#fce3d4;}.cls-3{fill:#f4c9b2;}.cls-4{fill:#af7546;}.cls-5{fill:#cc9262;}.cls-6{fill:#c1907d;}.cls-7{fill:#7c4e25;}.cls-8{fill:#ffefe7;}.cls-9{fill:#9b6534;}.cls-10{fill:#9d7700;}.cls-11{fill:#bb8e2d;}.cls-12{fill:#be8e00;}.cls-13{fill:#cbac14;}.cls-14{fill:#e4c728;}.cls-15{fill:#846400;}.cls-16{fill:#755800;}.cls-17{fill:#f3d65d;}.cls-18{fill:#b48a00;}.cls-19{fill:#ab913c;}.cls-20{fill:#2b2b2b;}.cls-21{fill:#9ca0a1;}.cls-22{fill:#dcdcdb;}</style></defs><title>explorers_ESFP_famous_fictional_peregrin_took_the_lord_of_the_rings</title><polygon class="cls-1" points="127.85 384 211.57 368 298.63 386.69 210.84 400 127.85 384"/><polygon class="cls-2" points="173.86 381.17 141.55 381.17 148.24 376.32 163.65 370.63 171.21 373.56 173.86 381.17"/><polygon class="cls-3" points="141.55 381.17 138.61 374.06 148.24 376.32 141.55 381.17"/><polygon class="cls-4" points="148.24 376.32 156.67 378.11 171.21 373.56 167.69 363.39 148.24 376.32"/><polygon class="cls-5" points="161.26 376.67 165.74 375.27 158.35 369.6 154.79 371.97 161.26 376.67"/><polygon class="cls-5" points="171.21 373.56 167.69 363.39 165.74 375.27 171.21 373.56"/><polygon class="cls-3" points="199.12 213.28 224.77 189.39 229.38 136.7 207.15 105.11 183.34 185.19 199.12 213.28"/><polygon class="cls-2" points="129.77 101.81 130.15 120.69 138.56 161.59 154.4 185.81 185.27 185.81 204.68 169.3 209.05 105.11 183.08 79.4 145.57 82.89 129.77 101.81"/><polygon class="cls-6" points="176.18 185.81 211.23 185.81 203.97 206.34 195.13 206.61 182.5 196.2 176.18 185.81"/><polygon class="cls-4" points="216.66 118.62 217.78 156.96 229.38 137.71 227.06 163.15 253.47 167.5 247.58 150.36 258.83 130.01 247.93 106.92 247.58 83.96 216.66 54.33 147.27 54.33 112.99 87.88 119.42 108.23 115.85 130.26 136.83 153.16 128.25 122.65 129.77 101.81 145.57 82.89 156.48 93.59 177.07 81.77 216.66 118.62"/><polygon class="cls-7" points="175.63 111.47 176.34 107.32 191.22 105.11 199.46 108.86 200.19 110.93 191.69 109.59 175.63 111.47"/><polygon class="cls-7" points="156.48 112.74 155.16 107.92 141.69 108.29 136.53 112.78 136.53 114.21 143.03 111.47 156.48 112.74"/><polygon class="cls-8" points="163.17 119.43 168.64 119.43 168.64 143.03 170.6 149.02 161.57 149.02 163.17 142.86 163.17 119.43"/><polygon class="cls-6" points="170.6 149.02 166.09 153.57 161.57 149.02 170.6 149.02"/><polygon class="cls-3" points="156.48 112.74 163.17 119.43 163.17 142.86 150.13 125.96 136.53 114.21 143.03 111.47 156.48 112.74"/><polygon class="cls-3" points="200.19 110.93 181.72 125.96 170.6 149.02 168.64 143.03 168.64 119.43 175.63 111.47 191.69 109.59 200.19 110.93"/><rect class="cls-6" x="160.16" y="162.14" width="18.88" height="2.01" transform="translate(-9.19 10.12) rotate(-3.33)"/><polygon class="cls-7" points="247.58 150.36 227.06 163.15 224.77 189.39 253.47 167.5 247.58 150.36"/><polygon class="cls-9" points="229.38 137.71 247.93 106.92 216.66 118.62 217.78 156.96 229.38 137.71 229.38 137.71"/><polygon class="cls-5" points="258.83 130.01 229.38 137.71 247.93 106.92 258.83 130.01"/><polygon class="cls-5" points="247.58 83.96 177.07 81.77 216.66 54.33 247.58 83.96"/><polygon class="cls-5" points="154.62 96.41 134.28 67.05 168.64 67.11 187.91 100.74 154.62 96.41"/><polygon class="cls-5" points="112.99 87.88 129.77 101.81 119.42 108.23 112.99 87.88"/><polygon class="cls-7" points="115.85 130.26 136.83 153.16 129.77 101.81 119.42 108.23 115.85 130.26"/><polygon class="cls-9" points="168.64 67.11 179.08 54.33 216.66 54.33 176.9 81.87 168.64 67.11"/><polygon class="cls-10" points="159.77 207.71 144.37 249.56 159.98 257.58 159.77 207.71"/><polygon class="cls-11" points="144.37 249.56 125.48 272.44 137.31 280.27 160.87 264.08 159.98 257.58 144.37 249.56"/><polygon class="cls-12" points="260.75 334.94 218.67 338.36 183.77 339.95 158.25 337.56 116.34 329.47 159.77 269.66 242.93 241.02 256.79 282.66 260.75 334.94"/><polygon class="cls-3" points="242.14 336.48 244.89 368.31 227.31 368.31 215.32 338.51 225.57 332.95 242.14 336.48"/><polygon class="cls-2" points="245.16 368.39 253.17 390.71 220.56 390.71 227.7 368.39 245.16 368.39"/><polygon class="cls-3" points="220.56 390.71 236.87 384.3 253.17 390.71 220.56 390.71"/><polygon class="cls-3" points="183.77 339.95 190.12 381.17 173.11 381.17 158.25 337.56 171.94 327.48 183.77 339.95"/><polygon class="cls-4" points="245.16 368.39 227.7 368.39 222.62 384.3 222.62 384.3 250.87 384.3 250.87 384.3 245.16 368.39"/><polygon class="cls-5" points="222.62 384.3 236.74 379.56 250.87 384.3 249.13 379.45 236.74 374.02 224.26 379.16 222.62 384.3"/><polygon class="cls-5" points="227.7 368.39 226.23 372.98 233.03 368.39 227.7 368.39"/><polygon class="cls-10" points="181.15 281.78 218.21 279.89 216.94 210.46 201.87 209.8 176.51 211.19 181.15 281.78"/><polygon class="cls-13" points="256.79 255.87 285.36 337.49 262.94 350.69 239.06 278.91 241.13 247.33 256.79 255.87"/><polygon class="cls-14" points="199.74 209.8 224.77 189.39 249.81 200.85 199.74 215.43 199.74 209.8"/><polygon class="cls-10" points="201.08 304.13 215.32 338.51 242.14 336.48 239.06 278.91 201.08 304.13"/><polygon class="cls-15" points="201.08 304.13 183.77 339.95 158.25 337.56 163.41 282.66 196.54 297.5 201.08 304.13"/><polygon class="cls-16" points="163.41 282.66 201.08 304.13 239.06 278.91 163.41 282.66"/><polygon class="cls-13" points="177.4 211.37 181.15 251.69 181.15 281.78 163.41 282.66 158.25 244.99 159.77 207.71 177.4 211.37"/><polygon class="cls-10" points="249.81 200.85 278.6 249.56 269.54 255.87 256.79 255.87 239.06 246.19 241.44 220.14 249.81 200.85"/><polygon class="cls-3" points="260.19 280.49 252.08 290.5 256.99 299.32 258.45 290.7 260.19 288.93 260.19 280.49"/><polygon class="cls-11" points="278.6 249.56 276.66 280.49 267.82 287.4 260.19 280.49 256.79 255.87 278.6 249.56"/><polygon class="cls-2" points="276.66 280.49 281.09 302.08 267.82 304.06 256.99 299.32 260.19 280.49 276.66 280.49"/><polygon class="cls-3" points="281.09 302.08 274.38 311.57 259.58 310.51 256.99 299.32 281.09 302.08"/><polygon class="cls-2" points="125.48 272.44 104.9 280.27 124.1 292.2 137.31 280.27 125.48 272.44"/><polygon class="cls-3" points="104.9 280.27 101.37 290.48 114.73 298.83 124.1 292.2 104.9 280.27"/><polygon class="cls-3" points="137.31 280.27 133.57 292.2 124.1 292.2 130.29 286.61 137.31 280.27"/><polygon class="cls-14" points="160.87 264.08 163.41 282.66 134.16 350.69 116.34 329.47 160.87 264.08"/><polygon class="cls-13" points="236.14 204.83 214.81 251.53 243.82 278.68 241.05 246.37 249.81 200.85 236.14 204.83"/><polygon class="cls-17" points="169.13 209.43 159.19 221.97 181.15 251.69 177.4 211.37 169.13 209.43"/><polygon class="cls-17" points="236.14 204.83 246.17 219.73 214.81 251.53 216.94 210.46 236.14 204.83"/><polygon class="cls-18" points="200.35 218 205.44 213.78 216.94 210.46 216.55 218 209.76 224.58 200.35 227.37 200.35 218"/><polygon class="cls-16" points="209.76 224.58 214.81 251.53 200.35 268.16 197.59 243.41 200.35 227.37 209.76 224.58"/><polygon class="cls-10" points="200.35 218 193.7 214.27 177.4 211.37 178.1 218.91 186.88 225.61 200.35 227.37 199.74 221.54 200.35 218"/><polygon class="cls-15" points="200.35 218 200.35 280.74 181.15 251.69 188.59 213.28 193.7 214.27 200.35 218"/><polygon class="cls-19" points="181.15 281.78 181.15 251.69 158.25 244.99 163.41 282.66 181.15 281.78"/><polygon class="cls-17" points="176.4 252.37 174.13 255.32 176.4 258.26 178.89 255.13 176.4 252.37"/><polygon class="cls-17" points="176.11 261.94 173.84 264.88 176.11 267.82 178.6 264.69 176.11 261.94"/><polygon class="cls-17" points="176.75 272.8 174.47 275.74 176.75 278.68 179.24 275.55 176.75 272.8"/><polygon class="cls-19" points="215.62 280.02 239.06 278.91 241.13 247.33 241.13 247.33 214.81 251.53 215.62 280.02"/><path class="cls-20" d="M186,126a4.28,4.28,0,1,1-4.27-4.28A4.27,4.27,0,0,1,186,126Z"/><path class="cls-20" d="M154.4,126a4.27,4.27,0,1,1-4.27-4.28A4.27,4.27,0,0,1,154.4,126Z"/><polygon class="cls-21" points="194.54 205.67 203.97 206.34 208.03 213.03 200.35 218 191.35 214.27 194.54 205.67"/><polygon class="cls-13" points="182.5 196.2 159.77 207.71 191.35 214.27 192.59 204.48 182.5 196.2"/><polygon class="cls-22" points="181.15 208.44 192.59 204.48 201.79 210.11 191.35 214.27 181.15 208.44"/></svg>