<svg id="Layer_1" data-name="Layer 1" xmlns="http://www.w3.org/2000/svg" viewBox="0 0 400 400"><defs><style>.cls-1{fill:#2c2b2b;fill-opacity:0.1;}.cls-2{fill:#674736;}.cls-3{fill:#8c7c2f;}.cls-4{fill:#b3b3b3;}.cls-5{fill:#fce3d4;}.cls-6{fill:#c1907d;}.cls-7{fill:#755800;}.cls-8{fill:#dddddc;}.cls-9{fill:#f3d65d;}.cls-10{fill:#e4c728;}.cls-11{fill:#cbac14;}.cls-12{fill:#686b6d;}.cls-13{fill:#f1bc68;}.cls-14{fill:#cdcccb;}.cls-15{fill:#eaeceb;}.cls-16{fill:#c9c9c8;}.cls-17{fill:#ab913c;}.cls-18{fill:#f4c9b2;}.cls-19{fill:#e1a842;}.cls-20{fill:#878889;}.cls-21{fill:#ae9f65;}.cls-22{fill:#c1b170;}.cls-23{fill:#e1ce7f;}.cls-24{fill:#fff7ae;}.cls-25{fill:#ffefe7;}.cls-26{fill:#3a9fb9;}.cls-27{fill:#412b23;}.cls-28{fill:#fff;}.cls-29{fill:#2b2c2b;}.cls-30{fill:none;}</style></defs><title>explorers_ESFP_famous_real_steve_irwin</title><polygon class="cls-1" points="107.83 385.57 215.98 398.68 316.75 388.85 223.35 378.2 107.83 385.57"/><polygon class="cls-2" points="235.23 383.11 253.39 390.22 253.34 394.58 220.48 394.58 220.48 390.49 235.23 383.11"/><polygon class="cls-3" points="247.93 361.81 249.8 368.93 253.39 390.22 220.48 390.49 228.88 368.9 247.93 361.81"/><polygon class="cls-4" points="244.5 344 250.39 348.53 249.8 368.93 228.88 368.9 224.6 349.22 244.5 344"/><polygon class="cls-5" points="252.85 319.21 250.39 348.53 224.6 349.22 221.27 333.87 238.1 328.22 252.85 319.21"/><polygon class="cls-6" points="252.38 324.8 221.27 333.87 219.86 327.4 239.74 320.85 252.38 324.8"/><polygon class="cls-7" points="285.62 251.21 286.44 250.39 290.53 243.83 302 248.75 300.36 256.12 285.62 251.21"/><polygon class="cls-3" points="295.45 263.5 300.36 256.12 307.74 265.14 303.64 283.98 295.45 263.5"/><path class="cls-8" d="M89.8,200.41l-6.55-4.92,7.37-7.37,5.74,5.73,7.37-7.37L111.92,198,89.8,201.23h0Zm4.1-41H84.07l-.82,11.47,11.47-1.64.82,10.65,9.83-.81,4.92,8.19,9-2.46-20.48-17.2-6.56-8.2Z"/><polygon class="cls-2" points="171.72 377.38 152.43 383.11 152.43 388.44 204.5 388.44 204.5 382.3 171.72 377.38"/><polygon class="cls-3" points="189.67 357.17 182.67 363.67 152.43 383.11 204.5 382.88 203.54 370 189.67 357.17"/><polygon class="cls-4" points="191 341.33 181.14 345.5 182.67 363.67 203.54 370 206.99 348.53 191 341.33"/><polygon class="cls-5" points="179.93 324.12 181.14 345.5 206.99 348.53 209.42 333.96 202.87 319.21 179.93 324.12"/><polygon class="cls-6" points="179.93 324.12 209.42 333.96 210.75 327.4 192.22 320.85 179.93 324.12"/><polygon class="cls-9" points="181.56 301.18 172.55 313.47 173.37 323.3 201.23 326.58 210.75 327.4 212.7 317.57 197.95 313.47 181.56 301.18"/><polygon class="cls-10" points="204.5 269.23 173.37 262.68 172.55 313.47 212.7 317.57 220.89 275.79 208.6 279.06 204.5 269.23"/><polygon class="cls-9" points="250.39 287.26 258.58 311.83 259.4 324.12 219.86 327.4 217.56 316.8 250.39 287.26"/><polygon class="cls-11" points="211.06 271.69 210.24 283.16 219.86 327.4 258.58 311.83 257.76 264.32 211.06 271.69"/><polygon class="cls-3" points="185.66 256.12 173.37 262.68 210.24 283.16 257.76 264.32 185.66 256.12"/><polygon class="cls-12" points="166 243.83 173.37 262.68 202.05 263.5 212.7 261.04 218.44 263.5 257.76 264.32 257.76 249.57 166 243.83"/><polygon class="cls-7" points="242.19 266.77 239.74 271.69 238.1 288.89 256.12 275.79 251.21 266.77 242.19 266.77"/><path class="cls-13" d="M202.05,263.5h15.57c.82-4.92,2.45-13.11,3.27-16.39l-8.19-.82c-6.55,0-15.57.82-15.57.82l4.1,16.39Z"/><polygon class="cls-14" points="265.95 259.4 273.33 265.14 303.64 283.98 285.62 251.21 265.95 259.4"/><polygon class="cls-7" points="290.53 252.03 300.36 256.12 303.64 283.98 285.62 259.4 290.53 252.03"/><path class="cls-3" d="M273.33,257.76l12.29,1.64,14.74-4.1L290.53,243s-26.21,2.46-25.39,1.64,8.19,12.29,8.19,12.29Z"/><polygon class="cls-7" points="194.68 216.8 235.64 252.85 276.61 232.36 252.03 195.5 196.31 217.62 194.68 216.8"/><polygon class="cls-15" points="213.52 251.21 185.66 252.03 156.98 211.06 218.44 230.73 219.25 240.56 213.52 251.21"/><polygon class="cls-16" points="185.66 252.03 173.37 252.03 178.29 238.92 180.75 237.28 185.66 252.03"/><polygon class="cls-16" points="227.45 252.85 213.52 251.21 218.44 230.73 226.63 237.28 243.01 242.19 227.45 252.85"/><polygon class="cls-8" points="235.64 255.3 247.93 258.58 273.33 265.14 285.62 259.4 264.32 243.01 235.64 255.3"/><polygon class="cls-17" points="233.18 252.03 231.54 259.4 239.74 271.69 251.21 266.77 251.21 259.4 233.18 252.03"/><polygon class="cls-18" points="238.1 246.29 242.19 239.74 230.73 233.18 226.63 237.28 234 245.47 238.1 246.29"/><polygon class="cls-5" points="247.11 240.56 242.19 239.74 222.53 241.38 226.63 252.85 234 264.32 251.21 259.4 247.11 240.56"/><polygon class="cls-18" points="222.53 241.38 213.52 251.21 234 264.32 222.53 241.38"/><polygon class="cls-18" points="264.32 222.53 258.58 232.36 242.19 239.74 251.21 259.4 290.53 243.83 283.98 220.89 264.32 222.53"/><polygon class="cls-11" points="269.23 202.87 280.7 207.78 283.98 220.89 258.58 232.36 252.85 220.07 269.23 202.87"/><polygon class="cls-3" points="257.76 175.01 270.87 169.27 280.7 207.78 252.85 220.07 247.93 211.06 257.76 175.01"/><path class="cls-11" d="M180.75,170.09l-2.46-8.19-20.49,8.19-3.27,9.83s32.77,13.93,31.95,14.75S180.75,170.09,180.75,170.09Z"/><path class="cls-9" d="M184,168.45l-4.1,6.56s12.3,28.68,13.12,27.86,21.3-17.21,21.3-17.21L201.23,166Z"/><polygon class="cls-19" points="209.42 179.93 201.23 166 199.59 166 180.75 162.72 179.11 175.01 179.93 182.38 189.76 175.83 202.87 182.38 209.42 179.93"/><polygon class="cls-9" points="197.13 168.46 179.11 175.01 178.29 161.9 191.4 157.8 197.13 168.46"/><polygon class="cls-7" points="188.12 186.48 184.84 182.38 179.11 175.01 170.91 176.65 167.64 170.09 157.8 170.09 153.71 160.26 143.88 162.72 161.08 176.65 184.02 188.94 188.12 186.48"/><polygon class="cls-11" points="237.28 208.6 247.93 211.06 270.87 169.27 247.93 158.62 208.6 156.17 202.87 182.38 201.23 198.77 237.28 208.6"/><polygon class="cls-7" points="238.92 211.06 247.93 211.06 242.19 201.23 231.54 202.05 225.81 192.22 214.34 193.85 211.88 185.66 201.23 187.3 195.5 179.93 184.84 182.38 201.23 202.87 238.92 211.06"/><polygon class="cls-17" points="206.15 166.82 202.87 182.38 218.44 176.65 240.56 185.66 241.38 170.09 206.15 166.82"/><polygon class="cls-17" points="120.12 170.91 107.83 161.08 87.35 149.61 84.07 159.44 106.19 178.29 120.12 170.91"/><polygon class="cls-3" points="109.47 193.03 83.25 195.5 83.25 201.23 132.41 209.42 122.57 198.77 109.47 193.03"/><polygon class="cls-17" points="144.7 187.3 137.32 190.58 109.47 193.03 132.41 209.42 149.61 190.58 144.7 187.3"/><path class="cls-3" d="M132.41,209.42l4.09-18.84,19.67-13.93s27,18,26.21,19.66c0,1.64-27.85,13.11-27.85,13.11H132.41Z"/><polygon class="cls-3" points="135.68 166.82 123.39 163.54 107.83 161.08 106.19 178.29 137.32 190.58 135.68 166.82"/><polygon class="cls-7" points="167.64 184.84 143.88 162.72 123.39 163.54 137.32 190.58 161.08 184.02 167.64 184.84"/><polygon class="cls-3" points="176.65 186.48 175.83 179.11 153.71 167.64 143.88 162.72 161.08 184.02 176.65 186.48"/><polygon class="cls-3" points="134.04 229.09 120.94 232.36 113.56 241.38 134.86 243.83 136.5 235.64 134.04 229.09"/><polygon class="cls-7" points="129.95 221.71 121.76 224.17 120.94 232.36 136.5 235.64 140.6 227.45 129.95 221.71"/><polygon class="cls-3" points="139.78 209.42 132.41 209.42 121.76 224.17 140.6 227.45 139.78 209.42"/><polygon class="cls-16" points="150.43 224.17 140.6 227.45 132.41 209.42 155.35 209.42 175.83 193.85 150.43 224.17"/><polygon class="cls-17" points="168.46 246.29 160.26 246.29 151.25 257.76 173.37 262.68 173.37 252.03 168.46 246.29"/><polygon class="cls-3" points="192.22 232.36 180.75 237.28 173.37 252.03 160.26 246.29 170.91 213.52 192.22 232.36"/><polygon class="cls-7" points="194.68 221.71 180.75 237.28 173.37 224.99 174.19 206.15 194.68 221.71"/><polygon class="cls-18" points="162.72 208.6 155.35 209.42 140.6 227.45 160.26 246.29 173.37 224.99 162.72 208.6"/><polygon class="cls-12" points="168.46 196.31 161.08 202.05 155.35 209.42 160.26 213.52 166.82 204.5 171.73 206.97 166.82 219.25 173.37 224.99 179.11 213.52 168.46 196.31"/><polygon class="cls-20" points="160.26 213.52 166.82 219.25 174.19 206.97 166.82 202.05 160.26 213.52"/><polygon class="cls-18" points="172.55 185.66 161.08 184.02 161.08 202.05 179.11 213.52 195.5 204.5 172.55 185.66"/><polygon class="cls-5" points="201.23 195.5 175.83 179.11 161.08 184.02 184.02 199.59 201.23 195.5"/><polygon class="cls-17" points="224.99 206.15 202.05 187.3 175.83 179.11 193.03 193.85 184.84 200.41 179.11 213.52 186.48 231.54 218.44 230.73 224.99 206.15"/><path class="cls-3" d="M193,193.85l-8.2,5.74-4.92,13.93Z"/><polygon class="cls-3" points="179.11 213.52 180.75 237.28 218.44 230.73 179.11 213.52"/><polygon class="cls-6" points="225.81 159.44 217.62 170.91 202.87 182.38 180.75 153.71 229.91 151.25 225.81 159.44"/><polygon class="cls-21" points="248.75 116.02 267.13 130.88 251.21 149.61 235.64 145.51 233.18 121.76 248.75 116.02"/><path class="cls-22" d="M256.12,84.89,261,101.27l6.08,29.61-17.55-9.94s-6.56-12.29-5.74-13.11c0-1.64,13.11-22.12,13.11-22.12Z"/><polygon class="cls-21" points="251.21 70.14 266.36 75.88 261.04 101.27 252.03 110.29 244.65 110.29 231.54 98.82 209.42 62.77 251.21 70.14"/><polygon class="cls-5" points="242.19 81.61 256.94 85.71 252.03 110.29 233.18 114.38 238.92 102.09 242.19 81.61"/><polygon class="cls-6" points="231.54 111.1 237.28 107.83 252.03 110.29 249.57 120.94 231.54 111.1"/><polygon class="cls-18" points="249.57 120.94 237.28 107.83 238.92 102.09 232.36 96.36 232.36 84.89 221.71 75.06 215.98 102.09 205 134.86 207.31 152.89 229.91 151.25 210.24 176.65 217.62 170.91 237.28 169.27 242.19 152.89 249.57 120.94"/><polygon class="cls-5" points="151.25 64.41 143.88 76.69 143.88 120.12 169.27 153.71 207.31 152.89 221.16 127.17 221.71 75.06 173.37 28.36 151.25 64.41"/><polygon class="cls-18" points="156.17 77.51 166.82 80.79 170.91 85.71 175.83 88.98 176.65 93.08 183.21 89.8 188.94 84.89 206.97 77.51 215.16 81.61 202.05 88.98 185.66 107.42 179.93 95.54 170.91 107.42 164.36 90.62 148.79 81.61 156.17 77.51"/><polygon class="cls-6" points="179.93 100.45 170.91 107.42 179.93 113.56 185.66 107.42 179.93 100.45"/><polygon class="cls-23" points="223.35 56.21 221.71 75.06 181.56 62.77 174.19 34.91 223.35 56.21"/><polygon class="cls-24" points="245.47 68.5 221.71 75.06 174.19 34.91 224.99 21.8 251.21 49.66 245.47 68.5"/><polygon class="cls-23" points="254.48 52.12 266.36 75.88 221.71 75.06 245.47 52.94 254.48 52.12"/><polygon class="cls-22" points="244.65 38.19 245.47 52.94 266.36 75.88 265.95 45.56 244.65 38.19"/><polygon class="cls-21" points="203.69 15.25 221.71 2.96 243.83 16.07 265.95 45.56 245.47 52.94 210.24 31.63 203.69 15.25"/><polygon class="cls-22" points="177.47 13.61 195.5 5.42 221.71 2.96 210.24 31.63 174.19 34.91 177.47 13.61"/><polygon class="cls-21" points="144.7 37.37 141.42 27.54 182.38 1.32 195.5 5.42 174.19 34.91 144.7 37.37"/><polygon class="cls-24" points="156.17 53.75 128.31 63.59 141.42 27.54 174.19 34.91 156.17 53.75"/><polygon class="cls-23" points="174.19 34.91 128.31 63.59 143.88 76.69 164.36 64.41 174.19 34.91"/><polygon class="cls-9" points="242.19 152.89 230.73 161.08 217.62 170.91 240.56 185.66 247.93 158.62 242.19 152.89"/><polygon class="cls-21" points="170.91 79.15 155.35 75.06 147.97 79.15 148.79 81.61 156.98 79.15 170.91 85.71 170.91 79.15"/><polygon class="cls-21" points="188.12 79.15 207.78 75.88 215.98 79.15 215.16 81.61 206.97 79.97 188.94 84.89 188.12 79.15"/><polygon class="cls-25" points="175.83 88.98 170.91 107.83 185.66 107.42 183.21 89.8 175.83 88.98"/><polygon class="cls-26" points="168.46 123.39 182.38 125.03 201.23 121.76 191.4 134.86 177.47 134.86 168.46 123.39"/><polygon class="cls-6" points="164.36 120.94 182.38 121.76 206.15 118.48 193.03 137.32 175.01 138.14 164.36 120.94"/><polygon class="cls-3" points="202.05 187.3 218.44 230.73 247.93 211.06 202.05 187.3"/><path class="cls-27" d="M133.23,170.91a2.46,2.46,0,1,0-2.46-2.46A2.17,2.17,0,0,0,133.23,170.91Z"/><polygon class="cls-6" points="252.03 88.98 245.47 88.16 243.01 98.82 252.03 88.98"/><polygon class="cls-28" points="168.46 123.39 182.38 124.21 201.23 121.76 191.4 134.86 176.65 135.68 168.46 123.39"/><path class="cls-29" d="M166,87.35a3.28,3.28,0,1,1-3.28,3.27A3.26,3.26,0,0,1,166,87.35Z"/><path class="cls-29" d="M201.23,85.71A3.28,3.28,0,1,1,198,89,3.26,3.26,0,0,1,201.23,85.71Z"/><rect class="cls-30" x="0.5" y="0.5" width="399" height="399"/><polygon class="cls-18" points="169.27 108.35 158.5 117.42 162.72 108.75 169.27 108.35"/><polygon class="cls-18" points="190.23 107.83 207.31 115 200.81 107.42 190.23 107.83"/><polygon class="cls-18" points="158.5 92.26 154.33 90.62 148.97 93.08 158.5 92.26"/><polygon class="cls-18" points="205 91.85 209.42 89.5 216.33 92.26 205 91.85"/></svg>