<svg id="Layer_1" data-name="Layer 1" xmlns="http://www.w3.org/2000/svg" viewBox="0 0 400 400"><defs><style>.cls-1,.cls-19{fill:#f4c9b2;}.cls-1,.cls-10,.cls-11,.cls-12,.cls-13,.cls-14,.cls-15,.cls-16,.cls-2,.cls-3,.cls-4,.cls-5,.cls-6,.cls-7,.cls-8,.cls-9{fill-rule:evenodd;}.cls-18,.cls-2{fill:#fce3d4;}.cls-3{fill:#846400;}.cls-4{fill:#cbac14;}.cls-5{fill:#c2b373;}.cls-6{fill:#e0cf85;}.cls-7{fill:#c1907d;}.cls-8{fill:#fff7ad;}.cls-21,.cls-9{fill:#bb8e2d;}.cls-10{fill:#e4c728;}.cls-11,.cls-17{fill:#2b2b2b;}.cls-12{fill:#ffefe7;}.cls-13,.cls-20{fill:#755800;}.cls-14,.cls-22{fill:#9d7700;}.cls-15{fill:#ebebea;}.cls-16{fill:#fff;}.cls-17{opacity:0.1;}</style></defs><title>explorers_ESFP_famous_fictional_penny_the_big_bang_theory</title><polygon class="cls-1" points="182.88 266.8 164.47 260.65 158.9 259.12 170.35 202.87 182.21 208.15 182.88 232.45 179.34 248.4 182.88 266.8"/><polygon class="cls-2" points="158.9 259.12 156.41 275.55 168.94 276.81 171.67 273.97 169.84 259.12 158.9 259.12"/><polygon class="cls-1" points="156.41 275.55 164.09 288.83 174.14 284.76 171.67 273.97 156.41 275.55"/><polygon class="cls-3" points="202.81 291.97 212.57 269.88 172.88 241.17 165.37 281.95 181.58 289.49 202.81 291.97"/><polygon class="cls-4" points="204.51 288.38 165.37 281.95 164.09 288.83 177.37 300.11 200 297.87 204.51 288.38"/><polygon class="cls-5" points="170.16 130.44 176.36 127.75 186.35 132.41 192.4 140.93 193.43 148.33 186.24 157.97 174.34 156.16 167.04 145.21 170.16 130.44"/><polygon class="cls-5" points="174.84 8.04 220.02 20.34 254.07 18.58 217.56 0 174.84 8.04"/><polygon class="cls-6" points="222.72 149.35 259.78 122.72 259.93 108.69 250.73 101.41 245.45 101.84 238.35 108.9 222.72 149.35"/><polygon class="cls-5" points="163.43 34.74 161.01 70.19 150.78 97.89 143.7 59.94 154.41 39.99 163.43 34.74"/><polygon class="cls-2" points="163.43 34.74 155.96 72.05 150.78 97.89 161.03 129.34 166.53 132.81 170.16 130.44 186.35 132.41 194.29 137.76 209.32 135.2 223.52 108.27 227.39 71.37 222.6 39.62 213.94 27.48 183.21 15.05 173.53 28.44 163.43 34.74"/><polygon class="cls-1" points="230.96 94.99 231.27 118.59 222.72 149.35 218.26 163.28 191.1 163.61 193.43 148.33 202.83 140.84 201.53 134.26 216.86 119.42 226.78 67.3 234.02 82.98 230.96 94.99"/><polygon class="cls-5" points="163.43 34.74 173.53 28.44 180.9 27.62 185.93 20.7 185.5 13.73 174.84 8.04 163.43 34.74"/><polygon class="cls-6" points="226.78 67.31 230.96 95 239.82 92.16 240.94 87.31 245.92 76.45 242.54 55.43 230.45 54.08 226.78 67.31"/><polygon class="cls-5" points="230.96 95 240.94 87.31 253.59 91.91 259.93 108.69 245.45 101.85 240.7 102.33 230.96 95"/><polygon class="cls-7" points="173.53 28.44 206.54 55.09 197.65 27.78 185.93 20.7 173.53 28.44"/><polygon class="cls-8" points="168.04 23.96 163.43 34.75 143.7 59.94 148.55 35.8 168.04 23.96"/><polygon class="cls-8" points="245.45 101.84 222.72 149.35 230.96 95 245.45 101.84"/><polygon class="cls-8" points="265.2 114.62 278.08 70.12 258.76 55.78 242.54 55.43 240.94 87.31 265.2 114.62"/><polygon class="cls-6" points="219.2 13.94 254.07 18.58 278.08 70.12 240.3 55.37 225.46 35.4 219.2 13.94"/><polygon class="cls-6" points="248.44 161.12 259.93 108.69 222.72 149.35 236.11 155.25 248.44 161.12"/><polygon class="cls-8" points="171.91 180.23 176.02 155.64 170.16 130.44 161.03 129.34 164.15 187.31 171.91 180.23"/><polygon class="cls-8" points="174.84 8.04 206.54 55.09 226.78 67.31 242.5 56.24 226.81 14.95 174.84 8.04"/><polygon class="cls-9" points="166.44 101.98 174.06 103.49 179.62 102.05 186.92 104.52 197.4 103.95 190.31 107.33 178.84 109.74 170.99 105.95 166.44 101.98"/><polygon class="cls-10" points="170.99 105.95 178.82 112.79 190.31 107.33 170.99 105.95"/><polygon class="cls-5" points="190.49 66.27 204.05 67.36 207.92 65.84 211.24 69.25 220.22 73.15 207.84 61.31 192.06 61.15 190.49 66.27"/><polygon class="cls-1" points="186.09 92.11 200.21 76.6 220.22 73.15 207.92 65.84 190.48 66.27 185.49 81.4 186.09 92.11"/><polygon class="cls-1" points="175.78 91.09 179.73 97.38 186.09 92.12 175.78 91.09"/><path class="cls-11" d="M204.51,76.6a4.31,4.31,0,1,0-4.3,4.3,4.31,4.31,0,0,0,4.3-4.3"/><polygon class="cls-1" points="161.54 61.58 171.45 71.41 177.28 85.82 181.93 78.02 183.14 64.78 170.21 59.47 161.54 61.58"/><polygon class="cls-5" points="183.13 64.78 169.97 60.52 161.54 61.57 170.35 57.19 183.43 60.37 183.13 64.78"/><polygon class="cls-12" points="183.14 64.79 175.78 91.09 186.09 92.12 190.48 66.26 183.14 64.79"/><polygon class="cls-1" points="198.23 97.58 201.52 104.44 201.86 109.95 206.55 104.31 198.23 97.58"/><polygon class="cls-1" points="166.9 95.82 163.53 99.99 161.4 104.09 159.33 98.53 166.9 95.82"/><polygon class="cls-7" points="186.29 132.41 199.1 160.97 221.6 136.69 186.29 132.41"/><polygon class="cls-5" points="265.2 114.62 252.8 165.53 254.84 178.77 236.11 155.25 259.93 108.69 265.2 114.62"/><path class="cls-11" d="M175.75,71.41a4.3,4.3,0,1,0-4.3,4.31,4.3,4.3,0,0,0,4.3-4.31"/><polygon class="cls-13" points="172.88 241.17 171.95 246.23 200.54 277.3 215.86 270.49 237.36 246.23 235.08 241.3 212.37 235.78 172.88 241.17"/><polygon class="cls-2" points="185.52 151.65 193.43 148.33 199.1 160.97 222.72 149.35 233.3 166.83 228.88 186.38 174.15 186.38 180.48 157.2 185.52 151.65"/><polygon class="cls-10" points="185.52 151.65 176.02 155.64 164.15 187.31 205.47 204.64 241.15 201.21 243.24 194.8 249.37 185.3 252.8 165.53 227.53 175.38 194.93 186.38 177.19 177.34 185.52 151.65"/><polygon class="cls-14" points="248.34 269.85 237.37 246.23 200.54 277.3 202.35 289.49 220.93 290.63 243.68 288.61 248.34 269.85"/><polygon class="cls-1" points="241.15 201.21 255.6 212.81 267.84 204.45 267.29 192.69 252.8 165.53 241.15 201.21"/><polygon class="cls-8" points="222.72 149.35 232 199.55 245.15 178.03 249.13 169.43 236.11 155.25 222.72 149.35"/><polygon class="cls-1" points="194.93 186.38 200.05 184.65 198.23 174.91 189.9 183.81 194.93 186.38"/><polygon class="cls-4" points="164.15 187.31 241.15 201.21 232.09 234.88 209 238.9 174.47 234.85 164.15 187.31"/><polygon class="cls-2" points="235.08 241.3 172.88 241.17 174.47 234.85 232.09 234.88 235.08 241.3"/><polygon class="cls-10" points="243.68 288.61 241.24 297.87 225.31 307.37 203.98 298.88 202.13 287.99 243.68 288.61"/><polygon class="cls-6" points="236.11 155.25 245.15 178.04 252.8 165.53 236.11 155.25"/><polygon class="cls-2" points="255.6 212.81 281.6 212.81 289.66 177.21 283.62 161.09 278.49 167.25 255.6 212.81"/><polygon class="cls-1" points="295.76 161.22 290.85 145.62 289 139.04 279.38 152.07 278.49 167.25 289.66 177.21 305.51 164.18 295.76 161.22"/><polygon class="cls-15" points="265.2 114.63 288.76 107.82 294.57 129.31 289 139.04 286.94 141.83 286.54 140.45 273.67 136.52 265.2 114.63"/><polygon class="cls-4" points="270.27 120.84 289.44 120.84 292.05 129.03 286.67 137.94 285.7 137.66 275.39 134.72 270.27 120.84"/><polygon class="cls-16" points="293.73 162.25 289.41 169.4 305.51 164.18 295.76 161.22 290.85 145.62 289.35 148.18 293.73 162.25"/><polygon class="cls-2" points="298.62 133.49 290.85 145.62 295.76 161.22 305.51 164.18 298.62 133.49"/><polygon class="cls-7" points="289.35 148.18 286.7 153.07 293.73 162.25 289.35 148.18"/><polygon class="cls-10" points="272.61 120.84 277.98 135.46 282.85 136.85 277.24 120.84 272.61 120.84"/><polygon class="cls-16" points="272.61 120.84 277.24 120.84 274.03 112.08 269.77 113.31 272.61 120.84"/><polygon class="cls-17" points="68.82 387.04 177.82 373.25 272.61 389.88 174.1 400 68.82 387.04"/><polygon class="cls-18" points="241.24 297.87 235.01 331.06 216.08 361.14 208.53 335.25 203.98 298.88 241.24 297.87"/><polygon class="cls-19" points="235.01 331.06 228.44 367.87 212.32 368.55 208.53 335.25 235.01 331.06"/><polygon class="cls-19" points="157.56 320.59 151.39 357.72 167.63 363.13 182.88 331.48 175.13 307.37 157.56 320.59"/><polygon class="cls-18" points="164.09 288.83 157.56 320.59 182.88 331.48 200 297.87 164.09 288.83"/><polygon class="cls-20" points="211.8 381.37 229.78 387.04 229.78 392.71 202.21 392.55 202.21 386.63 211.8 381.37"/><polygon class="cls-20" points="154.72 368.55 168.57 376.88 168.57 382.63 119.45 382.88 119.45 376.15 154.72 368.55"/><polygon class="cls-21" points="228.44 367.87 212.16 367.15 202.21 386.63 229.78 387.04 228.44 367.87"/><polygon class="cls-21" points="119.45 376.15 148.12 376.57 168.28 372.71 167.63 363.13 151.39 357.72 119.45 376.15"/><polygon class="cls-22" points="148.12 376.57 168.57 376.88 167.63 363.13 148.12 376.57"/></svg>