<svg id="Layer_1" data-name="Layer 1" xmlns="http://www.w3.org/2000/svg" viewBox="0 0 400 400"><defs><style>.cls-1,.cls-25{fill:#2b2b2b;}.cls-1{fill-opacity:0.1;}.cls-2{fill:#f4c9b2;}.cls-3{fill:#6f7173;}.cls-4{fill:#8b8a8a;}.cls-5{fill:#545657;}.cls-6{fill:#ab913c;}.cls-7{fill:#8c7c2f;}.cls-8{fill:#fce3d4;}.cls-9{fill:#66483a;}.cls-10{fill:#e1a842;}.cls-11{fill:#bb8e2d;}.cls-12{fill:#cbac14;}.cls-13{fill:#e4c728;}.cls-14{fill:#dddddc;}.cls-15{fill:#c1907d;}.cls-16{fill:#c1b170;}.cls-17{fill:#8b7e51;}.cls-18{fill:#9d8d56;}.cls-19{fill:#e1ce7f;}.cls-20{fill:#fff7ae;}.cls-21{fill:#fff;}.cls-22{fill:#ffefe7;}.cls-23{fill:#eaeceb;}.cls-24{fill:#d0a0b7;}</style></defs><title>explorers_ESFP_famous_real_miley_cyrus</title><g id="Layer_1-2" data-name="Layer_1"><polygon class="cls-1" points="103.48 378.79 237.8 398.99 352.38 380.79 236.75 359.43 138.75 372.97 103.48 378.79"/><polygon class="cls-2" points="79.27 118.64 80.51 102.05 86.7 101.39 89.66 121.79 87.56 130.65 80.32 129.98 79.27 118.64"/><polygon class="cls-3" points="93.95 123.5 100.91 105.39 115.49 107.3 121.59 123.22 115.11 133.22 93.95 123.5"/><polygon class="cls-4" points="96.81 116.26 96.43 107.77 100.91 105.39 115.11 133.22 110.06 136.28 96.81 116.26"/><polygon class="cls-5" points="86.61 127.79 89.66 121.79 96.43 107.77 110.06 136.28 104.15 134.75 98.24 137.99 86.61 127.79"/><path class="cls-6" d="M47.62,150.19,54,159.53l13.73-6.95s14.2,1.52,15.44.66S94.9,140.57,94.9,140.57l1-8-6.2-10.77L71.07,138.18l-10,1.81Z"/><polygon class="cls-7" points="89.66 121.79 84.7 137.04 70.69 149.05 61.06 139.99 89.66 121.79"/><polygon class="cls-8" points="94.81 165.64 95.57 154.77 104.15 134.75 95.48 132.56 89.76 141.33 67.73 152.58 79.65 164.59 94.81 165.64"/><polygon class="cls-2" points="123.41 188.51 106.72 198.05 79.65 164.59 95.57 154.77 119.31 173.07 123.41 188.51"/><polygon class="cls-8" points="157.15 166.49 146.28 153.91 119.31 173.07 106.72 198.05 162.87 185.94 157.15 166.49"/><polygon class="cls-9" points="302.9 382.31 293.75 383.45 290.8 374.21 299.57 361.72 302.9 382.31"/><path class="cls-7" d="M317.49,370.68c.09-.76,12.2,7.15,12.2,7.15l.57,6.48-27.45,1.53-12-11.63-2-7.34Z"/><polygon class="cls-10" points="287.37 333.03 300.33 339.89 314.15 358.1 311.68 366.96 288.8 366.87 282.41 346.47 287.37 333.03"/><polygon class="cls-9" points="182.41 361.82 179.65 371.16 182.79 378.69 186.89 378.69 189.85 361.05 182.41 361.82"/><polygon class="cls-7" points="148.38 371.16 138.75 372.97 139.32 378.4 172.12 378.59 189.85 361.05 190.61 354 168.59 370.4 148.38 371.16"/><polygon class="cls-6" points="169.73 346.66 163.54 354.09 138.75 372.97 169.54 373.92 190.61 354 169.73 346.66"/><polygon class="cls-10" points="188.04 330.55 173.93 335.98 163.54 354.09 190.61 354 192.04 338.94 188.04 330.55"/><polygon class="cls-2" points="183.08 291.85 173.93 335.98 191.85 340.84 211.3 305.1 198.43 286.03 183.08 291.85"/><polygon class="cls-8" points="225.31 238.75 195.09 234.46 183.08 291.85 211.3 305.1 231.31 269.35 225.31 238.75"/><polygon class="cls-2" points="254.76 305 282.41 346.47 300.33 339.89 284.79 289.37 263.63 283.08 254.76 305"/><polygon class="cls-8" points="235.7 246.85 227.31 264.39 254.76 305 284.79 289.37 265.06 224.93 235.7 246.85"/><polygon class="cls-11" points="205.96 234.65 201.76 241.04 231.12 269.63 265.06 224.93 251.52 222.83 205.96 234.65"/><polygon class="cls-8" points="303 151.15 308.34 140.28 319.97 122.93 333.41 134.46 325.69 159.34 303 151.15"/><polygon class="cls-2" points="292.13 160.2 288.89 147.81 308.34 140.28 325.69 159.34 301.48 160.49 292.13 160.2"/><polygon class="cls-2" points="225.31 169.73 236.65 149.62 275.45 175.55 255.72 192.61 239.42 186.13 225.31 169.73"/><polygon class="cls-12" points="158.49 185.65 151.34 188.42 201.76 241.04 265.06 224.93 241.04 207.39 239.42 186.13 158.49 185.65"/><polygon class="cls-13" points="168.5 150.96 153.72 149.81 146.28 153.91 151.34 188.42 183.94 197.28 239.42 186.13 236.65 149.62 222.45 146.38 168.5 150.96"/><polygon class="cls-14" points="222.45 146.38 183.94 197.28 180.51 188.61 183.56 186.03 192.42 164.68 214.92 144.76 222.45 146.38"/><polygon class="cls-2" points="158.87 146.95 174.98 177.07 183.56 186.03 195.76 170.02 214.92 144.76 222.74 122.83 222.35 60.78 192.61 46.77 183.94 141.9 158.87 146.95"/><polygon class="cls-15" points="182.98 137.42 192.23 147.43 203 147.62 182.32 167.26 158.87 146.95 182.98 137.42"/><polygon class="cls-15" points="221.31 109.01 212.25 113.11 222.74 122.83 225.31 115.97 221.31 109.01"/><polygon class="cls-16" points="236.84 82.03 222.54 83.27 210.82 77.75 206.82 61.35 217.97 37.04 244.85 62.97 236.84 82.03"/><polygon class="cls-17" points="236.84 82.03 233.51 92.33 216.25 99.48 210.53 98.14 210.82 77.75 236.84 82.03"/><polygon class="cls-18" points="240.28 52.87 238.75 64.02 236.84 82.03 254.29 56.2 240.28 52.87"/><polygon class="cls-16" points="204.34 12.06 230.27 11.59 254.29 56.2 238.75 64.02 218.35 46.19 184.99 14.64 204.34 12.06"/><polygon class="cls-18" points="151.34 16.16 148.48 6.06 184.51 1.01 230.27 11.59 200.81 22.46 151.34 16.16"/><polygon class="cls-16" points="127.12 35.71 119.97 27.51 148.48 6.06 200.81 22.46 144.47 36.37 127.12 35.71"/><polygon class="cls-18" points="138.09 38.76 120.45 45.05 119.97 27.51 149.53 28.46 138.09 38.76"/><polygon class="cls-19" points="148.57 39.23 149.53 28.46 200.81 22.46 218.35 46.19 210.82 55.34 198.52 60.68 148.57 39.23"/><polygon class="cls-17" points="134.75 52.67 120.45 45.05 149.53 28.46 176.88 46 134.75 52.67"/><polygon class="cls-8" points="120.45 45.05 125.5 146.47 192.23 147.43 198.52 60.68 176.88 46 120.45 45.05"/><polygon class="cls-20" points="198.52 60.68 238.75 64.02 218.35 46.19 198.52 60.68"/><polygon class="cls-7" points="140.28 125.98 149.72 135.61 160.49 131.79 166.87 121.69 140.28 125.98"/><path class="cls-21" d="M141.9,127.31l23.83-4.67,5.43-7.43s-34.12,6.29-34,6.1S141.9,127.31,141.9,127.31Z"/><polygon class="cls-13" points="161.25 129.6 155.05 134.27 149.53 133.42 138.18 121.59 138.28 120.93 135.13 119.59 147.81 137.99 163.73 134.46 173.36 111.97 169.93 115.21 169.93 116.07 161.25 129.6"/><polygon class="cls-2" points="130.37 68.59 125.6 70.79 143.62 103.01 146.76 98.24 150.38 103.2 186.89 76.03 179.27 73.74 158.29 79.46 150.38 85.85 147.62 88.61 147.52 85.94 141.9 80.22 130.37 68.59"/><polygon class="cls-15" points="146 99.96 143.62 103.01 146.95 106.25 150.38 103.2 146 99.96"/><polygon class="cls-17" points="158.49 75.27 180.13 72.69 187.75 75.17 186.89 76.03 179.46 74.89 158.29 79.46 158.49 75.27"/><polygon class="cls-17" points="141.9 80.22 143.04 76.79 130.84 67.16 124.93 70.02 125.6 70.79 130.08 69.93 141.9 80.22"/><polygon class="cls-22" points="147.43 85.94 143.62 103.01 150.38 103.2 150.38 85.85 147.43 85.94"/><polygon class="cls-7" points="135.13 119.59 138.66 120.45 150.57 113.68 169.73 114.64 173.36 111.97 169.93 116.07 138.18 121.59 135.13 119.59"/><polygon class="cls-8" points="217.11 88.52 233.51 92.33 225.31 115.97 212.25 113.11 217.11 88.52"/><polygon class="cls-15" points="226.36 95.57 220.73 94.05 218.44 104.72 226.36 95.57"/><polygon class="cls-8" points="288.89 147.81 255.72 192.61 279.64 202.24 301.48 160.49 288.89 147.81"/><polygon class="cls-6" points="329.69 377.83 304.52 381.07 288.8 366.87 314.15 358.1 329.69 377.83"/><polygon class="cls-8" points="61.06 139.99 79.27 118.64 84.7 137.04 70.5 145.52 61.06 139.99"/><polygon class="cls-23" points="153.72 149.81 183.94 197.28 183.56 186.03 158.87 146.95 153.72 149.81"/><polygon class="cls-24" points="161.25 129.6 149.53 133.42 147.71 137.9 149.33 144.85 155.25 146.86 160.01 142.38 158.87 136.75 161.25 129.6"/><path class="cls-25" d="M136.4,84.51a3.75,3.75,0,1,1-4,3.53A3.75,3.75,0,0,1,136.4,84.51Z"/><polygon class="cls-1" points="151.34 188.42 183.94 197.28 201.76 241.04 151.34 188.42"/><path class="cls-25" d="M166.59,84.51a3.75,3.75,0,1,1-4,3.53A3.75,3.75,0,0,1,166.59,84.51Z"/></g></svg>