<svg id="illustration_layer_copy_7" data-name="illustration_layer copy 7" xmlns="http://www.w3.org/2000/svg" viewBox="0 0 400 400"><defs><style>.cls-1{fill:#fce3d4;}.cls-16,.cls-2{fill:#2b2b2b;}.cls-2{opacity:0.1;}.cls-3,.cls-8{fill:#f4c9b2;}.cls-4{fill:#755800;}.cls-5{fill:#8c7c2f;}.cls-6{fill:#e4c728;}.cls-7{fill:#ab913c;}.cls-8{opacity:0.45;}.cls-9{fill:#c1907d;}.cls-10{fill:#484748;}.cls-11{fill:#ffefe7;}.cls-12{fill:#e7c9b5;}.cls-13{fill:#c8ac9a;}.cls-14{fill:#fff;}.cls-15{fill:#4f5253;}.cls-17{fill:#595959;}.cls-18{fill:#6f7173;}.cls-19{fill:#cbac14;}.cls-20{fill:#bb8e2d;}.cls-21{fill:#e1a842;}</style></defs><title>explorers_ESFP_famous_real_adam_levine</title><polygon class="cls-1" points="188.21 161.88 165.69 165.19 155.1 202.65 153.57 230.04 159.9 257.47 193.23 267.81 227.44 267.17 254.41 170.81 225.36 157.54 188.21 161.88"/><polygon class="cls-1" points="166.12 244.45 190.58 247.29 219.59 244.45 234.91 263.4 237.71 291.07 199.51 300.15 150.65 282.39 155.73 256.86 166.12 244.45"/><polygon class="cls-2" points="87.07 388.11 191.97 374.21 299.4 391.3 191.2 400 87.07 388.11"/><polygon class="cls-1" points="237.71 291.07 244.8 323.87 234.67 325.17 221.74 320.23 210.97 312.43 199.51 300.15 206.85 294.44 237.71 291.07"/><polygon class="cls-1" points="150.65 282.39 144.38 313.99 153 322.83 163.69 322.83 172.9 313.65 182.58 300.28 166.13 284.93 150.65 282.39"/><polygon class="cls-3" points="144.38 313.99 144.26 335.25 154.93 346.75 165.75 341.4 170 332.76 166.72 322.83 172.9 313.65 169.19 288.82 157 319.77 144.38 313.99"/><polygon class="cls-3" points="219.81 321.17 235.44 341.16 247.88 347.9 258.25 342.09 258.33 332.96 244.8 323.87 231 321.37 206.85 294.44 199.51 300.15 219.81 321.17"/><polygon class="cls-4" points="145.55 337.09 144.16 354.87 150.31 360.32 157.58 358.5 165.75 341.4 149.16 336.72 145.55 337.09"/><polygon class="cls-4" points="243.89 361.07 249.75 364.22 258.65 362.12 258.25 342.09 248.71 341.79 245.45 343.06 242.07 341.47 235.44 341.16 243.89 361.07"/><polygon class="cls-5" points="243.89 361.07 230.4 385.75 247.53 389.39 264.65 385.75 258.65 362.12 243.89 361.07"/><rect class="cls-4" x="230.4" y="385.75" width="34.25" height="7.27"/><polygon class="cls-6" points="248.92 361.49 243.95 374.5 252.9 374.5 248.92 361.49 248.92 361.49"/><polygon class="cls-5" points="144.16 354.87 133.82 364.05 123.85 367.47 106.57 380.07 128.91 383.7 158.03 380.07 157.58 358.5 144.16 354.87"/><polygon class="cls-6" points="144.16 354.87 128.22 370.32 123.85 367.47 144.16 354.87 144.16 354.87"/><rect class="cls-4" x="106.57" y="380.07" width="51.45" height="7.27"/><polygon class="cls-7" points="149.15 336.72 144.16 354.87 144.26 335.25 149.15 336.72"/><polygon class="cls-7" points="242.07 341.47 248.71 341.79 248.92 361.49 242.07 341.47"/><polygon class="cls-3" points="166.12 244.45 188.33 235.34 192.19 237.21 217.56 251.57 214.49 255.94 191.21 261.73 169.19 249.6 166.12 244.45"/><polygon class="cls-8" points="177.48 263.53 190.58 267.57 207.15 266.43 204.75 269.85 190.33 282.26 172.4 266.3 177.48 263.53"/><polygon class="cls-9" points="182.58 300.28 169.5 270.74 154.98 260.66 153.36 268.79 164.24 270.74 165.32 298.65 172.9 313.65 182.58 300.28"/><polygon class="cls-9" points="211.77 275.49 199.51 300.15 209.94 311.32 215.03 303.33 214.84 278.51 236.13 275.49 234.91 263.4 211.77 275.49"/><polygon class="cls-10" points="123.36 35.28 123.36 53.62 139.93 69.29 137.05 38.84 123.36 35.28"/><polygon class="cls-1" points="138.54 111.73 159.06 154.27 179.44 149.21 198.03 175.39 224.44 161.63 243.77 82.35 230.16 67.7 227.78 47.77 204.28 33.19 149.25 35.87 135.56 42.86 138.54 111.73"/><polygon class="cls-3" points="211.84 37.88 210.53 151.89 198.03 175.39 225.36 157.54 237.5 115.18 236.85 107.27 240.91 101.42 244.74 81.39 230.16 67.7 227.78 47.77 211.84 37.88"/><polygon class="cls-3" points="196.75 77.52 175.72 109.05 141.21 84.06 148.35 78.41 164.42 82.87 171.26 81.98 187.03 73.65 196.75 77.52"/><polygon class="cls-11" points="171.26 81.98 173.04 104.29 175.72 109.05 164.57 110.24 167.24 104.29 164.42 82.87 171.26 81.98"/><polygon class="cls-12" points="138.54 111.73 154.3 116.79 164.57 110.24 175.72 109.05 196.25 113.81 211 110.24 213.06 149.96 176.8 152.02 159.06 154.27 138.54 111.73"/><polygon class="cls-13" points="210.57 149.96 211 110.24 222.43 91.2 226.29 89.12 228.97 93.14 221.39 145.94 210.57 149.96"/><polygon class="cls-9" points="176.8 152.02 221.39 145.94 198.03 175.39 176.8 152.02"/><polygon class="cls-9" points="164.57 110.24 170.81 116.34 175.72 109.05 164.57 110.24"/><polygon class="cls-9" points="158.02 122.29 191.04 119.02 185.54 132.4 166.8 134.63 158.02 122.29"/><polygon class="cls-14" points="162.48 124.22 186.95 121.92 185.39 126.08 165.09 128.01 162.48 124.22"/><polygon class="cls-3" points="142.85 107.27 146.28 114.22 152.22 119.02 154.3 116.79 142.85 107.27"/><polygon class="cls-3" points="203.83 103.55 196.25 113.81 198.85 116.49 201.45 112.55 203.83 103.55"/><polygon class="cls-13" points="196.25 113.81 201.45 112.55 196.99 129.43 196.25 113.81"/><polygon class="cls-13" points="146.28 114.21 154.3 116.79 154.9 131.66 146.28 114.21"/><polygon class="cls-15" points="171.26 81.98 171.26 79 186.28 71.72 198.03 74.84 196.75 77.52 187.52 75.25 171.26 81.98"/><polygon class="cls-15" points="164.42 82.87 164.42 79.75 148.58 76.03 141.21 80.94 141.21 84.06 148.71 80.05 164.42 82.87"/><circle class="cls-16" cx="184.2" cy="84.21" r="3.57"/><circle class="cls-16" cx="154.3" cy="87.48" r="3.57"/><polygon class="cls-17" points="135.56 42.86 123.36 35.28 138.62 24.19 148.58 34.19 154.3 45.69 135.56 42.86"/><polygon class="cls-18" points="138.62 24.19 146.65 9.61 160.73 24.19 168.98 47.77 154.3 45.69 138.62 24.19"/><polygon class="cls-10" points="146.65 9.61 166.14 12.88 176.1 20.17 180.63 42.41 168.98 47.77 146.65 9.61"/><polygon class="cls-17" points="166.14 12.88 172.83 0.69 187.11 16.55 188.66 38.84 180.63 42.41 166.14 12.88"/><polygon class="cls-18" points="172.83 0.69 188.66 38.84 194.65 22.5 188.52 7.13 172.83 0.69"/><polygon class="cls-10" points="188.66 38.84 188.52 7.13 203.03 21.24 211.77 43.61 188.66 38.84"/><polygon class="cls-17" points="188.52 7.13 208.19 16.28 213.34 26.55 211.77 43.61 188.52 7.13"/><polygon class="cls-10" points="211.77 43.61 226.29 36.32 236.85 44.7 244.74 81.39 231.35 73.25 226.29 63.24 211.77 43.61"/><polygon class="cls-10" points="208.19 16.28 221.34 21.69 226.29 36.32 221.39 42.41 211.77 43.61 208.19 16.28"/><polygon class="cls-17" points="244.74 81.39 229.23 43.48 228.97 39.96 239.98 43.61 244.74 81.39"/><polygon class="cls-18" points="211.77 43.61 239.98 43.61 226.29 36.32 211.77 43.61"/><polygon class="cls-17" points="226.29 63.24 244.74 81.39 231.65 80.05 225.71 81.98 219.77 76.85 226.29 63.24"/><polygon class="cls-10" points="231.65 80.05 219.77 76.85 222.43 91.2 228.97 93.14 231.65 80.05"/><polygon class="cls-9" points="228.25 99.63 240.91 101.42 237.5 115.18 228.25 99.63"/><polygon class="cls-9" points="232.26 96.11 234.58 83.91 240.91 84.99 232.26 96.11"/><polygon class="cls-3" points="225.1 220.41 196.52 207.94 196.52 186.9 189.12 206.38 164.57 212.35 191.98 212.35 225.1 220.41"/><polygon class="cls-9" points="217.07 209.37 220.55 207.55 222.11 211.31 218.48 212.35 217.07 209.37"/><polygon class="cls-9" points="169.5 204.3 172.1 201.57 174.57 204.3 172.04 206.64 169.5 204.3"/><polygon class="cls-9" points="187.9 253.04 191.41 250.7 193.22 254.08 189.59 255.89 187.9 253.04"/><polygon class="cls-8" points="207.69 277.66 192.16 277.77 178.6 274.44 191.2 295.22 199.86 289.57 207.69 277.66"/><polygon class="cls-3" points="254.41 170.81 273.58 192.82 256.5 247.14 214.84 278.51 207.15 275.92 204.75 269.85 233.12 229.34 254.41 170.81"/><polygon class="cls-19" points="254.41 194.85 260.89 189.07 265.13 194.85 259.83 203.24 254.41 194.85"/><polygon class="cls-5" points="260.89 189.07 254.41 170.81 268.35 187.07 265.13 194.85 260.89 189.07"/><polygon class="cls-20" points="265.13 194.85 273.58 192.82 268.35 187.07 265.13 194.85"/><polygon class="cls-4" points="265.13 194.85 273.58 192.82 269.81 204.78 266.01 201.09 259.83 203.24 265.13 194.85"/><polygon class="cls-19" points="259.83 203.24 266.01 201.09 269.81 204.78 267.87 210.96 259.83 203.24"/><polygon class="cls-19" points="259.83 203.24 250.34 199.73 249.46 209.83 259.83 203.24"/><polygon class="cls-5" points="259.83 203.24 264.75 208.22 256 216.23 249.46 209.83 259.83 203.24"/><polygon class="cls-5" points="254.41 194.85 248.8 186.22 245.45 195.44 250.34 199.73 259.83 203.24 254.41 194.85"/><polygon class="cls-20" points="254.41 194.85 248.8 186.22 254.41 170.81 260.89 189.07 254.41 194.85"/><polygon class="cls-20" points="249.46 209.83 241.04 207.57 245.45 195.44 250.34 199.73 249.46 209.83"/><polygon class="cls-5" points="256 216.23 264.2 222.65 267.87 210.96 264.75 208.22 256 216.23"/><polygon class="cls-5" points="249.46 209.83 248.68 219.95 241.87 222.42 244.59 208.52 249.46 209.83"/><polygon class="cls-5" points="256.5 247.14 254.41 228.1 237.62 230.91 236.39 245.58 256.5 247.14"/><polygon class="cls-19" points="247.98 229.17 255.56 238.6 245.45 246.32 236.94 239.02 247.98 229.17"/><polygon class="cls-4" points="243.34 233.31 251.61 233.58 249.9 242.92 241.04 242.64 243.34 233.31"/><polygon class="cls-6" points="249.46 209.83 247.98 229.17 254.41 228.1 256 216.23 249.46 209.83"/><polygon class="cls-6" points="241.87 222.42 233.12 229.34 241.04 207.57 244.59 208.52 241.87 222.42"/><polygon class="cls-5" points="256 216.23 264.2 222.65 262.78 227.16 254.41 228.1 256 216.23"/><polygon class="cls-19" points="262.78 227.16 254.41 228.1 256.5 247.14 262.78 227.16"/><polygon class="cls-4" points="248.68 219.95 241.87 222.42 233.12 229.34 237.62 230.91 247.98 229.17 248.68 219.95"/><polygon class="cls-6" points="237.62 230.91 236.39 245.58 230.88 245.58 228.14 236.46 233.12 229.34 237.62 230.91"/><polygon class="cls-7" points="236.39 245.58 256.5 247.14 245 255.8 225.62 247.14 230.88 245.58 236.39 245.58"/><polygon class="cls-5" points="230.88 245.58 228.14 236.46 222.54 244.45 225.62 247.14 230.88 245.58"/><polygon class="cls-4" points="245 255.8 228.14 254.28 225.62 247.14 245 255.8"/><polygon class="cls-6" points="222.54 244.45 221.86 255.1 226.71 257.91 219.29 258.69 217.56 251.57 222.54 244.45"/><polygon class="cls-6" points="214.49 255.94 214.49 262.75 223.32 263.53 212.72 266.96 210.73 261.31 214.49 255.94"/><polygon class="cls-7" points="226.71 257.91 238.77 260.49 234.91 263.4 219.29 258.69 226.71 257.91"/><polygon class="cls-7" points="223.32 263.53 234.91 263.4 225.89 270.19 212.72 266.96 223.32 263.53"/><polygon class="cls-5" points="217.56 251.57 219.29 258.69 234.91 263.4 223.32 263.53 214.49 262.75 214.49 255.94 217.56 251.57"/><polygon class="cls-5" points="212.72 266.96 211.24 269.79 220.27 274.42 225.89 270.19 212.72 266.96"/><polygon class="cls-7" points="211.24 269.79 207.15 266.43 210.73 261.31 212.72 266.96 211.24 269.79"/><polygon class="cls-20" points="225.62 247.14 228.14 254.28 245 255.8 238.77 260.49 226.71 257.91 221.86 255.1 222.54 244.45 225.62 247.14"/><polygon class="cls-11" points="204.75 269.85 188.17 272.89 190.33 282.26 199.16 277.17 204.75 269.85"/><polygon class="cls-1" points="204.75 269.85 190.33 282.26 194.71 292.07 206.85 294.44 214.84 278.51 204.75 269.85"/><polygon class="cls-3" points="206.85 294.44 195.41 303.33 182.58 300.28 190.33 282.26 206.85 294.44"/><polygon class="cls-9" points="199.06 297.96 188.54 301.7 182.58 300.28 190.33 282.26 199.06 297.96"/><polygon class="cls-3" points="165.69 165.19 155.1 202.65 157.03 229.17 177.48 263.53 172.4 269.58 164.24 270.74 130.85 236.46 142.3 177.83 165.69 165.19"/><polygon class="cls-7" points="160.2 184.62 168.21 194.73 183.84 192.82 192.41 182.83 189.27 168.47 174.79 163.88 165.69 165.19 160.2 184.62"/><polygon class="cls-5" points="160.2 184.62 142.3 177.83 153.36 171.86 155.1 176.9 162.63 176.02 160.2 184.62"/><polygon class="cls-20" points="153.36 171.86 155.1 176.9 162.63 176.02 165.69 165.19 153.36 171.86"/><polygon class="cls-21" points="162.63 176.02 170.79 168.47 182.87 170.81 183.84 181.42 173.38 188.6 160.2 184.62 162.63 176.02"/><polygon class="cls-20" points="165.69 173.19 176.3 169.54 183.37 176.28 179.18 184.62 166.57 186.55 161.44 180.24 165.69 173.19"/><polygon class="cls-6" points="174.26 172.02 180.47 176.9 177.37 183.12 168.21 184.51 163.81 180.98 166.61 174.68 174.26 172.02"/><polygon class="cls-4" points="170.79 168.47 174.79 163.88 189.27 168.47 182.87 170.81 170.79 168.47"/><polygon class="cls-4" points="183.84 181.42 192.41 182.83 183.84 192.82 179.18 184.62 183.84 181.42"/><polygon class="cls-4" points="173.38 188.6 168.21 194.73 160.2 184.62 173.38 188.6"/><polygon class="cls-7" points="142.3 177.83 147.42 187.98 139.96 189.83 142.3 177.83"/><polygon class="cls-5" points="138.36 198.03 147.42 207.02 145.84 209.74 136.92 205.4 138.36 198.03"/><polygon class="cls-20" points="147.42 207.02 140.48 233.31 137.3 234.5 142.97 208.22 147.42 207.02"/><polygon class="cls-5" points="141.1 216.85 134.15 219.59 133.16 224.66 139.96 222.16 141.1 216.85"/><polygon class="cls-5" points="143.3 222.65 149.49 230.91 140.48 233.31 143.3 222.65"/><polygon class="cls-19" points="140.48 233.31 149.49 245.58 137.3 234.5 140.48 233.31"/><polygon class="cls-4" points="144.78 217.01 152.49 225.43 149.49 230.91 143.3 222.65 144.78 217.01"/><polygon class="cls-4" points="138.64 228.29 131.94 230.91 133.16 224.66 139.96 222.16 138.64 228.29"/><polygon class="cls-20" points="152.49 225.43 154.17 234.5 152.49 236.46 149.49 230.91 152.49 225.43"/><polygon class="cls-4" points="149.49 230.91 148.21 237.46 144.37 238.6 140.48 233.31 149.49 230.91"/><polygon class="cls-6" points="138.64 228.29 131.94 230.91 130.85 236.46 137.3 234.5 138.64 228.29"/><polygon class="cls-5" points="137.3 234.5 130.85 236.46 137.3 243.08 141.12 237.97 137.3 234.5"/><polygon class="cls-5" points="141.12 237.97 149.49 245.58 143.92 245.58 142.67 248.6 137.3 243.08 141.12 237.97"/><polygon class="cls-20" points="148.21 237.46 154.17 241.05 149.49 245.58 144.37 238.6 148.21 237.46"/><polygon class="cls-21" points="154.17 241.05 157.26 248.6 148.21 254.28 142.67 248.6 143.92 245.58 149.49 245.58 154.17 241.05"/><polygon class="cls-7" points="157.26 248.6 155.1 255.26 148.21 254.28 157.26 248.6"/><polygon class="cls-5" points="154.17 241.05 166.12 244.45 169.19 249.6 157.26 248.6 154.17 241.05"/><polygon class="cls-3" points="180.57 269.58 202.47 278.51 198.3 282.14 190.33 282.26 180.57 269.58"/><polygon class="cls-1" points="177.48 263.53 190.33 282.26 181.63 288.24 169.19 288.82 164.24 270.74 177.48 263.53"/><polygon class="cls-3" points="190.33 282.26 194.53 297.24 182.58 300.28 169.19 288.82 190.33 282.26"/><polygon class="cls-5" points="235.65 189.11 237.61 189.64 235.51 196.82 233.96 196.71 235.65 189.11"/><polygon class="cls-5" points="231.96 188.49 233.81 189.23 232.26 196.24 231.17 195.72 231.96 188.49"/><polygon class="cls-5" points="228.53 186.67 226.87 195.15 225.49 194.96 226.2 187.72 207.69 184.44 207.38 182.77 228.53 186.67"/><polygon class="cls-5" points="226.64 190.01 221.32 189.18 220.22 192.22 227.96 198 222.14 192.19 222.6 190.58 226.6 191.65 226.64 190.01"/><polygon class="cls-5" points="221.17 190.04 220.74 186.36 222.47 186.49 222.5 189.61 221.17 190.04"/><polygon class="cls-5" points="219.81 186.03 218.55 193.66 216.78 193.01 217.66 189.26 214.49 189.98 213.9 184.9 215.71 185.12 215.77 187.9 217.76 187.88 218.01 185.72 219.81 186.03"/><polygon class="cls-5" points="213.05 184.75 211.7 192.47 210.49 192.29 211.07 184.43 213.05 184.75"/><polygon class="cls-5" points="208.98 192.79 208.4 188.84 211 188.94 211.32 186.97 206.65 187.84 208.98 192.79"/><g id="Layer_6_copy_3" data-name="Layer 6 copy 3"><polygon class="cls-5" points="228.27 226.64 211.69 238.25 199.01 229.77 192.19 237.21 191.2 242.23 187.26 239.12 182.67 243.27 187.26 237.22 190.25 240.36 191.2 236.87 199.01 228.55 211.69 235.81 226.46 227.07 228.27 226.64"/><polygon class="cls-5" points="182.67 243.27 183.62 242.23 183.62 234.09 187.67 227.52 169.5 233.4 161.65 220.95 160.16 219.54 168.99 235.89 184.37 230.09 182.26 233.73 182.67 243.27"/><polygon class="cls-5" points="187.67 238.76 188.54 236.51 191.81 237.08 192.19 236.32 183.46 232.75 182.86 234.27 187.26 236.32 182.86 241.26 183.62 242.23 187.67 238.76"/><polygon class="cls-5" points="228.27 226.64 208.34 226.09 203.54 222.83 201.79 223.52 209.22 227.63 226.49 227.63 228.27 226.64"/><polygon class="cls-5" points="208.34 226.09 213.9 235.81 211.69 235.81 206.65 225.84 208.34 226.09"/><polygon class="cls-5" points="199.51 228.83 198 220.95 187.26 217.29 196.18 221.97 198.51 229.08 199.51 228.83"/><polygon class="cls-5" points="192.19 219.88 195.19 228.03 189.08 235.13 187.67 234.96 193.39 228.03 192.19 219.88"/><polygon class="cls-5" points="185.03 221.47 187.67 227.52 186.75 222.83 185.03 221.47"/><polygon class="cls-5" points="187.26 217.29 190.95 225.59 186.75 234.09 189.41 225.36 187.26 217.29"/><polygon class="cls-5" points="198.41 225.84 203.54 222.83 197.85 224.24 198.41 225.84"/><polygon class="cls-5" points="203.54 222.83 200.69 217.51 195.91 214.76 190.02 214.87 187.26 217.29 190.95 216.25 195.4 216.18 199.01 218 203.54 222.83"/><polygon class="cls-5" points="199.51 217.29 198 220.95 200.69 219.38 199.51 217.29"/><polygon class="cls-5" points="196.18 216.18 194.3 219.69 194.84 215.6 196.18 216.18"/><polygon class="cls-5" points="191.43 216.11 191.29 218.66 189.73 216.11 191.43 216.11"/><polygon class="cls-5" points="187.26 217.29 185.03 221.47 175.52 225.26 161.11 220.95 160.16 219.54 175.35 223.19 183.71 220.76 187.26 217.29"/><polygon class="cls-5" points="176.97 223.89 172.45 232.44 169.5 233.4 175.74 224.43 176.97 223.89"/><polygon class="cls-5" points="211.69 232.44 225.59 227.63 210.49 231.32 211.69 232.44"/><polygon class="cls-5" points="161.78 221.15 172.04 231.07 172.5 229.42 161.78 221.15"/><polygon class="cls-5" points="201.79 223.52 202.13 230.82 204.39 232.44 201.79 223.52"/><polygon class="cls-5" points="184.7 221.61 181.53 230.37 178.66 231.07 184.7 221.61"/></g></svg>