<svg id="Layer_1" data-name="Layer 1" xmlns="http://www.w3.org/2000/svg" viewBox="0 0 400 400"><defs><style>.cls-1{fill:#dcdcdb;}.cls-2{fill:#8e8e8e;}.cls-3{fill:#846400;}.cls-4{fill:#6f7173;}.cls-19,.cls-28,.cls-5{fill:#2b2b2b;}.cls-5{fill-opacity:0.15;}.cls-6{fill:#ebebea;}.cls-7{fill:#8c7c2f;}.cls-8{fill:#ab913c;}.cls-9{fill:#bb8e2d;}.cls-10{fill:#755800;}.cls-11{fill:#cbac14;}.cls-12{fill:#9ca0a1;}.cls-13{fill:#cdcdcc;}.cls-14{fill:#a2a2a2;}.cls-15{fill:#e1a842;}.cls-16{fill:#c3c3c3;}.cls-17{fill:#f1bc68;}.cls-18{fill:#e4c728;}.cls-19{fill-opacity:0.1;}.cls-20{fill:#75451c;}.cls-21{fill:#f4c9b2;}.cls-22{fill:#c1907d;}.cls-23{fill:#fce3d4;}.cls-24{fill:#995e26;}.cls-25{fill:#ad7038;}.cls-26{fill:#ca8d58;}.cls-27{fill:#ffefe7;}</style></defs><title>explorers_ESFP_famous_fictional_ygritte_game_of_thrones</title><g id="Layer_1-2" data-name="Layer_1"><g id="_897260640" data-name=" 897260640"><polygon class="cls-1" points="103.11 149.4 143.04 163.66 138.09 156.35 123.13 144.34 119.83 143.98 103.11 149.4"/><polygon class="cls-2" points="117.12 136.8 114.42 139.27 141.51 161.54 144.69 162.48 137.86 152.11 120.78 135.97 117.12 136.8"/><polygon class="cls-3" points="167.54 139.86 160.95 165.31 176.26 177.91 188.75 165.54 183.21 153.88 186.51 147.52 167.54 139.86"/><polygon class="cls-4" points="142.33 171.78 140.45 176.26 148.11 174.61 163.3 170.61 168.37 160.83 163.42 141.98 157.3 145.4 141.51 161.54 142.33 171.78"/><polygon class="cls-5" points="192.4 398.67 113.94 383.6 157.77 379.59 198.76 375.94 275.57 390.55 192.4 398.67"/><polygon class="cls-1" points="105.23 126.2 133.38 150.82 135.86 146.22 124.08 128.2 121.48 126.9 105.23 126.2"/><polygon class="cls-6" points="130.67 108.29 125.25 121.13 124.55 124.66 135.38 141.16 138.56 139.63 141.28 126.55 135.62 111.59 130.67 108.29"/><polygon class="cls-2" points="119.72 116.77 116.3 119.25 135.38 147.28 138.33 145.4 119.72 116.77"/><polygon class="cls-7" points="172.73 329.88 176.73 334.23 214.9 337.3 214.31 324.93 195.11 292.18 186.87 292.89 172.73 329.88"/><polygon class="cls-8" points="233.04 391.25 266.97 391.25 266.85 386.07 263.68 384.42 238.58 384.42 232.93 386.07 233.04 391.25"/><polygon class="cls-9" points="174.02 240.34 175.09 233.4 182.39 230.92 228.45 229.74 234.34 231.16 240.7 236.22 227.04 301.02 211.6 309.5 184.39 267.09 174.02 240.34"/><polygon class="cls-8" points="121.25 384.3 160.83 384.3 160.83 380.18 157.06 378.53 127.61 378.53 121.13 380.18 121.25 384.3"/><polygon class="cls-7" points="136.68 362.15 121.13 380.18 160.83 380.18 160.48 368.28 157.65 363.57 142.33 358.51 136.68 362.15"/><polygon class="cls-8" points="137.51 345.19 136.68 362.15 160.48 368.28 169.19 349.79 166.48 345.43 142.1 341.54 137.51 345.19"/><polygon class="cls-10" points="137.51 311.15 134.91 330.7 137.62 333.53 171.2 336.48 176.73 334.23 192.05 295.6 190.4 287.12 176.38 265.91 163.89 308.44 143.98 307.38 137.51 311.15"/><polygon class="cls-7" points="235.99 370.75 232.93 386.07 266.85 386.07 258.61 367.93 254.72 365.69 239.87 367.93 235.99 370.75"/><polygon class="cls-8" points="223.85 350.38 235.99 370.75 258.61 367.93 256.02 344.6 249.89 341.31 226.21 345.78 223.85 350.38"/><polygon class="cls-9" points="134.91 330.7 131.5 338.48 137.51 345.19 169.19 349.79 177.68 344.25 176.73 334.23 134.91 330.7"/><polygon class="cls-10" points="211.84 322.57 209.84 327.05 214.9 337.3 219.97 337.3 250.71 332.12 253.54 326.34 250.6 313.97 246.59 311.26 228.68 311.5 211.84 322.57"/><polygon class="cls-9" points="214.9 337.3 214.55 346.25 224.09 350.73 256.13 345.31 260.73 338.48 246.47 329.29 214.9 337.3"/><polygon class="cls-3" points="148.58 241.64 137.62 301.37 142.33 304.08 159.41 302.55 173.91 257.43 172.73 255.43 158.59 248.47 154 241.53 148.58 241.64"/><polygon class="cls-9" points="137.98 299.25 132.79 304.78 137.51 311.15 167.54 312.09 178.97 268.15 174.02 260.14 171.08 260.49 156.94 299.37 137.98 299.25"/><polygon class="cls-11" points="204.3 317.15 171.2 259.9 172.73 255.43 185.1 263.2 212.43 304.31 249.89 302.9 254.84 307.73 250.6 313.97 237.28 313.62 231.51 314.21 204.3 317.15"/><polygon class="cls-6" points="157.3 253.19 155.53 253.42 135.27 328.7 136.56 329.29 137.74 327.4 157.3 253.19"/><polygon class="cls-2" points="167.54 312.09 135.27 328.7 134.91 330.7 170.73 321.16 170.37 315.62 167.54 312.09"/><polygon class="cls-12" points="205.01 330.7 196.41 328.35 195.11 326.34 191.81 327.05 188.75 324.93 186.63 325.64 179.44 323.63 177.91 321.4 175.09 322.34 171.43 317.27 172.38 312.8 179.8 313.86 180.86 315.74 184.86 314.56 187.81 316.56 190.05 315.27 198.53 316.45 200.65 318.33 204.3 317.15 208.19 322.57 205.01 330.7"/><polygon class="cls-6" points="176.26 249.77 170.25 256.25 171.08 260.49 184.39 267.09 186.51 264.26 180.97 250 176.26 249.77"/><path class="cls-13" d="M250.6,328.46l-4.13.83-15-15,1.3-4.36,4,.94.36,2.71,12.13,12,1.18,2.82h.12Zm-31.69-26.74-44.65-44.64-1.65-4.48,4,1.89,44.88,43.7.12,3.53-2.83-.23Z"/><polygon class="cls-2" points="261.67 282.05 260.37 285.47 256.96 284.88 251.42 288.41 250.95 291.36 247.06 291 223.03 305.85 221.74 309.03 219.02 308.2 211.49 312.8 211.25 315.27 207.95 315.04 206.53 323.63 209.25 328.11 217.49 322.93 217.97 320.81 221.62 320.45 223.15 317.51 225.27 318.1 255.43 299.37 256.49 296.07 260.02 296.54 261.32 293.6 263.91 294.07 272.86 288.64 267.91 282.4 261.67 282.05"/><polygon class="cls-12" points="268.03 259.31 269.09 262.38 266.62 264.5 264.14 272.98 265.2 275.1 262.96 276.98 268.15 283.11 273.92 283.94 275.45 276.63 274.63 274.15 276.39 272.27 275.45 268.86 277.34 267.09 278.64 260.61 273.81 257.9 268.03 259.31"/><polygon class="cls-1" points="172.38 312.8 167.54 312.09 170.73 321.16 180.74 323.99 184.51 314.44 186.63 325.64 196.41 328.35 204.3 317.15 198.53 316.45 191.81 327.05 190.05 315.27 179.8 313.86 175.67 322.57 172.38 312.8"/><polygon class="cls-1" points="209.25 328.11 207.95 315.04 217.49 322.93 225.27 318.1 223.03 305.73 219.02 308.2 221.62 320.45 211.49 312.8 204.3 317.15 205.01 330.7 209.25 328.11"/><polygon class="cls-3" points="231.63 231.28 229.63 241.41 231.28 245.18 229.98 251.07 227.04 253.78 224.91 264.15 231.28 269.32 253.31 273.45 260.61 269.8 268.15 229.98 264.85 227.62 236.22 228.8 231.63 231.28"/><polygon class="cls-11" points="231.63 231.28 268.15 229.98 265.56 210.19 262.38 206.42 258.37 185.45 261.44 177.79 260.14 167.66 254.36 167.43 232.81 176.97 231.63 231.28"/><polygon class="cls-9" points="130.08 240.23 148.58 241.64 144.69 230.1 130.79 236.46 130.08 240.23"/><polygon class="cls-3" points="111.12 177.09 126.08 229.51 131.14 229.98 158.83 212.78 152.47 191.81 148.34 188.28 141.04 182.39 119.72 176.73 111.12 177.09"/><polygon class="cls-11" points="147.16 154.59 141.51 161.54 135.5 164.6 133.85 168.37 116.3 174.49 111.12 177.09 148.34 188.28 151.88 181.68 153.29 169.66 147.16 154.59"/><polygon class="cls-9" points="177.68 196.88 179.32 233.99 168.72 234.57 156.71 227.15 154.47 219.85 154.94 211.25 151.52 200.76 151.17 189.69 154.23 182.04 156 168.13 163.89 168.84 177.68 196.88"/><polygon class="cls-3" points="190.4 181.09 188.04 184.75 169.78 193.93 170.61 231.16 174.49 234.22 228.45 232.22 231.63 231.28 229.63 223.15 233.04 217.14 235.28 196.05 233.28 184.27 229.98 171.55 190.4 181.09"/><polygon class="cls-9" points="173.32 205.59 181.21 208.19 182.04 213.61 188.98 213.96 189.81 219.26 180.5 223.74 180.74 225.85 186.16 224.56 186.16 229.51 175.09 233.4 170.49 226.45 170.84 211.84 173.32 205.59"/><polygon class="cls-11" points="166.72 189.93 166.72 229.16 169.9 233.75 175.09 233.4 174.26 201.12 166.72 189.93"/><polygon class="cls-9" points="229.74 127.37 186.63 143.98 183.21 153.88 178.97 175.09 179.32 180.27 192.05 186.28 228.92 175.56 230.57 173.44 237.05 163.3 239.87 142.93 229.74 127.37"/><polygon class="cls-11" points="184.51 174.73 173.55 178.74 175.91 172.96 183.47 158.06 184.51 174.73"/><polygon class="cls-14" points="156 168.13 168.37 160.83 175.91 172.96 172.85 182.98 166.25 182.39 156 168.13"/><polygon class="cls-14" points="166.37 187.22 176.03 199.59 179.91 199.82 184.86 200.06 189.93 195.35 190.05 191.7 188.98 187.45 178.97 176.5 166.37 187.22"/><polygon class="cls-13" points="166.84 191.46 174.26 201.12 179.91 199.82 170.37 187.81 180.15 178.62 190.05 191.7 192.05 186.28 184.51 174.73 175.91 172.96 166.25 182.39 166.84 191.46"/><polygon class="cls-2" points="190.05 191.7 233.04 217.14 231.63 231.28 179.91 199.82 190.05 191.7"/><polygon class="cls-15" points="143.75 233.51 155.53 253.42 163.54 250.95 174.02 240.34 175.09 233.4 159.77 225.62 154.59 225.62 144.69 230.1 143.75 233.51"/><polygon class="cls-11" points="126.08 229.51 124.19 236.7 130.08 240.23 159.77 225.62 161.77 216.67 154.94 211.25 126.08 229.51"/><polygon class="cls-14" points="249.42 325.52 246.47 329.29 248.71 336.48 256.02 333.41 257.66 327.17 249.42 325.52"/><polygon class="cls-16" points="260.73 338.48 257.55 326.81 248.71 336.48 260.73 338.48"/><path class="cls-6" d="M174.85,235.17l.24-1.77,56.54-2.12-.12,1.65L175,235h0Zm93.3-5.19,26-.94.59,1.06-2.24.58-24.74.95Z"/><polygon class="cls-2" points="296.77 228.92 294.18 229.04 268.98 255.31 273.21 258.02 279.46 256.96 296.77 228.92"/><polygon class="cls-17" points="155.53 253.42 171.08 260.49 180.97 250 175.09 233.4 155.53 253.42"/><polygon class="cls-1" points="262.96 276.98 273.92 283.94 272.86 288.64 261.67 282.05 262.96 276.98"/><polygon class="cls-1" points="255.43 299.37 263.91 294.07 261.67 282.05 256.96 284.88 260.02 296.54 251.42 288.41 247.06 291 255.43 299.37"/><polygon class="cls-1" points="275.45 276.63 262.96 276.98 264.14 272.98 276.39 272.27 275.45 276.63"/><polygon class="cls-1" points="266.62 264.5 276.39 272.27 277.34 267.09 268.03 259.31 266.62 264.5"/><polygon class="cls-1" points="278.64 260.61 268.03 259.31 268.98 255.31 279.46 256.96 278.64 260.61"/><polygon class="cls-18" points="261.44 177.79 251.07 188.98 253.42 194.64 247.53 201.47 250.24 205.83 257.66 200.88 259.31 202.89 250.24 213.13 255.19 215.96 265.56 210.19 261.44 177.79"/><polygon class="cls-18" points="116.3 174.49 123.02 177.09 128.55 175.44 125.49 172.73 129.73 171.08 137.98 175.79 142.1 172.73 135.5 164.6 116.3 174.49"/><polygon class="cls-9" points="229.63 241.41 227.04 253.78 232.1 253.89 233.99 251.19 239.64 251.19 241.88 247.3 229.63 241.41"/><polygon class="cls-17" points="216.91 304.2 221.5 298.31 225.74 278.28 229.39 283.23 230.45 297.01 226.8 299.72 226.92 303.49 219.02 308.2 216.91 304.2"/><polygon class="cls-17" points="228.57 298.43 225.85 304.08 237.28 313.62 249.89 302.9 247.06 291 241.41 290.18 228.57 298.43"/><polygon class="cls-15" points="229.16 275.93 225.74 278.28 225.85 304.08 247.06 291 244.7 280.28 240.7 276.75 229.16 275.93"/><polygon class="cls-11" points="224.91 264.15 218.55 270.15 221.5 277.81 257.07 281.58 262.96 276.98 260.61 269.8 224.91 264.15"/><path class="cls-19" d="M228.92,175.56l-36.87,10.6-7.54-11.55,50.77-20.73-6.36,21.56ZM137.39,311l-4.71-6.36,8.83.23-1.65,6.25-2.47-.12Zm6.12-6,18.73.47,12.25-39.7L171,260.37l8.6,4.36,27.92,45.48,8.84-.48-12,7.42-12.61-21.79-17.43-9.19-6.83,25.92-25.57-.83,1.65-6.24Zm99.78,3.3,11.43-.59L250.48,314l-13.31-.35,6.12-5.3ZM174.14,201l5.66-1.18,51.12,31.1Zm50,149.73-9.66-4.6,46.18-7.77L256,345.19l-32,5.42h0ZM131.5,338.48l46.18,5.77-8.6,5.66-31.57-4.72-6-6.71Zm87.05-68.33L263,277l-6,4.6-31.11-3.3,18.74,2L246.94,291l-21.32-12.72-4.24-.47-2.94-7.66h.11Zm-94.47-33.57,37.57-20-2,9-11.19,16-4.83-8.13L130,240.11l-5.88-3.65h0Zm107.08-3.65L175.56,235l45.82,2.83,3.42,26.28L231.16,233h0ZM260,167.55l-23.21,13.07,24.51-2.94Z"/><polygon class="cls-20" points="168.37 160.83 157.53 145.63 144.1 126.08 142.33 103.7 161.3 125.25 167.54 139.86 168.37 160.83"/><polygon class="cls-21" points="229.74 127.37 229.27 131.5 238.58 109.35 236.58 107.47 233.99 86.38 225.51 76.72 221.38 77.9 215.02 119.48 193.81 142.69 202.53 146.1 224.33 130.79 229.74 127.37"/><polygon class="cls-22" points="236.58 107.47 230.69 99.34 234.46 97.22 239.4 98.98 236.58 107.47"/><polygon class="cls-23" points="231.4 84.61 230.69 99.34 239.4 98.98 231.4 84.61"/><polygon class="cls-22" points="182.51 142.1 202.53 146.1 183.47 158.06 172.14 141.98 182.51 142.1"/><polygon class="cls-24" points="280.87 155.76 272.86 147.87 256.49 148.46 248.95 158.36 237.99 180.62 280.87 155.76"/><polygon class="cls-24" points="224.33 130.79 235.4 129.85 249.3 132.09 247.18 148.46 240 162.6 224.33 130.79"/><polygon class="cls-25" points="245.88 135.5 254.25 143.28 258.61 153.64 237.99 180.62 240 162.6 245.88 135.5"/><polygon class="cls-26" points="261.67 128.91 245.88 135.5 258.61 153.64 280.87 155.76 274.51 129.85 261.67 128.91"/><polygon class="cls-20" points="239.4 98.98 224.33 130.79 245.88 135.5 245.88 112.41 239.4 98.98"/><polygon class="cls-24" points="252.36 104.64 239.4 98.98 245.88 135.5 254.96 126.31 258.13 110.41 252.36 104.64"/><polygon class="cls-25" points="267.8 101.46 255.31 107.47 245.88 135.5 274.51 129.85 277.81 103.46 267.8 101.46"/><polygon class="cls-26" points="250.24 84.02 246.35 86.73 239.4 98.98 253.42 113.12 277.81 103.46 263.08 82.96 250.24 84.02"/><polygon class="cls-24" points="247.77 64.7 240.94 77.42 239.4 98.98 263.08 82.96 257.43 72.95 247.77 64.7"/><polygon class="cls-26" points="256.37 31.13 242.94 28.54 233.63 34.43 242.7 64.58 248.95 69.18 263.08 82.96 256.37 31.13"/><polygon class="cls-25" points="229.27 39.85 222.44 48.27 222.44 54.81 231.75 89.44 239.4 98.98 248.95 69.18 240 36.31 229.27 39.85"/><polygon class="cls-26" points="201 40.32 206.89 47.03 222.44 48.27 240 36.31 235.28 30.66 208.42 23.47 200.65 33.48 201 40.32"/><polygon class="cls-24" points="222.44 8.04 213.72 10.51 207.83 22.41 210.19 27.01 240 36.31 256.37 31.13 222.44 8.04"/><polygon class="cls-24" points="154.12 12.16 138.33 32.54 150.46 32.66 158.12 30.07 162.48 18.76 154.12 12.16"/><polygon class="cls-25" points="127.96 36.31 131.26 47.03 139.51 57.87 162.6 46.56 166.01 38.91 168.25 35.49 164.95 27.24 159.65 24.65 127.96 36.31"/><polygon class="cls-26" points="124.43 65.06 122.9 76.72 130.2 104.17 142.33 103.7 143.04 51.35 127.96 36.31 124.43 65.06"/><polygon class="cls-25" points="114.77 89.21 124.43 65.06 131.26 97.92 121.13 98.51 114.77 89.21"/><polygon class="cls-24" points="124.31 105.23 114.77 89.21 131.26 97.92 129.02 110.41 124.31 105.23"/><polygon class="cls-26" points="123.96 138.68 124.31 105.23 131.26 97.92 140.45 120.66 131.38 121.72 130.79 136.44 123.96 138.68"/><polygon class="cls-24" points="141.04 159.77 123.96 138.68 131.38 121.72 138.8 141.86 141.04 159.77"/><polygon class="cls-25" points="131.38 121.72 140.92 137.15 155.41 178.85 151.52 200.76 131.38 121.72"/><polygon class="cls-24" points="157.3 145.4 149.64 123.84 142.33 103.7 131.26 97.92 131.38 121.72 136.8 130.32 146.93 137.86 157.3 145.4"/><polygon class="cls-26" points="155.41 178.85 157.3 145.4 131.38 121.72 155.41 178.85"/><polygon class="cls-26" points="154.12 12.16 166.01 38.91 171.78 43.97 181.56 44.56 187.69 39.85 192.17 9.69 187.81 1.32 154.12 12.16"/><polygon class="cls-25" points="222.44 8.04 187.81 1.32 181.56 44.56 196.88 45.03 203 38.08 222.44 8.04"/><polygon class="cls-25" points="143.04 51.35 146.34 61.76 151.76 114.42 145.92 123.25 131.26 97.92 143.04 51.35"/><polygon class="cls-23" points="202.53 146.1 167.79 146.1 145.92 123.25 143.04 61.64 149.52 50.45 166.01 38.91 203 38.08 222.44 48.27 221.97 78.58 220.08 122.07 202.53 146.1"/><polygon class="cls-26" points="222.44 48.27 221.97 78.58 239.4 98.98 222.44 48.27"/><polygon class="cls-26" points="221.97 177.32 245.88 135.5 235.28 196.05 221.97 177.32"/><polygon class="cls-22" points="180.74 112.29 173.32 106.17 179.32 103.46 184.98 106.17 180.74 112.29"/><polygon class="cls-9" points="165.25 119.95 172.08 119.95 179.91 118.49 186.45 119.36 198.11 119.48 179.85 123.96 165.25 119.95"/><polygon class="cls-18" points="165.25 119.95 178.91 122.19 198.11 119.48 180.44 127.02 165.25 119.95"/><polygon class="cls-21" points="160.01 71.18 149.28 74.01 164.01 86.38 173.32 106.17 176.26 81.9 173.79 77.78 160.01 71.18"/><polygon class="cls-21" points="198.41 70.24 185.22 77.66 182.27 81.67 184.98 106.17 197.35 86.38 211.84 73.19 198.41 70.24"/><polygon class="cls-20" points="149.28 74.01 161.06 69.3 172.02 73.54 173.79 77.78 160.71 72.95 149.28 74.01"/><polygon class="cls-20" points="187.34 72.48 185.22 77.66 200.18 72.12 211.84 73.19 200.88 68.59 187.34 72.48"/><polygon class="cls-27" points="182.27 81.67 184.98 106.17 173.32 106.17 176.26 81.9 182.27 81.67"/><polygon class="cls-22" points="166.01 38.91 143.04 51.35 143.04 61.64 166.01 38.91"/><path class="cls-28" d="M164,82.37a4,4,0,1,1-4,4A4,4,0,0,1,164,82.37Z"/><path class="cls-28" d="M197.35,82.37a4,4,0,1,1-4,4A4,4,0,0,1,197.35,82.37Z"/></g></g></svg>