<svg id="Layer_1" data-name="Layer 1" xmlns="http://www.w3.org/2000/svg" viewBox="0 0 400 400"><defs><style>.cls-1,.cls-3{fill:#2b2b2b;}.cls-1{fill-opacity:0.1;}.cls-2{fill:#474747;}.cls-4{fill:#fce3d4;}.cls-5{fill:#846400;}.cls-6{fill:#cbac14;}.cls-7{fill:#e4c728;}.cls-8{fill:#9d7700;}.cls-9{fill:#f4c9b2;}.cls-10{fill:#bb8e2d;}.cls-11{fill:#b48a00;}.cls-12{fill:#c1907d;}.cls-13{fill:#755800;}.cls-14{fill:#754f40;}.cls-15{fill:#ffefe7;}.cls-16{fill:#fff;}.cls-17{fill:#8a6651;}.cls-18{fill:#dcdcdb;}.cls-19{fill:#8c7c2f;}</style></defs><title>explorers_ESFP_famous_fictional_gob_bluth_arrested_development</title><g id="Layer_1-2" data-name="Layer_1"><g id="_377435768" data-name=" 377435768"><polygon id="_142139896" data-name=" 142139896" class="cls-1" points="109.95 383.87 203.48 366.32 299.13 382.66 204.09 399.01 109.95 383.87"/><polygon id="_142137160" data-name=" 142137160" class="cls-2" points="196.82 357.24 196.82 376 191.68 379.64 178.36 376 158.69 378.73 142.64 376 172.31 356.94 183.2 348.46 196.82 357.24"/><polygon id="_142137088" data-name=" 142137088" class="cls-2" points="219.52 363.6 213.17 385.99 216.5 390.53 248.88 390.53 251.6 385.99 240.41 363.6 230.12 356.03 219.52 363.6"/><path id="_142137016" data-name=" 142137016" class="cls-3" d="M196.82,376H178.36l1.81,3.94h16.65Zm-18.46,0H142.64l.31,3.94h31.78Z"/><polygon id="_142136944" data-name=" 142136944" class="cls-3" points="213.17 385.99 251.6 385.99 251.6 390.83 213.77 390.53 213.17 385.99"/><polygon id="_142140040" data-name=" 142140040" class="cls-4" points="228.9 152.33 198.03 159.59 184.41 150.21 184.72 182.9 191.98 205.6 206.81 189.25 228.9 152.33"/><polygon id="_142139968" data-name=" 142139968" class="cls-5" points="197.43 298.82 223.76 298.82 249.79 264.92 193.19 257.96 147.79 267.95 181.99 298.82 197.43 298.82"/><polygon id="_142139824" data-name=" 142139824" class="cls-6" points="338.77 130.23 322.43 117.22 304.88 140.22 316.98 140.83 327.58 137.5 338.77 130.23"/><polygon id="_142139752" data-name=" 142139752" class="cls-6" points="290.65 121.46 270.67 132.66 284.29 149.6 294.59 144.46 297.61 139.92 297.92 133.56 290.65 121.46"/><polygon id="_142139680" data-name=" 142139680" class="cls-7" points="322.13 155.36 354.51 149 343.32 128.12 316.98 140.83 316.98 148.09 322.13 155.36"/><polygon id="_142139608" data-name=" 142139608" class="cls-7" points="316.98 140.83 316.98 116.31 292.16 116.01 297.61 139.92 307.6 142.95 316.98 140.83"/><polygon id="_142139536" data-name=" 142139536" class="cls-6" points="67.58 184.11 45.48 164.74 61.22 153.84 65.46 160.2 67.88 168.98 70.61 175.94 67.58 184.11"/><polygon id="_142139464" data-name=" 142139464" class="cls-7" points="110.56 178.36 126.9 156.87 103.9 144.76 96.64 166.25 110.56 178.36"/><polygon id="_142139392" data-name=" 142139392" class="cls-6" points="99.97 134.77 75.15 136.29 78.17 158.08 84.23 165.95 96.64 166.25 99.97 134.77"/><polygon id="_142139320" data-name=" 142139320" class="cls-7" points="67.88 168.98 57.59 145.97 82.41 139.92 85.74 162.62 79.69 168.07 67.88 168.98"/><path id="_142139248" data-name=" 142139248" class="cls-8" d="M66.37,148.39,70,150.51l-2.12,3.33-3.63-2.12,2.12-3.33Zm7.26,7,3.64,2.11-2.12,3.33-3.63-2.11,2.11-3.33Zm2.73-9.69L80,147.79l-2.12,3.33L74.24,149Z"/><polygon id="_142139176" data-name=" 142139176" class="cls-8" points="109.05 162.62 108.44 160.5 106.32 159.9 105.41 161.71 107.53 166.25 111.77 165.34 113.28 163.23 111.47 161.71 109.05 162.62"/><polygon id="_142139104" data-name=" 142139104" class="cls-8" points="156.87 166.56 127.21 201.06 133.87 214.07 152.33 223.15 155.35 206.51 156.87 166.56"/><polygon id="_142139032" data-name=" 142139032" class="cls-8" points="245.85 160.5 266.74 188.65 261.29 204.39 248.28 222.25 242.83 194.4 245.85 160.5"/><polygon id="_142138960" data-name=" 142138960" class="cls-9" points="278.54 165.34 287.93 165.34 294.59 168.67 293.38 174.73 287.02 174.42 275.82 170.79 278.54 165.34"/><polygon id="_142138888" data-name=" 142138888" class="cls-6" points="184.41 150.21 179.57 157.47 178.66 165.95 180.48 176.84 187.14 183.5 191.37 181.99 184.41 150.21"/><polygon id="_142138816" data-name=" 142138816" class="cls-7" points="180.48 176.84 164.44 183.2 175.63 155.36 184.41 150.21 180.48 176.84"/><polygon id="_142138744" data-name=" 142138744" class="cls-10" points="175.63 155.36 156.87 166.56 150.81 245.25 152.63 248.88 149.91 251.91 147.79 267.95 181.39 278.24 181.39 267.04 189.25 217.71 180.48 180.18 164.44 183.2 175.63 155.36"/><polygon id="_142138672" data-name=" 142138672" class="cls-8" points="175.63 155.36 154.75 190.77 181.08 234.66 185.32 201.66 180.48 176.84 164.44 183.2 175.63 155.36"/><polygon id="_142138528" data-name=" 142138528" class="cls-7" points="219.52 182.6 235.87 188.65 234.05 154.75 228.9 152.33 215.59 172.31 219.52 182.6"/><polygon id="_142138456" data-name=" 142138456" class="cls-10" points="202.27 218.92 217.1 191.98 238.29 184.41 234.05 154.75 245.85 160.5 249.19 246.16 244.95 249.49 249.19 253.72 249.79 264.92 207.11 279.45 206.21 268.86 200.15 240.41 202.27 218.92"/><polygon id="_142138384" data-name=" 142138384" class="cls-8" points="234.05 154.75 244.04 185.93 203.48 234.35 207.11 196.22 214.98 180.78 233.44 186.23 234.05 154.75"/><polygon id="_142138240" data-name=" 142138240" class="cls-7" points="213.17 178.66 205.3 183.2 191.98 205.6 191.37 181.99 180.48 176.84 180.78 208.32 181.39 267.04 193.19 262.5 206.21 268.86 203.48 234.35 219.52 182.6 213.17 178.66"/><polygon id="_142138168" data-name=" 142138168" class="cls-8" points="147.79 267.95 163.22 323.64 181.99 332.12 197.12 326.37 197.43 298.82 147.79 267.95"/><polygon id="_142138096" data-name=" 142138096" class="cls-8" points="197.43 298.82 249.79 264.92 244.34 323.34 226.18 333.02 207.42 327.88 197.43 298.82"/><polygon id="_142138024" data-name=" 142138024" class="cls-11" points="152.33 223.15 123.88 246.46 105.72 203.18 112.38 194.4 122.06 191.98 152.33 223.15"/><polygon id="_142137952" data-name=" 142137952" class="cls-11" points="248.28 222.25 283.69 232.54 292.16 181.69 288.23 178.36 276.73 178.06 272.19 177.75 248.28 222.25"/><polygon id="_142137880" data-name=" 142137880" class="cls-7" points="272.19 177.75 275.82 170.79 293.38 174.73 292.16 181.69 272.19 177.75"/><polygon id="_142137808" data-name=" 142137808" class="cls-7" points="102.39 194.7 105.72 203.18 122.06 191.98 116.61 185.62 107.53 189.56 102.39 194.7"/><polygon id="_142137736" data-name=" 142137736" class="cls-6" points="191.98 205.6 186.83 264.92 193.19 262.5 191.98 205.6"/><polygon id="_142137664" data-name=" 142137664" class="cls-12" points="278.54 165.34 294.59 168.67 322.13 155.36 302.45 150.82 284.29 149.6 278.54 165.34"/><polygon id="_142137592" data-name=" 142137592" class="cls-4" points="284.29 149.6 322.13 155.36 316.98 140.83 297.61 139.92 284.29 149.6"/><polygon id="_142137520" data-name=" 142137520" class="cls-9" points="112.68 181.08 104.2 183.5 99.06 188.65 102.39 194.7 116.61 185.62 112.68 181.08"/><polygon id="_142137448" data-name=" 142137448" class="cls-12" points="112.68 181.08 99.06 188.65 67.58 184.11 86.35 172.31 101.78 168.07 112.68 181.08"/><polygon id="_142137376" data-name=" 142137376" class="cls-4" points="101.78 168.07 67.58 184.11 67.88 168.98 85.74 162.62 101.78 168.07"/><polygon id="_142137304" data-name=" 142137304" class="cls-7" points="150.81 245.25 169.58 241.01 169.28 247.97 149.91 251.91 150.81 245.25"/><polygon id="_142137232" data-name=" 142137232" class="cls-7" points="219.52 241.62 219.52 250.4 249.19 253.72 249.19 246.16 219.52 241.62"/><polygon id="_142136872" data-name=" 142136872" class="cls-6" points="219.52 182.6 205.3 183.2 228.9 152.33 219.52 182.6"/><polygon id="_142136800" data-name=" 142136800" class="cls-5" points="164.44 183.2 180.18 183.81 180.48 176.84 164.44 183.2"/><path id="_142136728" data-name=" 142136728" class="cls-8" d="M340.89,136.29l-2.11,3.33-3.64-1.82,2.12-3.33,3.63,1.82Zm-7.26,7-2.12,3.33-3.63-1.82,2.12-3.63Zm10.29,2.42L341.8,149l-3.63-1.82,2.12-3.33Z"/><polygon id="_142136656" data-name=" 142136656" class="cls-8" points="304.57 123.27 302.76 122.06 300.64 122.36 300.64 124.18 305.18 127.21 308.21 124.48 308.51 122.06 306.09 121.46 304.57 123.27"/><polygon id="_142136584" data-name=" 142136584" class="cls-8" points="305.48 131.44 303.97 130.23 301.85 130.54 301.85 132.66 306.09 135.68 309.11 132.66 309.72 130.23 307.3 129.93 305.48 131.44"/><polygon id="_142136512" data-name=" 142136512" class="cls-13" points="163.22 323.64 197.12 326.37 196.82 357.24 172.31 356.94 163.22 323.64"/><polygon id="_142136440" data-name=" 142136440" class="cls-13" points="207.42 327.88 244.34 323.34 240.41 363.6 219.52 363.6 207.42 327.88"/><polygon id="_142136368" data-name=" 142136368" class="cls-14" points="217.4 35.19 236.47 29.44 245.85 16.43 230.12 8.86 220.13 19.15 217.4 35.19"/><polygon id="_142003104" data-name=" 142003104" class="cls-14" points="155.35 12.8 157.78 20.06 157.78 28.54 163.22 34.59 163.22 39.43 166.56 44.27 181.08 44.88 198.03 33.68 179.57 18.25 155.35 12.8"/><polygon id="_142003032" data-name=" 142003032" class="cls-9" points="217.4 35.19 201.06 110.56 194.1 147.64 209.84 147.18 194.1 167.46 228.9 152.33 241.92 114.5 243.13 96.64 252.51 82.71 237.99 73.03 229.81 74.54 230.72 55.17 217.4 35.19"/><polygon id="_142002960" data-name=" 142002960" class="cls-12" points="179.57 142.04 220.73 142.04 194.1 167.46 179.57 142.04"/><polygon id="_142002888" data-name=" 142002888" class="cls-4" points="139.62 47.91 137.8 55.47 140.52 65.46 143.25 114.8 159.9 142.04 197.12 142.04 212.87 112.68 217.4 35.19 206.81 29.75 198.03 33.68 166.56 44.27 163.22 34.59 150.21 37.31 139.62 47.91"/><polygon id="_142002816" data-name=" 142002816" class="cls-15" points="167.76 78.17 165.95 100.88 174.12 100.88 174.12 78.17 167.76 78.17"/><polygon id="_142002744" data-name=" 142002744" class="cls-12" points="159.59 108.74 185.32 108.74 187.44 109.65 190.16 113.28 180.18 125.39 165.04 125.39 157.47 112.07 159.59 108.74"/><polygon id="_142002672" data-name=" 142002672" class="cls-16" points="160.2 111.77 183.2 111.77 187.44 114.5 179.27 122.67 166.25 122.67 160.2 111.77"/><polygon id="_142002600" data-name=" 142002600" class="cls-12" points="165.95 100.88 169.88 106.02 174.12 100.88 165.95 100.88"/><polygon id="_142002528" data-name=" 142002528" class="cls-9" points="175.63 102.08 190.16 113.28 184.11 102.08 175.63 102.08"/><polygon id="_142002456" data-name=" 142002456" class="cls-9" points="158.69 102.08 164.74 102.08 157.47 112.07 158.69 102.08"/><polygon id="_142002384" data-name=" 142002384" class="cls-9" points="146.58 76.36 156.87 81.81 165.95 100.88 167.76 78.17 157.17 72.12 146.58 76.36"/><polygon id="_142002312" data-name=" 142002312" class="cls-9" points="174.12 78.17 174.12 100.88 187.74 81.81 199.85 75.45 188.35 71.82 174.12 78.17"/><polygon id="_142002240" data-name=" 142002240" class="cls-14" points="175.33 77.57 187.74 69.4 199.85 75.45 188.95 74.84 175.33 77.57"/><polygon id="_142002168" data-name=" 142002168" class="cls-14" points="166.25 77.27 156.87 70.61 146.58 76.36 156.57 74.54 166.25 77.27"/><path id="_142002096" data-name=" 142002096" class="cls-3" d="M187.74,78.78a3,3,0,1,1-3.33,3A3.19,3.19,0,0,1,187.74,78.78Z"/><path id="_142002024" data-name=" 142002024" class="cls-3" d="M156.87,78.78a3,3,0,1,1-3.33,3A3.19,3.19,0,0,1,156.87,78.78Z"/><polygon id="_142001952" data-name=" 142001952" class="cls-17" points="139.62 47.91 163.22 34.59 157.78 20.06 132.05 40.34 135.98 46.7 139.62 47.91"/><polygon id="_142001880" data-name=" 142001880" class="cls-14" points="132.05 40.34 139.62 47.91 140.83 67.88 132.05 53.96 132.05 40.34"/><polygon id="_142001808" data-name=" 142001808" class="cls-17" points="155.35 12.8 198.03 33.68 217.4 35.19 230.12 8.86 189.86 0.99 155.35 12.8"/><polygon id="_142001736" data-name=" 142001736" class="cls-17" points="217.4 35.19 229.51 58.5 245.85 58.8 264.32 49.12 245.85 16.43 217.4 35.19"/><polygon id="_142001664" data-name=" 142001664" class="cls-14" points="229.51 58.5 223.76 89.07 231.33 91.49 234.35 77.27 252.51 82.71 264.32 49.12 229.51 58.5"/><polygon id="_142001592" data-name=" 142001592" class="cls-4" points="229.21 100.88 244.95 105.11 252.51 82.71 234.35 77.27 229.21 100.88"/><polygon id="_142001520" data-name=" 142001520" class="cls-12" points="229.21 100.88 244.95 105.11 241.92 114.5 229.21 100.88"/><polygon id="_142001448" data-name=" 142001448" class="cls-12" points="239.5 83.92 236.47 95.12 246.16 85.74 239.5 83.92"/><polygon id="_142001376" data-name=" 142001376" class="cls-13" points="131.75 108.14 135.98 108.14 138.1 114.5 137.8 117.82 138.41 121.15 134.77 127.21 131.14 127.21 127.21 117.82 126.9 116.92 129.63 112.68 131.75 108.14"/><path id="_142001304" data-name=" 142001304" class="cls-18" d="M203.78,117.82l-2.42,3.33H133.87l-1.52-3.33,6.36-.9Z"/><polygon id="_142001232" data-name=" 142001232" class="cls-16" points="132.35 117.82 134.17 114.5 206.51 114.5 203.78 117.82 199.55 117.82 132.35 117.82"/><polygon id="_142001160" data-name=" 142001160" class="cls-19" points="129.63 112.68 106.63 112.68 102.39 117.82 120.85 119.94 127.21 117.82 129.63 112.68"/><polygon id="_142001088" data-name=" 142001088" class="cls-13" points="102.39 117.82 130.54 117.82 130.54 122.67 102.39 122.67 102.39 117.82"/><polygon id="_142001016" data-name=" 142001016" class="cls-18" points="161.71 114.5 187.44 114.5 185.32 116.01 161.71 114.5"/><path id="_142000944" data-name=" 142000944" class="cls-9" d="M199.85,122.67H182.42l1.25-1.52h17.69Zm-36.32,0H148.09l-.91-1.52h15.44Z"/><polygon id="_142000872" data-name=" 142000872" class="cls-12" points="196.52 194.1 192.89 188.95 194.1 188.35 197.43 193.49 196.52 194.1"/><polygon id="_142000800" data-name=" 142000800" class="cls-12" points="196.22 187.14 192.58 181.69 193.79 181.08 197.12 186.53 196.22 187.14"/><polygon id="_142000728" data-name=" 142000728" class="cls-12" points="200.76 186.83 197.43 181.69 198.34 181.08 201.66 186.23 200.76 186.83"/><polygon id="_142000656" data-name=" 142000656" class="cls-12" points="201.36 180.78 198.03 175.63 198.34 175.33 198.94 175.03 202.27 180.18 201.36 180.78"/><polygon id="_142000584" data-name=" 142000584" class="cls-12" points="195.31 178.96 191.98 173.82 192.89 173.21 196.22 178.36 195.31 178.96"/><polygon id="_142000512" data-name=" 142000512" class="cls-12" points="205.6 178.66 203.18 175.03 204.39 174.42 206.51 178.06 205.6 178.66"/></g></g></svg>