<svg id="Layer_1" data-name="Layer 1" xmlns="http://www.w3.org/2000/svg" viewBox="0 0 400 400"><defs><style>.cls-1,.cls-15{fill:#2b2b2b;}.cls-1,.cls-10,.cls-11,.cls-12,.cls-13,.cls-14,.cls-15,.cls-16,.cls-17,.cls-2,.cls-3,.cls-4,.cls-5,.cls-6,.cls-7,.cls-8,.cls-9{fill-rule:evenodd;}.cls-1{opacity:0.1;}.cls-2{fill:#836528;}.cls-3{fill:#755924;}.cls-4{fill:#bda476;}.cls-5{fill:#9c782c;}.cls-6{fill:#fbe3d4;}.cls-7{fill:#f4cab2;}.cls-8{fill:#ecdbb4;}.cls-9{fill:#c18f7c;}.cls-10{fill:#fff7e1;}.cls-11{fill:#fff0e8;}.cls-12{fill:#e4c723;}.cls-13{fill:#fff;}.cls-14{fill:#b38b2e;}.cls-16{fill:#cbad2d;}.cls-17{fill:#f3d65c;}</style></defs><title>explorers_ESFP_famous_fictional_lindsay_bluth_funke_arrested_development</title><polygon class="cls-1" points="137.09 390.01 197.98 399.61 258.87 390.01 197.98 380.82 137.09 390.01"/><polygon class="cls-2" points="196.52 391.15 199.43 370.5 193.03 375.27 191.25 382.69 196.52 391.15"/><polygon class="cls-3" points="134.68 263.85 125.13 251.04 133.28 249.18 134.68 263.85"/><polygon class="cls-4" points="214.75 139.48 252.31 151.49 254.29 147.88 230.99 107.69 226.62 107.73 214.75 139.48"/><polygon class="cls-4" points="259.06 162.96 265.23 145.65 278.27 137.69 270.1 181.74 258.71 171.97 259.06 162.96"/><path class="cls-5" d="M241.59,150.89c1.61-1.14,7.22-5.35,7.22-5.35l34.24,58.22-8.16,3-23-.23-9.55-3.73-7.76-13.08L233,180.94Z"/><polygon class="cls-6" points="133.98 274.57 143.18 275.15 148.96 268.69 138.41 255.47 131.03 252.19 133.98 274.57"/><polygon class="cls-7" points="133.98 274.57 146.21 270.48 151.27 275.46 150.6 283.67 133.98 274.57"/><polygon class="cls-7" points="134.45 249.65 131.03 252.19 151.92 277.36 142.78 250.56 134.45 249.65"/><polygon class="cls-2" points="139.11 200.5 125.13 251.04 140.74 254.07 145.94 251.99 161.53 222.63 162.63 219.13 142.37 198.41 139.11 200.5"/><polygon class="cls-5" points="142.52 158.66 139.11 200.5 159.14 222.4 162.63 219.13 147.61 163.35 142.52 158.66"/><polygon class="cls-2" points="172.72 380.31 162.4 391.15 185.57 391.15 179.4 382.14 172.72 380.31"/><polygon class="cls-3" points="178.94 368.67 181.31 364.88 190.2 360.84 192.63 362.05 199.43 370.5 185.57 391.15 172.72 380.31 178.94 368.67"/><polygon class="cls-7" points="158.79 308.22 169.07 339.07 173.81 341.62 185.81 341.42 163.33 309.04 163.44 308.86 158.79 308.22"/><polygon class="cls-2" points="169.07 339.07 180.63 339.02 185.81 341.42 192.78 351.45 192.63 362.05 178.94 368.67 169.07 339.07"/><polygon class="cls-2" points="140.74 254.07 158.79 308.22 167.12 302.65 186.85 269.44 145.94 251.99 140.74 254.07"/><polygon class="cls-3" points="247.18 254.07 245.31 247.32 230.64 231.48 227.55 244.58 230 251.74 247.18 254.07"/><polygon class="cls-8" points="245.08 39.66 239.05 36.09 221.98 37.81 216.02 43.57 219.71 51.25 247.81 71.36 253.5 72.21 245.08 39.66"/><polygon class="cls-8" points="259.06 162.96 254.45 146.83 255.21 128.18 259.4 109.17 278.27 137.69 259.06 162.96"/><polygon class="cls-4" points="141.77 140.52 154.95 155.62 169.46 164.43 186.19 155.56 183.75 142.27 180.27 132.81 167.89 133.63 141.21 118.7 141.77 140.52"/><polygon class="cls-6" points="178.5 141.96 173.22 146.36 166.47 158.46 218.16 162.28 221.25 142.76 219 136.69 187.67 149.15 178.5 141.96"/><polygon class="cls-9" points="175.82 137.74 187.59 157.35 207.54 144.22 213.52 135.08 216.03 123.21 196.29 130.99 180.27 132.81 175.82 137.74"/><polygon class="cls-7" points="213.41 94.06 216.93 90.99 222.49 92.43 230.41 105.47 229.04 111.91 219 136.69 207.54 144.22 189.96 136.64 189.78 131.73 213.06 109.78 213.41 94.06"/><polygon class="cls-4" points="122.49 131.28 127.71 122.93 141.21 118.7 146.44 137.27 142.52 158.66 122.49 131.28"/><polygon class="cls-8" points="129.08 97.82 122.49 131.28 141.21 118.7 136.33 103.57 129.08 97.82"/><polygon class="cls-4" points="116.95 76.94 141.21 118.7 144.97 112.66 141.21 75.23 135.7 69.1 127.88 66.12 122.36 68.76 116.95 76.94"/><polygon class="cls-4" points="127.86 38.77 130.81 25.05 148.87 25.82 160.12 35.55 157.23 39.25 137.55 42.61 132.44 39.73 127.86 38.77"/><polygon class="cls-4" points="164.43 18.62 160.12 35.55 166.83 38.29 193.57 33.98 198.4 29.29 194.75 16.23 175 10.48 164.43 18.62"/><polygon class="cls-8" points="116.95 76.94 135.7 69.1 140.49 63.72 137.55 42.61 132.44 39.73 130.81 25.05 116.95 76.94"/><polygon class="cls-8" points="130.81 25.05 160.12 35.55 175 10.48 130.81 25.05"/><polygon class="cls-8" points="216.02 43.57 221.98 37.81 215.9 12.68 205.58 0.39 175 10.48 198.4 29.29 198.14 34.7 209.2 44.29 216.02 43.57"/><polygon class="cls-10" points="221.67 62.04 216.02 43.57 264.38 77.89 259.85 84.53 241.94 93.94 221.67 62.04"/><polygon class="cls-4" points="216.93 90.99 229.36 85.79 244.99 87.38 253.82 91.85 260.6 110.98 252.19 114.91 229.04 111.91 216.93 90.99"/><polygon class="cls-8" points="244.99 87.38 264.38 77.89 260.6 110.98 244.99 87.38"/><polygon class="cls-10" points="205.58 0.39 245.08 39.66 216.02 43.57 205.58 0.39"/><polygon class="cls-8" points="213.52 86.03 211.09 50.29 216.02 43.57 244.99 87.38 216.93 90.99 213.52 86.03"/><polygon class="cls-6" points="141.21 118.7 165.2 138.56 189.96 136.64 217.33 112.17 216.02 43.57 200.9 33.37 188.37 30.88 139.74 38.58 135.39 48.72 135.7 69.1 141.21 118.7"/><polygon class="cls-7" points="152.7 80.21 141.76 75.65 149.44 70.73 161.16 72 165.78 76.41 167.88 83.69 163.88 97.21 152.7 80.21"/><polygon class="cls-7" points="170.94 83.73 172.16 75.51 175.71 70.7 187.17 65.02 201.49 68.08 186.5 77.43 176.14 96.37 170.94 83.73"/><polygon class="cls-9" points="171.33 102.86 163.88 97.21 169.48 93.64 176.14 96.37 171.33 102.86"/><polygon class="cls-11" points="165.78 76.41 172.16 75.51 176.14 96.37 163.88 97.21 165.78 76.41"/><polygon class="cls-12" points="172.51 120.11 159.18 112.7 172.44 109.7 194.4 107.77 182.73 118.78 172.51 120.11"/><polygon class="cls-13" points="172.94 116.81 163.76 112.06 189.2 108.5 181.17 115.61 172.94 116.81"/><polygon class="cls-4" points="141.76 75.65 149.63 68.24 161.16 72 149.59 71.87 141.76 75.65"/><polygon class="cls-4" points="175.71 70.7 187.66 62.6 201.49 68.08 187.69 66.24 175.71 70.7"/><polygon class="cls-14" points="159.18 112.7 171.67 108 194.4 107.77 159.18 112.7"/><polygon class="cls-8" points="141.21 118.7 142.52 158.66 157.29 151.84 151.72 140.37 141.21 118.7"/><polygon class="cls-4" points="139.74 38.58 132.44 39.73 135.7 69.1 139.74 38.58"/><polygon class="cls-4" points="188.37 30.88 216.02 43.57 198.4 29.29 188.37 30.88"/><path class="cls-15" d="M153.82,86.23a3.4,3.4,0,1,0-3.58-3.39A3.5,3.5,0,0,0,153.82,86.23Z"/><path class="cls-15" d="M186.67,83.45a3.4,3.4,0,1,0-3.58-3.4A3.51,3.51,0,0,0,186.67,83.45Z"/><polygon class="cls-5" points="234.84 363.64 216.13 351.55 214.88 356.72 223.15 364.75 234.84 363.64"/><polygon class="cls-6" points="158.79 308.22 180.63 339.02 185.81 341.42 198.74 330.21 199.69 323.92 195.68 313.27 191.05 307.85 165.8 304.88 158.79 308.22"/><polygon class="cls-5" points="199.69 323.92 180.63 339.02 204.27 372.32 211.78 365.87 210.45 352.51 199.69 323.92"/><polygon class="cls-2" points="210.45 352.51 216.13 351.55 230.18 377.95 217.13 381.68 209.22 378.99 204.27 372.32 210.45 352.51"/><polygon class="cls-5" points="180.68 272.8 158.79 308.22 195.68 313.27 237.48 273.58 233.83 269.88 186.85 269.44 180.68 272.8"/><polygon class="cls-3" points="140.74 254.07 145.94 251.99 233.83 269.88 237.48 273.58 180.68 272.8 140.74 254.07"/><polygon class="cls-16" points="159.14 222.4 156.1 234.03 154.22 253.53 156.81 257.93 214.14 268.87 217.37 264.32 209.71 224.05 162.63 219.13 159.14 222.4"/><polygon class="cls-5" points="159.14 222.4 156.81 257.93 140.74 254.07 159.14 222.4"/><polygon class="cls-12" points="205.28 226.84 159.14 222.4 157.27 209.59 156.81 170.69 162.36 167.98 165.66 165.56 210.84 169.53 213.41 173.02 216.2 176.98 209.71 224.05 205.28 226.84"/><path class="cls-16" d="M166.2,175.58l-.51,4.87-6.4-.64L161,175l5.16.57Zm-.71,8.9L165,194.9l-5.73-.53,0-10.57,6.29.68Zm19.48-6.8.51,19.14,13.65,1.28.2-18.81-5.2-.59L194.4,193l-4-.37,0-14.38-5.44-.61ZM214.62,181l-1.82,14.65-3.3,3.43-2.22-.21.93-13.45L203.3,185s.15-4,.07-5.3L214.62,181Zm-39.18-4.37-.61,14.57,6.69.46-.22,4.78-11.42-1.07.28-19.33Z"/><polygon class="cls-5" points="237.48 273.58 230 251.74 225.55 245.57 212.82 240.42 208.47 241.98 214.14 268.87 237.48 273.58"/><polygon class="cls-17" points="170.19 156.04 215.83 159.48 218.16 162.28 217.13 170.92 212.65 178.41 161.27 172.85 159.6 164.17 164.59 157.85 170.19 156.04"/><polygon class="cls-2" points="150.73 184.84 150.93 191.4 159.14 222.4 161.47 167.89 156.81 170.69 150.73 184.84"/><polygon class="cls-14" points="178.43 142.09 150.93 191.4 142.52 158.66 178.43 142.09"/><polygon class="cls-2" points="219 136.69 222.54 146.24 238.33 164.87 216.9 187.46 209.5 199.07 205.28 226.84 213.76 231.36 222.02 228.45 248.81 145.53 219 136.69"/><polygon class="cls-14" points="242.63 164.66 209.5 199.07 219 136.69 242.63 164.66"/><polygon class="cls-7" points="230.64 231.48 222.02 228.45 221.09 239.4 230 251.74 237.6 244.31 230.64 231.48"/><polygon class="cls-6" points="208.47 241.98 230 251.74 222.02 228.45 205.28 226.84 208.47 241.98"/><polygon class="cls-2" points="247.18 254.07 222.02 228.45 242.29 202.83 283.05 203.76 247.18 254.07"/><polygon class="cls-12" points="217.6 199.24 214.62 201.68 217.03 204.76 220.09 202.17 217.6 199.24"/><polygon class="cls-12" points="215.33 217.29 212.35 219.73 214.75 222.81 217.82 220.22 215.33 217.29"/><polygon class="cls-5" points="209.22 378.99 211.78 395.19 230.18 377.95 209.22 378.99"/><polygon class="cls-10" points="260.6 110.98 229.04 111.91 248.81 145.53 259.06 162.96 260.6 110.98"/></svg>