<svg id="Layer_1" data-name="Layer 1" xmlns="http://www.w3.org/2000/svg" viewBox="0 0 400 400"><defs><style>.cls-1{fill:#debca4;}.cls-1,.cls-10,.cls-11,.cls-12,.cls-13,.cls-14,.cls-15,.cls-16,.cls-17,.cls-18,.cls-2,.cls-3,.cls-4,.cls-5,.cls-6,.cls-7,.cls-8,.cls-9{fill-rule:evenodd;}.cls-2{fill:#c2977a;}.cls-18,.cls-3{fill:#2b2b2b;}.cls-3{opacity:0.1;}.cls-4{fill:#d0ae95;}.cls-5{fill:#372614;}.cls-6{fill:#9c782c;}.cls-7{fill:#b38b2e;}.cls-8{fill:#e4c723;}.cls-9{fill:#cbad2d;}.cls-10{fill:#836528;}.cls-11{fill:#755924;}.cls-12{fill:#f3d65c;}.cls-13{fill:#473523;}.cls-14{fill:#564637;}.cls-15{fill:#8a6651;}.cls-16{fill:#e8c9b6;}.cls-17{fill:#fff;}</style></defs><title>explorers_ESFP_famous_fictional_angela_montenegro_bones</title><polygon class="cls-1" points="155.5 292.28 144.59 270.96 157.69 281.43 155.5 292.28"/><polygon class="cls-1" points="156.42 260.9 153.43 270.86 144.51 270.96 150.29 238.32 154.15 243.04 156.42 260.9"/><polygon class="cls-2" points="144.56 270.92 154.39 280.78 157.74 279.16 156.07 264.76 152.77 263.99 144.56 270.92"/><polygon class="cls-3" points="110.81 382.76 200.09 366.28 289.19 382.76 199.91 399.24 110.81 382.76"/><polygon class="cls-4" points="169.47 223.74 158.74 234.23 150.29 238.32 159.69 185.2 163.93 190.33 169.47 223.74"/><polygon class="cls-5" points="187.47 169.49 164.06 186.92 159.69 185.2 143.61 169.21 150.98 164.56 179.28 160.32 189.84 163.69 187.47 169.49"/><polygon class="cls-5" points="157.1 130.78 156.6 135.85 155.25 144 179.28 160.32 189.84 163.69 190.71 153.5 179.82 131.25 157.1 130.78"/><polygon class="cls-6" points="172.26 363.17 170.74 370.25 175.62 380.05 180.22 358.9 176.34 358.9 172.26 363.17"/><polygon class="cls-7" points="135.28 378.24 162.56 380.04 180.22 358.9 175.56 345.13 160.62 367.63 149.57 364.14 135.28 378.24"/><polygon class="cls-2" points="160.62 345.32 149.57 364.14 162.56 380.05 175.56 345.13 171.88 341.83 164.5 341.83 160.62 345.32"/><polygon class="cls-7" points="229.45 352.78 223.35 371.82 231.2 389.08 260.52 387.76 250.18 369.51 236.79 376.56 229.45 352.78"/><polygon class="cls-2" points="231.2 349.9 229.45 352.78 231.2 389.08 250.18 369.51 246.14 352.61 243.03 349.9 231.2 349.9"/><polygon class="cls-1" points="157.08 308.62 160.62 345.32 175.56 345.13 183.3 319.31 180.34 313.7 163.93 305.7 157.08 308.62"/><polygon class="cls-1" points="211.82 319.52 209.5 324.69 229.45 352.78 246.14 352.61 238.61 321.14 232.16 317.08 211.82 319.52"/><polygon class="cls-4" points="183.3 319.31 157.08 308.62 162.32 307.32 181.68 309.34 185.21 312.94 183.3 319.31"/><polygon class="cls-4" points="209.9 311.39 203.11 315.69 209.5 324.69 238.61 321.14 233.49 316.14 209.9 311.39"/><polygon class="cls-8" points="220 259.72 225.21 265.11 238.61 321.14 210.11 316.77 206.71 313.39 203.11 315.69 163.36 309.59 160.58 306.43 157.08 308.62 150.29 238.32 158.65 238.51 220 259.72"/><polygon class="cls-9" points="158.84 229.69 150.29 238.32 225.21 265.11 222.17 252.43 200.67 239.29 196.38 238.12 165.66 227.88 158.84 229.69"/><polygon class="cls-10" points="157.08 308.62 163.36 309.59 165.66 227.88 158.84 229.69 157.08 308.62"/><polygon class="cls-10" points="203.11 315.69 202.82 257.11 205.98 254.01 209.2 255.56 210.11 316.77 203.11 315.69"/><polygon class="cls-8" points="159.69 185.2 175.08 181.82 235.01 185.08 242.81 188.34 215.43 227.4 206 239.37 163.91 225.47 165.93 222.54 159.69 185.2"/><path class="cls-11" d="M165.93,222.54l10.95,3.71,1.67,5.93-4.23,2.87h0l-15.48-5.36,7.09-7.15Zm26.48,8.92,13.31,4.44-.7,4.75-7.5,2.43-7.79-2.7h0l-1.71-5Z"/><polygon class="cls-10" points="180.56 225.89 176.77 237.91 189.73 240.38 192.41 231.46 180.56 225.89"/><polygon class="cls-12" points="178.03 222.31 173.18 238.96 188.57 244.24 189.73 240.38 178.82 236.6 181.33 227.74 192.41 231.46 193.63 227.37 178.03 222.31"/><polygon class="cls-9" points="242.81 188.34 237.03 188.67 205.72 235.9 212.34 235.51 215.43 227.4 245.49 200.74 245.62 193.31 242.81 188.34"/><polygon class="cls-12" points="189.84 163.69 159.69 185.2 237.03 188.67 234.32 175.12 228.06 162.6 220.84 159.99 212.82 156.73 200.31 158.97 189.84 163.69"/><polygon class="cls-5" points="258.83 155.45 251.9 152.47 229.88 155.35 220.84 159.99 237.03 188.67 244.61 183.47 256.63 163.77 258.83 155.45"/><polygon class="cls-2" points="258.83 155.45 237.04 188.67 249.47 210.7 255.85 211.51 267.41 201.18 268.81 192.78 258.83 155.45"/><polygon class="cls-13" points="252.32 131.06 244.56 131.03 230.44 145.15 220.84 159.99 258.83 155.45 252.32 131.06"/><polygon class="cls-1" points="268.81 192.78 229.9 228.84 228.21 232 233.06 243.39 236.26 242.5 276.23 220.52 268.81 192.78"/><polygon class="cls-1" points="215.43 227.4 197.52 243.08 202.82 257.11 222.17 252.43 225.05 245.71 220.41 231.37 215.43 227.4"/><polygon class="cls-2" points="229.9 228.84 215.43 227.4 222.17 252.43 236.26 242.5 229.9 228.84"/><polygon class="cls-14" points="272.3 112.7 220.84 159.99 218.75 153.27 238.92 90.69 263.02 103.44 272.3 112.7"/><polygon class="cls-14" points="156.6 135.85 152.7 127.31 144.47 93.35 139.59 81.82 124.81 114.94 156.6 135.85"/><polygon class="cls-15" points="179.82 131.25 175.97 136.74 189.84 163.69 201.98 158.05 224.83 134.4 224.38 127.09 204.62 131.48 179.82 131.25"/><polygon class="cls-2" points="199.16 131.43 201.25 137.9 215.29 138.2 189.84 163.69 220.84 159.99 238.31 106.98 235.1 88.95 226.17 84.89 220.15 86.52 213.66 88.83 199.16 131.43"/><polygon class="cls-15" points="238.31 106.98 227.79 99.96 234.52 96.02 241.47 97.41 238.31 106.98"/><polygon class="cls-1" points="235.1 88.95 229.2 91.06 227.79 99.96 241.47 97.41 235.1 88.95"/><polygon class="cls-13" points="143.61 169.21 156.6 135.85 189.84 163.69 143.61 169.21"/><polygon class="cls-13" points="217.84 88.39 272.3 112.7 258.62 86.05 242.13 63.03 223.62 76.55 217.84 88.39"/><polygon class="cls-5" points="247.5 24.86 272.3 112.7 241.24 69.36 237.53 59.86 241.47 33.2 247.5 24.86"/><polygon class="cls-14" points="218.52 43.87 213.42 49.66 214.58 78.86 217.84 88.39 241.24 69.36 247.5 24.86 239.15 23.24 219.45 35.99 218.52 43.87"/><polygon class="cls-13" points="192.8 29.73 193.49 37.61 210.64 46.65 220.09 44.73 247.5 24.86 207.86 0.76 198.82 7.01 191.17 21.62 192.8 29.73"/><polygon class="cls-14" points="150.84 15.59 148.53 22.54 153.62 33.2 159.42 37.38 163.36 41.78 188.85 37.15 192.8 29.73 207.86 0.76 150.84 15.59"/><polygon class="cls-1" points="201.25 137.9 217.04 106.21 220.09 44.73 192.8 29.73 157.42 41.87 148.19 47.41 139.14 70.87 139.59 81.82 140.1 105.08 156.6 135.85 201.25 137.9"/><polygon class="cls-2" points="146.83 65.6 150.34 64.51 165.75 67.11 168.57 74.34 169.54 83.68 162.98 96.32 155.42 74.34 146.83 65.6"/><polygon class="cls-5" points="148.7 61.39 145.63 62.76 146.83 65.6 165.75 67.11 148.7 61.39"/><polygon class="cls-2" points="159.42 37.38 154.67 40.16 154.37 48.69 192.8 29.73 159.42 37.38"/><polygon class="cls-13" points="128.16 50.75 150.84 15.59 159.42 37.38 139.59 81.82 128.16 50.75"/><polygon class="cls-2" points="175.51 73.97 179.23 66 197.47 62.09 206.17 65.74 189.33 73.69 178.28 95.76 173.9 83.68 175.51 73.97"/><polygon class="cls-5" points="179.23 66 198.12 59.45 206.17 65.74 197.14 64.16 179.23 66"/><polygon class="cls-15" points="172.2 103.52 162.98 96.32 171.32 93.8 178.28 95.76 172.2 103.52"/><polygon class="cls-16" points="168.57 74.34 175.51 73.97 178.28 95.76 162.98 96.32 168.57 74.34"/><polygon class="cls-10" points="157.94 108.75 172.54 105.08 193.71 108.73 173.5 110.92 157.94 108.75"/><polygon class="cls-7" points="170.67 114.14 157.94 108.75 167.63 119.91 182.42 120.08 193.71 108.73 179.62 113.82 170.67 114.14"/><polygon class="cls-17" points="193.71 108.73 180.54 115.7 168.9 115.77 157.94 108.75 193.71 108.73"/><polygon class="cls-2" points="161.1 98.77 152.09 106.21 154.59 99.91 161.1 98.77"/><polygon class="cls-2" points="183.89 98.14 197.67 106.31 195.59 100.81 183.89 98.14"/><path class="cls-18" d="M156,71.68a3.61,3.61,0,0,1,3.49,3.76,3.68,3.68,0,0,1-3.8,3.51,3.6,3.6,0,0,1-3.48-3.76A3.67,3.67,0,0,1,156,71.68Z"/><path class="cls-18" d="M188.14,72.39a3.61,3.61,0,0,1,3.48,3.77,3.67,3.67,0,0,1-3.79,3.51,3.63,3.63,0,0,1-3.49-3.77A3.68,3.68,0,0,1,188.14,72.39Z"/><polygon class="cls-3" points="234.1 210.84 237.03 188.67 244.4 201.71 234.1 210.84"/></svg>