<svg id="Layer_1" data-name="Layer 1" xmlns="http://www.w3.org/2000/svg" viewBox="0 0 400 400"><defs><style>.cls-1,.cls-9{fill:#2b2b2b;}.cls-1{opacity:0.1;}.cls-2{fill:#f0bc67;}.cls-3{fill:#ab913c;}.cls-4{fill:#d0ae95;}.cls-5{fill:#836528;}.cls-6{fill:#755924;}.cls-7{fill:#9c782c;}.cls-8{fill:#ba8e2d;}.cls-10{fill:#e1a940;}.cls-11{fill:#bc8f2d;}.cls-12{fill:#a8836c;}.cls-13{fill:#eed2c1;}.cls-14{fill:#8c7c2f;}.cls-15{fill:#f6e5db;}.cls-16{fill:#cbad2d;}</style></defs><title>explorers_ESFP_famous_fictional_captain_marvel</title><polygon class="cls-1" points="88.25 379.32 198.42 359.35 299.05 392.01 196.24 400 88.25 379.32"/><polygon class="cls-2" points="105.16 271.23 117.08 284.05 125.75 280.26 136.92 284.05 147.83 274.75 147.83 261.35 143.96 248.29 151.04 237.94 148.66 223.61 151.04 209.4 139.6 185.36 119.22 175.54 110.35 201.81 111.89 209.4 105.16 225.16 110.35 246.86 105.16 271.23"/><polygon class="cls-2" points="264.08 282.6 254.29 263.57 259.98 254.53 252.81 246.18 251.49 226.82 243.81 212.87 249.29 214.71 254.24 198.48 284.68 183.38 288.89 207.07 292.62 223.71 292.62 245.41 296.55 246.84 292.62 259.9 300.48 267.1 295.12 279.76 280.81 286.18 264.08 282.6"/><polygon class="cls-3" points="255.96 94.99 285.96 122.32 264.81 153.3 206.16 149.59 232.48 89.62 255.96 94.99"/><polygon class="cls-3" points="158.33 94.99 120.63 111.2 159.72 174.05 202.39 141.8 168.74 102.14 158.33 94.99"/><polygon class="cls-4" points="225.57 139.72 225.57 150.37 191.18 153.78 178.37 147.98 175.35 135.37 194.72 36.2 212.72 47.47 226.85 44.33 225.57 74.99 243.15 91.25 225.57 139.72"/><polygon class="cls-5" points="154.06 194.99 242.79 200.46 249.24 173.11 237.38 147.98 163.72 147.98 152.6 173.24 150.83 177.59 154.06 194.99"/><polygon class="cls-5" points="159.72 252.54 164.2 234.94 235.06 234.94 242.38 252.54 159.72 252.54"/><polygon class="cls-6" points="159.72 252.54 198.46 281.1 242.38 252.54 159.72 252.54"/><polygon class="cls-5" points="159.72 252.54 144.49 302.89 185.72 305.38 198.46 281.1 159.72 252.54"/><polygon class="cls-6" points="154.06 194.99 164.2 234.94 235.06 234.94 242.79 200.46 154.06 194.99"/><polygon class="cls-5" points="198.46 281.1 242.38 252.54 257.24 309.54 215.79 309.54 198.46 281.1"/><polygon class="cls-7" points="194.07 191.44 224.27 184.84 221.87 159.01 232.48 190.04 192.95 197.73 194.07 191.44"/><polygon class="cls-7" points="183.93 196.76 154.06 184.36 169.36 159.42 160.66 182.26 186.1 190.8 183.93 196.76"/><polygon class="cls-8" points="237.63 204 199.46 216.49 199.46 252.54 202 252.54 203.56 219.39 237.63 207.55 237.63 204"/><polygon class="cls-8" points="157.75 207.71 187.13 216.73 188.1 252.54 184.72 252.54 180.75 219.63 159.13 212.46 157.75 207.71"/><polygon class="cls-8" points="207.19 155.77 220.04 151.85 226.85 182.59 195.52 188.54 207.19 155.77"/><polygon class="cls-8" points="183.18 186.24 188.46 155.55 175.35 148.82 160.66 177.59 183.18 186.24"/><polygon class="cls-7" points="228.94 173.75 225.72 165.11 237.38 147.98 264.81 153.3 240.38 174.56 228.94 173.75"/><polygon class="cls-5" points="240.38 174.56 264.81 190.99 264 184.54 274.15 182.24 264.81 153.3 240.38 174.56"/><polygon class="cls-9" points="219.59 334.75 237.01 328.46 261.71 333.06 245.16 342.24 219.59 334.75"/><polygon class="cls-9" points="139.34 320.15 164.22 309 185.16 321.26 139.34 320.15"/><polygon class="cls-7" points="164.85 161.27 163.72 147.98 135.54 151.85 152.6 173.24 159.72 174.05 164.85 161.27"/><polygon class="cls-5" points="152.6 173.24 135.54 151.85 126.98 181 142.78 183.42 154.06 177.59 152.6 173.24"/><polygon class="cls-10" points="186.1 186.53 189.97 179.28 192.87 186.53 197.46 185.56 195.77 190.04 201.56 193.54 196.01 195.71 196.01 200.3 192.63 200.3 189.48 207.07 184.17 199.09 179.82 200.06 181.75 195.95 175.35 193.18 182.24 191.36 181.27 186.05 186.1 186.53"/><polygon class="cls-2" points="189.97 179.28 189.48 207.07 192.63 200.3 196.01 200.3 196.01 195.71 201.56 193.54 195.77 190.04 197.46 185.56 192.87 186.53 189.97 179.28"/><polygon class="cls-6" points="144.49 302.89 145.15 359.15 169.52 355.56 185.72 305.38 144.49 302.89"/><polygon class="cls-6" points="215.79 309.54 257.24 309.54 258.4 368.57 232.38 367.61 215.79 309.54"/><polygon class="cls-11" points="139.34 320.15 145.15 359.15 154.06 355.56 158.11 359.35 169.52 355.56 185.16 321.26 139.34 320.15"/><polygon class="cls-11" points="219.59 334.75 245.16 342.24 261.71 333.06 258.4 368.57 263.96 374.61 247.24 372.68 232.38 377.03 232.38 367.61 219.59 334.75"/><polygon class="cls-7" points="145.15 359.15 119.63 374.96 141.92 374.34 155.3 369.48 162.44 372.45 174.48 369.75 170.48 359.35 169.4 355.56 158.11 359.35 154.06 355.56 145.15 359.15"/><polygon class="cls-7" points="232.38 377.03 230.84 383.31 247.24 385.97 252.89 383.31 268.1 383.97 263.96 374.61 247.24 372.68 232.38 377.03"/><polygon class="cls-9" points="119.63 374.96 116.12 376.58 116.12 382.11 140.71 383.87 151.25 379.41 153.95 380.63 174.48 380.63 174.48 369.75 162.44 372.45 155.3 369.48 141.92 374.34 119.63 374.96"/><polygon class="cls-12" points="176.03 138.23 178.37 147.98 202.29 147.98 225.85 115.63 175.35 131.23 176.03 138.23"/><polygon class="cls-9" points="230.84 383.31 234.77 392.01 267.1 392.01 268.1 383.97 252.89 383.31 247.24 385.97 230.84 383.31"/><g id="belt"><polygon class="cls-11" points="156.35 247.49 245.89 244.54 250.22 256.29 153.72 259.32 156.35 247.49"/><polygon class="cls-10" points="229.88 240.61 228 257.11 239.67 268.95 251.73 268.95 250.22 256.29 245.89 244.54 243.34 239.51 229.88 240.61"/><polygon class="cls-10" points="156.92 242.26 162.19 242.26 164.83 247.16 163.97 259.32 156.92 272.52 151.83 272.52 153.72 259.32 156.35 247.49 156.92 242.26"/></g><polygon class="cls-6" points="173.71 147.98 173.57 140.23 193.06 140.23 193.67 155.48 188.46 155.55 173.71 147.98"/><polygon class="cls-6" points="202.21 155.57 202.39 139.8 225.57 139.72 225.57 150.37 207.19 155.77 202.21 155.57"/><polygon class="cls-13" points="173.57 138.23 197.46 136.23 225.85 115.63 218.72 52.47 205.03 30.08 179.42 24.44 151.19 40.39 137.09 45.78 144.63 79.2 157.19 124.14 173.57 138.23"/><g id="face"><polygon class="cls-14" points="179.37 64.61 181.76 69.12 203.53 61.63 211.18 63.24 211.83 61.23 202 58.49 179.37 64.61"/><polygon class="cls-14" points="167.21 71.7 166.89 67.32 148.93 66.69 144.42 72.3 145.63 73.79 150.94 70.81 167.21 71.7"/><polygon class="cls-15" points="168.74 102.14 189.46 99.36 181.3 88.61 180.09 77.09 171.28 78.65 172.24 89.94 168.74 102.14"/><polygon class="cls-12" points="168.74 102.14 178.33 106.61 189.46 99.36 168.74 102.14"/><polygon class="cls-4" points="189.46 99.36 194.67 74.6 211.18 63.24 203.53 61.63 181.76 69.12 180.09 77.09 181.3 88.61 189.46 99.36"/><polygon class="cls-4" points="168.74 102.14 172.24 89.94 171.28 78.65 167.21 71.7 150.94 70.81 162.09 77.09 168.74 102.14"/><polygon class="cls-12" points="167.89 118.69 175.56 112.29 179.85 114.1 182.39 111.2 196.24 116.03 183.48 115.79 179.37 118.21 175.56 117.12 167.89 118.69"/><polygon class="cls-4" points="167.89 118.69 174.57 122.32 185.17 121.59 196.24 116.03 183.48 115.79 175.56 117.12 167.89 118.69"/><circle class="cls-9" cx="160.97" cy="77.09" r="3.99"/><circle class="cls-9" cx="195.11" cy="73.11" r="3.99"/></g><polygon class="cls-3" points="195.52 28.2 203.74 0 242.88 54.72 240.38 103.28 279.99 116.88 274.15 133.41 228.85 112.95 223.55 55.93 195.52 28.2"/><polygon class="cls-16" points="195.52 28.2 177.17 44.04 144.42 72.3 150.83 101.11 130.77 118.26 150.2 153.3 100.81 102.56 129.32 76.47 135.4 24.2 203.74 0 195.52 28.2"/><polygon class="cls-16" points="203.74 0 228 3.37 259.81 38.94 264.3 84.68 299.05 108.2 278.8 115.79 240.38 103.28 242.88 54.72 203.74 0"/><polygon class="cls-3" points="203.74 0 170.95 2 125.97 23.32 120.79 73.11 90.87 106.61 144.63 167.63 150.2 153.3 103.81 102.56 132.32 76.47 138.4 24.2 203.74 0"/><polygon class="cls-16" points="228.85 112.95 232.48 128.01 274.15 133.41 235.15 115.79 223.55 55.93 228.85 112.95"/><polygon class="cls-16" points="232.48 127.98 264.81 153.3 250.13 127.98 232.48 127.98"/><polygon class="cls-6" points="126.98 181 120.63 222.64 142.13 229.94 154.06 194.99 150.83 177.59 126.98 181"/><polygon class="cls-6" points="245.26 189.98 244.87 172.14 274.15 182.24 285.96 221.67 259.96 228.06 245.26 189.98"/><polygon class="cls-7" points="118.78 205.57 115.27 247.39 136.96 249.9 147.16 215.21 118.78 205.57"/><polygon class="cls-7" points="253.71 211.86 286.27 203.86 288.89 251.3 267.2 253.82 253.71 211.86"/><polygon class="cls-5" points="115.27 247.39 112.24 271.36 132.02 274.07 133.45 261.54 127.71 261.06 124.2 255.64 127.39 250.7 136.96 249.9 115.27 247.39"/><polygon class="cls-7" points="133.45 261.54 127.71 261.06 124.2 255.64 127.39 250.7 136.96 249.9 144.93 259.41 139.03 263.61 133.45 261.54"/><polygon class="cls-4" points="139.03 263.61 142.16 266 146.05 263.61 144.93 259.41 139.03 263.61"/><polygon class="cls-12" points="132.02 274.07 140.95 274.07 142.16 266 139.03 263.61 133.45 261.54 132.02 274.07"/><polygon class="cls-5" points="288.89 251.3 291.92 275.27 272.15 277.98 270.71 265.46 276.45 264.98 279.96 259.56 276.77 254.61 267.2 253.82 288.89 251.3"/><polygon class="cls-7" points="270.71 265.46 276.45 264.98 279.96 259.56 276.77 254.61 267.2 253.82 259.23 263.32 265.13 267.53 270.71 265.46"/><polygon class="cls-4" points="265.13 267.53 262 269.92 258.12 267.53 259.23 263.32 265.13 267.53"/><polygon class="cls-12" points="272.15 277.98 263.22 277.98 262 269.92 265.13 267.53 270.71 265.46 272.15 277.98"/></svg>