<svg id="Layer_1" data-name="Layer 1" xmlns="http://www.w3.org/2000/svg" viewBox="0 0 400 400"><defs><style>.cls-1{fill:#fce3d4;}.cls-2{fill:#846400;}.cls-3{fill:#b48a00;}.cls-4{fill:#9d7700;}.cls-5{fill:#f4c9b2;}.cls-6{fill:#f3d65d;}.cls-7{fill:#cbac14;}.cls-8{fill:#c1907d;}.cls-9{fill:#66483a;}.cls-10{fill:#82624d;}.cls-11{fill:#98796a;}.cls-12,.cls-13,.cls-22{fill:#2b2b2b;}.cls-13{fill-opacity:0.15;}.cls-14{fill:#4f5253;}.cls-15{fill:#6f7173;}.cls-16{fill:#755800;}.cls-17{fill:#ab913c;}.cls-18{fill:#e4c728;}.cls-19{fill:#a2a2a2;}.cls-20{fill:#f1bc68;}.cls-21{fill:#e1a842;}.cls-22{fill-opacity:0.1;}.cls-23{fill:#ffefe7;}.cls-24{fill:#cdcdcc;}</style></defs><title>explorers_ESFP_famous_fictional_jack_dawson_titanic</title><g id="Layer_1-2" data-name="Layer_1"><polygon class="cls-1" points="140.16 264.06 142.33 268.04 140.89 274.54 137.27 278.52 134.02 279.24 131.49 277.07 140.16 264.06"/><polygon class="cls-2" points="128.59 353 124.62 351.19 123.17 349.38 122.09 350.11 119.56 349.02 99.67 285.75 108.71 285.75 129.32 348.66 128.59 353"/><polygon class="cls-3" points="168.73 331.67 166.92 335.64 128.59 353 107.63 289.37 108.71 285.75 165.83 270.93 168.36 274.9 168.73 331.67"/><polygon class="cls-4" points="99.67 285.75 107.63 289.37 143.78 279.97 165.83 274.18 168.36 270.93 165.83 268.04 152.82 271.29 99.67 285.75"/><polygon class="cls-5" points="136.55 281.77 146.31 287.92 149.2 283.94 143.78 279.97 152.82 271.29 151.01 266.59 144.14 262.61 140.16 264.06 136.55 281.77"/><polygon class="cls-6" points="168.73 226.46 160.05 218.87 154.99 219.59 143.06 255.02 144.14 258.63 153.54 265.5 157.52 264.42 166.19 251.4 169.09 243.45 168.73 226.46"/><polygon class="cls-7" points="154.99 219.59 170.17 231.88 171.98 180.54 171.98 169.33 154.99 219.59"/><polygon class="cls-7" points="143.06 255.02 157.52 264.42 152.82 271.29 140.16 264.06 143.06 255.02"/><polygon class="cls-8" points="187.14 147.23 196.56 160.66 202.76 167.93 214.48 174.18 238.69 164.02 244.16 140.2 191.83 142.54 187.14 147.23"/><polygon class="cls-5" points="232.83 146.68 226 168.9 241.82 155.43 259.78 121.84 257.44 100.76 236.74 75.37 229.32 75.37 216.11 145.68 232.83 146.68"/><polygon class="cls-9" points="229.97 77.42 250.8 101.54 260.17 91.77 266.81 92.56 275.01 87.09 284.38 65.22 276.57 59.36 240.64 55.84 234.79 67.95 229.71 70.69 229.32 75.37 229.97 77.42"/><polygon class="cls-8" points="249.24 108.57 259.78 121.84 264.47 112.86 259.39 107 249.24 108.57"/><polygon class="cls-1" points="254.31 84.74 249.24 108.57 264.47 112.86 275.01 87.09 254.31 84.74"/><polygon class="cls-8" points="260.17 91.77 266.81 92.56 257.44 100.76 260.17 91.77"/><polygon class="cls-10" points="226.58 36.32 222.68 45.3 235.96 53.5 262.12 61.31 284.38 65.22 254.7 14.06 239.47 19.14 226.58 36.32"/><polygon class="cls-11" points="284.38 65.22 222.68 45.3 224.63 50.38 229.32 65.22 229.32 69.61 284.38 65.22"/><polygon class="cls-11" points="224.63 16.79 232.83 14.06 254.7 14.06 222.68 45.3 224.63 50.38 200.81 53.5 197.3 49.21 203.54 37.88 224.63 16.79"/><polygon class="cls-10" points="212.53 0 232.83 14.06 197.3 49.21 194.95 39.83 203.54 6.64 212.53 0"/><polygon class="cls-11" points="160.19 14.84 164.1 24.99 187.14 46.08 197.3 49.21 212.53 0 160.19 14.84"/><polygon class="cls-10" points="155.9 28.9 160.19 14.84 197.3 49.21 193.78 53.11 165.27 53.11 161.37 48.82 156.68 43.74 155.9 28.9"/><polygon class="cls-11" points="133.64 56.24 139.5 58.58 157.46 53.89 161.37 48.82 160.19 14.84 133.64 56.24"/><polygon class="cls-10" points="151.62 84.29 133.64 56.24 161.37 48.82 163.71 55.84 155.9 82.4 151.62 84.29"/><polygon class="cls-1" points="175.04 147.44 216.11 145.68 230.53 124.93 232.83 61.44 222.68 45.3 197.3 49.21 171.13 48.82 164.49 51.94 151.62 84.29 155.9 129.7 175.04 147.44"/><polygon class="cls-5" points="166.44 83.18 159.81 87.87 172.69 92.94 181.28 112.08 184.41 99.97 183.63 91.77 178.94 87.87 166.44 83.18"/><polygon class="cls-5" points="194.95 87.48 189.88 91.38 187.92 99.58 192.22 111.69 204.72 92.94 216.82 85.53 207.84 82.01 194.95 87.48"/><path class="cls-12" d="M204.72,89.82c1.56-.39,3.12,1.17,3.12,2.74a3,3,0,0,1-3.12,3.51,3.37,3.37,0,0,1-3.13-3.13C201.2,91.38,202.76,89.82,204.72,89.82Z"/><polygon class="cls-9" points="159.81 87.87 166.05 85.14 178.94 87.87 178.94 84.35 165.66 82.01 159.81 87.87"/><polygon class="cls-9" points="194.95 83.57 194.95 87.48 209.4 83.96 216.82 85.53 209.4 80.06 194.95 83.57"/><path class="cls-12" d="M171.52,90.6c1.95,0,3.52,1.17,3.52,3.13a3.36,3.36,0,0,1-3.13,3.12c-1.95,0-3.51-1.17-3.51-3.12A3.08,3.08,0,0,1,171.52,90.6Z"/><polygon class="cls-8" points="187.14 116.77 181.28 112.08 186.75 109.74 192.22 111.69 187.14 116.77"/><polygon class="cls-8" points="179.72 123.8 178.16 125.75 181.28 127.7 200.03 126.92 203.93 123.8 202.37 122.23 199.25 124.58 182.07 125.36 179.72 123.8"/><polygon class="cls-13" points="209.58 400 130.04 385.54 147.76 382.64 210.66 374.33 266.34 381.2 292.37 384.45 209.58 400"/><polygon class="cls-7" points="254.05 209.82 258.75 176.2 264.17 167.53 300.33 221.03 294.18 224.29 258.03 215.25 254.05 209.82"/><polygon class="cls-14" points="144.86 382.64 189.7 381.92 189.7 374.69 185.36 372.52 154.26 373.24 144.86 375.41 144.86 382.64"/><polygon class="cls-14" points="233.8 389.88 267.43 389.15 267.07 381.2 263.81 378.67 240.67 379.39 233.8 381.56 233.8 389.88"/><polygon class="cls-15" points="167.28 359.51 144.86 375.41 189.7 374.69 188.97 359.51 185.72 357.34 173.79 357.34 167.28 359.51"/><polygon class="cls-15" points="238.87 366.38 233.8 381.56 267.07 381.2 258.03 365.65 254.05 363.12 241.76 363.48 238.87 366.38"/><polygon class="cls-2" points="166.19 293.34 166.56 324.08 173.06 329.5 195.12 330.94 203.07 326.96 208.86 312.87 207.77 306.36 178.49 270.56 166.19 293.34"/><polygon class="cls-2" points="244.29 269.84 211.75 304.55 208.86 312.87 217.17 327.69 224.76 331.67 250.8 331.67 259.11 328.77 260.2 293.34 244.29 269.84"/><polygon class="cls-16" points="178.13 279.24 208.86 312.87 241.76 279.97 248.63 256.83 174.87 258.27 178.13 279.24"/><polygon class="cls-16" points="166.56 324.08 203.07 326.96 188.97 359.51 167.28 359.51 166.56 324.08"/><polygon class="cls-16" points="217.17 327.69 259.11 328.77 258.03 365.65 238.87 366.38 217.17 327.69"/><polygon class="cls-17" points="166.19 293.34 178.13 279.24 178.49 261.89 171.98 257.55 165.83 262.25 166.19 293.34"/><polygon class="cls-17" points="261.28 260.8 252.24 258.27 241.76 261.89 241.76 279.97 260.2 293.34 261.28 260.8"/><polygon class="cls-2" points="165.47 249.96 169.45 247.43 256.94 244.9 261.64 248.15 260.92 267.31 165.83 268.04 165.47 249.96"/><polygon class="cls-18" points="165.47 249.96 201.63 249.24 203.79 243.81 205.24 218.5 195.48 208.02 173.06 200.43 169.09 203.68 165.47 249.96"/><polygon class="cls-6" points="187.53 163.91 182.47 168.61 178.85 167.16 171.98 169.33 169.09 203.68 175.6 206.21 180.66 205.13 183.55 208.74 198.37 213.8 201.99 211.63 206.33 209.1 212.11 175.84 194.76 165.35 187.53 163.91"/><polygon class="cls-6" points="201.63 249.24 201.63 215.97 205.6 214.16 209.22 209.47 220.06 208.38 224.4 212.72 243.93 214.89 253.69 221.4 262 234.41 261.64 248.15 201.63 249.24"/><polygon class="cls-18" points="213.56 170.06 208.13 174.75 201.99 211.63 205.6 214.16 224.4 212.72 248.27 164.63 247.9 158.85 241.76 158.13 213.56 170.06"/><polygon class="cls-18" points="264.17 167.53 256.22 163.19 248.99 168.61 233.08 201.15 245.01 212.72 262.73 211.63 264.17 167.53"/><polygon class="cls-5" points="233.08 201.15 239.59 196.09 246.82 207.66 238.87 208.02 233.08 201.15"/><polygon class="cls-19" points="172.7 242.37 177.04 249.96 181.74 242 177.4 239.83 172.7 242.37"/><polygon class="cls-4" points="174.51 205.85 172.7 242.37 181.74 242 183.55 208.74 179.57 204.4 174.51 205.85"/><polygon class="cls-3" points="178.85 167.16 174.51 205.85 183.55 208.74 187.53 163.91 178.85 167.16"/><polygon class="cls-19" points="236.7 239.47 234.89 248.51 227.3 242 230.55 237.66 236.7 239.47"/><polygon class="cls-4" points="227.3 242 236.7 239.47 231.27 222.12 229.1 217.78 221.15 222.84 227.3 242"/><polygon class="cls-3" points="247.9 158.85 256.22 163.19 236.34 202.59 232.36 207.29 228.38 198.98 247.9 158.85"/><polygon class="cls-4" points="196.2 244.17 201.63 239.11 207.05 244.17 201.63 249.24 196.2 244.17"/><polygon class="cls-20" points="206.69 172.59 199.82 172.59 187.53 163.91 196.56 160.66 210.66 168.25 206.69 172.59"/><polygon class="cls-21" points="247.9 158.85 244.16 149.89 199.82 172.59 207.41 177.65 247.9 158.85"/><polygon class="cls-6" points="285.87 249.59 300.33 221.03 255.86 210.19 250.44 213.08 247.54 221.4 249.35 226.46 285.87 249.59"/><polygon class="cls-5" points="220.43 200.79 217.53 213.08 221.15 222.84 225.13 218.14 229.1 203.32 228.38 198.98 220.43 200.79"/><polygon class="cls-1" points="246.82 207.66 228.38 198.98 221.15 222.84 241.76 221.76 244.65 218.14 247.54 211.27 246.82 207.66"/><polygon class="cls-7" points="246.82 207.66 241.76 221.76 249.35 226.46 255.86 210.19 246.82 207.66"/><path class="cls-22" d="M261.64,248.15l-19.88-26.39L262,234.41Zm-150.76,51,55-17.35L153.9,341.43l13-5.79-1.09-61.46L143.78,280l5.42,4-2.89,4-9.76-6.14-28.93,7.59Z"/><polygon class="cls-8" points="171.13 48.82 151.62 84.29 161.37 48.82 171.13 48.82"/><polygon class="cls-4" points="196.93 213.08 202.35 208.74 207.05 214.16 201.26 218.5 196.93 213.08"/><polygon class="cls-4" points="201.99 181.99 207.41 177.65 211.75 183.43 205.96 187.77 201.99 181.99"/><polygon class="cls-23" points="183.63 91.77 189.88 91.38 192.22 111.69 181.28 112.08 183.63 91.77"/><polygon class="cls-24" points="103.29 290.81 122.09 350.11 124.62 351.19 105.82 291.9 103.29 290.81"/></g></svg>