<svg id="illustration_layer_copy_4" data-name="illustration_layer copy 4" xmlns="http://www.w3.org/2000/svg" viewBox="0 0 400 400"><defs><style>.cls-1{fill:#737373;}.cls-13,.cls-2{fill:#2b2b2b;}.cls-2{opacity:0.1;}.cls-3{fill:#4f5253;}.cls-4{fill:#cbac14;}.cls-5{fill:#755800;}.cls-6{fill:#be8e00;}.cls-7{fill:#755445;}.cls-8{fill:#51362a;}.cls-9{fill:#846400;}.cls-10{fill:#9d7700;}.cls-11{fill:#916d5a;}.cls-12{fill:#98796a;}.cls-14{fill:#e4c728;}.cls-15{fill:#f3d65d;}.cls-16{fill:#bb8e2d;}.cls-17{fill:#8e8e8e;}.cls-18{fill:#c3c3c3;}.cls-19{fill:#474747;}.cls-20{fill:#6f7173;}</style></defs><title>explorers_ESTP_famous_real_samuel_l_jackson</title><polygon class="cls-1" points="299.96 164.81 295.19 186.81 287.39 162.26 299.96 164.81"/><polygon class="cls-2" points="120.2 385.92 209.2 373.35 306.33 388.94 211.01 400 120.2 385.92"/><polygon class="cls-3" points="251.33 157.89 270.8 146.83 276.16 155.82 270.8 163.34 251.33 157.89"/><polygon class="cls-3" points="128 245.72 170.8 261.22 161.26 234.73 141.57 232.56 128 245.72"/><polygon class="cls-3" points="88.78 174.23 66.64 171.09 68.66 163.34 83.53 106.92 101.68 110.71 96.65 135.85 88.78 174.23"/><polygon class="cls-4" points="164.05 162.67 139.34 200.28 134.7 205.58 161.26 234.73 176.14 197.6 164.05 162.67"/><polygon class="cls-3" points="121.21 159.9 131.81 162.26 136.67 169.65 125.65 178.76 121.46 174.74 121.21 159.9"/><polygon class="cls-5" points="107.88 113.9 110.27 118.42 109.14 125.46 112.5 119.43 119.64 121.02 113.16 117.04 109.14 111.44 107.88 113.9"/><polygon class="cls-6" points="117.43 138.15 124.98 124.79 133.06 122.94 131.01 134.76 117.43 138.15"/><polygon class="cls-7" points="104.86 187.81 88.78 174.23 93.8 163.34 103.86 154.37 111.15 162.67 104.86 187.81"/><polygon class="cls-8" points="88.78 174.23 84.75 155.38 102.85 155.38 88.78 174.23"/><polygon class="cls-9" points="159.42 282.34 166.14 322.18 183.87 347.18 204.68 338.28 212.02 309.16 191.9 271.92 159.42 282.34"/><polygon class="cls-10" points="203.8 293.94 244.65 263.57 258.23 294.08 259.12 340.41 243.65 348.71 221.57 336.98 203.8 293.94"/><polygon class="cls-5" points="203.8 293.94 186.94 285.64 188.28 260.55 197.78 245.72 218.63 284.96 203.8 293.94"/><polygon class="cls-6" points="191.6 153.61 171.62 189.82 198.73 236.42 240.29 195.86 241.38 150.34 191.6 153.61"/><polygon class="cls-5" points="286.08 107.85 255.37 114.25 258.75 77.4 273.62 75.64 286.08 107.85"/><polygon class="cls-10" points="170.54 30.05 166.95 14.77 198.86 4.9 250.05 10.59 283.42 58.4 286.08 107.85 268.05 80.13 170.54 30.05"/><polygon class="cls-9" points="181.92 11.67 244.37 19.8 272.27 68.02 286.08 107.85 268.05 80.13 182.53 29.91 164.18 36.87 166.95 14.77 181.92 11.67"/><polygon class="cls-11" points="175.55 24.68 164.18 36.87 154.69 82.65 158.49 123.83 180.94 128.7 199.66 149.47 212.67 167.44 237.14 148.07 268.05 80.13 238.86 37.58 233.35 35.33 175.55 24.68"/><polygon class="cls-7" points="238.86 37.58 209.42 138.19 212.67 167.44 241.38 150.34 255.37 114.25 255.56 105.16 260.57 100.26 268.05 80.13 238.86 37.58"/><polygon class="cls-7" points="216.73 64.23 191.54 85.9 176.64 77.23 164.45 57.18 170.95 55.29 181.92 59.35 192.35 61.52 199.66 55.29 207.25 55.29 216.73 64.23"/><polygon class="cls-12" points="192.35 61.52 188.02 68.43 191.54 85.9 172.71 82.11 183.41 67.48 181.92 59.35 192.35 61.52"/><polygon class="cls-8" points="180.94 128.7 226.62 138.86 212.67 167.44 191.6 153.61 180.94 128.7"/><polygon class="cls-8" points="172.71 82.11 180.94 90.78 191.54 85.9 172.71 82.11"/><polygon class="cls-8" points="165.26 97.96 188.15 103.24 203.09 101.07 203.46 105.14 188.02 107.71 164.45 102.09 165.26 97.96"/><polygon class="cls-7" points="195.47 86.44 206.71 92.94 203.78 110.35 202.65 98.23 195.47 86.44"/><polygon class="cls-7" points="214.16 100.26 213.4 110.99 203.78 120.44 214.16 100.26"/><polygon class="cls-7" points="170.54 82.11 165.26 97.96 163.36 85.9 170.54 82.11"/><polygon class="cls-7" points="160.38 92.4 161.83 110.28 157.54 100.26 160.38 92.4"/><circle class="cls-13" cx="205.62" cy="69.6" r="3.12"/><circle class="cls-13" cx="170.95" cy="62.96" r="3.12"/><polygon class="cls-13" points="199.66 55.29 199.66 52.58 210.37 52.58 216.73 64.23 206.3 56.64 199.66 55.29"/><polygon class="cls-13" points="181.92 59.35 181.92 57.05 170.54 51.9 164.45 54.88 164.45 57.18 171.08 56.37 181.92 59.35"/><polygon class="cls-7" points="175.74 40.39 190.59 45.08 209.42 46.71 191.54 42.55 175.74 40.39"/><polygon class="cls-7" points="181.92 35.33 192.35 38.76 205.63 39.67 192.58 36.41 181.92 35.33"/><polygon class="cls-11" points="268.05 80.13 252.79 75.64 246.89 96.06 260.57 100.26 268.05 80.13"/><polygon class="cls-8" points="246.89 96.06 255.37 114.25 260.57 100.26 246.89 96.06"/><polygon class="cls-8" points="251.77 93.49 255.74 81.39 263.33 83.55 251.77 93.49"/><polygon class="cls-5" points="175.55 24.68 237.11 43.55 268.05 80.13 272.27 68.02 239.49 33.34 178.58 14.77 175.55 24.68"/><polygon class="cls-14" points="191.6 153.61 164.05 162.67 159.42 282.34 183.24 298.1 197.26 250.83 198.73 236.42 181.76 191.5 191.6 153.61"/><polygon class="cls-14" points="241.38 150.34 270.8 163.34 258.68 263.57 244.65 263.57 237.41 296.42 218.63 300.78 197.26 250.83 198.73 236.42 234.93 193.64 241.38 150.34"/><polygon class="cls-15" points="191.6 153.61 166.04 180.77 174.51 189.82 166.04 200.21 198.73 236.42 183.78 190.49 191.6 153.61"/><polygon class="cls-15" points="241.38 150.34 252.85 191.16 242.64 196.19 245.73 215.97 198.73 236.42 232.92 192.63 241.38 150.34"/><polygon class="cls-10" points="206.94 240.94 202.58 244.13 205.95 250.5 210.96 245.72 206.94 240.94"/><polygon class="cls-6" points="250.05 10.59 244.37 19.8 178.58 14.77 166.95 14.77 199.08 -0.25 250.05 10.59"/><polygon class="cls-4" points="270.8 163.34 295.27 234.07 261.25 250.73 261.75 224.81 270.8 163.34"/><polygon class="cls-15" points="261.75 224.81 295.27 234.07 266.52 273.62 256.09 273.62 244.65 263.57 261.75 224.81"/><polygon class="cls-11" points="266.52 273.62 258.23 294.08 244.65 263.57 266.52 273.62"/><polygon class="cls-15" points="161.26 234.73 125.65 178.76 113.92 179.6 104.86 187.81 128 245.72 161.26 234.73"/><polygon class="cls-5" points="221.57 336.98 259.12 340.41 260.24 369.83 243.65 370.34 234.03 366.15 221.57 336.98"/><polygon class="cls-5" points="204.68 338.28 166.14 322.18 173.12 359.11 182.77 370.17 196.38 370.17 204.68 338.28"/><polygon class="cls-15" points="111.92 153.37 68.66 162.33 55.34 156.89 62.13 146.83 131.01 134.76 131.01 143.06 111.92 153.37"/><polygon class="cls-16" points="131.01 143.06 106.43 147.55 96.65 147.75 85.93 151.3 55.34 156.89 68.66 163.34 113.93 155.38 131.01 143.06"/><polygon class="cls-6" points="85.93 151.3 96.65 135.85 108.72 133.84 106.43 147.55 85.93 151.3"/><polygon class="cls-11" points="104.86 187.81 109.64 163.34 102.18 153.2 106.43 147.55 121.21 159.9 125.65 178.76 104.86 187.81"/><polygon class="cls-10" points="57.6 153.53 64.81 152.36 64.81 149.72 59.58 150.6 57.6 153.53"/><polygon class="cls-10" points="72.86 148.71 74.36 149.93 73.31 151.29 71.99 150.32 72.86 148.71"/><polygon class="cls-10" points="77.22 147.78 78.72 148.99 77.66 150.36 76.35 149.39 77.22 147.78"/><polygon class="cls-10" points="82.03 146.86 83.53 148.07 82.48 149.44 81.16 148.47 82.03 146.86"/><polygon class="cls-17" points="83.53 106.92 107.88 113.9 116.09 99.64 99.96 94.79 83.53 106.92"/><polygon class="cls-18" points="99.96 94.79 107.88 113.9 121.46 96.8 99.96 94.79"/><circle class="cls-19" cx="96.82" cy="104.34" r="2.01"/><circle class="cls-19" cx="109.14" cy="100.57" r="2.01"/><polygon class="cls-20" points="147.94 165.85 128 245.72 102.85 237.76 125.65 178.76 131.81 162.26 147.94 165.85"/><polygon class="cls-17" points="270.8 146.83 299.96 164.81 270.8 163.34 270.8 146.83"/><polygon class="cls-6" points="234.03 366.15 226.58 385.92 264.62 385.92 260.24 369.83 234.03 366.15"/><polygon class="cls-6" points="173.12 359.11 162.66 366.15 150.61 380.06 174.25 381.57 196.38 379.55 196.38 370.17 173.12 359.11"/><polygon class="cls-16" points="226.58 385.92 247.16 374.53 264.62 385.92 245.6 388.94 226.58 385.92"/><polygon class="cls-16" points="142.74 379.55 162.66 366.15 169.05 380.56 142.74 379.55"/><rect class="cls-5" x="226.58" y="385.92" width="38.04" height="6.03"/><rect class="cls-5" x="142.74" y="379.55" width="53.63" height="6.03"/><polygon class="cls-15" points="206.53 5.62 211.05 4.99 214.03 7.52 215.29 6.88 216.46 9.05 211.14 8.15 210.5 9.77 207.43 10.5 207.88 14.65 205.99 14.2 206.53 9.23 200.48 11.04 193.89 8.51 200.84 9.23 206.53 5.62"/></svg>