<?xml version="1.0" encoding="utf-8"?>
<!-- Generator: Adobe Illustrator 23.0.3, SVG Export Plug-In . SVG Version: 6.00 Build 0)  -->
<svg version="1.1" id="Layer_1" xmlns="http://www.w3.org/2000/svg" xmlns:xlink="http://www.w3.org/1999/xlink" x="0px" y="0px"
	 viewBox="0 0 400 400" style="enable-background:new 0 0 400 400;" xml:space="preserve">
<style type="text/css">
	.st0{fill:#755924;}
	.st1{fill:#2B2B2B;}
	.st2{fill:#4F5353;}
	.st3{fill:#737474;}
	.st4{fill:#B38B2E;}
	.st5{fill:#836528;}
	.st6{fill:#9C782C;}
	.st7{fill:#BA8E2D;}
	.st8{fill:#E1A940;}
	.st9{fill:#BC8F2D;}
	.st10{fill:#474748;}
	.st11{opacity:0.1;fill:#2B2B2B;enable-background:new    ;}
	.st12{fill:#6F7273;}
	.st13{fill:#F0BC67;}
	.st14{fill:#8C7C2F;}
	.st15{fill:#A2A1A1;}
	.st16{fill:#848585;}
	.st17{fill:#9B9FA0;}
	.st18{fill:#EBEBEA;}
	.st19{fill:#CECDCC;}
	.st20{fill:#95637C;}
	.st21{fill:#DCDCDB;}
	.st22{fill:#AB913C;}
	.st23{fill:#CBAD2D;}
	.st24{fill:#8E8E8E;}
	.st25{fill-rule:evenodd;clip-rule:evenodd;fill:#737474;}
	.st26{fill-rule:evenodd;clip-rule:evenodd;fill:#8E8E8E;}
</style>
<g id="gun_and_arm">
	<polygon class="st0" points="105.3,115.6 114.3,99.6 105.3,102.1 105.3,99.2 109.1,99.2 98.3,72.5 72.3,82.4 69.6,97.4 70.9,114.5 
		75.4,114 84.8,115.6 86.1,132.9 104.4,187.6 113.2,187.6 114.3,194.2 118.6,192.6 123.2,209 93.4,225.5 124.4,220.2 131.6,214 
		127.9,187.3 	"/>
	<polygon class="st1" points="109.1,265.6 125.9,308.5 139.8,308.5 120.4,256.7 	"/>
	<polygon class="st2" points="120.4,256.7 110.3,245.3 108.8,237.5 130.4,226.8 135.8,246 	"/>
	<polygon class="st3" points="108.8,237.5 110.3,245.3 115.8,247.5 135.5,238.2 130.4,226.8 	"/>
	<polygon class="st0" points="164.1,315.1 168.5,288.2 178.2,305.8 	"/>
	<polygon class="st0" points="139.8,308.5 129.6,281.4 152.2,288.2 151.8,308.5 	"/>
	<polygon class="st2" points="185.4,229 149,262.2 145.5,293 200.7,274.6 	"/>
	<polygon class="st1" points="151.6,313.8 151.6,272.3 162.1,249 170.7,274.8 164.1,315.1 	"/>
	<polygon class="st4" points="162.1,249 138.1,165.7 132.1,168.5 127.9,180.9 130.4,188.4 135.3,190.6 151.6,272.3 	"/>
	<polygon class="st1" points="93.4,225.5 124.4,220.2 130.4,239 97,237.1 	"/>
	<polygon class="st1" points="124.4,220.2 145,202.2 149.2,220.2 130.4,239 	"/>
	<polygon class="st1" points="143,182.7 147.8,175.4 151.6,177.1 147.3,182.7 	"/>
	<polygon class="st5" points="145,189.7 149.2,193.1 168.2,241.3 162.1,249 	"/>
	<polygon class="st3" points="145.5,293 120.4,256.7 135.8,246 149,262.2 	"/>
	<polygon class="st6" points="143,182.7 145,189.7 149.2,193.1 166.6,237.1 168.2,234.3 151.6,177.1 147.3,182.7 	"/>
	<polygon class="st0" points="133.5,235.9 138.1,252.3 141.1,252.3 145,259 148.8,257.9 142.6,226.8 	"/>
	<polygon class="st5" points="138.8,207.7 135.3,190.6 130.4,188.4 124.4,193.1 131.6,214 	"/>
	<polygon class="st1" points="138.1,252.3 133.5,235.9 134.8,254.3 	"/>
	<polygon class="st1" points="132.1,168.5 124.4,131.7 114.3,129.5 130.4,173.6 	"/>
	<polygon class="st1" points="124.4,178.3 111,175.4 104.4,155.1 105.1,132.9 95.4,137.2 108.8,175.4 118.6,192.6 124.4,193.1 
		119,180.9 	"/>
	<polygon class="st6" points="127.9,180.9 130.4,173.6 114.3,129.5 114.3,123.1 119.2,121 116.1,111.5 105.3,115.6 105.1,132.9 
		104.4,155.1 111,175.4 124.4,178.3 119,180.9 124.4,193.1 130.5,188.5 	"/>
	<polygon class="st7" points="109.9,129.5 127.9,180.9 124.4,178.3 106.6,127.8 	"/>
	<polygon class="st6" points="83.6,73 85.2,77.6 86.3,77 90.3,75.7 87.8,71.3 	"/>
	<polygon class="st6" points="92.9,70.5 90.9,71.1 91.5,75.9 92.7,75.4 96.7,74.1 	"/>
	<polygon class="st7" points="106.6,137.2 119.9,177.1 115.9,176.5 106.6,144.1 	"/>
	<polygon class="st6" points="88.6,96.3 96.9,97.9 105.3,115.6 105.1,132.9 86.4,141.9 83.1,133.1 98.3,125 	"/>
	<polygon class="st6" points="75.4,114 70.9,114.5 70.9,97.9 75.4,83.8 81.2,88.5 76.1,99.2 	"/>
	<polygon class="st8" points="75.4,83.8 98.3,70.7 100.2,75.2 86.7,80.5 90.6,87.7 81.2,88.5 	"/>
	<polygon class="st1" points="86.7,80.5 100.2,75.2 109.1,99.2 105.3,99.2 98.3,87.2 90.6,87.7 	"/>
	<polygon class="st4" points="86.4,141.9 81.2,144.7 91.7,180.9 102.7,182.7 100.2,172.4 94.2,170.4 	"/>
	<polygon class="st5" points="100.2,172.4 91.9,147.2 86.4,141.9 95.4,137.2 108.8,175.4 118.6,192.6 114.3,195.5 109.9,187 
		105.3,187 102.7,182.7 	"/>
	<polygon class="st9" points="90.8,141.9 105.3,184 109.1,182.7 92.4,140.3 	"/>
	<polygon class="st10" points="123.2,209 124.4,220.2 93.4,225.5 	"/>
</g>
<polygon class="st11" points="141.2,392.2 232.1,400.5 321.5,392.6 225.7,380.5 "/>
<polygon class="st12" points="294.6,314.4 272.7,290.4 255.7,283.9 240.8,311.5 271.9,328.2 "/>
<polygon class="st1" points="299,329.5 281.5,300.3 277.8,313 264.5,316.5 249.3,323.1 262.9,341.9 "/>
<polygon class="st12" points="262.9,349 251.6,339 268.6,336.3 270.4,336.6 286.7,333.9 290.7,328.6 299,329.5 304.3,340.3 
	292.5,355.5 "/>
<polygon class="st2" points="304.3,355.5 304.3,340.3 294.5,344.2 281.7,344.2 276.6,347.8 266.3,347.8 262.9,349 269.6,359.9 
	289.3,366.7 "/>
<polygon class="st12" points="274.3,371.2 269.6,359.9 277.9,361.7 289.3,357.6 297.1,352.5 304.3,355.5 307.9,365.8 292.7,373.7 
	"/>
<polygon class="st1" points="274.3,371.2 293.3,387.1 307.9,365.8 295.5,365.8 291.7,370.3 280.7,368.5 "/>
<polygon class="st8" points="232.9,245.7 175.2,253.9 181,274.8 189.6,298.4 257.7,296.6 "/>
<polygon class="st8" points="189.6,298.4 171.3,335.4 175.9,361.7 216.2,358.7 216.8,343.9 218.6,330.6 "/>
<polygon class="st13" points="189.6,298.4 181.4,306 199.2,319 218.6,330.6 269.6,296.3 "/>
<polygon class="st8" points="218.6,330.6 230.5,344.2 233.4,361.7 275.3,359.6 269.6,338.1 269.6,296.3 "/>
<polygon class="st14" points="186.8,216.7 225.7,204.9 266,205.6 239.5,223.1 196.4,225.6 "/>
<polygon class="st10" points="261.4,205.5 255.2,256.3 191.7,266.5 191,226.9 190.3,207.9 "/>
<polygon class="st2" points="159.9,193.7 208.7,223.1 234.6,223.1 277.2,195.2 244.3,193.7 196.4,194 "/>
<polygon class="st15" points="166.8,121.2 193.3,125.8 203.7,121.2 233.1,118.3 244.3,121.2 263.5,111.9 266.4,140 275.4,162.1 
	164.8,167.8 171.1,150.3 "/>
<polygon class="st16" points="164,166.1 193.3,125.8 244.3,121.2 287.5,177.2 166.5,185.6 "/>
<polygon class="st17" points="196.4,194 209.7,218.8 231.6,218.8 244.3,193.7 "/>
<polygon class="st18" points="213.2,174.2 226.1,174.2 244.3,193.7 196.4,194 "/>
<polygon class="st19" points="196.4,194 208.7,205.6 231.6,205.6 244.3,193.7 "/>
<polygon class="st16" points="213.2,174.2 205.6,175.8 188.1,161.6 156.8,185.6 159.9,193.7 196.4,194 "/>
<polygon class="st10" points="209.7,194 214.9,187 225.1,187 230.5,193.8 "/>
<polygon class="st16" points="230.3,174.2 250.2,159.1 283.8,185.2 277.2,195.2 244.3,193.7 226.1,174.2 "/>
<polygon class="st2" points="171.7,174.2 206.4,182.2 213.2,174.2 188.1,161.6 "/>
<polygon class="st2" points="226.1,174.2 250.2,159.1 262.7,168.8 233.1,181.7 "/>
<polygon class="st1" points="209.7,194 213.6,202.1 226,202.1 230.5,193.8 "/>
<ellipse class="st1" cx="195.1" cy="173.3" rx="5.6" ry="5.6"/>
<ellipse class="st1" cx="241.4" cy="171.7" rx="5.6" ry="5.6"/>
<polygon class="st1" points="196.4,194 210.3,216.2 230.3,216.2 244.3,193.7 228.9,213 213.5,212.7 "/>
<polygon class="st20" points="208.7,205.6 213.5,210.1 226.8,210.1 231.6,205.6 "/>
<polygon class="st1" points="244.3,193.7 226.8,210.1 213.5,210.1 196.4,194 211.1,212.7 228.9,213 "/>
<polygon class="st10" points="229.5,296.6 243.6,313 249.7,309.1 237.1,294.6 "/>
<polygon class="st21" points="225.3,146.4 219.6,168.6 226.1,174.2 233.1,155.2 "/>
<polygon class="st1" points="212.7,258.5 240.4,253.7 243.6,262.5 207.8,266.5 "/>
<polygon class="st1" points="205.6,278.9 252,272.2 253.4,281.9 213.2,287.3 "/>
<polygon class="st1" points="186.8,296 254,289.4 257.7,296.6 186.8,299.7 "/>
<polygon class="st1" points="208.7,223.1 197.2,216.7 206.6,248.9 235.9,235.5 261.4,205.5 234.6,223.1 "/>
<polygon class="st21" points="210.5,174.2 201.4,155.9 208.7,147.8 214.1,161.6 "/>
<polygon class="st21" points="230.3,174.2 235.6,157.1 245.6,150.3 290.7,166.1 295.1,179.5 283.8,194 277.2,195.2 283.8,185.2 
	250.2,159.1 "/>
<polygon class="st21" points="205.6,175.8 198.9,158.2 188.8,152.7 154.8,171.1 147.7,183.4 156.1,193.7 159.9,193.7 156.8,185.6 
	188.1,161.6 "/>
<polygon class="st2" points="252,131.2 263.5,111.9 273.7,111.9 277.5,121.2 266.4,140 "/>
<polygon class="st2" points="184.6,137.7 171.1,150.3 156.8,135.1 156.8,121.2 166.8,121.2 "/>
<polygon class="st22" points="239.5,223.1 235.9,235.5 272.1,217.5 266,205.6 "/>
<polygon class="st23" points="235.9,235.5 272.1,217.5 301.2,232.7 281.1,228.5 247,246.2 "/>
<polygon class="st14" points="247,246.2 281.1,228.5 301.2,232.7 298.9,258.5 281.7,233.2 "/>
<polygon class="st10" points="229.5,238.8 253.4,296 277.2,296 277.2,278.9 253.4,252.8 260,241.3 247,246.2 235.9,235.5 "/>
<polygon class="st8" points="180.1,302.4 178.6,279.5 189.5,276.5 186.8,296 "/>
<polygon class="st1" points="196.6,234.2 199.2,239.1 178.7,266.5 163.6,253.7 177.1,244.5 181.6,244.5 "/>
<polygon class="st1" points="173.1,345.9 171.3,335.4 189.6,301.5 191.7,298.5 186.8,296 172.6,309.4 169.7,338.1 167.7,340 
	167.7,347.5 "/>
<polygon class="st5" points="253.4,252.8 260,241.3 281.7,233.2 285.1,238.3 256,255.7 "/>
<polygon class="st22" points="196.6,234.2 196.4,225.6 186.8,216.7 185.5,229.3 "/>
<polygon class="st23" points="196.6,234.2 181.6,244.5 177.7,241 163.6,247.2 185.5,229.3 "/>
<polygon class="st14" points="181.6,244.5 177.1,244.5 163.6,253.7 163.6,247.2 177.7,241 "/>
<polygon class="st13" points="213.2,255.7 211.1,268.1 205.6,270.1 205.6,278.9 213.2,287.3 209.7,288.5 211.1,296.6 214.1,296.6 
	213.7,300.3 192,301.5 191.7,298.5 186.8,296 184.6,290.4 184.6,281.3 180.3,278.6 180.3,268.1 185,268.1 189.6,252.8 214.1,251.4 
	"/>
<path class="st7" d="M190.6,303.3l-0.4-3.7l-4.6-2.4l-2.5-6.5v-8.5l-4.3-2.6v-13.1h5.1l4.6-15.2l27.8-1.6l-1.4,6.4l-2.3,13.2l-5.3,2
	v7l8.8,9.8l-4.5,1.6l0.9,5.3h3.4l-0.7,6.9L190.6,303.3z M188.1,294.9l5.1,2.6l0.3,2.4l18.8-1l0.1-0.6h-2.6l-1.9-10.7l2.5-0.9
	l-6.4-7.1V269l5.6-2.1l2-11.5l0.5-2.3l-21.3,1.2l-4.6,15.3h-4.3v8l4.3,2.6v9.7L188.1,294.9z"/>
<polygon class="st2" points="253.4,296 257.7,301.5 277.8,309.4 277.2,296 "/>
<polygon class="st1" points="269.6,305.7 269.6,311.2 274.8,313 277.8,309.4 "/>
<polygon class="st1" points="257.7,301.5 266,304.5 262.7,311.5 253.4,309.4 "/>
<polygon class="st1" points="249.7,328.5 245.5,338.1 255,338.1 259.7,324.5 252,324.5 "/>
<polygon class="st1" points="272.1,347.5 231.4,349.8 232.9,358.4 274.7,357.2 "/>
<polygon class="st10" points="243.6,313 249.7,309.1 253.4,309.4 262.7,311.5 277.2,318.8 274.9,331.3 247,329.4 "/>
<polygon class="st1" points="245.5,338.1 247,345.5 262.7,347.5 272.1,347.5 273.3,338.1 "/>
<polygon class="st1" points="189.5,342.8 216.8,343.9 218.6,330.6 199.2,319 "/>
<polygon class="st1" points="173.9,350.4 175.3,358.4 216.3,356 216.6,347.8 "/>
<polygon class="st13" points="199.2,239.1 206.6,248.9 229.5,238.8 235.7,253.6 205.6,251 183.3,253.7 "/>
<polygon class="st10" points="198.3,251.9 195.1,263.2 198.3,263.2 205.6,251 "/>
<polygon class="st1" points="266.8,375.2 273.3,389.3 273.4,392.6 243.1,392.6 242.2,389.3 249.7,377.9 253.4,371.1 "/>
<polygon class="st1" points="212.1,370.9 212.1,391.1 161.7,391.1 161.7,385.9 188.4,374.7 200.8,364 211.8,367 "/>
<polygon class="st10" points="195.1,263.2 191.7,263.2 191.7,270.5 196.4,270.5 201.4,263.2 198.3,263.2 "/>
<polygon class="st2" points="241.3,361.3 269.6,359.9 269.6,375.7 260.4,374.1 257.7,376.8 253.4,375.7 249.7,377.9 "/>
<polygon class="st2" points="183.5,361.1 216.2,358.7 216,371.6 207.9,370.2 205.7,373.4 196.8,371.6 188.4,374.7 "/>
<polygon class="st18" points="233.1,188.4 264.8,178.1 233.1,189.7 "/>
<polygon class="st18" points="238.6,190.5 271.8,183.5 238,191.9 "/>
<polygon class="st18" points="205.6,188.1 174.4,182.2 205.6,188.8 "/>
<polygon class="st18" points="201.4,191.3 166.5,185.6 200.7,192.1 "/>
<polygon class="st24" points="247,246.2 277.2,278.9 307,270.5 281.7,233.2 "/>
<polygon class="st3" points="277.2,278.9 283,307.5 300.8,302 307,270.5 "/>
<polyline class="st25" points="283,307.5 279.5,317.1 285.1,328.4 "/>
<polygon class="st26" points="283,307.5 285.1,328.4 304.9,320.4 300.8,302 "/>
<polygon class="st3" points="247,246.2 293.7,251 281.7,233.2 "/>
</svg>
