<svg xmlns="http://www.w3.org/2000/svg" viewBox="0 0 400 400"><defs><style>.cls-1{isolation:isolate;}.cls-2,.cls-22{fill:#2b2b2b;}.cls-2{opacity:0.1;}.cls-3{fill:#8e8e8e;}.cls-4{fill:#e4c723;}.cls-11,.cls-5{fill:#836528;}.cls-6{fill:#f3d65c;}.cls-7{fill:#cbad2d;}.cls-8{fill:#9c782c;}.cls-9{fill:#755924;}.cls-10{fill:#ab913c;}.cls-11{opacity:0.2;mix-blend-mode:screen;}.cls-12{fill:#bc8f2d;}.cls-13{fill:#b38b2e;}.cls-14{fill:none;}.cls-15{fill:#cecdcc;}.cls-16{fill:#8c7c2f;}.cls-17{fill:#fbe3d4;}.cls-18{fill:#fff0e8;}.cls-19{fill:#c18f7c;}.cls-20{fill:#be9b82;}.cls-21{fill:#f4cab2;}.cls-23{fill:#e2d07f;}.cls-24{fill:#c2b270;}.cls-25{fill:#faf5b1;}.cls-26{fill:#a2a1a1;}.cls-27{fill:#dcdcdb;}</style></defs><title>explorers_ESTP_famous_fictional_jaime_lannister_game_of_thrones</title><g class="cls-1"><g id="Layer_2" data-name="Layer 2"><polygon class="cls-2" points="104.88 391.6 201.05 384.43 289.68 390.62 195.63 400.04 104.88 391.6"/><polygon class="cls-3" points="269.81 347.87 249.78 362.01 229.25 368.3 173.54 370.05 169.23 357.12 156.01 361.66 126.13 364.81 154.93 241.43 244.82 228.24 269.81 347.87"/><polygon class="cls-4" points="146.4 164.86 138.44 168.52 126.13 189.95 130.58 201.49 149.28 213.79 153.63 164.86 146.4 164.86"/><polygon class="cls-5" points="173.54 370.05 173.54 382.79 155.9 386.85 131.54 382.79 153.04 361.66 164.9 361.66 173.54 370.05"/><polygon class="cls-6" points="180.01 154.9 158 161.53 147.52 205.19 195.02 172.53 196.94 161.53 180.01 154.9"/><polygon class="cls-6" points="225.76 150.7 196.94 161.53 195.02 172.53 236.67 205.97 253.59 170.39 225.76 150.7"/><polygon class="cls-7" points="156.01 246.71 229.25 251.29 236.67 205.97 147.52 205.19 156.01 246.71"/><polygon class="cls-4" points="147.52 205.19 236.67 205.97 195.02 172.53 147.52 205.19"/><polygon class="cls-4" points="257.52 180.04 269.07 195.76 263.83 217.06 255.1 221.6 235.11 215.53 236.67 205.97 257.52 180.04"/><polygon class="cls-5" points="249.78 362.01 262.61 384.63 245.32 388.69 228.03 384.63 229.25 368.3 236.41 361.66 249.78 362.01"/><polygon class="cls-8" points="153.04 333.69 153.04 361.66 173.54 370.05 179.48 339.69 153.04 333.69"/><polygon class="cls-8" points="244.62 327.43 249.78 362.01 229.25 368.3 215.64 336.88 244.62 327.43"/><polygon class="cls-5" points="219.18 345.05 244.62 327.43 225.76 330.23 215.64 336.88 219.18 345.05"/><polygon class="cls-9" points="177.88 347.87 179.48 339.69 173.1 335.47 153.04 333.69 177.88 347.87 177.88 347.87"/><polygon class="cls-6" points="269.07 195.76 236.67 205.97 259.47 170.97 269.07 195.76"/><polygon class="cls-7" points="264.45 214.54 236.67 205.97 235.11 215.53 255.1 221.6 264.45 214.54"/><polygon class="cls-10" points="269.07 172.44 253.59 170.39 236.67 205.97 242.18 204.24 269.07 172.44"/><polygon class="cls-10" points="235.11 215.53 270.47 226.84 264.45 214.54 235.72 211.82 235.11 215.53"/><polygon class="cls-10" points="236.67 205.97 235.11 215.53 238.64 216.66 242.18 204.24 236.67 205.97"/><polygon class="cls-9" points="195.72 322.89 196.94 342.98 135.28 331.45 170.79 298.69 195.72 322.89"/><polygon class="cls-5" points="195.72 322.89 191.51 318.9 192.63 335.66 141.45 325.77 135.28 331.45 196.94 342.98 195.72 322.89"/><polygon class="cls-5" points="221.92 291.37 244.62 327.43 196.94 342.98 170.79 298.69 156.01 255.18 221.92 291.37"/><polygon class="cls-11" points="201.16 334.33 177.33 294.41 165.67 260.48 156.01 255.18 170.79 298.69 196.94 342.98 244.62 327.43 240.9 321.52 201.16 334.33"/><polygon class="cls-12" points="244.62 327.43 210 298.82 196.94 274 201.05 246.29 229.25 251.29 244.62 327.43"/><polygon class="cls-13" points="153.12 249.71 135.28 331.45 170.79 298.69 175.12 285.51 176.07 247.67 153.12 249.71"/><polygon class="cls-14" points="232.62 270.69 232.53 270.6 232.56 270.74 232.62 270.69"/><polygon class="cls-12" points="239.98 305.6 239.79 304.7 239.43 305.06 239.98 305.6"/><polygon class="cls-8" points="188.21 248.24 174.31 250.31 170.79 298.69 188.74 329.08 210 298.82 202.97 250.59 188.21 248.24"/><polygon class="cls-9" points="229.25 251.29 164.44 252.58 154.93 241.3 230 242.82 229.25 251.29"/><rect class="cls-9" x="228.03" y="384.63" width="34.58" height="8.12"/><rect class="cls-9" x="131.54" y="382.79" width="42" height="8.12"/><polygon class="cls-9" points="164.94 287.6 176.35 242.18 186.88 237.21 189.85 242.19 197.76 242.03 190.54 300.59 182.22 299.56 187.76 254.63 182.13 253.02 173.17 289.13 167.87 292.02 164.94 287.6"/><polygon class="cls-10" points="193.01 250.55 182.54 250.55 184.39 241.93 193.15 242.02 193.01 250.55"/><rect class="cls-9" x="173.72" y="243.7" width="14.5" height="4.54"/><polygon class="cls-10" points="147.52 205.19 158 161.53 146.13 154.9 147.2 193.65 147.52 205.19"/><polygon class="cls-10" points="148.08 207.93 117.22 196.15 126.13 189.95 147.52 205.19 148.08 207.93"/><polygon class="cls-6" points="138.44 168.52 147.52 205.19 146.4 164.86 138.44 168.52"/><polygon class="cls-12" points="180.01 154.9 184.35 168.52 195.02 172.53 211.56 167.47 225.76 150.7 196.94 161.53 180.01 154.9"/><polygon class="cls-15" points="254.88 221.86 300.33 347.87 274.66 370.05 244.82 233.41 254.88 221.86"/><polygon class="cls-15" points="154.93 241.43 124.82 379.39 99.67 346.64 149.64 215.53 154.93 241.43"/><polygon class="cls-7" points="164.94 287.6 164.94 287.6 162.58 296.96 170.79 298.69 173.17 289.13 164.94 287.6"/><polygon class="cls-5" points="123.39 198.5 102.3 230.63 127.3 258.54 144.2 258.54 138.52 244.72 130.6 221.6 148.08 207.93 123.39 198.5"/><polygon class="cls-9" points="102.3 230.63 149.64 215.53 148.08 207.93 121.3 197.71 102.3 230.63"/><polygon class="cls-16" points="102.3 230.63 117.78 225.69 131.42 201.57 121.3 197.71 102.3 230.63"/><polygon class="cls-4" points="154.93 241.3 138.52 244.72 127.3 258.54 149.83 264.8 154.93 241.3"/><polygon class="cls-6" points="154.93 241.3 166.88 252.36 162.24 263.64 149.83 264.8 154.93 241.3"/><polygon class="cls-13" points="144.57 251.97 141.65 244.07 138.52 244.72 127.3 258.54 132.68 260.03 144.57 251.97"/><polygon class="cls-17" points="133.83 46.06 135.07 78.63 139.9 116.86 158.39 136.6 190.41 136.6 210.84 116.17 213.05 59.86 199.8 37.5 141.56 37.5 133.83 46.06"/><polygon class="cls-18" points="165.85 75.32 171.18 75.32 176.61 95.01 159.77 95.01 165.85 75.32"/><polygon class="cls-19" points="159.77 95.01 168.7 100.9 176.61 95.01 159.77 95.01"/><polygon class="cls-20" points="175.88 70.17 193.17 68.88 198.6 70.72 198.6 69.25 193.82 66.39 174.68 66.94 175.88 70.17"/><polygon class="cls-20" points="163.64 67.13 162.17 70.35 144.78 70.35 140.64 72.01 140.08 71.09 144.59 68.14 163.64 67.13"/><polygon class="cls-21" points="198.6 70.72 187.65 76.01 176.61 95.01 171.18 75.32 175.88 70.17 193.17 68.88 198.6 70.72"/><polygon class="cls-21" points="162.17 70.35 165.85 75.32 161.19 90.42 152.6 78.08 140.64 72.01 144.78 70.35 162.17 70.35"/><path class="cls-22" d="M189.35,74.4a3.68,3.68,0,1,1-3.68-3.68A3.68,3.68,0,0,1,189.35,74.4Z"/><path class="cls-22" d="M157.29,75.32a3.68,3.68,0,1,1-3.68-3.68A3.68,3.68,0,0,1,157.29,75.32Z"/><path class="cls-17" d="M190.41,136.6l20.43-20.43.57-14.49h0l-15.34,5.93L173.44,98l-4.74,3L165.85,99l-19.6,9.29-7.81-3h0l1.46,11.55,16.35,17.45,3.26,2.29Z"/><path class="cls-2" d="M190.41,136.6l20.43-20.43.57-14.49h0l-15.34,5.93L173.44,98l-4.74,3L165.85,99l-19.6,9.29-7.81-3h0l1.46,11.55,16.35,17.45,3.26,2.29Z"/><polygon class="cls-19" points="183.62 113.19 169.31 110.94 157.07 113.19 156.68 111.01 169.28 108.7 183.96 111.01 183.62 113.19"/><polygon class="cls-21" points="213.05 59.86 221.7 66.78 233.87 112.77 225.76 150.7 196.94 161.53 182.67 152.35 174.92 136.6 190.41 136.6 210.84 116.17 213.05 59.86"/><polygon class="cls-19" points="174.92 136.6 214.7 136.6 196.94 161.53 180.01 154.9 174.92 136.6"/><polygon class="cls-17" points="229.69 73.18 224.23 96.99 236.16 102.35 240.65 81.94 229.69 73.18"/><polygon class="cls-19" points="228.92 93.12 237.34 84.01 231.4 80.38 228.92 93.12"/><polygon class="cls-19" points="224.23 96.99 233.87 112.77 236.16 102.35 224.23 96.99"/><polygon class="cls-10" points="221.7 66.78 218.98 86.75 225.93 89.55 229.69 73.18 221.7 66.78"/><polygon class="cls-21" points="225.93 89.55 214.7 136.6 190.41 136.6 210.84 116.17 211.41 101.64 218.98 86.75 225.93 89.55"/><polygon class="cls-2" points="225.93 89.55 214.7 136.6 190.41 136.6 210.84 116.17 211.41 101.64 218.98 86.75 225.93 89.55"/><polygon class="cls-23" points="135.07 78.63 122.51 59.86 135.07 21.49 176.61 -0.04 192.9 8.24 224.23 6.31 257.49 55.44 262.18 83.88 229.69 131.75 240.65 81.94 213.05 59.86 199.8 37.5 141.56 37.5 133.83 46.06 135.07 78.63"/><polygon class="cls-10" points="122.51 59.86 133.83 46.06 135.07 78.63 122.51 59.86"/><polygon class="cls-24" points="141.56 37.5 148.18 29.22 135.07 21.49 122.51 59.86 141.56 37.5"/><polygon class="cls-10" points="148.18 29.22 162.26 37.5 141.56 37.5 148.18 29.22"/><polygon class="cls-10" points="162.26 37.5 192.34 26.74 199.8 37.5 162.26 37.5"/><polygon class="cls-24" points="192.9 8.24 162.26 37.5 192.34 26.74 224.23 6.31 192.9 8.24"/><polygon class="cls-25" points="224.23 6.31 192.34 26.74 213.05 59.86 250.41 44.98 224.23 6.31"/><polygon class="cls-24" points="240.65 81.94 262.18 83.88 257.49 55.44 250.41 44.98 213.05 59.86 240.65 81.94"/><polygon class="cls-10" points="240.65 81.94 262.18 83.88 229.69 131.75 240.65 81.94"/><polygon class="cls-10" points="206.05 263.64 166.75 263.64 156.01 257.09 166.75 252.36 206.05 252.36 216.77 257.09 206.05 263.64"/><rect class="cls-10" x="182.88" y="225.04" width="9.05" height="30.14"/><polygon class="cls-26" points="196.22 382.79 187.41 383.7 178.6 382.79 178.6 261.58 196.22 261.58 196.22 382.79"/><polygon class="cls-9" points="211.41 241.93 239.43 251.29 261.9 224.1 235.11 215.53 218.55 231.79 211.41 241.93"/><polygon class="cls-5" points="218.55 231.79 239.43 251.29 208.17 252.58 192.1 240.81 218.55 231.79"/><polygon class="cls-16" points="247.62 219.33 236.67 234.75 239.43 251.29 261.9 224.1 247.62 219.33"/><polygon class="cls-16" points="180.16 218.35 187.41 214.17 194.66 218.35 194.66 226.73 187.41 230.92 180.16 226.73 180.16 218.35"/><polygon class="cls-27" points="196.22 382.79 187.41 375.17 178.6 382.79 188.02 392.23 196.22 382.79"/><polygon class="cls-15" points="187.41 261.58 178.6 261.58 178.6 382.79 187.41 375.17 187.41 261.58"/><polygon class="cls-16" points="206.05 263.64 216.77 257.09 156.01 257.09 166.75 263.64 206.05 263.64"/><polygon class="cls-21" points="173.72 252.36 196.22 261.58 187.41 272.42 169.93 267.71 173.72 252.36"/><polygon class="cls-16" points="221.21 263.64 221.21 251.97 219.26 252.05 210.32 257.09 219.15 263.64 221.21 263.64"/><polygon class="cls-16" points="152.56 263.64 152.58 252.36 154.55 252.36 163.44 257.09 154.61 263.64 152.56 263.64"/><polygon class="cls-16" points="187.41 230.92 187.41 251.29 192.1 240.81 191.94 228.31 187.41 230.92"/><polygon class="cls-17" points="173.72 252.36 192.1 240.81 208.17 252.58 196.22 261.58 173.72 252.36"/></g></g></svg>