<svg id="Layer_1" data-name="Layer 1" xmlns="http://www.w3.org/2000/svg" viewBox="0 0 400 400"><defs><style>.cls-1{fill:#f4c9b2;}.cls-13,.cls-14,.cls-2{fill:#2b2b2b;}.cls-2{fill-opacity:0.1;}.cls-3{fill:#51362a;}.cls-4{fill:#4f5253;}.cls-5{fill:#474747;}.cls-6{fill:#9d7700;}.cls-7{fill:#755800;}.cls-8{fill:#dcdcdb;}.cls-9{fill:#846400;}.cls-10{fill:#c1907d;}.cls-11{fill:#fce3d4;}.cls-12{fill:#848585;}.cls-13{opacity:0.1;}.cls-15{fill:#ffefe7;}</style></defs><title>explorers_ESTP_famous_real_bruce_willis</title><g id="Layer_1-2" data-name="Layer_1"><polygon class="cls-1" points="220.35 148.28 199.58 170.33 177.53 177.96 164.82 168.21 168.21 147.44 170.75 140.23 174.14 131.33 173.29 126.67 191.95 117.34 215.26 28.32 246.63 32.98 254.26 51.21 245.36 76.64 232.22 94.45 233.49 110.56 220.35 148.28"/><polygon class="cls-2" points="107.16 378.04 200.42 399.24 291.56 378.47 203.39 364.05 129.63 374.65 107.16 378.04"/><polygon class="cls-3" points="113.52 248.75 131.75 253.84 124.54 237.31 113.52 248.75"/><polygon class="cls-4" points="148.28 309.79 143.62 267.82 143.62 255.53 194.06 289.87 190.25 314.88 184.31 319.54 152.1 314.88 148.28 309.79"/><polygon class="cls-5" points="152.52 352.61 148.28 309.79 190.25 314.88 184.31 353.03 170.33 361.94 152.52 352.61"/><polygon class="cls-4" points="205.51 316.15 189.4 279.69 211.87 266.55 247.05 268.67 249.6 310.22 244.94 318.27 215.69 321.66 205.51 316.15"/><polygon class="cls-5" points="223.31 359.81 205.51 316.15 249.6 310.22 252.56 358.97 239.42 365.32 223.31 359.81"/><polygon class="cls-6" points="218.23 378.89 223.31 359.81 252.56 358.97 257.65 379.31 239.85 383.13 218.23 378.89"/><polygon class="cls-7" points="218.23 386.1 218.23 378.89 257.65 379.31 257.65 386.1 218.23 386.1"/><polygon class="cls-6" points="184.31 369.14 184.31 353.03 152.52 352.61 129.63 367.87 143.2 372.53 184.31 369.14"/><polygon class="cls-7" points="184.31 375.92 184.31 369.14 129.63 367.87 129.63 374.65 184.31 375.92"/><polygon class="cls-5" points="247.05 268.67 194.06 289.87 143.62 267.82 143.62 255.53 247.9 255.53 247.05 268.67"/><polygon class="cls-8" points="143.62 267.82 139.81 237.31 164.82 167.78 170.33 166.51 193.22 166.51 247.48 241.12 225.44 258.07 143.62 267.82"/><polygon class="cls-6" points="144.47 152.95 160.58 147.44 168.71 176.51 158.46 239.85 143.62 237.73 139.81 241.12 136.41 236.88 132.18 203.39 144.47 152.95"/><polygon class="cls-9" points="170.33 166.51 168.71 176.51 147.44 172.45 170.33 166.51"/><polygon class="cls-7" points="106.32 211.02 136.41 155.49 144.47 152.95 139.81 201.27 125.81 213.99 106.32 211.02"/><polygon class="cls-9" points="111.83 239.42 106.32 211.02 139.81 201.27 136.41 236.88 111.83 239.42"/><polygon class="cls-7" points="113.52 248.75 111.83 239.42 137.26 226.28 136.41 236.88 133.45 244.51 123.27 243.66 113.52 248.75"/><polygon class="cls-6" points="189.4 245.36 193.22 166.51 238.57 145.32 257.65 150.83 254.69 216.11 227.56 240.69 189.4 245.36"/><polygon class="cls-7" points="207.63 183.47 208.05 191.1 236.24 191.1 236.24 183.47 207.63 183.47"/><polygon class="cls-1" points="225.44 258.07 247.05 268.67 236.88 250.87 229.25 251.29 225.44 258.07"/><polygon class="cls-10" points="247.05 268.67 253.41 260.62 233.06 244.51 229.25 251.29 247.05 268.67"/><polygon class="cls-9" points="227.56 240.69 261.47 266.98 293.68 225.86 270.79 207.63 242.39 212.72 227.56 240.69"/><polygon class="cls-7" points="227.56 240.69 261.47 266.98 270.79 263.59 270.37 255.53 233.06 230.52 233.06 230.52 227.56 240.69"/><polygon class="cls-7" points="293.68 225.86 242.39 212.72 257.65 150.83 274.19 155.49 293.68 225.86"/><polygon class="cls-6" points="280.97 259.77 270.37 255.53 261.47 266.98 274.61 272.06 283.09 268.67 280.97 259.77"/><path class="cls-7" d="M271.64,261a3,3,0,1,1-3,3A2.9,2.9,0,0,1,271.64,261Z"/><path class="cls-7" d="M155.91,206.36a3.64,3.64,0,0,1,3.39,3.39,3.74,3.74,0,0,1-3.39,3.82c-2.12,0-3.39-1.7-3.39-3.82A3.34,3.34,0,0,1,155.91,206.36Z"/><path class="cls-7" d="M158.88,180.08a3.39,3.39,0,1,1-3.39,3.39A3.39,3.39,0,0,1,158.88,180.08Z"/><polygon class="cls-1" points="123.27 243.66 143.62 267.82 141.93 242.39 136.41 236.88 123.27 243.66"/><polygon class="cls-10" points="143.62 267.82 143.62 237.73 136.41 236.88 143.62 267.82"/><polygon class="cls-7" points="147.44 172.45 160.58 147.44 170.75 140.23 170.33 166.51 147.44 172.45"/><polygon class="cls-7" points="217.81 177.96 193.22 166.51 225.01 134.29 238.57 145.32 217.81 177.96"/><polygon class="cls-2" points="227.56 240.69 233.06 244.51 229.25 251.29 189.83 245.36 227.56 240.69"/><polygon class="cls-2" points="143.62 245.78 143.62 237.73 158.46 239.85 143.62 245.78"/><polygon class="cls-10" points="183.89 152.95 203.39 136.84 163.97 124.97 159.3 128.78 183.89 152.95"/><polygon class="cls-11" points="130.9 24.5 122.85 96.57 134.29 124.12 174.14 131.33 197.03 121.15 221.19 34.25 246.63 32.98 211.87 3.31 160.58 0.76 130.9 24.5"/><polygon class="cls-10" points="233.49 110.56 222.89 94.45 232.22 94.45 237.31 99.11 233.49 110.56"/><polygon class="cls-11" points="230.1 71.98 222.89 94.45 237.31 99.11 245.36 76.64 230.1 71.98"/><polygon class="cls-10" points="233.06 78.76 230.52 87.66 238.57 80.03 233.06 78.76"/><polygon class="cls-1" points="136.41 48.24 142.35 44.85 157.61 51.21 156.76 70.71 152.95 75.37 147.01 58.41 136.41 48.24"/><polygon class="cls-1" points="165.24 52.48 161 70.71 163.97 79.61 176.69 63.92 189.4 57.14 185.16 51.21 165.24 52.48"/><polygon class="cls-12" points="155.91 46.97 157.61 51.21 142.35 46.54 136.41 48.24 135.99 46.12 141.93 43.58 155.91 46.97"/><polygon class="cls-12" points="169.06 48.66 165.24 52.48 185.16 52.9 189.4 57.14 191.52 55.87 185.59 49.94 169.06 48.66"/><polygon class="cls-11" points="122.85 96.57 132.6 101.65 137.26 88.09 151.68 78.34 158.03 81.31 163.97 79.61 178.38 96.14 179.65 109.71 201.7 103.35 201.7 124.97 190.67 130.06 174.14 131.33 134.29 124.12 122.85 96.57"/><polygon class="cls-13" points="122.85 96.57 132.6 101.65 137.26 88.09 151.68 78.34 158.03 81.31 163.97 79.61 178.38 96.14 179.65 109.71 201.7 103.35 197.03 121.15 174.14 131.33 134.29 124.12 122.85 96.57"/><polygon class="cls-1" points="201.7 103.35 197.03 121.15 174.14 131.33 203.39 136.84 211.87 129.63 222.89 94.45 201.7 103.35"/><polygon class="cls-13" points="201.7 103.35 197.03 121.15 174.14 131.33 203.39 136.84 211.87 129.63 222.89 94.45 201.7 103.35"/><polygon class="cls-10" points="144.89 96.14 144.47 99.11 163.97 102.08 170.75 100.38 170.33 97.41 163.54 98.69 144.89 96.14"/><path class="cls-14" d="M147.43,57.14A3.39,3.39,0,1,1,144,60.53,3.4,3.4,0,0,1,147.43,57.14Z"/><path class="cls-14" d="M175,61.38a3.39,3.39,0,1,1-3.39,3.39A3.39,3.39,0,0,1,175,61.38Z"/><polygon class="cls-1" points="163.12 41.88 161 49.09 165.24 52.48 163.12 48.24 163.12 41.88"/><polygon class="cls-10" points="157.19 121.15 159.3 128.78 154.22 127.94 157.19 121.15"/><polygon class="cls-10" points="151.68 78.34 157.61 77.06 163.97 79.61 156.76 85.12 151.68 78.34"/><polygon class="cls-15" points="157.19 57.57 151.68 78.34 163.97 79.61 163.54 58.84 157.19 57.57"/><polygon class="cls-1" points="133.02 65.2 141.5 62.65 138.11 66.89 133.02 65.2"/><polygon class="cls-1" points="180.5 67.74 183.04 72.83 189.4 72.4 180.5 67.74"/><polygon class="cls-1" points="155.07 30.86 179.65 32.13 164.39 33.4 155.07 30.86"/></g><polygon class="cls-9" points="193.22 166.51 192.73 176.51 217.81 177.96 193.22 166.51"/></svg>