<svg id="Layer_1" data-name="Layer 1" xmlns="http://www.w3.org/2000/svg" viewBox="0 0 400 400"><defs><style>.cls-1,.cls-13,.cls-14,.cls-18{fill:#2b2b2b;}.cls-1{fill-opacity:0.1;}.cls-2{fill:#9c782c;}.cls-3{fill:#836528;}.cls-4{fill:#c3c3c3;}.cls-5{fill:#4f5353;}.cls-17,.cls-6{fill:#474748;}.cls-7{fill:#bc8f2d;}.cls-8{fill:#f3d65c;}.cls-9{fill:#cbad2d;}.cls-10{fill:#d0ae95;}.cls-11{fill:#a8836c;}.cls-12{fill:#eed2c1;}.cls-13{opacity:0.1;}.cls-14{opacity:0.2;}.cls-15{fill:#6f7273;}.cls-16{fill:#f6e5db;}.cls-17{fill-opacity:0.2;}</style></defs><title>explorers_ESTP_famous_fictional_lincoln_burrows_prison_break</title><polygon class="cls-1" points="87.63 384.1 182.12 373.88 331.81 384.38 184.42 400 87.63 384.1"/><polygon class="cls-2" points="138.44 274.46 137.2 325.59 161.07 350.33 176.78 332.8 187.33 304.5 197 262.31 138.44 274.46"/><polygon class="cls-3" points="137.2 325.59 136.63 366.55 153.43 371.93 163.54 367.06 176.78 332.8 137.2 325.59"/><polygon class="cls-2" points="240.21 267.84 218.32 274.6 182.53 295.63 187.33 304.5 203.33 331.78 228.35 353.38 246.19 321.67 240.21 267.84"/><polygon class="cls-3" points="203.33 331.78 220.5 361.75 234.32 361.67 250.25 357.82 246.19 321.67 203.33 331.78"/><polygon class="cls-4" points="218.1 361.17 221.95 373.1 225.52 372.59 241.08 375.35 250.98 370.26 252.87 369.97 252 356.73 218.1 361.17"/><polygon class="cls-5" points="117.28 382.55 136.63 366.55 163.54 367.06 163.47 381.97 157.65 383.94 122.44 383.86 117.28 382.55"/><polygon class="cls-5" points="222.97 386.99 225.52 372.59 250.98 370.26 257.23 387.06 251.27 388.66 229.74 388.66 222.97 386.99"/><polygon class="cls-6" points="163.47 381.97 163.76 387.93 118 388.15 117.28 382.55 163.47 381.97"/><polygon class="cls-6" points="222.97 386.99 257.23 387.06 257.23 392.95 222.9 392.95 222.97 386.99"/><polygon class="cls-2" points="146.45 150.07 150.3 211.03 117.79 216.34 146.45 150.07"/><polygon class="cls-7" points="167.83 145.85 146.45 150.07 140.7 205.64 174.89 193.2 175.18 192.84 199.48 158.87 167.83 145.85"/><polygon class="cls-8" points="172.34 163.6 164.85 165.27 146.45 150.07 164.63 141.63 181.94 140.9 172.34 163.6"/><polygon class="cls-9" points="197.08 165.71 177.58 184.4 175.18 192.84 177.36 197.71 197 217.5 249.09 161.41 248.72 149.41 227.63 140.39 197.08 165.71"/><polygon class="cls-10" points="199.91 206.08 200.2 197.64 193.8 188.55 175.18 192.84 186.38 205.21 199.91 206.08"/><polygon class="cls-11" points="208.21 200.19 193.8 188.55 199.91 206.08 206.75 206.15 208.21 200.19"/><polygon class="cls-7" points="139.25 245.87 138.44 274.46 187.33 304.5 192.56 234.08 179.91 228.48 158.16 232.99 139.25 245.87"/><polygon class="cls-9" points="181 231.9 187.33 304.5 240.21 267.84 241.23 212.92 216.28 219.32 181 231.9"/><polygon class="cls-7" points="136.41 220.92 139.25 245.87 181 231.9 162.96 211.75 140.7 205.64 136.41 220.92"/><polygon class="cls-7" points="179.03 230.52 163.61 220.05 164.71 204.41 179.84 195.39 199.91 206.08 197 217.5 179.03 230.52"/><polygon class="cls-2" points="261.02 196.84 236.06 224.63 207.99 220.41 199.91 206.08 248.72 149.41 261.02 196.84"/><polygon class="cls-9" points="117.79 216.34 140.7 205.64 139.25 245.87 117.79 216.34"/><polygon class="cls-7" points="199.91 206.08 179.03 230.52 211.99 252.92 236.06 224.63 199.91 206.08"/><polygon class="cls-10" points="158.45 216.48 164.27 205.13 167.76 188.98 140.7 205.64 158.45 216.48"/><polygon class="cls-9" points="179.84 195.39 181 231.9 158.45 216.48 167.76 188.98 179.84 195.39"/><polygon class="cls-10" points="227.05 97.18 228.5 107.44 224.5 139.01 218.39 162.65 176.13 176.11 176.13 156.25 178.24 145.34 181.94 140.9 212.21 70.12 225.88 85.62 227.05 97.18"/><polygon class="cls-12" points="218.39 162.65 192.64 170.87 175.18 192.84 165.8 165.85 182.16 158.5 222.68 146.07 218.39 162.65"/><path class="cls-10" d="M175.18,192.84l-10.4-27.72,13.46-19.78,3.85-1c.95,1.53,3.13,4.44,3.13,4.44l-3.06,9.75-10.54,9.16Z"/><polygon class="cls-11" points="188.56 117.19 214.03 135.74 182.16 158.5 154.96 131.16 188.56 117.19"/><polygon class="cls-11" points="226.03 85.62 216.28 89.84 228.5 107.44 230.75 92.31 226.03 85.62"/><path class="cls-10" d="M217.3,80.82,214,135.74l-23.57.58,6.76-37.39,12.51-29.68a8.16,8.16,0,0,0,6,3.71Z"/><path class="cls-10" d="M221.45,76.74l-4.15,4.08-2.77-4.59s-2.4-3.41-4.8-7l.66-1.53,4.43-23.78s8.44,1.31,8,2.18S221.45,76.74,221.45,76.74Z"/><polygon class="cls-12" points="220.13 55.28 218.61 61.9 216.28 89.84 230.75 92.31 234.97 63.94 220.13 55.28"/><polygon class="cls-10" points="210.68 9.53 218.83 9.6 238.1 41.39 234.97 63.94 218.61 61.9 216.06 48.45 204.5 30.99 210.68 9.53"/><polygon class="cls-12" points="143.1 33.46 138.08 14.84 176.49 0 218.83 9.6 209.73 25.75 143.1 33.46"/><polygon class="cls-10" points="191.76 32.23 209.73 25.75 216.06 48.45 214.53 76.23 206.31 103.29 191.76 32.23"/><path class="cls-13" d="M217.3,80.82,214,135.74l-23.57.58,6.76-37.39,10.9-27.06Z"/><polygon class="cls-12" points="138.08 14.84 128.7 35.28 132.92 107.15 152.12 134.21 192.27 133.7 202.31 123.15 207.04 102.64 209.73 25.75 191.18 15.93 160.92 20.66 138.08 14.84"/><polygon class="cls-10" points="139.83 60.59 132.7 64.23 158.16 92.89 165.22 88.67 173.07 92.89 199.26 61.9 188.13 59.21 176.13 64.16 167.32 67 166.16 68.52 162.89 67.14 155.03 63.43 146.45 61.47 139.83 60.59"/><path class="cls-12" d="M132.92,107.15l1.74,14.77,17.24,13.82,38.56.58,14.47-12.08,2.11-21.6-11.86,10L182.09,97l-11-2.55-11.06.22-11.86,2.47-5.82,16.22Zm19.35-3.93h0l13.31-4,15.49,3.57,5.38,16.87-36.8-.44Z"/><polygon class="cls-14" points="218.83 9.6 238.1 41.39 234.97 63.94 218.61 61.9 209.73 25.75 218.83 9.6"/><polygon class="cls-14" points="160.92 20.66 138.08 14.84 176.49 0 218.83 9.6 209.73 25.75 191.18 15.93 160.92 20.66"/><path class="cls-13" d="M132.92,107.15l1.74,14.77,17.24,13.82,38.56.58,14.47-12.08,2.11-21.6-11.86,10L182.09,97l-11-2.55-11.06.22-11.86,2.47-5.82,16.22Zm19.35-3.93h0l13.31-4,15.49,3.57,5.38,16.87-36.8-.44Z"/><polygon class="cls-10" points="143.68 88.31 137.86 90.35 134.59 82.64 143.68 88.31"/><polygon class="cls-10" points="191.84 88.6 198.97 91.51 202.24 81.4 191.84 88.6"/><polygon class="cls-11" points="229.44 70.27 223.04 69.32 221.81 83.14 229.44 70.27"/><polygon class="cls-8" points="192.64 170.87 228.87 168.11 232.65 142.5 225.3 132.54 192.64 170.87"/><polygon class="cls-11" points="161.65 89.47 158.16 92.89 165.58 99.22 173.07 92.89 161.65 89.47"/><polygon class="cls-15" points="173.22 60.67 178.38 61.61 188.49 57.03 199.4 61.1 199.26 61.9 188.56 60.59 176.13 64.16 173.22 60.67"/><polygon class="cls-15" points="158.59 61.61 153.65 61.76 139.46 58.48 132.19 63.43 132.7 64.23 140.77 61.47 155.03 63.43 158.59 61.61"/><polygon class="cls-10" points="166.16 53.54 165.94 61.54 172.2 64.89 166.16 53.54"/><polygon class="cls-10" points="163.47 56.88 162.67 61.32 159.03 63.36 163.47 56.88"/><polygon class="cls-16" points="162.89 67.14 158.16 92.89 173.07 92.89 167.32 67 162.89 67.14"/><polygon class="cls-11" points="153.21 108.24 162.16 106.13 165.36 107.08 169.14 105.98 179.4 108.17 179.4 109.55 169.58 108.53 165.29 109.41 161.65 108.75 153.58 109.55 153.21 108.24"/><path class="cls-15" d="M286.55,370.26a18.33,18.33,0,0,0,.95,6l19.78-2,18-12.07a20.17,20.17,0,0,0-38.7,8Z"/><path class="cls-15" d="M287.5,376.3a20.18,20.18,0,0,0,39.42-6,19.7,19.7,0,0,0-1.67-8Z"/><path class="cls-4" d="M252.51,364.15l8.21-.08,4.66,7-8.29-.37Zm4.29,2.25h0l1.53,2.19,2.69.07-1.53-2.26Z"/><path class="cls-4" d="M267.71,377.39l-2.33-6.33,7.78.51,3.35,7.63Zm2.18-1.53h0l2.77.51-1-2.33-2.48-.15Z"/><path class="cls-4" d="M287.5,376.3l-5.9-1.82-5.09,4.72,8.88,1.46Zm-3.13.43h0l-1,2-3.27-.51,1.89-1.75Z"/><path class="cls-10" d="M145,43.79l14.84,1.38s35.5-3,34.77-2.83S160.27,47,160.27,47Z"/><polygon class="cls-10" points="143.68 39.43 159.69 41.61 181.07 39.35 159.4 39.57 143.68 39.43"/><polygon class="cls-17" points="181 231.9 139.25 245.87 139.03 252.92 181.36 237.94 211.99 252.92 181 231.9"/><polygon class="cls-17" points="211.99 252.92 240.79 238.96 241.16 218.96 236.06 224.63 211.99 252.92"/><path class="cls-18" d="M151.18,69.18a3.35,3.35,0,0,1-6.7,0,3.35,3.35,0,1,1,6.7,0Z"/><path class="cls-18" d="M186.24,68.45a3.39,3.39,0,1,1-3.42-3.35A3.42,3.42,0,0,1,186.24,68.45Z"/></svg>