<svg id="Layer_1" data-name="Layer 1" xmlns="http://www.w3.org/2000/svg" viewBox="0 0 400 400"><defs><style>.cls-1,.cls-2{fill:#474748;}.cls-2{opacity:0.1;}.cls-3{fill:#f4cab2;}.cls-4{fill:#c18f7c;}.cls-5{fill:#4f5353;}.cls-6{fill:#fbe3d4;}.cls-7{fill:#2b2b2b;}.cls-8{fill:#fff0e8;}.cls-9{fill:#e1a940;}.cls-10{fill:#848585;}.cls-11{fill:#ba8e2d;}.cls-12{fill:#6f7273;}.cls-13{fill:#8e8e8e;}.cls-14{fill:#a2a1a1;}.cls-15{fill:#9b9fa0;}.cls-16{fill:#c3c3c3;}.cls-17{fill:#f0bc67;}.cls-18{fill:#737474;}</style></defs><title>Explorers_ESTP_famous_fictional_Ant_Man</title><g id="Ant_Man" data-name="Ant Man"><polygon class="cls-1" points="198.9 142.44 160.72 142.21 162.97 149.46 207.02 163.66 223.75 153.44 243.81 147.03 250.83 140.48 198.9 142.44"/><polygon class="cls-2" points="104.5 376.22 216.91 363.66 319.36 392.33 217.24 400 104.5 376.22"/><polygon class="cls-3" points="235.34 127.8 192.35 141.5 193.31 132.15 191.46 127.91 204.12 116.32 202.09 31.5 235.25 22.16 241.68 35.05 242.67 65.94 237.62 99.98 235.34 127.8"/><polygon class="cls-4" points="207.12 139.43 226.78 130.12 213.41 116.73 187.79 136.19 207.12 139.43"/><polygon class="cls-1" points="205.99 272.17 255.25 235.77 168.97 238.02 205.99 272.17"/><polygon class="cls-5" points="205.99 272.17 225.89 306.64 267.2 299.87 255.25 235.77 205.99 272.17"/><polygon class="cls-1" points="225.89 306.64 243.5 344.78 277.4 342 267.2 299.87 225.89 306.64"/><polygon class="cls-1" points="131.08 301.64 150.83 343.56 184.22 356.57 172.94 304.18 131.08 301.64"/><polygon class="cls-5" points="131.08 301.64 168.97 238.02 205.99 272.17 172.94 304.18 131.08 301.64"/><rect class="cls-5" x="130.29" y="373.97" width="56.93" height="4.51"/><polygon class="cls-1" points="130.29 373.97 130.29 370.42 155.26 356.57 184.22 356.57 187.22 373.97 130.29 373.97"/><polygon class="cls-5" points="155.26 356.57 184.22 356.57 178.9 331.85 147.29 336.06 155.26 356.57"/><polygon class="cls-1" points="175.29 136.47 175.29 137.42 236.55 134.73 235.82 132.43 175.29 136.47"/><polygon class="cls-5" points="175.29 137.42 175.29 139.86 237.29 136.96 236.55 134.73 175.29 137.42"/><polygon class="cls-5" points="235.82 132.43 235.34 129.82 180.99 134.15 175.29 136.47 235.82 132.43"/><polygon class="cls-1" points="235.34 129.82 235.34 127.8 184.36 131.48 180.99 134.15 235.34 129.82"/><polygon class="cls-1" points="175.29 139.86 175.29 142.01 237.99 139.43 237.29 136.96 175.29 139.86"/><polygon class="cls-5" points="175.29 142.01 173.06 142.28 208.81 147.01 240.83 140.86 237.99 139.43 175.29 142.01"/><polygon class="cls-5" points="243.5 344.78 277.4 342 283.72 369.46 254.2 371.07 243.5 344.78"/><polygon class="cls-1" points="254.2 371.07 251.95 388.14 292.1 388.14 283.72 369.46 254.2 371.07"/><rect class="cls-5" x="251.95" y="388.14" width="40.15" height="4.19"/><polygon class="cls-6" points="139.35 41.55 145.49 111.5 169.2 137.42 189.62 136.19 213.41 116.73 210.63 30.77 239.28 20.16 202.44 2.02 154.85 8.93 139.35 41.55"/><polygon class="cls-4" points="235.89 107.67 224.55 97.14 231.26 95.63 237.57 101.34 235.89 107.67"/><polygon class="cls-6" points="231.37 63.98 224.55 97.14 237.57 101.34 243.16 67.77 231.37 63.98"/><polygon class="cls-4" points="231.78 75.02 232.23 86.23 237.28 77.47 231.78 75.02"/><polygon class="cls-1" points="209.69 50.52 219.56 64.9 219.4 87.96 225.91 90.51 231.37 63.98 243.16 67.77 241.13 21.42 228.91 10.54 206.91 35.63 209.69 50.52"/><polygon class="cls-5" points="206.91 35.63 197.32 27.89 207.27 0 228.91 10.54 206.91 35.63"/><polygon class="cls-1" points="197.32 27.89 175.75 26.16 182.61 0 207.27 0 197.32 27.89"/><polygon class="cls-5" points="175.75 26.16 182.61 0 155.78 3.52 152.35 31.44 165.13 27.89 175.75 26.16"/><polygon class="cls-1" points="152.35 31.44 144.39 43.2 136.42 14.48 155.78 3.52 152.35 31.44"/><polygon class="cls-5" points="136.42 14.48 138.53 41.1 139.41 57.75 142.5 69.72 144.39 43.2 136.42 14.48"/><polygon class="cls-3" points="165.9 94.57 170.54 74.13 163.41 66.03 151.8 62.08 144.65 66.03 160.52 70.67 165.9 94.57"/><ellipse class="cls-7" cx="160.26" cy="71.02" rx="3.15" ry="3.06"/><polygon class="cls-3" points="184.48 94.57 193.94 70.41 208.69 64.9 201.18 61.2 185.48 64.9 177.18 73.47 184.48 94.57"/><ellipse class="cls-7" cx="194.61" cy="70.41" rx="3.15" ry="3.06"/><polygon class="cls-1" points="185.48 64.9 185.48 61.2 202.07 59.26 208.69 64.9 199.41 63.45 185.48 64.9"/><polygon class="cls-1" points="163.41 66.03 163.41 61.2 149.47 61.2 144.65 66.03 150.8 64.26 163.41 66.03"/><polygon class="cls-8" points="170.54 74.13 165.9 94.57 184.48 94.57 177.18 73.47 170.54 74.13"/><polygon class="cls-5" points="277.4 251.07 273.29 208.41 305.02 205.97 299.38 258.8 277.4 251.07"/><polygon class="cls-1" points="140.91 160.25 120.71 196.51 148.35 208.41 163.44 191.59 164.34 196 168.52 226.02 168.97 238.02 255.25 235.77 249.21 203.55 252.51 186.8 256.54 184.71 273.29 208.41 305.02 205.97 292.05 172.79 288.27 163.12 267.2 150.4 151.65 153.99 140.91 160.25"/><polygon class="cls-9" points="219.11 234.25 236.08 249.93 247.48 295.36 259.75 306.64 268.84 306.64 254.77 230.45 219.11 234.25"/><polygon class="cls-9" points="137.4 291.05 144.42 288.6 173.9 245.11 195.81 230.45 170.79 232.38 137.4 291.05"/><polygon class="cls-4" points="165.9 94.57 174.53 100.53 184.48 94.57 165.9 94.57"/><polygon class="cls-3" points="160.52 106.49 169.55 113.9 181.31 114.9 194.61 108.1 160.52 106.49"/><polygon class="cls-4" points="160.52 106.49 194.61 108.1 175.69 110.52 163.47 108.91 160.52 106.49"/><polygon class="cls-5" points="219.56 64.9 242.26 47.35 241.13 21.42 209.69 50.52 219.56 64.9"/><polygon class="cls-9" points="194.36 187.12 207.89 181.49 218.36 187.12 211.44 230.45 195.81 230.45 194.36 187.12"/><polygon class="cls-9" points="189.53 187.28 190.5 230.45 179.22 230.45 171.97 187.28 177.77 182.77 189.53 187.28"/><polygon class="cls-9" points="207.89 181.49 208.86 173.59 259.75 157.65 277.32 167.63 286.34 167.47 288.27 163.12 274.77 142.18 249.77 140.89 236.6 148.63 195.17 155.71 162.97 149.46 160.72 142.21 146.87 148.93 140.91 160.25 141.36 166.56 156.8 169.6 162.32 167.86 177.61 176.49 177.77 182.77 207.89 181.49"/><polygon class="cls-9" points="213.97 184.76 252.83 165.86 256.54 167.63 216.52 186.13 213.97 184.76"/><polygon class="cls-9" points="237.45 164.63 252.51 186.8 256.54 184.71 240.95 163.53 237.45 164.63"/><polygon class="cls-9" points="173.46 186.13 162.95 179.23 162.95 176 174.95 184.97 173.46 186.13"/><polygon class="cls-9" points="169.2 171.74 163.44 191.59 164.34 196 171.38 172.97 169.2 171.74"/><polygon class="cls-9" points="279.09 178.75 292.3 206.61 305.02 205.97 292.05 172.79 290.04 178.1 279.09 178.75"/><polygon class="cls-10" points="177.29 235.77 177.29 227.76 234.15 226.02 235.16 233.67 177.29 235.77"/><polygon class="cls-11" points="292.3 206.61 292.3 217.89 307.44 219.34 305.02 205.97 292.3 206.61"/><polygon class="cls-12" points="289.24 217.73 285.53 264.76 297.93 268.3 313.24 217.73 289.24 217.73"/><polygon class="cls-13" points="232.86 216.28 237.45 219.34 256.54 219.34 252.35 216.28 232.86 216.28"/><polygon class="cls-14" points="237.45 219.34 239.3 235.77 257.5 235.77 256.54 219.34 237.45 219.34"/><polygon class="cls-12" points="237.45 219.34 232.86 216.28 235.16 233.67 239.3 235.77 237.45 219.34"/><circle class="cls-14" cx="194.28" cy="233.75" r="8.94"/><circle class="cls-9" cx="194.28" cy="233.75" r="5.99"/><polygon class="cls-15" points="177.29 237.8 177.29 226.02 166.34 226.02 166.34 238.02 168.97 238.02 177.29 237.8"/><polygon class="cls-16" points="162.97 149.46 195.17 155.71 236.6 148.63 237.06 151.82 197.82 158.85 193.48 170.69 190.35 157.87 162.97 151.82 162.97 149.46"/><polygon class="cls-17" points="240.95 163.53 241.85 151.94 254.77 141.43 250.83 140.48 236.6 148.63 237.06 151.82 237.45 164.63 240.95 163.53"/><polygon class="cls-17" points="171.38 172.97 162.97 151.82 162.97 149.46 160.72 142.21 156.95 144.03 159.11 150.62 159.53 153.02 169.2 171.74 171.38 172.97"/><polygon class="cls-1" points="266.69 268.3 274.42 274.58 294.55 273.3 297.93 268.3 285.53 264.76 286.72 249.62 277.4 251.07 265.86 263.31 266.69 268.3"/><polygon class="cls-16" points="215.28 226.6 221.66 188.5 245.57 176.59 247.48 179.39 225.06 192.13 220.16 226.45 215.28 226.6"/><polygon class="cls-16" points="174.95 226.02 171.08 189.09 167.47 185.78 166.64 188.5 169.36 190.81 171.97 226.02 174.95 226.02"/><polygon class="cls-5" points="277.4 251.07 277.4 259.28 270.39 261.54 266.69 268.3 261.85 264.6 263.79 259.69 270.39 253.97 277.4 251.07"/><polygon class="cls-5" points="120.71 196.51 103.42 223.76 120.67 233.75 148.35 208.41 120.71 196.51"/><polygon class="cls-1" points="104.38 229.75 103.42 223.76 110.57 207.94 135 221.04 132.81 229.5 123.09 238.3 104.38 229.75"/><polygon class="cls-5" points="134.04 233.75 140.56 224.33 135 221.04 126.75 230.89 134.04 233.75"/><polygon class="cls-9" points="132.36 175.59 120.71 196.51 123.29 197.81 136.75 175 132.36 175.59"/><polygon class="cls-9" points="220.16 296.72 239.78 294.4 251.95 306.64 247.48 322.33 234.78 325.89 220.16 296.72"/><polygon class="cls-9" points="137.4 291.05 147.29 299.87 151.37 317.59 142.75 325.89 131.08 301.64 137.4 291.05"/><polygon class="cls-9" points="172.94 304.18 163.44 313.73 184.22 356.57 172.94 304.18"/><polygon class="cls-9" points="270.38 312.99 265.86 319.52 281.43 359.5 270.38 312.99"/></g><g id="Helmet"><polygon class="cls-12" points="146.36 184.48 149.06 183.03 155.38 199.57 157.8 201.19 165.77 228.54 147.24 255.67 144.88 249.81 137.71 199.18 151.61 199.03 146.36 184.48"/><polygon class="cls-16" points="91.97 211.63 95.83 238.49 105.06 252.95 123.55 261.26 129.69 250.47 119.43 228.16 109.5 202.99 91.97 211.63"/><polygon class="cls-15" points="129.69 250.47 144.88 249.81 156.65 236 148.44 226.15 125.31 232.44 121.79 235.76 129.69 250.47"/><polygon class="cls-15" points="156.65 236 159.25 231.31 143.33 206.58 142.87 190.93 131.66 182.64 123.32 191.37 133.1 221.25 156.65 236"/><polygon class="cls-13" points="96.16 212.53 111.91 241.88 139.29 224.94 124.44 188.85 94 205.19 96.16 212.53"/><polygon class="cls-16" points="100.4 239.6 106.12 250.24 115.96 250.62 121.24 243.76 119.72 237.69 129.92 230.56 148.44 226.15 145.76 217.08 128.99 222.6 124.3 230.6 118.92 233.46 108.41 232.78 100.4 239.6"/><polygon class="cls-1" points="125.31 232.44 132.08 222.59 144.59 218.98 148.44 226.15 146.93 231.16 141.35 237.63 131.31 238.85 125.31 232.44"/><polygon class="cls-1" points="119.64 235.67 110.67 234.63 103.36 238.56 102.56 240.81 106.49 248.12 115.96 250.62 121.24 243.76 119.64 235.67"/><polygon class="cls-9" points="128.02 232.72 130.93 236.28 140.75 234.48 145.72 226.87 142.82 221.48 132.65 224.66 128.02 232.72"/><polygon class="cls-9" points="119.69 241.04 118.56 237.07 111.43 236.05 104.5 240.69 108.03 246.56 114.07 248.11 119.69 241.04"/><polygon class="cls-1" points="97.74 213.19 127.97 196.96 124.44 188.85 107.43 191.4 96.56 202.31 97.74 213.19"/><polygon class="cls-1" points="125.31 232.44 119.64 235.67 119.72 237.69 126.92 233.4 125.31 232.44"/><polygon class="cls-9" points="104.26 236.31 93.79 209.41 96.92 205.54 108.41 232.78 104.26 236.31"/><polygon class="cls-9" points="133.1 221.25 139.24 219.23 128.81 190.61 123.32 191.37 133.1 221.25"/><polygon class="cls-5" points="91.97 211.63 100.12 202.73 103.76 195.29 113.84 190.56 117.16 193.1 131.03 190.66 131.66 182.64 116.69 184.64 100.62 193.27 92.54 201.72 91.97 211.63"/><polygon class="cls-16" points="142.87 190.93 151.81 200.75 156.55 208.23 161.11 220.81 156.02 226.28 143.33 206.58 142.87 190.93"/><polygon class="cls-16" points="157.8 201.19 169.1 225.47 168.01 241.05 150.99 262.64 147.24 255.67 165.77 228.54 157.8 201.19"/><polygon class="cls-16" points="129.71 271.12 127.98 266.02 107.56 260.34 114.13 268.15 129.71 271.12"/><polygon class="cls-12" points="127.98 266.02 107.56 260.34 102.08 255.24 95.83 238.49 105.06 252.95 123.55 261.26 127.98 266.02"/><circle class="cls-18" cx="137.77" cy="261.47" r="14.57"/><circle class="cls-13" cx="137.67" cy="266.14" r="9.36"/><circle class="cls-5" cx="137.29" cy="266.59" r="6.68"/></g></svg>