<svg id="Layer_1" data-name="Layer 1" xmlns="http://www.w3.org/2000/svg" viewBox="0 0 400 400"><defs><style>.cls-1{fill:#82624d;}.cls-2{fill:#1c7678;}.cls-2,.cls-3,.cls-4,.cls-5,.cls-6{fill-rule:evenodd;}.cls-3{fill:#d06b5a;}.cls-4{fill:#aa4943;}.cls-5{fill:#c16053;}.cls-6{fill:#50a8a9;}.cls-17,.cls-7{fill:#2b2b2b;}.cls-7{opacity:0.1;}.cls-8{fill:#cfaa91;}.cls-9{fill:#b38b71;}.cls-10{fill:#ab913c;}.cls-11{fill:#8c7c2f;}.cls-12{fill:#9d7700;}.cls-13{fill:#74665b;}.cls-14{fill:#46382d;}.cls-15{fill:#e4c728;}.cls-16{fill:#d7bba8;}.cls-18{fill:#e1a842;}.cls-19{fill:#f1bc68;}.cls-20{fill:#bb8e2d;}.cls-21{fill:#b48a00;}.cls-22{fill:#fff;}.cls-23{fill:#8e7e73;}.cls-24{fill:#5e5044;}.cls-25{fill:#755800;}.cls-26{fill:#f3d65d;}.cls-27{fill:#cbac14;}</style></defs><title>explorers_ESTP_famous_fictional_gabrielle_solis_desperate_housewives</title><polygon class="cls-1" points="139.45 199.35 138.3 187.74 132.13 200.49 139.45 199.35"/><polygon class="cls-2" points="120.77 151.35 124.1 168.18 125.27 169.05 126.57 150.47 120.77 151.35"/><polygon class="cls-3" points="118.16 184.75 108.42 182.44 113.99 168.55 135.65 167.34 143.27 179.54 136.17 183.07 118.16 184.75"/><polygon class="cls-4" points="135.65 167.34 143.27 179.54 136.17 183.07 127.75 182.83 108.42 182.44 135.65 167.34"/><polygon class="cls-5" points="129.4 197.56 143.27 179.54 108.42 182.44 110.45 187.74 111.12 191.61 119.95 201.44 129.4 197.56"/><polygon class="cls-4" points="134.73 199.35 143.27 179.54 116.28 195.85 134.73 199.35"/><polygon class="cls-6" points="135.65 167.34 124.1 168.18 137.89 156.53 135.65 167.34"/><polygon class="cls-7" points="119.28 391.45 199.82 374.15 268.46 388.67 196.22 400 119.28 391.45"/><polygon class="cls-8" points="257.81 307.67 252.21 337.68 236.79 362.44 229.28 334.67 223.89 297.83 257.81 307.67"/><polygon class="cls-9" points="252.21 337.68 247.59 362.44 233.58 362.44 229.28 334.67 252.21 337.68"/><polygon class="cls-9" points="173.44 327 166.01 362.44 183.5 359.14 196.37 331.83 197.21 310.47 173.44 327"/><polygon class="cls-8" points="179.81 297.83 173.44 327 196.37 331.83 215.39 297.83 179.81 297.83"/><polygon class="cls-10" points="223.62 386.66 221.77 391.45 247.59 391.45 250.03 379.74 247.59 362.44 244.71 362.44 223.62 386.66"/><polygon class="cls-11" points="247.59 362.44 254.08 372.5 252.09 391.45 247.59 391.45 247.59 362.44"/><polygon class="cls-10" points="183.5 359.14 172.84 386.66 140.26 386.66 144.78 381.99 178.48 359.14 183.5 359.14"/><polygon class="cls-11" points="183.5 359.14 188.12 371.51 183.5 386.66 177.71 386.66 176.29 377.5 183.5 359.14"/><polygon class="cls-8" points="223.62 386.66 241.57 386.66 244.71 362.44 233.58 362.44 223.62 386.66"/><polygon class="cls-8" points="144.78 381.99 168.35 381.99 178.48 359.14 166.9 359.14 144.78 381.99"/><polygon class="cls-1" points="177.71 307.67 205.39 316.42 210.1 307.67 209.05 279.41 177.71 307.67 177.71 307.67"/><polygon class="cls-1" points="257.81 307.67 229.79 275.83 225.34 307.67 226.53 315.61 257.81 307.67"/><polygon class="cls-12" points="188.5 261.06 177.71 307.67 257.81 307.67 261 286.19 251.61 258.72 188.5 261.06"/><polygon class="cls-9" points="167.78 194.83 154.3 213.7 156.85 226.03 172.84 232.9 184.36 223.79 167.78 194.83"/><polygon class="cls-8" points="203.1 45.93 158.31 45.93 144.06 71.39 145.54 112.98 164.93 146.76 185.12 149.79 198.91 146.76 217.67 129.64 222.4 65.19 203.1 45.93"/><polygon class="cls-8" points="253.94 200.47 252.51 166.92 230.78 166.92 196.55 163.8 195.26 188.46 183.07 200.12 209.5 210.01 253.94 200.47"/><polygon class="cls-9" points="196.55 174.94 230.78 166.92 256.27 86.67 222.4 65.19 218.11 118.85 198.91 146.76 196.55 174.94"/><polygon class="cls-1" points="222.4 146.76 196.55 174.94 188.6 162.05 189.26 146.76 222.4 146.76"/><polygon class="cls-13" points="145.54 112.98 131.25 75.02 133.69 51.72 152.48 18.21 195.09 0 213.3 9.1 243.16 10.56 274.11 45.93 279.6 93.39 286.86 112.89 271.93 125.64 275.93 140.57 252.51 166.92 230.78 166.92 256.27 86.67 230.78 76.47 203.1 45.93 158.31 45.93 143.74 60.09 145.54 112.98"/><polygon class="cls-8" points="139.45 199.35 175.21 231.03 157.56 245.5 132.02 210.01 131.83 200.07 128.59 199.35 139.45 199.35"/><polygon class="cls-9" points="139.45 199.35 115.7 193.73 108.42 182.44 104.05 184.27 110.06 197.99 132.02 210.01 139.45 199.35"/><polygon class="cls-8" points="241.48 80.76 238.61 101.97 250.97 103.36 256.27 86.67 241.48 80.76"/><polygon class="cls-1" points="253.32 85.49 243.52 95.05 245.12 82.21 253.32 85.49"/><polygon class="cls-1" points="238.61 101.97 239.56 107.47 248.42 111.38 250.97 103.36 238.61 101.97"/><polygon class="cls-1" points="239.51 119.63 244.55 123.66 245.55 120.56 243.52 113.26 239.51 119.63"/><polygon class="cls-14" points="230.78 76.47 239.37 96.34 241.48 80.76 230.78 76.47"/><rect class="cls-11" x="239.23" y="103.7" width="11.84" height="4.29" transform="translate(113.87 338.37) rotate(-83.9)"/><polygon class="cls-15" points="239.56 119.86 237.67 110.96 239.56 107.47 249.38 108.52 245.55 120.56 239.56 119.86"/><polygon class="cls-16" points="174.69 80.12 179.79 80.12 181.43 106.67 172.15 106.67 174.69 80.12"/><polygon class="cls-9" points="179.79 80.12 184.21 74.78 197.55 69.56 208.97 73.02 192.72 86.41 181.43 106.67 179.79 80.12"/><polygon class="cls-14" points="184.21 74.78 185.52 71.39 197.88 68.01 208.97 73.02 197.88 70.75 184.21 74.78"/><polygon class="cls-9" points="174.69 80.12 171.21 75.38 160.25 69.56 149.86 73.02 163.13 86.17 172.67 101.2 174.69 80.12"/><path class="cls-17" d="M197.27,84.05a4.34,4.34,0,1,1-4.33-4.34A4.33,4.33,0,0,1,197.27,84.05Z"/><path class="cls-17" d="M167.09,84a4.42,4.42,0,1,1-4.42-4.42A4.42,4.42,0,0,1,167.09,84Z"/><polygon class="cls-1" points="172.15 106.67 176.79 111.38 181.43 106.67 172.15 106.67"/><polygon class="cls-14" points="171.21 75.38 170 72 159.31 68.61 149.86 73.02 159.05 71.16 171.21 75.38"/><polygon class="cls-18" points="223.76 231.03 244.79 211.7 247.26 197.99 190.13 197.99 176.46 211.7 223.76 231.03"/><polygon class="cls-19" points="243.6 166.92 234.33 197.99 247.26 197.99 252.51 166.92 243.6 166.92"/><polygon class="cls-14" points="196.55 174.94 198.73 197.99 176.46 211.7 166.81 196.18 176.46 175.73 160.41 167.88 173.01 146.76 189.26 146.76 196.55 174.94"/><polygon class="cls-20" points="176.46 211.7 232.55 211.7 257.62 242.9 250.15 258.7 224.21 261.06 188.5 261.06 176.46 211.7"/><polygon class="cls-9" points="198.73 197.99 204.37 185.2 204.37 197.99 198.73 197.99"/><polygon class="cls-21" points="164.31 120.57 173.8 129.16 184.79 129.16 193.86 120.57 190.86 120.57 177.64 122.6 167.81 120.57 164.31 120.57"/><polygon class="cls-22" points="166.41 120.73 174.33 125.5 183.72 125.5 191.98 120.68 177.37 121.3 166.41 120.73"/><polygon class="cls-23" points="138.56 53.46 131.25 75.02 133.69 51.72 138.56 53.46"/><polygon class="cls-23" points="173.01 45.93 213.3 9.1 243.16 10.56 173.01 45.93"/><polygon class="cls-23" points="232.55 30.45 258 27.52 274.11 45.93 250.97 65.19 232.55 30.45"/><polygon class="cls-24" points="250.97 65.19 232.55 30.45 203.72 30.45 173.01 45.93 203.1 45.93 230.78 76.47 256.27 86.67 279.6 93.39 250.97 65.19"/><polygon class="cls-13" points="203.1 45.93 232.55 30.45 250.97 65.19 230.78 76.47 203.1 45.93"/><polygon class="cls-24" points="152.48 18.21 173.01 45.93 154.52 35.73 152.48 18.21"/><polygon class="cls-24" points="256.27 86.67 271.93 125.64 286.86 112.89 256.27 86.67"/><polygon class="cls-23" points="286.86 112.89 279.6 93.39 256.27 86.67 286.86 112.89"/><polygon class="cls-24" points="275.93 140.57 237.67 145.22 230.78 166.92 252.51 166.92 275.93 140.57"/><polygon class="cls-23" points="160.41 167.88 189.26 146.76 164.93 146.76 160.41 167.88"/><polygon class="cls-23" points="172.63 177.48 186.61 188.46 166.81 196.18 172.63 177.48"/><polygon class="cls-14" points="160.41 167.88 198.73 197.99 196.55 174.94 189.26 146.76 160.41 167.88"/><polygon class="cls-9" points="188.6 110.03 198.91 118.53 197.21 124.69 203.1 117.36 188.6 110.03"/><polygon class="cls-9" points="168.4 109.99 159.77 118.22 161.65 125.13 156.47 117.56 168.4 109.99"/><polygon class="cls-25" points="190.81 119.37 181.43 117.56 177.76 119.33 174.15 117.56 166.41 119.44 163.13 119.33 164.31 120.57 177.85 122.07 193.86 120.57 194.93 119.33 190.81 119.37"/><polygon class="cls-14" points="158.31 45.93 173.01 45.93 154.52 35.73 138.56 53.46 131.25 75.02 144.53 88.38 144.06 71.39 158.31 45.93"/><polygon class="cls-24" points="173.01 158.66 198.73 197.99 160.41 167.88 173.01 158.66"/><polygon class="cls-15" points="295.95 261.06 224.21 261.06 236.25 231.03 286.86 231.03 295.95 261.06"/><polygon class="cls-26" points="288.35 211.7 230.61 211.7 240.62 231.24 259.13 232.11 288.04 232.11 290.96 228.68 288.35 211.7"/><polygon class="cls-8" points="252.51 166.92 285.46 229.58 259.63 269.17 249.38 261 259.13 232.11 244.79 211.7 252.51 166.92"/><polygon class="cls-8" points="249.38 261 229.79 275.83 236.25 286.83 241.79 297.83 253.94 284.5 259.63 269.17 249.38 261"/><polygon class="cls-9" points="226.63 293.17 241.79 297.83 253.94 284.5 229.79 275.83 226.63 293.17"/><polygon class="cls-9" points="285.46 229.58 259.13 232.11 249.38 261 259.63 269.17 285.46 229.58"/><polygon class="cls-27" points="240.62 231.24 224.21 261.06 230.61 211.7 240.62 231.24"/><polygon class="cls-27" points="295.95 261.06 283.3 232.9 285.46 229.58 290.96 228.68 295.95 261.06"/></svg>