<svg id="Layer_1" data-name="Layer 1" xmlns="http://www.w3.org/2000/svg" viewBox="0 0 400 400"><defs><style>.cls-1{fill:#ab913c;}.cls-1,.cls-10,.cls-11,.cls-12,.cls-13,.cls-14,.cls-15,.cls-16,.cls-17,.cls-18,.cls-19,.cls-2,.cls-20,.cls-21,.cls-22,.cls-3,.cls-4,.cls-5,.cls-6,.cls-7,.cls-8,.cls-9{fill-rule:evenodd;}.cls-2,.cls-23{fill:#2b2b2b;}.cls-2{opacity:0.1;}.cls-3{fill:#9c782c;}.cls-4{fill:#bc8f2d;}.cls-5{fill:#836528;}.cls-6{fill:#f3d65c;}.cls-7{fill:#e4c723;}.cls-8{fill:#6f7273;}.cls-9{fill:#8e8e8e;}.cls-10{fill:#dcdcdb;}.cls-11{fill:#c3c3c3;}.cls-12{fill:#cecdcc;}.cls-13{fill:#f4cab2;}.cls-14{fill:#fbe3d4;}.cls-15{fill:#c8ac9a;}.cls-16{fill:#cbad2d;}.cls-17{fill:#b38b2e;}.cls-18{fill:#ebebea;}.cls-19{fill:#a2a1a1;}.cls-20{fill:#c18f7c;}.cls-21{fill:#fff0e8;}.cls-22{fill:#8c7c2f;}</style></defs><title>explorers_ESTP_famous_fictional_hank_schrader_breaking_bad</title><polygon class="cls-1" points="270.72 242.95 276.96 263.64 257.65 269.57 253.91 244.63 270.72 242.95"/><polygon class="cls-2" points="104.55 380.6 202.04 400 298.09 386.47 200.84 372.93 104.55 380.6"/><polygon class="cls-3" points="229.46 373.55 220.19 383.63 220.44 390.61 259.05 390.63 259.29 384.13 229.46 373.55"/><polygon class="cls-4" points="228.9 354.26 225.04 363.66 220.19 383.63 259.29 384.13 250.12 363.44 228.9 354.26"/><polygon class="cls-3" points="145.97 366.81 126.96 373.79 127.36 381.29 179.64 381.49 179.64 373.55 145.97 366.81"/><polygon class="cls-4" points="166.65 336.99 153.9 350.21 126.96 373.79 179.64 373.55 179.64 358.63 166.65 336.99"/><polygon class="cls-3" points="152.76 248.03 152.2 266.52 152.73 312.75 166.2 330.09 190.88 324.71 202.8 286.99 185.41 256.56 152.76 248.03"/><polygon class="cls-5" points="152.73 312.75 153.9 350.21 179.64 358.63 190.88 324.71 152.73 312.75"/><path class="cls-3" d="M201.77,256.32l1,30.67,11.89,41.08c3.75-.92,8.9,7.89,19.51,5.46,6.5-1.49,14.29-11,19.69-12.26l3.76-51.7L238.07,243Z"/><path class="cls-5" d="M214.69,328.07,225,363.66l25.08-.22,3.77-42.17C239.68,324.51,220.75,326.59,214.69,328.07Z"/><polygon class="cls-5" points="147.97 245.38 152.2 266.52 202.8 286.99 257.65 269.57 215.69 233.84 147.97 245.38"/><path class="cls-6" d="M142.75,221.44,122.4,206.2l22.7-54.93,19.8,24.51s-7.56,47.25-6.22,46.14S142.75,221.44,142.75,221.44Z"/><polygon class="cls-7" points="132.84 235.84 122.4 206.2 148.53 207.43 166.51 227.45 158.42 234.36 159.86 228.87 148.71 229.56 132.84 235.84"/><polygon class="cls-6" points="148.49 242.85 137.75 246.22 132.84 235.84 148.95 226.07 159.86 228.87 158.42 234.36 148.49 242.85"/><path class="cls-8" d="M166.93,243.63,182,246.82l2.76-12.1,10.32-4.24L152.6,228l-1.82,8.16,9.86,6.34,6.29,1.11Zm34.16,3.4,24.08-1.59,26,3.08-.9-22.24-52.46,4.19Z"/><path class="cls-9" d="M182,246.82l19.09.21c-.27-3.89-.44-13.74-.52-16.58l-5.49,0c-6,.93-14.64,1.83-14.64,1.83Z"/><polygon class="cls-10" points="206.84 229.56 187.9 236.01 153.49 232.6 164.63 150.46 205.26 135.09 206.84 229.56"/><polygon class="cls-11" points="206.67 176.01 206 179.41 198.42 181.91 206.07 183.52 206.31 197.58 203.23 202.46 191.61 187.46 171.6 169.51 162.84 160.37 173.93 163.46 192.8 183.18 206.67 176.01"/><polygon class="cls-12" points="213.82 139.96 198.75 153.07 194.84 180.04 194.8 180.25 193 206.54 188.11 218.56 187.9 236.01 249.11 234.63 251.42 154.39 213.82 139.96"/><path class="cls-1" d="M235.17,203.81l-14.68,11.53,22,28.91,5.71,8.57s27.7-39.37,27.74-40.74-15.53-12.83-14.58-12.78S235.17,203.81,235.17,203.81Z"/><polygon class="cls-13" points="250.65 243.35 242.46 244.25 225.17 245.44 225.47 252.38 235.54 252.89 248.17 252.82 250.65 243.35"/><polygon class="cls-14" points="259.14 240.19 242.46 244.25 235.54 252.89 257.65 269.57 262.75 254.17 259.14 240.19"/><polygon class="cls-15" points="200.56 182.36 194.9 195.08 193 206.54 210.12 200.16 214.1 180.22 231.73 170.95 229.89 164.54 200.56 182.36"/><polygon class="cls-16" points="166.97 172.92 173.44 140.65 145.1 151.27 148.53 207.43 155.23 214.03 171.16 213.62 166.97 172.92"/><polygon class="cls-1" points="148.53 207.43 148.95 226.07 150.78 236.18 154.69 244.23 171.16 213.62 148.53 207.43"/><polygon class="cls-17" points="171.4 161.73 172.71 164.22 179.77 175.24 197.57 183.35 212.15 178.53 229.8 167.61 227.39 162.79 206.53 176.71 184.88 175.67 177.56 162.14 171.4 161.73"/><polygon class="cls-18" points="167.91 166.27 198.75 153.07 230.18 167.72 234.79 151.84 235.45 137.65 230.73 127.48 201.07 134.4 178.15 131.68 173.44 140.65 167.91 166.27"/><polygon class="cls-16" points="236.38 184.07 235.45 137.65 265.2 146.97 266.54 208.32 261.66 210.32 220.49 215.34 236.38 184.07"/><polygon class="cls-6" points="244.66 187.8 235.45 137.65 220.49 215.34 244.66 187.8"/><polygon class="cls-6" points="261.66 210.32 265.2 146.97 293.27 211.18 276.61 220.69 261.66 210.32"/><polygon class="cls-13" points="185.51 124.56 198.83 153.07 230.73 127.48 236.16 90.84 231 86.74 236.13 46.16 230.81 23.33 222.14 9.37 195.05 46.94 185.51 124.56"/><polygon class="cls-19" points="232.49 64.25 240.86 59.14 235.13 48.39 228.66 42.7 216.29 54.18 224.2 73.81 232.49 64.25"/><polygon class="cls-19" points="240.86 59.14 242.86 42.68 230.81 23.33 228.66 42.7 240.86 59.14"/><polygon class="cls-20" points="236.16 90.84 237.14 84.27 221.08 82.33 236.16 90.84"/><polygon class="cls-14" points="237.14 84.27 240.86 59.14 222.48 57.08 221.08 82.33 237.14 84.27"/><polygon class="cls-20" points="200.29 115.39 196.02 129.33 213.51 129.33 198.83 153.07 165.84 123.75 200.29 115.39"/><polygon class="cls-14" points="178.66 0 143.21 10.04 129.38 39.02 134.83 104.55 155.02 129.33 196.02 129.33 210.74 101.84 211.11 41.23 222.14 9.37 178.66 0"/><polygon class="cls-20" points="160.93 85.57 159.54 88.24 166.17 91.92 170.47 87.74 160.93 85.57"/><polygon class="cls-13" points="144.71 52.68 138.19 57.08 148.66 67.17 159.13 79.88 170.47 87.74 180.5 71.5 198.17 54.96 189.81 51.51 170.97 57.81 169.02 60.59 166.9 62.71 163.78 60.48 162.38 57.66 144.71 52.68"/><polygon class="cls-13" points="144.74 38.26 165.14 38.99 180.08 36.14 164.7 41.22 144.74 38.26"/><polygon class="cls-13" points="153.18 42.25 165.22 43.09 187.24 40.25 165.5 45.35 153.18 42.25"/><polygon class="cls-19" points="170.74 56.36 190.59 49.39 198.73 53.63 198.17 54.96 190.14 53.51 170.97 57.81 170.74 56.36"/><polygon class="cls-19" points="162.54 56.05 143.93 50.62 137.41 55.74 138.19 57.08 144.82 54.18 162.38 57.66 162.54 56.05"/><polygon class="cls-21" points="163.78 60.48 159.13 79.88 159.54 88.24 170.47 87.74 169.58 79.69 169.02 60.59 163.78 60.48"/><polygon class="cls-13" points="143.11 66.2 150.37 70.17 144.13 71.44 143.11 66.2"/><polygon class="cls-13" points="183.8 69.75 191.59 65.88 189.31 71.63 183.8 69.75"/><polygon class="cls-13" points="148 102.51 159.54 88.24 152.91 90.81 148 102.51"/><polygon class="cls-13" points="186.13 100.17 170.47 87.74 178.33 88.69 186.13 100.17"/><polygon class="cls-13" points="166.45 99.5 164.69 96.03 166.17 91.92 168.05 95.8 166.45 99.5"/><polygon class="cls-20" points="154.47 105.75 166.73 101.84 182.78 104.74 183.01 106.81 166.57 104.03 154.75 107.25 154.47 105.75"/><polygon class="cls-20" points="234.56 63.5 228.18 62.76 227.05 74.38 234.56 63.5"/><polygon class="cls-6" points="171.16 213.62 173.44 140.65 153.16 183.23 171.16 213.62"/><polygon class="cls-1" points="196.21 170.61 212.15 178.53 207.76 197.52 193 206.54 180.33 195 179.77 175.24 196.21 170.61"/><polygon class="cls-22" points="195.76 174.13 183.33 177.9 183.56 193.9 193.31 202.59 205.41 195.69 208.71 180.28 195.76 174.13"/><path class="cls-1" d="M198.39,192.4l1.43-11,3.09.42,1.8,9.08-2.05.42-.64-2.61-1.17-.19-.72,3.62-1.74.3Zm2.64-6h.89l-.56-1.76Z"/><polygon class="cls-1" points="192.87 180.75 191.65 191.76 193.99 192.49 197.02 192.76 197.42 191.85 197.25 191.44 193.85 190.16 193.97 188.09 196.52 188.25 196.87 186.21 193.91 185.41 194.52 183.08 197.56 182.67 197.31 181.01 192.87 180.75"/><path class="cls-1" d="M185.51,180.94l.29,11.21,3.49-1,2.27-5.78-2.74-4.48-3.31.07Zm2,3,2,1.27-2.22,4.12Z"/><polygon class="cls-14" points="137.75 246.22 150.78 236.18 160.85 243.18 160.72 250.17 152.2 266.52 137.75 246.22"/><polygon class="cls-13" points="150.78 236.18 169.2 244.12 168.66 249.05 160.72 250.17 150.78 236.18"/><polygon class="cls-13" points="167.8 52.78 169.65 58.16 167.19 56.4 167.8 52.78"/><polygon class="cls-13" points="165.4 52.93 166.07 56.34 163.42 57.88 165.4 52.93"/><polygon class="cls-7" points="261.66 210.32 242.46 244.25 262.75 254.17 293.27 211.18 261.66 210.32"/><path class="cls-23" d="M153.31,64.35A3.34,3.34,0,1,1,150,61,3.34,3.34,0,0,1,153.31,64.35Z"/><path class="cls-23" d="M186.57,64.35A3.34,3.34,0,1,1,183.23,61,3.34,3.34,0,0,1,186.57,64.35Z"/></svg>