<svg id="Layer_1" data-name="Layer 1" xmlns="http://www.w3.org/2000/svg" viewBox="0 0 400 400"><defs><style>.cls-1,.cls-24{fill:#2b2b2b;}.cls-1,.cls-10,.cls-11,.cls-12,.cls-13,.cls-14,.cls-15,.cls-16,.cls-17,.cls-18,.cls-19,.cls-2,.cls-20,.cls-22,.cls-23,.cls-24,.cls-3,.cls-4,.cls-5,.cls-6,.cls-7,.cls-8,.cls-9{fill-rule:evenodd;}.cls-1{opacity:0.1;}.cls-2{fill:#848585;}.cls-3{fill:#cbad2d;}.cls-4{fill:#46382d;}.cls-5{fill:#594839;}.cls-6{fill:#6d5e50;}.cls-7{fill:#a8836c;}.cls-8{fill:#d0ae95;}.cls-9{fill:#eed2c1;}.cls-10{fill:#f6e5db;}.cls-11{fill:#e4c723;}.cls-12{fill:#a2a1a1;}.cls-13{fill:#ab913c;}.cls-14,.cls-21{fill:#c3c3c3;}.cls-15{fill:#dcdcdb;}.cls-16{fill:#6f7273;}.cls-17{fill:#4f5353;}.cls-18{fill:#bc8f2d;}.cls-19{fill:#9c782c;}.cls-20{fill:#f3d65c;}.cls-22{fill:#755924;}.cls-23{fill:#ebebea;}</style></defs><title>explorers_ESTP_famous_fictional_philip_wenneck_the_hangover</title><polygon class="cls-1" points="82.61 379.83 120.06 388.11 144.91 384.66 237.28 400 326.96 382.95 223.64 366.88 155.59 370.87 141.63 373.01 104.74 375.04 82.61 379.83"/><polygon class="cls-2" points="107.84 376.94 104.74 375.04 106.71 373.6 126.16 373.74 128.86 375.04 125.82 376.94 107.84 376.94"/><polygon class="cls-3" points="285.27 156.04 280.44 163.01 279.64 216.23 283.46 220.08 286.97 224.63 307.81 227.47 313.98 224.32 285.27 156.04"/><polygon class="cls-4" points="249.53 67.3 253.89 40.27 269.33 45.14 286.22 52.76 290.99 59.29 286.53 71.22 281.65 74.04 249.53 67.3"/><polygon class="cls-5" points="254.1 63.7 286.53 71.22 274.55 103.19 270.42 98.27 269.58 93.87 277.09 75.73 268.32 74.09 264.19 90.71 261.33 93.71 255.79 85.94 251.68 68.94 254.1 63.7"/><polygon class="cls-5" points="286.05 102.37 278.12 116.39 271.49 111.36 274.63 102.97 286.05 102.37"/><polygon class="cls-4" points="278.12 116.39 272.29 93.93 266.94 96.83 257.46 119.47 258.87 125.08 278.12 116.39"/><polygon class="cls-6" points="239.97 31.47 248.67 40.45 253.89 40.27 269.48 47.48 282.33 44.4 284.55 33.15 265.12 8.28 257.17 9.37 239.97 31.47"/><polygon class="cls-5" points="242.59 0.15 223.21 10.22 208.63 25.44 210.13 33.66 216.14 37.77 246.59 33.13 265.12 8.28 242.59 0.15"/><polygon class="cls-5" points="178.57 13.58 178.98 19.42 184.74 27.38 188.69 27.23 190.4 32.95 204.52 38.31 210.13 33.66 215.85 19.66 213.01 5.87 206.14 0.56 178.57 13.58"/><polygon class="cls-6" points="163.55 43.84 178.57 13.58 188.69 27.23 187.01 33.84 177.89 42.6 173.98 45.13 167.41 46.23 163.55 43.84"/><polygon class="cls-5" points="166.72 67.53 163.55 43.84 173.77 40.21 176.82 47.24 178.61 65.12 174.01 69.09 166.72 67.53"/><polygon class="cls-4" points="166.72 67.53 175.44 64.58 178.43 71.46 180.39 89.61 177.77 91.56 166.72 67.53"/><polygon class="cls-7" points="206.14 136.73 208.13 133.39 230.04 132.05 250.37 127.06 244.85 153.34 240.49 164.81 222.14 188.84 215.03 189.26 216.52 164.27 210.47 151.71 210.94 145.62 206.14 136.73"/><polygon class="cls-8" points="226.06 136.41 244.27 135.78 238.26 160.62 240.49 164.81 249.23 150.04 253.05 138.6 268.92 101.74 266.94 96.83 261.33 93.71 254.1 63.7 250.77 58.13 249.1 100.15 223.64 131.62 226.06 136.41"/><polygon class="cls-9" points="203.41 136.78 226.06 136.41 253.05 106.07 254.1 63.7 253.89 40.27 246.59 33.13 234.88 23.41 219.34 27.38 210.13 33.66 188.69 27.23 173.77 40.21 176.54 105.9 203.41 136.78"/><path class="cls-1" d="M196,108.11l29.35-8,13.12,13.52,14.8-16.73.82-33.24,7.23,30-17.06,42.07-18.2.63-22.66.37L176.54,105.9V99l18.77,20.3.7-11.15Zm3.74,3.36,0,12.63L206.2,131l17.79-1,10.63-12-10.21-13Z"/><polygon class="cls-7" points="261.33 93.71 268.92 101.74 272.29 93.93 268.31 89.95 261.33 93.71"/><polygon class="cls-9" points="265.28 71.38 261.33 93.71 272.29 93.93 280.65 74.5 265.28 71.38"/><polygon class="cls-7" points="269.38 77.08 274.65 78.07 267.44 85.96 269.38 77.08"/><polygon class="cls-8" points="199.85 67.13 185.73 63.55 184.43 67.13 192.81 75.91 198.8 97 208.45 76.98 201.44 69.03 199.85 67.13"/><polygon class="cls-8" points="216.18 68.67 208.1 75.05 213.19 97 226.32 75.46 236.36 67.93 234.8 64.81 220.29 66.35 216.18 68.67"/><polygon class="cls-7" points="198.8 97 206.59 105.25 213.19 97 198.8 97"/><polygon class="cls-5" points="183.17 65.81 186.87 62.14 200.64 65.38 201.44 69.03 186.71 65 184.43 67.13 183.17 65.81"/><polygon class="cls-5" points="216.18 68.67 216.96 65.2 233.56 63.5 238.28 66.5 236.36 67.93 234.1 66.63 216.18 68.67"/><polygon class="cls-10" points="198.8 97 204.79 75.46 201.44 69.03 216.18 68.67 209.8 75.27 213.19 97 205.77 99.5 198.8 97"/><polygon class="cls-7" points="201.22 112.74 222.14 107.57 224.41 105.06 226.03 107.13 223.57 109.92 201.93 115.31 201.22 112.74"/><polygon class="cls-11" points="187.05 170.48 183.75 166.4 176.33 193.93 185.09 227.71 189.92 231.42 193.48 227.57 190.29 197.78 187.05 170.48"/><polygon class="cls-8" points="165.33 256.49 181.23 238.45 181.86 233.51 175.67 228.05 158.83 227.48 152.14 235.01 165.33 256.49"/><polygon class="cls-12" points="152.14 235.01 150.13 231.74 155.33 230.5 171.5 230.82 175.31 232.54 173.3 235.63 152.14 235.01"/><polygon class="cls-9" points="137.72 211.53 150.13 231.74 164.89 211.09 152.5 198.34 137.72 211.53"/><polygon class="cls-13" points="175.31 232.54 185 241.69 190.1 232.98 192.15 229.93 189.13 223.1 184.41 216.22 181.31 215.21 175.1 221.41 174.19 230.29 175.31 232.54"/><polygon class="cls-14" points="158.91 209.53 152.5 198.34 157.03 194.96 174.46 196.92 178.43 199.71 175.71 207.91 178.38 217.4 175.87 225.6 175.31 232.54 150.13 231.74 158.91 209.53"/><polygon class="cls-9" points="171.8 203.47 175.87 225.6 184.41 216.22 178.43 199.71 171.8 203.47"/><polygon class="cls-15" points="155.26 193.24 152.5 198.34 178.43 199.71 176.33 193.93 155.26 193.24"/><polygon class="cls-14" points="107.58 338.7 104.74 343.6 108.58 346.01 125.6 345.92 128.81 343.48 126.5 338.58 107.58 338.7"/><polygon class="cls-12" points="104.74 343.6 120.35 343.53 120.28 372.5 117.51 375.04 104.74 375.04 104.74 343.6"/><path class="cls-15" d="M109.63,372.26l7.88.87v-2.46l-2.71-.25,1.78-2.09.93.42v-2.39l-1.6-.72-2.08,2.16-2.32-2.29-1.88,6.75Zm4.07-2-1.66-.18.25-1.35,1.41,1.53Zm-.86-20.84,2.48.32-1-1.67-1.56.4,0,.95Zm-1.79,2.3-.36-4.71,4.44-1.49,2.38,2.87v1.86h0v2.36l-6.46-.89Zm.07,1.59-.6,4.52,7,.86v-2.12l-1.69-.1.43-1.84-1.77.07-.12,1.71-1.83-.12.6-2.93-2,0Zm-1.24,7,.56,4.72,7.07-.26v-2.37l-1.76.27-.22-2.18-1.91.26.26,2.11-1.67.22-.28-3.09Z"/><polygon class="cls-16" points="149.03 383.79 195.85 383.79 195.85 375.75 190.69 372.54 160.11 373.42 149.03 375.75 149.03 383.79"/><polygon class="cls-16" points="241.25 391.65 273.25 391.65 273.25 383.61 269.73 380.4 248.02 380.21 241.25 383.61 241.25 391.65"/><polygon class="cls-17" points="175.75 355.9 149.03 375.75 195.85 375.75 195.85 361.27 192.91 356.26 181.29 353.76 175.75 355.9"/><polygon class="cls-17" points="251.36 361.8 247.6 366.27 241.25 383.61 273.25 383.61 267.44 366.27 264.05 361.44 251.36 361.8"/><polygon class="cls-18" points="184.86 275.87 180.15 317.24 181.85 322.56 207.72 336.21 213.68 333.71 229.93 304.35 228.29 294.9 190.3 271.93 184.86 275.87"/><polygon class="cls-19" points="180.15 317.24 213.68 333.71 195.85 365.91 175.75 355.9 180.15 317.24"/><polygon class="cls-18" points="229.93 304.35 237.28 333.64 244.61 335.83 271.43 327.81 275.26 321.86 280.36 291.66 275.42 285.95 255.01 278.79 233.1 293.53 229.93 304.35"/><polygon class="cls-19" points="280.36 291.66 257.96 283.46 256.99 278.27 263.82 266.86 278.89 283.32 280.36 291.66"/><polygon class="cls-19" points="217.29 296.07 229.93 304.35 243.58 291.53 244.56 286.49 224.7 266.07 218.26 265.87 214.89 290.37 217.29 296.07"/><polygon class="cls-19" points="237.28 333.64 275.26 321.86 267.65 366.91 246.34 369.73 237.28 333.64"/><polygon class="cls-11" points="184.86 275.87 217.44 296.16 221.48 269.09 226.2 260.91 227.27 240.72 221.94 234.5 217.44 229.99 193.48 227.57 190.1 232.98 184.86 275.87"/><polygon class="cls-3" points="225.86 229.64 221.13 233.84 221.87 237.98 221.48 269.09 254.52 275.16 263.82 272.53 279.18 264.03 289.69 220.94 283.62 214.42 225.86 229.64"/><polygon class="cls-11" points="226.08 265.05 263.82 272.53 250.09 298.14 221.48 269.09 222.31 266 226.08 265.05"/><polygon class="cls-8" points="287.81 274.32 286.25 269.31 279.18 264.03 275.4 266.12 263.82 272.53 280.36 291.66 287.81 274.32"/><polygon class="cls-9" points="287.81 274.32 275.4 266.12 282.04 239.74 289.7 240.72 302.57 245.5 304.06 250.08 287.81 274.32"/><polygon class="cls-7" points="304.06 250.08 282.04 239.74 286.68 236.5 304.51 239.42 308.69 243.15 304.06 250.08"/><polygon class="cls-11" points="315.12 243.98 282.04 239.74 283.46 220.08 319.44 225.08 315.12 243.98"/><polygon class="cls-11" points="219.67 185.17 219.02 230.7 222.07 231.82 232.05 229.51 234.62 231.53 283.46 220.08 285.27 156.04 257 147.24 252.79 149.13 252.09 165.84 242.52 159.47 238.26 160.62 222.12 182.48 219.67 185.17"/><polygon class="cls-20" points="255.64 173.01 238.26 160.62 253.05 138.6 257 147.24 255.64 173.01"/><polygon class="cls-3" points="270.52 180.96 264.96 192.51 247.9 195.49 239.01 186.11 244.52 222.86 274.86 213.85 270.52 180.96"/><polygon class="cls-20" points="239.01 186.11 245.5 199.6 267.84 195.35 270.52 180.96 239.01 186.11"/><polygon class="cls-3" points="183.75 166.4 185.87 188.76 190.29 197.78 192.38 217.32 189.13 223.1 190.1 232.98 218.98 234.67 220.9 231.11 221.18 184.7 219.5 182.4 219.5 161.48 214.94 161 208.2 164.81 209.85 153.56 206.87 152.23 183.75 166.4"/><polygon class="cls-20" points="203.77 172.12 219.5 161.48 210.94 145.62 206.87 152.23 203.77 172.12"/><polygon class="cls-13" points="199.12 198.75 208.59 191.07 207.79 226.5 189.13 223.1 187.06 201.37 190.29 197.78 199.12 198.75"/><polygon class="cls-20" points="199.92 203.4 208.59 191.07 185.87 188.76 187.06 201.37 199.92 203.4"/><polygon class="cls-19" points="234.72 188.91 222.04 185.29 222.12 182.48 219.5 182.4 218.94 238.02 221.87 237.98 221.94 234.5 234.62 231.53 234.37 215.57 221.97 212.38 221.99 207.93 234.55 204.46 234.72 188.91"/><polygon class="cls-15" points="120.35 343.53 117.51 348.43 121.35 350.84 138.37 350.75 141.63 348.43 139.27 343.41 120.35 343.53"/><polygon class="cls-12" points="120.61 381.78 117.51 379.88 119.48 378.43 138.93 378.57 141.63 379.88 138.59 381.78 120.61 381.78"/><rect class="cls-21" x="117.51" y="348.43" width="24.12" height="31.45"/><path class="cls-1" d="M219.5,161.48l7.78,14-5.16,7-2.62-.08V161.48Zm44.32,111,11.58-6.41L282,239.74l-18.22,32.79Zm-104.91-63-8.78,22.22,7,.22Z"/><path class="cls-22" d="M222.08,215.39c.46,0,9.79,2.29,9.79,2.29l.18,11.83-10,2.31Z"/><path class="cls-22" d="M222.09,188c.46,0,10,2.7,10,2.7l0,11.65-10.05,2.46Z"/><polygon class="cls-19" points="217.41 245.33 221.72 249.65 226.32 245.6 221.83 241.21 217.41 245.33"/><polygon class="cls-19" points="217.17 264.78 221.48 269.09 226.08 265.05 221.59 260.66 217.17 264.78"/><polygon class="cls-5" points="290.99 59.29 253.89 40.27 284.55 33.15 290.99 59.29"/><path class="cls-6" d="M206.14.56c0-1.79,4,33.1,4,33.1L242.59.15Z"/><polygon class="cls-4" points="210.13 33.66 235.99 26.64 236.36 24.17 234.08 20.43 222.4 20.99 210.13 33.66"/><polygon class="cls-6" points="243.22 54.22 246.59 33.13 234.08 20.43 243.22 54.22"/><polygon class="cls-8" points="198.08 100.86 196.01 108.11 188.5 110.94 198.08 100.86"/><polygon class="cls-8" points="219.22 97 227.51 102.37 236.05 99.5 219.22 97"/><path class="cls-23" d="M158.83,228.32l10.09,1.29.28-6.27-3.75-1.75-2.19,2.19-2.36-2.41-2.07,6.95Zm4.25-1.95-1.72-.22.28-1.39,1.44,1.61Zm1.13.15,1.89-2.15,1,.36-.08,2.14-2.79-.35Zm-1.64-21.76,1.7.3-.56-1.67-1.17.4,0,1Zm-1.9,2.35-.28-4.88,4.62-1.46,1.13,3,3.15-2.63,1.06,2.29-3,2.33,2.47.6-.27,2.2-8.92-1.41Zm.05,1.66-.71,4.67,9.65,1.36-.17-5.7-2.53.06.39,3.11-1.83-.14.26-1.71-2-.18.05,1.77-1.72-.13.67-3-2.07-.08Zm-1,7.08,0,5.07,9.75-.18-.65-5.47-2.43.14.48,2.91-1.61.26-.18-2.26-2,.23.23,2.19-1.73.19.12-3.23Z"/><path class="cls-23" d="M122.81,376.87,132.9,378l-.57-6.69-3.25-1.07L127,372.42l-2.31-2.29-1.88,6.74Zm4.07-1.95-1.66-.18.24-1.35,1.42,1.53ZM128,375l1.53-2.17.94.31.26,2.18L128,375Zm-2-21,1.64.26-.56-1.6-1.13.4.05.94Zm-1.79,2.3-.36-4.71,4.44-1.49,1.13,2.84,3-2.59,1.06,2.19-2.81,2.3,2.39.54-.22,2.12-8.63-1.2Zm.08,1.6-.61,4.52,9.34,1.15-.26-5.5-2.45.1.44,3-1.77-.1.22-1.65-1.93-.15.08,1.71-1.66-.1.6-2.93-2,0Zm-.81,6.85.12,4.9,9.5-.31-.82-5.31-2.34.18.51,2.8-1.54.28-.22-2.18-1.91.26.26,2.11-1.67.22.05-3.13Z"/><polygon class="cls-1" points="135.29 379.88 135.05 348.43 141.63 348.43 141.63 379.88 135.29 379.88"/><path class="cls-24" d="M196.66,77a3.81,3.81,0,1,1-3.8-3.8A3.8,3.8,0,0,1,196.66,77Z"/><path class="cls-24" d="M228.5,77.08a3.81,3.81,0,1,1-3.81-3.8A3.81,3.81,0,0,1,228.5,77.08Z"/></svg>