<svg id="Layer_1" data-name="Layer 1" xmlns="http://www.w3.org/2000/svg" viewBox="0 0 400 400"><defs><style>.cls-1,.cls-27{fill:#2b2b2b;}.cls-1{fill-opacity:0.1;}.cls-2{fill:#4f5253;}.cls-3{fill:#846400;}.cls-4{fill:#755800;}.cls-5{fill:#bb8e2d;}.cls-6{fill:#9d7700;}.cls-7{fill:#f4c9b2;}.cls-8{fill:#fce3d4;}.cls-9{fill:#cbac14;}.cls-10{fill:#ab913c;}.cls-11{fill:#848585;}.cls-12{fill:#cdcdcc;}.cls-13{fill:#ebebea;}.cls-14{fill:#dcdcdb;}.cls-15{fill:#e4c728;}.cls-16{fill:#c1907d;}.cls-17{fill:#33231b;}.cls-18{fill:#593e35;}.cls-19{fill:#7f5d4e;}.cls-20{fill:#98796a;}.cls-21{fill:#ffefe7;}.cls-22{fill:#fff;}.cls-23{fill:#b48a00;}.cls-24{fill:#e1a842;}.cls-25{fill:#be8e00;}.cls-26{fill:#c3c3c3;}</style></defs><title>explorers_ESTP_famous_real_michael_j_fox</title><g id="Layer_1-2" data-name="Layer_1"><g id="_897686544" data-name=" 897686544"><polygon class="cls-1" points="54.94 387.25 221.87 398.91 325.06 386.31 221.87 376.06 54.94 387.25"/><path class="cls-2" d="M243.66,384.66l.23,6,38.06.95-.24-6.13s-26.86-5.06-26.86-5.65c0-.12-6.6,3.77-11.07,4.83Z"/><polygon class="cls-2" points="209.38 371.58 178.28 381.94 178.28 386.77 230.34 386.54 230.34 381.12 209.38 371.58"/><polygon class="cls-3" points="106.77 230.45 102.06 234.69 83.33 256.96 83.45 282.87 84.74 284.76 83.56 291.71 83.56 296.07 84.86 297.83 83.56 304.9 83.8 362.27 83.8 362.27 88.04 364.15 83.92 371.11 83.8 371.11 83.92 375.35 83.92 375.35 87.81 377.94 83.92 384.3 83.92 387.01 144.94 386.54 144.7 349.19 140.35 346.72 144.7 340.25 144.7 336 141.17 332.35 144.59 327.17 144.23 269.92 139.52 268.86 144.23 261.08 144.12 256.72 139.4 256.37 139.17 250.71 129.63 239.29 120.56 229.04 106.77 230.45"/><polygon class="cls-4" points="106.77 230.45 102.06 234.69 83.33 256.96 83.45 282.87 84.74 284.76 83.56 291.71 83.56 296.07 84.86 297.83 83.56 304.9 83.8 362.27 83.8 362.27 88.04 364.15 83.92 371.11 83.8 371.11 83.92 375.35 83.92 375.35 87.81 377.94 83.92 384.3 83.92 387.01 114.08 386.77 114.08 229.74 106.77 230.45"/><path class="cls-5" d="M83.45,282.87v8.84l60.66-35-5.06-6L83.33,282.87h.12Zm0,13.2,60.66-35v8.84l-60.66,35v-8.83Zm.23,66.2v8.84L144.47,336v-8.83l-60.79,35.1Zm0,13.2,60.79-35.11v8.83L83.68,384.3Z"/><path class="cls-6" d="M83.45,282.87v8.84L114.08,274V265.2L83.45,282.87Zm30.63-4.47v8.83L83.56,304.9v-8.83l30.63-17.67h-.11Zm0,66.32v8.83L83.8,371v-8.84l30.28-17.43Zm0,13.19L83.8,375.35v8.83L114,366.75v-8.84Z"/><polygon class="cls-7" points="121.61 230.21 115.72 223.62 101.47 231.98 102.06 234.69 119.02 233.04 121.61 230.21"/><polygon class="cls-7" points="136.22 236.58 129.63 239.29 123.27 248 127.15 251.42 143.17 242.59 136.22 236.58"/><polygon class="cls-8" points="147.41 231.63 139.28 225.85 115.72 223.62 119.02 233.04 129.63 239.29 143.17 242.59 147.41 231.63"/><polygon class="cls-9" points="180.05 214.67 165.09 214.55 139.28 225.85 143.17 242.59 179.1 239.53 180.05 214.67"/><polygon class="cls-10" points="192.53 182.04 187.47 176.85 165.09 214.55 179.1 239.53 194.89 220.21 202.07 206.42 192.53 182.04"/><polygon class="cls-7" points="281.12 119.36 268.16 161.65 250.02 181.09 230.47 177.56 223.4 151.29 246.72 51.74 260.15 66.47 281.12 119.36"/><polygon class="cls-11" points="254.5 364.87 243.66 384.66 281.59 385.48 276.76 365.45 274.88 360.15 255.67 359.92 254.5 364.87"/><polygon class="cls-11" points="206.91 360.27 205.85 363.45 178.28 381.94 230.34 381.12 228.11 364.39 226.81 359.8 206.91 360.27"/><polygon class="cls-3" points="245.9 319.39 244.6 329.88 254.5 364.87 276.76 365.45 281 328.58 278.3 320.93 245.9 319.39"/><polygon class="cls-3" points="220.81 364.04 228.11 364.39 233.53 330.23 230.81 321.51 206.67 316.21 198.78 324.46 205.85 363.45 220.81 364.04"/><polygon class="cls-6" points="233.53 330.23 237.41 306.44 218.57 288.64 191.24 282.99 198.78 324.46 233.53 330.23"/><polygon class="cls-6" points="235.65 270.03 237.41 306.44 244.6 329.88 281 328.58 284.3 299.72 294.9 276.87 235.65 270.03"/><polygon class="cls-4" points="284.3 299.72 294.9 276.87 251.32 271.8 248.37 273.1 244.49 292.65 278.64 286.76 284.3 299.72"/><path class="cls-12" d="M211.85,256.37l8.49,20.73s19.19,1.77,19.19,1.41.36-19.67.36-19.67Z"/><path class="cls-2" d="M237.77,260.61l-3.41,15.9-12.73-.59-4.48-15.55-10.83.48-2,17.79s51.95,3.17,51.95,2.47-3.18-20.74-3.18-20.74l-15.43.24Z"/><path class="cls-2" d="M213.15,260.61l-6.83.12-2,17.78,8.84.6,1.29-6.49-1.17-11.89Z"/><polygon class="cls-3" points="237.41 306.44 191.24 282.99 206.67 272.39 265.22 273.45 278.06 278.87 237.41 306.44"/><polygon class="cls-4" points="248.37 273.1 265.22 273.45 278.06 278.87 262.27 289.59 244.49 292.65 248.37 273.1"/><polygon class="cls-4" points="191.24 282.99 206.67 272.39 214.33 272.51 216.21 291.24 191.24 282.99"/><polygon class="cls-7" points="290.78 285.11 285.48 289.71 284.3 299.72 298.09 299.84 307.51 290.18 290.78 285.11"/><polygon class="cls-8" points="298.09 263.91 304.09 270.5 307.51 290.18 285.48 289.71 286.19 281.93 283.83 275.81 286.42 269.8 282.3 265.44 282.89 263.55 298.09 263.91"/><polygon class="cls-7" points="286.19 281.93 278.64 286.76 275.23 280.75 282.3 265.44 286.42 269.8 286.19 281.93"/><polygon class="cls-9" points="279 262.26 286.42 269.8 304.09 270.5 309.16 237.87 282.18 237.4 279 262.26"/><polygon class="cls-13" points="218.21 229.63 225.17 260.61 247.9 260.96 257.09 203.12 229.17 176.26 217.74 194.99 218.21 229.63"/><polygon class="cls-14" points="253.68 198.17 230.47 177.56 221.04 187.45 225.04 184.98 245.78 194.4 253.68 198.17"/><polygon class="cls-13" points="202.78 235.99 209.14 260.61 225.17 260.61 225.04 184.98 223.28 172.14 201.6 188.28 202.78 235.99"/><polygon class="cls-14" points="202.78 235.99 209.14 260.61 213.15 260.61 210.68 193.93 225.04 184.98 223.28 172.14 201.6 188.28 202.78 235.99"/><polygon class="cls-10" points="267.34 232.69 285.25 241.88 309.16 237.87 291.25 172.61 285.6 172.96 269.69 203.36 267.34 232.69"/><polygon class="cls-10" points="247.31 246.47 248.84 286.17 275.23 280.75 286.42 269.8 285.25 241.88 267.34 232.69 247.31 246.47"/><polygon class="cls-10" points="208.81 246.24 212.11 284.64 191.26 282.99 189.97 246.47 197.98 239.4 208.81 246.24"/><polygon class="cls-9" points="257.8 207.72 246.49 222.32 247.31 246.47 285.25 241.88 274.05 216.44 257.8 207.72"/><polygon class="cls-9" points="200.78 208.07 207.49 221.15 208.79 246.24 198.42 246.36 189.94 246.47 189 221.85 200.78 208.07"/><polygon class="cls-15" points="209.02 181.68 206.32 191.34 207.49 221.15 189 221.85 187.47 176.85 197.01 171.31 209.02 181.68"/><polygon class="cls-15" points="250.02 181.09 245.78 194.4 246.49 222.32 274.05 216.44 291.25 172.61 279.59 164.72 250.02 181.09"/><polygon class="cls-13" points="208.2 164.84 197.01 171.31 206.32 191.34 220.34 179.21 220.92 175.79 211.38 164.6 208.2 164.84"/><polygon class="cls-16" points="194.3 148.11 225.04 184.98 251.32 149.52 237.06 149.64 194.3 148.11"/><polygon class="cls-17" points="259.45 39.61 249.9 51.39 265.69 96.98 279.12 96.27 286.54 83.91 289.95 48.33 259.45 39.61"/><polygon class="cls-18" points="245.9 29.25 258.98 17.23 270.99 19.47 289.95 48.33 249.9 51.39 229.05 50.21 230.94 37.26 245.9 29.25"/><polygon class="cls-19" points="235.88 16.4 258.98 17.23 233.06 46.8 213.38 46.09 205.61 29.25 235.88 16.4"/><polygon class="cls-17" points="166.62 46.32 152.13 41.5 165.56 93.09 166.62 46.32"/><polygon class="cls-20" points="170.97 40.44 152.13 41.5 182.99 5.45 241.89 0.97 170.97 40.44"/><polygon class="cls-18" points="166.85 57.4 163.32 53.51 152.13 41.5 241.89 0.97 258.98 17.23 213.15 34.78 166.85 57.4"/><polygon class="cls-8" points="163.32 53.51 165.09 119.36 178.87 149.52 237.06 149.64 250.26 119.36 249.9 51.39 233.06 46.8 213.15 34.78 163.32 53.51"/><path class="cls-7" d="M176.16,74.36,170,78.25l23.09,30.63,4.36-3.06,5.3,2.94,30.51-32.28s-6.48-3.65-7.07-3.29-16,5.3-16,5.3l-8.49,7.42L198.19,90l-3.3-4-6.25-6.37L178,74.36l-2,.12Z"/><polygon class="cls-16" points="197.01 102.05 193.12 108.88 198.31 112.41 202.78 108.64 197.01 102.05"/><polygon class="cls-13" points="269.34 157.77 230.47 177.56 245.78 194.4 279.59 164.72 269.34 157.77"/><polygon class="cls-6" points="228.81 207.13 224.93 201.83 221.75 206.54 224.93 212.66 228.81 207.13"/><polygon class="cls-6" points="228.81 232.45 224.93 226.21 221.51 231.98 224.93 237.99 228.81 232.45"/><path class="cls-19" d="M209.26,74.72l16.85-3.18,8.25,2.82-1.07,2.12L226.46,75l-16.14,3.42s-.94-3.77-1.06-3.77Z"/><polygon class="cls-19" points="169.09 75.89 179.69 71.54 190.29 76.01 188.76 79.55 178.04 76.13 169.91 78.25 169.09 75.89"/><polygon class="cls-21" points="195.01 86.03 201.72 85.91 202.78 108.64 193.12 108.88 195.01 86.03"/><polygon class="cls-16" points="181.69 120.54 222.45 119.6 212.21 131.97 189.82 131.38 181.69 120.54"/><polygon class="cls-22" points="187.35 123.02 216.8 122.42 211.02 129.38 191.47 129.26 187.35 123.02"/><path class="cls-23" d="M114.08,259a17.2,17.2,0,1,1-17.2,17.2A17.19,17.19,0,0,1,114.08,259Z"/><path class="cls-23" d="M114.08,293.36a17.2,17.2,0,1,1,0-34.4v34.4Z"/><polygon class="cls-24" points="121.85 284.41 128.56 297.36 125.62 298.77 123.03 296.77 119.61 297.01 119.38 304.55 115.25 304.31 115.14 300.78 114.08 300.78 113.02 300.78 113.02 304.31 108.89 304.55 108.66 297.01 105.24 296.77 102.65 298.77 99.7 297.36 106.42 284.41 121.85 284.41"/><polygon class="cls-25" points="114.08 300.78 113.02 300.78 113.02 304.31 108.89 304.55 108.66 297.01 105.24 296.77 102.65 298.77 99.7 297.36 106.42 284.41 114.08 284.41 114.08 300.78"/><path class="cls-24" d="M109.25,265.79l-5.42-6.6,2.35-1.88-2.35-3.18,2.47-1.88,2.36,2.47a88.89,88.89,0,0,1,11.07,0l2.36-2.47,2.47,1.88-2.36,3.18,2.36,1.88-5.42,6.6h-9.89Z"/><path class="cls-25" d="M109.25,265.79l-5.42-6.6,2.35-1.88-2.35-3.18,2.47-1.88,2.36,2.47c2.24-.12,3.88-.12,5.53-.12v11.19Z"/><path class="cls-14" d="M114.08,262.26a13.9,13.9,0,1,1-13.91,13.9A13.9,13.9,0,0,1,114.08,262.26Z"/><path class="cls-26" d="M114.08,290.06a13.9,13.9,0,1,1,0-27.8v27.8Z"/><path class="cls-23" d="M114.08,340.48a17.2,17.2,0,1,1-17.2,17.2A17.19,17.19,0,0,1,114.08,340.48Z"/><path class="cls-24" d="M109.25,367.93l-5.42,6.6,2.35,1.88-2.35,3.18,2.47,1.88,2.36-2.47a85.19,85.19,0,0,0,11.07,0l2.36,2.47,2.47-1.88-2.36-3.18,2.36-1.88-5.42-6.6h-9.89Z"/><path class="cls-25" d="M109.25,367.93l-5.42,6.6,2.35,1.88-2.35,3.18,2.47,1.88,2.36-2.47c2.24.12,3.88.12,5.53.12V367.93Z"/><polygon class="cls-24" points="121.85 349.43 128.56 336.36 125.62 334.94 123.03 336.94 119.61 336.71 119.38 329.17 115.25 329.52 115.14 332.94 114.08 332.94 113.02 332.94 113.02 329.52 108.89 329.17 108.66 336.71 105.24 336.94 102.65 334.94 99.7 336.36 106.42 349.43 121.85 349.43"/><polygon class="cls-25" points="114.08 332.94 113.02 332.94 113.02 329.52 108.89 329.17 108.66 336.71 105.24 336.94 102.65 334.94 99.7 336.36 106.42 349.43 114.08 349.43 114.08 332.94"/><path class="cls-14" d="M114.08,343.78a13.9,13.9,0,1,1-13.91,13.9A13.9,13.9,0,0,1,114.08,343.78Z"/><path class="cls-26" d="M114.08,343.78a13.9,13.9,0,1,0,0,27.8v-27.8Z"/><polygon class="cls-16" points="273.94 105.7 269.11 108.29 281.12 119.36 284.18 109.58 273.94 105.7"/><polygon class="cls-8" points="270.4 84.38 269.11 108.29 284.18 109.58 286.54 83.91 270.4 84.38"/><polygon class="cls-16" points="282.53 88.26 274.17 87.91 274.17 101.81 282.53 88.26"/><path class="cls-27" d="M182.52,85.32a4,4,0,1,1-4,4A4,4,0,0,1,182.52,85.32Z"/><path class="cls-27" d="M223.4,83.79a4,4,0,1,1-4,4A4,4,0,0,1,223.4,83.79Z"/><polygon class="cls-7" points="216.21 111.35 224.22 117.24 230.94 126.2 226.58 113.59 216.21 111.35"/></g></g></svg>