<svg id="Layer_1" data-name="Layer 1" xmlns="http://www.w3.org/2000/svg" viewBox="0 0 400 400"><defs><style>.cls-1,.cls-21,.cls-23{fill:#2b2b2b;}.cls-1{fill-opacity:0.15;}.cls-2{fill:#4f5253;}.cls-3{fill:#6f7173;}.cls-4{fill:#755800;}.cls-5{fill:#9d7700;}.cls-6{fill:#846400;}.cls-7{fill:#debca4;}.cls-8{fill:#c2977b;}.cls-9{fill:#be8e00;}.cls-10{fill:#ebebea;}.cls-11{fill:#a2a2a2;}.cls-12{fill:#8a6651;}.cls-13{fill:#cdcdcc;}.cls-14{fill:#cbac14;}.cls-15{fill:#e4c728;}.cls-16{fill:#b48a00;}.cls-17{fill:#f3d65d;}.cls-18{fill:#474747;}.cls-19{fill:#848585;}.cls-20{fill:#e7c9b5;}.cls-22{fill:#8e8e8e;}.cls-23{fill-opacity:0.1;}</style></defs><title>explorers_ESTP_famous_real_nicolas_sarkozy</title><g id="Layer_1-2" data-name="Layer_1"><polygon class="cls-1" points="111.97 387.19 218.28 397.74 267.67 373.05 257.68 372.86 225.82 372.11 173.8 372.86 111.97 387.19"/><polygon class="cls-2" points="228.28 356.46 225.82 372.11 235.06 373.8 253.35 374.18 257.68 372.11 250.71 356.08 246.18 351.75 236.01 351.94 228.28 356.46"/><polygon class="cls-3" points="225.64 377.57 257.49 377.57 257.68 372.11 225.82 372.11 225.64 377.57"/><polygon class="cls-4" points="225.26 340.06 233.37 305.19 236.76 304.62 242.79 350.05 241.09 356.27 228.28 356.46 225.26 340.06"/><polygon class="cls-5" points="251.46 153.82 278.99 210.74 273.52 219.41 246.75 236 245.43 159.28 251.46 153.82"/><polygon class="cls-6" points="226.01 147.03 251.46 153.82 251.27 227.52 249.2 233.74 214.7 252.59 178.51 253.35 173.61 248.82 173.23 218.66 177.38 208.67 216.02 172.1 226.01 147.03"/><polygon class="cls-3" points="124.03 40.15 136.29 72.38 143.83 37.88 124.03 40.15"/><polygon class="cls-6" points="134.21 180.02 145.9 165.69 148.16 179.26 146.09 238.27 140.81 249.39 137.23 239.59 130.82 186.24 134.21 180.02"/><polygon class="cls-7" points="207.35 231.48 196.04 248.44 214.7 252.59 218.1 250.52 214.51 239.02 207.35 231.48"/><polygon class="cls-8" points="230.91 240.15 207.54 231.67 214.7 252.59 240.15 249.95 230.91 240.15"/><polygon class="cls-9" points="278.99 210.74 238.83 235.06 241.66 251.08 250.33 257.87 293.88 243.36 278.99 210.74"/><polygon class="cls-10" points="238.83 235.06 254.67 256.36 236.38 262.96 234.87 247.69 230.91 240.15 238.83 235.06"/><polygon class="cls-5" points="145.9 165.69 168.33 155.89 167.58 177.19 177.57 214.89 178.13 255.61 150.99 255.98 142.69 252.78 146.28 214.33 148.35 204.71 144.01 197.93 145.9 165.69"/><polygon class="cls-4" points="183.6 225.26 177.57 219.41 171.54 225.07 177.76 230.35 183.6 225.26"/><polygon class="cls-11" points="140.81 249.39 142.88 213.38 147.03 210.18 149.48 215.08 148.35 249.2 144.96 252.03 140.81 249.39"/><polygon class="cls-5" points="106.13 244.11 140.81 249.39 134.78 198.12 126.11 194.53 111.59 198.12 106.13 244.11"/><polygon class="cls-12" points="107.82 160.41 112.91 186.99 125.73 191.33 133.46 187.37 139.68 176.63 133.65 165.88 118.75 166.63 107.82 160.41"/><polygon class="cls-8" points="107.82 160.41 116.87 172.1 132.89 170.03 128.75 159.66 121.77 157.21 107.82 160.41"/><polygon class="cls-8" points="127.61 131.95 126.48 152.69 134.59 161.54 136.66 159.09 133.46 131.57 127.61 131.95"/><polygon class="cls-7" points="121.77 157.21 126.48 152.69 145.9 165.69 139.3 177.38 121.77 157.21"/><polygon class="cls-10" points="111.59 198.12 134.78 198.12 133.46 187.37 112.91 186.99 111.59 198.12"/><polygon class="cls-13" points="173.23 167.96 180.77 161.92 186.24 164.56 193.03 162.3 202.26 169.09 191.52 186.99 186.62 169.84 177 185.11 173.23 167.96"/><polygon class="cls-14" points="173.8 189.07 177.57 214.89 193.97 189.07 189.26 167.2 186.24 164.56 184.16 167.2 173.8 189.07"/><polygon class="cls-6" points="157.96 180.96 168.33 155.89 175.31 157.4 177 168.52 177.57 214.89 157.96 180.96"/><polygon class="cls-5" points="206.03 157.78 197.55 169.09 177.57 214.89 221.3 174.74 226.01 147.03 206.03 157.78"/><polygon class="cls-6" points="251.09 277.48 244.3 275.21 233.74 280.3 241.09 356.27 250.71 356.08 251.09 277.48"/><polygon class="cls-14" points="210.93 384.17 206.97 379.46 224.13 279.55 229.03 272.95 236.76 275.59 241.66 279.93 225.64 377.57 210.93 384.17"/><polygon class="cls-15" points="127.05 276.72 131.38 273.33 223.38 272.76 229.97 276.16 210.93 384.17 138.36 381.15 127.05 276.72"/><polygon class="cls-16" points="113.85 269.75 127.05 276.72 229.97 276.16 241.66 279.93 251.09 279.36 248.07 271.82 238.46 264.85 119.13 266.17 113.85 269.75"/><polygon class="cls-14" points="230.54 250.52 227.71 263.71 231.29 268.99 251.09 279.36 254.67 256.36 234.87 247.69 230.54 250.52"/><polygon class="cls-17" points="113.29 249.77 113.85 269.75 231.29 268.99 234.87 247.69 113.29 249.77"/><polygon class="cls-12" points="163.81 133.08 172.1 146.47 187.37 160.22 203.58 149.67 214.33 129.31 168.71 128.93 163.81 133.08"/><polygon class="cls-8" points="199.06 149.67 220.55 140.06 237.89 101.6 209.24 37.51 204.9 39.96 203.77 110.08 192.84 125.73 192.46 133.08 207.92 133.08 199.06 149.67"/><polygon class="cls-12" points="237.89 101.6 226.58 92.36 234.31 88.41 241.85 92.74 237.89 101.6"/><polygon class="cls-18" points="205.09 34.49 204.9 48.06 221.49 78.42 228.09 78.79 243.92 66.73 246.18 37.51 236.95 33.93 205.09 34.49"/><polygon class="cls-7" points="226.96 65.97 226.58 92.36 241.85 92.74 243.92 66.73 226.96 65.97"/><polygon class="cls-12" points="231.86 72 231.67 84.07 237.51 72.19 231.86 72"/><polygon class="cls-3" points="181.34 21.86 198.87 38.07 209.24 37.51 246.18 37.51 214.89 5.65 199.81 8.1 181.34 21.86"/><polygon class="cls-19" points="133.65 18.09 153.82 23.75 140.62 39.77 134.78 39.96 124.03 40.15 133.65 18.09"/><polygon class="cls-7" points="208.48 112.16 209.24 37.51 186.43 21.48 149.1 26.01 134.78 39.96 137.98 112.53 150.8 133.08 192.46 133.08 208.48 112.16"/><polygon class="cls-12" points="167.58 100.85 159.85 92.74 173.04 92.55 167.58 100.85"/><polygon class="cls-8" points="174.55 68.05 170.97 73.89 168.9 82.19 173.04 92.55 181.34 75.59 193.78 66.16 186.62 61.83 174.55 68.05"/><polygon class="cls-8" points="148.16 64.28 143.45 68.61 152.87 75.59 159.85 92.74 164.75 81.81 162.87 73.89 159.66 68.23 148.16 64.28"/><polygon class="cls-3" points="147.6 61.83 142.32 67.86 144.01 68.99 148.16 65.97 159.66 68.23 158.53 63.71 147.6 61.83"/><polygon class="cls-3" points="176.44 62.96 174.55 68.05 187.56 63.71 192.84 66.92 195.1 65.6 187.37 59.56 176.44 62.96"/><polygon class="cls-20" points="162.87 73.89 159.85 92.74 164.94 95.19 173.04 92.55 170.97 73.89 162.87 73.89"/><path class="cls-21" d="M184.35,75.4a3.12,3.12,0,0,0-6.22.19,3.12,3.12,0,0,0,6.22-.19Z"/><polygon class="cls-12" points="153.25 102.73 152.87 104.99 159.47 107.63 178.7 106.31 186.81 101.98 185.3 99.72 178.32 103.48 159.47 104.99 153.25 102.73"/><polygon class="cls-16" points="187.56 153.25 181.9 157.21 181.15 162.49 184.16 167.2 189.26 167.2 193.4 162.3 192.65 155.51 187.56 153.25"/><polygon class="cls-10" points="222.24 136.1 187.56 153.25 197.55 169.09 226.01 147.03 222.24 136.1"/><polygon class="cls-10" points="172.1 146.47 168.33 155.89 177 168.52 187.56 153.25 172.1 146.47"/><polygon class="cls-11" points="144.2 195.29 139.11 203.39 149.48 208.11 157.21 207.16 155.89 197.55 144.2 195.29"/><polygon class="cls-22" points="149.48 215.08 142.88 213.38 139.11 203.39 157.21 207.16 149.48 215.08"/><polygon class="cls-23" points="127.05 276.72 229.97 276.16 128.37 287.65 127.05 276.72"/><polygon class="cls-8" points="150.24 50.14 165.88 52.78 186.05 45.42 165.69 50.33 150.24 50.14"/><polygon class="cls-8" points="152.12 43.35 164.75 44.11 175.12 42.22 165.88 45.99 152.12 43.35"/><polygon class="cls-8" points="138.36 79.55 146.47 78.23 141 76.72 138.36 79.55"/><polygon class="cls-8" points="190.2 77.28 200.94 78.23 196.61 75.4 190.2 77.28"/><polygon class="cls-8" points="194.72 96.7 189.63 118.94 197.36 101.41 194.72 96.7"/><path class="cls-21" d="M155.89,75.4a3.12,3.12,0,0,0-6.22.19,3.12,3.12,0,0,0,6.22-.19Z"/><polygon class="cls-8" points="181.34 96.89 189.26 104.24 189.63 99.53 181.34 96.89"/><polygon class="cls-8" points="155.7 98.58 150.42 102.73 151.56 108.2 155.7 98.58"/><polygon class="cls-8" points="144.39 104.99 150.99 118.75 145.71 100.28 144.39 104.99"/><polygon class="cls-3" points="164 2.26 170.78 15.27 164.37 33.74 133.65 18.09 164 2.26"/><polygon class="cls-19" points="164 2.26 214.89 5.65 164.37 33.74 164 2.26"/><polygon class="cls-4" points="183.79 243.73 177.76 237.89 171.72 243.54 177.94 248.63 183.79 243.73"/><polygon class="cls-8" points="163.24 112.53 175.31 111.59 168.71 114.42 163.24 112.53"/><polygon class="cls-8" points="164 58.24 163.62 67.86 162.11 63.34 164 58.24"/><path class="cls-16" d="M165.88,292.75l5.47-1.89-.19-3.21h2.26v2.45l5.28-1.88.56,10L173.8,296l.19,1.7h-2.27l-.18-2.64Zm7.54,46H177l.38,6.41L173.8,345Zm17.34-5.09L187,329.5v-5.09l2.83-8.1,2.45,4,6-.95-3.77-3.77-4.71.76.76-2.08,3.58-.18,3.39-4.15-5.28.37-1.69,4-2.83-6.59-1.32,2.63-1.7-1.88-3.77,1.7,3.77,4-4,1.69-7.35-7.35-6.41,7-4.33-1.7-.57-3.21L164,312l2.07-2.26-1.89-1.51-1.13-2.45,1.51-6.79-6.6-5.27-.75,7.54,5.84,4.52-1.13.94-2.82.19-2.27,6.6-3.58-.38-3.77-4.33,5.28.56,2.07,4.15,1.13,2.07-1.88,4-6.41-1.32,3.39-3.58,4.9.94,3.77,8.3-5.27.19,1.69,4.52,4.15.38,7.73-.57,4.71,1.32,4.34-1.13,3.95,4.9ZM187,329.5l-7.91-.94.56,8.29-9-.18-.56-8.3-3.21,4.71-7.91-.18,3.39-4-.57-5.09,12.82,3.58,12.44-3,5.28.38L191,329.31Zm.38-35.06,1.7,7.35-5.47,4.53-2.26-7Zm-18.85,5.09,8.86.19.75,11.31-4.71-4.71-4.33,4.52Z"/><polygon class="cls-14" points="159.47 314.05 167.39 318.19 173.61 311.78 180.77 318.57 188.13 314.8 185.3 322.53 174.36 325.17 163.24 322.15 159.47 314.05"/><polygon class="cls-17" points="171.35 315.93 176.81 316.12 176.81 318 173.42 317.82 173.42 319.51 176.63 319.32 176.81 321.4 173.23 321.4 173.42 323.09 171.72 323.28 171.35 315.93"/></g></svg>