<svg id="Layer_1" data-name="Layer 1" xmlns="http://www.w3.org/2000/svg" viewBox="0 0 400 400"><defs><style>.cls-1,.cls-20,.cls-9{fill:#2b2b2b;}.cls-1{stroke:#74cee4;stroke-miterlimit:2.61;stroke-width:0.22px;opacity:0.15;}.cls-1,.cls-10,.cls-11,.cls-12,.cls-13,.cls-14,.cls-15,.cls-16,.cls-17,.cls-18,.cls-19,.cls-2,.cls-3,.cls-4,.cls-5,.cls-6,.cls-7,.cls-8,.cls-9{fill-rule:evenodd;}.cls-2{fill:#dcdcdb;}.cls-3{fill:#b38b2e;}.cls-4{fill:#c18f7c;}.cls-5{fill:#f4cab2;}.cls-6{fill:#46382d;}.cls-7{fill:#675448;}.cls-8{fill:#fbe3d4;}.cls-10{fill:#4f5353;}.cls-11{fill:#474748;}.cls-12{fill:#9c782c;}.cls-13{fill:#836528;}.cls-14{fill:#755924;}.cls-15{fill:#ebebea;}.cls-16{fill:#cbad2d;}.cls-17{fill:#e4c723;}.cls-18{fill:#46382c;}.cls-19{fill:#fff0e8;}</style></defs><title>explorers_ESTP_famous_fictional_seth_grayson_house_of_cards</title><polygon class="cls-1" points="103.7 384.97 193.02 399.41 289.85 387.03 193.99 371.66 103.7 384.97"/><polygon class="cls-2" points="179.02 174.59 185.92 165.08 191.19 165.69 195.17 172.3 185.11 214.66 180.3 211.55 179.02 174.59"/><polygon class="cls-2" points="201.05 165.69 195.17 172.3 199.62 216.63 202.61 210.86 214.95 176.87 206.24 165.08 201.05 165.69"/><polygon class="cls-3" points="255.5 203.91 257.26 215.95 262.5 230.15 285.78 225.88 296.3 218.97 267 160.72 260.71 168.73 255.5 203.91"/><polygon class="cls-4" points="173.01 132.78 180.18 149.48 195.9 162.64 213.37 155.2 217.56 150.58 222.84 146.01 230.75 126.18 217.18 129.69 176.67 128.62 173.01 132.78"/><polygon class="cls-5" points="232.13 64.59 225.21 47.41 213.78 124.74 209.47 133.63 224.88 133.63 217.56 150.58 216.14 154.08 226.13 150.63 229.5 145.84 245.32 109.89 244.29 102.89 241.38 99.51 237.6 68.46 232.13 64.59"/><polygon class="cls-4" points="235.77 97.78 245.32 109.89 248.87 101.82 243.77 95.58 235.77 97.78"/><polygon class="cls-6" points="237.94 57.13 232.13 64.59 233.88 86.27 238.15 87.88 244.34 77.11 253.25 80.82 258.72 79.45 273.29 46.35 262.5 46.24 237.94 57.13"/><polygon class="cls-7" points="215.81 32.67 225.21 47.41 232.13 64.59 273.29 46.35 260.25 38.03 226.18 25.23 217.6 28.54 215.81 32.67"/><polygon class="cls-6" points="234.83 7.07 226.88 8.97 214.94 22.64 217.6 28.54 273.29 46.35 234.83 7.07"/><polygon class="cls-6" points="164.19 2.84 162.46 8.72 170.76 36.38 174.87 37.18 186.15 7.68 164.19 2.84"/><polygon class="cls-7" points="183.21 0.59 172.3 33.03 174.87 37.18 215.81 32.67 217.6 28.54 234.83 7.07 183.21 0.59"/><polygon class="cls-7" points="142.06 14.6 142.75 21.34 149.15 30.33 153.97 29.57 156.25 33.49 170.76 36.38 172.3 33.03 164.19 2.84 142.06 14.6"/><polygon class="cls-6" points="134.69 43.3 145.47 59.94 149.42 60.58 156.25 33.49 153.97 29.57 142.06 14.6 134.69 43.3"/><polygon class="cls-8" points="165.6 132.61 209.47 133.63 221.21 112.14 225.21 47.41 217.6 28.54 172.3 33.03 153.97 29.57 145.47 59.94 148.32 115.7 165.6 132.61"/><polygon class="cls-5" points="158.3 64.84 152.5 68.57 161.62 76.33 169.23 95.44 174.77 74 170.09 69.15 158.3 64.84"/><polygon class="cls-5" points="178.92 73.91 184.54 67 200.4 62.48 205.39 66.36 192.49 74.52 184.45 95.18 178.92 73.91"/><polygon class="cls-4" points="178.31 101.49 169.23 95.44 176.67 92.94 184.45 95.18 178.31 101.49"/><path class="cls-9" d="M161.88,80.2a4,4,0,1,0-3.71-4A3.89,3.89,0,0,0,161.88,80.2Z"/><polygon class="cls-4" points="170.1 109.81 188.95 108.48 191.9 106.23 193.67 107.87 189.76 110.77 170.56 112.14 170.1 109.81"/><polygon class="cls-10" points="131.93 382.79 180.7 382.79 180.7 375.35 175.68 372.59 142.74 372.52 131.93 375.35 131.93 382.79"/><polygon class="cls-10" points="220.82 390.96 259.12 390.96 259.12 383.05 253.67 380.52 226.69 380.37 220.82 383.05 220.82 390.96"/><polygon class="cls-11" points="156.4 358.15 131.93 375.35 180.7 375.35 180.7 359.01 176.46 355.99 162.79 355.69 156.4 358.15"/><polygon class="cls-11" points="227.56 366.01 220.82 383.05 259.12 383.05 250.04 366.01 245.54 362.04 231.02 362.38 227.56 366.01"/><polygon class="cls-3" points="148.88 264.19 156.4 358.15 164.79 358.45 168.06 355.8 164.79 285.98 153.72 265.23 148.88 264.19"/><polygon class="cls-12" points="164.79 285.98 161.15 289.96 164.79 358.45 180.7 359.01 200.4 310.2 197.91 303.99 164.79 285.98"/><polygon class="cls-12" points="210.46 287.89 209.9 297.52 231.02 362.38 236.24 366.01 250.04 366.01 253.54 278.15 249.56 269.16 233.82 257.92 210.46 287.89"/><polygon class="cls-13" points="210.46 287.89 236.24 366.01 227.56 366.01 200.4 310.2 197.91 303.99 210.46 287.89"/><polygon class="cls-14" points="162.56 281.8 161.15 289.96 200.4 310.2 212.67 294.6 212.14 285.74 187.9 252.87 182.12 253.19 162.56 281.8"/><polygon class="cls-12" points="157.43 252.17 148.88 264.19 161.15 289.96 183.92 270.29 184.18 266.15 157.43 252.17"/><polygon class="cls-3" points="183.92 270.29 212.67 294.6 236 264.94 240.88 262.96 247.95 253.9 232.85 252.51 183.97 264.21 183.92 270.29"/><polygon class="cls-13" points="129.51 215.02 144.79 253.81 150.27 255.48 157.5 247.66 159.05 238.18 156.66 217.23 153.87 213.15 135.78 212.02 129.51 215.02"/><polygon class="cls-2" points="144.79 253.81 159.05 238.18 160.12 252.29 157.35 256.52 148.88 264.19 144.79 253.81"/><polygon class="cls-12" points="158.02 160.01 129.51 215.02 159.99 216.41 161.16 167.12 158.02 160.01"/><polygon class="cls-3" points="157.35 256.52 180.23 265.7 187.72 262.72 189.69 246.63 186.1 242.68 182.6 225.39 164.96 180.95 178.1 160.89 180.18 149.48 158.02 160.01 153.64 216.12 157.35 256.52"/><polygon class="cls-12" points="197.16 223.83 186.1 242.68 184.54 262.01 185.18 264.69 188.13 265.96 243.35 255.59 249.03 251.08 259.26 226.6 257.94 217.78 267 160.72 229.5 145.84 229.33 156.91 236.24 175.07 197.16 223.83"/><polygon class="cls-13" points="233.71 182.83 244.81 182.83 244.81 189.92 228.07 189.92 227.83 185.56 233.71 182.83"/><polygon class="cls-14" points="181.79 246.37 185.48 250.96 189.69 246.63 186.1 242.68 181.79 246.37"/><polygon class="cls-14" points="180.3 211.55 190.85 175.41 195.17 172.3 199.67 175.58 202.61 210.86 186.1 242.68 180.3 211.55"/><polygon class="cls-13" points="182.51 203.99 198.94 214.63 201.82 209.07 184.55 196.99 182.51 203.99"/><polygon class="cls-13" points="185.92 165.08 190.85 175.41 199.67 175.58 206.24 165.08 196.3 159.03 185.92 165.08"/><polygon class="cls-13" points="178.4 219.28 194.83 229.92 197.71 224.36 180.44 212.28 178.4 219.28"/><polygon class="cls-13" points="186.89 188.98 201.58 198.49 200.9 190.35 188.94 181.98 186.89 188.98"/><polygon class="cls-15" points="180.18 149.48 196.3 159.03 179.02 174.59 180.18 149.48"/><polygon class="cls-15" points="196.3 159.03 229.5 145.84 214.95 176.87 196.3 159.03"/><polygon class="cls-12" points="162.75 174.61 180.18 149.48 183.65 170.42 186.1 242.68 162.75 174.61"/><polygon class="cls-3" points="240.4 174.41 186.1 242.68 210.61 172.72 229.5 145.84 240.4 174.41"/><polygon class="cls-16" points="226.41 172.02 232.29 170.87 236.89 173.67 230.85 178.29 226.41 172.02"/><polygon class="cls-17" points="226.41 172.02 236.89 173.67 232.51 167.04 226.41 172.02"/><polygon class="cls-5" points="236 264.94 253.54 278.15 258.68 267.47 258.72 262.5 248.13 252.21 243.35 255.59 236 264.94"/><polygon class="cls-13" points="244.85 252.24 252.22 256.19 261.46 259.64 265.11 259.17 296.3 218.97 257.94 217.78 244.85 252.24"/><polygon class="cls-2" points="265.11 259.17 247.97 244.09 243.35 255.59 258.68 267.47 265.11 259.17"/><polygon class="cls-18" points="151.58 65.41 156.37 62.8 167.87 64.86 170.19 69.17 156.64 66.24 152.5 68.57 151.58 65.41"/><polygon class="cls-18" points="184.54 67 186.51 62.76 200.11 60.58 206.72 63.6 205.39 66.36 200.63 64.06 184.54 67"/><polygon class="cls-19" points="172.32 73.8 170.09 69.15 184.54 67 181.16 74 184.45 95.18 169.23 95.44 172.32 73.8"/><polygon class="cls-8" points="241.99 71.9 235.77 97.78 248.87 101.82 258.72 79.45 241.99 71.9"/><polygon class="cls-4" points="246.48 80.02 252.53 82.88 243.67 90.23 246.48 80.02"/><polygon class="cls-14" points="180.23 265.7 183.92 270.29 188.13 265.96 184.54 262.01 180.23 265.7"/><polygon class="cls-5" points="161.72 56.35 175.51 56.35 196.56 49.33 176.08 57.95 161.72 56.35"/><path class="cls-20" d="M165.84,76.11a4,4,0,1,1-4-4A4,4,0,0,1,165.84,76.11Z"/><path class="cls-20" d="M196.18,76.24a4,4,0,1,1-4-3.95A4,4,0,0,1,196.18,76.24Z"/></svg>