<svg id="Layer_1" data-name="Layer 1" xmlns="http://www.w3.org/2000/svg" viewBox="0 0 400 400"><defs><style>.cls-1{fill:#755924;}.cls-2,.cls-25{fill:#2b2b2b;}.cls-2{fill-opacity:0.1;}.cls-3{fill:#9c782c;}.cls-4{fill:#b38b2e;}.cls-5{fill:#cbad2d;}.cls-6{fill:#e4c723;}.cls-7{fill:#f3d65c;}.cls-8{fill:#9b9fa0;}.cls-9{fill:#6f7273;}.cls-10{fill:#4f5353;}.cls-11{fill:#848585;}.cls-12{fill:#8e8e8e;}.cls-13{fill:#836528;}.cls-14{fill:#ab913c;}.cls-15{fill:#474748;}.cls-16{fill:#737474;}.cls-17{fill:#8c7c2f;}.cls-18{fill:#ebebea;}.cls-19{fill:#cecdcc;}.cls-20{fill:#d0ae95;}.cls-21{fill:#a8836c;}.cls-22{fill:#eed2c1;}.cls-23{fill:#f6e5db;}.cls-24{fill:#bc8f2d;}</style></defs><title>explorers_ESTP_famous_fictional_d_artagnan_the_three_musketeers</title><path class="cls-1" d="M338.38,286.59l-29-.72s-33.77,9-33.7,4.53l23.28-20.84-20.69-68.47,48-6.61L337.44,256c1.73-.79,2.73-1.29,2.73-1.29l-.65,12.57Z"/><polygon class="cls-2" points="136.6 385.4 254.6 400 355.4 385.4 250.58 372.74 136.6 385.4"/><polygon class="cls-3" points="203.02 373.68 178.23 380.14 178.23 387.25 210.99 386.96 219.11 382.3 219.11 387.54 234.41 386.89 234.27 378.49 220.62 372.81 203.02 373.68"/><polygon class="cls-4" points="222.56 342.5 213.07 354.78 178.23 380.14 234.27 378.49 232.33 360.38 222.56 342.5"/><polygon class="cls-3" points="227.95 316.34 216.85 322.19 213.07 354.78 232.33 360.38 251.37 334.82 246 332.53 236.07 321.44 227.95 316.34"/><polygon class="cls-5" points="254.6 277.1 221.68 273.08 216.85 322.19 246 332.53 262.58 305.18 254.6 277.1"/><polygon class="cls-3" points="273.14 379.71 265.16 384.02 265.31 391.13 304.25 390.99 303.89 384.52 273.14 379.71"/><polygon class="cls-4" points="283.49 360.88 278.89 365.84 265.16 384.02 303.89 384.52 299.44 365.84 283.49 360.88"/><polygon class="cls-3" points="280.83 319.86 300.89 331.51 309.49 331.58 299.44 365.84 278.89 365.84 268.47 332.53 280.83 319.86"/><polygon class="cls-6" points="265.02 282.49 257.98 304.62 268.47 332.53 300.89 331.51 303.12 296.78 297.78 277.82 274.57 278.97 265.02 282.49"/><path class="cls-3" d="M174,182.41l-7.54-2.95-13.51-10.13s-1-9.55-.57-8.69,29.16-5.31,29.16-5.31Z"/><path class="cls-6" d="M81,157.26s23.93-5.67,24.64-4.38-1.65,9.13-1.65,9.13L82,171.2l-22.49,7,2.73-17Z"/><polygon class="cls-7" points="54.66 167.47 46.97 196.85 82.03 171.2 54.66 167.47"/><polygon class="cls-7" points="67.16 149 41.51 176.09 100.56 157.48 96.18 147.85 67.16 149"/><polygon class="cls-6" points="90.15 131.47 52.07 151.44 104.3 157.91 120.82 149 117.45 133.91 90.15 131.47"/><polygon class="cls-5" points="120.82 142.03 88.42 135.28 70.39 131.47 101.5 125.51 121.61 129.39 120.82 142.03"/><polygon class="cls-8" points="119.53 146.92 110.62 151.73 82.03 171.2 102.5 173.14 132.97 165.24 133.97 150.15 119.53 146.92"/><path class="cls-9" d="M146.69,113.37,119.24,120l-8.62,31.75,25.44,8s15.73-10.49,15.73-11.71,4-24.93,4-24.93Z"/><path class="cls-10" d="M146.69,113.37l2.37,33.33,10.85.36s11.93-20.26,10.92-19.32,4-12.51,4-12.51Z"/><polygon class="cls-10" points="174.71 134.06 166.59 125.15 174.85 115.23 183.47 132.76 174.71 134.06"/><polygon class="cls-11" points="149.06 146.7 166.59 125.15 186.13 128.24 186.71 149.58 182.69 160.21 157.75 172.14 143.53 166.96 149.06 146.7"/><polygon class="cls-9" points="186.13 128.24 187.35 128.38 210.06 129.53 213.44 136 207.62 148.21 182.69 160.21 182.9 148.86 186.13 128.24"/><polygon class="cls-12" points="102.5 173.14 149.06 146.7 157.75 172.14 102.5 173.14"/><polygon class="cls-4" points="182.76 178.6 182.69 172.71 190.44 150.37 182.9 148.86 166.45 179.47 182.76 178.6"/><polygon class="cls-5" points="193.97 204.25 194.47 189.09 215.74 170.12 225.36 208.92 219.18 212.51 209.63 215.82 193.97 204.25"/><polygon class="cls-6" points="186.78 190.24 194.47 189.09 209.63 215.82 181.53 225.16 172.77 200.95 186.78 190.24"/><polygon class="cls-3" points="231.25 162.58 221.77 160.28 208.41 162.94 219.18 212.51 233.19 189.52 231.25 162.58"/><polygon class="cls-5" points="237.58 255.91 222.7 262.66 221.68 273.08 257.98 304.62 285.5 282.49 300.37 266.11 280.18 254.98 237.58 255.91"/><polygon class="cls-13" points="231.97 246.43 222.56 252.75 222.7 262.66 306.91 266.11 307.48 258.14 304.1 252.25 277.02 232.49 231.97 246.43"/><polygon class="cls-9" points="304.82 286.16 302.38 297.51 356.77 356.57 358.49 354.84 309.35 285.87 304.82 286.16"/><polygon class="cls-14" points="331.12 218.33 346.5 229.61 349.94 292.98 331.05 305.05 331.91 256.05 326.02 239.24 331.12 218.33"/><polygon class="cls-5" points="319.91 266.76 346.5 229.61 321.56 218.55 313.73 227.96 319.91 266.76"/><polygon class="cls-6" points="320.27 159.35 325.59 166.46 346.5 229.61 314.23 226.6 305.97 214.17 313.16 164.59 320.27 159.35"/><polygon class="cls-3" points="294.4 181.41 310.07 151.81 329.97 155.76 305.97 214.17 294.4 181.41"/><polygon class="cls-4" points="232.19 162.8 221.77 160.28 219.18 212.51 220.48 227.96 228.88 229.33 222.56 252.75 304.1 252.25 310.07 151.81 232.19 162.8"/><polygon class="cls-9" points="287.51 254.11 301.3 259.36 299.22 277.82 282.84 284.65 271.77 280.84 270.48 264.6 287.51 254.11"/><polygon class="cls-9" points="295.7 279.26 282.84 284.65 271.77 280.84 270.48 264.6 276.16 261.15 290.81 272.08 296.92 276.89 295.7 279.26"/><polygon class="cls-9" points="261 256.05 263.73 256.2 263.3 252.53 265.6 248.22 268.25 243.77 265.52 240.39 258.41 252.53 261 256.05"/><polygon class="cls-15" points="285.93 269.06 283.84 273.08 270.91 269.92 269.76 265.11 272.85 263.17 285.93 269.06"/><polygon class="cls-10" points="270.91 269.92 261 256.05 263.3 252.53 272.85 263.17 270.91 269.92"/><polygon class="cls-16" points="291.17 265.75 271.49 240.53 267.82 243.34 270.77 246.14 276.23 256.77 290.81 272.08 291.17 265.75"/><polygon class="cls-10" points="267.82 243.34 262.58 245.35 283.84 273.08 290.81 272.08 270.77 246.14 267.82 243.34"/><polygon class="cls-17" points="276.8 167.32 281.9 184.49 222.56 252.75 220.48 227.96 276.8 167.32"/><path class="cls-15" d="M304.94,110.81l16.26,1.48L310.07,151.8,302,153.58l-17.34-19.37S305.25,111.12,304.94,110.81Z"/><polygon class="cls-18" points="253.81 146.2 255.18 160.5 232.48 185.43 221.77 160.28 236.07 143.97 253.81 146.2"/><polygon class="cls-18" points="250.72 147.85 255.18 160.5 281.9 184.49 310.07 151.81 304.18 147.78 287.51 143.61 280.9 131.83 250.72 147.85"/><polygon class="cls-19" points="291.26 137.09 277.5 156.22 310.07 151.81 294.6 136.94 291.26 137.09"/><polygon class="cls-20" points="256.19 145.33 255.18 160.5 287.06 132.04 291.26 109.1 272.6 72.01 262.02 81.57 248.02 144.4 256.19 145.33"/><polygon class="cls-21" points="240.4 134.45 233.79 142.07 255.18 160.5 271.12 137.87 253.08 140.28 240.4 134.45"/><polygon class="cls-10" points="285.97 112.6 282.86 118.12 277.5 156.22 321.19 112.29 285.97 112.6"/><polygon class="cls-9" points="281.54 62.99 269.64 79.16 282.86 118.12 321.19 112.29 303.12 80.33 281.54 62.99"/><polygon class="cls-10" points="281.15 21.93 305.97 37.95 303.12 80.33 269.64 79.16 267.39 79.47 245.3 47.59 281.15 21.93"/><polygon class="cls-9" points="196 32.35 207.2 46.66 249.19 50.85 305.97 37.95 268.55 3.89 228.12 12.99 196 32.35"/><polygon class="cls-10" points="173.68 55.6 168.86 70.22 192.27 80.33 188.69 63.69 173.68 55.6"/><polygon class="cls-10" points="189.63 22.39 169.02 31.03 168.86 70.22 186.51 63.69 196.16 47.67 201.21 25.82 189.63 22.39"/><polygon class="cls-9" points="242.81 7 232.08 3.58 221.74 0.31 203.23 4.74 169.02 31.03 196 32.35 242.81 7"/><polygon class="cls-11" points="196 32.35 232.08 3.58 244.14 0 268.55 3.89 196 32.35"/><polygon class="cls-22" points="193.44 40.75 186.51 63.69 194.84 107.15 215.99 145.65 220.65 145.02 225.24 140.75 234.49 142.61 253.08 140.28 269.95 117.03 269.64 79.16 249.19 50.85 204.63 37.95 193.44 40.75"/><polygon class="cls-20" points="196 32.35 193.44 40.75 249.19 50.85 196 32.35"/><polygon class="cls-21" points="211.01 115.86 229.83 112.6 235.12 109.33 239.08 110.34 232.24 114.85 212.56 118.27 211.01 115.86"/><path class="cls-20" d="M195.3,64.46C195.46,63,189,70,189,70l19.6,28.07,6.76-12.52,6.85,9.79,26.67-38.41-12.44-1.87L222.52,66.72,218,72.94l-2.26,3.34-2.64-2.1-4.28-5.13L206,65.63Z"/><polygon class="cls-21" points="212.49 92.77 208.6 98.06 216.92 102.56 222.21 95.33 212.49 92.77"/><polygon class="cls-9" points="208.44 64.15 194.21 62.91 188.61 68.74 189 69.98 195.15 67.11 208.83 69.05 208.44 64.15"/><polygon class="cls-9" points="220.88 61.66 236.52 53.19 249.03 55.52 248.88 56.92 237.84 57.39 222.52 66.72 220.88 61.66"/><polygon class="cls-23" points="213.11 74.18 208.6 98.06 222.21 95.33 218.01 72.94 213.11 74.18"/><polygon class="cls-9" points="214.35 106.38 204.09 113.14 190.4 112.05 206.11 118.2 215.29 111.35 214.35 106.38"/><polygon class="cls-9" points="220.19 104.51 237.52 105.29 249.19 100.47 239.08 110.34 221.43 109.72 220.19 104.51"/><polygon class="cls-9" points="222.13 131.96 220.65 145.02 234.49 142.61 222.13 131.96"/><polygon class="cls-3" points="298.93 269.56 296.92 276.89 282.84 284.65 302.38 297.51 298.93 269.56"/><polygon class="cls-24" points="309.71 257.7 301.3 259.36 296.92 276.89 302.38 297.51 317.25 272 309.71 257.7"/><polygon class="cls-3" points="344.84 248.08 314.23 226.6 301.3 259.36 317.25 272 344.84 248.08"/><polygon class="cls-3" points="169.47 212.23 194.47 189.09 182.69 172.71 166.45 179.47 169.47 212.23"/><polygon class="cls-11" points="270.77 246.14 271.49 240.53 265.52 240.39 262.58 245.35 270.77 246.14"/><path class="cls-25" d="M201.21,74.57a3.66,3.66,0,1,1-3.65,3.66A3.66,3.66,0,0,1,201.21,74.57Z"/><path class="cls-25" d="M233.48,67.42a3.66,3.66,0,1,1-3.65,3.65A3.65,3.65,0,0,1,233.48,67.42Z"/></svg>