<svg id="Layer_1" data-name="Layer 1" xmlns="http://www.w3.org/2000/svg" viewBox="0 0 400 400"><defs><style>.cls-1,.cls-17{fill:#2b2b2b;}.cls-1,.cls-10,.cls-11,.cls-12,.cls-13,.cls-14,.cls-15,.cls-16,.cls-17,.cls-18,.cls-19,.cls-2,.cls-3,.cls-4,.cls-5,.cls-6,.cls-7,.cls-8,.cls-9{fill-rule:evenodd;}.cls-1,.cls-16{opacity:0.1;}.cls-2{fill:#674837;}.cls-3{fill:#836528;}.cls-4{fill:#eed2c1;}.cls-5{fill:#d0ae95;}.cls-6{fill:#a8836c;}.cls-7{fill:#98796a;}.cls-8{fill:#593e35;}.cls-9{fill:#805e4f;}.cls-10,.cls-16{fill:#33231b;}.cls-11{fill:#9c782c;}.cls-12{fill:#cbad2d;}.cls-13{fill:#e4c723;}.cls-14{fill:#ba8e2d;}.cls-15{fill:#755924;}.cls-18{fill:#f6e5db;}.cls-19{fill:#e1a940;}</style></defs><title>explorers_ESTP_famous_fictional_fiona_glenanne_burn_notice</title><polygon class="cls-1" points="111.47 386.36 189.19 399.86 267.23 387.54 190.68 374.5 111.47 386.36"/><polygon class="cls-2" points="164.56 368.71 171.51 365.94 166.75 388.79 162.13 376.97 164.56 368.71"/><polygon class="cls-3" points="210.49 373.37 219.85 390.95 247.34 390.68 236.22 372.58 222.38 381.84 215.92 358.12 210.49 373.37"/><polygon class="cls-4" points="219.85 390.95 236.22 372.58 230.02 356.77 226.49 354.28 218.86 355.43 215.92 358.12 219.85 390.95"/><polygon class="cls-5" points="212.8 327.41 215.92 358.12 230.02 356.77 240.58 317.54 233.69 318.16 216.23 323.74 212.8 327.41"/><polygon class="cls-3" points="128.41 387.42 156.42 388.78 171.51 365.94 164.03 356.29 153.56 381.03 141.98 370.32 128.41 387.42"/><polygon class="cls-4" points="150.7 351.7 155.01 349.78 164.01 352.86 164.03 356.29 156.42 388.78 141.98 370.32 150.7 351.7"/><polygon class="cls-5" points="157.37 325.15 150.7 351.7 164.03 356.29 183.18 329.22 178.6 326.68 164.89 325.14 157.37 325.15"/><polygon class="cls-6" points="183.18 329.22 157.37 325.15 166.19 320.32 186.17 316.09 188.97 320.94 183.18 329.22"/><polygon class="cls-6" points="212.8 327.41 212.05 320.1 216.01 316.77 236.77 315.24 240.58 317.54 212.8 327.41"/><polygon class="cls-7" points="149.64 151.65 162.9 159.91 173.58 161.83 183.57 159.25 184.92 149.4 158.6 131.47 151.4 128.03 149.64 151.65"/><polygon class="cls-8" points="183.57 159.25 174.41 166.42 168.38 163.67 149.64 151.65 183.57 159.25"/><polygon class="cls-9" points="190.01 124.45 155.72 123.08 151.4 128.03 183.57 159.25 181.25 164.24 196.02 160.45 198.02 150.48 190.01 124.45"/><polygon class="cls-10" points="195.17 141.22 186.16 128.16 183.57 159.25 196.02 160.45 195.17 141.22"/><polygon class="cls-8" points="157.45 88.87 166.47 108.8 172.54 128.03 151.4 128.03 149.09 113.45 157.45 88.87"/><polygon class="cls-7" points="147.57 94 138.19 103.38 151.4 128.03 156.34 106.36 159.19 99.19 147.57 94"/><polygon class="cls-9" points="142.23 75.26 152.29 75.65 159.19 99.19 138.19 103.38 142.23 75.26"/><polygon class="cls-8" points="136.15 66.67 159.19 99.19 163.86 91.48 158.75 52.1 136.15 66.67"/><polygon class="cls-9" points="196.87 0.14 153.96 15.79 157.59 20.46 189.12 29.9 198.45 8.21 196.87 0.14"/><polygon class="cls-7" points="189.12 29.9 186.19 24.71 196.87 0.14 244.1 11.91 239.24 19.48 189.12 29.9"/><polygon class="cls-8" points="266.59 67.36 256.06 62.59 231.91 28.97 229.28 16.86 244.1 11.91 266.59 67.36"/><polygon class="cls-8" points="247.32 110.47 238.68 79.92 238.73 67.17 250.2 61.4 266.59 67.36 264.71 83.92 247.32 110.47"/><polygon class="cls-7" points="284.94 100.29 275.06 106.73 266.09 107.57 249.07 102.74 266.59 67.36 284.94 100.29"/><polygon class="cls-9" points="254.58 115.79 269.59 135.62 279.75 138.34 284.94 100.29 249.07 102.74 254.58 115.79"/><polygon class="cls-8" points="244.38 161.23 244.23 148.65 245.57 116.94 249.23 102.78 279.75 138.34 274.85 147.12 263.59 155.48 244.38 161.23"/><polygon class="cls-8" points="288.53 164.41 279.75 138.34 263.04 161.37 268.75 190.97 288.53 164.41"/><polygon class="cls-9" points="257.78 164.34 247.64 155.36 279.75 138.34 267.96 163.29 257.78 164.34"/><polygon class="cls-10" points="226.55 137.47 228.05 147.48 229.55 153.48 246.32 162.24 247.64 155.36 249.21 102.56 241.76 104.01 226.55 137.47"/><polygon class="cls-11" points="258.42 345.95 258.42 325.04 264.86 321.32 264.86 319.57 258.42 315.85 258.42 294.94 248.56 327.78 252.06 331.92 248.57 335.08 244.81 328.84 256.83 288.41 269.06 287.53 269.06 291.67 282.7 295.33 282.7 316.07 269.06 319.73 269.06 321.16 282.7 324.82 282.7 345.56 269.06 349.22 269.06 353.36 264.86 353.36 264.39 349.83 258.42 345.95"/><polygon class="cls-4" points="163.44 254.89 159.83 279.78 169.9 280.55 173.32 274.65 163.44 254.89"/><polygon class="cls-5" points="159.83 279.78 169.11 277.54 171.04 284.92 165.54 292.02 159.83 279.78"/><polygon class="cls-5" points="179.4 251.47 171.42 249.57 166.29 251.66 163.44 254.89 169.11 277.54 173.32 274.65 179.4 251.47"/><polygon class="cls-5" points="168.38 163.67 165.79 211.41 168.76 216.12 177.96 216.47 172.56 187.05 185.08 163.26 183.57 159.25 168.38 163.67"/><polygon class="cls-4" points="165.79 211.41 177.15 212.09 182.67 241.05 179.4 251.47 163.44 254.89 165.79 211.41"/><polygon class="cls-11" points="248.38 316.83 157.37 325.15 161.39 308.87 171.12 299.28 240.59 281.49 249 285.64 248.38 316.83"/><polygon class="cls-12" points="257.31 254.13 255.74 267.51 251.7 275.4 249 285.64 161.39 308.87 177.88 241.97 185.86 240.45 251.61 251.09 257.31 254.13"/><polygon class="cls-13" points="229.92 215.25 220.83 214.98 181.3 235.89 177.88 241.97 257.31 254.13 229.92 215.25"/><polygon class="cls-14" points="167.09 187.54 177.88 241.97 229.92 215.25 242.75 197.73 236.79 192.94 177.12 186.48 167.09 187.54"/><polygon class="cls-4" points="183.57 159.25 167.09 187.54 178.3 187.36 215.6 174.16 236.22 157.78 237.43 151.37 228.05 147.71 203.45 159.26 197.01 155.4 183.57 159.25"/><polygon class="cls-12" points="242.75 197.73 167.09 187.54 211.71 170.89 218.93 171.65 238.31 185.72 242.75 197.73"/><polygon class="cls-5" points="267.96 163.29 264.75 174.12 250.47 192.94 242.75 197.73 238.31 185.72 241.92 158.92 247.64 155.36 267.96 163.29"/><polygon class="cls-13" points="237.43 151.37 211.71 170.89 242.75 197.73 247.64 155.36 237.43 151.37"/><polygon class="cls-4" points="242.75 197.73 267.96 163.29 269.43 214.4 265.68 218.78 250.97 219.03 247.17 214.85 242.75 197.73"/><polygon class="cls-5" points="247.17 214.85 269.43 214.4 270.84 256.2 266.82 258.31 261.12 258.31 257.31 254.13 247.17 214.85"/><polygon class="cls-5" points="251.7 275.4 257.31 254.13 259.4 257.74 259.79 274.84 256.83 280.9 251.7 275.4"/><polygon class="cls-5" points="258.42 294.94 256.83 280.9 264.35 275.22 278.6 275.41 265.41 284.28 264.32 291.12 258.42 294.94"/><path class="cls-15" d="M261.46,296.47v17.1l5.9,3.63,12.43-3.66V297.77l-14-3.77-4.37,2.47Zm0,48V327.32l5.9-3.63,12.43,3.66v15.77l-14,3.78Z"/><polygon class="cls-16" points="229.92 215.25 161.39 308.87 249 285.64 257.31 254.13 229.92 215.25"/><polygon class="cls-4" points="256.83 280.9 257.31 254.13 270.84 256.2 278.6 275.41 256.83 280.9"/><polygon class="cls-6" points="198.02 167 219.88 152.84 231.88 125.73 190.22 125.13 185.84 129.04 198.02 167"/><polygon class="cls-5" points="214.36 129.78 226.63 130.23 198.02 167 228.05 147.71 249.07 102.74 243.3 95.37 241.47 76.57 238.73 67.17 227.46 36.38 210.28 112.59 214.36 129.78"/><polygon class="cls-4" points="173.03 24.93 206.76 24.38 223.84 36.67 231.88 53.83 229.5 105.03 214.36 129.78 172.54 128.03 156.34 106.36 154.59 60.01 162.43 36.24 173.03 24.93"/><polygon class="cls-5" points="159.14 64.9 168.45 61.63 182.96 64.61 184.82 68.85 185.94 80.67 181.53 92.8 171.77 71.61 159.14 64.9"/><polygon class="cls-5" points="190.9 82.27 192.45 68.86 196.5 64.06 210.39 60.36 224.07 62.95 208.45 71.02 194.44 92.79 190.9 82.27"/><polygon class="cls-10" points="168.45 59.64 159.14 64.9 168.35 63.1 182.96 64.61 168.45 59.64"/><polygon class="cls-10" points="196.5 64.06 211.36 61.42 224.07 62.95 211.79 58.13 196.5 64.06"/><path class="cls-17" d="M171.33,67.5a4.12,4.12,0,1,1-3.82,4.19A4,4,0,0,1,171.33,67.5Z"/><path class="cls-17" d="M206.23,67.68a4.12,4.12,0,1,1-3.82,4.2A4,4,0,0,1,206.23,67.68Z"/><polygon class="cls-6" points="188.29 98.85 181.53 92.8 194.44 92.79 188.29 98.85"/><polygon class="cls-18" points="181.53 92.8 184.82 68.85 192.45 68.86 194.44 92.79 181.53 92.8"/><polygon class="cls-19" points="183.89 112.34 176.85 107.35 189.67 106.36 205.38 107.79 195.66 112.59 183.89 112.34"/><polygon class="cls-11" points="176.85 107.35 188.95 108.56 205.38 107.79 194.84 104.58 183.21 104.58 176.85 107.35"/><polygon class="cls-6" points="249.07 102.74 239.56 95 244.05 93.21 247.04 95.74 249.07 102.74"/><polygon class="cls-4" points="241.47 76.57 239.56 95 247.04 95.74 241.47 76.57"/><polygon class="cls-7" points="153.96 15.79 173.03 24.93 154.59 60.01 136.15 66.67 153.96 15.79"/><polygon class="cls-9" points="238.73 67.17 266.59 67.36 229.28 16.86 206.76 24.38 238.73 67.17"/></svg>