<svg id="Layer_1" data-name="Layer 1" xmlns="http://www.w3.org/2000/svg" viewBox="0 0 400 400"><defs><style>.cls-1{fill:#54af8a;}.cls-2,.cls-26{fill:#2b2b2b;}.cls-2{fill-opacity:0.1;}.cls-3{fill:#fbe3d4;}.cls-4{fill:#f4cab2;}.cls-5{fill:#35785e;}.cls-6{fill:#3f8e6f;}.cls-7{fill:#74c7a5;}.cls-8{fill:#b7c644;}.cls-9{fill:#d8e156;}.cls-10{fill:#e5e97b;}.cls-11{fill:#dedfdd;}.cls-12{fill:#5a753d;}.cls-13{fill:#738c57;}.cls-14{fill:#ebeceb;}.cls-15{fill:#afadad;}.cls-16{fill:#bbbaba;}.cls-17{fill:#a6a4a4;}.cls-18{fill:#b6b4b4;}.cls-19{fill:#c3c2c3;}.cls-20{fill:#d8d7d5;}.cls-21{fill:#d0d0ce;}.cls-22{fill:#cccbcb;}.cls-23{fill:#b8b6b6;}.cls-24{fill:#cac9c7;}.cls-25{fill:#c18f7c;}.cls-27{fill:#709c52;}.cls-28{fill:#cfcecd;}.cls-29{fill:#c8c7c8;}.cls-30{fill:#f2f3f4;}.cls-31{fill:#fff0e8;}</style></defs><title>diplomats_ENFJ_famous_fictional_daenerys_targaryen_game_of_thrones</title><polygon class="cls-1" points="142.59 114.1 125.3 107.69 119.16 111.2 109.24 120.33 123.28 132.97 128.81 128.76 144.53 119.54 142.59 114.1"/><polygon class="cls-2" points="100.83 382.19 230.79 400.07 311.46 386.13 230.1 375.65 100.83 382.19"/><polygon class="cls-3" points="124.42 158.78 119.42 157.47 96.33 147.11 91.33 132.89 97.03 132.27 102.83 141.93 118.45 146.67 122.93 146.67 129.87 146.49 124.42 158.78"/><polygon class="cls-4" points="122.05 147.72 112.57 153.16 102.83 141.93 119.95 144.39 122.05 147.72"/><polygon class="cls-4" points="150.76 185.38 138.29 194.34 119.42 157.47 124.42 152.2 120.74 148.51 129.87 146.49 148.83 171.69 150.76 185.38"/><polygon class="cls-3" points="171.56 160.19 164.54 163.35 157.34 169.49 148.83 171.69 138.29 194.34 179.64 192.76 182.98 164.31 171.56 160.19"/><path class="cls-5" d="M156,167l-7.2,4.74,11.5,7.2,6-6.59s-4.83-6.67-7.38-5.62S156,167,156,167Z"/><polygon class="cls-6" points="157.17 160.54 153.92 163.09 148.83 171.69 166.3 172.3 164.54 163.35 157.17 160.54"/><path class="cls-1" d="M143.3,136.66l-9.48,2.2,18,13.78,3,3.33,7.55-5,7.28,11.5L168,164.14c5.45.35,10.28.7,9.92.35L158,145.35l-3.95-6.49Z"/><path class="cls-7" d="M151.81,152.64l2.11,10.45s4.12.35,10.71.87l-.88-9.57-1.4-3.42Z"/><polygon class="cls-7" points="143.47 93.91 136.8 115.86 133.82 138.86 154.09 138.86 156.64 131.92 143.47 93.91"/><path class="cls-6" d="M119.24,95.67,141,107.6l17.82-7.19s-12.65-33.36-11.77-33.8-36.43,3.07-36.43,3.07Z"/><path class="cls-8" d="M131.71,82.85l-5.53-5.8-26.86,5,9.39,15,2.11,6.76c3.86-4,11.23-6.5,15.8-11.06C129.52,89.87,130,84.43,131.71,82.85Z"/><path class="cls-8" d="M112.48,109.45l6.68,1.75L135.4,98.39l3-8.43-6.67-7.11c-4.21,4-14.48,14.57-20.89,21Z"/><polygon class="cls-9" points="119.16 111.2 128.81 113.75 139 105.23 144.26 96.02 138.38 89.96 119.16 111.2"/><polygon class="cls-9" points="128.81 113.75 136.8 115.86 141.01 107.61 146.02 97.95 144.26 96.02 128.81 113.75"/><polygon class="cls-10" points="72.37 83.38 116.08 71 84.31 23.68 72.37 83.38"/><polygon class="cls-9" points="56.39 78.9 90.71 85.04 85.01 32.2 82.02 28.6 56.39 78.9"/><polygon class="cls-8" points="40.85 89.61 43.57 143.42 61.92 109.01 70.17 78.11 84.92 32.02 41.29 78.11 40.85 89.61"/><polygon class="cls-5" points="53.84 61.25 36.64 77.49 43.57 143.42 45.94 78.63 53.84 61.25"/><polygon class="cls-6" points="92.82 37.81 83.78 15.34 36.64 77.49 45.94 78.63 84.92 32.02 92.82 37.81"/><polygon class="cls-1" points="139.79 76.35 83.78 15.34 84.92 32.02 102.74 67.92 139.79 76.35"/><path class="cls-5" d="M70.87,93.21C70,92.07,75.61,116,75.61,116l21.6,11.06,31.6-13.34-26.07-12.12-21.68,1.5Z"/><polygon class="cls-11" points="118.28 108.48 117.22 113.66 111.87 117.26 110.55 113.66 105.2 117.52 102.92 113.57 97.03 117.08 94.4 113.48 118.28 108.48"/><polygon class="cls-8" points="282 289.85 272.17 323.56 211.59 302.49 254.52 266.5 282 289.85"/><polygon class="cls-9" points="281.56 214.44 282 289.85 259.7 279.31 240.56 296.78 237.05 229.01 261.19 204.61 272.08 200.66 281.56 214.44"/><polygon class="cls-8" points="263.48 206.89 274.54 216.81 259.7 279.31 243.81 253.06 263.48 206.89"/><polygon class="cls-10" points="281.56 214.44 261.37 221.37 247.94 248.59 220.28 198.9 266.64 159.66 281.56 214.44"/><polygon class="cls-1" points="218.35 364.73 231.26 387.29 245.13 390.01 267.43 387.2 257.24 378.6 244.6 343.92 218.35 364.73"/><polygon class="cls-6" points="231.26 387.29 228.8 391.59 268.74 391.68 267.43 387.2 231.26 387.29"/><polygon class="cls-5" points="267.43 387.2 264.27 375.7 241.53 355.69 230.12 374.82 249.17 382.64 267.43 387.2"/><polygon class="cls-1" points="193.77 355.51 182.36 366.31 164.98 382.02 196.14 387.29 193.77 355.51"/><path class="cls-6" d="M164.45,382v5.09l31.69.18-.35-4.92C184.91,382.29,172.09,382.11,164.45,382Z"/><polygon class="cls-5" points="196.14 387.29 213.09 383.43 199.04 365.69 182.27 366.4 196.14 387.29"/><path class="cls-5" d="M196.14,387.29l14.23.09-2.46-4.83c-4.13-.09-9.4-.18-15-.18Z"/><polygon class="cls-12" points="248.73 248.59 215.9 248.85 178.41 281.68 182.63 366.48 224.15 374.56 230.56 365.43 248.73 248.59"/><polygon class="cls-12" points="182.36 366.31 210.37 387.38 231.26 387.29 265.06 378.42 234.51 351.91 182.36 366.31"/><polygon class="cls-13" points="182.63 366.48 228.89 372.54 244.6 370.7 272.17 323.56 259.7 279.31 246.53 271.32 232.66 283.62 182.63 366.48"/><polygon class="cls-12" points="243.37 283 245.31 289.94 259.7 279.31 253.38 261.49 243.37 283"/><polygon class="cls-12" points="182.27 366.4 236.79 377.11 240.74 371.05 265.06 378.42 287.27 372.89 272.17 323.56 182.27 366.4"/><polygon class="cls-13" points="234.16 242.18 248.73 248.59 178.41 281.68 185.08 249.2 234.16 242.18"/><polygon class="cls-4" points="241.27 262.02 226.69 268.6 230.03 289.32 245.31 289.94 251.89 280.63 241.27 262.02"/><polygon class="cls-3" points="248.11 252.8 242.58 248.68 226.69 268.6 251.89 280.63 254.35 264.3 248.11 252.8"/><polygon class="cls-1" points="194.21 216.72 182.98 226.82 185.08 249.2 248.73 248.59 237.23 232.7 194.21 216.72"/><polygon class="cls-6" points="193.51 217.34 182.98 226.82 242.58 248.68 245.22 249.03 258.56 239.2 249.52 225.94 198.6 217.42 193.51 217.34"/><polygon class="cls-12" points="182.98 226.82 249.52 225.94 267.95 200.83 227.31 181.43 175.34 198.29 182.98 226.82"/><path class="cls-13" d="M178.5,182.05l-3.16,16.24,73.83-.18-7.46-46.61s-69.18,5.88-69.27,7.11S178.5,182.05,178.5,182.05Z"/><path class="cls-13" d="M176.57,180.73l-1.23,17.56,13.87-29L183.94,148s-10.71,5.09-10.53,6.4Z"/><path class="cls-14" d="M176.74,165.81l6.94,8.86-8.34,23.62.17-17.91s-2.63-11.94-2.1-12.29S176.74,165.81,176.74,165.81Z"/><polygon class="cls-11" points="171.21 167.56 173.76 176.43 175.34 198.29 177.18 172.21 171.21 167.56"/><polygon class="cls-9" points="190.26 162.47 175.69 166.07 168.58 148.86 190.26 144.3 190.26 162.47"/><path class="cls-15" d="M188.51,146.49l-5.36,6.24-9.83,4.56-9.39-16.77s12.9-1.93,13.69-2.72,10.62,2.9,10.62,2.9Z"/><polygon class="cls-16" points="168.84 136.84 171.13 145.79 184.82 143.16 181.13 121.56 167.79 130.43 168.84 136.84"/><polygon class="cls-17" points="182.36 136.75 184.82 143.16 183.15 152.73 196.85 155.62 204.75 139.29 191.67 128.94 182.36 136.75"/><polygon class="cls-18" points="175.87 125.6 173.32 132.1 184.82 143.16 198.25 133.59 192.46 120.6 175.87 125.6"/><path class="cls-11" d="M246.53,119.54s-2.1,35.82-1.23,36,10.8,7.72,10.8,7.72l7.73-28.53s-2.9-16.94-3.69-16.33S246.53,119.54,246.53,119.54Z"/><polygon class="cls-19" points="261.63 131.75 259.44 137.01 256.45 150.97 264.97 153.43 269.09 136.31 261.63 131.75"/><polygon class="cls-14" points="258.65 118.14 264.27 125.6 269.09 136.31 259.44 137.01 254.35 124.9 258.65 118.14"/><path class="cls-19" d="M244.34,79.69C242.41,79.6,267.08,104,267.08,104l-2.81,21.6L254,124.81,239.16,91.1S244.25,79.69,244.34,79.69Z"/><polygon class="cls-20" points="245.04 71.53 254.7 82.23 267.07 104 257.33 103.57 236.18 87.33 245.04 71.53"/><polygon class="cls-14" points="246.88 82.23 249.43 81 257.33 103.57 254 124.81 231.61 96.19 246.88 82.23"/><polygon class="cls-11" points="167.18 142.54 171.13 145.79 183.68 174.67 177.18 172.21 161.29 149.48 167.18 142.54"/><polygon class="cls-14" points="160.77 143.51 158.22 151.59 173.76 176.43 177.18 172.21 163.49 149.3 160.77 143.51"/><path class="cls-14" d="M166.39,125.69l6.93,6.41-2.19,13.69-7.64,3.51s-5-19.31-4.57-20S166.39,125.69,166.39,125.69Z"/><polygon class="cls-21" points="157.78 127.53 156.64 131.92 158.22 151.59 163.49 149.3 164.28 131.75 157.78 127.53"/><polygon class="cls-6" points="90.8 78.63 102.74 67.92 131.53 45.89 126.18 77.06 109.76 86.36 90.8 78.63"/><polygon class="cls-5" points="72.37 83.38 70.17 78.11 102.74 67.92 109.76 86.36 72.63 94.96 72.37 83.38"/><polygon class="cls-1" points="65.69 94.79 70.17 78.11 80 84.25 65.69 94.79"/><polygon class="cls-6" points="66.05 93.56 80 84.25 83.78 101.19 77.28 104.88 75.61 116.03 61.92 109.01 66.05 93.56"/><polygon class="cls-9" points="133.99 32.99 139.79 76.35 185.26 57.13 162 29.3 133.03 13.76 133.99 32.99"/><polygon class="cls-8" points="166.39 34.57 162 29.3 139.79 17.36 137.24 20.78 152.08 36.94 158.22 40.19 166.39 34.57"/><path class="cls-1" d="M140.93,14.73l-3.69,6.05,7.37,38.28s4.48,8.69,4.22,9.48-1.67,17.12-1.67,17.12l-21-8.61,4.48-75.67Z"/><polygon class="cls-6" points="162 27.1 130.66 1.38 137.24 20.78 158.84 31.76 162 27.1"/><polygon class="cls-3" points="253.47 156.32 266.64 159.66 274.54 216.81 265.14 229.8 252.24 217.07 249.17 198.11 245.04 191.09 253.47 156.32"/><path class="cls-4" d="M253.47,156.33l11.5-2.9,1.67,6.23-7.29,11.68-10.18,26.77h0s-.09-13.34.08-24.58Z"/><polygon class="cls-13" points="253.47 156.32 257.68 167.21 249.17 198.11 242.5 194.86 231.96 160.8 253.47 156.32"/><path class="cls-13" d="M253.47,156.33l.53,1.4-4.39,9.13L232.75,198.2c0-.09,2.81-37.31,3.25-36.87s.53-.44,1.14-1.58Z"/><polygon class="cls-9" points="245.04 152.73 257.24 151.15 264.97 153.43 257.68 167.21 243.46 166.51 239.16 155.62 245.04 152.73"/><polygon class="cls-9" points="244.25 147.46 257.24 151.15 249.61 166.86 243.46 166.51 239.16 155.62 239.16 155.54 244.25 147.46"/><path class="cls-9" d="M196.23,153.52l-8.34-3.25-2.28,4.21,3.6,14.84,3.42,9.48h40s.79-23.7.08-23.53S196.23,153.52,196.23,153.52Z"/><polygon class="cls-9" points="192.54 152.02 187.89 150.27 183.15 152.73 189.21 169.32 190.26 156.85 192.54 152.02"/><path class="cls-3" d="M232,160.8c.18,1.49-5,10.19-5,10.19l-31.52.17-7.55-20.89,12.56-6.76,36.87-1.85Z"/><polygon class="cls-4" points="190.26 156.85 187.89 150.27 195.35 146.23 201.24 150.62 190.26 156.85"/><path class="cls-4" d="M207.38,141.58l-1,20.1,31-20L241,113.92S237.49,94,238.72,93s2.9-40.55,2.9-40.55l-33.54.43Z"/><polygon class="cls-22" points="243.2 156.32 243.46 166.51 232.75 198.2 232.14 184.24 232.05 166.16 243.2 156.32"/><polygon class="cls-11" points="231.96 160.8 221.95 171.07 232.75 198.2 235.38 165.63 231.96 160.8"/><polygon class="cls-19" points="239.51 134.38 235.38 165.63 243.46 166.51 254 124.81 242.58 120.6 239.51 134.38"/><polygon class="cls-14" points="237.75 114.36 234.51 125.42 221.95 171.07 235.38 165.63 244.69 129.72 237.75 114.36"/><polygon class="cls-23" points="241 113.92 244.69 129.72 254 124.81 246.18 100.06 241 113.92"/><polygon class="cls-11" points="232.31 95.05 226.17 105.94 234.51 125.42 244.69 129.72 246.18 100.06 232.31 95.05"/><polygon class="cls-14" points="225.29 59.59 226.17 105.94 246.18 100.06 225.29 59.59"/><path class="cls-24" d="M245.66,56.69,254,62.48l.7,19.75-10.45-2.37s-13.69-21.5-13.78-20.71,4.65-5.8,4.65-5.8Z"/><polygon class="cls-11" points="227.4 53.7 218.09 57.41 246.18 100.06 249.43 81 237.58 56.69 227.4 53.7"/><path class="cls-11" d="M145.05,103.13l-4.21,5,15.8,23.79,7.64-.17s-11.06-35.38-10.45-35.38S145.05,103.13,145.05,103.13Z"/><polygon class="cls-19" points="149 100.06 149.44 107.61 164.28 131.75 173.32 132.1 166.74 96.81 149 100.06"/><polygon class="cls-14" points="149.18 79.25 147.16 85.66 140.84 108.13 149.44 107.61 157.87 98.39 161.38 81.97 149.18 79.25"/><polygon class="cls-11" points="145.49 64.06 140.66 67.22 147.16 85.66 165.16 83.81 155.76 65.91 145.49 64.06"/><polygon class="cls-19" points="149.35 50.98 144.61 59.06 140.66 67.22 155.06 71.17 157.43 54.23 149.35 50.98"/><polygon class="cls-25" points="181.92 127.44 206.33 161.68 225.38 131.92 207.47 131.66 181.92 127.44"/><polygon class="cls-3" points="151.81 47.21 154.89 101.64 168.84 132.1 207.47 131.66 218.09 101.85 218.09 57.41 211.33 19.82 169.72 27.54 151.81 47.21"/><polygon class="cls-4" points="153.74 43.61 152.08 53.18 173.41 41.59 202.73 44.66 219.76 58.79 209.31 35.88 179.29 35.09 177.27 37.81 164.72 36.23 153.74 43.61"/><path class="cls-4" d="M164.63,62.48l-1.76-.26-6.58,2.19L174.9,92.68l5.71-8.51,2.72,8.69,26.86-26.25s-10.27-3.69-10.8-3.34S187.54,68,187.54,68l-4.91,4.74-2.81,4-2.64-4-2.63-4.65Z"/><path class="cls-26" d="M193.6,74.07a3.16,3.16,0,1,1-3.16,3.16A3.16,3.16,0,0,1,193.6,74.07Z"/><path class="cls-26" d="M167.26,74.33a3.16,3.16,0,1,1-3.16,3.16A3.16,3.16,0,0,1,167.26,74.33Z"/><path class="cls-27" d="M177.27,108c-.35.27-7.2,1.23-7.2,1.23l12.56,7.38,14.3-7.82Z"/><polygon class="cls-25" points="179.2 88.91 174.9 92.68 179.38 96.37 183.33 92.86 179.2 88.91"/><polygon class="cls-28" points="233.45 28.86 251.36 29.56 258.56 54.67 249.17 55.9 237.58 56.69 218.09 48.09 233.45 28.86"/><polygon class="cls-19" points="258.56 54.67 254.35 72.4 237.58 56.69 258.56 54.67"/><path class="cls-29" d="M182.19,10.51,169.9,7.26,152.08,36.94s16.15-3.43,18.52-4.39,22.12-16.68,22.12-16.68Z"/><polygon class="cls-30" points="215.1 8.85 210.45 3.05 199.83 0.07 169.9 7.26 176.13 18.41 181.4 30.27 211.33 19.82 215.1 8.85"/><polygon class="cls-14" points="220.9 21.4 234.59 6.12 210.45 3.05 184.47 27.89 211.33 36.5 220.9 21.4"/><polygon class="cls-11" points="216.34 47.65 226.96 50.45 251.36 29.56 234.59 6.12 199.66 27.89 216.34 47.65"/><polygon class="cls-14" points="199.66 27.89 196.58 31.84 218.09 57.41 237.58 56.69 199.66 27.89"/><polygon class="cls-29" points="176.39 24.65 169.28 37.99 202.11 38.25 199.66 27.89 180.96 27.89 176.39 24.65"/><polygon class="cls-14" points="144.61 59.06 147.86 40.19 176.13 18.41 184.47 27.89 144.61 59.06"/><polygon class="cls-23" points="156.29 64.41 163.49 61.52 175.08 64.33 174.55 68.1 163.58 64.24 156.29 64.41"/><polygon class="cls-23" points="186.4 64.15 187.54 68.01 200.62 64.68 210.19 66.61 200.53 61.34 186.4 64.15"/><polygon class="cls-31" points="177.18 72.75 174.9 92.68 183.33 92.86 182.63 72.75 177.18 72.75"/><polygon class="cls-12" points="168.4 106.11 172.97 107.87 180.69 105.32 194.91 106.46 200.18 104.27 196.93 108.83 182.01 111.29 170.07 109.27 168.4 106.11"/><polygon class="cls-1" points="70.17 78.11 109.76 86.36 110.29 102.07 94.4 113.48 77.11 104.88 70.17 78.11"/><polygon class="cls-7" points="109.76 86.36 128.81 113.75 94.4 113.48 109.76 86.36"/><path class="cls-5" d="M106.08,98.3a3,3,0,1,0-3-3A3,3,0,0,0,106.08,98.3Z"/><polygon class="cls-7" points="110.11 121.56 122.41 138.06 125.56 140 133.82 138.86 131.09 127.36 110.11 121.56"/><polygon class="cls-1" points="122.41 138.06 119.95 144.39 122.05 147.72 129.87 146.58 133.82 138.86 122.41 138.06"/><polygon class="cls-6" points="119.95 144.39 106.95 146.67 116.35 151.23 124.42 152.2 129.87 146.49 119.95 144.39"/><polygon class="cls-5" points="106.95 146.67 112.57 153.16 124.42 152.2 106.95 146.67"/><polygon class="cls-4" points="252.24 217.07 242.58 248.68 254.35 264.3 274.54 216.81 252.24 217.07"/></svg>