<svg id="Layer_1" data-name="Layer 1" xmlns="http://www.w3.org/2000/svg" viewBox="0 0 400 400"><defs><style>.cls-1,.cls-2{fill:#2b2b2b;}.cls-2{opacity:0.1;}.cls-3{fill:#593e35;}.cls-4{fill:#7f5d4e;}.cls-5{fill:#d9e354;}.cls-6{fill:#b8c745;}.cls-7{fill:#66483a;}.cls-8{fill:#5a753d;}.cls-9{fill:#446125;}.cls-10{fill:#dddddc;}.cls-11{fill:#a27e6e;}.cls-12{fill:#6f7173;}.cls-13{fill:#c4c4c4;}.cls-14{fill:#9da1a2;}.cls-15{fill:#474747;}.cls-16{fill:#4f5253;}.cls-17{fill:#ececeb;}.cls-18{fill:#aa8d80;}.cls-19{fill:#a0cf7e;}.cls-20{fill:#bfdb8e;}</style></defs><title>diplomats_ENFJ_famous_real_maya_angelou</title><polygon class="cls-1" points="126.9 93.31 124.39 80.68 136.18 76.36 140.64 76.79 138.08 94.58 138.3 113.85 127.04 109.48 126.9 93.31"/><polygon class="cls-1" points="156.85 326.98 153.63 339.88 211.59 359.9 240.9 353.17 216.02 309.73 159.31 310.13 156.85 326.98"/><polygon class="cls-2" points="108.75 386.55 203.45 376.47 287.22 389.52 210.77 400 108.75 386.55"/><polygon class="cls-3" points="205.37 336.55 208.79 364.62 218.89 369.96 226.06 366.63 232.66 335.29 216.63 330.92 205.37 336.55"/><polygon class="cls-3" points="196.44 334.58 200.82 366.47 186.95 366.47 181.33 359.95 167.45 330.92 178.59 324.91 196.44 334.58"/><polygon class="cls-4" points="208.79 364.62 203.79 378.47 218.39 383.96 231.68 380.98 226.06 366.63 208.79 364.62"/><polygon class="cls-5" points="203.79 378.47 231.68 380.98 234.02 386.73 214.92 389.52 200.82 386.73 203.79 378.47"/><rect class="cls-6" x="200.82" y="386.73" width="33.19" height="5.58"/><polygon class="cls-4" points="181.33 359.95 166.16 370.8 186.95 383.94 200.82 366.47 181.33 359.95"/><polygon class="cls-5" points="200.82 366.47 185.28 379.15 166.16 370.8 151.77 381.16 171.99 382.91 200.82 381.16 200.82 366.47"/><rect class="cls-6" x="151.69" y="381.16" width="49.14" height="5.58"/><path class="cls-7" d="M165.57,315.16l1.8,8.31,23.13,5.36.41-18.83s-5.48-4.6-11.2-9.05c-5.24,1.38-10.82,2.89-15.57,4.22A18.65,18.65,0,0,0,165.57,315.16Z"/><polygon class="cls-8" points="237.79 234.97 154.91 265.26 143.65 282.3 153.63 339.88 237.79 234.97"/><polygon class="cls-9" points="149.67 154.32 133.09 162.71 122.87 212.64 149.86 213.09 147.41 201.8 149.67 154.32"/><polygon class="cls-9" points="236.64 228.66 251.45 254.72 240.9 353.17 153.63 339.88 225.96 243.99 236.64 228.66"/><polygon class="cls-3" points="243.38 233.8 236.64 228.66 224.14 238.69 225.96 243.99 240.01 258.65 251.45 254.72 243.38 233.8"/><polygon class="cls-4" points="252.62 227.01 245.08 228.63 236.76 228.5 251.45 254.72 256.53 242.63 252.62 227.01"/><polygon class="cls-8" points="258.71 192.37 250.6 205.54 247.75 217.46 255.41 227.12 266.71 225.16 284.02 198.89 258.71 192.37"/><polygon class="cls-3" points="247.75 217.46 245.08 228.63 256.53 242.63 266.7 225.16 247.75 217.46"/><polygon class="cls-9" points="237.12 193.05 245.63 201.62 250.6 205.54 284.02 198.89 252.33 154.64 228.93 175.94 237.12 193.05"/><polygon class="cls-9" points="155.83 191.02 147.41 201.8 149.86 226.94 157.19 239.49 141.94 249.28 143.65 282.3 225.96 243.99 236.76 228.5 245.63 201.62 155.83 191.02"/><polygon class="cls-9" points="156.81 234.23 141.94 249.28 225.96 243.99 236.76 228.5 156.81 234.23"/><polygon class="cls-8" points="149.86 226.94 236.64 228.66 177.77 239.5 141.94 249.28 149.86 226.94"/><circle class="cls-10" cx="137.84" cy="96.55" r="8.38"/><polygon class="cls-8" points="236.03 150.1 223.94 154.55 174.25 154.4 170.01 146.4 149.67 154.32 147.41 201.8 245.63 201.62 252.33 154.64 236.03 150.1"/><polygon class="cls-4" points="236.03 150.1 192.35 173.59 164.65 148.66 175.73 141.77 217.73 144.57 240.16 99.56 236.03 150.1"/><polygon class="cls-4" points="230.65 53.42 242.84 65.56 235.54 113.22 217.73 144.57 187.44 144.51 230.65 53.42"/><polygon class="cls-11" points="145.92 39.92 138.09 94.58 138.3 113.85 158.9 140.12 193.45 143.51 222.34 117.23 230.65 52.43 187.44 21.92 145.92 39.92"/><polygon class="cls-12" points="186.59 37.38 165.21 35.6 153.69 27.97 163.93 15.56 183.49 21.16 186.59 37.38"/><polygon class="cls-13" points="152.98 43.8 169.42 29.74 159.52 25.22 144.15 25.82 131.83 35.27 139.19 45.27 152.98 43.8"/><polygon class="cls-14" points="131.83 35.27 141.99 37.17 159.48 25.31 164.53 15.88 162.02 10.65 143.59 13.24 131.83 35.27"/><polygon class="cls-12" points="137.98 64.88 124.81 58.06 132.35 47.23 131.83 35.27 141.99 37.17 152.98 43.8 144.77 47.98 137.98 64.88"/><polygon class="cls-15" points="126.98 70.07 132.89 59.2 144.77 47.98 140.64 76.79 136.18 76.36 126.98 70.07"/><polygon class="cls-15" points="123.49 72.93 119.35 79.65 126.9 93.31 136.18 76.36 127.97 70.96 123.49 72.93"/><polygon class="cls-16" points="132.89 59.2 124.81 58.06 123.49 72.93 125.37 76.13 136.18 76.36 132.89 59.2"/><polygon class="cls-1" points="125.68 47.23 123.49 72.93 132.89 59.2 132.63 53.34 132.13 42.29 125.68 47.23"/><polygon class="cls-3" points="192.35 173.59 175.73 141.77 217.73 145.53 192.35 173.59"/><polygon class="cls-15" points="218.16 57.51 229.87 61.04 238.65 73.91 252.4 67.08 241.58 50.52 222.7 28.24 202.91 27.85 200.74 35.86 209.76 41.19 218.16 57.51"/><polygon class="cls-16" points="186.59 37.38 202.15 35.71 202.91 27.85 241.58 50.52 238.29 20.55 231.65 17.25 228.86 4.02 213.63 9.97 187.32 10.86 186.61 23.99 186.59 37.38"/><polygon class="cls-15" points="170.39 7.63 187.02 8.47 192.42 16.94 190.79 22.67 186.59 37.38 181.08 24.68 164.53 15.88 162.02 10.65 170.39 7.63"/><polygon class="cls-12" points="160.44 6.35 170.39 7.63 167.15 12.19 164.53 15.88 143.59 13.24 160.44 6.35"/><polygon class="cls-16" points="192.63 0 170.39 7.63 192.42 16.94 205.68 12.16 203.65 7.41 192.63 0"/><polygon class="cls-1" points="228.86 4.02 203.65 7.41 192.42 16.94 211.03 16.58 224.83 16.31 228.86 4.02"/><polygon class="cls-15" points="238.29 20.55 228.86 4.02 224.83 16.31 228.12 25.96 238.29 20.55"/><polygon class="cls-15" points="248.69 22.88 238.29 20.55 228.12 25.96 228.92 27.42 236.31 40.91 250.25 47.15 247.63 39.82 248.69 22.88"/><polygon class="cls-1" points="266.48 53.17 247.63 39.82 236.31 40.91 241.58 50.52 255.55 71.92 264.2 69.11 266.48 53.17"/><polygon class="cls-15" points="265.18 94.05 254.76 79.55 254.62 62.7 266.48 53.17 269.13 83.03 265.18 94.05"/><polygon class="cls-16" points="250.05 91.51 250.27 108.11 265.18 94.05 254.62 62.7 240.73 48.97 242.84 65.56 236.39 80.1 250.05 91.51"/><polygon class="cls-1" points="226.5 84.83 242.17 96.47 250.05 91.51 242.84 65.56 229.87 61.04 226.5 84.83"/><polygon class="cls-15" points="244.33 108.45 235.54 113.22 235.32 98.41 226.5 84.83 250.05 91.51 250.32 105.04 244.33 108.45"/><polygon class="cls-1" points="230.66 112.27 235.32 98.41 244.33 108.45 245.83 128.15 237.36 133.89 236.02 123.15 230.66 112.27"/><polygon class="cls-1" points="244.11 122 261.94 113.99 265.18 94.05 250.05 91.51 239.41 113.22 244.11 122"/><polygon class="cls-1" points="209.76 41.19 186.59 37.38 202.91 27.85 209.76 41.19"/><polygon class="cls-14" points="144.77 47.98 186.59 37.38 169.42 29.74 144.77 47.98"/><polygon class="cls-4" points="163.27 101.02 161.59 80.54 147.67 70.66 154.69 66.51 170.42 73.97 172.1 80.76 177.62 95.31 163.27 101.02"/><polygon class="cls-4" points="190.66 103.32 200.58 83.58 217.85 75.94 209.84 68.74 190.66 73.97 184.32 81.71 175.75 92.04 190.66 103.32"/><polygon class="cls-6" points="245.08 228.63 259.44 250.72 264.28 239.68 246.03 224.64 245.08 228.63"/><ellipse class="cls-17" cx="237.29" cy="149.77" rx="3.3" ry="3.55" transform="translate(-0.98 1.56) rotate(-0.38)"/><ellipse class="cls-17" cx="235.23" cy="158.64" rx="3.3" ry="3.55" transform="translate(-1.04 1.55) rotate(-0.38)"/><ellipse class="cls-17" cx="233" cy="167.5" rx="3.3" ry="3.55" transform="translate(-1.09 1.53) rotate(-0.38)"/><ellipse class="cls-17" cx="230.44" cy="176.26" rx="3.3" ry="3.55" transform="translate(-1.15 1.52) rotate(-0.38)"/><ellipse class="cls-17" cx="227.51" cy="184.88" rx="3.3" ry="3.55" transform="translate(-1.21 1.5) rotate(-0.38)"/><ellipse class="cls-17" cx="224.2" cy="193.37" rx="3.3" ry="3.55" transform="matrix(1, -0.01, 0.01, 1, -1.26, 1.47)"/><ellipse class="cls-17" cx="220.35" cy="201.84" rx="3.3" ry="3.55" transform="translate(-1.32 1.45) rotate(-0.38)"/><ellipse class="cls-17" cx="215.28" cy="209.25" rx="3.3" ry="3.55" transform="translate(-1.37 1.42) rotate(-0.38)"/><ellipse class="cls-17" cx="208.01" cy="214.51" rx="3.3" ry="3.55" transform="translate(-1.4 1.37) rotate(-0.38)"/><ellipse class="cls-17" cx="199.09" cy="216.3" rx="3.3" ry="3.55" transform="matrix(1, -0.01, 0.01, 1, -1.41, 1.31)"/><ellipse class="cls-17" cx="190.64" cy="214.26" rx="3.3" ry="3.55" transform="matrix(1, -0.01, 0.01, 1, -1.4, 1.25)"/><ellipse class="cls-17" cx="183.14" cy="209.13" rx="3.3" ry="3.55" transform="translate(-1.37 1.21) rotate(-0.38)"/><ellipse class="cls-17" cx="177.22" cy="201.93" rx="3.3" ry="3.55" transform="translate(-1.32 1.17) rotate(-0.38)"/><ellipse class="cls-17" cx="173.07" cy="193.88" rx="3.3" ry="3.55" transform="translate(-1.27 1.14) rotate(-0.38)"/><ellipse class="cls-17" cx="170.06" cy="185.22" rx="3.3" ry="3.55" transform="matrix(1, -0.01, 0.01, 1, -1.21, 1.12)"/><ellipse class="cls-17" cx="167.81" cy="176.39" rx="3.3" ry="3.55" transform="translate(-1.15 1.1) rotate(-0.38)"/><ellipse class="cls-17" cx="166.33" cy="167.4" rx="3.3" ry="3.55" transform="translate(-1.09 1.09) rotate(-0.38)"/><ellipse class="cls-17" cx="165.63" cy="158.3" rx="3.3" ry="3.55" transform="translate(-1.03 1.09) rotate(-0.38)"/><ellipse class="cls-17" cx="165.68" cy="149.19" rx="3.3" ry="3.55" transform="translate(-0.97 1.09) rotate(-0.38)"/><circle class="cls-10" cx="236.31" cy="105.49" r="8.38"/><polygon class="cls-8" points="161.64 118.55 165.68 125.23 175.86 128.4 188.81 125.39 193.27 122 168.05 118.55 161.64 118.55"/><polygon class="cls-9" points="159 115.11 170.14 115.11 174.19 117.9 177.22 116.15 198.18 117.9 193.27 122 173.82 122 161.64 118.55 159 115.11"/><circle class="cls-1" cx="161.59" cy="80.54" r="4.6"/><circle class="cls-1" cx="201.74" cy="82.96" r="4.6"/><polygon class="cls-3" points="163.27 101.02 190.66 103.32 175.38 108.76 163.27 101.02"/><polygon class="cls-18" points="163.27 101.02 170.42 92.7 172.1 80.76 184.32 81.71 185.37 95.31 190.66 103.32 163.27 101.02"/><polygon class="cls-1" points="190.66 73.97 189.91 67.88 211.64 65.39 217.85 75.94 209.84 68.74 190.66 73.97"/><polygon class="cls-1" points="170.42 73.97 170.42 67.88 153.98 64.05 147.67 70.66 154.69 66.51 170.42 73.97"/><polygon class="cls-4" points="195.8 106.75 201.5 113.88 199 125.54 205.34 113.88 195.8 106.75"/><polygon class="cls-4" points="160.59 101.88 151.47 109.33 156.99 118.55 155.19 110.22 160.59 101.88"/><polygon class="cls-4" points="171.77 48.97 182.09 48.97 189.66 50.07 182.66 50.88 171.77 48.97"/><polygon class="cls-4" points="204.19 90.35 210.64 86.53 209.03 90.35 204.19 90.35"/><polygon class="cls-4" points="150.62 80.08 154.45 86.95 150.62 85.72 150.62 80.08"/><polygon class="cls-3" points="151.19 266.11 140.45 251.99 138.29 258.47 141.33 265.24 148.53 269.07 151.19 266.11"/><polygon class="cls-3" points="144.87 282.62 134.88 285.29 124.06 273.9 135.28 266.11 143.99 268.77 144.87 282.62"/><polygon class="cls-4" points="126.48 255.03 124.06 273.9 143.99 268.77 140.45 251.99 131.59 251.21 126.48 255.03"/><polygon class="cls-4" points="148.81 216.21 140.58 245.8 133.53 250.42 124.96 248.05 122.87 212.64 148.81 216.21"/><polygon class="cls-19" points="142.06 245.29 129.99 247.03 128.09 251.84 131.18 255.29 143.11 253.74 142.06 245.29"/><polygon class="cls-20" points="129.99 247.03 131.18 255.29 124.28 256.93 122.36 248.13 129.99 247.03"/><polygon class="cls-8" points="122.87 212.64 147.41 201.8 148.81 216.21 144.2 233.03 124.28 236.66 122.87 212.64"/></svg>