<svg id="Layer_1" data-name="Layer 1" xmlns="http://www.w3.org/2000/svg" viewBox="0 0 400 400"><defs><style>.cls-1{fill:#738c57;}.cls-1,.cls-10,.cls-11,.cls-12,.cls-13,.cls-14,.cls-15,.cls-16,.cls-17,.cls-18,.cls-19,.cls-2,.cls-20,.cls-21,.cls-22,.cls-23,.cls-24,.cls-25,.cls-26,.cls-27,.cls-3,.cls-4,.cls-5,.cls-6,.cls-7,.cls-8,.cls-9{fill-rule:evenodd;}.cls-2,.cls-27{fill:#2b2b2b;}.cls-2{opacity:0.1;}.cls-3{fill:#446125;}.cls-4{fill:#f4c9b2;}.cls-5{fill:#4d4d4f;}.cls-6{fill:#3b3d3d;}.cls-7{fill:#fce3d4;}.cls-8{fill:#d8e254;}.cls-9{fill:#544538;}.cls-10{fill:#61544a;}.cls-11{fill:#8c7a6e;}.cls-12{fill:#5a753d;}.cls-13{fill:#474747;}.cls-14{fill:#c1907d;}.cls-15{fill:#b7c645;}.cls-16{fill:#6e6e6e;}.cls-17{fill:#35785d;}.cls-18{fill:#3f8e6f;}.cls-19{fill:#ebedeb;}.cls-20{fill:#1c1c1c;opacity:0.15;}.cls-21{fill:#e7ef78;}.cls-22{fill:#98c16d;}.cls-23{fill:#709c53;}.cls-24{fill:#706154;}.cls-25{fill:#ffefe7;}.cls-26{fill:#fff;}</style></defs><title>diplomats_ENFJ_famous_fictional_laurel_lance_arrow</title><polygon class="cls-1" points="172.53 195.02 164.04 195.54 139.37 192.79 128.67 206.3 137.66 213.67 170.07 220.89 172.53 195.02"/><polygon class="cls-2" points="134.07 387.71 225.1 400.5 310.84 387.78 228.02 380.12 134.07 387.71"/><path class="cls-3" d="M236.94,387.78c-.19.14-7.27,3.25-7.27,3.25l.77,3.08,27.76-.25.49-3.11Z"/><polygon class="cls-4" points="115.52 207.82 108.09 213.25 95.93 201.75 99.1 182.78 108.26 192.35 115.52 207.82"/><polygon class="cls-5" points="109.43 170.06 107.11 166.52 87.16 179.6 93.54 181.48 106.17 171.8 109.43 170.06"/><polygon class="cls-6" points="112.33 221.96 109.51 225.76 111.46 242.34 119.31 241.27 114.36 225.61 112.33 221.96"/><polygon class="cls-4" points="132.08 202.55 125.26 210.05 108.09 213.25 108.26 192.35 122.92 190.18 132.08 202.55"/><polygon class="cls-5" points="106.16 195.58 100.55 212.08 109.51 225.76 114.36 225.61 122.7 210.53 115.16 194.71 110.41 181.05 106.16 195.58"/><polygon class="cls-6" points="99.1 182.78 106.16 195.58 115.16 194.71 121.72 181.78 111.75 166.74 107.11 166.52 99.1 182.78"/><polygon class="cls-7" points="132.64 197.41 127.11 190.62 121.72 181.78 116.7 183.24 125.26 210.05 132.64 197.41"/><polygon class="cls-8" points="139.37 192.79 127.11 190.62 125.26 210.05 137.66 213.67 139.37 192.79"/><polygon class="cls-9" points="272.71 147.07 290.8 144.69 292.91 165.67 282.6 184.39 229.51 165.92 272.71 147.07"/><path class="cls-9" d="M193.94,144.63l-4.42,7.5,3.21,13.68,12-2.61,15.57-10.76s-11.43-9.3-11.42-10.31-15,2.5-15,2.5"/><path class="cls-3" d="M204.67,162.78c.17,1.31-8.77-4.9-8.77-4.9L164,195.54l6,25.35,28.25-18.66Z"/><polygon class="cls-9" points="187.33 135.2 191.02 149.86 203.33 156.31 212.28 163.91 211.38 137.68 195.34 134.62 187.33 135.2"/><polygon class="cls-10" points="176.41 136.35 174.68 141.2 189.56 152.28 195.9 157.88 198.3 160.34 203.33 156.31 189.81 140.92 176.41 136.35"/><polygon class="cls-11" points="177.08 117.89 174.68 141.2 185.26 140.88 180.85 118.48 177.08 117.89"/><polygon class="cls-12" points="242.58 376.84 236.11 373.52 229.67 391.03 258.69 390.75 253.35 372.91 242.58 376.84"/><polygon class="cls-13" points="207.76 376.55 216.88 389.01 221.38 388.28 220.24 372.5 207.76 376.55"/><path class="cls-3" d="M177.06,381.81c0-.41-4.18,3.7-4.18,3.7l-.54,3.44,29,1.16,19-13.54-.09-4.07-23.9,11.13Z"/><polygon class="cls-12" points="193.1 372.94 184.9 378.98 173.8 379.71 172.88 385.51 200.5 386.53 220.24 372.5 218.96 362.1 193.1 372.94"/><polygon class="cls-7" points="236.92 321.77 233.59 328.27 238.52 366.73 236.11 373.52 238.78 384.49 249.95 384.39 253.35 372.91 251.72 366.58 259.64 319.24 236.92 321.77"/><polygon class="cls-14" points="231.84 314.25 233.59 328.27 259.64 319.24 231.84 314.25"/><polygon class="cls-7" points="212.62 319.6 196.16 316.01 204.64 361.67 184.9 378.98 196.66 378.14 218.96 362.1 221.47 327.55 212.62 319.6"/><polygon class="cls-14" points="205.37 307.46 196.16 316.01 221.47 327.55 223.65 307.6 205.37 307.46"/><path class="cls-15" d="M198.33,200.49s-.22,49.9.8,50.23,36.87-.71,36.13.15S243,191.24,243,191.24Z"/><polygon class="cls-16" points="201.45 247.11 206.03 244.07 225.89 244.29 236.71 253.62 216.54 266.91 198.11 257.23 201.45 247.11"/><polygon class="cls-17" points="197.09 260.55 191.44 268.02 189.56 275.95 240.33 297.12 264.35 289.68 277.48 276.74 238.88 257.88 197.09 260.55"/><polygon class="cls-18" points="200.44 257.8 206.67 268.36 189.56 275.95 209.22 294.97 259.64 319.24 264.35 289.68 237.72 281.94 240.33 276.88 228.58 268.93 233.66 253.47 203.04 252.46 200.44 257.8"/><polygon class="cls-17" points="189.56 275.95 196.16 316.01 259.64 319.24 189.56 275.95"/><polygon class="cls-3" points="238.88 218.49 225.89 244.29 228.58 268.93 264.42 269.8 252.23 229.19 238.88 218.49"/><polygon class="cls-12" points="272.4 210.97 265.42 211.18 260.07 245.09 242.37 243.64 225.89 244.29 245.99 197.96 272.4 210.97"/><polygon class="cls-3" points="198.84 236.84 208.5 244.1 206.67 268.36 191.44 268.02 197.37 243.65 198.84 236.84"/><polygon class="cls-19" points="275.3 280.57 265.65 283.03 237.72 281.94 240.05 233.81 302.73 236.12 301.57 284.26 288.58 283.82 275.3 280.57"/><polygon class="cls-19" points="247.75 264.42 254.71 257.93 263.19 263.82 260.93 269.13 257.38 267.71 255.54 268.81 247.75 264.42"/><polygon class="cls-20" points="281.19 236.87 271.04 234.95 267.24 234.81 265.74 260.2 257.38 267.71 265.4 265.93 259.56 272.4 265.65 283.03 285.47 275.46 281.19 236.87"/><polygon class="cls-4" points="278.57 272.77 288.58 283.82 279.58 290.48 264.35 289.68 265.65 283.03 278.57 272.77"/><polygon class="cls-4" points="273.42 265.68 269.72 259.47 257.38 267.71 259.56 272.4 272.18 270.74 273.42 265.68"/><polygon class="cls-7" points="280.67 255.85 289.9 263.44 288.58 283.82 265.65 283.03 269.72 259.47 280.67 255.85"/><polygon class="cls-8" points="279.01 242.12 270.44 249.49 269.72 259.47 289.9 263.44 291.05 252.71 279.01 242.12"/><polygon class="cls-1" points="277.7 212.49 271.46 224.78 270.44 249.49 291.05 252.71 294.96 217.54 277.7 212.49"/><polygon class="cls-3" points="261.3 170.71 273.09 158.91 294.96 217.54 271.46 224.78 265.42 211.18 257.82 183.43 261.3 170.71"/><polygon class="cls-12" points="186.07 195.5 182.18 203.06 197.37 243.65 208.5 244.1 196.81 197.82 186.07 195.5"/><polygon class="cls-1" points="247.71 173.13 252.82 211.13 265.42 211.18 273.09 158.91 254.48 146.72 247.71 173.13"/><polygon class="cls-1" points="210.73 159.44 203.33 156.31 197.57 157.53 195.9 157.88 182.18 203.06 189.91 204.39 211.89 172.88 210.73 159.44"/><polygon class="cls-8" points="200.65 194.85 202.87 207.88 234.63 210.04 241.85 199.05 249.27 151.25 210.9 155.03 204.42 168.83 200.65 194.85"/><polygon class="cls-21" points="247.37 161.9 252.85 146 227.91 149.68 210.9 155.03 206.78 163.81 220.6 188.81 247.37 161.9"/><polygon class="cls-22" points="203.33 156.31 189.91 204.39 200.54 212.62 202.87 207.88 210.9 155.03 205.75 155.9 203.33 156.31"/><polygon class="cls-23" points="189.91 204.39 208.5 244.1 202.87 207.88 189.91 204.39"/><polygon class="cls-22" points="257.74 153.93 255.47 144.92 249.26 151.25 234.61 209.95 237.37 221.13 252.82 211.13 257.74 153.93"/><polygon class="cls-23" points="234.63 210.04 225.89 244.29 252.82 211.13 234.32 210.02 234.63 210.04"/><polygon class="cls-4" points="265.07 137.1 249.26 151.25 222.81 174.3 210.9 155.03 226.1 54.45 246.53 42.07 269.86 92.95 265.07 137.1"/><polygon class="cls-11" points="274.49 129.81 257.75 153.93 273.09 158.91 290.8 144.69 274.49 129.81"/><polygon class="cls-10" points="260.67 111.76 256.17 116.71 249.26 151.25 257.74 153.93 272.68 139.75 279.95 114.62 260.67 111.76"/><polygon class="cls-9" points="289.89 115 300.25 122.52 290.8 144.69 278.89 137.4 274.49 114.41 289.89 115"/><polygon class="cls-11" points="277 91.87 287.54 97.27 300.25 122.52 275.59 121.48 262.71 94.03 277 91.87"/><polygon class="cls-9" points="274.49 108.37 282.19 109.11 278.89 137.4 257.74 153.93 274.49 123.55 274.49 108.37"/><polygon class="cls-9" points="272.76 77.58 294.79 79.57 287.54 97.27 264.12 99.68 258.15 75.81 272.76 77.58"/><polygon class="cls-24" points="266.32 82 270.09 86.79 282.19 109.11 274.49 123.55 255.17 102.04 254.11 84.13 266.32 82"/><polygon class="cls-9" points="251.87 86.12 245.56 99.67 256.17 116.71 274.49 123.55 260.04 96.66 251.87 86.12"/><polygon class="cls-24" points="266.48 51.65 279.5 62.3 294.79 79.57 271.43 89.25 251.4 62.4 266.48 51.65"/><polygon class="cls-11" points="252.34 80.38 260.04 96.66 271.43 89.25 263.1 69.77 252.34 80.38"/><polygon class="cls-9" points="253.05 64.76 246.47 72.42 245.56 99.67 260.04 96.66 263.1 69.77 253.05 64.76"/><polygon class="cls-11" points="255.88 41.63 238.91 30.58 234.82 43.55 238.51 52.55 246.47 72.42 263.1 69.77 255.88 41.63"/><polygon class="cls-9" points="256.35 24.69 271.27 24.69 279.5 62.3 263.1 69.77 240.17 40.01 256.35 24.69"/><polygon class="cls-11" points="240.79 16.58 257.29 18.35 271.27 24.69 240.17 40.01 205.76 41.19 213.93 27.19 240.79 16.58"/><polygon class="cls-9" points="204.97 46.05 219.82 35.09 240.17 40.01 238.51 52.55 204.97 46.05"/><polygon class="cls-24" points="209.69 28.22 219.82 35.09 257.29 18.35 235.53 1.5 204.19 17.32 209.69 28.22"/><polygon class="cls-9" points="218.96 45.02 219.82 35.09 212.9 16.82 174.94 35.8 203.56 51.5 218.96 45.02"/><polygon class="cls-14" points="199.79 135.92 222.81 174.3 240.13 141.57 223.49 141.27 199.79 135.92"/><polygon class="cls-7" points="165.15 55.72 162.95 69.27 167.28 108.53 185.26 140.88 223.49 141.27 235.78 104.67 238.51 52.55 219.82 35.09 190.75 34.36 165.15 55.72"/><path class="cls-14" d="M170.68,45.31,163.37,74l39.56-35,16.89-3.89s-28.42-4.28-29.14-5.54-20,15.76-20,15.76"/><polygon class="cls-23" points="191.09 117.72 185.51 119.61 197.49 126.12 208.85 119.53 191.09 117.72"/><polygon class="cls-4" points="177.05 68.37 166.25 73.4 183.18 81.94 191.81 97.58 196.21 91.35 200.97 101.46 216.37 81.2 233.25 71.33 220.72 66.97 203.48 73.69 198.99 79.56 195.19 83.62 194.52 79.59 189.81 73.84 177.05 68.37"/><path class="cls-14" d="M195.23,96.23c-.39.3-4,5.23-4,5.23l5.41,3.83,4.33-3.83Z"/><polygon class="cls-11" points="169.23 46.29 151.01 47.76 175.52 13.29 235.53 1.5 212.9 16.82 169.23 46.29"/><polygon class="cls-24" points="212.9 16.82 163.37 73.95 151.01 47.76 212.9 16.82"/><polygon class="cls-25" points="194.52 79.59 191.22 101.46 200.97 101.46 198.99 79.56 194.52 79.59"/><polygon class="cls-9" points="190.13 70.23 176.85 67.43 166.25 73.4 176.77 70.16 189.81 73.84 190.13 70.23"/><polygon class="cls-9" points="203.24 69.42 221.54 65.96 233.25 71.33 221.32 68.97 203.48 73.69 203.24 69.42"/><polygon class="cls-12" points="180.44 116.22 185.83 117.84 196.42 114.25 209.22 117.38 215.41 115.33 208.85 119.53 185.51 119.61 180.44 116.22"/><polygon class="cls-26" points="109.79 173.17 105 182.21 110.3 189.14 114.58 182.49 109.79 173.17"/><polygon class="cls-26" points="110.95 202.37 107.09 210.76 111.68 218.27 116.61 210.03 110.95 202.37"/><path class="cls-27" d="M216.37,75a4.44,4.44,0,1,1-4.44,4.43A4.43,4.43,0,0,1,216.37,75"/><path class="cls-27" d="M181.94,75.79a4.44,4.44,0,1,1-4.44,4.43,4.43,4.43,0,0,1,4.44-4.43"/></svg>