<svg id="illustration_layer_copy_3" data-name="illustration_layer copy 3" xmlns="http://www.w3.org/2000/svg" viewBox="0 0 400 400"><defs><style>.cls-1,.cls-12,.cls-25,.cls-26{fill:#2b2b2b;}.cls-1,.cls-10,.cls-11,.cls-12,.cls-13,.cls-14,.cls-15,.cls-16,.cls-17,.cls-18,.cls-19,.cls-2,.cls-20,.cls-21,.cls-22,.cls-23,.cls-24,.cls-25,.cls-27,.cls-28,.cls-29,.cls-3,.cls-4,.cls-5,.cls-7,.cls-8,.cls-9{fill-rule:evenodd;}.cls-1{opacity:0.1;}.cls-2{fill:#f4c9b2;}.cls-3{fill:#c1907d;}.cls-4{fill:#c4c4c4;}.cls-5{fill:#686868;}.cls-6,.cls-7{fill:#474747;}.cls-8{fill:#3f8e6f;}.cls-9{fill:#35785d;}.cls-10{fill:#72c8a5;opacity:0.5;}.cls-11{fill:#9fce7e;}.cls-12{opacity:0.2;}.cls-13{fill:#9b9b9b;}.cls-14{fill:#8e8e8e;}.cls-15{fill:#5a753d;}.cls-16{fill:#738c57;}.cls-17{fill:#446125;}.cls-18{fill:#709c53;}.cls-19{fill:#f7f7f7;}.cls-20{fill:#fce3d4;}.cls-21{fill:#e2e2e2;}.cls-22{fill:#ccc;}.cls-23{fill:#939393;}.cls-24{fill:#ffefe7;}.cls-25{opacity:0.3;}.cls-27{fill:#4f4f4f;}.cls-28{fill:#7c7c7c;}.cls-29{fill:#898989;}</style></defs><title>diplomats_ENFJ_famous_real_sean_connery</title><polygon class="cls-1" points="103.3 387.84 212.91 373.07 310.67 389.42 207.53 400 103.3 387.84"/><polygon class="cls-2" points="277.92 327.81 277.92 340.15 268.17 346.32 248.25 343.22 245.61 334.44 267.09 323.22 277.92 327.81"/><polygon class="cls-2" points="194.19 329.73 187.93 341.74 169.8 344.21 159.06 336.27 159.06 321.11 184.81 323.22 194.19 329.73"/><polygon class="cls-3" points="277.92 327.81 248.25 343.22 243.6 334.85 267.09 323.22 277.92 327.81"/><polygon class="cls-3" points="187.93 341.74 159.06 321.11 184.81 323.22 194.19 329.73 187.93 341.74"/><polygon class="cls-4" points="248.25 343.22 277.92 340.15 277.92 362.5 270.16 364.81 258.32 362.5 248.25 343.22"/><polygon class="cls-4" points="187.93 341.74 159.06 336.27 158.01 357.13 165.01 361.54 179.59 360.3 187.93 341.74"/><polygon class="cls-5" points="258.32 362.5 243.76 385.64 245.38 389.74 273.68 392.52 281.1 385.64 277.92 362.5 258.32 362.5"/><rect class="cls-6" x="243.76" y="385.64" width="37.34" height="6.88"/><polygon class="cls-5" points="158.01 357.13 125.62 378.19 129.55 382.15 152.72 382.81 166.35 378.19 173.53 380.96 179.59 378.19 179.59 360.3 158.01 357.13"/><rect class="cls-6" x="166.35" y="378.19" width="13.24" height="6.61"/><polygon class="cls-7" points="125.62 384.8 151.71 384.8 166.35 378.19 125.62 378.19 125.62 384.8"/><polygon class="cls-8" points="182.2 252.7 177.56 255.52 175.88 271.39 166.92 316.35 177.41 325.61 194.19 329.73 204.59 329.04 211.59 333.99 228.07 338.04 236.84 333.99 245.61 334.44 261.26 331.23 271.24 325.61 275.58 252.7 215.42 250.23 182.2 252.7"/><polygon class="cls-9" points="261.26 331.23 277.92 327.81 276.16 271.39 260.33 252.07 261.26 331.23"/><polygon class="cls-9" points="243.37 251.37 232.54 250.93 228.07 252.7 228.07 338.04 245.61 334.44 243.37 251.37"/><polygon class="cls-9" points="194.19 329.73 211.59 333.99 210.58 252.7 205.25 250.98 192.08 251.96 194.19 329.73"/><polygon class="cls-9" points="177.41 325.61 175.63 272.13 159.06 321.11 177.41 325.61"/><polygon class="cls-10" points="277.12 302.12 164.75 304.3 159.06 321.11 277.63 318.4 277.12 302.12"/><polygon class="cls-10" points="169.56 290.08 276.74 290.08 276.16 271.39 175.88 271.39 169.56 290.08"/><polygon class="cls-11" points="236.25 271.39 198.58 290.08 194.66 278.95 180.26 258.45 182.2 252.7 198.44 276.31 200.07 283.82 235.24 266.59 236.25 271.39"/><polygon class="cls-12" points="232.4 290.08 205.78 328.16 178.75 290.08 205.78 313.53 232.4 290.08"/><polygon class="cls-4" points="178.75 290.08 190.3 282 205.58 275.26 221.25 282.33 232.4 290.08 205.67 320.1 178.75 290.08"/><polygon class="cls-13" points="190.3 282 196.64 287.39 205.58 281.35 213.65 287.5 221.25 282.33 205.49 271.39 190.3 282"/><polygon class="cls-14" points="213.65 287.5 216.78 298.27 210.58 298.27 213.65 287.5"/><polygon class="cls-14" points="205.55 294.13 208.68 304.9 202.48 304.9 205.55 294.13"/><polygon class="cls-14" points="196.64 287.39 199.8 298.27 193.34 298.27 196.64 287.39"/><polygon class="cls-15" points="152.61 158.95 124.8 195.9 154.73 213.92 170.63 188.53 152.61 158.95"/><polygon class="cls-16" points="278.18 155.74 310.7 216.08 269.62 220.71 278.18 155.74"/><polygon class="cls-17" points="310.7 216.08 276.31 262.55 269.62 220.71 272.67 209.35 310.7 216.08"/><polygon class="cls-18" points="182.2 149.38 177.56 205.56 182.2 252.7 228.07 252.7 241.44 205.56 245.72 145.33 182.2 149.38"/><polygon class="cls-19" points="182.2 149.38 207.91 229.96 245.72 145.33 182.2 149.38"/><polygon class="cls-20" points="125.75 37.66 132.11 104.92 147.6 129.1 170.02 132.56 208.23 143.84 246.63 142.25 258.8 71.54 235.29 12.27 196.57 0.05 144.57 16.86 125.75 37.66"/><polygon class="cls-2" points="235.29 12.27 207.57 29.14 215.91 127.99 184.91 134.66 209.49 161.45 245.72 145.33 252.26 107.29 250.64 95.04 255.56 88.93 259.94 61.91 235.29 12.27"/><polygon class="cls-2" points="192.78 55.06 165.85 88.01 130.95 58.76 141.95 53.95 153.33 57.28 164.71 56.26 177.6 52.1 192.78 55.06"/><polygon class="cls-21" points="132.11 104.92 156.53 88.93 167.36 88.01 213.5 99.47 219.33 115.41 217.05 134.29 170.02 132.56 143.57 135.38 132.11 104.92"/><polygon class="cls-22" points="213.5 99.47 233.96 63.08 225.43 37.94 235.29 12.27 250.66 17.07 259.94 61.91 241.44 63.24 229.41 126.23 206.5 130.25 213.5 99.47"/><polygon class="cls-23" points="192.78 55.06 192.97 50.99 178.27 47.47 163.76 51.27 164.71 56.26 177.6 53.21 192.78 55.06"/><polygon class="cls-23" points="153.33 57.28 153.33 51.87 142.33 49.51 129.81 55.62 130.95 58.76 143.09 55.06 153.33 57.28"/><polygon class="cls-24" points="164.71 56.26 163.76 71.26 167.36 88.01 156.53 88.93 156.53 72.6 153.33 57.28 164.71 56.26"/><polygon class="cls-25" points="167.36 88.01 162.34 95.04 156.53 88.93 167.36 88.01"/><ellipse class="cls-26" cx="178.35" cy="63.65" rx="3.86" ry="3.77"/><ellipse class="cls-26" cx="143.67" cy="66.7" rx="4.05" ry="3.96"/><polygon class="cls-3" points="170.02 132.56 229.41 126.23 209.49 161.45 182.2 149.38 170.02 132.56"/><polygon class="cls-3" points="255.56 88.93 237.91 88.01 252.26 107.29 255.56 88.93"/><polygon class="cls-3" points="244.31 82.01 246.21 67.79 254.15 67.79 244.31 82.01"/><polygon class="cls-20" points="147.59 105.87 163.85 106.33 183.48 102.28 184.45 104.85 183.2 115.41 171.54 116.52 165.25 112.07 160.16 117.61 151.34 118.46 147.25 108.75 147.59 105.87"/><polygon class="cls-3" points="145.6 104.85 163.76 104.85 184.91 100.97 184.45 104.85 163.76 109.16 147.24 108.75 145.6 104.85"/><polygon class="cls-27" points="209.49 161.45 231.24 151.77 232.29 176.5 212.9 167.86 206.24 167.9 189.96 176.5 188.85 152.32 209.49 161.45"/><polygon class="cls-28" points="204.59 182.03 208.74 178.15 212.27 182.03 208.43 185.38 204.59 182.03"/><polygon class="cls-28" points="204.59 203.54 208.74 199.66 212.27 203.54 208.43 206.89 204.59 203.54"/><polygon class="cls-15" points="208.43 237.96 203.32 243.25 208.43 248.54 213.96 243.25 208.43 237.96"/><polygon class="cls-15" points="245.72 145.33 278.18 155.74 276.16 271.39 243.6 290.08 228.07 252.7 241.44 205.56 245.72 145.33"/><polygon class="cls-17" points="182.2 149.38 152.61 158.95 154.73 258.16 171.86 283.28 182.2 252.7 178.57 202.63 182.2 149.38"/><polygon class="cls-16" points="245.72 145.33 260.22 184.03 250.27 197.08 272.67 209.35 228.07 252.7 245.72 145.33"/><polygon class="cls-15" points="182.2 149.38 154.73 188.88 173.88 200.69 154.73 213.92 182.2 252.7 182.2 149.38"/><polygon class="cls-17" points="154.73 213.92 118.39 154.68 104.36 159.21 96.02 174.37 118.06 225.13 154.73 213.92"/><polygon class="cls-2" points="102.99 139.44 90.01 119.41 83.04 124.69 75.06 141.37 84.15 154.13 102.99 139.44"/><polygon class="cls-5" points="84.15 154.13 99.84 137.31 109.92 150.43 104.36 159.21 92.59 165.98 84.15 154.13"/><polygon class="cls-20" points="83.04 124.69 90.48 134.6 97.57 128.3 90.86 118.16 83.04 124.69"/><polygon class="cls-24" points="97.57 128.3 83.09 141.15 90.18 147.66 97.38 139.94 97.57 128.3"/><polygon class="cls-2" points="97.38 139.94 102.33 158.63 107.84 157.54 114.22 148.99 107.49 136.21 97.57 128.3 97.38 139.94"/><polygon class="cls-29" points="113.45 144.98 76.27 99.68 78.99 94.86 87.45 88.27 93.49 95.35 99.83 106.47 109.51 114.17 124.19 131.4 117.99 142.33 113.45 144.98"/><polygon class="cls-5" points="78.99 94.86 117.99 142.33 114.22 148.99 73.88 98.85 78.99 94.86"/><polygon class="cls-5" points="93.49 95.35 88.89 98.78 104.8 117.85 109.51 114.16 93.49 95.35"/><polygon class="cls-21" points="96.02 174.37 118.39 154.68 114.22 148.99 92.59 165.98 96.02 174.37"/><polygon class="cls-2" points="167.36 88.01 182.22 86.86 188.85 93.46 167.36 88.01"/><polygon class="cls-2" points="156.53 88.93 144.54 91.53 141.57 98.72 156.53 88.93"/><polygon class="cls-2" points="179.16 71.72 189.91 72.98 186.12 78.4 179.16 71.72"/><polygon class="cls-2" points="148.62 73.57 138.62 78.4 144.54 82.01 148.62 73.57"/></svg>