<svg id="Layer_2" data-name="Layer 2" xmlns="http://www.w3.org/2000/svg" viewBox="0 0 400 400"><defs><style>.cls-1{fill:#fce3d4;}.cls-17,.cls-2{fill:#2b2b2b;}.cls-2{opacity:0.1;}.cls-3{fill:#3f8e6f;}.cls-4{fill:#709c53;}.cls-5{fill:#5a753d;}.cls-6{fill:#446125;}.cls-7{fill:#35785d;}.cls-8{fill:#54af8a;}.cls-9{fill:#c1907d;}.cls-10{fill:#f4c9b2;}.cls-11{fill:#738c57;}.cls-12{fill:#72c8a5;}.cls-13{fill:#d8e254;}.cls-14{fill:#e7ef78;}.cls-15{fill:#737373;}.cls-16{fill:#ffefe7;}.cls-18{fill:#98c16d;}.cls-19{fill:#b7c645;}.cls-20{fill:#4f5253;}</style></defs><title>diplomats_ENFJ_famous_fictional_isobel_crawley_downtown_abbey</title><polygon class="cls-1" points="250.45 343.72 247.14 370.5 226.98 370.5 220.14 343.72 236.91 333.17 250.45 343.72"/><polygon class="cls-1" points="170.54 343.72 172.45 366 192.07 366 195.55 343.72 181.5 337 170.54 343.72"/><polygon class="cls-2" points="130.22 387.38 211.03 374.88 285.05 389.81 210.56 399.88 130.22 387.38"/><polygon class="cls-3" points="170.54 343.72 230.18 256.1 249.36 239.69 261.55 265.29 250.45 343.72 170.54 343.72"/><polygon class="cls-4" points="179.82 152.23 163.25 158.25 136.5 222.67 171.45 240.85 179.82 152.23"/><polygon class="cls-5" points="159.76 209.48 173.1 240.85 196.62 244.75 220.14 240.85 237.82 228.15 244.11 195.24 159.76 209.48"/><polygon class="cls-6" points="237.82 228.15 244.11 195.24 198.37 204.05 198.37 240.85 220.14 240.85 237.82 228.15"/><polygon class="cls-7" points="160.46 260.6 170.54 343.72 252.94 247.22 249.36 239.69 204 253.83 160.46 260.6"/><polygon class="cls-8" points="220.14 252.77 173.52 252.77 173.1 240.85 220.14 240.85 220.14 252.77"/><polygon class="cls-1" points="145.3 53.5 141.42 79.67 148.5 102.15 149.8 121.91 165.3 135.9 204.03 134.16 225.66 117.64 215.79 52.21 173.5 41.54 145.3 53.5"/><polygon class="cls-9" points="184.08 134.92 204.03 134.16 217.87 128.38 223.97 133.3 203.83 162.94 184.08 134.92"/><polygon class="cls-10" points="215.79 52.21 255.78 71.04 237.3 137.03 203.83 162.94 223.97 133.3 204.03 134.16 216.05 119.86 215.79 52.21"/><polygon class="cls-11" points="148.43 102.15 106.9 73.45 127.67 15.76 221.58 26.47 272.37 52.21 293.1 90.04 243.67 114.27 255.78 71.04 215.79 52.21 145.3 53.5 135 73.05 148.43 102.15"/><polygon class="cls-6" points="145.3 53.5 106.9 73.45 148.43 102.15 145.3 53.5"/><polygon class="cls-5" points="127.67 15.76 145.3 53.5 215.79 52.21 221.58 26.47 127.67 15.76"/><polygon class="cls-6" points="221.58 26.47 272.37 52.21 255.78 71.04 215.79 52.21 221.58 26.47"/><polygon class="cls-6" points="293.1 90.04 255.78 71.04 243.67 114.27 293.1 90.04"/><polygon class="cls-12" points="158.08 19.56 250.52 15.76 251.31 41.54 221.58 26.47 158.08 19.56"/><polygon class="cls-13" points="158.08 19.56 175.11 0.13 219.42 0.13 244.08 16.02 158.08 19.56"/><polygon class="cls-14" points="175.11 0.13 186.37 18.4 215.79 17.19 219.42 0.13 175.11 0.13"/><polygon class="cls-15" points="181.2 77.3 197.74 68.79 205.43 74.62 196.36 72.74 181.2 77.3"/><polygon class="cls-15" points="169.02 77.3 155.56 69.55 148.03 75.79 155.55 73.45 169.02 77.3"/><polygon class="cls-16" points="172.37 82.44 179.09 82.44 180.43 102.15 170.32 102.15 172.37 82.44"/><polygon class="cls-9" points="170.32 102.15 175.37 106.71 180.43 102.15 170.32 102.15"/><polygon class="cls-10" points="205.43 74.62 180.02 96.23 179.09 82.44 181.2 77.3 196.36 72.74 205.43 74.62"/><polygon class="cls-10" points="148.03 75.79 170.94 96.23 172.37 82.44 169.02 77.3 155.55 73.45 148.03 75.79"/><path class="cls-17" d="M162.76,85.58a2.82,2.82,0,1,1-2.8-3.06A2.92,2.92,0,0,1,162.76,85.58Z"/><polygon class="cls-10" points="194.05 91.13 199.88 93.38 206.54 93.13 200.21 96.79 194.05 91.13"/><polygon class="cls-10" points="150.22 93.38 153.3 92.8 157.15 90.27 153.51 95.33 150.22 93.38"/><polygon class="cls-11" points="163.3 116.94 173.29 119.86 181.33 119.86 193.14 115.78 177.46 115.42 163.3 116.94"/><polygon class="cls-6" points="163.3 116.94 177.62 116.4 193.14 115.78 180.05 112.73 177.37 114.08 175.2 112.92 163.3 116.94"/><polygon class="cls-10" points="190.36 111.93 196.17 120.07 196.58 114.49 190.36 111.93"/><polygon class="cls-10" points="164.55 112.21 161.93 120.6 159.96 114.56 164.55 112.21"/><polygon class="cls-1" points="239.2 73.45 231.21 99.5 246.43 104.43 253.49 79.24 239.2 73.45"/><polygon class="cls-15" points="215.79 52.21 235.79 84.58 239.2 73.45 253.49 79.24 255.78 71.04 215.79 52.21"/><polygon class="cls-9" points="238.82 90.41 249.23 82.53 242.35 80.09 238.82 90.41"/><polygon class="cls-9" points="231.21 99.5 243.67 114.27 246.43 104.43 231.21 99.5"/><polygon class="cls-12" points="237.47 106.02 236.13 101.09 240.31 97.98 244.94 99.46 246.43 104.43 242.27 107.57 237.47 106.02"/><polygon class="cls-18" points="237.71 135.56 244.11 195.24 198.37 204.05 159.76 209.48 176.01 164.49 189.2 143.64 203.83 162.94 237.71 135.56"/><polygon class="cls-4" points="263.87 170.58 246.43 150.83 203.83 162.94 198.37 204.05 239.5 209.79 263.87 170.58"/><polygon class="cls-6" points="177.5 249.31 162.86 256.85 136.5 222.67 159.76 209.48 177.5 249.31"/><polygon class="cls-10" points="203.83 162.94 189.81 143.06 198.37 204.05 237.71 135.56 228.59 138.24 203.83 162.94"/><polygon class="cls-8" points="246.43 150.83 245.27 160.69 226.49 171.66 230.08 183.58 198.37 204.05 237.71 135.56 246.43 150.83"/><polygon class="cls-8" points="189.81 143.06 179.82 152.23 176.01 164.49 185.28 171.4 179.9 177.71 198.37 204.05 189.81 143.06"/><polygon class="cls-19" points="193.94 172.46 216.51 172.46 198.37 204.05 193.94 172.46"/><polygon class="cls-20" points="239.2 73.45 255.78 71.04 253.49 79.24 239.2 73.45"/><polygon class="cls-14" points="160.46 260.6 170.54 263.13 177.5 249.31 173.73 240.85 160.46 260.6"/><polygon class="cls-14" points="220.14 240.85 232.98 260.37 220.14 261.58 211.08 246.16 220.14 240.85"/><polygon class="cls-18" points="208.22 215.06 205.3 216.45 202.69 214.51 203 211.18 205.91 209.79 208.53 211.73 208.22 215.06"/><polygon class="cls-18" points="208.22 230.09 205.3 231.48 202.69 229.54 203 226.21 205.91 224.82 208.53 226.76 208.22 230.09"/><polygon class="cls-19" points="219.42 0.13 215.79 17.19 244.08 16.02 219.42 0.13"/><polygon class="cls-6" points="247.14 370.5 252.27 387.92 221.55 387.92 226.98 370.5 247.14 370.5"/><rect class="cls-6" x="192.4" y="272.46" width="5.96" height="27.47"/><polygon class="cls-6" points="222.25 269.48 217.89 273.73 206.5 261.03 211.08 256.85 222.25 269.48"/><polygon class="cls-6" points="223.08 282.19 216.39 282.19 216.1 269.72 222.17 269.5 223.08 282.19"/><rect class="cls-4" x="221.55" y="387.92" width="30.72" height="3.79"/><rect class="cls-4" x="156.35" y="381.03" width="36.7" height="3.79"/><polygon class="cls-6" points="192.07 366 191.39 381.03 156.35 381.03 172.45 366 192.07 366"/><polygon class="cls-9" points="250.45 343.72 220.14 343.72 222.02 351.05 250.45 343.72"/><polygon class="cls-6" points="182.55 295.95 187.93 289.13 193.31 296.47 182.55 295.95"/><polygon class="cls-6" points="197.31 295.95 202.69 289.13 208.07 296.47 197.31 295.95"/><polygon class="cls-9" points="170.54 343.72 187.93 350 195.55 343.72 170.54 343.72"/><polygon class="cls-13" points="189.23 366 198.16 366 202.69 309.63 201.84 296.13 195.55 289.56 188.76 295.95 185.83 308.13 189.23 366"/><polygon class="cls-13" points="177.5 249.31 203.83 250.6 192.4 276.95 170.54 263.13 177.5 249.31"/><polygon class="cls-18" points="266.75 156.25 266.75 224.82 244.11 224.82 239.5 209.79 246.43 150.83 266.75 156.25"/><polygon class="cls-4" points="239.5 209.79 220.14 240.85 230.18 256.1 266.75 224.82 239.5 209.79"/><polygon class="cls-13" points="211.08 246.16 203.83 250.6 204.99 280.1 220.14 261.58 211.08 246.16"/><polygon class="cls-19" points="203.83 250.6 215.33 267.46 204.99 280.1 192.4 276.95 203.83 250.6"/><polygon class="cls-10" points="145.3 53.5 145.91 62.9 215.79 52.21 145.3 53.5"/><polygon class="cls-7" points="189.23 366 191.72 391.71 195.57 391.71 198.16 366 189.23 366"/><polygon class="cls-14" points="188.76 295.95 189.23 366 179.82 291.29 188.76 295.95"/><polygon class="cls-19" points="201.84 296.13 198.16 366 209.96 290.6 201.84 296.13"/><path class="cls-17" d="M163.17,85.58A3.22,3.22,0,1,1,160,82.36,3.21,3.21,0,0,1,163.17,85.58Z"/><path class="cls-17" d="M195.17,84.93A3.21,3.21,0,1,1,192,81.72,3.21,3.21,0,0,1,195.17,84.93Z"/></svg>