<svg id="Layer_1" data-name="Layer 1" xmlns="http://www.w3.org/2000/svg" viewBox="0 0 400 400"><defs><style>.cls-1{fill:#fce3d4;}.cls-2{fill:#f4c9b2;}.cls-18,.cls-3{fill:#2b2b2b;}.cls-3{opacity:0.1;}.cls-4{fill:#35785d;}.cls-5{fill:#709c53;}.cls-6{fill:#c1907d;}.cls-7{fill:#5a753d;}.cls-8{fill:#3f8e6f;}.cls-9{fill:#54af8a;}.cls-10{fill:#72c8a5;}.cls-11{fill:#e2d086;}.cls-12{fill:#9f9060;}.cls-13{fill:#738c57;}.cls-14{fill:#98c16d;}.cls-15{fill:#c2b476;}.cls-16{fill:#fff6af;}.cls-17{fill:#ffefe7;}.cls-19{fill:#fff;}</style></defs><title>diplomats_ENFJ_famous_real_jennifer_lawrence</title><polygon class="cls-1" points="237.52 150.22 231.25 168.67 232.62 183.48 255.58 188.06 271.45 168.67 237.52 150.22"/><polygon class="cls-2" points="165.39 171.62 159.75 220.66 139.75 243.75 161.75 234 182.77 231.04 165.39 171.62"/><polygon class="cls-3" points="166.59 392.32 243.57 372.4 317.92 386.49 239.56 400 166.59 392.32"/><polygon class="cls-4" points="230.9 352.38 243.57 372.4 239.01 373.42 228.49 361 230.9 352.38"/><polygon class="cls-5" points="218.99 146.15 237.52 150.22 232.62 183.48 226.94 191.02 220.6 223.99 182.77 231.04 156.42 202.67 167.35 181.39 218.99 146.15"/><polygon class="cls-2" points="167.4 42.6 193.41 65.19 211.31 89.51 208.1 143.68 175.5 165.51 159.29 138.49 159.29 138.49 167.4 42.6"/><polygon class="cls-1" points="117.74 36.82 92.07 61.14 93.42 81.07 111.24 123 133.96 144.57 159.29 138.49 177.88 109.92 167.4 42.6 146.46 31.41 117.74 36.82"/><polygon class="cls-5" points="226.94 222.81 250.42 238.14 247.11 288.02 259.97 311.33 259.95 341.16 215.36 358.39 177.19 298.26 190.03 264.65 182.77 231.04 201.6 217.47 226.94 222.81"/><polygon class="cls-6" points="159.29 138.49 190.03 131.73 175.5 165.51 159.29 138.49"/><polygon class="cls-2" points="175.5 165.51 165.39 171.62 167.35 181.39 175.5 165.51"/><polygon class="cls-2" points="282.31 215.92 271.45 168.67 255.58 188.06 270.37 221.39 282.31 215.92"/><polygon class="cls-1" points="129.4 244.94 109.99 242.44 120.91 258 139.75 251.82 129.4 244.94"/><polygon class="cls-2" points="100.25 263.17 112.17 264.98 120.91 258 109.99 242.44 100.25 263.17"/><polygon class="cls-7" points="259.95 341.16 280.56 300.96 247.11 288.02 259.95 341.16"/><polygon class="cls-8" points="209.99 386.49 208.86 392.42 228.37 380.26 230.9 352.38 225.54 354.45 209.99 386.49"/><polygon class="cls-8" points="297.75 335.15 302.88 339.39 302.06 316.42 280.56 300.96 278.69 304.6 297.75 335.15"/><polygon class="cls-4" points="280.56 300.96 302.83 299.33 302.26 303.58 288.13 306.4 280.56 300.96"/><polygon class="cls-9" points="260.23 249.03 298.13 219.98 320.43 244.57 279.31 275.71 260.23 249.03"/><polygon class="cls-10" points="298.13 219.98 260.23 249.03 265.84 256.87 294.08 254.6 304.4 226.9 298.13 219.98"/><polygon class="cls-2" points="273.4 238.93 281.24 247 289.42 237.79 287.47 228.15 273.4 238.93"/><polygon class="cls-2" points="270.37 221.39 269.77 241.71 273.64 238.75 270.37 221.39"/><polygon class="cls-11" points="93.42 81.07 79.57 63.5 90.38 27.36 133.96 0 180.12 2.7 193.41 15.78 202.36 18.24 222.79 55.4 211.31 89.51 193.41 65.19 167.4 42.6 146.46 31.41 117.74 36.82 92.07 61.14 93.42 81.07"/><polygon class="cls-2" points="211.31 89.51 197.97 90.69 193.41 65.19 211.31 89.51"/><polygon class="cls-6" points="195.56 90.69 211.31 102.35 211.31 89.51 195.56 90.69"/><polygon class="cls-11" points="211.31 102.35 222.79 102.35 229.89 87.99 215.56 76.88 211.31 89.51 211.31 102.35"/><polygon class="cls-12" points="224.28 83.64 229.89 68.4 220.04 63.59 215.56 76.88 224.28 83.64"/><polygon class="cls-13" points="226.94 222.81 232.62 183.48 156.42 202.67 182.77 231.04 226.94 222.81"/><polygon class="cls-14" points="182.77 231.04 247.11 288.02 177.19 298.26 182.77 231.04"/><polygon class="cls-1" points="270.37 221.39 273.4 238.93 287.47 228.15 282.31 215.92 270.37 221.39"/><polygon class="cls-2" points="129.4 244.94 118.64 264.33 122.25 264.98 139.75 251.82 129.4 244.94"/><polygon class="cls-1" points="167.35 181.39 181.5 184.09 218.99 146.15 208.1 143.68 175.5 165.51 167.35 181.39"/><polygon class="cls-2" points="209.99 386.49 221.91 379.12 225.54 354.45 215.36 358.39 209.99 386.49"/><polygon class="cls-2" points="297.75 335.15 297.75 320.18 278.69 304.6 273.37 314.98 297.75 335.15"/><polygon class="cls-12" points="117.74 36.82 97.81 42.22 92.07 61.14 117.74 36.82"/><polygon class="cls-15" points="180.12 2.7 131.09 22.65 167.4 42.6 193.41 15.78 180.12 2.7"/><polygon class="cls-11" points="131.09 22.65 133.96 0 180.12 2.7 131.09 22.65"/><polygon class="cls-16" points="131.09 22.65 90.38 27.36 133.96 0 180.12 2.7 131.09 22.65"/><polygon class="cls-15" points="193.41 65.19 222.79 55.4 211.31 89.51 193.41 65.19"/><polygon class="cls-6" points="203.13 78.39 199.49 83.64 197.97 71.39 203.13 78.39"/><polygon class="cls-17" points="123.49 83.64 129.74 81.91 135.31 101.33 126.36 103.36 123.49 83.64"/><polygon class="cls-6" points="126.36 103.36 131.59 106.06 135.31 101.33 126.36 103.36"/><polygon class="cls-2" points="129.74 81.91 131.17 76.1 149.92 68.62 159.39 72.09 142.49 83.52 135.31 101.33 129.74 81.91"/><path class="cls-18" d="M146.12,83.52a3.63,3.63,0,1,1-3.63-3.63A3.64,3.64,0,0,1,146.12,83.52Z"/><polygon class="cls-12" points="159.39 72.09 150.51 67.05 131.94 72.58 131.17 76.1 150.44 70.1 159.39 72.09"/><polygon class="cls-2" points="123.49 83.64 119.63 79.58 103.82 83.63 99.74 87.72 114.87 90.69 125.84 99.79 123.49 83.64"/><polygon class="cls-12" points="119.63 79.58 116.4 76.84 102.72 81.79 99.74 87.72 103.82 83.63 119.63 79.58"/><path class="cls-18" d="M118.5,90.69a3.63,3.63,0,1,1-3.63-3.63A3.63,3.63,0,0,1,118.5,90.69Z"/><polygon class="cls-10" points="134.38 126.96 121.45 120.23 151.9 112.71 140.94 125.33 134.38 126.96"/><polygon class="cls-8" points="121.45 120.23 131.61 113.26 133.81 113.34 135.62 112.08 151.9 112.71 135.79 119.63 121.45 120.23"/><polygon class="cls-19" points="136.68 123.75 124.01 120.12 135.31 115.61 148.35 114.23 136.68 123.75"/><polygon class="cls-12" points="202.36 18.24 167.4 42.6 193.41 15.78 202.36 18.24"/><polygon class="cls-1" points="159.75 220.66 182.77 231.04 139.75 251.82 129.4 244.94 159.75 220.66"/><polygon class="cls-2" points="140 101.33 151.9 106.06 163 99.33 140 101.33"/><polygon class="cls-2" points="124.5 104.83 109.68 113.63 120.13 112.71 124.5 104.83"/><polygon class="cls-12" points="193.41 65.19 193.41 79.17 180.92 54.34 193.41 65.19"/><polygon class="cls-2" points="181.5 184.09 180.92 173.45 177.19 183.27 181.5 184.09"/></svg>