<svg xmlns="http://www.w3.org/2000/svg" viewBox="0 0 400 400"><defs><style>.cls-1{fill:#2c2b2b;fill-opacity:0.1;}.cls-2{fill:#82624d;}.cls-3{fill:#35785d;}.cls-4{fill:#3f8e6f;}.cls-5{fill:#beda8d;}.cls-6{fill:#738c57;}.cls-7{fill:#98c16d;}.cls-8{fill:#5a753d;}.cls-9{fill:#709c53;}.cls-10{fill:#54af8a;}.cls-11{fill:#446125;}.cls-12{fill:#b38b71;}.cls-13{fill:#b7c645;}.cls-14{fill:#dddddc;}.cls-15{fill:#cdcccb;}.cls-16{fill:#eaeceb;}.cls-17{fill:#d8e254;}.cls-18{fill:#cfaa91;}.cls-19{fill:#e7ef78;}.cls-20{fill:#444648;}.cls-21{fill:#686b6d;}.cls-22{fill:#393939;}.cls-23{fill:#8b8a8a;}.cls-24{fill:#7f7f7e;}.cls-25{fill:#9c9fa0;}.cls-26{fill:#666665;}.cls-27{fill:#7c7b7b;}.cls-28{fill:#4d4f50;}.cls-29{fill:#fff;}.cls-30{fill:#d7bba8;}.cls-31{fill:#eaeaea;}.cls-32{fill:#2b2b2b;}</style></defs><title>diplomats_ENFJ_famous_fictional_the_oracle_the_matrix</title><g id="Layer_1" data-name="Layer 1"><polygon class="cls-1" points="129.71 377.65 265.21 398.85 371.1 379.95 260.26 368.69 129.71 377.65"/><polygon class="cls-2" points="151.71 237.75 167.31 237.87 159.32 249.01 141.55 250.47 139.02 240.53 151.71 237.75"/><polygon class="cls-2" points="132.25 238.96 148.08 225.39 154.61 230.24 141.07 238.96 132.25 238.96"/><path class="cls-3" d="M69.15,234l5.32-3.63,40,10s-24,15.75-24,14.9S69.27,234,69.27,234Z"/><polygon class="cls-4" points="75.32 241.87 74.47 239.32 74.47 230.36 30.11 241.26 50.17 256.89 75.32 241.87"/><path class="cls-5" d="M88.49,243.68,85.59,241l-11.12-3.76-11.73,5.82s9.19,7,10,6.9,15.71-6.18,15.71-6.18Z"/><polygon class="cls-6" points="80.39 247.44 80.63 243.08 87.28 240.29 102.27 244.65 93.93 254.34 83.05 254.95 80.39 247.44"/><polygon class="cls-7" points="70.48 245.86 72.66 243.08 80.63 243.08 90.43 250.83 71.93 257.49 70.48 245.86"/><polygon class="cls-8" points="59.23 246.95 58.39 240.9 72.66 243.08 74.34 254.34 63.35 255.19 59.23 246.95"/><polygon class="cls-9" points="48.48 249.62 58.39 240.9 70.12 253.13 48.48 249.62"/><polygon class="cls-10" points="89.34 259.43 74.34 254.34 30.11 241.26 32.4 256.52 74.47 270.94 89.34 259.43"/><polygon class="cls-10" points="114.48 240.41 131.4 236.17 135.75 231.57 154.61 230.24 160.17 235.08 157.51 241.74 112.42 252.4 114.48 240.41"/><polygon class="cls-8" points="192.2 208.07 180.84 212.79 163.68 224.18 165.12 237.75 171.41 245.74 205.86 236.29 192.2 208.07"/><polygon class="cls-9" points="163.68 224.18 154.61 230.24 159.32 249.01 171.41 245.74 163.68 224.18"/><polygon class="cls-11" points="213.72 160.35 211.91 154.29 205.13 157.2 180.84 212.79 205.86 236.29 213.72 160.35"/><polygon class="cls-3" points="282.25 374.74 270.53 383.34 271.25 387.94 306.79 388.31 306.92 383.82 282.25 374.74"/><polygon class="cls-4" points="287.09 353.78 280.32 362.14 270.53 383.34 306.92 383.82 301.71 362.51 287.09 353.78"/><polygon class="cls-12" points="296.64 327.98 307.51 328.35 301.71 362.51 280.32 362.14 273.79 337.8 296.64 327.98"/><polygon class="cls-2" points="280.2 316.48 269.56 322.53 273.79 337.8 307.51 328.35 280.2 316.48"/><polygon class="cls-3" points="204.65 365.65 183.75 376.92 184.1 380.92 232.09 381.04 232.09 376.8 204.65 365.65"/><polygon class="cls-4" points="216.01 351.85 207.43 357.78 183.75 376.92 232.09 376.8 231.24 358.51 216.01 351.85"/><polygon class="cls-12" points="228.7 297.7 204.17 325.08 207.43 357.78 231.24 358.51 238.5 335.01 228.7 297.7"/><polygon class="cls-2" points="211.66 315.15 204.17 325.08 238.5 335.01 241.03 326.29 247.44 311.15 211.66 315.15"/><polygon class="cls-11" points="311.14 256.52 320.21 264.88 307.51 328.35 204.17 325.08 202.6 307.39 278.26 251.44 311.14 256.52"/><polygon class="cls-8" points="316.83 247.68 320.21 264.88 277.66 266.09 273.43 240.29 316.83 247.68"/><polygon class="cls-13" points="214.68 232.18 205.86 236.29 199.1 259.91 202.6 307.39 300.75 309.82 304.37 250.35 271.25 200.44 214.68 232.18"/><polygon class="cls-14" points="226.17 262.46 219.16 255.31 204.53 259.19 205.25 263.67 206.71 264.27 205.74 266.57 206.34 270.81 207.79 271.54 206.83 273.72 207.55 278.32 209.37 279.29 208.16 281.72 208.76 285.71 223.75 284.14 226.17 262.46"/><path class="cls-15" d="M205.25,263.67l.49,2.9,11.85-3.39-12.21.49h-.13Zm1.21,7.14h0l.49,2.91,11-3.15-11.49.24Zm1.21,7.51h0l.61,3.4,8.94-2.91,1.45-.49Z"/><polygon class="cls-16" points="243.09 263.79 240.07 269 223.75 284.14 219.16 255.31 239.22 262.94 243.09 263.79"/><polygon class="cls-14" points="273.55 258.58 266.9 265 240.07 269 239.22 262.94 271.86 255.79 273.55 258.58"/><path class="cls-8" d="M313.68,202.13l4.59,25.56s-20.18,9.93-20.54,9.33S286.85,200,286.85,200l25.62-2.18,1.09,4.48Z"/><polygon class="cls-11" points="324.44 219.58 334.36 201.04 311.14 150.18 301.59 147.02 287.94 195.96 303.89 214.37 320.09 225.39 324.44 219.58"/><polygon class="cls-17" points="278.75 245.02 267.99 235.57 205.86 236.29 199.33 204.56 258.2 198.74 303.53 204.8 304.5 231.69 280.8 247.44 278.75 245.02"/><polygon class="cls-12" points="286.97 243.68 267.99 235.57 266.9 265 288.54 267.18 286.97 243.68"/><polygon class="cls-18" points="299.54 235.81 293.98 235.08 267.99 235.57 288.54 267.18 299.3 258.22 299.54 235.81"/><polygon class="cls-12" points="299.54 235.81 293.98 235.08 299.3 258.22 304.13 254.22 299.54 235.81"/><polygon class="cls-19" points="230.03 160.35 221.33 150.78 211.91 154.29 199.33 204.56 303.53 204.8 301.59 147.02 289.14 143.27 230.03 160.35"/><polygon class="cls-8" points="228.58 152.84 221.33 150.78 219.76 191.47 284.55 191.47 289.14 143.27 228.58 152.84"/><path class="cls-11" d="M283.71,143c.12,1.09,5.43.24,5.43.24l-13.65,33.79-30.23-7.14-20.91,6.18-3.14-25.44,24-6.54,38.32-1.21Z"/><polygon class="cls-9" points="251.06 151.14 245.03 168.22 270.17 172.1 289.14 143.27 284.67 136.97 251.06 151.14"/><polygon class="cls-9" points="229.56 141.21 221.33 150.78 226.17 171.25 245.03 168.22 229.56 141.21"/><polygon class="cls-2" points="277.78 131.76 258.81 148.11 245.03 168.22 214.2 127.4 264.36 126.8 277.78 131.76"/><polygon class="cls-12" points="282.5 120.62 286.48 128.13 284.67 136.97 245.03 168.22 256.27 139.15 243.21 139.52 232.94 61.39 262.43 49.52 282.5 84.04 282.5 120.62"/><polygon class="cls-2" points="279.96 107.54 272.83 109.36 286.48 128.13 289.02 115.77 279.96 107.54"/><path class="cls-20" d="M273.91,104l-1.08,5.33,16.31,6.42,9.68-8s-15.11-16.35-15.48-17S274,104,274,104Z"/><polygon class="cls-21" points="301.11 104.99 306.92 109.48 315.25 84.89 300.5 90.58 301.11 104.99"/><polygon class="cls-22" points="292.77 99.42 291.68 108.38 289.02 115.77 306.92 109.48 306.92 92.88 292.77 99.42"/><path class="cls-23" d="M279.59,100.63l6.41.24,5.68,7.51L306.92,93s-17.41-13.57-18-13.44-18.13,13.2-18.13,13.2Z"/><polygon class="cls-21" points="272.7 89.13 267.27 99.42 272.83 109.36 286 100.75 278.63 92.52 272.7 89.13"/><polygon class="cls-23" points="301.48 65.38 306.31 70.47 315.25 84.89 296.4 85.49 296.15 67.93 301.48 65.38"/><polygon class="cls-24" points="294.94 78.71 303.29 80.28 315.25 84.89 306.92 92.88 297.24 89.37 294.94 78.71"/><path class="cls-22" d="M294.22,77.13l12.08-6.78,2.91-13s-23-2.18-22-2.42S294.22,77.13,294.22,77.13Z"/><polygon class="cls-20" points="289.87 63.2 295.31 66.47 303.29 80.28 297.24 89.37 290.11 86.34 277.66 60.66 289.87 63.2"/><polygon class="cls-21" points="284.79 61.75 285.15 67.32 290.11 86.34 278.63 92.52 272.34 66.72 282.98 54.61 284.79 61.75"/><polygon class="cls-20" points="268.95 68.66 267.5 74.1 267.27 99.42 278.63 92.52 278.03 70.96 268.95 68.66"/><polygon class="cls-21" points="290.35 42.85 296.52 46.73 309.09 57.51 289.63 59.45 284.92 45.52 290.35 42.85"/><polygon class="cls-20" points="288.54 25.29 295.68 26.02 296.52 46.73 285.64 51.33 283.94 37.04 288.54 25.29"/><polygon class="cls-23" points="282.38 42.74 288.66 42.74 295.31 66.47 285.04 67.32 282.62 59.33 266.54 35.22 282.38 42.74"/><path class="cls-25" d="M274,8.46l7.61-2.3,14,19.86-7,16.83S261.47,19.23,261.47,20,274.16,8.58,274.16,8.58Z"/><path class="cls-21" d="M271,26.5l7.37-4,10.28,20.34L271,50.24s-9.54-13.32-9.54-14.17S271,26.5,271,26.5Z"/><polygon class="cls-20" points="266.9 9.91 274.76 12.21 278.38 22.51 267.63 26.5 242.97 22.63 266.9 9.91"/><polygon class="cls-23" points="251.67 9.79 257.96 5.91 281.65 6.16 274.76 12.21 252.76 19.6 251.67 9.79"/><polygon class="cls-20" points="264.36 38.98 274.88 35.1 282.62 59.33 278.03 70.96 258.32 43.83 264.36 38.98"/><path class="cls-23" d="M243.7,19.12l9.06.48,25.62,2.91-3.5,12.71s-35.54.73-34.57-1.09,3.39-14.77,3.39-14.77Z"/><polygon class="cls-22" points="245.87 24.2 274.88 35.1 266.66 42.61 240.19 46.37 245.87 24.2"/><polygon class="cls-20" points="249.38 8.21 252.76 19.6 248.89 35.71 216.74 20.93 232.21 5.18 249.38 8.21"/><polygon class="cls-22" points="235.23 7.49 248.89 0.22 257.96 5.91 252.76 19.6 239.1 11.85 235.23 7.49"/><polygon class="cls-23" points="205.86 13.66 218.31 6.4 248.89 0.22 239.1 11.85 216.01 29.41 201.5 21.42 205.86 13.66"/><polygon class="cls-25" points="188.69 20.57 185.55 12.57 209 5.18 218.31 6.4 208.28 20.69 188.69 20.57"/><path class="cls-25" d="M194.86,37.89c2,.85-.12-15.87-.12-15.87l13.54-1.21,30.7-9,.73,10.9-14.63,17-28.4-.85-1.94-1.09Z"/><polygon class="cls-26" points="181.93 31.47 181.21 26.62 185.55 12.57 208.28 20.69 200.78 29.17 181.93 31.47"/><polygon class="cls-25" points="172.74 44.67 167.78 41.76 181.21 26.62 200.78 29.17 191.48 52.06 172.74 44.67"/><polygon class="cls-22" points="177.58 78.95 168.03 87.43 185.55 112.38 210.82 88.52 198.49 73.26 177.58 78.95"/><polygon class="cls-21" points="174.79 64.05 174.19 72.53 168.03 87.43 204.9 87.91 199.21 52.42 174.79 64.05"/><polygon class="cls-20" points="172.13 48.18 163.68 57.02 174.19 72.53 199.94 60.9 172.13 48.18"/><polygon class="cls-27" points="188.69 40.19 177.58 41.76 167.78 41.76 163.68 57.02 186.4 58.24 188.69 40.19"/><polygon class="cls-21" points="207.91 36.32 200.78 29.17 177.58 41.76 183.01 51.7 206.71 52.67 207.91 36.32"/><polygon class="cls-23" points="243.09 38.37 248.89 35.71 266.66 42.61 278.03 70.96 267.5 74.1 258.2 55.57 236.81 52.79 243.09 38.37"/><polygon class="cls-28" points="224.23 37.65 217.71 34.26 200.78 29.17 204.29 42.25 221.81 55.94 229.91 50.85 224.23 37.65"/><polygon class="cls-22" points="222.9 52.06 221.33 48.43 217.71 34.26 239.71 22.75 248.89 35.71 243.09 38.37 222.9 52.06"/><polygon class="cls-18" points="183.01 51.7 185.55 112.38 201.5 139.52 243.21 139.52 257.72 112.75 258.2 55.57 243.09 38.37 221.33 48.43 209.61 44.55 204.41 43.83 183.01 51.7"/><polygon class="cls-29" points="216.01 110.68 228.7 110.32 236.92 110.44 226.65 121.23 214.2 121.95 202.96 111.17 216.01 110.68"/><polygon class="cls-12" points="198.61 64.9 189.06 65.99 201.99 77.13 210.82 93 219.16 84.52 223.27 98.57 236.2 76.29 251.43 65.75 236.2 63.08 226.28 69.38 220.48 75.2 213.59 82.1 213.47 75.44 209.25 70.11 198.61 64.9"/><polygon class="cls-12" points="190.75 82.71 201.03 81.01 195.35 85.73 190.75 82.71"/><polygon class="cls-12" points="235.11 80.04 248.41 81.62 240.07 84.4 235.11 80.04"/><polygon class="cls-2" points="215.41 89.61 209.97 98.57 217.71 102.09 223.27 98.57 215.41 89.61"/><polygon class="cls-20" points="209 66.47 199.1 62.84 189.06 65.99 198.37 65.87 209.25 70.11 209 66.47"/><polygon class="cls-20" points="226.05 65.63 236.92 61.51 251.43 65.75 237.04 65.26 226.28 69.38 226.05 65.63"/><polygon class="cls-30" points="213.47 75.44 209.97 98.57 223.27 98.57 220.48 75.2 213.47 75.44"/><polygon class="cls-9" points="201.27 111.29 203.81 111.17 203.81 111.53 214.93 120.5 225.56 120.25 235.48 110.68 231.85 110.44 237.77 110.32 227.49 123.53 213.72 124.13 201.27 111.29"/><polygon class="cls-8" points="201.27 111.29 217.71 108.99 237.77 110.32 234.39 111.78 218.8 113.35 205.02 112.62 201.27 111.29"/><polygon class="cls-12" points="208.28 99.3 195.59 116.86 199.21 104.15 208.28 99.3"/><polygon class="cls-12" points="226.28 99.06 245.03 114.68 241.52 104.99 226.28 99.06"/><polygon class="cls-8" points="304.37 226.36 334.36 201.04 347.89 231.33 316.83 247.68 307.28 238.47 304.37 226.36"/><polygon class="cls-9" points="293.98 235.08 304.37 226.36 316.83 247.68 304.13 254.22 293.98 235.08"/><polygon class="cls-4" points="113.03 256.28 114.48 240.41 74.34 254.34 74.47 270.94 113.03 256.28"/><polygon class="cls-18" points="129.23 232.29 144.58 222.61 154.61 230.24 140.71 233.75 131.4 236.17 129.23 232.29"/><polygon class="cls-18" points="129.95 257.49 122.69 249.98 144.7 237.75 159.32 249.01 129.95 257.49"/><polygon class="cls-31" points="45.34 177.91 48.36 195.11 43.76 202.02 53.8 218.01 49.21 201.77 59 188.93 45.34 177.91"/><polygon class="cls-31" points="62.14 167.98 66.86 188.45 60.81 202.13 69.27 211.47 67.94 225.15 76.04 209.89 72.66 199.83 78.82 189.54 62.14 167.98"/><polygon class="cls-31" points="87.16 179.73 91.03 195.11 84.26 202.86 90.55 209.53 88.49 220.79 96.71 207.83 92.97 200.32 98.16 192.08 87.16 179.73"/><path class="cls-32" d="M236.2,72.05A4.24,4.24,0,1,1,232,76.29,4.23,4.23,0,0,1,236.2,72.05Z"/><path class="cls-32" d="M202,72.9a4.24,4.24,0,1,1-4.22,4.23A4.23,4.23,0,0,1,202,72.9Z"/></g></svg>