<svg id="Layer_1" data-name="Layer 1" xmlns="http://www.w3.org/2000/svg" viewBox="0 0 400 400"><defs><style>.cls-1,.cls-20{fill:#2b2b2b;}.cls-1,.cls-10,.cls-11,.cls-12,.cls-13,.cls-14,.cls-15,.cls-16,.cls-17,.cls-18,.cls-19,.cls-2,.cls-20,.cls-21,.cls-3,.cls-4,.cls-5,.cls-6,.cls-7,.cls-8,.cls-9{fill-rule:evenodd;}.cls-1{opacity:0.1;}.cls-2{fill:#3f8e6f;}.cls-3{fill:#9fce7e;}.cls-4{fill:#fce3d4;}.cls-5{fill:#98c16d;}.cls-6{fill:#709c53;}.cls-7{fill:#beda8d;}.cls-8{fill:#f4c9b2;}.cls-9{fill:#c1907d;}.cls-10{fill:#72c8a5;}.cls-11{fill:#d8e254;}.cls-12{fill:#b7c645;}.cls-13,.cls-22{fill:#35785d;}.cls-14{fill:#7d4f26;}.cls-15{fill:#9c6633;}.cls-16{fill:#b07545;}.cls-17{fill:#54af8a;}.cls-18{fill:#5a753d;}.cls-19{fill:#ffefe7;}.cls-21{fill:#e7ef78;}</style></defs><title>diplomats_ENFJ_famous_fictional_elizabeth_bennet_pride_and_prejudice</title><polygon class="cls-1" points="116.06 388.35 204.99 378.76 285.7 385.15 242.14 395.67 215.86 400.5 116.06 388.35"/><polygon class="cls-2" points="152.09 378.06 140.2 389.59 165.38 392.63 180.34 389.59 180.34 378.45 152.09 378.06"/><polygon class="cls-3" points="153.98 217.48 136.69 249.66 138.4 256.75 148.25 261.42 156.89 249.03 169.56 228.86 153.98 217.48"/><polygon class="cls-2" points="215.35 378.68 210.81 395.59 226.47 397.72 242.14 395.67 232.55 378.84 215.35 378.68"/><polygon class="cls-4" points="167.84 168.63 177.52 165.75 209.35 165.36 216.97 167.62 205.33 204 167.16 204 167.84 168.63"/><polygon class="cls-5" points="171.44 191.46 167.84 168.63 155.69 172.22 146.45 208.29 189.07 222.55 220.82 213.98 233.15 194.58 227.33 170.66 216.97 167.62 200.71 191.46 171.44 191.46"/><polygon class="cls-6" points="157.15 242.02 146.45 208.29 220.82 213.98 217.32 242.02 190.61 259.16 157.15 242.02"/><polygon class="cls-6" points="152.09 378.06 156.2 266.88 156.89 249.03 172.04 246.23 189.16 249.59 217.49 387.18 213.03 387.18 152.09 378.06"/><polygon class="cls-5" points="156.89 249.03 195.66 246.78 218.17 249.59 246.84 343.08 237.35 387.25 213.03 387.18 156.89 249.03"/><polygon class="cls-3" points="229.38 221.85 220.82 213.98 227.33 170.66 254.29 217.56 242.14 232.21 229.38 221.85"/><polygon class="cls-7" points="228.27 254.96 229.38 221.85 254.29 217.56 243.51 260.8 236.91 264.39 228.27 254.96"/><polygon class="cls-4" points="118.89 276.93 131.21 259.79 132.58 260.95 140.03 279.97 133.44 278.18 118.89 276.93"/><polygon class="cls-8" points="133.44 278.18 132.58 260.95 142.76 268.2 140.03 279.97 133.44 278.18"/><polygon class="cls-9" points="130.61 290.02 118.89 276.93 133.44 278.18 140.03 279.97 130.61 290.02"/><polygon class="cls-10" points="128.73 309.57 129.24 277.79 133.44 278.18 132.92 309.65 128.73 309.57"/><polygon class="cls-11" points="130.7 308.02 148.25 308.02 130.7 388.65 125.3 320.56 130.7 308.02"/><polygon class="cls-12" points="115.89 308.02 130.7 308.02 130.7 388.65 115.89 308.02"/><polygon class="cls-13" points="118.54 304.74 115.89 308.02 148.25 308.02 146.53 304.2 143.19 306.77 139.08 303.89 135.24 307.08 130.87 304.44 126.84 307 123.08 304.28 120.77 306.69 118.54 304.74"/><polygon class="cls-8" points="211 165.85 225.46 125.11 223.87 91.17 210.82 76.62 184.99 152.09 180.94 186.57 211 165.85"/><polygon class="cls-4" points="131.38 53.43 133.59 123.62 147.34 149.63 166.12 150.68 178.82 157.47 188.18 152.38 202.36 125.73 214.17 39.76 156.07 36.77 131.38 53.43"/><polygon class="cls-8" points="135 82.53 147.43 92.31 159.69 114.44 165.33 116.91 170 114.98 187.81 94.43 200.68 86.05 193.01 82.26 176.88 83.41 168.76 92.05 165.68 96.02 163.04 91.87 158.89 82.44 147.08 79.88 135 82.53"/><polygon class="cls-14" points="123.8 62.16 132.53 89.58 135.62 60.22 138.7 52.19 135.09 36.85 123.8 62.16"/><polygon class="cls-15" points="140.55 65.25 135.62 60.22 135.09 36.85 147.43 31.39 146.11 58.46 140.55 65.25"/><polygon class="cls-16" points="143.81 73.71 140.55 65.25 146.64 41.17 147.43 31.39 154.66 52.46 153.69 63.74 143.81 73.71"/><polygon class="cls-14" points="167.8 71.33 153.69 63.74 156.07 36.77 164.98 31.65 172.91 35.62 173.44 52.11 167.8 71.33"/><polygon class="cls-15" points="147.43 31.39 164.98 31.65 163.66 42.14 153.69 63.74 146.99 41.17 147.43 31.39"/><polygon class="cls-15" points="178.02 31.83 164.98 31.65 173.44 52.11 178.91 68.24 189.31 78.56 191.52 66.74 188.78 40.12 178.02 31.83"/><polygon class="cls-16" points="199.53 34.38 178.02 31.83 191.52 66.74 208 84.91 206.94 56.52 199.53 34.38"/><polygon class="cls-15" points="213.38 48.23 199.53 34.38 198.75 44.08 208 84.91 216.11 73.89 213.38 48.23"/><polygon class="cls-14" points="233.04 93.11 226.7 59.6 213.38 48.23 208 84.91 211.44 90.11 214.7 100.34 221.94 105.89 233.04 93.11"/><polygon class="cls-17" points="97.26 87.46 133.5 119.38 132.53 89.58 110.13 74.59 97.26 87.46"/><polygon class="cls-2" points="127.77 62.42 109.6 40.12 98.71 42.12 97.26 87.46 132.53 89.58 127.77 62.42"/><polygon class="cls-17" points="146.64 41.17 144.87 15.69 118.51 4.05 94.15 41.29 127.77 62.42 146.64 41.17"/><polygon class="cls-2" points="198.75 44.08 206.33 22.92 196.45 1.5 118.51 4.05 146.64 41.17 198.75 44.08"/><polygon class="cls-17" points="241.68 35.44 196.45 1.5 198.75 44.08 213.03 53.25 231.1 50.43 241.68 35.44"/><polygon class="cls-2" points="233.04 93.11 213.03 53.25 241.68 35.44 233.04 93.11"/><polygon class="cls-18" points="246.19 80.67 240.37 54.75 241.68 35.44 233.4 32.53 233.48 40.56 233.04 93.11 222.91 107.39 225.46 125.11 236.66 115.06 246.19 80.67"/><polygon class="cls-6" points="197.16 15.52 233.48 40.56 241.68 35.44 196.45 1.5 192.04 8.73 197.16 15.52"/><polygon class="cls-18" points="118.51 4.05 196.45 1.5 197.16 15.52 126.53 13.93 119.3 13.13 118.51 4.05"/><polygon class="cls-6" points="94.15 41.29 118.51 4.05 126.53 13.93 103.06 46.85 100.85 49.84 94.15 41.29"/><polygon class="cls-18" points="97.26 87.46 94.15 41.29 103.06 46.85 105.11 87.91 105.55 91.43 97.26 87.46"/><polygon class="cls-6" points="133.5 119.38 97.26 87.46 105.11 87.91 133.24 111.09 133.5 119.38"/><polygon class="cls-9" points="166.12 150.68 180.94 186.57 203.49 153.56 166.12 150.68"/><polygon class="cls-4" points="218.76 90.2 216.29 113.39 225.02 118.15 228.9 115.24 233.04 93.11 218.76 90.2"/><polygon class="cls-9" points="220.44 104.75 221.67 94.69 229.07 95.93 220.44 104.75"/><polygon class="cls-9" points="216.29 113.39 225.46 125.11 228.9 115.24 216.29 113.39"/><polygon class="cls-2" points="252.44 65.16 252.26 116.21 241.68 114.36 236.75 105.01 240.37 54.75 252.44 65.16"/><polygon class="cls-13" points="252.26 116.21 225.46 125.11 236.75 105.01 252.26 116.21"/><polygon class="cls-19" points="163.04 91.87 159.69 114.44 170 114.98 168.76 92.05 163.04 91.87"/><polygon class="cls-9" points="164.27 119.91 159.69 114.44 170 114.98 164.27 119.91"/><polygon class="cls-15" points="135 82.53 141.43 77.68 159.24 77.77 158.89 82.44 142.67 80.85 135 82.53"/><polygon class="cls-15" points="200.68 86.05 193.72 79 177.76 78.56 176.88 83.41 193.01 82.26 200.68 86.05"/><path class="cls-20" d="M186.31,89.49a4.2,4.2,0,0,1,4,4.32,4.09,4.09,0,0,1-4.41,3.88,4.2,4.2,0,0,1-4-4.32,4.1,4.1,0,0,1,4.41-3.88"/><polygon class="cls-18" points="151.72 128.99 165.65 126.26 180.46 130.4 165.21 131.2 151.72 128.99"/><polygon class="cls-6" points="165.21 134.11 151.72 128.99 153.75 129.08 178.17 130.31 180.46 130.4 165.21 134.11"/><path class="cls-20" d="M149.26,87.53a4.18,4.18,0,1,0,4,4.39,4.18,4.18,0,0,0-4-4.39"/><polygon class="cls-15" points="211.44 90.11 212.59 120.79 215.15 119.29 216.56 113.56 217.79 99.63 211.44 90.11"/><polygon class="cls-16" points="219.11 142.92 212.59 120.79 216.47 113.65 219.11 142.92"/><polygon class="cls-21" points="157.15 242.02 156.89 249.03 218.17 249.59 217.32 242.02 157.15 242.02"/><polygon class="cls-3" points="285.7 385.15 287.84 380.39 277.57 371.36 218.17 249.59 237.35 387.25 285.7 385.15"/><polygon class="cls-7" points="303.85 383.59 277.57 371.36 285.7 385.15 303.85 383.59"/><polygon class="cls-8" points="233.32 261.89 229.64 256.44 220.82 268.6 220.74 277.63 224.93 279.04 233.32 261.89"/><polygon class="cls-4" points="220.74 277.63 229.64 256.44 233.66 265.63 241.28 268.67 241.62 282.15 227.33 286.9 220.74 277.63"/><polygon class="cls-8" points="222.62 292.59 220.74 277.63 241.62 282.15 233.84 294.93 222.62 292.59"/><polygon class="cls-17" points="224.76 263.14 228.44 250.68 244.7 255.97 251.47 272.56 224.76 263.14"/><polygon class="cls-17" points="131.21 259.79 136.69 249.66 148.25 261.42 149.18 275.68 131.21 259.79"/><rect class="cls-22" x="140.2" y="389.59" width="40.14" height="4.26"/><rect class="cls-22" x="210.81" y="395.59" width="31.32" height="4.26"/></svg>