<svg id="Layer_1" data-name="Layer 1" xmlns="http://www.w3.org/2000/svg" viewBox="0 0 400 400"><defs><style>.cls-1{fill:#e3d187;}.cls-1,.cls-10,.cls-11,.cls-12,.cls-13,.cls-14,.cls-15,.cls-16,.cls-17,.cls-18,.cls-19,.cls-2,.cls-20,.cls-21,.cls-22,.cls-3,.cls-4,.cls-5,.cls-6,.cls-7,.cls-8,.cls-9{fill-rule:evenodd;}.cls-2{fill:#c2b075;}.cls-21,.cls-3{fill:#2b2b2b;}.cls-3{opacity:0.1;}.cls-4{fill:#54af8a;}.cls-5{fill:#3f8e6f;}.cls-6{fill:#446125;}.cls-7{fill:#738c57;}.cls-8{fill:#fce3d4;}.cls-9{fill:#35785d;}.cls-10{fill:#d8e254;}.cls-11{fill:#98c16d;}.cls-12{fill:#f4c9b2;}.cls-13{fill:#c1907d;}.cls-14{fill:#b7c645;}.cls-15{fill:#e7ef78;}.cls-16{fill:#5a753d;}.cls-17{fill:#beda8d;}.cls-18{fill:#ffefe7;}.cls-19{fill:#9fce7e;}.cls-20{fill:#f5eda6;}.cls-22{fill:#fff7ab;}</style></defs><title>diplomats_ENFJ_famous_fictional_skyler_white_breaking_bad</title><polygon class="cls-1" points="151.62 123.27 156.51 137.94 167.11 144.84 171.68 135.61 163.02 124.74 151.62 123.27"/><polygon class="cls-2" points="179.82 142.63 174.88 148.07 167.11 144.84 163.02 124.74 171.34 125.81 185.7 134.62 179.82 142.63"/><polygon class="cls-3" points="65.17 376.74 181.28 354.87 299.02 378.62 175.22 400.5 65.17 376.74"/><polygon class="cls-4" points="126.67 309.25 141.23 251.17 174 267.39 175.62 293.03 160.65 323.21 140.02 325.85 126.67 309.25"/><polygon class="cls-5" points="119.38 366.21 120.58 356.86 126.67 309.25 160.65 323.21 140.81 362.14 127.94 364.92 119.38 366.21"/><polygon class="cls-6" points="129.08 364.4 129.08 382.13 139.59 382.51 140.81 362.14 129.08 364.4"/><polygon class="cls-7" points="89.02 376.85 120.58 356.86 140.81 362.14 110.87 382.13 89.02 376.85"/><polygon class="cls-4" points="197.06 334.9 175.62 293.03 198.68 265.88 217.69 280.21 227.41 316.04 222.96 331.5 197.06 334.9"/><polygon class="cls-5" points="233.47 360.55 231.08 358.86 197.06 334.9 227.41 316.04 246.45 346.42 243.19 361.68 233.47 360.55"/><polygon class="cls-6" points="242.41 356.98 257.78 366.4 264.25 358.11 246.45 346.42 242.41 356.98"/><polygon class="cls-7" points="231.48 395.07 231.08 358.86 246.45 346.42 248.07 380.36 231.48 395.07"/><polygon class="cls-8" points="215.67 142.54 217.13 142.88 221.75 144.3 222.96 171.59 185.73 190.82 161.06 163.29 179.82 142.63 215.67 142.54"/><polygon class="cls-9" points="141.23 251.17 157.82 271.54 175.62 293.03 225.79 254.94 141.23 251.17"/><polygon class="cls-10" points="164.29 175.74 141.23 251.17 196.66 254.56 215.67 180.64 196.66 179.88 186.95 183.28 178.45 178.38 164.29 175.74"/><polygon class="cls-7" points="179.82 142.63 147.71 148.2 141.23 251.17 178.45 178.38 169.55 158.76 179.82 142.63"/><polygon class="cls-11" points="176.83 210.44 162.27 181.39 156.61 156.5 152.16 147.45 142.45 142.92 103.61 138.77 90.25 162.16 84.99 166.68 122.62 241.36 176.83 210.44"/><path class="cls-11" d="M90.25,162.16,85,166.68l16.59,33.19c5.67.38,10.93.38,12.14-1.13,3.64-4.15,19-35.45,19-35.45l.41-10.56-18.21,1.13-24.68,8.68v-.38Z"/><polygon class="cls-11" points="103.2 202.51 106.84 210.06 162.27 181.39 155.39 167.44 103.2 202.51"/><polygon class="cls-7" points="217.13 142.88 215.67 164.8 196.66 179.88 196.66 254.56 226.59 254.56 244.4 150.84 228.71 138.15 217.13 142.88"/><polygon class="cls-11" points="231.05 229.29 244 236.84 239.54 254.94 220.53 265.88 196.66 254.56 196.66 233.07 231.05 229.29"/><polygon class="cls-10" points="214.86 205.15 244.4 150.84 259.37 187.05 257.35 197.24 253.3 196.48 236.3 220.99 237.92 228.92 231.05 229.29 224.98 237.97 205.56 220.99 214.86 205.15"/><polygon class="cls-7" points="184.52 230.81 141.23 251.17 122.62 241.36 136.78 231.56 157.82 219.49 184.52 230.81"/><polygon class="cls-12" points="157.82 213.08 184.93 209.31 192.21 219.86 184.52 230.81 157.82 226.28 150.13 220.99 157.82 213.08"/><polygon class="cls-8" points="137.59 209.31 146.49 208.55 157.82 213.08 157.82 226.28 136.78 231.56 129.9 220.62 137.59 209.31"/><polygon class="cls-12" points="121.81 214.21 137.59 209.31 136.78 231.56 123.43 229.67 121.81 214.21"/><polygon class="cls-13" points="145.68 204.78 137.59 209.31 157.82 213.08 145.68 204.78"/><polygon class="cls-14" points="196.66 233.07 190.59 219.11 196.66 207.79 214.86 205.15 224.98 237.97 220.53 242.87 214.46 236.08 196.66 233.07"/><polygon class="cls-7" points="184.52 230.81 184.93 209.31 196.66 207.79 196.66 233.07 184.52 230.81"/><polygon class="cls-12" points="115.34 201.38 136.78 179.51 142.04 170.83 132.74 162.91 104.41 180.26 101.99 192.33 115.34 201.38"/><polygon class="cls-14" points="97.13 219.86 106.84 210.06 105.63 195.73 95.11 186.3 82.16 194.22 97.13 219.86"/><polygon class="cls-7" points="106.84 210.06 115.34 201.38 104.41 180.26 95.11 186.3 106.84 210.06"/><polygon class="cls-8" points="156.61 156.5 148.51 156.5 132.74 162.91 136.78 179.51 154.58 177.62 159.84 170.08 156.61 156.5"/><polygon class="cls-12" points="165.91 170.08 156.61 156.5 154.58 178 162.27 181.39 165.91 170.08"/><polygon class="cls-13" points="147.3 153.86 156.61 156.5 132.74 162.91 147.3 153.86"/><polygon class="cls-5" points="236.3 220.99 262.6 221.75 267.05 217.6 273.12 221.75 290.92 256.07 266.24 269.27 239.54 254.94 231.05 229.29 233.88 225.14 236.3 220.99"/><polygon class="cls-11" points="332.83 255.48 301.55 249.24 297.53 266.74 328.81 272.98 332.83 255.48"/><path class="cls-15" d="M316.26,254.61a6.74,6.74,0,0,1,5.53,8,7.2,7.2,0,0,1-8.54,5.15,6.73,6.73,0,0,1-5.54-8,7.22,7.22,0,0,1,8.55-5.16"/><polygon class="cls-11" points="322.28 311.09 300.39 289.34 286.39 301.58 308.28 323.34 322.28 311.09"/><path class="cls-15" d="M309.19,301.57a6.4,6.4,0,0,1-.33,9.49,7.58,7.58,0,0,1-10.17-.31,6.38,6.38,0,0,1,.33-9.48,7.55,7.55,0,0,1,10.17.3"/><polygon class="cls-16" points="280.75 244.93 280.81 274.76 261.62 274.8 261.55 244.97 280.75 244.93"/><path class="cls-15" d="M278.23,259.49a7.21,7.21,0,1,0-7.2,6.7,7,7,0,0,0,7.2-6.7"/><polygon class="cls-7" points="259.82 269.71 269.41 241.26 251.1 235.89 241.51 264.35 259.82 269.71"/><path class="cls-15" d="M262.31,254.42a7.33,7.33,0,0,1-9,4.39,6.64,6.64,0,0,1-4.71-8.42,7.33,7.33,0,0,1,9-4.39,6.65,6.65,0,0,1,4.71,8.42"/><polygon class="cls-11" points="253.38 273.45 262.98 245 244.66 239.63 235.07 268.08 253.38 273.45"/><path class="cls-15" d="M255.87,258.16a7.31,7.31,0,0,1-9,4.38,6.63,6.63,0,0,1-4.71-8.41,7.32,7.32,0,0,1,9-4.39,6.64,6.64,0,0,1,4.71,8.42"/><polygon class="cls-11" points="273.12 221.75 259.37 187.05 253.3 196.48 262.6 221.75 268.67 221.75 273.12 221.75"/><polygon class="cls-17" points="196.66 254.56 239.54 254.94 258.96 264.75 246.02 308.5 197.87 310.01 196.66 254.56"/><polygon class="cls-7" points="214.86 254.56 214.46 236.08 224.98 237.97 227.41 283.23 214.46 282.85 214.86 254.56"/><polygon class="cls-4" points="246.02 308.5 279.19 305.11 290.92 256.07 239.54 254.94 246.02 308.5"/><polygon class="cls-11" points="220.93 270.79 216.48 275.31 220.93 279.08 224.57 275.31 220.93 270.79"/><polygon class="cls-8" points="99.56 127.08 100.37 142.92 115.34 153.48 131.93 150.47 142.45 142.92 132.74 108.22 129.09 107.47 114.53 105.21 116.15 109.73 103.61 121.42 99.56 127.08"/><polygon class="cls-13" points="115.34 153.48 133.54 152.35 142.45 142.92 115.34 153.48"/><polygon class="cls-12" points="99.56 127.08 100.37 142.92 115.34 153.48 103.61 121.8 103.61 121.42 99.56 127.08"/><polygon class="cls-12" points="115.74 126.7 123.03 127.84 129.9 130.85 132.74 130.47 135.97 128.21 134.35 122.93 134.58 118.09 131.52 118.03 128.69 120.67 129.09 122.93 126.67 122.93 122.62 123.69 118.57 123.69 115.74 126.7"/><polygon class="cls-2" points="115.34 114.64 117.77 122.93 129.09 107.47 114.53 105.21 105.22 109.35 103.61 121.8 115.34 114.64"/><polygon class="cls-2" points="114.53 124.82 115.74 126.7 122.62 123.69 121.41 121.42 114.53 124.82"/><polygon class="cls-18" points="128.69 121.8 135.97 128.21 129.5 131.23 126.67 122.93 128.69 121.8"/><polygon class="cls-13" points="133.95 132.74 135.97 128.21 129.5 131.23 133.95 132.74"/><polygon class="cls-7" points="138.4 133.12 129.09 136.51 131.93 143.3 141.64 139.91 140.42 133.87 138.4 133.12"/><polygon class="cls-10" points="145.28 130.85 135.97 136.13 136.38 138.39 147.71 139.15 149.32 133.49 145.28 130.85"/><polygon class="cls-2" points="127.48 118.78 128.69 120.67 134.73 118.02 134.12 116.31 127.48 118.78"/><polygon class="cls-19" points="96.32 102.56 114.53 105.21 99.96 127.46 94.13 120.66 96.32 102.56"/><polygon class="cls-11" points="76.5 131.61 96.32 102.56 98.33 116.27 99.96 127.46 92.28 134.62 76.5 131.61"/><polygon class="cls-19" points="90.25 162.16 76.5 131.61 99.96 127.46 115.34 153.48 90.25 162.16"/><polygon class="cls-13" points="188.16 176.11 183.31 181.39 186.95 183.28 191 181.77 188.16 176.11"/><polygon class="cls-20" points="132.74 108.22 142.79 74.17 150.77 98.1 151.62 123.27 132.74 108.22"/><polygon class="cls-8" points="160.01 16.64 143.21 39.31 141.49 92.01 151.62 123.27 171.34 125.81 194.02 132.53 207.03 127.07 218.38 109.44 215.02 48.97 203.26 16.64 160.01 16.64"/><polygon class="cls-13" points="157.7 19.75 143.21 39.31 143.14 41.54 143.14 41.54 172.11 25.3 157.7 19.75"/><polygon class="cls-12" points="244.41 64.51 217.13 142.88 190.01 162.86 191.13 127.33 206.33 95.68 210.77 70.14 231.28 79.09 244.41 64.51"/><polygon class="cls-12" points="142.79 53.59 154.53 66.67 162.96 81.12 167.15 88.02 172.6 86.34 186.46 67.44 203.29 59.81 195.52 55.92 178.29 61.64 171.63 64.46 167.15 67.86 165.3 64.14 159.17 59.47 149.09 51.07 142.79 53.59"/><polygon class="cls-13" points="171.34 125.81 190.01 162.86 204.94 128.57 171.34 125.81"/><polygon class="cls-1" points="142.79 53.59 149.09 49.81 162.77 57.48 160.74 60.67 148.25 53.17 142.79 53.59"/><polygon class="cls-1" points="177.22 58.16 178.29 61.64 196.15 57.7 203.29 59.81 196.99 53.51 177.22 58.16"/><polygon class="cls-18" points="165.3 64.14 171.63 64.46 170.3 77.1 172.6 86.34 161.27 85.5 164.65 76.74 165.3 64.14"/><polygon class="cls-13" points="166.72 90.54 161.26 85.5 172.6 86.34 166.72 90.54"/><polygon class="cls-6" points="153.17 103.18 167.26 97.64 180.48 105.36 166.71 105.23 153.17 103.18"/><polygon class="cls-7" points="165.98 108.2 153.17 103.18 166.6 102.29 180.48 105.36 165.98 108.2"/><path class="cls-21" d="M154.53,62.47a4.2,4.2,0,1,1-4.2,4.2,4.2,4.2,0,0,1,4.2-4.2"/><path class="cls-21" d="M185.12,64.93a4.2,4.2,0,1,1-4.2,4.2,4.2,4.2,0,0,1,4.2-4.2"/><path class="cls-21" d="M134.35,120.79a2.14,2.14,0,1,1-2.14,2.14,2.14,2.14,0,0,1,2.14-2.14"/><path class="cls-21" d="M123.45,125.88a2.14,2.14,0,1,1-2.14,2.14,2.14,2.14,0,0,1,2.14-2.14"/><polygon class="cls-20" points="114.27 41.55 155.22 26.08 179.97 6.35 156.58 6.27 130.7 12.22 114.27 41.55"/><polygon class="cls-1" points="143.14 41.54 114.27 41.55 179.97 6.35 175.98 21.01 157.92 27.41 143.14 41.54"/><polygon class="cls-20" points="135 57.87 126 41.54 143.14 41.54 135 57.87"/><polygon class="cls-2" points="142.04 75.08 135 57.87 143.14 41.54 142.04 75.08"/><polygon class="cls-2" points="193.66 22.09 157.92 27.41 179.97 6.35 195.57 11.69 193.66 22.09"/><polygon class="cls-22" points="226.11 7.53 179.97 6.35 193.66 22.09 221.47 17.36 226.11 7.53"/><polygon class="cls-20" points="240.29 27.96 226.11 7.53 214.9 12.56 236.28 28.16 240.29 27.96"/><polygon class="cls-1" points="193.66 22.09 212.7 29.57 240.29 27.96 214.9 12.56 193.66 22.09"/><polygon class="cls-1" points="260.72 79.19 252.3 59.81 232.8 34.29 212.13 24.42 208.22 37.78 212 63.12 224.09 75.2 254.38 95.54 260.72 79.19"/><polygon class="cls-22" points="240.29 27.96 262.09 58.27 252.3 59.81 225.99 40.04 227.94 31.29 240.29 27.96"/><polygon class="cls-20" points="212.13 24.42 225.99 40.04 234.34 32.99 240.29 27.96 212.13 24.42"/><polygon class="cls-20" points="260.72 79.19 262.09 58.27 225.99 40.04 244.86 61.31 260.72 79.19"/><polygon class="cls-20" points="235.02 91.48 210.77 70.14 193.66 22.09 208.44 30.88 213.97 47.62 228.67 66.08 256.22 90.72 235.02 91.48"/><polygon class="cls-2" points="256.42 108.12 256.22 90.72 235.02 91.48 256.42 108.12"/><polygon class="cls-1" points="263.65 114.97 256.42 108.12 222.9 80.81 230.33 104.97 250.12 122.4 263.94 125.33 263.65 114.97"/><polygon class="cls-2" points="241.85 132.67 259.74 128.17 263.94 125.33 230.33 104.97 241.85 132.67"/><polygon class="cls-20" points="244.4 150.84 259.74 128.17 247.03 126.22 230.33 104.97 224.64 137.36 244.4 150.84"/><polygon class="cls-2" points="217.13 142.88 244.4 150.84 230.21 129.15 230.33 104.97 217.13 142.88"/><polygon class="cls-8" points="222.9 80.81 220.19 93.2 227.2 94.79 222.9 80.81"/><polygon class="cls-13" points="230.33 104.97 220.19 93.2 227.2 94.79 230.33 104.97"/><polygon class="cls-2" points="210.77 70.14 215.99 84.69 221.54 87.01 222.9 80.81 210.77 70.14"/><polygon class="cls-22" points="160.75 1.5 130.7 12.22 179.97 6.35 160.75 1.5"/><polygon class="cls-22" points="212.13 24.42 193.66 22.09 213.97 47.62 212.13 24.42"/></svg>