<svg id="illustration_layer_copy" data-name="illustration_layer copy" xmlns="http://www.w3.org/2000/svg" viewBox="0 0 400 400"><defs><style>.cls-1{fill:#2b2b2b;opacity:0.1;}.cls-1,.cls-10,.cls-11,.cls-12,.cls-13,.cls-14,.cls-15,.cls-16,.cls-17,.cls-2,.cls-3,.cls-4,.cls-5,.cls-6,.cls-8,.cls-9{fill-rule:evenodd;}.cls-2{fill:#906a59;}.cls-3{fill:#95637c;}.cls-4{fill:#3f8e6f;}.cls-5,.cls-7{fill:#35785d;}.cls-6{fill:#54af8a;}.cls-8{fill:#709c53;}.cls-9{fill:#446125;}.cls-10{fill:#5a753d;}.cls-11{fill:#b08c79;}.cls-12{fill:#66483a;}.cls-13{fill:#b99d8d;}.cls-14{fill:#606060;}.cls-15{fill:#474747;}.cls-16{fill:#8f8f8f;}.cls-17{fill:#738c57;}</style></defs><title>diplomats_ENFJ_famous_fictional_morpheus_the_matrix</title><polygon class="cls-1" points="91.55 387.11 204.33 400 313.99 387.22 221.72 372.06 91.55 387.11"/><polygon class="cls-2" points="97.5 199.76 84.54 190.46 78.23 197.11 78.56 203.36 89.53 204.75 97.5 199.76"/><polygon class="cls-3" points="51.36 207.44 51.49 200.76 61.79 198.77 63.78 204.65 51.36 207.44"/><polygon class="cls-4" points="68.3 204.99 67.31 197.1 78.23 197.11 79.55 202.36 68.3 204.99"/><polygon class="cls-5" points="223.84 359.33 240.57 371.19 255.67 374.05 256.83 350.3 245.3 349.31 223.84 359.33"/><polygon class="cls-6" points="223.84 359.33 215.37 387.11 237.5 390.18 257.65 387.44 255.67 374.05 223.84 359.33"/><polygon class="cls-5" points="215.37 387.11 215.37 393.25 257.65 393.25 257.65 387.44 215.37 387.11"/><polygon class="cls-4" points="153.59 287.95 167.43 295.95 184.86 299.22 190.08 251.58 153.59 287.95"/><polygon class="cls-5" points="153.59 287.95 148.65 326.07 151.97 357.54 161.35 364.43 179.81 368.17 185.27 329.56 184.86 299.22 153.59 287.95"/><polygon class="cls-6" points="151.97 357.54 124.08 380.85 152.94 383.96 179.81 380.85 179.81 368.17 151.97 357.54"/><rect class="cls-7" x="124.08" y="380.85" width="55.73" height="6.23"/><polygon class="cls-8" points="153.59 143.93 126.06 194.78 133.7 212.59 153.59 233.41 158.61 184.78 153.59 143.93"/><polygon class="cls-9" points="306.58 233.14 264.11 267.53 262.88 217.2 306.58 233.14"/><polygon class="cls-8" points="286.14 156.88 306.58 233.14 265.88 221.19 263.73 191.79 286.14 156.88"/><polygon class="cls-10" points="192.47 176.81 192.47 199.76 184.69 265.87 153.59 287.95 153.59 182.78 192.47 176.81"/><polygon class="cls-10" points="220.89 189.76 214.66 255.31 227.87 348.77 254.52 347.52 264.11 267.52 266.73 194.78 247.63 189.64 220.89 189.76"/><polygon class="cls-6" points="199.47 156.88 188.86 182.78 153.59 182.78 153.59 143.93 179.81 140.69 199.47 156.88"/><polygon class="cls-8" points="190.08 156.88 184.69 265.87 196.46 348.77 217.87 348.77 221.81 239.62 220.89 189.76 224.88 179.8 223.88 168.84 208.93 158.38 190.08 156.88"/><polygon class="cls-10" points="174.07 141.4 190.08 156.88 223.88 168.84 226.7 156.88 223.88 149.91 206.44 142.93 174.07 141.4"/><polygon class="cls-9" points="223.88 168.84 245.3 164.85 257.59 149.91 260.75 132.47 237.64 140.69 223.88 149.91 223.88 168.84"/><polygon class="cls-9" points="183.9 131.99 174.07 141.4 211.92 147.41 211.92 139.44 183.9 131.99"/><polygon class="cls-11" points="211 6.47 164.17 12.4 149.5 31.01 139.97 102.4 149.85 127.53 183.9 131.99 208.18 143.27 224.88 144.57 259.89 130.3 267.97 52.64 258.95 16.91 211 6.47"/><polygon class="cls-2" points="258.95 16.91 237.51 38.91 228.12 118.23 215.12 135.69 224.25 146.66 237.7 143.25 260.75 132.47 265.99 107.12 264.44 88.74 273.08 69.02 276.44 51.32 258.95 16.91"/><polygon class="cls-2" points="211 47.66 204.59 73.45 191.81 80.31 173.2 78.12 163.23 68.2 165.68 41.73 181.28 50.38 193.51 51.89 211 47.66"/><polygon class="cls-12" points="191.81 80.31 181.1 88.74 173.2 78.12 191.81 80.31"/><polygon class="cls-12" points="157.87 97.09 164.45 96.6 173.78 94.95 181.08 99.25 189.04 96.59 196.59 99.52 204.51 101.57 180.39 103.75 157.87 97.09"/><polygon class="cls-2" points="157.87 97.09 161.82 102.67 180.22 106.99 198.99 107.17 204.51 101.57 180.69 102.25 157.87 97.09"/><polygon class="cls-13" points="181.28 50.38 178.66 57.12 177.58 63.08 173.2 78.12 191.81 80.31 192.78 64.1 194.21 57.95 193.51 51.89 187.51 51.89 181.28 50.38"/><polygon class="cls-12" points="183.9 131.99 228.11 137.04 237.7 143.25 223.88 149.91 199.47 145.43 183.9 131.99"/><polygon class="cls-12" points="268.65 92.83 252.69 90.17 265.99 107.12 268.65 92.83"/><polygon class="cls-11" points="268.65 92.83 252.69 90.17 256.45 66.66 273.08 69.02 268.65 92.83"/><polygon class="cls-12" points="258.28 85.28 260.72 72.35 268.62 73.81 258.28 85.28"/><polygon class="cls-14" points="181.28 50.38 182.51 44.93 166.8 38.16 165.68 41.73 170.8 47.56 181.28 50.38"/><polygon class="cls-14" points="193.51 51.89 193.51 46.24 210.8 43.24 211 47.66 201.55 51.89 193.51 51.89"/><polygon class="cls-15" points="193.51 51.89 181.28 50.38 179.22 52.67 194.63 54.97 193.51 51.89"/><polygon class="cls-15" points="152.89 57.9 165.68 41.73 171.53 44.98 172.14 46.39 174.07 46.39 176.21 47.57 176.87 48.85 178.66 48.93 181.28 50.38 177.58 63.08 163.23 68.2 161.69 66.66 161.84 65.35 160.46 65.44 158.42 63.41 158.04 61.76 156.04 61.05 152.89 57.9"/><polygon class="cls-15" points="192.78 64.1 193.51 51.89 211 47.66 211 49.84 212.66 50.64 214.17 53.34 214.03 55.27 215.54 55.81 220.59 64.86 204.59 73.45 202.32 71.66 202.25 70.64 200.93 70.55 199.29 69.26 198.8 66.66 196.35 66.93 192.78 64.1"/><polygon class="cls-16" points="199.29 69.26 212.66 50.64 211 47.66 196.35 66.93 199.29 69.26"/><polygon class="cls-16" points="202.33 71.67 215.54 55.8 214.17 53.35 200.93 70.56 202.33 71.67"/><polygon class="cls-16" points="156.05 61.05 158.43 63.41 174.07 46.39 171.53 44.97 156.05 61.05"/><polygon class="cls-16" points="160.46 65.44 161.69 66.66 178.66 48.93 176.21 47.57 160.46 65.44"/><polygon class="cls-13" points="258.95 16.91 164.17 12.4 211.56 0.55 258.95 16.91"/><polygon class="cls-6" points="223.88 168.84 220.89 189.76 266.73 194.78 286.14 156.88 257.59 149.91 223.88 168.84"/><polygon class="cls-9" points="153.59 287.95 151.97 357.54 105.79 322.67 153.59 287.95"/><polygon class="cls-10" points="126.06 194.78 97.5 199.76 95.17 212.59 100.82 222.03 153.59 233.41 126.06 194.78"/><polygon class="cls-11" points="97.5 199.76 51.36 206.45 49.67 212.59 100.82 222.03 97.5 199.76"/><polygon class="cls-17" points="184.69 265.87 221.81 239.62 230.85 302.93 223.84 359.33 179.81 368.17 184.69 265.87"/><polygon class="cls-9" points="264.11 267.53 221.81 239.62 223.84 359.33 293.13 345.32 264.11 267.53"/><polygon class="cls-2" points="191.81 80.31 201.28 91.77 199.3 82.44 191.81 80.31"/><polygon class="cls-2" points="173.2 78.12 163.7 87.57 166.1 79.75 173.2 78.12"/></svg>