<svg id="Layer_1" data-name="Layer 1" xmlns="http://www.w3.org/2000/svg" viewBox="0 0 400 400"><defs><style>.cls-1{opacity:0.1;}.cls-2{fill:#3f8e6f;}.cls-3{fill:#a67e62;}.cls-4{fill:#916d5a;}.cls-5{fill:#c2977b;}.cls-6{fill:#72cacb;}.cls-7{fill:#8bdfdb;}.cls-8{fill:#54af8a;}.cls-9{fill:#66483a;}.cls-10{fill:#906a59;}.cls-11{fill:#35785d;}.cls-12,.cls-16{fill:#b08c79;}.cls-13,.cls-29{fill:#2b2b2b;}.cls-14{fill:#b99d8d;}.cls-15,.cls-21{fill:#446125;}.cls-15,.cls-16,.cls-17,.cls-18,.cls-19,.cls-20{fill-rule:evenodd;}.cls-17,.cls-22{fill:#5a753d;}.cls-18{fill:#efd0cb;}.cls-19{fill:#709c53;}.cls-20{fill:#98c16d;}.cls-23{fill:#cdcdcc;}.cls-24{fill:#738c57;}.cls-25{fill:#ebebea;}.cls-26{fill:#be8e00;}.cls-27{fill:#e1a842;}.cls-28{fill:#f1bc68;}.cls-29{opacity:0.2;}</style></defs><title>diplomats_ENFJ_famous_real_Malala_Yousafzai</title><polygon class="cls-1" points="105.91 383.98 202.61 370.47 306.35 381.38 206.1 400 105.91 383.98"/><polygon class="cls-2" points="252.23 169.57 245.35 160.87 245.73 123.05 252.29 124.46 269 159.22 268.63 171.88 263.98 173.72 252.23 169.57"/><polygon class="cls-3" points="157.12 153.86 160.19 184.38 165.99 181.75 177.7 154.41 175.76 151.9 157.12 153.86"/><polygon class="cls-4" points="160.19 184.38 165.33 188.25 177.26 221.68 175.78 229.63 170.41 229.02 163.07 215.83 161.08 208.19 160.19 184.38"/><polygon class="cls-3" points="238.3 190.29 238.36 197.38 237.52 237.04 244.41 235.21 255.74 225.74 258.26 221.47 268.63 171.88 254.86 164.93 249.35 165.15 238.3 190.29"/><polygon class="cls-5" points="242.3 170.71 208.16 191.18 197.77 194.26 191.7 188.22 176.03 164.58 180.13 154.14 184.47 150.98 198.89 149.39 225.06 149.81 245.75 160.24 246.96 164.58 242.3 170.71"/><polygon class="cls-3" points="199.27 180.53 194.33 187.87 193.68 192.03 197.77 194.26 199.27 180.53"/><polygon class="cls-6" points="165.88 200.95 182.07 203.53 197.77 194.26 204.93 207.26 230.84 211.4 238.43 197.85 232.98 194.81 205.38 190.78 197.77 194.26 191.7 188.22 164.96 183.85 160.19 184.38 165.88 200.95"/><polyline class="cls-7" points="238.43 197.85 254.86 164.93 245.75 160.24 240.84 167.94 197.86 194.27 179.23 163.98 184.47 150.98 175.76 151.9 160.19 184.38 197.86 194.27"/><polygon class="cls-8" points="142.45 46.12 141.74 118.94 156.86 143.66 156.23 98.65 159.32 94.13 158.45 40.5 155.27 36.53 148.09 36.59 142.45 46.12"/><polygon class="cls-9" points="197.31 121.25 182.89 129.9 203.78 156.72 216.02 145.71 231.09 121.12 197.31 121.25"/><polygon class="cls-10" points="200.02 130.46 223.54 131.46 203.78 156.72 225.24 145.84 241.37 124.84 243.85 114.98 229.49 73.43 222 72.07 221.7 93.4 199.32 114.67 200.02 130.46"/><polygon class="cls-11" points="156.55 124.6 154.16 73.55 183.89 130.9 226.2 139.63 244.24 121.34 245.74 124.97 245.45 145.46 156.55 124.6"/><polygon class="cls-9" points="226.87 82.07 234.18 85.38 246.65 108.77 246.38 119.32 239.14 126.47 226.2 139.63 238.4 123.79 226.87 82.07"/><polygon class="cls-3" points="155.53 36.92 193.56 18.02 190.66 12.11 185.93 11.62 156.62 31.47 155.53 36.92"/><polygon class="cls-12" points="158.79 112.6 182.89 129.9 200.02 130.46 226.29 108.09 223.55 23.81 154.68 50.63 152.23 77.29 158.79 112.6"/><polygon class="cls-10" points="175.94 90.77 171.73 69.14 158.31 65.38 165.89 60.33 181.19 64.38 183.8 67.81 181.7 80.62 175.94 90.77"/><polygon class="cls-10" points="195.84 90.77 206.17 70.12 222.58 69.43 213.05 62.52 193.43 64.52 190.82 67.81 190.84 81.14 195.84 90.77"/><circle class="cls-13" cx="171.73" cy="69.87" r="3.62"/><circle class="cls-13" cx="206.17" cy="70.43" r="3.62"/><polygon class="cls-14" points="175.94 90.77 181.7 80.62 183.8 67.81 190.82 67.81 190.84 81.14 195.84 90.77 175.94 90.77"/><polygon class="cls-9" points="175.94 90.77 185.89 98.02 195.84 90.77 175.94 90.77"/><polygon class="cls-9" points="173.29 106.91 182.15 102.72 185.54 104.82 188.76 102.72 201.02 104.95 186.18 109.01 173.29 106.91"/><polygon class="cls-10" points="173.29 106.91 181.51 113.84 191.34 113.84 201.02 104.95 186.18 109.01 173.29 106.91"/><polygon class="cls-13" points="193.43 64.52 193.43 59.33 214.5 58.46 223.55 68.14 222.58 69.43 213.05 62.52 193.43 64.52"/><polygon class="cls-13" points="181.19 64.38 181.19 59.33 165.56 56.63 158.31 61.94 158.31 65.38 165.89 60.33 181.19 64.38"/><polygon class="cls-2" points="142.45 46.12 190.66 12.11 193.19 5.32 186.13 2.96 152.87 24.27 142.45 46.12"/><polygon class="cls-15" points="236.13 376.3 241.53 390.27 247.71 390.22 247.54 371.55 244.11 356.61 236.13 376.3"/><polygon class="cls-15" points="185.03 362.59 194.22 389.75 202.12 389.64 204.98 376.15 203.89 358.19 185.03 362.59"/><polyline class="cls-16" points="176.94 350.96 164.45 367.52 170.4 375.18 183.42 379.6 203.89 358.19"/><polygon class="cls-17" points="183.42 379.6 164.45 367.52 159.25 372.28 164.44 379.26 179.98 383.74 183.42 379.6"/><polygon class="cls-16" points="179.98 385.23 159.26 372.28 146.98 379.27 147.07 385.23 161.72 388.19 179.98 385.23"/><polygon class="cls-15" points="203.89 358.19 190.1 377.59 174.8 389.75 147.07 389.75 147.07 385.23 169.1 385.23 203.89 358.19"/><polygon class="cls-15" points="244.11 356.61 240.85 375.18 233.79 390.4 229.92 385.5 244.11 356.61"/><polyline class="cls-18" points="226.94 347.17 228.15 362.9 244.04 353.93"/><polyline class="cls-16" points="219.5 356.5 210.46 370.01 219.29 375.85 232.76 379.73 244.11 356.61 220.82 349.45"/><polygon class="cls-17" points="232.76 379.73 210.46 370.01 206.53 375.63 212.35 379.45 229.92 385.5 232.76 379.73"/><polygon class="cls-16" points="229.92 385.5 206.53 375.63 196.22 381.44 196.22 385.5 212.15 388.47 229.92 385.5"/><polygon class="cls-15" points="233.79 390.4 196.22 390.4 196.22 385.5 229.92 385.5 233.79 390.4"/><polygon class="cls-11" points="136.22 220.51 280.2 223.62 215.14 315.48 168.1 300.46 136.22 220.51"/><polygon class="cls-8" points="263.07 24.75 282.91 114.92 267.63 91.87 217.42 1.28 220.79 0 263.07 24.75"/><polygon class="cls-11" points="198.07 6.85 186.13 2.96 268.63 171.88 282.91 114.92 267.63 91.87 198.07 6.85"/><polygon class="cls-2" points="186.13 2.96 282.91 114.92 220.79 0 186.13 2.96"/><polygon class="cls-19" points="241.54 285.94 250.21 304 244.11 356.61 219.5 356.5 214.74 318.09 241.54 285.94"/><polygon class="cls-17" points="187.63 300.64 172.04 310.88 176.94 350.96 203.89 358.19 207 318.09 187.63 300.64"/><polyline class="cls-19" points="157.16 231.89 151.37 322.73 210.65 336.24 201.43 234.54"/><polygon class="cls-20" points="255.37 228.06 201.43 234.54 210.65 336.24 268.26 319.48 255.37 228.06"/><polygon class="cls-13" points="152.23 61.43 155.53 36.92 190.66 12.11 194.34 35.18 160.44 56.22 152.23 77.29 152.23 61.43"/><polygon class="cls-13" points="194.34 35.18 190.66 12.11 210.32 52.52 194.34 35.18"/><polygon class="cls-2" points="156.86 143.66 156.55 124.6 255.43 147.39 156.86 143.66"/><polygon class="cls-8" points="156.86 143.66 268.63 171.88 256.59 147.36 156.86 143.66"/><polygon class="cls-11" points="176.12 148.33 157.12 153.86 151.05 186.88 209.04 156.76 176.12 148.33"/><polygon class="cls-11" points="209.04 156.76 237.79 163.84 147.8 202.15 151.05 186.88 209.04 156.76"/><polygon class="cls-10" points="136.22 220.51 176.13 217.54 132.22 257.45 118.66 242.31 136.22 220.51"/><polygon class="cls-2" points="147.8 202.15 237.79 163.84 268.63 171.88 147.8 202.15"/><polygon class="cls-11" points="154.56 208.41 265.21 297.85 264.98 256.32 280.2 223.62 154.56 208.41"/><polygon class="cls-11" points="146.4 202.08 268.63 171.88 249.97 232.87 146.4 202.08"/><polygon class="cls-8" points="154.82 228.33 136.22 220.51 157.12 153.86 192.57 216.26 154.82 228.33"/><polygon class="cls-8" points="192.57 216.26 136.22 220.51 145.71 245.29 191.99 238.41 192.57 216.26"/><polygon class="cls-8" points="222.87 221.3 231.09 222.56 268.63 171.88 280.2 223.62 245.55 275.56 238.55 254.56 213.64 229.96 222.87 221.3"/><polygon class="cls-2" points="224.81 220.18 268.63 171.88 229.92 233.06 224.81 220.18"/><polygon class="cls-2" points="155.57 224.85 170.71 216.09 166.34 239.75 155.28 241.44 155.57 224.85"/><polygon class="cls-2" points="191.99 238.41 190.36 221.13 170.71 216.09 166.34 239.75 191.99 238.41"/><polygon class="cls-10" points="192.57 216.26 224.81 220.18 238.55 254.56 191.99 238.41 192.57 216.26"/><polygon class="cls-14" points="191.99 238.41 192.57 216.26 172.91 210.22 168.54 233.88 191.99 238.41"/><polygon class="cls-2" points="264.98 256.32 245.55 275.56 280.2 223.62 264.98 256.32"/><polyline class="cls-9" points="118.66 242.31 100.58 256.09 118.66 270.05 132.22 257.45"/><polygon class="cls-12" points="118.66 242.31 99.11 244.63 98.32 250.77 112.42 250.77 119.48 256.32 126.18 250.71 118.66 242.31"/><polygon class="cls-12" points="100.58 256.09 97.99 269.34 110.82 276.65 118.66 270.05 100.58 256.09"/><polygon class="cls-21" points="159.43 239.27 112.99 232.71 116.24 188.98 160.1 194.25 163.04 197.48 159.43 239.27"/><polygon class="cls-22" points="159.43 239.27 163.04 197.48 160.1 195.25 156.38 237.51 159.43 239.27"/><polygon class="cls-23" points="155.68 234.82 158 197.95 119.3 192.91 117.1 228.96 155.68 234.82"/><polygon class="cls-22" points="138.67 272.58 137.15 266.01 156.38 237.51 158.49 244.9 138.67 272.58"/><polygon class="cls-21" points="138.67 272.58 137.15 266.01 93.65 260.62 95.76 267.42 138.67 272.58"/><polygon class="cls-24" points="93.65 260.62 114.52 231.18 156.38 237.51 137.15 266.01 93.65 260.62"/><polygon class="cls-25" points="150.52 240.33 135.86 262.49 99.63 257.68 115.69 235.52 150.52 240.33"/><ellipse class="cls-26" cx="125.01" cy="249.01" rx="12.02" ry="6.59" transform="translate(-59.53 40.26) rotate(-14.82)"/><polygon class="cls-27" points="114.93 255.05 121.61 252.19 117.4 250.67 119.3 248.08 118.4 247.27 121.28 246.57 121.82 245.42 126.82 243.76 131.36 244.91 132.76 245.78 133.03 248.94 127.92 252.58 129.25 254.48 122.7 256.6 114.93 255.05"/><path class="cls-28" d="M139.73,245.11c-1.18-4.45-8.72-6.31-16.85-4.16s-13.76,7.5-12.58,12,8.72,6.32,16.85,4.17S140.91,249.57,139.73,245.11Zm-13,10.26c-6.42,1.7-12.38.23-13.31-3.29s3.52-7.74,9.94-9.44,12.38-.23,13.31,3.29S133.12,253.68,126.7,255.37Z"/><polygon class="cls-10" points="158 218.89 172.91 210.22 168.54 233.88 156.56 235.7 158 218.89"/><polygon class="cls-15" points="176.94 350.96 173.85 355.05 198.22 364.45 203.89 358.19 176.94 350.96"/><polygon class="cls-15" points="219.5 356.5 215.55 362.41 242.1 363.05 244.11 356.61 219.5 356.5"/><polygon class="cls-11" points="245.55 275.56 217.02 247.09 238.55 254.56 245.55 275.56"/><polygon class="cls-29" points="245.55 275.56 217.02 247.09 238.55 254.56 245.55 275.56"/></svg>