<svg xmlns="http://www.w3.org/2000/svg" viewBox="0 0 400 400"><defs><style>.cls-1{fill:#eed2c1;}.cls-2{fill:#cfae95;}.cls-3{fill:#54af8a;}.cls-24,.cls-4{fill:#2b2b2b;}.cls-4{fill-opacity:0.1;}.cls-5{fill:#3f8e6f;}.cls-6{fill:#738c57;}.cls-7{fill:#5a753d;}.cls-8{fill:#709c53;}.cls-9{fill:#a0a1a0;}.cls-10{fill:#8b8a8a;}.cls-11{fill:#cdcccb;}.cls-12{fill:#c2c1c2;}.cls-13{fill:#dddddc;}.cls-14{fill:#eaeceb;}.cls-15{fill:#9c9fa0;}.cls-16{fill:#444648;}.cls-17{fill:#757273;}.cls-18{fill:#35785d;}.cls-19{fill:#72c8a5;}.cls-20{fill:#a8836c;}.cls-21{fill:#33231b;}.cls-22{fill:#3e3630;}.cls-23{fill:#474747;}.cls-25{fill:#f6e5db;}</style></defs><title>diplomats_ENFJ_famous_fictional_seeley_booth_bones</title><g id="Layer_1" data-name="Layer 1"><polygon class="cls-1" points="144.1 149.78 131.17 139.87 123.79 146.28 129 160.42 145.55 161.87 144.1 149.78"/><polygon class="cls-1" points="153.28 156.91 157.28 153.29 155.7 140.35 142.05 145.19 153.28 156.91"/><polygon class="cls-2" points="163.32 162.47 157.28 153.29 149.18 146.64 137.09 151.23 129 160.42 138.06 166.94 150.87 169.48 163.32 162.47"/><polygon class="cls-3" points="197.52 173.83 182.78 190.27 150.87 169.48 157.28 153.29 184.47 162.47 197.52 173.83"/><polygon class="cls-4" points="72.31 370.6 207.8 398.88 327.69 373.01 199.58 357.18 72.31 370.6"/><path class="cls-5" d="M244.18,365.52c.12-.73-11.12,9.9-11.12,9.9l.24,5h35.17l-.24-4.83-23.93-9.91Z"/><polygon class="cls-5" points="226.29 353.55 194.5 361.77 194.38 366.61 244.3 366.48 244.18 362.01 226.29 353.55"/><polygon class="cls-5" points="227.37 335.91 222.3 341.95 194.5 361.77 244.18 362.01 243.93 350.77 227.37 335.91"/><polygon class="cls-3" points="252.27 343.52 244.18 352.46 233.06 375.55 268.11 375.55 265.33 354.64 252.27 343.52"/><polygon class="cls-6" points="204.66 248.52 195.35 255.65 213.48 313.55 239.95 330.71 264.73 319.59 238.38 264.6 204.66 248.52"/><polygon class="cls-7" points="213.48 313.55 222.3 341.95 244.05 352.83 264.85 319.83 264.73 319.59 237.77 319.83 213.48 313.55"/><polygon class="cls-8" points="266.78 252.27 282.49 272.94 271.61 319.59 246.96 334.21 237.77 319.83 237.77 319.83 229.56 277.66 266.78 252.27"/><polygon class="cls-6" points="271.61 319.59 265.33 354.64 244.18 352.46 237.77 319.83 237.77 319.83 271.61 319.59"/><path class="cls-9" d="M148.21,349.45c.85-.12,20.07,14,22.12,15.34l-18,2.3-8.82-9.31Z"/><polygon class="cls-10" points="151.6 306.66 143.01 307.63 137.21 340.25 152.93 339.29 150.51 335.91 154.26 312.22 151.6 306.66"/><polygon class="cls-11" points="145.19 362.38 155.22 366.85 172.38 381.11 134.19 382.2 145.19 362.38"/><polygon class="cls-12" points="149.78 345.82 148.21 349.45 155.22 366.85 134.19 382.2 137.21 340.25 149.78 345.82"/><polygon class="cls-11" points="172.5 293.73 176.97 305.21 137.21 340.25 148.21 349.45 188.58 308.83 172.5 293.73"/><polygon class="cls-9" points="145.55 256.86 133.83 263.15 143.01 307.63 154.26 312.22 149.9 272.7 145.55 256.86"/><polygon class="cls-12" points="158.49 253.6 169 254.81 188.58 308.83 176.97 305.21 153.53 260.73 158.49 253.6"/><polygon class="cls-11" points="148.34 235.35 144.47 241.27 133.83 263.15 149.9 272.7 169 254.81 153.77 239.58 148.34 235.35"/><path class="cls-12" d="M144,223.62c-.48-.12-3.63,8.71-3.63,8.71l4,8.94,9.31-1.69-.37-10.39Z"/><polygon class="cls-5" points="227.14 162.95 216.38 158 184.47 162.47 182.78 190.27 223.15 191.96 227.14 162.95"/><polygon class="cls-10" points="142.89 226.65 153.41 229.19 167.91 205.98 160.9 199.7 145.43 213.84 142.89 226.65"/><polygon class="cls-9" points="142.17 213.6 148.09 218.55 162.48 201.15 152.56 194.98 139.75 207.19 142.17 213.6"/><path class="cls-12" d="M138.66,203.93c.25-.61,8.58,2.66,8.58,2.66l11.12-11.36s-14.26-6.29-14.86-6-7.86,5.32-7.86,5.32,3.15,9.31,3.15,9.43Z"/><polygon class="cls-11" points="140.84 216.01 139.87 221.09 140.35 232.33 153.41 229.19 148.09 218.55 140.84 216.01"/><polygon class="cls-10" points="137.46 202.72 133.47 212.02 139.87 221.09 144.1 219.88 148.09 218.55 147.24 206.59 137.46 202.72"/><polygon class="cls-9" points="134.07 194.14 132.38 198.85 133.47 212.02 147.24 206.59 140.84 195.95 134.07 194.14"/><polygon class="cls-12" points="132.99 180.24 122.71 182.53 132.38 198.85 140.84 195.95 144.22 191.96 139.51 182.78 132.99 180.24"/><polygon class="cls-9" points="158.24 181.32 162.11 181.09 167.67 191.6 165.74 196.8 159.09 194.5 158.24 181.32"/><path class="cls-12" d="M152.93,175.4l3.62-.24,5.68,5.93L159,195.59s-14.75-9.91-14-10.88,8.11-9.19,8.11-9.19Z"/><polygon class="cls-11" points="145.19 170.45 150.87 169.48 156.43 175.16 150.99 187.37 137.81 178.43 145.19 170.45"/><polygon class="cls-13" points="140.6 178.18 137.7 190.51 182.54 232.93 193.29 220.48 186.28 216.26 143.01 175.28 140.6 178.18"/><polygon class="cls-14" points="145.68 163.2 138.06 166.94 122.71 182.53 137.7 190.51 150.87 169.48 145.68 163.2"/><polygon class="cls-11" points="142.89 150.87 137.09 151.23 138.06 166.94 150.87 169.48 148.21 155.82 142.89 150.87"/><polygon class="cls-12" points="138.91 139.27 131.17 139.87 137.09 151.23 148.21 155.82 149.66 143.13 138.91 139.27"/><polygon class="cls-15" points="133.47 121.62 130.8 131.41 131.17 139.87 149.18 146.64 144.94 127.3 133.47 121.62"/><polygon class="cls-10" points="117.15 105.91 125.98 121.02 130.8 131.41 145.68 129.96 134.67 90.2 117.15 105.91"/><polygon class="cls-12" points="101.32 76.42 92.74 110.38 125.98 121.02 145.19 80.65 127.66 57.81 101.32 76.42"/><polygon class="cls-11" points="133.47 44.03 100.71 43.18 85.85 71.1 92.74 110.38 121.98 71.59 133.47 44.03"/><polygon class="cls-13" points="169.12 80.65 184.1 50.67 146.88 29.77 100.71 43.18 121.98 71.59 169.12 80.65"/><polygon class="cls-11" points="168.88 128.15 164.41 125.97 153.41 129.24 158.97 137.69 169.97 136.61 168.88 128.15"/><polygon class="cls-13" points="175.29 126.34 173.47 123.92 164.41 125.97 167.91 134.67 175.89 132.14 175.29 126.34"/><polygon class="cls-11" points="184.84 125.01 183.02 121.26 173.47 123.92 174.44 133.46 182.3 132.26 184.84 125.01"/><polygon class="cls-13" points="184.59 131.53 189.18 126.09 189.78 119.44 183.02 121.26 181.57 129.48 184.59 131.53"/><path class="cls-13" d="M176.5,113.64l4.83-.48,8.45-6.16-.72-6.29s-12.56,1.81-13.05,1.45S176.5,113.64,176.5,113.64Z"/><polygon class="cls-11" points="170.45 115.46 173.96 117.51 181.33 113.16 178.67 97.81 168.88 110.74 170.45 115.46"/><polygon class="cls-11" points="166.22 115.21 163.08 118.12 149.3 118.12 147.85 108.57 164.89 109.41 166.22 115.21"/><polygon class="cls-13" points="168.03 106.76 172.99 112.31 173.96 117.51 163.08 118.12 159.81 108.93 168.03 106.76"/><polygon class="cls-7" points="204.66 248.52 208.41 264.6 229.56 277.66 250.22 271.13 249.01 249.49 208.88 240.55 204.66 248.52"/><path class="cls-16" d="M207.68,245.75,225,248.28c-.48-4.47,4.95-4.23,4.83-4.59l2.3.48,4.71,5.8,22.36,3.39L267.38,239l-56.32-7.85-3.26,14.63Z"/><path class="cls-17" d="M225,248.28l11.84,1.82,3.51-10.88-16.55-2.9c.11.24.84,7.37,1.32,12Z"/><polygon class="cls-13" points="210.34 235.35 256.14 245.98 273.79 181.09 244.91 157.64 217.95 180.6 210.34 235.35"/><polygon class="cls-18" points="251.79 223.87 248.04 236.32 242.37 273.66 282.49 272.94 284.91 232.57 251.79 223.87"/><polygon class="cls-6" points="248.89 180.96 243.09 182.66 227.26 225.2 231.49 240.3 245.38 231.49 250.22 184.47 248.89 180.96"/><path class="cls-7" d="M240.67,189.42l-3.26,8.71,11.72-2.06.85-8.34Zm-6.77,18.25-3.5,13.78L248,219.88l.13-15-14.39,2.66Zm-4.83,23.94,2.54,8.82,13.53-7.38c-.84-.36-1.33-.84-1.21-1.09.37-.6-9.3-.84-14.86-.23Z"/><polygon class="cls-7" points="239.46 168.03 243.09 182.66 250.22 184.47 260.98 172.38 252.76 161.75 239.46 168.03"/><polygon class="cls-14" points="227.86 176.73 251.43 169.12 268.47 190.39 279.22 171.78 281.16 154.74 243.93 151.23 233.66 159.09 227.86 176.73"/><polygon class="cls-5" points="219.52 217.59 208.41 264.6 195.35 255.65 202.12 216.98 209.13 214.32 219.52 217.59"/><polygon class="cls-18" points="221.57 202.48 220.61 212.87 219.52 217.59 201.99 217.82 206.59 191.24 216.38 158 236.08 153.04 233.66 165.98 221.57 202.48"/><polygon class="cls-19" points="220.61 212.87 214.93 179.88 237.17 151.35 240.07 154.13 220.61 212.87"/><polygon class="cls-12" points="223.76 162.11 223.99 171.42 234.03 169.24 234.63 166.34 223.76 162.11"/><polygon class="cls-12" points="223.99 158.24 218.19 147.85 238.13 147 240.31 154.5 234.87 159.57 223.99 158.24"/><path class="cls-13" d="M216.14,167.06a18.67,18.67,0,0,0-1.09-3.38l3.14-16,16.68,11.72-10.76,11.84-8-4.34Z"/><polygon class="cls-12" points="234.38 213.72 232.09 209.97 216.38 213.96 186.28 216.26 182.54 232.93 217.71 221.69 228.35 225.56 234.38 213.72"/><path class="cls-19" d="M283.58,172l-1.94-10.39-.48-6.89S254.09,213.6,253,213.47s17.4,9.68,17.4,9.68l20.07-38.8Z"/><polygon class="cls-2" points="258.44 215.77 263.03 212.63 248.17 204.89 239.83 210.46 253.12 219.52 258.44 215.77"/><path class="cls-13" d="M251.55,216.74l.6-5.32L232.09,210l-5,15.23s23.2,1,22.59,1.69S251.55,216.74,251.55,216.74Z"/><polygon class="cls-2" points="250.1 228.58 248.04 236.32 227.26 225.2 237.89 217.7 250.1 228.58"/><polygon class="cls-1" points="265.69 226.65 258.19 232.33 248.04 236.32 237.89 217.7 252.15 211.42 262.31 212.63 265.69 226.65"/><polygon class="cls-5" points="302.91 193.17 303.16 167.79 281.16 154.74 283.21 198.37 262.31 212.63 274.39 223.87 292.15 216.61 302.91 193.17"/><polygon class="cls-18" points="286.48 218.55 313.43 213.23 303.16 167.79 286.48 218.55"/><path class="cls-2" d="M242.37,141.56l9.06,27.56,29.73-14.38L294,121l6.4-75.18s-27.67-10.39-29.6-6.64-28.53,102.48-28.53,102.48Z"/><polygon class="cls-20" points="243.93 126.58 248.29 142.77 270.65 147.6 251.43 169.12 219.76 127.66 243.93 126.58"/><polygon class="cls-20" points="290.35 105.06 284.55 107.36 293.97 121.02 297.11 112.44 290.35 105.06"/><polygon class="cls-21" points="296.27 67.84 286.12 79.92 283.58 88.99 295.66 93.7 305.21 90.2 311.74 74.12 296.27 67.84"/><polygon class="cls-22" points="296.27 47.29 283.58 48.74 286.12 79.92 311.74 74.12 318.02 55.87 296.27 47.29"/><polygon class="cls-23" points="301.95 35.69 309.92 37.14 318.02 55.87 283.58 48.74 285.14 38.47 301.95 35.69"/><polygon class="cls-24" points="278.14 38.59 283.58 48.74 309.92 37.14 305.45 21.67 278.14 38.59"/><polygon class="cls-22" points="231 20.1 210.34 1.12 282.85 11.03 305.45 21.67 270.77 32.67 231 20.1"/><polygon class="cls-23" points="215.29 27.59 210.34 1.12 305.45 21.67 282.85 49.83 215.29 27.59"/><polygon class="cls-22" points="224.96 30.13 218.8 19.74 199.09 33.76 207.31 65.66 224.96 30.13"/><polygon class="cls-24" points="216.02 43.54 221.69 36.9 209.73 26.26 210.34 1.12 283.58 48.74 216.02 43.54"/><polygon class="cls-1" points="209.37 44.03 199.7 90.68 204.41 134.31 248.29 142.77 271.13 105.91 283.58 48.74 240.91 42.7 221.69 36.9 209.37 44.03"/><polygon class="cls-2" points="226.16 70.01 228.58 73.4 231.12 79.08 232.45 82.58 237.77 81.25 244.42 77.14 251.79 75.94 264.6 77.63 270.04 83.19 253.24 86.21 235.11 103.13 231.61 93.46 223.15 97.45 221.82 78.6 209.61 67.23 217.95 65.78 226.16 70.01"/><polygon class="cls-20" points="226.53 96.12 221.34 100.47 226.05 107.72 235.11 103.13 226.53 96.12"/><polygon class="cls-24" points="209.61 67.23 214.21 67.23 228.58 73.4 231 70.01 215.41 64.09 209.61 67.23"/><polygon class="cls-24" points="243.81 72.91 244.42 77.14 263.03 79.68 270.04 83.19 264.96 75.09 243.81 72.91"/><polygon class="cls-25" points="231.12 79.08 221.34 100.47 226.16 103.86 235.11 103.13 237.89 80.77 231.12 79.08"/><polygon class="cls-20" points="214.21 112.56 229.31 115.46 246.96 114.61 246.96 116.79 229.07 118.36 214.21 114.73 214.21 112.56"/><polygon class="cls-2" points="239.22 101.68 253.36 117.15 247.08 103.37 239.22 101.68"/><polygon class="cls-1" points="291.43 85 305.21 90.2 297.11 112.44 284.55 107.36 291.43 85"/><polygon class="cls-20" points="300.37 94.31 293.73 91.77 290.83 101.44 300.37 94.31"/><polygon class="cls-3" points="313.43 213.23 307.63 249.13 258.19 232.33 262.31 212.63 313.43 213.23"/><polygon class="cls-14" points="121.98 71.59 184.1 50.67 189.06 100.71 172.99 112.31 149.3 112.56 157.28 133.95 189.18 126.09 190.87 140.48 149.18 146.64 140.47 130.44 121.98 71.59"/><polygon class="cls-10" points="156.79 92.13 142.65 94.79 139.39 79.56 152.2 80.29 156.79 92.13"/><polygon class="cls-12" points="139.39 79.56 153.53 77.39 156.79 92.13 150.99 81.86 139.39 79.56"/><polygon class="cls-10" points="167.07 72.8 171.17 88.63 182.9 82.94 178.18 70.86 167.07 72.8"/><polygon class="cls-12" points="182.9 82.94 179.51 67.96 167.07 72.8 176.73 72.67 182.9 82.94"/><polygon class="cls-10" points="164.16 93.58 163.2 101.68 167.91 102.4 164.16 93.58"/><polygon class="cls-10" points="166.46 92.85 169.72 102.28 172.38 98.29 166.46 92.85"/><polygon class="cls-12" points="177.34 195.47 187.25 196.07 215.05 163.68 223.99 171.42 188.45 212.02 177.34 195.47"/><polygon class="cls-13" points="162.11 181.09 187.98 195.23 188.45 212.02 165.74 196.8 162.11 181.09"/><path class="cls-24" d="M220.49,73a3.87,3.87,0,1,1-3.87,3.87A3.87,3.87,0,0,1,220.49,73Z"/><path class="cls-24" d="M251.06,80.41a3.87,3.87,0,1,1-3.86,3.86A3.86,3.86,0,0,1,251.06,80.41Z"/><polygon class="cls-2" points="226.41 56.84 237.65 60.22 257.72 60.83 238.01 63.25 226.41 56.84"/></g></svg>