<svg id="Layer_1" data-name="Layer 1" xmlns="http://www.w3.org/2000/svg" viewBox="0 0 400 400"><defs><style>.cls-1,.cls-21{fill:#2b2b2b;}.cls-1,.cls-10,.cls-11,.cls-12,.cls-13,.cls-14,.cls-15,.cls-16,.cls-17,.cls-18,.cls-19,.cls-2,.cls-20,.cls-21,.cls-3,.cls-4,.cls-5,.cls-6,.cls-7,.cls-8,.cls-9{fill-rule:evenodd;}.cls-1{opacity:0.1;}.cls-2{fill:#98c16d;}.cls-3{fill:#709c53;}.cls-4{fill:#446125;}.cls-5{fill:#54af8a;}.cls-6{fill:#72c8a5;}.cls-7{fill:#f4c9b2;}.cls-8{fill:#35785d;}.cls-9{fill:#474747;}.cls-10{fill:#fce3d4;}.cls-11{fill:#4f5253;}.cls-12{fill:#6f7173;}.cls-13{fill:#9fce7e;}.cls-14{fill:#5a753d;}.cls-15{fill:#b7c645;}.cls-16{fill:#e7ef78;}.cls-17{fill:#c1907d;}.cls-18{fill:#ffefe7;}.cls-19{fill:#738c57;}.cls-20{fill:#848585;}</style></defs><title>diplomats_INFP_famous_fictional_arwen_the_lord_of_the_rings</title><polygon class="cls-1" points="98.13 375.43 211.14 359.83 299.87 372.45 190.77 400.5 98.13 375.43"/><polygon class="cls-2" points="126.31 377.65 144.26 248.21 153.94 243.09 168.54 254.95 188.16 345.5 170.96 388.05 126.31 377.65"/><polygon class="cls-3" points="254.76 380.55 170.96 388.05 168.54 254.95 187.51 243.77 238.95 355.39 259.32 365.45 254.76 380.55"/><polygon class="cls-4" points="299.87 372.45 238.95 355.39 254.76 380.55 299.87 372.45"/><polygon class="cls-5" points="143.89 232.35 151.15 216.32 134.39 178.12 119.99 222.2 130.41 235.59 143.89 232.35"/><polygon class="cls-3" points="143.89 232.35 140.09 199.28 145.52 184.39 180.73 201.21 211.84 187.02 231.72 138.05 233.12 186.41 224.01 202.61 220.49 232.84 194.49 235.38 154.37 237.48 143.89 232.35"/><polygon class="cls-6" points="144.3 250.06 143.89 232.35 119.99 222.2 130.22 349.17 145.66 289.39 144.3 250.06"/><polygon class="cls-7" points="196.55 57.65 182.47 131.23 166.06 141.08 175.91 160.87 209.61 133.49 213.31 121.1 208.58 84.74 208.96 70.72 202.24 52.07 196.55 57.65"/><polygon class="cls-8" points="211.79 287.77 192.81 246.59 186.68 246.76 180.26 249.66 199.98 331.77 238.95 355.39 211.79 287.77"/><polygon class="cls-6" points="257.18 227.83 246.39 220.67 232.25 223.22 186.49 234.39 186.68 246.76 238.95 355.39 248.25 292.55 257.18 227.83"/><polygon class="cls-8" points="130.22 349.17 147.05 329.3 153.29 250.6 144.3 250.06 130.22 349.17"/><polygon class="cls-9" points="233.74 145.03 221.27 85.31 219.02 79.89 207.54 80.5 206.31 133.06 220.37 146.57 233.74 145.03"/><polygon class="cls-10" points="153.47 147.51 168.6 138.65 175.29 154.88 200.2 130.01 206.31 133.06 224.49 140.99 226.95 151.26 218.3 175.56 208.16 191.16 199.98 192.61 161.19 194.23 147.34 180.33 153.47 147.51"/><polygon class="cls-9" points="203.16 80.06 198.25 101.26 212.88 101.61 210.96 96.53 212.36 80.5 203.16 80.06"/><polygon class="cls-11" points="207.54 113.7 198.25 101.26 210.96 96.53 218.93 113 213.24 117.55 207.54 113.7"/><polygon class="cls-12" points="200.2 130.01 206.75 112.73 218.93 113 208.38 133.96 204.13 141.12 200.2 130.01"/><polygon class="cls-11" points="201.5 154.61 200.2 130.01 208.38 133.96 214.03 150.58 206.4 157.32 201.5 154.61"/><polygon class="cls-12" points="194.4 172.39 201.5 154.61 214.03 150.58 206.66 168.27 200.8 176.16 194.4 172.39"/><polygon class="cls-11" points="128.81 116.82 133.78 94.08 141.4 115.01 137.72 122.98 128.81 116.82"/><polygon class="cls-12" points="132.91 127.19 128.81 116.82 138.32 112.92 141.4 115.01 146.85 125.2 139.48 130.43 132.91 127.19"/><polygon class="cls-11" points="132.19 139.94 132.91 127.19 146.85 125.2 143.98 139.75 140.06 143.07 132.19 139.94"/><polygon class="cls-12" points="138.03 156.83 132.19 139.94 143.98 139.75 147.61 151.04 142.5 161.03 138.03 156.83"/><polygon class="cls-13" points="153.47 147.51 147.61 151.04 138.31 165.67 134.39 178.12 142.22 190.14 147.05 188.09 147.34 180.33 153.47 147.51"/><polygon class="cls-14" points="142.22 190.14 156.35 207.11 162.87 201.74 161.19 194.23 147.34 180.33 142.22 190.14"/><polygon class="cls-2" points="206.8 206.18 156.35 207.01 161.19 194.23 199.98 192.61 207.23 198.75 206.8 206.18"/><polygon class="cls-14" points="227.74 180.56 206.8 206.18 202.49 199.18 206.73 187.73 218.02 174.36 224.63 174.62 227.74 180.56"/><polygon class="cls-13" points="233.74 145.03 234.48 170.19 227.74 180.56 218.02 174.36 220.97 139.46 233.74 145.03"/><polygon class="cls-15" points="164.24 141.2 160.54 165.92 175.79 176.58 198.45 162.24 197.31 165.1 175.79 179.31 158.03 166.95 161.57 142.76 164.24 141.2"/><polygon class="cls-5" points="233.74 145.03 257.18 227.83 232.34 223.22 224.01 202.61 233.74 145.03"/><polygon class="cls-16" points="175.79 176.58 170.77 184.17 175.79 193.64 180.82 183.66 175.79 176.58"/><polygon class="cls-11" points="206.84 217.41 194.4 172.39 206.66 168.27 206.84 217.41"/><polygon class="cls-11" points="132.7 173.99 138.03 156.83 147.61 151.04 144.13 171.89 135.27 177.65 132.7 173.99"/><polygon class="cls-12" points="137.92 186.73 132.7 173.99 144.13 171.89 147.34 180.33 140.09 190.7 137.92 186.73"/><polygon class="cls-11" points="133.78 221.62 137.92 186.73 147.34 180.33 133.78 221.62"/><polygon class="cls-9" points="124.58 39.19 116.35 62.95 127.05 83.79 127.71 29.25 124.58 39.19"/><polygon class="cls-9" points="228.03 27.71 223.35 59.83 208.96 72.52 201.48 57.94 198.73 40.7 204.79 31.52 228.03 27.71"/><polygon class="cls-12" points="226.5 54.74 228.03 33.3 224.1 29.8 210.96 63.64 203.16 80.06 211.86 86.16 218.52 85.21 226.5 54.74"/><polygon class="cls-10" points="231.09 52.83 210.96 63.64 211.86 86.16 221.27 85.31 231.09 52.83"/><polygon class="cls-17" points="221.64 64.08 211.19 69.18 211.53 77.88 221.64 64.08"/><polygon class="cls-10" points="127.71 29.25 127.05 83.79 133.58 99.89 138.32 112.92 152.02 132.64 182.47 131.23 194.72 112.27 204.79 31.42 127.71 29.25"/><polygon class="cls-7" points="144 74.04 127.9 62.2 136.04 59.08 149.4 66.17 155.55 72.14 159.34 75.36 162.75 71.86 169.09 65.7 187.08 57.65 197.12 62.39 178.85 73.56 163.79 95.15 159.34 97.71 154.89 95.15 144 74.04"/><polygon class="cls-17" points="175.29 154.88 190.6 131.01 160.89 132.23 175.29 154.88"/><polygon class="cls-9" points="166.63 62.77 169.09 65.7 188.31 59.92 197.12 62.39 187.37 55.76 166.63 62.77"/><polygon class="cls-9" points="151.29 63.15 135.28 57.47 127.9 62.2 135.28 60.59 149.4 66.17 151.29 63.15"/><polygon class="cls-18" points="155.55 72.14 154.89 95.15 163.79 95.15 162.75 71.86 155.55 72.14"/><polygon class="cls-17" points="159.43 100.17 154.89 95.15 163.79 95.15 159.43 100.17"/><polygon class="cls-19" points="159.91 115.13 147.41 108.31 174.87 108.5 159.91 115.13"/><polygon class="cls-4" points="147.41 108.31 158.2 105.85 160 107.37 162.18 105.76 174.87 108.5 160.1 111.34 147.41 108.31"/><polygon class="cls-12" points="121.84 21.67 123.64 32.65 149.4 33.32 146.55 26.79 139.83 17.79 121.84 21.67"/><polygon class="cls-11" points="133.77 6.99 121.84 21.67 146.55 26.79 149.4 33.32 205.26 33.13 205.55 28.96 177.33 9.17 133.77 6.99"/><polygon class="cls-12" points="183.77 1.5 133.77 6.99 165.97 16.84 199.96 16.84 216.1 8.2 183.77 1.5"/><polygon class="cls-20" points="205.55 28.96 216.34 20.63 216.1 8.2 165.97 16.84 205.55 28.96"/><polygon class="cls-9" points="228.03 24.59 216.1 8.2 205.55 28.96 220.03 31.33 228.03 24.59"/><polygon class="cls-15" points="228.03 33.3 228.63 24.47 205.55 28.96 200.91 33.13 203.94 38.72 228.03 33.3"/><polygon class="cls-16" points="123.64 32.65 141.44 31.9 146.55 26.79 158.68 33.22 168.52 26.59 172.5 30 205.55 28.96 203.94 38.72 171.36 37.39 159.53 46.76 146.94 37.58 124.58 39.19 123.64 32.65"/><path class="cls-21" d="M144,69.94a4.1,4.1,0,1,1-4.1,4.1,4.1,4.1,0,0,1,4.1-4.1"/><path class="cls-21" d="M178.85,69.94a4.1,4.1,0,1,1-4.11,4.1,4.1,4.1,0,0,1,4.11-4.1"/><polygon class="cls-7" points="167.68 235.37 158.4 231.55 143.89 232.35 144.3 250.06 154.14 252.66 167.68 235.37"/><polygon class="cls-17" points="158.09 227.83 143.89 232.35 167.68 235.37 158.09 227.83"/><polygon class="cls-7" points="187.21 234.22 180.11 232.48 167.68 235.37 162.7 248.08 168.59 257.79 188.36 250.26 187.21 234.22"/><polygon class="cls-10" points="151.71 239.83 153.14 252.4 168.59 257.79 167.68 235.37 151.71 239.83"/><polygon class="cls-17" points="180.21 230.06 167.68 235.37 187.21 234.22 180.21 230.06"/></svg>