<svg id="Layer_1" data-name="Layer 1" xmlns="http://www.w3.org/2000/svg" viewBox="0 0 400 400"><defs><style>.cls-1{fill:#5a753d;}.cls-1,.cls-10,.cls-11,.cls-12,.cls-13,.cls-14,.cls-15,.cls-16,.cls-17,.cls-18,.cls-19,.cls-2,.cls-20,.cls-21,.cls-23,.cls-24,.cls-25,.cls-3,.cls-4,.cls-5,.cls-6,.cls-7,.cls-8,.cls-9{fill-rule:evenodd;}.cls-2{fill:#474748;}.cls-3{fill:#dcdcdb;}.cls-21,.cls-22,.cls-4{fill:#33231b;}.cls-25,.cls-4{opacity:0.15;}.cls-25,.cls-5{fill:#2b2b2b;}.cls-6{fill:#f4cab2;}.cls-7{fill:#c18f7c;}.cls-8{fill:#35785e;}.cls-9{fill:#bfda8e;}.cls-10{fill:#44622d;}.cls-11{fill:#9ecd7e;}.cls-12{fill:#738c57;}.cls-13{fill:#709c52;}.cls-14{fill:#fbe3d4;}.cls-15{fill:#3f8e6f;}.cls-16{fill:#cecdcc;}.cls-17{fill:#c3c3c3;}.cls-18{fill:#fff;}.cls-19{fill:#fff0e8;}.cls-20{fill:#4f5353;}.cls-23{fill:#98c16c;}.cls-24{fill:#54af8a;}</style></defs><title>diplomats_INFP_famous_fictional_amélie_poulain</title><polygon class="cls-1" points="258.35 174.96 249.64 152.98 242.27 160.2 232.02 189.7 231.91 196.11 241.72 214.66 257.92 182.83 258.35 174.96"/><polygon class="cls-2" points="114.86 83.09 147.29 101.13 155.82 106.22 151.34 80.17 146.73 77.21 137.09 74.45 123.5 81.5 114.86 83.09"/><polygon class="cls-3" points="145.17 149.28 142.93 146.43 145.04 130.98 137.54 121.39 147.29 101.13 154.42 101.74 159.81 111.1 161.32 123.77 151.54 131.71 150.12 148.97 145.17 149.28"/><polygon class="cls-4" points="131.63 387.96 186.14 399.61 250.96 390.75 195.7 376.68 131.63 387.96"/><polygon class="cls-5" points="148.75 382.36 148.81 387.31 182.38 387.31 182.44 381.65 180.32 380.4 155.94 380.96 148.75 382.36"/><polygon class="cls-2" points="169.06 366.46 148.75 382.36 182.44 381.65 181.89 366.67 179.47 364.93 170.54 365.12 169.06 366.46"/><polygon class="cls-6" points="168.82 328.53 163.9 340.31 166.66 353.69 174.49 357.4 183.38 353.33 184.38 344.33 178.43 335.96 168.82 328.53"/><polygon class="cls-7" points="184.38 344.33 179.56 340.48 180.66 335.27 185.56 333.75 184.38 344.33"/><polygon class="cls-5" points="169.06 366.46 181.89 366.67 183.38 353.33 166.66 353.69 169.06 366.46"/><polygon class="cls-5" points="225.34 384.23 225.09 389.48 200.4 389.55 200.23 383.98 215.87 380.66 225.34 384.23"/><polygon class="cls-2" points="219.07 367.54 225.34 384.23 200.23 383.98 206.24 367.75 208.16 366.08 216.5 365.94 219.07 367.54"/><polygon class="cls-6" points="216.76 336.6 225.31 337.72 221.95 354.03 213.66 357.73 204.78 353.66 202.34 331.73 212.21 337.37 216.76 336.6"/><polygon class="cls-7" points="225.31 337.72 224.03 343.44 216.76 336.6 220.45 330.27 225.31 337.72"/><polygon class="cls-5" points="219.07 367.54 206.24 367.75 204.78 353.66 221.95 354.03 219.07 367.54"/><polygon class="cls-8" points="159.08 315.11 164.18 322.91 170.94 316.67 179.97 322.47 187.79 314.95 196.41 322.77 204.64 314.81 212.6 321.98 219.36 314.81 228.56 317.25 235.8 268.36 208.82 271.9 205.1 248.82 171.41 248.03 169.55 270.31 153.04 270.16 159.08 315.11"/><polygon class="cls-9" points="171.5 248.03 176.27 251.8 186.25 252.19 189.59 248.46 189.94 181.67 191.8 163.5 175.68 173.63 171.5 248.03"/><polygon class="cls-10" points="163.03 219.21 148.56 268.19 175.88 280.23 176.71 218.65 168.06 216.85 163.03 219.21"/><polygon class="cls-11" points="191.8 163.5 186.76 180.97 186.25 252.19 202.25 252.82 205.1 248.82 205.07 176.89 191.8 163.5"/><polygon class="cls-12" points="163.03 219.21 176.71 218.65 168.99 191.45 156.29 173.18 153.31 186.98 160.16 199.59 163.03 219.21"/><polygon class="cls-12" points="201.22 218.11 211.67 223.88 222.47 219.11 240.86 174.34 239.41 171.08 231.39 170.61 201.22 218.11"/><polygon class="cls-13" points="220.71 164.6 234.25 173.31 240.86 174.34 249.64 152.98 227.16 141.64 228.06 158.31 220.71 164.6"/><polygon class="cls-13" points="157.18 151.66 154 163.06 156.29 173.18 172.17 165.85 169.25 157.23 173.42 146.25 157.18 151.66"/><polygon class="cls-1" points="176.71 218.65 156.29 173.18 169.12 163.6 175.22 168.1 177.74 176.73 176.71 218.65"/><polygon class="cls-12" points="164.67 157.03 177.74 176.73 183.94 159.82 183.25 143.37 183.46 139.46 180.67 137.31 164.67 157.03"/><polygon class="cls-1" points="224.56 164.16 213.69 168.14 202.01 178.49 201.22 218.11 234.25 173.31 224.56 164.16"/><polygon class="cls-12" points="232.52 159.38 202.01 178.49 204.68 161.55 215.54 145.07 222.78 127.15 232.52 159.38"/><polygon class="cls-11" points="177.74 176.73 191.8 163.5 190.07 148.82 183.25 143.37 177.74 176.73"/><polygon class="cls-9" points="202.01 178.49 191.8 163.5 198.98 151.56 215.54 145.07 202.01 178.49"/><polygon class="cls-7" points="174.65 123.27 191.8 163.5 215.54 145.07 219.02 117.59 209.36 120.16 174.65 123.27"/><polygon class="cls-6" points="212.09 102.11 208.78 122.01 215.41 121.48 215.54 145.07 230.02 109.22 212.09 102.11"/><polygon class="cls-7" points="230.02 109.22 213.53 107.02 225.02 101.31 232.9 102.62 230.02 109.22"/><polygon class="cls-14" points="146.73 77.21 154.42 101.74 161.32 123.77 208.78 122.01 223.37 76.11 225.39 61.29 217.79 50.41 177.1 43.12 152.71 51.1 146.73 51.87 146.73 77.21"/><polygon class="cls-6" points="168.46 70.79 158.38 63.29 167.67 60.11 176.31 64.35 178.58 70.93 176.22 89.29 168.46 70.79"/><polygon class="cls-6" points="183.85 70.79 186.84 89.03 195.53 69.26 208.06 62.56 195.92 59.45 185.64 64.02 183.85 70.79"/><polygon class="cls-2" points="148.16 51.1 217.79 50.41 217.35 27.32 186.13 13.14 154.28 29.49 148.16 51.1"/><polygon class="cls-7" points="254.9 270.54 242.74 265.73 238.83 262.15 240.3 260.12 246.01 258.81 259.54 260.86 254.9 270.54"/><polygon class="cls-6" points="263.92 252.11 259.54 260.86 240.3 260.12 238.54 258.38 238.81 256.7 246.52 253.21 263.92 252.11"/><polygon class="cls-15" points="266.87 237.87 258.22 243.24 249.28 248.82 248.99 252.06 252.84 254.22 263.92 252.11 277.52 249.72 272.54 242.62 266.87 237.87"/><polygon class="cls-8" points="276.35 223.35 269.96 231.31 266.77 241.03 277.52 249.72 276.35 223.35"/><polygon class="cls-15" points="241.78 233.06 246.92 240.6 249.28 248.82 243.69 252.62 237.46 253.6 231.31 246.17 229.85 236.1 236 233.63 241.78 233.06"/><polygon class="cls-8" points="241.64 215.8 226.28 227.89 225.29 233.47 228.47 236.28 240.31 234.69 242.76 224.88 241.64 215.8"/><polygon class="cls-16" points="248.66 217.45 240.31 234.69 249.59 231.11 255.11 224.62 256.42 217.45 250.92 217.45 248.66 217.45"/><polygon class="cls-17" points="243.13 194.63 240.31 234.69 250.92 217.45 243.13 194.63"/><polygon class="cls-17" points="264.18 219.64 260.07 225.81 260.67 235.16 266.77 241.03 268.83 222.76 264.18 219.64"/><polygon class="cls-16" points="285.14 207.1 267.36 221.77 266.77 241.03 285.14 207.1"/><polygon class="cls-17" points="253.44 224.48 240.31 234.69 249.28 248.82 256.23 238.61 257.56 224.82 253.44 224.48"/><polygon class="cls-16" points="266.77 241.03 260.07 225.81 257.56 224.82 249.28 248.82 266.77 241.03"/><polygon class="cls-7" points="253.5 219.06 253.44 224.48 260.79 226.82 264.37 222.2 260 218.53 253.5 219.06"/><polygon class="cls-18" points="259.24 220.06 254.87 219.45 255.02 222.31 260.73 224.02 262.78 221.74 259.24 220.06"/><polygon class="cls-14" points="243.13 194.63 250.46 218.19 256.39 214.61 259.9 217.27 264.61 217.5 267.32 222.99 285.14 207.1 278.61 203.17 248.63 194.68 243.13 194.63"/><polygon class="cls-3" points="256.12 213.92 250.46 218.19 253.5 219.06 264.85 222.34 267.32 222.99 265.05 216.97 260.14 216.74 256.12 213.92"/><polygon class="cls-7" points="261 214.68 256.12 213.92 259.87 217.96 265.05 216.97 261 214.68"/><polygon class="cls-19" points="261.04 207.48 256.12 213.92 265.05 216.97 264.81 208.58 261.04 207.48"/><polygon class="cls-16" points="250.16 203.74 261.07 207.49 257.16 201.22 250.16 203.74"/><polygon class="cls-16" points="271.62 205.98 264.81 208.58 275.46 212.32 271.62 205.98"/><path class="cls-5" d="M254.57,211.3a1.66,1.66,0,1,0-1.66-1.66A1.66,1.66,0,0,0,254.57,211.3Z"/><path class="cls-5" d="M269.19,216.17a1.66,1.66,0,1,0-1.66-1.66A1.66,1.66,0,0,0,269.19,216.17Z"/><polygon class="cls-15" points="279.63 147.43 266.67 180.19 264.14 202.61 285.14 207.1 279.63 147.43"/><polygon class="cls-14" points="249.28 248.82 252.84 254.22 238.81 256.7 237.13 255.33 237.46 253.6 242.99 251.45 249.28 248.82"/><polygon class="cls-1" points="143.85 225.23 160.16 199.59 156.29 173.18 157.18 151.66 150.43 161.49 144.2 164.8 138.42 215.71 143.85 225.23"/><polygon class="cls-12" points="134.16 174.35 119.54 216.5 143.85 225.23 146.96 187.32 140.56 184.59 142.05 170.58 134.16 174.35"/><polygon class="cls-3" points="139.63 173.42 137.56 186.21 146.96 187.32 148.23 171.96 145.35 170.01 139.63 173.42"/><polygon class="cls-6" points="124.75 158.17 133.37 143.05 136.6 159.03 134.16 174.35 124.75 158.17"/><polygon class="cls-6" points="146.7 156.98 150.12 148.97 157.18 151.66 151.94 166 147.37 165.25 146.7 156.98"/><polygon class="cls-14" points="133.37 143.05 134.16 174.35 148.23 171.96 150.12 148.97 133.37 143.05"/><polygon class="cls-5" points="144.04 24.73 123.5 81.5 146.73 77.21 157.34 30.91 153.72 24.99 144.04 24.73"/><polygon class="cls-20" points="164.75 4.93 144.04 24.73 157.34 30.91 185.73 18.71 180.25 10.54 164.75 4.93"/><polygon class="cls-5" points="199.86 5.72 164.75 4.93 181.42 20.56 200.28 13.98 199.86 5.72"/><polygon class="cls-20" points="206.5 0.39 181.42 20.56 213.05 28.53 228.54 29.11 240.87 20.75 206.5 0.39"/><polygon class="cls-5" points="223.37 76.11 213.05 28.53 240.87 20.75 266.66 75.67 248.43 79.64 223.37 76.11"/><polygon class="cls-2" points="280.67 75.53 223.37 76.11 213.54 107.02 252.28 98.22 280.67 75.53"/><polygon class="cls-8" points="182.17 229.8 186.38 233.85 190.37 229.94 186.44 225.82 182.17 229.8"/><polygon class="cls-8" points="182.35 205.99 186.55 210.04 190.54 206.12 186.61 202.01 182.35 205.99"/><polygon class="cls-8" points="182.52 182.11 186.72 186.16 190.94 182.84 187.54 178.26 182.52 182.11"/><polygon class="cls-21" points="158.38 63.29 167 58.58 176.23 60.64 176.31 64.35 167.32 60.94 158.38 63.29"/><polygon class="cls-21" points="185.78 60.57 185.64 64.02 195.92 60.37 208.06 62.56 196.59 57.79 185.78 60.57"/><polygon class="cls-7" points="182.32 94.66 176.22 89.29 181.79 87.55 186.84 89.03 182.32 94.66"/><polygon class="cls-19" points="176.22 89.29 176.31 64.35 185.64 64.02 186.84 89.03 176.22 89.29"/><circle class="cls-22" cx="167.24" cy="70.85" r="3.81"/><path class="cls-21" d="M197.65,74.67a3.82,3.82,0,1,0-3.82-3.82A3.82,3.82,0,0,0,197.65,74.67Z"/><polygon class="cls-23" points="178.54 106.14 170.52 99.31 182.19 102.56 194.53 97.85 186.57 105.87 178.54 106.14"/><polygon class="cls-12" points="170.52 99.31 178.54 100.5 182.19 99.51 185.98 100.25 194.53 97.85 182.39 104.23 170.52 99.31"/><polygon class="cls-15" points="155 323.59 159.08 315.11 164.64 319.72 171.08 313.62 179.7 319.59 188.06 311.9 196.21 319.52 204.31 311.24 212.79 319.32 220.09 311.17 228.56 317.25 232.48 323.88 228.73 333.87 220.88 325.64 211.76 333.57 203.18 324.99 196.52 332.3 187.29 326.68 179.46 333.41 171.22 326.8 163.83 334.62 155 323.59"/><polygon class="cls-24" points="155 323.59 164.11 330.33 171.01 323.77 179.63 329.87 186.91 323.02 195.42 329.54 203.18 322.18 211.87 329.8 220.29 322.18 228.18 330.6 232.48 323.88 237 331.53 228.18 342.14 219.36 333.58 211.87 342.27 202.42 332.39 194.89 340.68 185.55 333.75 179.56 340.48 170.68 333.65 163.9 340.31 151.38 331.13 155 323.59"/><polygon class="cls-10" points="203.08 280.73 201.22 218.11 222.47 219.11 242.74 265.73 203.08 280.73"/><path class="cls-4" d="M240.31,234.69l9,14.13-6.56,2.74-2.41-16.87Zm-38.06,18.13.14,4.8L182.23,257l-6.35,23.25.39-28.43,26,1ZM145,131l16.28-7.21-9.78,7.94L145,131Zm2.68,47.18-8.09-4.74,8.6-1.46-.51,6.2Zm35.52-34.79,13.37,16.4-4.81,3.73s-8.55-20.07-8.56-20.13Zm51.18,134.28-31.34,3.07,32.72-12.36Z"/><polygon class="cls-25" points="217.79 50.41 208.96 32.55 181.42 20.56 157.34 30.91 152.71 51.1 160.41 33.13 181.42 20.56 213.05 28.53 217.79 50.41"/><polygon class="cls-24" points="279.63 147.43 264.14 202.61 243.13 194.63 279.63 147.43"/></svg>