<svg xmlns="http://www.w3.org/2000/svg" viewBox="0 0 400 400"><defs><style>.cls-1,.cls-4{fill:#2b2b2b;}.cls-1{fill-opacity:0.1;}.cls-2{fill:#474747;}.cls-3{fill:#6f7173;}.cls-5{fill:#f4c9b2;}.cls-6{fill:#fce3d4;}.cls-7{fill:#ebebea;}.cls-8{fill:#5a753d;}.cls-9{fill:#446125;}.cls-10,.cls-20{fill:#33231b;}.cls-10{fill-opacity:0.15;}.cls-11{fill:#4f5253;}.cls-12{fill:#35785d;}.cls-13{fill:#3f8e6f;}.cls-14{fill:#54af8a;}.cls-15{fill:#848585;}.cls-16{fill:#dcdcdb;}.cls-17{fill:#c3c3c3;}.cls-18{fill:#72c8a5;}.cls-19{fill:#c1907d;}.cls-21{fill:#412b23;}.cls-22{fill:#66483a;}.cls-23{fill:#755445;}.cls-24{fill:#593e35;}.cls-25{fill:#ffefe7;}.cls-26{fill:#709c53;}</style></defs><title>diplomats_INFP_famous_fictional_fox_mulder_x_files</title><g id="Layer_1" data-name="Layer 1"><polygon class="cls-1" points="125.27 384.7 204.68 400.87 277.63 387.98 206.99 379.35 125.27 384.7"/><polygon class="cls-2" points="178.78 378.13 163.21 383.36 163.33 386.77 206.01 387.25 207.83 379.47 179.14 378.13 178.78 378.13"/><path class="cls-2" d="M207.35,384.09c-.61-.12-8.14,5.59-8.14,5.59l.36,4,37.93-.24.13-3.9L207.35,384Z"/><path class="cls-3" d="M267.91,291.43l-5.11,6.81,6.69,39,10.45,1.22s-.6-47.43,0-48-12,1.09-12,1.09Z"/><polygon class="cls-2" points="269.98 282.31 266.2 285.71 262.92 298.24 272.53 298.85 284.08 282.31 269.98 282.31"/><polygon class="cls-4" points="281.4 290.46 276.29 285.84 272.53 298.85 279.94 338.37 287 328.28 284.45 308.94 288.95 303.71 287.61 290.21 281.4 290.46"/><polygon class="cls-5" points="276.91 267.35 265.96 265.77 266.2 285.71 276.29 285.84 276.91 267.35"/><polygon class="cls-5" points="280.92 276.84 276.29 285.84 280.19 303.96 285.3 300.55 287.61 290.21 295.15 277.08 280.92 276.84"/><polygon class="cls-6" points="273.98 258.36 265.96 265.77 276.29 285.84 295.15 277.08 286.51 259.81 279.09 258.96 277.88 259.69 273.98 258.36"/><polygon class="cls-7" points="267.91 246.32 263.28 259.2 265.96 265.77 286.51 259.81 284.56 250.94 267.91 246.32"/><polygon class="cls-8" points="252.58 200.96 249.3 231.97 263.28 259.2 284.56 250.94 270.33 203.39 252.58 200.96"/><polygon class="cls-9" points="234.83 177.73 253.8 171.41 270.33 203.39 249.3 231.97 239.57 217.38 234.83 177.73"/><path class="cls-9" d="M137.79,225.52l16.66,8.88,17.88-30.52s-33.56-19.7-33.56-17.88-12,27.73-12,25.9S137.79,225.52,137.79,225.52Z"/><polygon class="cls-8" points="114.45 213.36 113.23 219.69 133.54 250.57 154.45 234.4 129.89 205.1 114.45 213.36"/><path class="cls-7" d="M110,201.57c-.49-.12-2.55,8.51-2.55,8.51l5.83,9.73L126.86,208Z"/><polygon class="cls-10" points="134.27 202.78 134.14 210.2 113.48 220.05 107.27 210.08 134.27 202.78"/><polygon class="cls-4" points="159.93 176.27 159.69 176.03 159.69 191.11 113.11 183.57 107.27 210.08 162.6 210.32 159.93 176.27"/><polygon class="cls-7" points="117.13 197.92 121.38 197.8 130.14 197.55 129.89 206.92 116.28 206.68 117.13 197.92"/><polygon class="cls-11" points="159.69 176.03 154.7 170.31 107.39 170.07 107.27 183.33 112.38 190.14 112.14 191.11 159.69 191.11 159.69 176.03"/><polygon class="cls-7" points="111.65 185.52 115.42 177.37 115.3 173.72 148.13 173.84 148.37 188.68 114.2 189.04 111.65 185.52"/><path class="cls-9" d="M191.91,348,186.56,364l-23.35,19.21h47.55s4-24.81,4.49-25.54S191.91,348,191.91,348Z"/><polygon class="cls-8" points="213.43 355.88 208.69 365.36 199.21 389.69 237.63 389.69 234.47 365.61 213.43 355.88"/><polygon class="cls-12" points="182.67 320.25 174.64 327.91 186.56 364.02 208.69 365.36 212.22 319.15 182.67 320.25"/><polygon class="cls-12" points="232.04 341.41 237.75 338.37 241.28 314.54 220.97 321.47 222.43 342.01 232.04 341.41"/><polygon class="cls-13" points="209.91 301.89 203.46 328.64 208.69 365.36 234.47 365.61 237.75 338.37 225.23 329 233.73 309.55 209.91 301.89"/><polygon class="cls-13" points="208.08 306.75 203.46 328.64 174.64 327.91 164.43 274.04 198.35 289 208.08 306.75"/><polygon class="cls-14" points="204.8 287.9 199.32 299.94 203.46 328.64 225.23 329 235.69 298 228.39 274.65 204.8 287.9"/><path class="cls-12" d="M164.43,274l34.89,25.9,40.14-28.69s-9.86-26.88-10.83-26.76-57.27,16.42-57.27,16.42L164.55,274Z"/><path class="cls-4" d="M167.46,273.8l21.28-.25V265l10.58-.61,3.53,9,25.78-.24-1.34-16.42-59.95,1.34S167.59,273.8,167.46,273.8Z"/><polygon class="cls-15" points="188.74 273.68 202.73 273.43 207.83 257.26 184 256.41 188.74 273.68"/><polygon class="cls-9" points="235.93 234.76 222.55 247.41 225.23 329 254.41 328.28 249.42 261.39 235.93 234.76"/><polygon class="cls-9" points="160.41 237.08 153.6 263.46 150.8 327.67 174.64 327.91 174.03 247.53 160.41 237.08"/><path class="cls-13" d="M165.77,233.18l8.51,32.71,20.55.13,14-61.29s-38.3-7.3-40.13-6.81-2.91,35.39-2.91,35.39Z"/><path class="cls-12" d="M205.28,207.16c.86.61-11.43,15.08-11.43,15.08L194.7,266l28.46-.25L234,215.92s-3-28.58-2.19-28.46S205.28,207,205.28,207Z"/><polygon class="cls-16" points="165.52 175.66 193.85 222.12 231.67 178.1 226.93 156.82 189.23 151.59 170.51 160.34 165.52 175.66"/><polygon class="cls-17" points="169.17 164.6 184.25 177.37 193.73 170.44 201.27 172.62 209.17 178.95 226.68 162.05 226.93 156.82 177.32 159.25 170.51 160.34 169.17 164.6"/><polygon class="cls-8" points="193.13 172.38 191.54 179.68 183.4 205.1 193.85 222.12 210.14 202.9 200.66 179.68 193.13 172.38"/><polygon class="cls-18" points="193.85 222.12 170.51 160.34 161.02 181.02 168.32 203.03 193.85 222.12"/><polygon class="cls-18" points="234.83 177.73 226.93 156.82 193.85 222.12 231.3 193.9 234.83 177.73"/><polygon class="cls-9" points="183.64 162.78 191.54 179.68 200.66 179.68 209.78 160.59 191.67 153.29 183.64 162.78"/><polygon class="cls-5" points="228.27 98.21 232.88 117.05 224.98 150.5 220 163.51 196.65 162.41 192.15 150.5 203.7 43.61 229.6 43 228.27 98.21"/><polygon class="cls-19" points="170.39 140.16 173.79 156.94 185.59 169.1 196.65 162.41 216.84 143.56 204.8 143.56 195.68 139.43 170.39 140.16"/><polygon class="cls-19" points="227.9 104.89 223.89 108.05 232.88 117.05 234.59 109.64 227.9 104.89"/><polygon class="cls-20" points="233.38 28.04 252.7 44.82 244.8 71.09 233.86 72.79 222.31 69.87 215.13 51.75 233.38 28.04"/><polygon class="cls-20" points="244.8 71.09 241.03 82.52 233.25 90.3 221.58 88.48 222.31 69.87 244.8 71.09"/><polygon class="cls-21" points="221.34 18.07 240.79 19.77 252.7 44.82 222.31 69.87 215.13 51.75 206.01 21.11 221.34 18.07"/><polygon class="cls-20" points="200.9 13.94 212.94 8.47 240.79 19.77 219.51 32.18 202.97 31.45 183.52 18.56 195.07 11.14 200.9 13.94"/><polygon class="cls-22" points="150.44 9.31 159.32 1.29 191.18 0.68 200.9 13.94 195.56 16.25 189.36 19.16 158.47 22.81 150.44 9.31"/><polygon class="cls-23" points="142.9 24.4 118.95 22.93 159.32 1.29 157.38 15.52 142.9 24.4"/><polygon class="cls-24" points="157.5 35.95 153.6 25.12 157.38 15.52 189.36 19.16 195.92 26.22 196.04 36.92 192.39 39.59 157.5 35.95"/><polygon class="cls-20" points="219.51 32.18 189.36 19.16 192.88 34.37 190.69 40.33 215.13 51.75 219.51 32.18"/><polygon class="cls-20" points="124.9 31.33 118.95 22.93 157.38 15.52 161.75 29.14 170.99 41.17 150.2 46.65 124.9 31.33"/><polygon class="cls-21" points="157.13 52 128.8 62.82 115.79 55.77 118.95 22.93 140.23 35.1 157.13 52"/><polygon class="cls-20" points="150.57 57.59 129.89 75.1 115.79 55.77 128.07 53.34 150.57 57.59"/><polygon class="cls-6" points="128.07 53.34 134.03 126.42 153.6 144.9 204.8 143.56 212.82 114.14 215.13 51.75 193 34.49 161.75 29.14 142.3 37.04 128.07 53.34"/><polygon class="cls-19" points="161.75 29.14 140.23 35.1 128.07 53.34 161.75 29.14"/><polygon class="cls-5" points="145.7 70.48 156.88 77.29 161.27 84.22 164.31 88.72 167.46 84.22 174.88 77.66 180.12 73.16 192.15 71.09 203.7 75.71 188.26 85.07 170.87 108.91 164.55 102.1 156.64 103.92 148.26 85.93 132.57 74.62 145.7 70.48"/><polygon class="cls-19" points="162.24 104.77 155.91 108.66 162.97 113.89 170.87 108.91 162.24 104.77"/><polygon class="cls-24" points="174.52 72.43 191.42 69.14 203.7 75.71 191.18 73.52 174.88 77.66 174.52 72.43"/><polygon class="cls-24" points="157.5 72.79 143.75 68.66 132.57 74.62 143.75 72.31 156.88 77.29 157.5 72.79"/><polygon class="cls-25" points="161.27 84.22 157.86 96.99 155.91 108.66 170.87 108.91 167.46 96.99 167.46 84.22 161.27 84.22"/><polygon class="cls-19" points="153.36 124.47 177.19 123.99 178.29 127.02 152.88 127.51 153.36 124.47"/><polygon class="cls-6" points="227.05 81.91 241.03 82.52 234.59 109.64 223.89 108.05 227.05 81.91"/><polygon class="cls-19" points="229.24 98.21 230.94 88.48 236.78 89.08 229.24 98.21"/><polygon class="cls-7" points="225.59 147.09 196.65 162.41 209.42 173.23 226.93 156.82 225.59 147.09"/><polygon class="cls-7" points="196.65 162.41 184.86 172.38 170.51 160.34 172.57 152.44 196.65 162.41"/><polygon class="cls-8" points="174.16 265.89 174.16 247.53 168.93 201.93 170.51 160.34 154.7 170.31 153.6 263.46 174.16 265.89"/><polygon class="cls-8" points="223.16 265.77 222.55 247.41 228.39 198.28 228.27 195.61 226.93 156.82 253.8 171.41 249.3 231.97 249.42 261.39 223.16 265.77"/><polygon class="cls-18" points="189.72 231.73 193.85 225.65 197.75 231.48 193.98 237.32 189.72 231.73"/><polygon class="cls-6" points="107.27 183.33 115.42 177.37 121.38 197.8 107.27 210.08 107.27 183.33"/><path class="cls-11" d="M120.53,176.15l.37,10.22,3-.13-.12-3.76,4-.13.12-2.18-4.26.24-.12-1.7,5.11.12.12-2.8-8.27.24h0Zm9.36,10.7h0l-.6-11.06,7.65.73-1.58,3.65,3.17,2.67-8.64,3.89h0Zm1.94-9.12h0l.13,1.46,2.18-1.33-2.31-.13Zm.49,4.38h0l.25,1.82,2.43-1.21-2.68-.61Zm6.45-5.84h0v10.1l3,.36.49-10.46-3.41.13Z"/><polygon class="cls-11" points="139.38 196.1 136.09 199.86 143.75 207.77 151.78 199.38 147.77 195.85 139.38 196.1"/><polygon class="cls-26" points="161.27 193.3 174.16 247.53 170.51 160.34 161.27 193.3"/><polygon class="cls-26" points="237.02 195.97 222.55 247.41 226.93 156.82 237.02 195.97"/><path class="cls-4" d="M150.32,81.06a4,4,0,1,1-4,4A4,4,0,0,1,150.32,81.06Z"/><path class="cls-4" d="M188.26,81.06a4,4,0,1,1-4,4A4,4,0,0,1,188.26,81.06Z"/><polygon class="cls-18" points="190.33 248.38 194.22 242.43 198.35 248.14 194.47 253.85 190.33 248.38"/></g></svg>