<svg id="Layer_1" data-name="Layer 1" xmlns="http://www.w3.org/2000/svg" viewBox="0 0 400 400"><defs><style>.cls-1,.cls-20{fill:#2b2b2b;}.cls-1{fill-opacity:0.1;}.cls-2{fill:#fce3d4;}.cls-3{fill:#c1907d;}.cls-4{fill:#beda8d;}.cls-5{fill:#54af8a;}.cls-6{fill:#35785d;}.cls-7{fill:#446125;}.cls-8{fill:#738c57;}.cls-9{fill:#5a753d;}.cls-10{fill:#98c16d;}.cls-11{fill:#b7c645;}.cls-12{fill:#f4c9b2;}.cls-13{fill:#e2d086;}.cls-14{fill:#c1b274;}.cls-15{fill:#a09160;}.cls-16{fill:#72c8a5;}.cls-17{fill:#3f8e6f;}.cls-18{fill:#e7ef78;}.cls-19{fill:#ffefe7;}</style></defs><title>diplomats_INFP_famous_fictional_anne_green_gables</title><polygon class="cls-1" points="136.68 386.78 209.68 379.09 279.56 385.94 207.39 398.33 136.68 386.78"/><polygon class="cls-2" points="198.62 349.74 196.57 371.87 184.31 377.64 181.9 366.22 178.53 345.89 179.85 343.85 197.17 346.49 198.62 349.74"/><polygon class="cls-3" points="199.82 338.44 198.62 349.74 178.53 345.89 177.09 337.83 199.82 338.44"/><polygon class="cls-4" points="197.77 359.36 196.57 371.87 181.9 366.22 180.69 359.36 197.77 359.36"/><polygon class="cls-5" points="164.22 381.85 181.9 366.22 196.57 371.87 197.77 381.85 194.41 384.5 169.03 384.26 164.22 381.85"/><polygon class="cls-6" points="197.77 381.85 197.77 386.3 163.86 386.3 164.22 381.85 197.77 381.85"/><polygon class="cls-2" points="215.21 347.69 214.25 350.1 218.7 373.67 228.56 376.68 233.37 368.62 234.33 346.73 232.53 344.93 215.21 347.69"/><polygon class="cls-3" points="211.85 337.47 214.25 350.1 234.33 346.73 234.57 336.27 211.85 337.47"/><polygon class="cls-4" points="216.3 360.2 218.7 373.67 233.37 374.03 233.73 360.2 216.3 360.2"/><polygon class="cls-5" points="236.02 385.34 233.37 374.03 218.34 371.27 208.36 384.86 210.16 388.95 232.05 388.35 236.02 385.34"/><polygon class="cls-6" points="208.36 384.86 208.36 390.75 236.26 390.75 236.02 385.34 208.36 384.86"/><polygon class="cls-7" points="169.27 326.41 168.07 342.52 248.65 344.09 247.2 324.96 169.27 326.41"/><polygon class="cls-8" points="161.81 314.38 160.37 334.22 257.9 334.22 252.25 283.6 161.81 314.38"/><polygon class="cls-9" points="161.81 314.38 161.21 322.8 240.83 321.36 246.84 309.09 190.56 304.88 190.56 304.88 161.81 314.38"/><polygon class="cls-10" points="181.54 230.56 176.25 197.61 210.28 194.96 241.79 197.36 230.97 226.71 181.54 230.56"/><polygon class="cls-11" points="245.04 269.76 268.37 245.23 250.81 233.93 238.78 235.37 239.02 247.4 245.04 269.76"/><polygon class="cls-2" points="137.64 71.21 140.65 102 149.67 118.35 151.71 150.46 167.47 177.64 216.06 174.03 221.1 147.7 223.63 80.95 185.15 55.81 137.64 71.21"/><polygon class="cls-12" points="151.35 119.43 167.11 127.49 178.53 142.53 184.54 144.21 190.2 142.16 203.54 125.08 218.7 117.39 206.92 112.7 194.89 111.38 187.19 120.03 183.82 123.4 180.46 120.76 175.16 112.7 159.77 113.42 151.35 119.43"/><polygon class="cls-13" points="173.84 98.63 149.31 111.02 148.35 95.62 159.77 79.87 184.78 72.53 173.84 98.63"/><polygon class="cls-14" points="147.74 70.25 141.37 89.25 148.71 100.67 184.78 72.53 147.74 70.25"/><polygon class="cls-11" points="154 267.96 150.39 238.62 163.86 230.32 172.28 237.53 168.67 257.26 154 267.96"/><polygon class="cls-13" points="189.84 97.31 184.78 72.53 211.24 80.59 223.03 96.58 222.67 106.33 189.84 97.31"/><polygon class="cls-14" points="230.01 68.56 233.01 80.95 223.03 96.58 184.78 72.53 230.01 68.56"/><polygon class="cls-9" points="176.25 197.61 169.87 225.15 172.28 237.53 184.91 237.53 187.91 205.42 186.35 191.71 176.25 197.61"/><polygon class="cls-9" points="233.73 185.1 229.28 209.03 224.11 235.37 238.78 235.37 239.39 215.28 241.79 193.75 233.73 185.1"/><polygon class="cls-7" points="164.1 36.93 166.99 61.71 184.78 72.53 214.97 55.45 216.54 36.69 164.1 36.93"/><polygon class="cls-8" points="120.44 65.8 164.1 36.93 184.78 72.53 147.98 88.89 130.91 80.95 120.44 65.8"/><polygon class="cls-12" points="233.73 185.1 243.12 149.14 237.94 140.6 243.71 127.01 222.67 106.33 218.46 151.66 207.64 175.72 205.59 200.97 223.75 199.17 233.73 185.1"/><polygon class="cls-7" points="123.21 106.33 120.44 65.8 147.98 88.89 141.01 98.99 123.21 106.33"/><polygon class="cls-8" points="149.67 118.35 123.21 106.33 147.98 88.89 149.67 118.35"/><polygon class="cls-8" points="223.63 83.23 184.78 72.53 216.54 36.45 271.14 71.57 253.7 89.61 223.63 83.23"/><polygon class="cls-7" points="246.12 126.77 230.37 109.69 223.63 83.23 271.14 71.57 265.48 117.39 250.81 124.36 249.49 128.94 246.12 126.77"/><polygon class="cls-15" points="230.72 141.44 222.67 106.33 223.63 83.23 246.12 126.77 230.72 141.44"/><polygon class="cls-8" points="174.08 218.65 239.39 215.28 247.44 229.72 238.78 235.37 239.02 247.4 170.23 247.63 172.28 237.53 174.08 218.65"/><polygon class="cls-16" points="146.9 288.64 157.37 259.06 180.09 250.04 218.1 249.2 230.13 254.85 236.98 258.46 239.99 266.88 233.13 286.6 189.11 299.47 146.9 288.64"/><polygon class="cls-6" points="157.37 259.06 161.21 247.4 184.31 244.39 217.85 242.82 239.02 244.03 239.39 254.25 236.98 258.46 230.13 254.85 224.72 250.04 218.1 253.29 178.29 255.45 169.87 253.29 166.26 257.26 157.37 259.06"/><polygon class="cls-5" points="161.81 314.38 146.9 288.64 233.13 286.6 239.63 296.22 236.98 311.5 161.81 314.38"/><polygon class="cls-17" points="246.84 309.09 236.98 311.5 233.13 286.6 242.63 279.99 252.25 283.6 246.84 309.09"/><polygon class="cls-5" points="239.02 244.03 252.25 283.6 243.83 284.8 233.13 286.6 239.02 244.03"/><polygon class="cls-3" points="205.59 200.97 192.84 197.72 196.57 185.7 190.8 175.84 230.85 172.95 217.02 194.48 205.59 200.97"/><polygon class="cls-18" points="186.35 191.71 196.57 185.7 205.59 200.97 187.91 205.42 186.35 191.71"/><polygon class="cls-18" points="229.28 209.03 205.59 200.97 233.73 185.1 229.28 209.03"/><polygon class="cls-18" points="176.25 197.61 149.79 238.62 172.28 237.53 173.24 228.75 176.25 197.61"/><polygon class="cls-2" points="161.21 247.4 164.82 237.77 179.74 237.53 181.54 244.63 172.88 251 161.21 247.4"/><polygon class="cls-12" points="166.26 257.26 161.21 247.4 174.08 245.59 181.54 244.63 178.29 255.45 166.26 257.26"/><polygon class="cls-2" points="217.85 242.82 222.55 235.13 238.78 235.37 239.02 244.03 224.11 247.4 217.85 242.82"/><polygon class="cls-12" points="218.1 253.29 217.85 242.82 239.02 244.03 230.13 254.85 218.1 253.29"/><polygon class="cls-14" points="147.02 117.03 136.92 134.83 140.65 140.84 137.64 150.22 141.61 157.2 137.64 166.94 143.05 184.62 147.38 184.62 152.68 165.61 149.67 118.35 147.02 117.03"/><path class="cls-15" d="M136.92,134.83l4,6.37,10.22,1-.48-7.93-13.35.6Zm.72,15.39,4,7,10.46,1-.48-7.7-13.71-.6-.36.36Zm0,17.08,5.41,17.8,2,2.05,2.28-2.05,5.41-19.37-15,1.69Z"/><polygon class="cls-14" points="258.15 137.47 254.42 146.49 259.83 152.51 256.11 161.89 260.19 167.9 255.14 173.68 258.51 179.69 251.41 194.72 247.08 194.72 243.71 179.93 246.12 173.91 243.12 169.22 245.4 163.93 240.83 158.04 239.39 149.14 240.1 141.44 246.12 126.77 250.81 124.36 258.15 137.47"/><path class="cls-15" d="M258.15,137.47l-3.73,9-11.67,3-3-7.7Zm-2,24.42-10.71,2L240.71,158l19-5.53L256,161.89Zm4,6-5,5.65-9.14.6L243,169.1l17.08-1.32Zm-1.68,11.66-7,15-2,2-2.29-2-3.37-14.67Z"/><polygon class="cls-6" points="252.5 200.01 253.46 196.4 251.41 194.72 247.08 194.72 245.4 197 246.48 200.37 249.13 201.45 252.5 200.01"/><polygon class="cls-5" points="262.12 189.31 251.41 194.72 252.5 200.01 262.48 201.09 262.12 189.31"/><polygon class="cls-18" points="268.37 245.23 246.48 200.37 239.63 191.47 239.02 221.9 238.78 235.37 250.21 239.22 268.37 245.23"/><polygon class="cls-5" points="247.08 194.72 238.43 190.15 239.51 202.41 246.48 200.37 247.08 194.72"/><polygon class="cls-6" points="239.27 214.8 246.48 200.37 252.5 200.01 246 220.22 239.27 214.8"/><polygon class="cls-5" points="252.5 200.01 266.81 224.66 261.15 230.32 249.97 207.71 246.48 200.37 252.5 200.01"/><polygon class="cls-5" points="142.69 187.98 141.01 186.3 143.05 184.62 147.38 184.62 150.03 187.02 147.02 189.06 145.34 192.07 142.69 187.98"/><polygon class="cls-6" points="131.99 179.33 143.05 184.62 142.69 187.98 131.99 190.99 131.99 179.33"/><polygon class="cls-6" points="147.38 184.62 158.45 180.29 158.69 194 147.02 189.06 147.38 184.62"/><polygon class="cls-5" points="142.69 187.98 131.63 219.49 139.32 223.46 147.02 189.06 142.69 187.98"/><polygon class="cls-6" points="157 209.15 147.02 189.06 142.69 187.98 150.03 216.49 157 209.15"/><polygon class="cls-14" points="151.35 119.43 175.16 112.7 159.41 110.65 151.35 119.43"/><polygon class="cls-14" points="194.89 111.38 209.92 108.01 218.7 117.39 194.89 111.38"/><polygon class="cls-19" points="180.46 120.76 178.53 142.53 190.2 142.16 187.19 120.03 180.46 120.76"/><polygon class="cls-3" points="185.15 146.49 178.53 142.53 190.2 142.16 185.15 146.49"/><polygon class="cls-7" points="173.12 158.52 185.51 152.87 198.85 157.56 184.78 159.84 173.12 158.52"/><polygon class="cls-8" points="185.51 162.97 173.12 158.52 198.85 157.56 185.51 162.97"/><polygon class="cls-3" points="230.37 148.54 240.83 158.04 243.12 149.14 230.37 148.54"/><polygon class="cls-2" points="231.69 124.12 230.37 148.54 243.12 149.14 246.12 126.77 231.69 124.12"/><polygon class="cls-3" points="234.09 137.84 234.33 128.46 241.79 129.06 234.09 137.84"/><path class="cls-20" d="M168.67,123.76a3.73,3.73,0,1,1-3.73,3.73A3.73,3.73,0,0,1,168.67,123.76Z"/><path class="cls-20" d="M202.1,121.36a3.73,3.73,0,1,1-3.72,3.72A3.73,3.73,0,0,1,202.1,121.36Z"/></svg>