<svg id="Layer_1" data-name="Layer 1" xmlns="http://www.w3.org/2000/svg" viewBox="0 0 400 400"><defs><style>.cls-1,.cls-14{fill:#eed2c1;}.cls-1,.cls-17,.cls-2,.cls-22,.cls-23,.cls-3,.cls-4,.cls-5,.cls-7{fill-rule:evenodd;}.cls-2,.cls-9{fill:#d0ae95;}.cls-18,.cls-3{fill:#709c52;}.cls-4,.cls-8{fill:#738c57;}.cls-10,.cls-5{fill:#5a753d;}.cls-6{opacity:0.1;}.cls-7{fill:#2b2b2b;}.cls-11,.cls-22{fill:#a8836c;}.cls-12{fill:#805e4f;}.cls-13{fill:#44622d;}.cls-15{fill:#98796a;}.cls-16{fill:#593e35;}.cls-17{fill:#f6e5db;}.cls-19{fill:#54af8a;}.cls-20{fill:#3f8e6f;}.cls-21{fill:#74c7a5;}.cls-23{fill:#fff0e8;}</style></defs><title>diplomats_INFP_famous_real_julia_roberts</title><polygon class="cls-1" points="104.75 135.9 114.58 128.22 130.77 141.38 122.09 152.35 112.65 150.61 104.75 135.9"/><polygon class="cls-2" points="116.12 173.09 112.65 150.61 130.77 141.38 130.48 150.98 124.23 169.96 123.06 174.19 116.12 173.09"/><polygon class="cls-1" points="136.64 142.66 123.34 159.66 124.23 169.95 129.41 170.21 131.35 167.2 139.53 144.31 136.64 142.66"/><polygon class="cls-3" points="116.12 173.09 131.35 167.2 137.62 176.81 130 183.94 121 183.57 116.12 173.09"/><polygon class="cls-4" points="152.74 198.77 137.62 176.81 121 183.57 140.51 223.62 150.22 219.36 156.21 208.88 152.74 198.77"/><polygon class="cls-5" points="140.51 223.62 152.74 198.77 163.07 192.57 187.44 199.93 181.09 216.96 140.51 223.62"/><g class="cls-6"><polygon class="cls-7" points="292.1 386.18 223.17 399.52 151.6 387.35 182.35 380.93 229.3 371.48 240.69 373.82 292.1 386.18"/></g><polygon class="cls-8" points="175.33 192.42 170.17 219 184.65 254.02 235.83 247.96 240.54 221.78 237.56 205.18 198.76 205.2 195.09 179.1 175.33 192.42"/><polygon class="cls-9" points="195.09 179.1 221.85 168.75 241.3 87.68 214.22 53.24 206.7 74.02 181.74 147.76 208.92 154.23 195.09 179.1"/><polygon class="cls-10" points="175.33 192.42 170.17 219 193.92 226.58 194.5 202.71 175.33 192.42"/><polygon class="cls-11" points="214.98 147.76 195.09 179.1 181.74 147.76 214.98 147.76"/><polygon class="cls-12" points="143.68 116.17 120.67 61.42 139.53 22.36 191.77 0.48 249.38 22.02 280.94 83.31 264.78 138.44 276.9 166.17 262.76 192.82 218.19 214.68 230.1 185.67 221.85 168.75 225.5 138.44 245 106 241.3 87.68 209.32 66.78 177.91 38.23 146.09 47.78 139.53 66.47 143.68 116.17"/><polygon class="cls-13" points="193.92 226.58 221.85 168.75 230.1 185.67 224 211.83 193.92 226.58"/><polygon class="cls-12" points="151.12 142.23 141.55 166.17 165.87 196.12 194.5 202.71 185.32 186.51 195.09 179.1 181.74 147.76 163.56 146.03 151.12 142.23"/><polygon class="cls-14" points="146.09 47.78 139.53 66.47 143.68 116.17 160.79 147.76 187.14 147.76 204.2 126.33 214.23 71 177.91 38.23 146.09 47.78"/><polygon class="cls-15" points="139.53 22.36 146.09 47.78 177.91 38.23 191.77 0.48 139.53 22.36"/><polygon class="cls-11" points="225.5 104.44 234.69 115.23 236.84 106.53 225.5 104.44"/><polygon class="cls-12" points="226.98 81.96 209.32 66.78 189 43.08 280.94 83.31 242.13 84.74 226.98 81.96"/><polygon class="cls-16" points="280.94 83.31 225.5 138.44 264.78 138.44 280.94 83.31"/><polygon class="cls-15" points="225.5 138.44 276.9 166.17 264.78 138.44 225.5 138.44"/><polygon class="cls-15" points="221.85 168.75 276.9 166.17 230.1 185.67 221.85 168.75"/><polygon class="cls-2" points="143.64 77.63 163.79 101.1 165.28 97.86 165.45 83.63 163.22 76.56 161.98 75.16 150.01 72.97 143.64 77.63"/><polygon class="cls-2" points="176.66 75.13 188.05 74 199.63 77.2 173.7 106 169.95 97.86 170.01 85.5 174.7 76.56 176.66 75.13"/><polygon class="cls-17" points="165.28 97.86 165.45 83.63 163.22 76.56 174.7 76.56 170.01 85.5 169.95 97.86 173.7 106 161.53 106 165.28 97.86"/><path class="cls-7" d="M187.55,83.74a3.91,3.91,0,1,1-3.91-3.91A3.91,3.91,0,0,1,187.55,83.74Z"/><path class="cls-7" d="M159.66,83.74a3.91,3.91,0,1,1-3.91-3.91A3.91,3.91,0,0,1,159.66,83.74Z"/><polygon class="cls-2" points="195.09 179.1 193.92 226.58 221.85 168.75 195.09 179.1"/><polygon class="cls-15" points="141.55 166.17 160.79 147.76 151.82 131.21 141.55 166.17"/><polygon class="cls-18" points="170.17 219 193.92 226.58 184.65 254.02 170.17 219"/><polygon class="cls-10" points="194.5 202.71 195.09 179.1 185.32 186.51 194.5 202.71"/><polygon class="cls-10" points="262.76 192.82 237.51 205.2 258.72 233.48 278.93 226.58 262.76 192.82"/><polygon class="cls-8" points="274.25 252.67 278.93 226.58 258.72 233.48 258.72 254.02 274.25 252.67 274.25 252.67"/><polygon class="cls-18" points="274.38 251.93 258.72 254.02 258.72 262.77 272.86 260.41 274.38 251.93"/><polygon class="cls-19" points="247.27 272.54 292.39 267.15 295.25 297.29 251.15 307.89 242.16 299.8 247.27 272.54"/><polygon class="cls-18" points="235.83 247.96 247.27 272.54 237.56 324.39 184.98 324.39 172.52 282.87 184.65 254.02 235.83 247.96"/><polygon class="cls-9" points="258.72 262.77 255.75 271.52 262.2 270.75 258.72 262.77"/><polygon class="cls-20" points="247.27 272.54 240.54 276.56 242.16 299.8 251.15 307.89 247.27 272.54"/><polygon class="cls-21" points="253.04 279.99 280.94 276.91 292.39 267.15 247.27 272.54 253.04 279.99"/><polygon class="cls-14" points="258.72 262.77 265.63 278.6 280.94 276.91 272.86 260.41 258.72 262.77"/><polygon class="cls-9" points="280.94 276.91 277.58 287.52 264.95 292.06 265.63 278.6 280.94 276.91"/><polygon class="cls-10" points="235.83 247.96 247.27 218.22 237.51 205.2 235.83 247.96"/><polygon class="cls-19" points="202.98 267.91 242.24 261.73 235.83 247.96 202.97 251.85 202.98 251.85 202.98 267.91"/><polygon class="cls-21" points="192.81 269.51 202.98 267.91 202.98 251.85 202.97 251.85 184.65 254.02 192.81 269.51"/><polygon class="cls-8" points="192.81 269.51 240.54 276.56 247.27 272.54 242.24 261.73 192.81 269.51"/><polygon class="cls-10" points="192.81 269.51 237.56 324.39 184.98 324.39 172.52 282.87 174.32 278.6 192.81 269.51"/><polygon class="cls-9" points="184.98 324.39 198.79 368.83 186.33 383.31 198.79 381.29 209.9 368.25 210.99 324.39 184.98 324.39"/><polygon class="cls-11" points="184.98 324.39 210.57 341.23 206.2 324.39 184.98 324.39"/><polygon class="cls-19" points="186.33 383.31 179.18 392.06 195.34 392.06 206.7 378.85 212.26 392.06 216.55 392.06 209.9 368.25 197.99 381.42 186.33 383.31"/><polygon class="cls-14" points="206.2 324.39 205.04 329.78 248.37 359.41 247.27 380.15 255.75 370.52 255.75 350.32 237.56 324.39 206.2 324.39"/><polygon class="cls-19" points="247.27 380.15 247.27 390.72 259.53 380.15 262.2 359.66 272.95 370.52 275.64 365.97 255.75 350.32 255.75 370.52 247.27 380.15"/><polygon class="cls-11" points="205.04 329.78 210.57 341.23 210.76 333.69 205.04 329.78"/><polygon class="cls-22" points="194.16 216.56 197.69 210.08 198.76 216.56 193.92 226.58 194.16 216.56"/><polygon class="cls-15" points="177.91 38.23 249.38 22.02 280.94 83.31 177.91 38.23"/><polygon class="cls-16" points="176.66 75.13 188.05 74 199.63 77.2 200.24 76.13 188.32 71 177.37 72.42 176.66 75.13"/><polygon class="cls-16" points="161.98 75.16 151.01 74.31 143.64 77.63 143.32 77.06 150.07 71.44 161.39 72.49 161.98 75.16"/><polygon class="cls-16" points="146.09 47.78 130.38 66.78 143.68 116.17 139.53 66.47 146.09 47.78"/><polygon class="cls-16" points="214.23 71 225.66 101.9 226.98 81.96 214.23 71"/><polygon class="cls-16" points="141.55 166.17 195.09 179.1 181.74 147.76 141.55 166.17"/><polygon class="cls-15" points="185.32 186.51 141.55 166.17 195.09 179.1 185.32 186.51"/><polygon class="cls-14" points="242.13 84.74 226.98 81.96 225.5 104.44 236.78 106.53 242.13 84.74"/><polygon class="cls-11" points="238.61 86.82 229.01 85.17 228.24 97.42 238.61 86.82"/><polygon class="cls-15" points="280.94 83.31 242.13 84.74 225.5 138.44 280.94 83.31"/><polygon class="cls-23" points="156.39 118.19 169.95 117.78 186.39 117.98 187.14 120.19 180.51 127.25 160.14 126.69 156.39 118.19"/><polygon class="cls-5" points="150.39 116.17 151.84 117.39 168.31 121 191.2 118.38 193.95 116.17 190.76 116.88 179.82 116.56 168.12 114.56 160.79 116.56 150.39 116.17"/><polygon class="cls-3" points="186.85 118.87 180.28 125.42 160.79 125.42 157.18 118.56 151.84 117.39 160.2 129.67 180.78 129.67 191.2 118.38 186.85 118.87"/><polygon class="cls-22" points="161.53 106 167.62 112.62 173.7 106 161.53 106"/><polygon class="cls-2" points="202.03 110.87 193.03 132.17 200.81 121.52 202.03 110.87"/></svg>