<svg id="Layer_1" data-name="Layer 1" xmlns="http://www.w3.org/2000/svg" viewBox="0 0 400 400"><defs><style>.cls-1{fill:none;}.cls-2,.cls-7{fill:#2b2b2b;}.cls-2{fill-opacity:0.15;}.cls-3{fill:#54b08b;}.cls-4{fill:#3f8f6f;}.cls-5{fill:#35785d;}.cls-6{fill:#474747;}.cls-8{fill:#6f7173;}.cls-9{fill:#d0af96;}.cls-10{fill:#ececeb;}.cls-11{fill:#dddddc;}.cls-12{fill:#cececd;}.cls-13{fill:#a9846c;}.cls-14{fill:#858686;}.cls-15{fill:#c4c4c4;}.cls-16{fill:#a3a3a3;}.cls-17{fill:#446125;}.cls-18{fill:#5a753d;}.cls-19{fill:#5a4d44;}.cls-20{fill:#6f6054;}.cls-21{fill:#8b7a6d;}.cls-22{fill:#efd3c2;}.cls-23{fill:#72c9a6;}.cls-24{fill:#554537;}.cls-25{fill:#f7e6dc;}.cls-26{fill:#fff;}.cls-27{fill:#4f5253;}.cls-28{fill:#7d6e62;}</style></defs><title>diplomats_INFP_famous_real_johnny_depp</title><g id="Layer_1-2" data-name="Layer_1"><rect class="cls-1" x="152" y="152" width="96" height="96"/></g><g id="illustration_layer_copy_2" data-name="illustration layer_copy_2"><g id="_869295440" data-name=" 869295440"><polygon class="cls-2" points="110.78 386.96 201.56 377.4 289.97 388.75 199.77 399.5 110.78 386.96"/><polygon class="cls-3" points="207.54 370.83 201.56 391.14 220.68 395.32 238.6 391.14 233.22 370.23 218.29 355.9 207.54 370.83"/><polygon class="cls-4" points="173.49 355.3 156.77 361.87 135.26 382.18 158.56 384.57 181.85 382.18 182.45 365.45 173.49 355.3"/><polygon class="cls-5" points="135.26 382.18 135.26 386.96 181.85 386.96 181.85 382.18 135.26 382.18"/><polygon class="cls-6" points="175.28 313.49 155.57 317.67 156.77 361.87 182.45 365.45 192.61 321.25 175.28 313.49"/><polygon class="cls-7" points="223.67 306.92 238.6 321.85 233.22 370.23 207.54 370.83 200.37 321.25 223.67 306.92"/><polygon class="cls-6" points="173.49 286.01 197.38 299.75 200.37 321.25 238.6 321.85 242.78 286.61 215.31 250.77 180.66 271.08 173.49 286.01"/><polygon class="cls-8" points="163.93 251.37 153.78 265.71 155.57 317.67 192.61 321.25 197.38 299.75 190.81 259.73 163.93 251.37"/><polygon class="cls-7" points="197.38 299.75 228.44 277.05 220.68 266.9 153.78 265.71 197.38 299.75"/><polygon class="cls-9" points="135.26 149.82 132.28 142.06 152.59 118.77 156.17 152.21 151.39 152.21 135.26 149.82"/><polygon class="cls-10" points="127.5 162.37 122.72 152.81 132.28 142.06 151.39 152.21 141.83 167.15 127.5 162.37"/><polygon class="cls-11" points="130.49 186.26 110.18 167.75 122.72 152.81 141.83 167.15 136.46 183.87 130.49 186.26"/><polygon class="cls-12" points="160.95 174.32 157.37 167.15 141.83 167.15 130.49 186.26 158.56 210.75 160.95 174.32"/><polygon class="cls-9" points="247.56 256.74 257.12 264.51 242.78 286.61 218.89 271.08 220.68 266.9 236.81 250.77 247.56 256.74"/><polygon class="cls-13" points="247.56 256.74 257.12 264.51 251.14 274.07 236.81 254.36 243.98 254.36 247.56 256.74"/><polygon class="cls-10" points="255.92 245.99 264.28 253.16 257.12 264.51 231.43 251.97 238 234.65 255.92 245.99"/><polygon class="cls-12" points="233.82 214.93 246.96 231.06 255.32 236.44 274.44 237.03 261.3 179.09 247.56 172.52 233.82 214.93"/><path class="cls-11" d="M264.28,253.16,275,236.44l-27.47-7.17-9,11.94,1.79-1.19c-.6,0,16.73,9,24.49,13.14Z"/><polygon class="cls-14" points="168.12 260.93 173.49 265.71 220.68 266.9 227.85 240.02 165.13 245.99 168.12 260.93"/><polygon class="cls-11" points="163.34 238.82 173.49 255.55 191.41 256.15 200.37 219.11 184.84 170.73 163.34 194.62 163.34 238.82"/><polygon class="cls-12" points="163.34 238.82 173.49 255.55 191.41 256.15 197.38 231.66 191.41 229.87 172.3 230.46 163.34 216.72 163.34 238.82"/><polygon class="cls-15" points="172.89 183.27 164.53 193.43 166.32 198.81 186.04 178.5 172.89 183.27"/><path class="cls-12" d="M192.61,213.74l-1.2,12.54v29.87h36.44l.59-80.64s-30.46-.6-31.06-1.79S192.61,213.74,192.61,213.74Z"/><polygon class="cls-15" points="191.41 229.87 191.41 256.15 227.85 255.55 227.85 232.25 221.28 231.06 191.41 229.87"/><path class="cls-16" d="M228.44,203V175.51s-14.33,0-23.29-.6h0l-2.39,4.78,24.49,27.48,1.19-3.59Z"/><polygon class="cls-17" points="227.85 166.55 237.41 167.15 246.96 229.27 232.63 265.71 220.68 266.9 221.28 229.87 227.85 166.55"/><polygon class="cls-18" points="227.85 166.55 237.41 167.15 247.56 172.52 246.96 229.27 221.28 231.06 221.88 189.25 227.85 166.55"/><polygon class="cls-10" points="202.76 179.69 221.88 189.25 237.41 167.15 233.22 159.98 202.76 179.69"/><polygon class="cls-10" points="167.52 170.13 170.5 167.15 182.45 155.8 186.04 178.5 166.32 191.04 167.52 170.13"/><polygon class="cls-13" points="188.43 241.81 181.85 182.08 164.53 143.85 226.06 136.09 231.43 145.64 223.67 159.98 202.76 179.69 188.43 241.81"/><polygon class="cls-19" points="269.66 103.24 238.6 136.09 235.61 126.53 249.94 98.46 269.66 103.24"/><polygon class="cls-20" points="250.55 73.97 268.46 75.76 269.66 103.24 246.36 113.39 225.46 76.95 250.55 73.97"/><polygon class="cls-21" points="258.91 43.5 268.46 75.76 254.13 78.15 245.77 84.72 236.81 82.33 236.21 79.34 212.91 35.14 258.91 43.5"/><polygon class="cls-9" points="213.51 57.24 224.86 42.31 236.21 79.34 239.2 94.28 246.36 113.39 233.22 159.98 202.76 179.69 220.68 143.85 200.97 149.82 213.51 57.24"/><path class="cls-19" d="M134.67,54.85c1.79,0-7.17,1.2-7.17,1.2l-3,26.88,14.34,18.51,4.78-44.2S135.26,54.85,134.67,54.85Z"/><polygon class="cls-21" points="147.21 49.48 141.24 30.96 127.5 33.35 127.5 56.05 134.67 70.38 137.65 69.79 147.21 49.48"/><polygon class="cls-22" points="159.75 35.14 137.65 69.79 141.83 77.55 138.85 94.87 142.43 122.95 156.17 152.21 174.09 148.03 200.97 149.82 223.07 117.57 224.86 51.27 224.86 42.31 190.81 26.78 159.75 35.14"/><polygon class="cls-9" points="151.99 63.81 144.22 69.19 143.03 75.76 146.02 81.14 157.96 94.87 169.31 100.85 172.89 97.26 178.87 100.85 195 94.87 209.93 78.75 209.33 69.79 213.51 64.41 203.95 59.03 183.05 68.59 178.87 73.97 173.49 78.15 170.5 74.56 165.13 70.98 151.99 63.81"/><polygon class="cls-23" points="181.26 70.38 181.26 92.48 210.52 92.48 212.32 69.79 181.26 70.38"/><polygon class="cls-23" points="140.64 71.58 168.12 70.98 168.12 74.56 166.92 92.48 141.83 92.48 140.64 71.58"/><polygon class="cls-3" points="183.05 92.48 183.65 90.09 196.19 80.54 211.12 78.75 212.32 69.79 183.65 70.38 181.26 72.77 181.26 92.48 183.05 92.48"/><polygon class="cls-3" points="141.83 71.58 140.64 75.76 143.63 81.14 155.57 81.14 164.53 90.09 165.13 92.48 166.92 92.48 168.12 74.56 168.12 74.56 163.34 70.98 141.83 71.58"/><polygon class="cls-24" points="195.59 112.79 200.97 117.57 208.73 125.93 203.35 112.79 195.59 112.79"/><polygon class="cls-24" points="157.37 113.39 153.18 113.39 149.6 124.74 155.57 118.17 157.37 113.39"/><polygon class="cls-13" points="172.3 96.67 169.31 100.85 174.69 104.43 178.87 100.85 172.3 96.67"/><polygon class="cls-24" points="156.17 152.21 200.97 149.82 208.73 138.48 195.59 143.85 160.35 145.64 151.39 141.46 156.17 152.21"/><polygon class="cls-20" points="183.05 68.59 182.45 63.81 203.95 57.24 214.71 63.22 213.51 64.41 203.35 60.83 183.05 68.59"/><polygon class="cls-20" points="166.32 66.2 152.59 61.42 144.82 67.4 147.21 69.19 152.59 66.2 165.13 70.98 166.32 66.2"/><polygon class="cls-25" points="170.5 74.56 169.31 100.85 178.87 100.85 178.87 73.97 170.5 74.56"/><polygon class="cls-20" points="171.7 106.82 153.18 113.39 155.57 118.17 171.7 113.99 171.7 106.82"/><polygon class="cls-20" points="178.27 106.22 178.87 113.99 200.97 117.57 203.35 112.79 178.27 106.22"/><polygon class="cls-13" points="156.77 119.36 196.79 118.77 175.88 134.3 156.77 119.36"/><polygon class="cls-26" points="162.14 121.16 172.3 129.52 179.47 129.52 190.22 120.56 162.14 121.16"/><polygon class="cls-17" points="172.3 230.46 173.49 265.71 153.78 265.71 154.98 227.48 165.13 186.86 172.3 230.46"/><polygon class="cls-18" points="170.5 167.15 172.3 230.46 154.98 227.48 157.37 167.15 170.5 167.15"/><polygon class="cls-5" points="201.56 391.14 238.6 391.14 238.6 397.11 201.56 397.11 201.56 391.14"/><path class="cls-7" d="M155.57,75.16a4.18,4.18,0,1,1-4.18,4.18A4.18,4.18,0,0,1,155.57,75.16Z"/><path class="cls-27" d="M168.12,68.59h2.38v6h0l-1.19,17.92v2.39H138.85l-1.2-25.68L168.12,68Zm-2.39,4.78L143,74l1.19,16.12h20.31l.6-16.12v-1.2Z"/><path class="cls-27" d="M183.65,72.77V90.09h25.08l1.2-17.91-25.69.59Zm-4.78,19.71V68h2.39l31.06-.6h2.39v2.39l-1.8,22.69v2.39h-34Z"/><polygon class="cls-27" points="170.5 68 178.87 68 181.26 70.98 178.87 72.77 170.5 73.37 168.71 70.98 170.5 68"/><path class="cls-7" d="M195.59,74.56a4.19,4.19,0,1,1-4.18,4.19A4.19,4.19,0,0,1,195.59,74.56Z"/><polygon class="cls-20" points="174.09 0.5 127.5 33.35 136.46 41.12 146.02 46.49 159.75 35.14 182.45 29.17 187.83 16.63 174.09 0.5"/><polygon class="cls-20" points="224.86 42.31 182.45 29.17 186.63 14.83 206.94 16.63 238 14.24 258.91 43.5 224.86 42.31"/><polygon class="cls-21" points="174.09 0.5 206.94 16.63 182.45 29.17 174.09 0.5"/><polygon class="cls-28" points="159.75 35.14 147.21 69.19 139.44 75.76 134.67 70.38 136.46 41.12 159.75 35.14"/><polygon class="cls-21" points="144.82 102.64 147.21 69.19 134.67 70.38 132.87 93.08 143.63 107.42 144.82 102.64"/><polygon class="cls-19" points="142.43 122.95 132.87 93.08 144.82 102.64 142.43 122.95"/><polygon class="cls-13" points="246.36 113.39 233.82 99.65 249.94 100.25 246.36 113.39"/><polygon class="cls-20" points="229.64 58.44 229.64 93.08 234.42 95.47 240.39 82.93 236.81 72.18 229.64 58.44"/><polygon class="cls-27" points="214.71 67.4 236.81 72.18 236.21 76.95 214.11 72.77 212.91 70.38 214.71 67.4"/><polygon class="cls-22" points="236.81 72.18 254.72 74.56 249.94 100.25 233.82 99.65 236.81 72.18"/><polygon class="cls-13" points="249.35 78.75 239.79 88.3 240.99 77.55 249.35 78.75"/></g></g></svg>