<svg id="Layer_1" data-name="Layer 1" xmlns="http://www.w3.org/2000/svg" viewBox="0 0 400 400"><defs><style>.cls-1,.cls-10,.cls-24{fill:#2b2b2b;}.cls-1,.cls-10,.cls-11,.cls-12,.cls-13,.cls-14,.cls-15,.cls-16,.cls-17,.cls-18,.cls-19,.cls-2,.cls-20,.cls-21,.cls-22,.cls-23,.cls-3,.cls-4,.cls-5,.cls-6,.cls-7,.cls-8,.cls-9{fill-rule:evenodd;}.cls-1{opacity:0.1;}.cls-2{fill:#709c52;}.cls-3{fill:#f4cab2;}.cls-4{fill:#ebebea;}.cls-5{fill:#738c57;}.cls-6{fill:#dcdcdb;}.cls-7{fill:#44622d;}.cls-8{fill:#5a753d;}.cls-9{fill:#fbe3d4;}.cls-11{fill:#362615;}.cls-12{fill:#564537;}.cls-13{fill:#7a6a61;}.cls-14{fill:#c18f7c;}.cls-15{fill:#cecdcc;}.cls-16,.cls-25{fill:#474748;}.cls-17{fill:#98c16c;}.cls-18{fill:#d8e156;}.cls-19{fill:#e5e97b;}.cls-20{fill:#b7c644;}.cls-21{fill:#35785e;}.cls-22{fill:#54af8a;}.cls-23{fill:#fff0e8;}</style></defs><title>diplomats_INFP_famous_real_tom_hiddleston</title><polyline class="cls-1" points="140.58 384.5 229.81 400 312.31 391.58 229.81 373.07 138.45 384.5"/><polygon class="cls-2" points="275.1 245.05 289.81 222.98 305.68 213.3 328.14 217.18 291.74 265.18 280.52 253.18 275.1 245.05"/><polygon class="cls-3" points="285.55 268.28 273.64 279.96 264.65 268.66 270.45 257.43 285.55 268.28"/><polygon class="cls-4" points="291.74 265.18 285.55 273.31 272 258.6 268.9 253.18 275.1 245.05 291.74 265.18"/><polygon class="cls-3" points="128.38 263.25 129.16 277.18 142.32 286.08 148.51 282.6 145.8 264.4 128.38 263.25"/><polygon class="cls-5" points="167.48 195.11 189.93 160.27 194.58 201.69 187.22 221.43 166.71 212.92 167.48 195.11"/><polygon class="cls-4" points="205.8 152.53 203.09 193.56 222.45 231.5 231.74 168.01 225.16 159.5 205.8 152.53"/><polygon class="cls-6" points="253.03 193.18 222.45 231.5 231.74 168.01 240.65 158.72 259.23 150.98 253.03 193.18"/><polygon class="cls-3" points="250.71 39.88 227.6 143.12 232.9 149.43 259.23 137.81 284.39 75.88 250.71 39.88"/><polygon class="cls-7" points="193.42 270.98 207.74 298.47 228.18 297.46 256.91 298.47 267.74 264.4 220.9 251.63 193.42 270.98"/><polygon class="cls-5" points="184.07 283.83 193.42 256.89 208.71 288.78 223.61 319.6 212.08 375.09 195.74 365.38 184.07 283.83"/><path class="cls-8" d="M207,280l21.15,17.5-10.76,80.45-8.84-1.32-3.93-86.79s-1.78-14.77-2.84-14.22C202,275.69,201.6,282.51,207,280Z"/><polygon class="cls-5" points="236.78 324.25 244.44 283.36 261.55 249.92 273.71 279.02 270.84 319.99 269.49 370.68 266.05 385.29 251.89 375.28 236.78 324.25"/><polygon class="cls-8" points="228.18 297.46 246.18 279.96 244.77 284.21 256.99 376.04 247.62 372.23 228.18 297.46"/><polygon class="cls-9" points="178.71 42.58 178.32 79.36 178.65 106.92 194.79 141.38 227.6 143.12 243.62 126.75 250.71 39.88 201.55 31.75 178.71 42.58"/><polygon class="cls-3" points="201.93 98.33 189.93 83.23 182.58 74.33 186.45 69.3 198.45 69.3 204.97 72.56 205.42 76.26 208.13 72.48 217.42 68.91 230.58 67.75 235.22 72 225.55 81.68 209.68 98.33 205.42 94.46 201.93 98.33"/><path class="cls-10" d="M191.45,85.55a3.72,3.72,0,1,0-3.71-3.72A3.72,3.72,0,0,0,191.45,85.55Z"/><path class="cls-10" d="M223.47,84.91a3.7,3.7,0,1,0-3.7-3.7A3.7,3.7,0,0,0,223.47,84.91Z"/><polygon class="cls-11" points="160.51 53.81 178.32 79.36 178.71 42.58 166.32 39.88 160.51 53.81"/><polygon class="cls-12" points="170.97 21.68 160.51 53.81 178.71 42.58 182.96 34.07 170.97 21.68"/><polygon class="cls-13" points="216.26 0 170.97 21.68 178.71 42.58 201.16 44.52 212.77 26.33 216.26 0"/><polygon class="cls-11" points="256.13 8.13 216.26 0 201.16 44.52 233.29 30.2 256.13 8.13"/><polygon class="cls-12" points="250.71 39.88 201.16 44.52 256.13 8.13 260.78 27.49 250.71 39.88"/><polygon class="cls-13" points="294.07 52.26 256.13 8.13 250.71 39.88 267.74 58.07 294.07 52.26"/><polygon class="cls-12" points="250.71 39.88 252.26 75.88 276.64 73.94 294.07 52.26 250.71 39.88"/><polygon class="cls-11" points="252.26 75.88 253.42 94.07 268.52 97.56 281.29 83.62 294.07 52.26 252.26 75.88"/><polygon class="cls-9" points="261.94 79.75 256.91 102.98 272 106.46 281.29 83.62 261.94 79.75"/><polygon class="cls-14" points="263.1 92.52 264.65 84.4 272.39 86.33 263.1 92.52"/><polygon class="cls-14" points="269.29 113.04 256.91 102.98 272 106.46 269.29 113.04"/><polygon class="cls-15" points="205.8 142.07 205.8 152.53 210.45 154.08 232.52 161.82 232.9 149.43 205.8 142.07"/><polygon class="cls-4" points="259.23 137.81 232.9 149.43 232.52 161.82 259.23 150.98 259.23 137.81"/><polygon class="cls-14" points="205.8 142.07 232.9 149.43 244.52 144.4 237.94 143.62 205.8 142.07"/><polygon class="cls-16" points="210.45 174.98 210.45 154.08 232.52 162.2 231.74 168.01 210.45 174.98"/><polygon class="cls-16" points="248 179.24 231.74 168.01 232.52 162.2 249.94 154.85 248 179.24"/><polygon class="cls-10" points="222.84 158.72 222.84 170.72 237.55 171.88 239.48 159.11 222.84 158.72"/><polygon class="cls-17" points="189.93 160.27 205.8 152.53 203.09 193.56 198.06 202.47 184.13 199.75 189.93 160.27"/><polygon class="cls-2" points="222.45 231.5 194.97 221.82 184.13 199.75 196.51 195.5 203.09 193.56 222.45 231.5"/><polygon class="cls-2" points="269.68 205.17 261.17 221.43 222.45 231.5 253.03 193.18 264.26 192.79 269.68 205.17"/><polygon class="cls-17" points="275.49 157.17 281.29 183.11 269.68 205.17 259.61 198.59 253.03 193.18 259.23 150.98 275.49 157.17"/><polygon class="cls-2" points="247.39 303.89 220.13 260.14 214.71 247.37 222.45 231.5 253.81 229.18 275.1 245.05 269.29 272.53 247.39 303.89"/><polygon class="cls-17" points="269.68 205.17 277.81 205.56 278.19 212.92 275.1 245.05 249.94 238.47 222.45 231.5 269.68 205.17"/><polygon class="cls-5" points="289.81 222.98 269.68 205.17 275.49 157.17 328.14 217.18 308.39 220.27 289.81 222.98"/><polygon class="cls-18" points="90.83 198.21 112.9 216.4 115.22 250.85 71.86 204.79 90.83 198.21"/><polygon class="cls-19" points="81.93 156.01 90.83 198.21 71.86 204.79 81.93 156.01"/><polygon class="cls-20" points="98.96 157.95 81.93 156.01 84.64 168.79 98.96 157.95"/><polygon class="cls-21" points="148.9 282.6 115.22 250.85 116.77 247.37 143.48 210.59 172.13 205.95 184.9 254.34 148.9 282.6"/><polygon class="cls-20" points="112.9 216.4 137.29 196.27 167.48 195.11 148.13 255.11 115.22 250.85 112.9 216.4"/><polygon class="cls-19" points="124.51 206.72 129.54 202.47 156.64 228.4 148.13 255.11 130.7 252.79 124.51 206.72"/><polygon class="cls-22" points="169.41 280.66 148.51 282.6 134.96 269.43 155.09 267.5 169.41 280.66"/><path class="cls-22" d="M167.48,254.73l8.91-23.62s25.16,31,25.93,30.2-10.45,17.8-10.45,17.8l-6.58-7-17.81-17Z"/><polygon class="cls-23" points="204.97 72.56 198.89 98.33 209.68 98.33 208.54 72.47 204.97 72.56"/><polygon class="cls-14" points="205.42 102.59 198.89 98.33 209.68 98.33 205.42 102.59"/><polygon class="cls-14" points="191.49 111.3 194.28 112.35 221.17 110.95 228.15 108.51 218.02 123.17 198.82 123.52 191.49 111.3"/><polygon class="cls-23" points="195.33 114.1 219.07 113.75 222.56 112.35 216.63 118.98 206.15 118.98 198.47 119.33 195.33 114.1"/><polygon class="cls-13" points="217.81 66.2 217.42 68.91 235.22 72 235.95 68.15 217.81 66.2"/><polygon class="cls-13" points="197.47 65.87 198.45 69.3 182.58 74.33 182.38 71.04 197.47 65.87"/><path class="cls-10" d="M227.1,241.56a2.62,2.62,0,0,1,2.7,2.71,2.76,2.76,0,0,1-2.7,2.71,2.63,2.63,0,0,1-2.71-2.71,2.87,2.87,0,0,1,3.09-2.71Z"/><polygon class="cls-19" points="126.44 183.88 129.16 128.14 145.41 171.88 126.44 183.88"/><polygon class="cls-20" points="149.67 133.17 129.16 128.14 134.58 142.46 149.67 133.17"/><polygon class="cls-18" points="182.58 210.59 145.41 171.88 126.44 183.88 158.96 221.43 182.58 210.59"/><polygon class="cls-20" points="158.96 221.43 188.38 252.02 196.9 237.69 194.97 223.37 167.48 195.11 158.96 221.43"/><polygon class="cls-17" points="188 251.63 184.13 199.75 222.45 231.5 208.52 249.31 188 251.63"/><polygon class="cls-2" points="184.07 283.83 185.29 270.21 188 251.63 222.45 231.5 221.29 246.21 220.13 260.14 204.65 303.89 184.07 283.83"/><polygon class="cls-3" points="242.14 100.5 228.89 112.5 235.48 119.01 242.14 100.5"/><polygon class="cls-3" points="180.6 104.93 189.64 113.46 186.54 119.01 180.6 104.93"/><polygon class="cls-24" points="247.43 384.43 237.94 388.51 238.38 393.25 272.54 393.81 272.54 388.96 247.43 384.43"/><polygon class="cls-24" points="190.8 375.29 169.39 381.91 169.39 386.24 218.28 385.63 218.28 380.72 190.8 375.29"/><polygon class="cls-25" points="169.39 381.91 195.13 363.69 218.28 371.49 218.28 380.72 169.39 381.91"/><polygon class="cls-25" points="269.49 370.68 272.54 388.96 237.94 388.51 247.62 372.23 269.49 370.68"/></svg>