<svg id="Layer_1" data-name="Layer 1" xmlns="http://www.w3.org/2000/svg" viewBox="0 0 400 400"><defs><style>.cls-1,.cls-20{fill:#2b2b2b;}.cls-1{fill-opacity:0.1;}.cls-2{fill:#5a753d;}.cls-3{fill:#35785d;}.cls-4{fill:#72c8a5;}.cls-5{fill:#51362a;}.cls-6{fill:#66483a;}.cls-7{fill:#f4c9b2;}.cls-8{fill:#c1907d;}.cls-9{fill:#fce3d4;}.cls-10{fill:#ffefe7;}.cls-11{fill:#fff;}.cls-12{fill:#82624d;}.cls-13{fill:#54af8a;}.cls-14{fill:#446125;}.cls-15{fill:#738c57;}.cls-16{fill:#4f5253;}.cls-17{fill:#b7c645;}.cls-18{fill:#3f8e6f;}.cls-19{fill:#e7ef78;}</style></defs><title>diplomats_INFP_famous_fictional_lance_sweets_bones</title><polygon class="cls-1" points="118.08 388.53 245.62 399.52 284.03 386.71 206.61 379.35 118.08 388.53"/><polygon class="cls-2" points="156.73 214.97 138.73 238.88 152.5 267.75 164.1 225.6 156.73 214.97"/><polygon class="cls-3" points="164.22 267.75 163.62 282.48 194.05 304.47 207.7 317.63 243.93 299.51 228.47 276.44 228.72 270.04 225.09 264.12 173.28 264.97 164.22 267.75"/><polygon class="cls-4" points="193.93 161.34 178.11 172.33 175.94 259.9 190.79 264.73 207.46 260.87 226.54 217.5 230.52 167.5 193.93 161.34"/><polygon class="cls-5" points="139.82 34.04 132.45 49.14 132.45 56.87 147.31 82.84 151.29 43.95 139.82 34.04"/><polygon class="cls-6" points="149.97 56.27 151.29 43.95 139.82 34.04 132.45 49.14 149.97 56.27"/><polygon class="cls-7" points="182.82 147.69 199.85 159.65 246.47 139.84 252.75 120.88 249.85 90.93 231.61 35.25 182.82 147.69"/><polygon class="cls-8" points="234.39 144.92 182.82 147.69 199.85 159.65 234.39 144.92"/><polygon class="cls-9" points="145.74 38.63 149 130.91 167.24 149.15 215.55 146 229.31 127.64 231.61 35.25 145.74 38.63"/><polygon class="cls-10" points="175.57 79.94 183.91 79.58 186.08 104.22 179.68 105.91 174 104.94 175.57 79.94"/><polygon class="cls-8" points="174 104.94 180.28 109.17 186.08 104.22 179.68 105.91 174 104.94"/><polygon class="cls-8" points="205.52 115.93 182.94 115.09 165.31 117.98 176.29 130.91 194.05 130.79 205.52 115.93"/><polygon class="cls-11" points="201.9 117.62 191.51 127.89 177.75 127.89 168.69 119.43 201.9 117.62"/><polygon class="cls-6" points="184.51 77.77 185.96 72.69 202.26 62.67 216.88 69.67 201.54 67.86 184.51 77.77"/><polygon class="cls-6" points="174.49 77.77 173.88 72.45 158.18 65.32 151.9 70.76 158.78 69.19 174.49 77.77"/><polygon class="cls-7" points="216.88 69.67 185.47 96.48 183.91 79.58 184.51 77.77 201.54 67.86 216.88 69.67"/><polygon class="cls-7" points="158.78 69.19 151.9 70.76 174.84 93.1 175.57 79.94 174.49 77.77 158.78 69.19"/><polygon class="cls-7" points="221.22 109.17 212.77 114.48 209.27 126.92 221.22 109.17"/><polygon class="cls-7" points="159.99 121.37 159.99 112.07 155.28 116.89 159.99 121.37"/><polygon class="cls-5" points="232.45 13.15 205.52 9.16 183.06 16.29 145.74 18.82 139.82 34.04 151.29 43.95 219.17 46.48 231.61 40.81 240.43 29.45 236.93 17.98 232.45 13.15"/><polygon class="cls-6" points="195.75 15.2 192.12 9.04 174.37 2.04 145.74 18.82 219.17 32.23 236.93 17.98 232.45 13.15 195.75 15.2"/><polygon class="cls-12" points="232.45 13.15 174.37 2.04 195.75 15.2 232.45 13.15"/><polygon class="cls-5" points="231.61 40.81 231.01 61.82 239.1 71.6 239.1 93.1 246.83 94.55 248.89 81.14 262.29 78.49 270.26 68.34 265.91 58.68 269.41 50.35 259.03 35.62 261.32 30.42 249.24 25.1 245.02 17.98 236.93 17.98 231.61 40.81"/><polygon class="cls-5" points="270.26 68.34 265.91 58.68 258.42 67.14 231.61 53.37 231.25 53.85 231.01 61.82 239.1 71.6 239.1 93.1 246.83 94.55 248.89 81.14 256.86 78.85 270.26 68.34"/><polygon class="cls-6" points="270.26 68.34 248.89 81.14 256.13 92.38 264.46 85.86 270.26 68.34"/><polygon class="cls-6" points="269.41 50.35 256.86 58.32 231.61 40.81 246.1 42.74 259.03 35.62 269.41 50.35"/><polygon class="cls-6" points="249.24 25.1 231.61 40.81 236.93 17.98 245.02 17.98 249.24 25.1"/><polygon class="cls-9" points="248.89 81.14 240.55 105.78 256.25 110.49 264.46 85.86 248.89 81.14"/><polygon class="cls-8" points="251.54 85.86 259.63 88.27 248.28 96.12 251.54 85.86"/><polygon class="cls-8" points="240.55 105.78 252.75 120.88 256.25 110.49 240.55 105.78"/><polygon class="cls-13" points="199.97 159.05 198.4 163.4 192.48 165.81 188.01 169.68 190.91 153.37 199.97 159.05"/><polygon class="cls-13" points="199.97 159.05 200.69 166.29 209.87 167.02 213.13 169.68 248.03 147.94 246.47 139.84 199.97 159.05"/><polygon class="cls-14" points="213.13 169.68 216.15 196.25 207.58 246.49 207.46 260.74 205.52 266.3 221.35 268.11 229.31 260.87 246.35 296.98 271.34 277.29 262.65 262.43 276.9 164.97 248.03 147.94 213.13 169.68"/><polygon class="cls-2" points="212.29 180.67 207.58 246.49 229.92 202.77 219.42 189.6 219.29 182.84 212.29 180.67"/><polygon class="cls-15" points="248.03 147.94 213.13 169.68 212.29 180.67 219.42 189.6 248.03 147.94"/><polygon class="cls-14" points="183.3 171.61 190.07 157.84 159.99 174.39 151.18 217.99 156 223.3 152.5 267.75 159.15 282.48 166.03 278.86 171.83 267.75 178.96 264.97 175.94 259.78 176.78 244.32 182.94 190.57 183.3 171.61"/><polygon class="cls-2" points="176.78 244.32 165.31 201.8 186.56 180.67 176.78 244.32"/><polygon class="cls-15" points="171.34 180.67 178.11 189.12 186.56 180.67 190.07 157.84 171.34 180.67"/><polygon class="cls-16" points="175.94 259.78 207.46 260.74 221.35 268.11 171.83 267.75 174.37 262.92 175.94 259.78"/><polygon class="cls-17" points="195.5 171.85 182.94 244.68 190.07 255.19 201.54 246.25 204.92 172.33 199.97 170.16 195.5 171.85"/><polygon class="cls-17" points="192.48 165.81 195.5 171.85 204.92 172.33 209.87 167.02 199.97 159.05 192.48 165.81"/><polygon class="cls-18" points="152.5 267.75 156 323.91 175.82 347.82 195.62 332.97 201.05 314.13 195.26 303.01 160.48 274.27 152.5 267.75"/><polygon class="cls-2" points="250.45 372.94 254.8 388.77 238.98 391.55 219.65 388.53 224.73 367.63 247.07 367.51 250.45 372.94"/><polygon class="cls-2" points="184.15 371.86 184.15 385.02 133.18 383.21 158.42 363.89 178.96 364.25 184.15 371.86"/><polygon class="cls-3" points="184.15 371.86 195.62 332.97 156 323.91 158.42 363.89 184.15 371.86"/><polygon class="cls-15" points="156 223.3 159.99 174.39 138.73 238.88 156 223.3"/><polygon class="cls-19" points="188.13 252.41 201.66 243.35 201.78 240.94 187.05 250.84 188.13 252.41"/><polygon class="cls-19" points="182.94 244.68 183.91 246.13 202.14 233.57 202.26 231.15 182.94 244.68"/><polygon class="cls-19" points="184.51 235.86 202.5 223.66 202.63 221.37 184.87 233.33 184.51 235.86"/><polygon class="cls-19" points="186.32 225.11 202.99 213.88 203.1 211.58 186.8 222.58 186.32 225.11"/><polygon class="cls-19" points="188.13 214.37 203.47 204.1 203.59 201.8 188.62 211.83 188.13 214.37"/><polygon class="cls-19" points="189.95 203.62 203.83 194.32 203.96 192.02 190.43 201.08 189.95 203.62"/><polygon class="cls-19" points="204.44 182.24 192.24 190.33 191.88 192.87 204.31 184.53 204.44 182.24"/><polygon class="cls-19" points="204.92 172.46 194.17 179.58 193.69 182.24 204.8 174.75 204.92 172.46"/><polygon class="cls-19" points="202.14 160.86 193.57 168.1 194.54 169.8 203.59 162.07 202.14 160.86"/><polygon class="cls-19" points="206.73 164.6 198.16 171.97 200.81 172.09 208.3 165.81 206.73 164.6"/><polygon class="cls-13" points="195.26 303.01 221.35 268.11 239.34 282.24 246.35 296.98 247.91 326.81 227.02 351.2 210 335.38 195.26 303.01"/><polygon class="cls-18" points="245.38 278.98 238.49 287.92 246.35 296.98 245.38 278.98"/><polygon class="cls-14" points="254.8 393.96 220.02 393.84 219.65 388.53 232.45 388.64 254.8 388.77 254.8 393.96"/><polygon class="cls-14" points="184.15 388.28 184.15 382.85 133.54 383.09 133.3 388.28 184.15 388.28"/><path class="cls-20" d="M164.82,80.3a4,4,0,1,1-4,4A4,4,0,0,1,164.82,80.3Z"/><path class="cls-20" d="M197.92,78.85a4,4,0,1,1-4,4A4,4,0,0,1,197.92,78.85Z"/><polygon class="cls-7" points="245.38 278.98 238.49 287.92 221.35 268.11 245.38 278.98"/><polygon class="cls-15" points="284.39 241.66 245.38 278.98 221.35 268.11 249.49 225.6 267.84 230.55 284.39 241.66"/><polygon class="cls-2" points="239.94 199.87 276.9 164.97 284.39 241.66 249.49 225.84 239.94 199.87"/><polygon class="cls-3" points="250.45 372.94 247.91 326.81 210 335.38 224.73 367.63 250.45 372.94"/></svg>