<svg id="Layer_1" data-name="Layer 1" xmlns="http://www.w3.org/2000/svg" viewBox="0 0 400 400"><defs><style>.cls-1{fill:#35785d;}.cls-1,.cls-10,.cls-11,.cls-12,.cls-13,.cls-14,.cls-15,.cls-16,.cls-17,.cls-18,.cls-19,.cls-2,.cls-20,.cls-21,.cls-22,.cls-23,.cls-24,.cls-25,.cls-26,.cls-3,.cls-4,.cls-5,.cls-6,.cls-7,.cls-8,.cls-9{fill-rule:evenodd;}.cls-2{fill:#3f8e6f;}.cls-3{fill:#54af8a;}.cls-26,.cls-4{fill:#2b2b2b;}.cls-4{opacity:0.1;}.cls-5{fill:#f4c9b2;}.cls-6{fill:#fce3d4;}.cls-7{fill:#b99d8d;}.cls-8{fill:#738c57;}.cls-9{fill:#98796a;}.cls-10{fill:#5a753d;}.cls-11{fill:#446125;}.cls-12{fill:#709c53;}.cls-13{fill:#98c16d;}.cls-14{fill:#d8e254;}.cls-15{fill:#9fce7e;}.cls-16{fill:#9ca0a1;}.cls-17{fill:#c1907d;}.cls-18{fill:#dcdcdb;}.cls-19{fill:#ebebea;}.cls-20{fill:#c3c3c3;}.cls-21{fill:#e7ef78;}.cls-22{fill:#51362a;}.cls-23{fill:#82624d;}.cls-24{fill:#66483a;}.cls-25{fill:#ffefe7;}</style></defs><title>diplomats_INFP_famous_fictional_frodo_baggins_the_lord_of_the_rings</title><polygon class="cls-1" points="135.36 342.06 137.69 349.27 248.36 337.37 282.95 354.04 289.08 354.04 262.33 255.46 253.98 237.85 218.04 221.14 170.3 229.19 135.36 342.06"/><polygon class="cls-2" points="287.63 376.03 253.46 248.26 248.36 229.19 262.33 231.01 266.1 252.52 302.51 349.27 287.63 376.03"/><polygon class="cls-3" points="171.84 226.16 167.56 234.59 126.7 345.19 135.36 373.54 171.84 226.16"/><polygon class="cls-4" points="207.94 373.87 112.74 385.47 258.62 400 287.79 381.71 207.94 373.87"/><polygon class="cls-5" points="142.58 383.02 135.36 373.54 153.13 374.72 153.96 376.6 142.58 383.02"/><polygon class="cls-6" points="142.58 383.02 174.27 383.02 177.23 379.6 167.93 362.01 142.58 383.02"/><polyline class="cls-7" points="170.78 372.52 161.94 376.97 152.57 374.74 167.42 362.43 173.14 365.39"/><polygon class="cls-5" points="174.27 383.02 186.53 383.02 186.53 333.85 174.27 325.06 157.14 331.5 174.27 383.02"/><polygon class="cls-8" points="157.14 331.5 171.84 285.36 199.22 292.4 202.63 301.65 206.1 307.65 186.53 333.85 157.14 331.5"/><polygon class="cls-6" points="236.85 372.52 231.78 396.03 246.16 394.46 259.52 395.36 253.77 371.61 245.65 368.65 236.85 372.52"/><polygon class="cls-7" points="233.58 387.68 242.92 389.38 257.66 387.68 253.77 371.61 243.62 368.65 236.85 372.52 233.58 387.68"/><polyline class="cls-9" points="244.44 372.52 234.74 382.34 244.44 379.02 256.53 383.02 253.77 371.61 248.36 370.91"/><polygon class="cls-5" points="231.78 396.03 259.52 395.36 242.92 389.38 231.78 396.03"/><polygon class="cls-5" points="236.85 372.52 253.77 371.61 248.36 337.37 229.45 326.03 219.58 340.46 236.85 372.52"/><polygon class="cls-10" points="202.63 301.65 219.58 340.46 248.36 337.37 241.09 281.45 207.47 291.62 202.63 301.65"/><polygon class="cls-11" points="171.84 285.36 202.63 301.65 241.09 281.45 214.87 274.22 205.14 282.82 196.89 279.69 188.65 283.8 179.77 281.45 171.84 285.36"/><polygon class="cls-12" points="241.09 281.45 243.62 250.56 204.29 240.4 190.76 247.41 186.53 255.46 193.09 258.38 194.78 268.16 191.4 272.65 196.47 274.22 196.89 279.69 205.14 282.82 241.09 281.45"/><polygon class="cls-13" points="171.84 285.36 165.81 245.28 172.79 241.76 192.1 246.72 193.09 258.38 194.78 268.16 196.47 274.22 196.89 279.69 188.65 283.8 171.84 285.36"/><polygon class="cls-11" points="196.47 274.22 188.65 283.8 205.14 282.82 196.47 274.22"/><polygon class="cls-14" points="193.09 258.38 189.7 264.64 194.78 268.16 198.8 263.56 193.09 258.38"/><polygon class="cls-13" points="161.16 199.14 143.61 194.45 133.25 194.45 133.25 218.3 167.56 234.59 173.64 229.06 174.93 210.78 171.73 203.83 161.16 199.14"/><polygon class="cls-15" points="192.1 246.72 165.81 245.28 161.16 199.14 175.33 205.59 194.25 227.1 196.89 230.42 192.45 233.94 192.45 241.76 194.25 243.13 192.1 246.72"/><polygon class="cls-12" points="248.99 202.14 281.05 235.31 274.7 249.39 266.1 252.52 244.56 242.12 243.62 227.2 248.99 202.14"/><polygon class="cls-13" points="243.62 250.56 192.1 246.72 192.45 233.94 194.25 227.1 238.12 202.66 248.99 202.14 243.62 250.56"/><polygon class="cls-3" points="161.16 199.14 194.25 227.1 195.2 220.45 192.1 215.17 189.2 197.71 177.71 194.45 161.16 199.14"/><polygon class="cls-2" points="248.99 202.14 194.25 227.1 192.1 215.17 204.44 200.78 223.53 191.89 230.3 195.82 248.99 202.14"/><polygon class="cls-14" points="192.1 215.17 189.7 218.69 194.25 227.1 198.8 219.67 192.1 215.17"/><polygon class="cls-14" points="192.45 233.94 188.65 237.07 192.45 241.76 196.89 237.85 192.45 233.94"/><polygon class="cls-13" points="266.1 252.52 281.05 235.31 295.43 265.03 292.04 276.18 281.47 271.29 266.1 252.52"/><polygon class="cls-16" points="303.56 272.01 300.29 276.18 304.94 281.6 315.6 276.1 311.44 268.04 303.56 272.01"/><polygon class="cls-17" points="292.89 295.12 289.08 295.4 280.83 284.45 281.91 283.33 286.39 278.95 291.68 280.9 294.44 289.47 292.89 295.12"/><polygon class="cls-6" points="281.47 271.29 281.91 283.33 288.77 283.08 300.11 283.94 303.56 272.01 295.43 265.03 281.47 271.29"/><polygon class="cls-5" points="288.77 283.08 292.89 295.12 306.87 287.06 303.56 272.01 288.77 283.08"/><polygon class="cls-18" points="277.71 284.99 234.1 304.13 200.12 326.03 248.38 318.12 283.8 292.64 282.95 287.03 277.71 284.99"/><polygon class="cls-19" points="280.38 286.03 277.71 284.99 231.78 302.76 200.12 326.03 280.76 288.82 280.38 286.03"/><polygon class="cls-20" points="297.75 300.81 294.44 307.8 270.23 277.81 274.7 275.38 297.75 300.81"/><polygon class="cls-15" points="133.25 218.3 115.49 182.72 121.83 173.53 130.08 174.7 143.61 194.45 133.25 218.3"/><polygon class="cls-17" points="115.49 182.72 117.82 176.37 115.49 173.53 106.61 170.01 98.15 174.7 115.49 182.72"/><polygon class="cls-6" points="115.49 173.53 98.15 174.7 97.09 152.8 111.89 158.86 117.82 161.8 115.49 173.53"/><path class="cls-21" d="M108,152.42l-.38,2.42-3.56-.41-2.74-3.35,2.42-2.31,4.26,1Zm-7.47-9.2-6.35,6.06,7.19,8.8,9.36,1.08,1-6.36v-7Z"/><polygon class="cls-5" points="130.08 174.7 123.95 162.58 111.69 152.8 108.3 155.93 115.49 165.71 115.49 173.53 115.49 182.72 130.08 174.7"/><polygon class="cls-21" points="84.4 158.97 92.29 155.91 84.4 155.91 84.4 158.97"/><polygon class="cls-21" points="87.09 140.42 93.49 144.44 91.03 137.78 87.09 140.42"/><polygon class="cls-21" points="105.98 132.86 106.75 140.71 110.29 132.86 105.98 132.86"/><polygon class="cls-21" points="122.89 140.42 115.49 143.22 121.14 138.21 122.89 140.42"/><polygon class="cls-9" points="233.58 387.68 244.22 384.83 257.66 387.68 242.92 389.38 233.58 387.68"/><path class="cls-9" d="M152.57,374.74l9.37,2.23-5.29-5.61Zm7.45-6.17,7.4-6.14-1.11,12.33Z"/><polygon class="cls-22" points="264.97 180.13 262.03 161.77 249.44 159.47 242.56 163.29 236.57 169.25 234.33 190.34 264.97 180.13"/><polygon class="cls-23" points="262.03 161.77 272.97 150.82 272.97 119.69 252.1 121.81 241.49 144.76 244.14 154.24 262.03 161.77"/><polygon class="cls-22" points="241.49 144.76 233.84 136.86 234.39 110.42 249.68 93.08 275.95 102.94 272.97 119.69 241.49 144.76"/><polygon class="cls-22" points="143.77 146.73 136.79 104.94 152.27 87.22 153.64 98.52 155.74 113.48 148.35 139.88 143.77 146.73"/><polygon class="cls-23" points="234.39 110.42 213.47 113.65 190 97.5 190 65.88 215.75 59.76 249.68 61.46 275.95 102.94 234.39 110.42"/><polygon class="cls-24" points="153.64 98.52 136.79 104.94 151.29 79.14 164.14 80.5 169.78 85.6 160.96 99.88 153.64 98.52"/><polygon class="cls-9" points="190 65.88 249.68 61.46 208.93 55 188.11 60.44 181.96 63.16 190 65.88"/><polygon class="cls-24" points="208.93 55 190 65.88 176.56 77.78 164.14 80.5 158.57 82.54 151.29 79.14 166.18 59.76 208.93 55"/><polygon class="cls-5" points="234.33 190.34 244.14 166.42 241.49 144.76 234.33 135.54 234.39 110.42 192.84 134.73 187.93 188.13 192.1 215.17 231.63 196.27 234.33 190.34"/><polygon class="cls-17" points="175.42 182.68 194.15 189.73 208.76 194.25 192.1 215.17 175.13 195.18 175.42 182.68"/><polygon class="cls-6" points="234.39 110.42 169.78 85.6 153.64 98.52 143.77 146.73 152.59 179.05 194.15 189.73 213.9 172.91 234.39 110.42"/><polygon class="cls-5" points="177.85 128.53 175.36 119.01 166.59 115.07 161.79 114.26 153.19 113.52 165.21 126.71 172.14 143.19 178.05 146.72 181.81 149.5 199.13 134.63 219.57 129.96 209.55 127.2 195.55 123.43 184.28 129.88 179.65 132.61 177.85 128.53"/><polygon class="cls-17" points="169.97 147.09 174.37 153.01 181.81 149.5 178.05 146.72 169.97 147.09"/><polygon class="cls-23" points="175.36 119.01 177.92 113.91 159.19 112.11 153.8 111.08 153.19 113.52 158.71 116.05 175.36 119.01"/><polygon class="cls-23" points="197.76 118.6 195.55 123.43 210.87 128.31 219.57 129.96 220.98 127.23 197.76 118.6"/><polygon class="cls-25" points="177.85 128.53 173.99 139.87 169.97 147.09 181.81 149.5 181.76 142.25 184.28 129.88 177.85 128.53"/><polygon class="cls-17" points="183.7 167.42 166.25 161.88 166.93 158.52 184.69 163.91 183.7 167.42"/><polygon class="cls-24" points="241.49 144.76 237.75 182.02 262.03 161.77 241.49 144.76"/><polygon class="cls-9" points="190 65.88 151.29 79.14 180.62 106.88 201.38 111.85 202.09 98.01 190 65.88"/><path class="cls-26" d="M166,121.18a4.35,4.35,0,1,1-4.35,4.35,4.34,4.34,0,0,1,4.35-4.35"/><polygon class="cls-6" points="232.11 160.65 239.62 163.39 241.49 144.76 232.11 160.65"/><polygon class="cls-17" points="238.43 175.2 232.11 160.65 239.62 163.39 238.43 175.2"/><polygon class="cls-24" points="234.39 110.42 227.16 158.04 232.11 160.65 241.49 144.76 234.39 110.42"/><polygon class="cls-22" points="225.18 127.15 234.39 110.42 216.42 92.86 202.09 98.01 225.18 127.15"/><polygon class="cls-24" points="225.59 63.25 234.39 110.42 202.09 98.01 190 65.88 225.59 63.25"/><path class="cls-26" d="M198.15,129.19a4.35,4.35,0,1,1-4.35,4.35,4.34,4.34,0,0,1,4.35-4.35"/></svg>