<svg id="Layer_1" data-name="Layer 1" xmlns="http://www.w3.org/2000/svg" viewBox="0 0 400 400"><defs><style>.cls-1,.cls-12,.cls-26{fill:#2b2b2b;}.cls-1,.cls-10,.cls-11,.cls-12,.cls-13,.cls-14,.cls-15,.cls-16,.cls-17,.cls-18,.cls-19,.cls-2,.cls-20,.cls-21,.cls-22,.cls-23,.cls-24,.cls-25,.cls-26,.cls-3,.cls-4,.cls-5,.cls-6,.cls-7,.cls-8,.cls-9{fill-rule:evenodd;}.cls-1{opacity:0.1;}.cls-2{fill:#44622d;}.cls-3{fill:#709c52;}.cls-4{fill:#35785e;}.cls-5{fill:#54af8a;}.cls-6{fill:#fbe3d4;}.cls-7{fill:#f4cab2;}.cls-8{fill:#5a753d;}.cls-9{fill:#6f7273;}.cls-10{fill:#848585;}.cls-11{fill:#4f5353;}.cls-12{opacity:0.2;}.cls-13{fill:#ebebea;}.cls-14{fill:#cecdcc;}.cls-15{fill:#98c16c;}.cls-16{fill:#d8e156;}.cls-17{fill:#b7c644;}.cls-18{fill:#c18f7c;}.cls-19{fill:#9b6532;}.cls-20{fill:#7c5023;}.cls-21{fill:#af7546;}.cls-22{fill:#cc9262;}.cls-23{fill:#fff0e8;}.cls-24{fill:#e5e97b;}.cls-25{fill:#c3c3c3;}</style></defs><title>diplomats_INFP_famous_fictional_konstantin_levin_anna_karenina</title><polygon class="cls-1" points="317.89 387.48 225.37 400 111.71 387.64 221.76 378.71 317.89 387.48"/><polygon class="cls-2" points="252.5 379.32 237.41 384.76 238.76 392.48 273.31 392.17 274.66 384.61 252.5 379.32"/><polygon class="cls-3" points="251.32 356.33 245.74 367.22 237.41 384.76 274.66 384.63 270.25 367.37 251.32 356.33"/><polygon class="cls-2" points="160.45 373.42 143.46 379.09 143.63 387.33 177.78 388.39 185.39 384.23 187.24 388.62 197.47 388.39 197.98 380.23 182.09 374.1 160.45 373.42"/><polygon class="cls-3" points="179.38 351.34 171.86 359.35 143.46 379.09 197.98 380.23 194.01 362.08 179.38 351.34"/><polygon class="cls-4" points="234.24 317.01 230.35 336.21 245.74 367.22 270.25 367.37 267.21 330.17 234.24 317.01"/><path class="cls-5" d="M220.38,279.65,215,302.34l15.38,33.87,36.86-6-3-38.32,4.15-16.11s-17.77-9.19-19.09-8.64S220.38,279.65,220.38,279.65Z"/><polygon class="cls-4" points="183.53 308.39 170 323.81 171.86 359.35 194.01 362.08 204.15 332.13 183.53 308.39"/><path class="cls-5" d="M184.71,269.52l-16.43,7.1L170,323.81l34.15,8.32L215,302.34,214.12,281S185.47,269.3,184.71,269.52Z"/><path class="cls-4" d="M184.71,269.52l9.64,13.53L215,302.34l33.59-33.55s-20.91-11.19-22.26-11.07S184.71,269.52,184.71,269.52Z"/><polygon class="cls-6" points="105.59 201.54 95.45 203.8 82.11 193.18 87.61 177.06 104.75 180.82 105.59 201.54"/><polygon class="cls-7" points="120.47 185.5 104.75 180.82 95.45 203.8 111.34 206.38 118.79 202.27 120.47 185.5"/><polygon class="cls-6" points="128.58 210.76 127.42 197.15 121.31 170.42 114.04 171.74 114.04 194.18 118.79 202.27 128.58 210.76"/><polygon class="cls-8" points="142.95 219.91 167.3 231.86 173.38 227.7 182.51 214.16 173.21 170.38 142.95 219.91"/><polygon class="cls-9" points="225.37 261.65 213.79 268.08 202.62 276.35 186.48 269.82 188.52 225.42 199.84 229.97 211.56 226.65 221.95 231.33 225.37 261.65"/><polygon class="cls-10" points="188.52 225.42 190.29 186.8 217.25 189.66 221.95 231.33 214.81 231.64 199.84 229.97 188.52 225.42"/><path class="cls-11" d="M265.86,262.18l-17.3,6.61-21.92,8.51-12.85-9.22,1-36.44L225.11,225s7.14-.74,14.5-7.78c1.08,4.67,1.82,8,1.82,8Z"/><path class="cls-9" d="M214.82,231.64l.83-19.07.93-11.72s13.47-13.25,15-13c1.1.17,5.47,18.43,8,29.35a63,63,0,0,0-11,13.6Z"/><polygon class="cls-2" points="265.01 281.54 264.23 291.85 292.74 280.18 278.54 258.25 265.01 281.54"/><polygon class="cls-6" points="265.69 266.42 248.56 268.79 264.23 291.85 269.75 280.48 265.69 266.42"/><polygon class="cls-8" points="241.68 220.89 228.66 230.8 248.56 268.79 270.25 255.38 280.73 224.98 241.68 220.89"/><polygon class="cls-2" points="276.89 236.13 280.73 224.98 258.11 222.61 260.67 246.76 276.89 236.13"/><polygon class="cls-3" points="283.1 220.89 269.32 228.45 248.56 268.79 269.75 280.48 304.24 235.41 283.1 220.89"/><polygon class="cls-8" points="181.84 220.06 173.79 227.09 168.28 276.62 194.35 283.05 199.84 229.97 181.84 220.06"/><polygon class="cls-3" points="245.23 166.45 250.19 162.39 273.04 167.81 269.32 228.45 228.66 230.8 241.43 190.34 245.23 166.45"/><polygon class="cls-12" points="270.64 206.98 269.32 228.45 258.79 229.06 257.24 214.39 270.64 206.98"/><polygon class="cls-3" points="193.67 200.32 199.84 229.97 173.79 227.09 173.21 170.38 197.18 160.29 193.67 200.32"/><polygon class="cls-13" points="206.39 198.79 215.65 212.57 224.61 201.46 230.61 188.98 247.71 164.42 240.72 151.29 199.76 153.59 185.22 191.4 202.34 188.06 206.39 198.79"/><polygon class="cls-14" points="199.6 188.68 206.39 198.79 212.73 189.18 224.61 201.46 234.67 188.98 239.83 179.26 192.49 172.5 186.66 187.65 189.52 191.33 199.59 191.17 199.6 188.68"/><path class="cls-15" d="M199.76,153.59l.08,76.38-21.05-34.34S197.88,151,197.9,150.11,199.76,153.59,199.76,153.59Z"/><polygon class="cls-16" points="215.39 173.78 208.46 179.38 194.92 177.11 199.7 166.06 212.77 169.81 215.39 173.78"/><polygon class="cls-17" points="215.31 178.54 212.27 181.49 199.55 200.48 189.36 185.43 212.52 175.65 215.31 178.54"/><polygon class="cls-18" points="183.69 144.72 212.77 172.15 237.98 151.89 234.41 143.53 183.69 144.72"/><path class="cls-19" d="M255.88,153.51,252.13,136s-17.84,14.45-16.87,13.77,5.46,1.66,5.46,1.66Z"/><polygon class="cls-20" points="255.54 130.18 259.53 140.28 240.72 151.45 222.67 129.7 252.67 127.64 255.54 130.18"/><polygon class="cls-19" points="255.04 106.17 255.88 118.72 259.53 140.28 239.89 126.07 242.51 105.85 255.04 106.17"/><polygon class="cls-20" points="256.73 91.67 267.17 112.38 255.88 118.72 247.6 110.86 240.54 96.05 256.73 91.67"/><path class="cls-7" d="M221.39,67.84c.77-1,4.15,46.31,4.15,46.31l8.91-10.64,3.34-38Z"/><path class="cls-21" d="M242,91l-8.91,55.77H208.17L216.52,112l9.6-10.52s9.67-28.74,9.14-30.21,9.16,8.57,9.16,8.57Z"/><polygon class="cls-7" points="245.15 104.02 247.6 110.86 240.72 151.45 212.77 172.15 233.11 146.76 233.78 133.47 235.51 98.94 245.15 104.02"/><polygon class="cls-18" points="242.44 93.62 235.51 98.94 247.6 110.86 249.12 101.56 242.44 93.62"/><polygon class="cls-6" points="246.88 79.63 237.07 80.26 235.51 98.94 249.12 101.56 251.91 85.25 246.88 79.63"/><polygon class="cls-18" points="242.1 82.8 240.6 95.85 249.41 87.11 242.1 82.8"/><polygon class="cls-19" points="254.15 75.02 258.97 83.73 267.17 112.38 237.07 80.26 254.15 75.02"/><polygon class="cls-20" points="244.01 55.07 228.62 71.93 237.07 80.26 258.71 84.49 267.55 57.99 244.01 55.07"/><polygon class="cls-19" points="240.33 22.82 251.15 23.33 267.55 57.99 228.62 71.93 230.69 43.11 240.33 22.82"/><polygon class="cls-21" points="198.91 8.28 229.34 0 251.15 23.33 228.62 71.93 191.3 42.6 177.44 25.53 198.91 8.28"/><polygon class="cls-22" points="173.55 8.62 182.51 6.76 229.34 0 185.85 28.15 175.24 33.81 155.8 32.12 173.55 8.62"/><polygon class="cls-21" points="148.02 31.44 146.25 24.51 168.82 3.21 182.51 6.76 161.84 28.57 148.02 31.44"/><polygon class="cls-19" points="143.88 54.01 136.61 48.18 146.25 24.51 161.84 28.57 162.81 32.37 149.02 55.37 143.88 54.01"/><polygon class="cls-20" points="152.16 89.6 136.61 48.18 148.99 50.88 151.15 52.91 152.16 89.6"/><polygon class="cls-6" points="161.84 28.57 148.99 50.88 149.99 104.99 151.06 120.88 173.04 141.33 208.38 141.5 222.24 132.03 220.42 109.39 226.12 101.42 228.62 71.93 216.97 60.01 187.22 32.71 161.84 28.57"/><polygon class="cls-7" points="216.97 60.01 185.85 28.15 161.84 28.57 185.49 35.45 216.97 60.01"/><polygon class="cls-7" points="161.63 59.47 152.82 63.36 177.91 87.81 181.71 86.77 187.58 95.08 213.79 61.24 202.08 57.61 188.26 64.45 184.41 69.81 181.37 75.78 177.91 69.97 174.14 64.75 170.72 62.09 161.63 59.47"/><polygon class="cls-22" points="149.99 104.99 150.31 125.4 170.3 146.15 208.17 146.78 223.15 135.19 226.12 101.42 212.27 108.2 187.58 95.08 174.58 95.09 154.86 106.46 149.99 104.99"/><polygon class="cls-6" points="180.68 105.83 196.4 112.76 193.81 115.08 196.08 115.94 194.96 127.25 184.03 123.2 178.93 123.25 170.36 126.83 168.06 115.54 171.22 114.72 167.45 112.57 180.68 105.83"/><polygon class="cls-19" points="180.25 91.42 174.58 95.09 180.94 101.31 187.58 95.08 180.25 91.42"/><polygon class="cls-23" points="177.91 69.97 177.91 87.81 174.58 95.09 187.58 95.08 184.5 87.81 184.41 69.81 177.91 69.97"/><polygon class="cls-21" points="152.06 61.75 161.49 57.65 174.31 61.24 174.14 64.75 161.66 61.12 152.82 63.36 152.06 61.75"/><polygon class="cls-21" points="187.41 60.48 202.63 56.51 213.83 59.38 213.79 61.24 203.68 60.18 188.26 64.45 187.41 60.48"/><polygon class="cls-18" points="167.45 112.57 196.4 112.76 196.08 115.94 168.06 115.54 167.45 112.57"/><polygon class="cls-15" points="228.66 230.8 228.87 229.75 240.72 151.29 250.47 162.66 255.38 196.39 228.66 230.8"/><polygon class="cls-17" points="217 174.54 220.47 173.48 238.38 166.12 242.7 177.41 235.67 183.25 225.79 183.46 215.31 178.54 217 174.54"/><polygon class="cls-16" points="217.42 180.13 219.11 185.88 232.86 202.42 242.19 184.37 217.42 180.13"/><polygon class="cls-24" points="212.27 181.49 219.11 185.88 220.47 173.48 212.77 169.81 212.27 181.49"/><polygon class="cls-8" points="257.24 214.39 269.32 228.45 304.24 235.41 273.04 167.81 257.24 214.39"/><polygon class="cls-25" points="211.39 253.97 215.11 248.95 218.93 254.12 214.43 258.88 211.39 253.97"/><polygon class="cls-25" points="211.56 226.65 214.81 231.64 218.48 226.64 215.28 220.85 211.56 226.65"/><polygon class="cls-3" points="111.34 206.38 139.91 249.71 167.3 231.86 127.42 197.15 111.34 206.38"/><path class="cls-26" d="M205.51,72.12a4.29,4.29,0,1,1-4.29-4.29A4.29,4.29,0,0,1,205.51,72.12Z"/><path class="cls-26" d="M168.46,73a4.29,4.29,0,1,1-4.29-4.3A4.29,4.29,0,0,1,168.46,73Z"/><polygon class="cls-7" points="150.32 95.41 158.9 116.28 159.88 103.39 150.32 95.41"/><polygon class="cls-7" points="223.41 87.81 216.47 118.72 212.27 108.2 223.41 87.81"/><polygon class="cls-21" points="154.86 106.46 158.9 116.28 159.88 103.39 154.86 106.46"/><polygon class="cls-21" points="219.64 104.59 212.27 108.2 216.37 120.93 219.64 104.59"/></svg>