<svg id="Layer_1" data-name="Layer 1" xmlns="http://www.w3.org/2000/svg" viewBox="0 0 400 400"><defs><style>.cls-1,.cls-21{fill:#2b2b2b;}.cls-1,.cls-10,.cls-11,.cls-12,.cls-13,.cls-14,.cls-15,.cls-16,.cls-17,.cls-18,.cls-19,.cls-2,.cls-20,.cls-21,.cls-3,.cls-4,.cls-5,.cls-6,.cls-7,.cls-8,.cls-9{fill-rule:evenodd;}.cls-1,.cls-20{opacity:0.15;}.cls-2{fill:#f4c9b2;}.cls-3{fill:#c1907d;}.cls-4{fill:#165e60;}.cls-5{fill:#fce3d4;}.cls-6{fill:#35785d;}.cls-7{fill:#446125;}.cls-8{fill:#5a753d;}.cls-9{fill:#738c57;}.cls-10{fill:#51362a;}.cls-11{fill:#66483a;}.cls-12{fill:#709c53;}.cls-13{fill:#72c8a5;}.cls-14{fill:#54af8a;}.cls-15{fill:#3f8e6f;}.cls-16{fill:#d8e254;}.cls-17{fill:#e7ef78;}.cls-18{fill:#ffefe7;}.cls-19{fill:#98c16d;}.cls-20{fill:#33231b;}</style></defs><title>diplomats_INFP_famous_fictional_sybil_branson_downtown_abbey</title><polygon class="cls-1" points="143.83 386.59 206.88 400.5 270.71 385.17 207.86 374.33 143.83 386.59"/><polygon class="cls-2" points="203.73 362.76 176.18 384.56 209.49 384.56 222.21 362.84 216.22 319.49 190.6 323.28 203.73 362.76"/><polygon class="cls-3" points="221.94 360.91 219.58 343.83 197.79 344.9 203.12 360.92 207.2 360.22 206.81 356.75 221.94 360.91"/><polygon class="cls-4" points="190.59 373.16 176.18 384.56 209.49 384.56 210.93 382.12 206.23 370.21 200.14 378.82 190.59 373.16"/><polygon class="cls-5" points="203.36 326.38 207.71 364.73 206.23 370.21 204.52 388.13 221.71 389.2 223.49 371.21 223.05 365.93 234.77 326.38 203.36 326.38"/><path class="cls-3" d="M207,358.59l.18,1.63h0Zm-1.6-14.06,1.39,12.22,17.54,4.82,5.41-18.25Z"/><polygon class="cls-6" points="206.23 370.21 199.08 396.74 225.6 396.79 223.49 371.21 220.02 384.23 207.12 384.14 206.23 370.21"/><polygon class="cls-5" points="194.14 158.26 203.94 152.44 226.4 152.38 237.37 178.16 205.49 202.59 180.14 170.8 194.14 158.26"/><polygon class="cls-2" points="224.55 63.47 221.23 96.87 203.76 141.13 203.86 169.69 216.63 158.63 227.11 158.67 234.44 143.19 238.4 128.87 242.58 124.42 240.89 119.94 240.57 112.03 239.75 109.7 235.06 67.22 224.55 63.47"/><polygon class="cls-7" points="204.11 334.13 171.71 332.6 168.09 334.42 168.02 353.99 206.81 356.75 209.23 344.31 207.78 336.44 204.11 334.13"/><polygon class="cls-8" points="245.56 330.51 207.89 333.78 205.98 336.85 206.81 356.75 248.91 352.83 248.6 332.92 245.56 330.51"/><polygon class="cls-8" points="172.42 259.98 161.85 266.16 157.73 333.76 205.98 336.86 209.94 333.82 209.31 293.88 204.59 263.88 194.88 259.58 172.42 259.98"/><polygon class="cls-7" points="161.85 266.16 186.26 267.65 177.88 253.26 174.11 243.65 169.46 246.1 161.85 266.16"/><polygon class="cls-9" points="217.28 262.54 204.71 267.72 205 303.01 205.98 336.86 258.41 332.01 254.53 265.97 241.15 263.89 217.28 262.54"/><polygon class="cls-8" points="246.59 247.63 241.58 246.27 234.58 255.65 226.62 267.99 254.53 265.97 246.59 247.63"/><polygon class="cls-10" points="151.42 128.07 151.32 115.48 155.8 113.87 162.24 119.3 168.74 135.17 151.42 128.07"/><polygon class="cls-10" points="140.1 106.28 151.32 115.48 154.48 111.05 154.81 104.97 144.68 102.11 140.1 106.28"/><polygon class="cls-11" points="140.1 106.28 153.74 108.72 144.3 88.2 140.1 106.28"/><polygon class="cls-10" points="238.4 128.87 253.34 124.78 251.56 111.77 244.49 107.03 240.57 112.03 240.89 119.94 238.4 128.87"/><polygon class="cls-3" points="203.86 169.69 219.31 143.56 188.77 145.98 203.86 169.69"/><polygon class="cls-9" points="165.36 198.21 162.23 221.52 191.13 259.77 204.54 262.47 209.49 257.8 206.14 231.36 182.67 210.74 165.36 198.21"/><polygon class="cls-12" points="229.41 210 204.91 233.78 204.52 261.67 220.97 259.68 256.23 222.26 255.5 197.61 229.41 210"/><polygon class="cls-13" points="136.27 32.58 136.77 52.34 148.95 47.79 148.68 39.99 145.87 32.11 136.27 32.58"/><polygon class="cls-14" points="158.19 13.45 136.27 32.58 148.68 39.99 159.98 20.74 158.19 13.45"/><polygon class="cls-13" points="206.98 1.5 158.19 13.45 148.68 39.99 186.83 19.65 206.98 1.5"/><polygon class="cls-14" points="220.19 27.39 218.62 11.98 206.98 1.5 148.68 39.99 167.38 42.11 199.98 36.63 220.19 27.39"/><polygon class="cls-13" points="244.15 20.02 236.15 22.93 220.19 27.39 206.98 1.5 244.15 20.02"/><polygon class="cls-14" points="236.42 39.37 220.19 27.39 244.15 20.02 250.25 38.78 236.42 39.37"/><polygon class="cls-6" points="268.68 69.85 272.24 47.11 256.71 53.77 251.63 65.53 249.85 72.52 251.07 74.3 258.11 77.01 268.68 69.85"/><polygon class="cls-15" points="257.95 85.28 268.68 69.85 251.07 74.3 252.79 82.73 257.95 85.28"/><polygon class="cls-15" points="174.03 288.38 170.28 312.4 185.11 305.03 186.89 297.44 183.45 291.3 174.03 288.38"/><polygon class="cls-6" points="202.16 295.23 186.89 297.44 170.28 312.4 249.08 309.46 234.43 294.99 202.16 295.23"/><polygon class="cls-15" points="243.41 287.01 234.4 289.23 232.23 296.94 249.08 309.46 243.41 287.01"/><polygon class="cls-14" points="174.03 288.38 208.09 284.08 243.41 287.01 232.23 296.94 186.89 297.44 174.03 288.38"/><polygon class="cls-13" points="186.26 267.65 182 281.46 184.55 283.38 187.68 281.36 189.78 273.7 189.21 269.84 186.26 267.65"/><polygon class="cls-13" points="223.25 267.02 223.25 273.2 227.34 280.68 231.42 281.97 233.2 280.58 226.62 267.99 223.25 267.02"/><polygon class="cls-3" points="204.71 267.72 189.78 273.7 193.52 262.6 204.38 257.21 206.29 263.09 204.71 267.72"/><polygon class="cls-2" points="223.25 273.2 215.99 262.88 204.38 257.21 204.71 267.72 223.25 273.2"/><polygon class="cls-2" points="190.07 245.84 204.38 257.21 189.78 273.7 177.88 253.26 182.54 247.62 190.07 245.84"/><polygon class="cls-5" points="223.47 245.29 204.38 257.21 223.25 273.2 234.58 255.65 230.18 247.01 223.47 245.29"/><polygon class="cls-12" points="160.19 166.25 158.91 180.1 165.36 198.21 181.31 189.45 184.44 155.53 160.19 166.25"/><polygon class="cls-9" points="238.52 153.75 238.57 187.55 255.5 197.61 261.69 179.63 261.45 163.76 238.52 153.75"/><polygon class="cls-8" points="143.46 223.96 172.06 238.43 177.88 253.26 190.07 245.84 167.94 214.13 154.3 207.59 143.46 223.96"/><polygon class="cls-7" points="160.19 166.25 167.94 214.13 143.46 223.96 160.19 166.25"/><polygon class="cls-8" points="223.47 245.29 252.6 214.1 268.63 212.05 279.18 225.86 243.65 238.35 234.58 255.65 223.47 245.29"/><polygon class="cls-7" points="261.45 163.76 252.6 214.1 279.18 225.86 261.45 163.76"/><path class="cls-7" d="M143.46,224l34.41,29.3-1.14-16.4s-32.9-13.34-33.27-12.9"/><polygon class="cls-7" points="279.18 225.86 234.58 255.65 240.62 237.01 279.18 225.86"/><polygon class="cls-7" points="204.91 237.87 200.64 242 204.75 245.6 208.87 242.25 204.91 237.87"/><polygon class="cls-16" points="199.72 182.13 187.01 189.7 184.09 202.18 192.83 214.2 204.91 233.78 209.55 211.42 206.99 191.07 199.72 182.13"/><polygon class="cls-17" points="188.51 168.33 199.72 182.13 188.22 193.19 185.79 186.05 188.51 168.33"/><polygon class="cls-16" points="198.13 160.62 188.51 168.33 186.04 159.08 188.78 146 198.13 160.62"/><polygon class="cls-17" points="234.44 143.19 226.18 150.35 216.63 158.63 229.71 170.55 235.47 161.29 234.44 143.19"/><polygon class="cls-17" points="216.14 182.82 206.99 191.07 204.91 233.78 220.2 218.86 229.99 199.96 229.41 190.98 216.14 182.82"/><polygon class="cls-16" points="229.71 170.55 216.14 182.82 225.9 192.58 233.56 185.43 229.71 170.55"/><polygon class="cls-7" points="165.36 198.21 174.16 181.19 188.22 193.18 204.91 233.78 165.36 198.21"/><polygon class="cls-7" points="243.66 178.67 225.9 192.58 204.91 233.78 255.5 197.61 243.66 178.67"/><polygon class="cls-8" points="188.78 146 165.36 198.21 188.22 193.19 188.78 146"/><polygon class="cls-8" points="234.44 143.19 225.9 192.58 255.5 197.61 234.44 143.19"/><polygon class="cls-3" points="236.22 102.04 240.89 119.94 243.07 112.15 244.49 107.03 239.44 102.04 236.22 102.04"/><polygon class="cls-11" points="262.79 93 252.65 96.42 244.49 107.03 253.34 124.78 262.79 93"/><polygon class="cls-10" points="254.57 87.79 250.19 88.34 244.85 98.89 244.49 107.03 262.79 93 254.57 87.79"/><polygon class="cls-11" points="251.07 74.3 262.79 93 250.19 88.34 248.27 80.94 251.07 74.3"/><polygon class="cls-10" points="251.63 65.53 250.19 88.34 243.68 87.86 239.03 82.11 243.55 71.29 251.63 65.53"/><polygon class="cls-11" points="235.81 58.78 235.12 69.71 239.03 82.11 251.63 65.53 246.13 60.69 235.81 58.78"/><polygon class="cls-10" points="228.54 64.23 236.75 60.66 239.03 82.11 239.07 94.04 236.22 102.04 225.61 69.83 228.54 64.23"/><polygon class="cls-11" points="210.46 52.04 214.45 62.87 225.61 69.83 236.75 60.66 224.71 53.55 210.46 52.04"/><polygon class="cls-5" points="244.49 107.03 250.19 88.34 239.03 82.11 236.22 102.04 244.49 107.03"/><polygon class="cls-3" points="242.31 89.85 240.83 98.7 246.08 91.42 242.31 89.85"/><polygon class="cls-15" points="238.08 103.17 243.37 100.11 244.45 107.03 240.07 108.72 238.08 103.17"/><polygon class="cls-6" points="238.08 103.17 244.45 107.03 239.72 110.99 238.08 103.17"/><polygon class="cls-15" points="153.35 108.64 151.32 115.48 158.47 117.47 158.96 109.71 153.35 108.64"/><polygon class="cls-6" points="157.37 111.68 151.32 115.48 158.47 117.47 158.96 109.71 157.37 111.68"/><polygon class="cls-10" points="147.46 69.68 137.59 77.52 135.12 85.33 153.84 109.42 150.19 83.96 147.46 69.68"/><polygon class="cls-6" points="118.82 70.94 135.12 85.33 147.46 71.89 134.02 68.75 118.82 70.94"/><polygon class="cls-15" points="148.68 39.99 118.82 70.94 147.46 71.89 158.76 69.14 166.22 57.8 160.19 45.74 148.68 39.99"/><polygon class="cls-6" points="220.19 27.39 148.68 39.99 166.22 57.8 185.39 59.69 210.46 52.04 220.46 38.07 220.19 27.39"/><polygon class="cls-15" points="272.24 47.11 220.19 27.39 210.46 52.04 251.63 65.53 272.24 47.11"/><polygon class="cls-5" points="225.61 69.83 210.46 52.04 168.96 60.95 147.46 71.89 153.35 108.64 175.67 147.1 210.52 144.19 227.65 107.03 225.61 69.83"/><polygon class="cls-3" points="147.46 71.89 210.46 52.04 166.22 57.8 147.46 71.89"/><polygon class="cls-2" points="155.29 83.54 162.9 79.69 175.28 81.69 178.25 94.14 177.19 109.54 165.06 87.9 155.29 83.54"/><polygon class="cls-2" points="183.62 80.87 182.79 94.01 188.21 108.77 195.72 86.67 208.45 76.94 195.57 76.65 183.62 80.87"/><polygon class="cls-3" points="177.19 109.54 183.42 113.58 188.21 108.77 182.62 107.44 177.19 109.54"/><polygon class="cls-18" points="175.28 81.69 178.25 94.14 177.19 109.54 188.21 108.77 182.79 94.01 183.62 80.87 175.28 81.69"/><polygon class="cls-11" points="163.49 78.05 155.29 83.54 175.28 81.69 163.49 78.05"/><polygon class="cls-11" points="195.47 73.49 183.62 80.87 208.45 76.94 195.47 73.49"/><polygon class="cls-19" points="172.19 123.47 184.42 122.96 199.11 120.26 186.12 129.51 172.19 123.47"/><polygon class="cls-9" points="179.11 121.7 172.19 123.47 185.08 124.2 199.11 120.26 189.62 120.01 183.87 118.85 179.11 121.7"/><polygon class="cls-20" points="168.09 334.42 205.98 336.86 168.06 342.52 168.09 334.42"/><polygon class="cls-20" points="205.75 318.2 249.08 309.46 170.28 312.4 205.75 318.2"/><polygon class="cls-6" points="173.81 277.76 171.08 283.28 174.03 288.38 243.41 287.01 245.23 281.14 243.15 276.57 219.74 276.97 208.08 279.57 196.43 277.37 173.81 277.76"/><polygon class="cls-13" points="173.81 277.76 174.03 288.38 170.26 288.49 170.06 277.86 173.81 277.76"/><polygon class="cls-13" points="243.15 276.57 243.41 287.01 247.21 286.9 246.83 276.48 243.15 276.57"/><polygon class="cls-13" points="196.43 277.37 199.56 280.74 216.54 280.31 219.74 276.97 196.43 277.37"/><path class="cls-21" d="M166.09,87.86A4.37,4.37,0,1,1,161.48,92a4.36,4.36,0,0,1,4.61-4.13"/><path class="cls-21" d="M196.28,83.72a4.38,4.38,0,1,1-4.61,4.13,4.38,4.38,0,0,1,4.61-4.13"/></svg>