<svg id="illustration_layer_copy_5" data-name="illustration_layer copy 5" xmlns="http://www.w3.org/2000/svg" viewBox="0 0 400 400"><defs><style>.cls-1,.cls-2{fill:#c3c3c3;}.cls-13,.cls-15,.cls-16,.cls-18,.cls-19,.cls-2,.cls-20,.cls-21,.cls-23,.cls-24,.cls-7{fill-rule:evenodd;}.cls-3{fill:#738c57;}.cls-4,.cls-5{fill:#446125;}.cls-4{opacity:0.1;}.cls-20,.cls-6{fill:#9ca0a1;}.cls-7{fill:#6f7173;}.cls-23,.cls-8{fill:#f4c9b2;}.cls-9{fill:#c1907d;}.cls-10,.cls-16{fill:#cdcdcc;}.cls-11,.cls-15{fill:#ebebea;}.cls-12{fill:#5a753d;}.cls-13{fill:#474747;}.cls-14{fill:#709c53;}.cls-17,.cls-24{fill:#fce3d4;}.cls-18{fill:#4f5253;}.cls-19{fill:#a2a2a2;}.cls-21{fill:#dcdcdb;}.cls-22{fill:#2b2b2b;}.cls-25{fill:#ffefe7;}.cls-26{fill:#8e8e8e;}</style></defs><title>diplomats_INFP_famous_real_Wordsworth</title><polygon class="cls-1" points="148.78 20.77 176.68 0 231.71 2.67 238.65 28.63 148.78 20.77"/><polygon class="cls-2" points="143.72 73.36 134.73 72.42 132.7 87.04 146.83 97.81 143.72 73.36"/><polygon class="cls-3" points="207.29 299.98 195.44 333.46 169.81 331.53 156.13 321.74 158.18 269.41 189.95 280.58 207.29 299.98"/><polygon class="cls-4" points="109 386.43 218.01 370.63 309.23 387.08 200.57 400 109 386.43"/><polygon class="cls-5" points="158.3 169.55 128.47 225.84 160.53 228.17 161.05 199.69 158.3 169.55"/><polygon class="cls-3" points="207.29 299.98 226.53 337.12 244.68 341.85 261.85 333.46 258.43 289.7 247.15 259.27 207.29 299.98"/><polygon class="cls-5" points="163.99 273.02 207.29 299.98 247.15 269.41 201.26 256.36 179.86 269.87 163.99 273.02"/><polygon class="cls-5" points="265.34 170.81 284.99 244.7 250.34 240.3 265.34 170.81"/><polygon class="cls-6" points="233.96 161.59 225.1 184.41 196.4 240.79 182.54 162.44 204.57 165.17 233.96 161.59"/><polygon class="cls-7" points="192.55 181.28 190.86 184.93 192.11 186.76 190.47 188.83 191.5 194.23 190.47 199.56 190.47 204.86 191.59 206.71 196.58 220.62 197.09 208.71 199.51 203.59 196 198.94 197.49 194.56 196 190.66 199.51 184.32 198.47 182.04 192.55 181.28"/><polygon class="cls-8" points="213.9 64.76 222.62 125.56 203.62 163.89 233.43 158.39 248.91 110.13 254.93 99.74 256.91 85.17 256.91 85.17 231.36 25.07 213.9 64.76"/><polygon class="cls-9" points="248.91 110.13 236.44 107.56 244.15 124.97 248.91 110.13"/><polygon class="cls-9" points="244.4 103.41 244.14 91.74 254.04 84.88 244.4 103.41"/><polygon class="cls-10" points="196.58 220.62 207.96 251.29 203.25 268.96 198.57 280.5 158.96 273.02 182.01 161.15 196.58 220.62"/><polygon class="cls-11" points="196.58 220.62 233.96 161.59 260.25 263.44 210.05 280.5 203.25 268.96 196.58 220.62"/><polygon class="cls-12" points="233.96 161.59 222.11 238.63 217.09 286.09 247.15 269.41 252.76 251.05 255.04 236.28 265.34 170.81 240.97 163.6 236.66 162.47 233.96 161.59"/><polygon class="cls-12" points="182.94 164.19 179.86 165.17 158.3 169.55 154.67 285.13 183.14 286.88 182.83 236.28 182.94 164.19"/><polygon class="cls-3" points="284.99 244.7 264.87 280.74 256.01 279.56 247.15 269.41 255.04 236.28 284.99 244.7"/><polygon class="cls-8" points="247.15 269.41 264.87 280.74 258.73 293.71 247.15 269.41"/><polygon class="cls-12" points="226.53 337.12 261.85 333.46 264.87 369.92 251.02 371.67 239.38 366.77 226.53 337.12"/><polygon class="cls-12" points="195.44 333.46 156.13 321.74 160.7 359.37 172.91 366.17 184.82 364.27 195.44 333.46"/><polygon class="cls-5" points="239.38 366.77 233.17 385.83 247.2 387.08 268.86 385.83 264.87 369.92 239.38 366.77"/><rect class="cls-12" x="233.17" y="385.83" width="35.69" height="6.03"/><polygon class="cls-5" points="160.7 359.37 134.98 380.27 166.16 381.78 184.75 380.27 184.82 364.27 160.7 359.37"/><polygon class="cls-12" points="184.7 386.31 175.43 386.31 173.6 381.98 165.19 386.31 134.92 386.31 134.92 380.27 184.7 380.27 184.7 386.31"/><polygon class="cls-13" points="189.54 161.59 192.48 169.34 213.38 171.44 222.57 162.81 189.54 161.59"/><polygon class="cls-14" points="233.96 161.59 246.62 131.72 267.55 159.78 241.12 195.54 251.18 207.01 222.11 238.63 233.96 161.59"/><polygon class="cls-14" points="182.96 150.77 162.31 138.96 148.78 158.48 166.31 191.59 154.66 200.95 182.83 236.28 182.96 150.77"/><polygon class="cls-9" points="179.86 145.68 222.62 125.56 203.56 165.87 182.95 157.05 179.86 145.68"/><polygon class="cls-15" points="164.77 137.44 169.18 160.26 203.56 165.87 164.77 137.44"/><polygon class="cls-15" points="210.28 151.65 246.62 131.72 233.96 161.59 203.56 165.87 210.28 151.65"/><polygon class="cls-12" points="166.93 256.36 156.13 321.74 158.99 256.36 166.93 256.36"/><polygon class="cls-16" points="204.33 220.46 200.64 225.05 205.64 229.19 209.11 224.21 204.33 220.46"/><polygon class="cls-16" points="207.38 240.79 203.69 245.39 208.69 249.53 212.17 244.54 207.38 240.79"/><polygon class="cls-16" points="210.44 261.13 206.74 265.72 211.75 269.86 215.22 264.88 210.44 261.13"/><polygon class="cls-17" points="173.41 154.36 188.26 154.66 222.62 125.56 219.94 64.76 214.11 43.07 137.49 37.23 151.16 127.33 173.41 154.36"/><polygon class="cls-1" points="222.37 124.61 221.98 109.18 229.75 99.68 231.13 83.92 241.44 83.92 236.44 107.56 222.37 124.61"/><polygon class="cls-17" points="144.44 54.17 155.68 42.19 197.58 41.65 213.9 64.76 236.64 27.94 185.93 16.06 170.49 18.9 149.63 14.75 137.16 42.28 144.44 54.17"/><polygon class="cls-18" points="198.47 182.04 204.18 182.13 205.51 186.02 201.97 191.03 202.61 196.24 200.64 200.11 201.99 205.09 200.64 214.21 196.58 220.62 197.09 208.71 197.48 204.07 196 198.94 197.49 194.56 196 190.66 199.51 184.32 198.47 182.04"/><polygon class="cls-7" points="204.18 182.13 205.51 186.02 201.97 191.03 202.61 196.24 200.64 200.11 201.99 205.09 201.04 211.51 196.58 220.62 208.76 201.38 208.6 200.7 209.97 194.93 209.29 190.44 211.12 187.12 211.08 184.08 204.18 182.13"/><polygon class="cls-7" points="213.38 171.44 222.09 163.26 226.08 162.7 211 178.42 213.38 171.44"/><polygon class="cls-7" points="192.48 169.34 190.61 163.76 188.26 163.37 193.36 175.97 211 178.42 213.38 171.44 192.48 169.34"/><polygon class="cls-18" points="193.36 175.97 211 178.42 211.08 184.08 192.55 181.28 182.54 162.44 188.26 163.37 193.36 175.97"/><polygon class="cls-18" points="211 178.42 226.08 162.7 233.96 161.59 211.08 184.08 211 178.42"/><polygon class="cls-19" points="213.41 47.21 234.1 55.14 241.53 46.8 238.88 32.45 206.94 7.24 200.74 38.01 213.41 47.21"/><polygon class="cls-20" points="237.39 97.81 219.94 64.76 247.52 67.46 249.29 80.47 237.39 97.81"/><polygon class="cls-20" points="132.7 87.04 125.5 80.44 128.49 69.89 135.71 65.96 143.31 73.86 132.7 87.04"/><polygon class="cls-16" points="264 33.58 252.32 52.86 237.66 47.55 233.91 28.87 206.94 7.24 250.34 14.33 264 33.58"/><polygon class="cls-19" points="263.94 56.49 260.94 63.4 241.29 59.76 233.42 55.69 237.66 47.55 264 33.58 263.94 56.49"/><polygon class="cls-21" points="275.47 68.06 267.07 73.75 258.72 66.65 244.97 65.9 241.29 59.76 263.94 56.49 275.47 68.06"/><polygon class="cls-2" points="239.84 72.69 235.35 69.92 219.94 64.76 232.85 55.89 241.29 59.76 258.72 66.65 249.9 76.44 239.84 72.69"/><polygon class="cls-2" points="252.63 87.38 247.99 78.21 258.72 66.65 275.47 68.06 255.86 92.87 256.91 85.17 252.63 87.38"/><polygon class="cls-19" points="237.39 97.81 239.84 72.69 258.72 66.65 252.63 87.38 237.39 97.81"/><polygon class="cls-2" points="137.74 46.97 131.92 44.15 131.33 53.8 128.49 69.89 143.31 73.86 144.44 54.17 137.74 46.97"/><polygon class="cls-20" points="149.63 40.18 144.44 54.17 137.74 46.97 131.33 53.8 127.51 32.84 145.63 33.15 149.63 40.18"/><polygon class="cls-21" points="170.49 18.9 151.03 34.36 155.68 42.19 127.51 32.84 148.78 9.47 170.49 18.9"/><polygon class="cls-21" points="212.67 44.76 219.94 64.76 241.29 59.76 231.63 47.55 212.67 44.76"/><polygon class="cls-22" points="137.26 285.01 185.08 290.55 174.15 242.4 116.3 247.42 137.26 285.01"/><polygon class="cls-10" points="139.89 282.36 167.75 273.56 168.91 248.38 120.72 251.59 110.31 258.7 139.89 282.36"/><polygon class="cls-11" points="147.33 283.49 176.3 296.17 185.08 290.55 168.91 248.38 158.35 255.33 147.33 283.49"/><polygon class="cls-22" points="126.93 289 176.3 296.17 158.35 255.33 110.31 258.7 126.93 289"/><polygon class="cls-23" points="144.4 300.28 154.67 293.03 148.93 289.69 135.98 288.53 130.27 289.66 132.43 295.78 144.4 300.28"/><polygon class="cls-23" points="156.13 271.38 165.36 280.71 164.64 283.83 154.73 281.98 147.98 271.38 156.13 271.38"/><polygon class="cls-24" points="131.49 277.15 140.64 269.44 154.67 270.27 154.67 293.03 130.27 289.66 131.49 277.15"/><polygon class="cls-3" points="156.47 227.87 156.13 271.38 131.49 277.15 128.47 225.84 156.47 227.87"/><polygon class="cls-17" points="144.44 54.17 151.03 34.36 167.24 20.77 189.92 20.77 206.2 26.46 214.65 37.81 219.84 55.14 219.94 64.76 197.58 41.65 155.68 42.19 144.44 54.17"/><polygon class="cls-21" points="206.2 26.46 185.93 16.06 206.94 7.24 206.2 26.46"/><polygon class="cls-8" points="165.77 108.59 162.74 84.05 149 69.83 158.45 67.94 173.03 74.91 175.62 77.82 165.77 108.59"/><polygon class="cls-8" points="189.87 108.56 198.14 84.05 214.49 73.86 209.79 67.94 186.9 73.75 184.16 76.5 182.54 97.81 189.87 108.56"/><circle class="cls-22" cx="162.74" cy="84.05" r="4.29"/><circle class="cls-22" cx="198.14" cy="84.05" r="4.29"/><polygon class="cls-9" points="165.77 108.59 189.87 108.56 175.65 117.25 165.77 108.59"/><polygon class="cls-25" points="165.77 108.59 175.62 77.82 184.16 76.5 182.54 97.81 189.87 108.56 175.62 112.4 165.77 108.59"/><polygon class="cls-26" points="186.9 73.75 186.9 67.71 209.79 65.93 214.49 73.86 208.01 70.9 186.9 73.75"/><polygon class="cls-26" points="173.03 74.91 173.03 70.9 156.67 64.76 149 69.83 156.83 69.83 173.03 74.91"/><polygon class="cls-8" points="162.31 126.41 171.24 133.05 182.96 133.05 198.14 127.22 162.31 126.41"/><polygon class="cls-9" points="162.31 126.41 173.03 124.61 177.32 126.41 180.06 124.61 198.14 127.22 177.32 129 162.31 126.41"/><polygon class="cls-8" points="178.91 154.47 180.8 150.22 182.19 154.53 178.91 154.47"/><polygon class="cls-8" points="172.55 142.54 179.52 138.81 188.54 142.7 179.52 141.57 172.55 142.54"/><polygon class="cls-8" points="193.85 110.21 201.24 118.15 205.38 116.27 193.85 110.21"/><polygon class="cls-8" points="163.19 52.01 177.22 57.04 196.46 50.3 177.22 52.77 163.19 52.01"/><polygon class="cls-8" points="162.31 111.19 158.45 116.27 156.5 114.18 162.31 111.19"/></svg>