<svg id="Layer_1" data-name="Layer 1" xmlns="http://www.w3.org/2000/svg" viewBox="0 0 400 400"><defs><style>.cls-1{fill:#f4cab2;}.cls-2{fill:#c18f7c;}.cls-3{fill:#2c2b2b;opacity:0.1;isolation:isolate;}.cls-4{fill:#44622d;}.cls-5{fill:#5a753d;}.cls-6{fill:#738c57;}.cls-7{fill:#3f8e6f;}.cls-8{fill:#54af8a;}.cls-9{fill:#35785e;}.cls-10{fill:#74c7a5;}.cls-11{fill:#eaeceb;}.cls-12{fill:#fbe3d4;}.cls-13{fill:#dddddc;}.cls-14{fill:#98c16c;}.cls-15{fill:#33231b;}.cls-16{fill:#51362a;}.cls-17{fill:#fff0e8;}.cls-18{fill:#2b2b2b;}</style></defs><title>diplomats_ENFP_famous_fictional_michael_scott_the_office</title><polygon class="cls-1" points="151.17 155.24 154.4 149.25 149.01 148.32 135.59 149.75 151.17 155.24"/><polygon class="cls-2" points="166.56 176.03 165.32 166.85 163.1 158.75 137.42 165.2 151.98 178.91 162.51 188 166.56 176.03"/><polygon class="cls-3" points="172.14 383.46 247.71 400 310.65 383.37 244.36 375.98 172.14 383.46"/><polygon class="cls-4" points="240.87 386.88 264.28 380.27 277.64 386.88 277.64 392.14 240.87 392.14 240.87 386.88"/><polygon class="cls-4" points="200.67 375.98 237.68 369.36 251.04 375.98 251.04 381.24 200.67 381.24 200.67 375.98"/><polygon class="cls-5" points="229.46 351.47 227.38 357.23 200.67 375.98 252.51 375.98 250.18 356.86 229.46 351.47"/><polygon class="cls-6" points="256.43 356.37 246.99 364.34 240.87 386.88 277.64 386.88 273.21 372.43 256.43 356.37"/><polygon class="cls-7" points="220.76 311.15 215.37 320.95 227.38 357.23 246.99 364.34 255.68 322.37 220.76 311.15"/><polygon class="cls-8" points="200.91 263.11 197.66 270.71 215.37 320.95 238.9 326.84 241.6 292.77 214.91 263.75 200.91 263.11"/><polygon class="cls-9" points="244.29 311.15 238.9 326.84 246.99 364.34 273.21 372.43 276.64 316.79 244.29 311.15"/><polygon class="cls-7" points="230.57 274.14 228.85 286.64 238.9 326.84 276.64 316.79 279.4 285.78 274.69 252.32 230.57 274.14"/><polygon class="cls-9" points="247.72 257.47 241.29 280.69 228.85 286.64 216.17 278.61 213.66 248.89 247.72 257.47"/><path class="cls-7" d="M128.63,194.25l4-5.83,16.93-11.71L149,148.33l-27.65-.78L117.53,183l11.1,11.24Zm9.48-22.58-.23,3.76-9,3.82-.28-11.51,9.34-9.92Z"/><polygon class="cls-1" points="128.83 155.86 149.16 156.06 149.45 170.38 137.88 175.43 132.92 160.69 128.89 177.96 124.27 165.32 128.83 155.86"/><polygon class="cls-8" points="112.69 141.52 136.21 141.59 131.86 198.65 112.69 198.89 108.18 159.64 112.69 141.52"/><polygon class="cls-10" points="89.34 141.45 112.69 141.52 112.69 153.02 112.69 198.89 92.96 199.13 89.34 141.45"/><polygon class="cls-11" points="163.24 192.47 157.36 191.49 151.98 178.91 165.32 166.85 171.82 176.17 163.24 192.47"/><path class="cls-4" d="M213.9,154.1l-4.84-1.65-32.05,37,2.7,18.62,16.48,5s28.65-35.68,26.9-35.6S213.9,154.1,213.9,154.1Z"/><polygon class="cls-5" points="206 208.52 196.19 213.05 197.66 270.71 216.17 278.61 226.46 261.58 233.73 217.71 206 208.52"/><polygon class="cls-4" points="241.66 214.27 223.28 222.24 226.46 261.58 241.29 280.69 261.04 267.48 279.77 257.54 296.32 218.19 272.91 202.51 241.66 214.27"/><polygon class="cls-12" points="275.01 255.29 269.6 256.87 261.04 267.48 279.4 285.78 286.48 271.13 275.01 255.29"/><polygon class="cls-1" points="283.89 276.49 286.48 271.13 277.71 259.02 269.6 256.87 283.89 276.49"/><polygon class="cls-11" points="283.33 234.92 273.77 245.59 269.6 256.87 286.48 271.13 291.54 259.92 283.33 234.92"/><polygon class="cls-6" points="292.27 213.48 279.53 212.74 273.77 245.59 291.54 259.92 309.92 219.73 292.27 213.48"/><polygon class="cls-5" points="230.57 196.57 223.28 222.24 279.53 212.74 293.25 175.85 287.49 157.96 269.21 146.73 230.57 196.57"/><path class="cls-6" d="M216.29,170.4c1.65.06,3.3-23.4,3.3-23.4l-10.53,5.45-12.87,60.6,27.09,9.19Z"/><path class="cls-13" d="M220.82,156.68c-.65,0,25.86-4.17,25.86-4.17l9.93,31.74-26.47,22.3-13-12.25,1-29.41Z"/><polygon class="cls-7" points="235.29 170.89 230.26 178.8 219.35 197.97 223.28 222.24 241.78 199.57 238.41 179.41 235.29 170.89"/><path class="cls-9" d="M228.76,181.44,224.45,189,239,202.92l2.74-3.35-1.23-7.34-11.79-10.79Zm-9.25,17.5c3.37,3.22,9.78,9.33,12.79,12.24l-9,11.06Z"/><polygon class="cls-14" points="251.22 164.15 249.32 177.02 223.28 222.24 269.11 184.37 270.26 147.37 251.22 164.15"/><polygon class="cls-14" points="225.6 158.64 221.19 173.96 223.28 222.24 205.63 183.27 219.59 147 225.6 158.64"/><polygon class="cls-9" points="225.79 164.64 230.26 178.8 238.41 179.41 248.83 163.23 231.61 153.67 225.79 164.64"/><polygon class="cls-9" points="227.7 163.42 229.47 166.9 240.6 176.02 245.8 167.94 241.84 161.08 231.57 156.64 228.87 158.84 227.7 163.42"/><polygon class="cls-11" points="230.63 149.57 235.71 161.58 249.32 177.02 270.26 147.37 267.45 145.65 230.63 149.57"/><polygon class="cls-11" points="219.41 144.11 221.19 173.96 235.71 161.58 231.12 145.52 219.41 144.11"/><polygon class="cls-2" points="203.98 132.89 235.71 161.58 259.81 151.4 268.76 141.32 268.03 123.6 203.98 132.89"/><path class="cls-1" d="M275.09,95.68l1.24,11.3-6.93,40.39-11.14,4.68,2.54-20.55-8.54,1.25L209,38.83s30-26.63,31.69-22.2S273.17,56,273.17,56Z"/><polygon class="cls-2" points="265.18 91.5 276.33 106.98 279.12 91.5 265.18 91.5"/><polygon class="cls-15" points="265.83 28.94 286.19 39.54 282.33 72 271.63 78.1 260.45 78.1 260.17 55.23 265.83 28.94"/><polygon class="cls-15" points="235.99 23.27 243.84 32.68 260.17 55.23 286.19 39.54 264.5 13.36 235.99 23.27"/><polygon class="cls-15" points="166.5 30.97 155.94 45.21 167.63 71.46 190.01 46.4 166.5 30.97"/><polygon class="cls-16" points="159.06 27.16 199.92 2.03 254.4 0 264.5 13.36 243.84 32.68 192.28 34.68 159.06 27.16"/><polygon class="cls-15" points="172.83 43.57 167.63 41.39 159.06 27.16 243.84 32.68 192.27 46.77 172.83 43.57"/><polygon class="cls-12" points="167.63 41.39 167.63 71.46 175.3 117.77 189.98 137.92 252.26 132.75 243.84 32.68 194.41 41.39 167.63 41.39"/><polygon class="cls-2" points="191.78 113.7 211.42 112 225 106.78 212.64 115.1 191.78 113.7"/><polygon class="cls-1" points="183.54 66.52 173.77 70.8 186.13 78.1 199.82 93.37 208.96 97.56 223.64 73.23 235.99 66.08 223.41 62.06 211.02 71.9 206.18 77.05 204.21 82.71 200.67 77.33 195.36 72.22 187.14 66.88 183.54 66.52"/><polygon class="cls-2" points="204.35 91.72 199.56 98.17 204.42 101.5 208.96 97.56 204.35 91.72"/><polygon class="cls-17" points="200.67 77.33 199.56 98.17 208.96 97.56 206.18 77.05 200.67 77.33"/><polygon class="cls-15" points="197.54 74.31 196.19 67.72 183.84 64.35 174.22 67.87 173.77 70.8 183.72 67.2 197.54 74.31"/><polygon class="cls-15" points="210.51 66.94 222.99 60.83 234.99 63.37 235.99 66.08 223.56 63.61 209.94 73.05 210.51 66.94"/><polygon class="cls-1" points="187.9 56.21 200.92 56.35 218.05 50.98 201.22 58.75 187.9 56.21"/><polygon class="cls-1" points="182.7 51.78 198.54 54.46 206.88 50.98 198.07 52.24 182.7 51.78"/><polygon class="cls-1" points="192.44 109.61 186.34 117.26 186.99 109.09 192.44 109.61"/><polygon class="cls-1" points="224.57 103.26 233.63 108.92 231.34 102.21 224.57 103.26"/><polygon class="cls-12" points="265.18 91.5 266.88 71.13 282.33 72 279.12 91.5 265.18 91.5"/><polygon class="cls-2" points="270.29 74.85 268.87 87.61 279.12 75.5 270.29 74.85"/><polygon class="cls-4" points="279.53 212.74 287.49 157.96 293.25 161.15 309.92 219.73 279.53 212.74"/><polygon class="cls-6" points="170.88 226.96 196.19 213.05 171.82 176.17 157.36 191.49 170.88 226.96"/><polygon class="cls-11" points="96.76 87.76 92.83 100.12 98.17 105.6 98.03 113.46 102.24 101.53 97.04 97.31 96.76 87.76"/><polygon class="cls-11" points="106.31 103.63 101.25 117.25 107.58 125.26 107.86 140.99 113.33 121.89 107.01 114.17 106.31 103.63"/><polygon class="cls-11" points="116.27 94.45 112.76 109.76 119.64 118.05 117.67 127.03 118.94 141.08 121.04 126.05 124.27 115.8 116.27 105.27 116.27 94.45"/><path class="cls-7" d="M92.49,147.86l1.59,11.33,1.83.11.8-4.37.76,4.37h1.41l2.18-12.09h-2l-.91,7-.51-3.6-1.61-.34-.8,3.86-.82-7.2-2,.9Zm8.76,6.39,1.09-5.33,2.25-1.85,2.08.87,1.24,4.41-.5,5.64-2.84,2L102,158.43l-.71-4.18Zm4.31-2.56-1.86.36,0,3.74,1.9-.09-.06-4Zm2.74-5.59-.12,13.54,1.71.09.16-2.83,2.3,3,2.41.26-3.26-5.66,1.16-6.09-4.36-2.31Zm1.86,5.57.11-2,1.12.47-1.23,1.5Zm5.6-4.45v9.85l2.57-.51,0,3.17-3.86-.17L113.73,147l2,.18Zm2.68,12.86,1.16-14.33,3.52,3.61-.32,4.41-4.36,6.31Zm2.47-10.3-.33,3.95,1.26-2.15-.93-1.8Zm3.08-1.56,0-1.79.75-.8.83.63,0,2.17-.69,2-.75-.6.53-1.21-.69-.42Zm1.88,10,.88-3.2,3.3,1.34-1-2-2.43-3,.66-3.81,4.68-.44-.63,3-2.38-.47.17,1.62,1.88,1.37,1.09,2.51-1.17,3.65-5.06-.57Zm-24.76,19-.38-13.7,4.5.89-.91,4.56,1.9,3.38-5.11,4.87Zm1.12-11.27.06,1.84,1.28-1.64-1.34-.2Zm.32,5.36.16,2.23,1.42-1.55-1.58-.68Zm3.94-7.67-.17,12.88,4.61.1,0-3.34h-2.82v-1.72l2.56.09,0-2.75h-2.61v-1.8l3.08.09v-3.45l-4.74-.1Zm4.84,11.63.89-3.19,3.29,1.34-1-2-2.43-3,.66-3.81,4.69-.44-.64,3-2.38-.48.17,1.62,1.88,1.37,1.09,2.51-1.17,3.65-5.06-.57Zm8.72-8,.11,9.49,1.76.33-.11-10,2.28-.16,0-2.81-6.78.91.1,2.88,2.59-.65Zm-19.65,27-.38-13.7,4.49.88-.9,4.56,1.89,3.38-5.1,4.88ZM101.52,183l0,1.85,1.28-1.65-1.33-.2Zm.32,5.36.16,2.23,1.42-1.54-1.58-.69Zm3.71,0,1.09-5.33,2.25-1.85L111,182l1.24,4.42-.51,5.64-2.84,2-2.61-1.54-.71-4.18Zm4.32-2.56-1.87.36,0,3.74,1.89-.09,0-4Zm2.56,6.52.89-3.2,3.29,1.34-1-2-2.43-3,.66-3.82,4.68-.44-.63,3-2.38-.47.17,1.62,1.88,1.37,1.08,2.5-1.16,3.66-5.07-.57Zm6.14,0,5.06.57,1.17-3.65-1.09-2.51-1.88-1.37-.17-1.62,2.38.48.64-3-4.68.44-.67,3.82,2.43,3,1,2-3.29-1.33Z"/><path class="cls-9" d="M112.69,192.33v-.93l.63-2.3,3.29,1.34-1-2-2.43-3,.66-3.81,4.68-.44-.63,3-2.38-.47.17,1.62,1.88,1.37,1.08,2.5-1.16,3.65-4.81-.53Zm0-16.92v-3.16l2.82,1.15-1-2-1.83-2.29v-4.16l.06-.39,4.69-.44-.64,3-2.38-.48.17,1.62,1.88,1.37,1.09,2.51-1.17,3.65-3.7-.41Zm0-15.47v-3.38l2.07,3.6-2.07-.22Zm3.07-12.72-2-.18.69,12.52,3.85.17.06-3.17-2.57.51v-9.85Zm2.68,12.86,1.16-14.33,3.52,3.61-.32,4.41-4.36,6.31Zm2.47-10.3-.33,3.95,1.26-2.15-.93-1.8Zm3.08-1.56,0-1.79.75-.8.83.63,0,2.17-.69,2-.75-.6.53-1.21-.69-.42Zm1.88,10,.88-3.2,3.3,1.34-1-2-2.43-3,.66-3.81,4.68-.44-.63,3-2.38-.47.17,1.62,1.88,1.37,1.09,2.51-1.17,3.65-5.06-.57Zm-5.82,9,.11,9.49,1.76.33-.11-10,2.28-.16,0-2.81-6.78.91.1,2.88,2.59-.65Zm-1.48,25.09,5.06.57,1.17-3.65-1.09-2.51-1.88-1.37-.17-1.62,2.38.48.64-3-4.68.44-.67,3.82,2.43,3,1,2-3.29-1.33Z"/><polygon class="cls-12" points="163.1 158.75 154.4 149.25 142.65 158.52 149.33 164.46 163.1 158.75"/><path class="cls-18" d="M223.64,69.12a4.12,4.12,0,1,1-4.33,4.11A4.23,4.23,0,0,1,223.64,69.12Z"/><path class="cls-18" d="M187,73.23a4.12,4.12,0,1,1-4.33,4.11A4.22,4.22,0,0,1,187,73.23Z"/></svg>