<svg id="Layer_1" data-name="Layer 1" xmlns="http://www.w3.org/2000/svg" viewBox="0 0 400 400"><defs><style>.cls-1,.cls-21{fill:#2b2b2b;}.cls-1{opacity:0.1;}.cls-2{fill:#35785e;}.cls-3{fill:#f4cab2;}.cls-4{fill:#fbe3d4;}.cls-5{fill:#474748;}.cls-6{fill:#593e35;}.cls-7{fill:#fff0e8;}.cls-8{fill:#c18f7c;}.cls-9{fill:#66493b;}.cls-10{fill:#664a3c;}.cls-11{fill:#51362a;}.cls-12{fill:#412b23;}.cls-13{fill:#709c52;}.cls-14{fill:#44622d;}.cls-15{fill:#5a753d;}.cls-16{fill:#3f8e6f;}.cls-17{fill:#98c16c;}.cls-18{fill:#6a1e2d;}.cls-19{fill:#8c2d41;}.cls-20{fill:#3e141a;}.cls-22{fill:#ebebea;}</style></defs><title>diplomats_ENFP_famous_fictional_Spider_Man</title><polygon class="cls-1" points="88.25 383.63 194.56 368.17 288.63 392.24 188.44 400 88.25 383.63"/><polygon class="cls-2" points="151.39 235.44 192.27 273.45 236.92 232.71 167.5 229.77 151.39 235.44"/><g id="head"><polygon class="cls-3" points="213.93 157.65 228.75 107.64 237.69 52.8 213.93 32.34 206.33 120.54 183.12 136.65 183.12 136.65 189.12 157.65 213.93 157.65"/><polygon class="cls-4" points="156.42 136.65 183.12 136.65 206.33 120.54 213.93 32.34 134.45 30.15 139.67 115.39 156.42 136.65"/><polygon class="cls-3" points="178.73 93.75 189.03 72.94 205.6 68.16 198.6 61.43 174.14 68.59 171.85 71.88 178.73 93.75"/><polygon class="cls-3" points="157.38 93.75 164.24 71.88 160.13 67.45 144.06 59.92 139.35 68.26 151.79 72.85 157.38 93.75"/><circle class="cls-5" cx="152.79" cy="72.85" r="3.9"/><circle class="cls-5" cx="189.03" cy="72.94" r="3.9"/><polygon class="cls-6" points="174.14 68.59 173.54 64.24 198.6 61.43 206.33 66.59 205.6 68.16 197.99 63.84 174.14 68.59"/><polygon class="cls-6" points="160.13 67.45 160.13 63.43 144.06 59.92 138.75 66.45 139.35 68.26 144.51 62.43 160.13 67.45"/><polygon class="cls-7" points="157.38 93.75 178.73 93.75 171.85 71.88 164.24 71.88 157.38 93.75"/><polygon class="cls-8" points="157.38 93.75 167.3 99.18 178.73 93.75 157.38 93.75"/><polygon class="cls-5" points="154.97 110.59 161.58 109.14 183.12 110.59 173.98 114.37 161.34 114.05 154.97 110.59"/><polygon class="cls-8" points="154.97 110.59 164.48 106.64 168.06 107.53 172.69 106.64 183.12 110.59 154.97 110.59"/><polygon class="cls-3" points="154.97 110.59 161.01 117.06 175.59 117.06 183.12 110.59 172.37 112.12 164.24 112.2 154.97 110.59"/><polygon class="cls-3" points="158.76 122.59 169.39 120.17 179.78 122.59 169.27 121.7 158.76 122.59"/><polygon class="cls-4" points="222.95 72.85 239.7 77.44 228.75 107.64 216.83 107.64 222.95 72.85"/><polygon class="cls-8" points="228.75 107.64 215.7 115.37 216.83 107.64 228.75 107.64"/><polygon class="cls-8" points="163.51 136.65 168.06 159.34 189.12 157.65 200 136.65 163.51 136.65"/><polygon class="cls-8" points="226.33 84.4 232.37 85.65 226.33 95 226.33 84.4"/><polygon class="cls-3" points="169.27 126.21 167.99 127.3 169.27 128.26 170.4 127.24 169.27 126.21"/><polygon class="cls-9" points="166.89 34.19 196.61 36.37 207.59 20 193.05 10.48 173.54 17.28 166.89 34.19"/><polygon class="cls-6" points="196.61 36.37 205.6 54.24 220.29 58.84 224.88 45.79 207.59 20 197.18 27.14 196.61 36.37"/><polygon class="cls-10" points="207.59 20 226.22 14.65 238.7 38.53 235.99 48.45 224.88 45.79 207.59 20"/><polygon class="cls-11" points="224.88 45.79 220.29 58.84 216.83 84.4 220.54 86.51 222.95 72.85 233.34 75.45 224.88 45.79"/><polygon class="cls-12" points="224.88 45.79 235.99 48.45 238.7 38.53 247.45 54.66 239.7 77.44 233.34 75.45 224.88 45.79"/><polygon class="cls-11" points="151.79 32.74 141.04 43.37 133.69 36.37 143.93 27.14 158.97 30.18 151.79 32.74"/><polygon class="cls-12" points="141.04 43.37 137.18 75.83 128.13 36.37 133.69 36.37 141.04 43.37"/><polygon class="cls-10" points="133.69 36.37 143.93 27.14 134.75 21.35 128.13 36.37 133.69 36.37"/><polygon class="cls-12" points="134.75 21.35 154.94 11.75 160.2 23.1 158.97 30.18 143.93 27.14 134.75 21.35"/><polygon class="cls-10" points="154.94 11.75 165.93 0.5 163.51 6.54 160.2 23.1 154.94 11.75"/><polygon class="cls-12" points="163.51 6.54 165.93 0.5 193.54 0.52 193.05 10.48 173.54 17.28 163.51 6.54"/><polygon class="cls-11" points="193.05 10.48 193.54 0.52 226.22 14.65 207.59 20 193.05 10.48"/><polygon class="cls-6" points="166.89 34.19 173.54 17.28 163.51 6.54 160.2 23.1 158.97 30.18 150.76 28.52 143.09 46.21 164.24 33.65 166.89 34.19"/></g><polygon class="cls-13" points="224.52 143.82 245.46 145.56 262.53 161.35 258.5 164.25 230.32 156.84 203.74 183.34 206.96 187.44 194.56 237.7 174.99 242.05 157.51 237.7 156.87 199.2 142.85 173.75 135.12 173.27 130.93 169.73 124.01 176.17 131.42 160.54 158.76 151.36 224.52 143.82"/><polygon class="cls-14" points="164.65 143.82 197.03 143.82 192.43 152.12 158.76 151.36 164.65 143.82"/><polygon class="cls-15" points="197.03 143.82 220.07 136.93 224.52 143.82 192.43 152.12 197.03 143.82"/><polygon class="cls-5" points="262.53 161.35 266.24 169.24 260.6 172.3 226.29 164.73 213.93 176.65 202.61 220.63 207.44 224.49 235.47 222.07 236.92 232.71 194.56 237.7 206.96 187.44 203.74 183.34 230.32 156.84 258.5 164.25 262.53 161.35"/><polygon class="cls-5" points="124.01 176.17 130.93 169.73 135.12 173.27 142.85 173.75 156.87 199.2 157.51 237.7 151.39 235.44 154.13 198.88 140.76 176.65 135.6 175.85 124.81 184.22 124.01 176.17"/><polygon class="cls-2" points="202.61 220.63 207.44 224.49 235.47 222.07 246.75 183.34 226.29 164.73 213.93 176.65 202.61 220.63"/><polygon class="cls-5" points="205.35 226.71 204.38 226.46 215.89 181.82 236.36 175.08 236.67 176.03 216.72 182.6 205.35 226.71"/><polygon class="cls-5" points="216.84 225.57 215.92 225.18 228.38 196.06 243.96 185.2 244.53 186.02 229.19 196.71 216.84 225.57"/><polygon class="cls-15" points="254.24 212.25 250.13 239.79 271.15 247.28 280.33 213.46 254.24 212.25"/><polygon class="cls-15" points="118.38 223.97 109.87 248.25 127.34 252.75 145.7 227.23 130.57 221.19 118.38 223.97"/><polygon class="cls-13" points="226.29 164.73 254.24 212.25 280.33 213.46 266.24 169.24 260.6 172.3 226.29 164.73"/><polygon class="cls-2" points="140.76 176.65 133.31 182.53 128.96 223.85 145.7 227.23 154.13 198.88 140.76 176.65"/><polygon class="cls-14" points="103.47 269.73 113.98 279.95 126.97 275.45 118.93 264.42 103.47 269.73"/><polygon class="cls-13" points="140.76 176.65 135.6 175.85 124.81 184.22 118.38 223.97 128.96 223.85 133.31 182.53 140.76 176.65"/><polygon class="cls-5" points="105.53 256.1 108.3 247.28 130.96 253.36 126.01 258.79 105.53 256.1"/><polygon class="cls-15" points="107.09 256.25 103.47 269.73 113.86 269.73 123.59 258.57 107.09 256.25"/><polygon class="cls-13" points="124.3 258.57 114.38 257.27 116.4 266.39 126.97 275.45 131.93 273.72 126.97 261.81 124.3 258.57"/><polygon class="cls-16" points="236.92 232.71 242.69 310.96 208.98 314.45 192.27 273.45 236.92 232.71"/><polygon class="cls-16" points="192.27 273.45 183.36 313 150.13 313 151.39 235.44 192.27 273.45"/><polygon class="cls-17" points="203.74 183.34 191.91 187.29 157.47 186.29 149.66 187.98 142.85 173.75 135.12 173.27 130.93 169.73 124.01 176.17 131.42 160.54 158.76 151.36 192.43 152.12 224.52 143.82 245.46 145.56 262.53 161.35 258.95 164.03 230.07 157.41 203.74 183.34"/><polygon class="cls-2" points="150.13 313 153.16 364.86 175.06 364.86 183.36 313 150.13 313"/><polygon class="cls-2" points="208.98 314.45 230.31 372.75 250.69 372.75 242.69 310.96 208.98 314.45"/><polygon class="cls-15" points="153.16 364.86 115.31 381.13 175.23 381.13 175.06 364.86 153.16 364.86"/><rect class="cls-14" x="115.31" y="381.13" width="59.92" height="4.99"/><polygon class="cls-15" points="230.31 372.75 217.48 387.73 257.7 387.73 250.69 372.75 230.31 372.75"/><rect class="cls-14" x="217.48" y="387.73" width="40.22" height="4.51"/><polygon class="cls-5" points="211.64 177.48 200.37 159.57 197.03 143.82 197.98 143.54 201.29 159.2 211.78 175.83 221.85 164.61 214.1 155.06 202.05 142.32 203.13 142 214.85 154.4 223.17 164.64 211.64 177.48"/><polygon class="cls-5" points="186.99 239.38 185.96 239.61 187.87 216.88 190.76 203.98 190.76 185.66 186.8 166.62 185.5 152.16 184 143.82 185.02 143.82 186.49 152.03 187.79 166.47 191.76 185.61 191.74 204.14 188.85 217.03 186.99 239.38"/><polygon class="cls-5" points="174.48 241.92 173.76 219.11 174.33 205.54 174.81 187.91 174.41 167.46 175.86 156.13 177.41 150.27 177.87 143.82 178.86 143.82 178.4 150.43 176.84 156.32 175.4 167.51 175.81 187.92 175.33 205.58 174.76 219.12 175.48 241.94 174.99 242.05 174.48 241.92"/><polygon class="cls-5" points="163.04 239.07 162.04 238.82 162.09 204.19 157 186.81 161.04 167.18 171.05 151.5 172.44 143.82 173.45 143.82 172.21 151.65 161.93 167.64 158.03 186.77 163.09 204.12 163.04 239.07"/><polygon class="cls-5" points="145.57 179.6 145.06 178.36 151.75 164.71 164.35 151.31 168.2 143.82 169.34 143.82 165.35 151.51 152.53 165.34 145.57 179.6"/><polygon class="cls-5" points="138.96 173.71 137.87 173.71 141.97 164.3 142.07 164.22 159.87 151.02 164.65 143.82 165.3 143.82 160.76 151.41 142.78 164.94 138.96 173.71"/><polygon class="cls-5" points="258.06 164.47 252.27 152.69 230.07 157.41 224.3 147.48 212.41 139.22 213.75 138.82 225.11 146.88 230.57 156.28 252.09 151.7 253.65 153.23 258.95 164.03 258.06 164.47"/><polygon class="cls-5" points="131.18 170.78 130.05 171.14 132.34 162.27 137.87 158.38 138.95 158.02 142.65 164.13 152.24 164.57 161.52 166.95 174.91 166.95 187.04 164.81 213.73 153.32 224.57 146.65 233.7 144.62 237.05 144.9 224.87 147.6 214.19 154.21 187.27 165.79 174.99 167.94 161.4 167.95 152.04 165.55 142.09 165.11 138.34 158.97 133.23 162.84 131.18 170.78"/><polygon class="cls-5" points="149.66 187.98 149.57 186.99 157.47 186.29 175.3 186.64 191.83 186.29 204.74 182.85 205 183.82 191.91 187.29 175.3 187.64 157.5 187.29 149.66 187.98"/><polygon class="cls-5" points="174.82 206.07 162.4 204.6 155.77 199.85 156.35 199.04 162.77 203.63 174.83 205.06 191.13 203.54 204.67 197.62 205.07 198.53 191.3 204.53 174.82 206.07"/><polygon class="cls-5" points="174.28 219.6 162.05 218.34 155.85 215.52 156.27 214.61 162.39 217.4 174.25 218.59 188.29 216.43 201.11 212.97 201.37 213.94 188.5 217.4 174.28 219.6"/><polygon class="cls-5" points="173.95 230.54 173.89 230.54 161.81 229.71 155.33 227.38 155.67 226.44 162.09 228.74 173.89 229.53 187.06 227.04 199.88 224.01 200.12 224.98 187.27 228.02 173.95 230.54"/><rect class="cls-5" x="212.55" y="196.73" width="16.28" height="1" transform="translate(-19.24 23.92) rotate(-5.94)"/><polygon class="cls-5" points="208.37 213.94 208.13 212.97 222.95 209.26 241.05 202.9 240.69 204.15 223.23 210.22 208.37 213.94"/><polygon class="cls-5" points="130.96 204.2 121.94 201.98 122.11 200.95 131.2 203.23 130.96 204.2"/><polygon class="cls-5" points="133.31 182.53 129.19 178.59 129.95 177.93 134.14 181.88 133.31 182.53"/><polygon class="cls-5" points="123.53 252.45 122.73 251.85 139.39 225.88 140.4 226.16 123.53 252.45"/><polygon class="cls-5" points="134.32 243.04 130.89 240.48 121.11 236.36 114.68 234.53 115.02 233.57 121.44 235.42 131.41 239.64 134.91 242.23 134.32 243.04"/><polygon class="cls-5" points="243.61 194.18 243.07 193.27 262.97 183.26 271.85 186.87 272.25 188.1 263.01 184.36 243.61 194.18"/><polygon class="cls-5" points="253.16 219.44 253.37 218.05 268.48 212.66 260.11 170.41 261.09 170.2 269.63 213.29 253.16 219.44"/><polygon class="cls-5" points="279.99 214.72 269.03 213.47 269.08 212.47 280.33 213.46 279.99 214.72"/><rect class="cls-5" x="253.62" y="228.74" width="34.01" height="1" transform="translate(-42.82 395.2) rotate(-68.17)"/><rect class="cls-5" x="244.66" y="229.75" width="28.11" height="1" transform="translate(2.23 462.98) rotate(-83.89)"/><polygon class="cls-5" points="273.8 237.28 268.29 235.26 258.38 234.12 251.04 235.77 250.82 234.79 258.33 233.1 268.58 234.3 274.14 236.34 273.8 237.28"/><polygon class="cls-5" points="113.72 248.76 112.88 248.22 128.04 224.36 118.21 224.47 118.48 223.47 129.88 223.34 113.72 248.76"/><polygon class="cls-5" points="200.86 247.91 206.58 233.43 207.51 233.79 202.43 246.66 237.56 241.38 237.63 242.38 200.86 247.91"/><polygon class="cls-5" points="203.99 302.2 203.59 301.23 225.9 285.95 218.63 248.67 219.61 248.48 227 286.41 203.99 302.2"/><polygon class="cls-5" points="241.27 291.77 229.31 286.53 222.09 247.37 223.08 247.19 230.2 285.83 241.19 290.64 241.27 291.77"/><polygon class="cls-5" points="223.47 335.55 214.88 300.84 205.39 305.64 205 304.68 215.55 299.39 224.44 335.31 223.47 335.55"/><polygon class="cls-5" points="238.19 334.72 233.67 293.93 241.68 297.29 241.76 298.46 234.85 295.51 239.19 334.61 238.19 334.72"/><polygon class="cls-5" points="151.2 247.19 151.22 246.19 166.08 245.63 154.13 236.17 155.33 235.44 168.91 246.52 151.2 247.19"/><polygon class="cls-5" points="150.47 291.86 150.49 290.65 157.02 286.39 158.3 249.3 159.3 249.33 158 286.94 150.47 291.86"/><polygon class="cls-18" points="275.15 310.64 260.29 268.36 245.67 292.28 265.85 307.14 275.15 310.64"/><polygon class="cls-19" points="287.06 296.75 275.15 310.64 256.41 274.71 265.97 267.51 287.06 296.75"/><polygon class="cls-20" points="245.67 292.28 236.01 261.23 246.61 253.74 248.81 256.16 260.29 268.36 245.67 292.28"/><polygon class="cls-5" points="268.98 299.22 248.4 287.46 240.87 261.37 241.83 261.09 249.25 286.79 268.73 297.92 278.76 285.24 279.36 286.08 268.98 299.22"/><polygon class="cls-5" points="185.61 303.01 160.22 286.57 161.2 249.3 162.2 249.33 161.24 286.04 185.85 301.94 185.61 303.01"/><polygon class="cls-5" points="172.46 332.89 171.47 332.74 176.55 299.8 184.97 305.87 184.73 306.93 177.29 301.56 172.46 332.89"/><rect class="cls-5" x="137.72" y="311.11" width="39.27" height="1" transform="translate(-157.13 463.15) rotate(-88.94)"/><polygon class="cls-5" points="277.6 307.78 257.13 268.05 263.82 266.61 284.51 299.72 283.83 300.51 263.34 267.74 258.62 268.75 278.31 306.98 277.6 307.78"/><polygon class="cls-5" points="265.85 307.14 262.96 295.64 253.84 278.25 251.09 267.64 252.06 267.39 254.79 277.94 263.92 295.37 266.92 307.54 265.85 307.14"/><polygon class="cls-13" points="242.75 261.13 249.98 247.28 267.8 250.82 270.41 263.67 242.75 261.13"/><polygon class="cls-15" points="242.75 261.13 239.87 269.67 242.35 273 264.2 275.66 269.64 272.45 270.41 263.67 242.75 261.13"/><polygon class="cls-15" points="248.82 249.51 236.01 261.23 242.75 261.13 248.82 249.51"/><polygon class="cls-5" points="249.98 247.28 250.13 239.79 273.08 243.54 269.7 252.36 249.98 247.28"/><polygon class="cls-21" points="262.22 275.73 252.44 282.98 250.38 288.41 250.99 294.45 259.08 296.14 264.64 292.88 265.85 286.72 265.85 279.84 262.22 275.73"/><polygon class="cls-22" points="260.29 281.65 254.37 286 253.53 292.52 257.51 293.73 262.22 287.69 260.29 281.65"/><g id="spider_logo" data-name="spider logo"><polygon class="cls-21" points="185.24 168.62 187.28 168.68 185.55 173.44 181.94 175.53 182.12 176.41 187.29 178.88 187.9 190.79 185.67 190.73 185.52 179.68 180.98 177.01 180.84 175.21 184.25 172.77 185.24 168.62"/><polygon class="cls-21" points="181.55 170.47 183.29 170.51 182.69 173.02 180.06 174.99 180.01 177.13 183.53 179.63 183.88 188.64 182.03 188.59 182.02 180.09 178.4 177.47 178.85 174.3 181.41 172.89 181.55 170.47"/><polygon class="cls-21" points="163.64 169.99 166.02 170.05 165.62 173.97 167.03 175.57 167.17 177.75 162.13 181.12 161.34 192.27 159.3 192.21 160.2 180.63 165.62 177.47 165.62 175.67 163.53 174.21 163.64 169.99"/><polygon class="cls-21" points="167.34 171.45 169.09 171.49 168.78 174.01 169.68 174.71 169.59 177.92 165.44 180.72 165.49 189.61 163.65 189.56 163.88 180.87 168.58 177.65 168.55 175.22 167.27 174.12 167.34 171.45"/><polygon class="cls-21" points="176.49 177.96 177.68 175.03 174.47 173.68 170.79 175.08 171.09 178.35 166.5 180.89 167.24 188 173.94 191.49 180.51 187.49 180.41 180.1 176.49 177.96"/></g><polygon class="cls-14" points="175.06 364.86 180.69 329.69 151.22 329.25 153.16 364.86 175.06 364.86"/><polygon class="cls-14" points="250.69 372.75 245.57 333.25 216.03 333.71 230.31 372.75 250.69 372.75"/><polygon class="cls-5" points="150.39 298.06 150.39 296.84 158.21 291.26 158.21 292.6 150.39 298.06"/></svg>