<svg id="Layer_1" data-name="Layer 1" xmlns="http://www.w3.org/2000/svg" viewBox="0 0 400 400"><defs><style>.cls-1{fill:#f4c9b2;}.cls-2{fill:#fce3d4;}.cls-3{fill:#2c2b2b;fill-opacity:0.1;}.cls-4{fill:#35785d;}.cls-5{fill:#3f8e6f;}.cls-6{fill:#5a753d;}.cls-7{fill:#709c53;}.cls-8{fill:#446125;}.cls-9{fill:#9d8d56;}.cls-10{fill:#738c57;}.cls-11{fill:#eaeceb;}.cls-12{fill:#e0e2e2;}.cls-13{fill:#c1907d;}.cls-14{fill:#c1b170;}.cls-15{fill:#e1ce7f;}.cls-16{fill:#ffefe7;}.cls-17{fill:#2b2b2b;}</style></defs><title>diplomats_ENFP_famous_fictional_piper_chapman_orange_is_the_new_black</title><polygon class="cls-1" points="285.05 190.81 281.76 182.78 293.08 164.9 298.43 166.6 296 179.62 285.05 190.81"/><polygon class="cls-2" points="279.69 195.44 287.73 199.33 309.87 188.62 310.48 180.23 299.4 178.77 281.76 182.78 279.69 195.44"/><polygon class="cls-1" points="121.4 202.98 121.03 194.34 104.73 179.98 101.81 183.15 107.04 195.8 121.4 202.98"/><polygon class="cls-3" points="119.21 384.87 199.27 379.16 274.71 385.12 194.52 400.21 119.21 384.87"/><polygon class="cls-4" points="227.86 376.97 214.48 387.8 214.48 392.54 247.33 392.3 247.33 387.43 227.86 376.97"/><polygon class="cls-4" points="147.8 375.51 138.55 379.28 138.55 383.66 184.18 383.66 184.18 379.16 147.8 375.51"/><polygon class="cls-5" points="174.94 352.87 160.7 361.88 138.55 379.28 184.18 379.16 184.06 365.04 174.94 352.87"/><polygon class="cls-5" points="223.73 357.5 220.68 365.66 214.48 387.8 247.33 387.43 243.31 368.21 223.73 357.5"/><polygon class="cls-6" points="217.4 319.42 210.83 334.87 220.68 365.66 243.44 369.31 245.26 333.66 217.4 319.42"/><polygon class="cls-6" points="177.61 307.5 160.21 331.22 160.7 361.88 184.06 365.04 191.97 332.56 177.61 307.5"/><polygon class="cls-7" points="177.37 255.18 159.49 279.02 160.21 331.22 191.97 332.56 203.89 283.04 177.37 255.18"/><polygon class="cls-7" points="198.66 272.82 199.88 300.92 210.83 334.87 245.26 333.66 248.06 277.93 238.57 258.22 198.66 272.82"/><path class="cls-6" d="M174.69,267.22,159.36,279l40.52,21.89h0l48.18-23s-23.6-2.19-40.64-1c.85-3.17,1.46-5.6,1.34-6C208.15,269.41,174.69,267.22,174.69,267.22Z"/><polygon class="cls-8" points="171.77 248.12 158.87 262.48 193.19 281.82 226.65 268.8 238.57 258.22 171.77 248.12"/><polygon class="cls-8" points="166.91 225.73 156.44 221.35 139.04 208.33 161.43 166.84 181.63 193.73 166.91 225.73"/><polygon class="cls-2" points="123.59 205.78 110.33 207.24 90.01 203.59 89.89 196.65 99.62 194.22 121.03 194.34 123.59 205.78"/><polygon class="cls-1" points="90.01 203.59 76.75 190.33 80.4 182.9 99.62 194.22 90.01 203.59"/><polygon class="cls-1" points="121.03 194.34 162.52 216.97 157.42 240.94 110.33 207.24 121.03 194.34"/><polygon class="cls-6" points="168.61 187.77 155.22 202.74 159.49 279.02 194.4 285.35 194.4 285.35 206.2 198.12 186.74 188.62 168.61 187.77"/><polygon class="cls-8" points="194.4 285.35 230.66 280.37 248.06 277.93 249.64 225.12 258.89 196.04 248.91 165.63 218.25 190.08 204.38 197.26 193.19 205.41 194.4 285.35"/><polygon class="cls-8" points="248.91 165.63 277.75 205.66 249.64 225.12 248.91 165.63"/><polygon class="cls-9" points="160.82 135.57 158.27 141.9 161.43 166.84 227.74 173.66 187.47 124.63 160.82 135.57"/><polygon class="cls-7" points="179.32 165.99 171.41 159.06 161.43 166.84 155.22 202.74 193.19 205.41 210.59 195.44 188.81 167.21 189.66 164.29 193.06 159.54 179.32 165.99"/><polygon class="cls-10" points="193.19 205.41 249.4 207.73 248.91 165.63 241.85 145.43 226.28 143.97 193.06 159.54 189.66 164.29 188.81 167.21 193.06 185.58 193.19 205.41"/><polygon class="cls-11" points="182.35 150.78 171.41 159.06 193.06 185.58 201.09 169.88 193.67 160.64 182.35 150.78"/><polygon class="cls-12" points="193.06 185.58 242.46 139.22 216.55 131.56 203.77 135.21 192.58 157.84 192.94 175.72 193.06 185.58"/><polygon class="cls-13" points="213.87 145.92 192.82 171.71 170.19 135.21 224.09 134.12 213.87 145.92"/><polygon class="cls-2" points="215.69 79.85 216.31 100.65 239.06 106.25 237.35 81.31 215.69 79.85"/><polygon class="cls-13" points="235.41 105.28 230.17 95.79 219.47 94.81 215.33 115.86 237.72 126.57 235.41 105.28"/><polygon class="cls-1" points="193.67 118.42 194.04 141.54 210.59 141.05 192.82 171.71 226.28 143.97 233.7 108.08 219.47 94.81 220.2 78.14 202.68 66.34 193.67 118.42"/><polygon class="cls-9" points="252.07 87.27 255.97 117.69 248.91 165.63 238.32 155.53 226.52 144.22 231.39 78.88 252.07 87.27"/><polygon class="cls-14" points="216.55 49.19 207.91 76.81 255.97 117.69 256.82 68.05 216.55 49.19"/><polygon class="cls-15" points="188.93 8.55 229.93 10.98 256.82 68.05 207.91 76.81 150.24 42.49 188.93 8.55"/><polygon class="cls-15" points="182.6 6.12 183.45 -0.21 155.34 1.74 124.69 23.15 147.32 45.78 182.6 6.12"/><polygon class="cls-14" points="155.71 41.16 157.53 30.45 183.45 -0.21 229.93 10.98 175.91 34.47 155.71 41.16"/><polygon class="cls-14" points="143.42 50.89 116.78 63.06 124.69 23.15 157.53 30.45 143.42 50.89"/><polygon class="cls-9" points="143.42 46.39 129.8 48.83 116.78 63.06 140.02 95.42 143.42 46.39"/><polygon class="cls-2" points="129.8 48.83 135.88 108.32 150.84 142.02 194.04 141.54 207.91 107.35 207.91 76.81 184.43 47 175.66 38.36 157.53 30.45 129.8 48.83"/><polygon class="cls-1" points="184.43 47 175.91 34.47 157.53 30.45 184.43 47"/><polygon class="cls-1" points="145.01 69.14 135.39 74.01 148.53 82.28 158.63 99.2 163.62 95.3 167.76 103.45 180.04 80.33 196.11 71.45 186 66.1 170.44 71.33 165.81 79.36 162.89 91.65 160.94 79.36 156.69 72.06 145.01 69.14"/><polygon class="cls-1" points="161.8 116.59 148.9 116.72 165.08 125.11 182.6 115.5 161.8 116.59"/><polygon class="cls-13" points="161.55 98.22 158.15 103.82 163.62 107.71 167.76 103.45 161.55 98.22"/><polygon class="cls-14" points="156.69 72.06 143.18 66.1 135.39 74.01 144.27 70.23 156.69 72.06"/><polygon class="cls-14" points="170.44 71.33 187.34 64.27 196.11 71.45 185.89 68.9 170.44 71.33"/><polygon class="cls-16" points="160.94 79.36 158.15 103.82 167.76 103.45 165.81 79.36 160.94 79.36"/><polygon class="cls-13" points="149.14 116.72 155.34 116.59 164.23 115.25 175.79 115.86 182.6 115.5 164.35 120.24 149.14 116.72"/><path class="cls-8" d="M201.7,188.62v7.67l1.83.36.24-8Zm3.16.73.13,7.06,1.83.12-.25-3.65,1.83,3.9,1.82.12-.12-7.3-1.83-.25.13,3.65-1.47-3.53-2.07-.24h0Zm7.06.61-.36,6.94,1.82.24.12-4,.49,2.68,1.7.12.62-2.31v3.9l1.94.24-.49-7.42-2.07-.13-1,2.92-1-3.16h-1.83Zm9.74-.12-2.19,7.42,1.7.36,1.34-5.35,1.33,5.35,2-.36-2.31-7.3-1.71-.12h-.12Zm6.69,2.68-2.68.24-.12-1.82h6.94v1.7l-2.32-.12.13,6.2-1.83-.36-.12-5.84Zm5.48-1.83-.13,7.91,4.75.36V196.9l-2.92-.25v-1.09l2.67.24v-1.7l-2.67-.24v-1.1l3.16.24v-2.06l-4.86-.37Z"/><polygon class="cls-1" points="249.64 225.12 269.96 242.53 287.73 199.33 281.76 182.78 249.64 225.12"/><circle class="cls-17" cx="149.02" cy="81.55" r="4.14"/><path class="cls-17" d="M179,76.56a4.14,4.14,0,1,1-4.13,4.14A4.14,4.14,0,0,1,179,76.56Z"/><polygon class="cls-1" points="178.71 86.66 186.25 90.8 180.04 91.53 178.71 86.66"/><polygon class="cls-1" points="151.57 87.27 145.49 92.99 151.21 92.99 151.57 87.27"/><polygon class="cls-1" points="309.87 188.62 323.25 179.5 319.96 171.1 299.4 178.77 309.87 188.62"/></svg>