<svg id="Layer_2" data-name="Layer 2" xmlns="http://www.w3.org/2000/svg" viewBox="0 0 400 400"><defs><style>.cls-1{fill:#7f6f4c;}.cls-2{fill:#f1e49a;}.cls-3{fill:#54af8a;}.cls-4,.cls-6{fill:#2b2b2b;}.cls-4{opacity:0.1;}.cls-5{fill:#4f5253;}.cls-7{fill:#6f7173;}.cls-8{fill:#35785d;}.cls-9{fill:#f4c9b2;}.cls-10{fill:#3f8e6f;}.cls-11{fill:#9fce7e;}.cls-12{fill:#fce3d4;}.cls-13{fill:#c1907d;}.cls-14{fill:#72c8a5;}.cls-15{fill:#c1b274;}.cls-16{fill:#a09160;}.cls-17{fill:#ffefe7;}.cls-18{fill:#e7ef78;}.cls-19{fill:none;}.cls-20{fill:#446125;}.cls-21{fill:#98c16d;}.cls-22{fill:#5a753d;}</style></defs><title>diplomats_ENFP_famous_fictional_jennifer_keller_stargate_atlantis</title><polygon class="cls-1" points="173.6 129.97 166.72 146.37 165.91 161.24 178.46 158.68 194.5 138.37 187.53 125.61 173.6 129.97"/><polygon class="cls-2" points="160.5 137.83 154.35 148.72 156.06 163.74 167 161.24 172.13 144.84 160.5 137.83"/><polygon class="cls-3" points="164.28 146.45 154.35 148.72 129.46 208.44 154.35 203.03 164.28 146.45"/><polygon class="cls-4" points="126.61 383.31 202.19 370.14 273.39 385.81 196.44 400.17 126.61 383.31"/><polygon class="cls-5" points="206.3 366.72 197.36 358.11 187.71 361.04 164.56 375.88 188.02 378.47 206.93 375.88 208.31 370.73 206.3 366.72"/><rect class="cls-6" x="164.56" y="375.88" width="42.37" height="6.96"/><polygon class="cls-7" points="225.5 363.42 233.16 385.04 223.75 387.6 196.63 385.04 206.3 366.72 214.22 358.11 225.5 363.42"/><rect class="cls-6" x="196.63" y="385.04" width="36.53" height="6.96"/><polygon class="cls-8" points="148.81 251.12 187.71 323.85 236.16 251.85 188.66 246.47 148.81 251.12"/><path class="cls-9" d="M184.56,141l-2.2,1.65-2.26,4.75v3.27l3,3.13s9.37-.23,10.13,0,8.53-3.2,8.53-3.2l5.4-17.34Z"/><polygon class="cls-10" points="150.27 186.62 157.02 225.92 208.43 202.46 215.86 186.62 177.59 176.36 150.27 186.62"/><polygon class="cls-11" points="180.25 151.07 199.78 151.07 183.91 186.62 175.68 186.62 171.36 186.62 180.25 151.07"/><polygon class="cls-12" points="146.75 48.43 151.42 101.74 173.6 129.97 201.48 129.97 220.91 104.81 224.42 49.02 216.55 36.69 177.29 21.75 155.48 36.35 146.75 48.43"/><polygon class="cls-9" points="203.97 156.82 212.19 156.82 253.8 84.67 240.04 73.6 224.42 49.02 220.91 104.81 200.58 129.97 203.97 156.82"/><polygon class="cls-13" points="180.81 129.97 183.06 151.07 199.78 151.07 214.02 129.97 180.81 129.97"/><polygon class="cls-14" points="181.72 142.88 164.28 146.45 150.27 186.62 175.68 186.62 180.1 167.94 178.69 149.93 181.72 142.88"/><polygon class="cls-14" points="184.97 196.37 129.46 208.44 142.11 232.73 184.12 213.56 184.97 196.37"/><polygon class="cls-12" points="184.97 196.37 208.43 202.46 184.12 213.56 184.97 196.37"/><polygon class="cls-3" points="175.68 186.62 205.63 142.44 237.99 139.39 215.86 186.62 175.68 186.62"/><polygon class="cls-15" points="216.44 148.33 207.15 163.16 220.69 175.95 233.85 156.68 244.79 154.02 261.52 139.37 267.89 98.1 265.2 70.22 253.97 51.04 261.52 31.99 230.31 0.45 195.07 2.8 172.93 2.13 146.75 24.94 144.86 38.18 151.92 31.7 177.29 21.75 231.66 62.02 240.04 73.6 253.8 84.67 216.44 148.33"/><polygon class="cls-14" points="237.99 139.39 252.31 170.27 223.21 225.92 208.43 202.46 237.99 139.39"/><polygon class="cls-10" points="157.02 225.92 148.81 251.62 236.16 252.43 223.21 225.92 166.8 221.46 157.02 225.92"/><polygon class="cls-14" points="236.16 251.85 219.06 315.6 206.93 328.24 206.3 366.72 169.74 322.2 187.71 274.11 236.16 251.85"/><polygon class="cls-10" points="187.71 323.85 206.3 366.72 225.5 363.42 219.06 315.6 187.71 323.85"/><polygon class="cls-3" points="187.71 274.11 148.81 251.12 169.74 322.2 187.71 323.85 187.71 274.11"/><polygon class="cls-8" points="206.3 366.72 187.71 323.85 169.74 322.2 187.71 361.04 206.3 366.72"/><polygon class="cls-16" points="163.22 116.94 160.5 137.83 172.13 144.84 173.6 129.97 163.22 116.94"/><polygon class="cls-3" points="208.43 202.46 223.21 225.92 218.18 233.39 166.8 221.46 208.43 202.46"/><polygon class="cls-17" points="176.57 67.73 176.49 82.67 174.24 91.89 183.13 91.89 180.37 83.16 180.32 67.73 176.57 67.73"/><polygon class="cls-13" points="174.24 91.89 179.06 96.47 183.87 91.89 174.24 91.89"/><polygon class="cls-16" points="185.93 60.24 190.63 54.83 201.67 54.83 210.58 57.17 201.9 56.72 185.93 60.24"/><polygon class="cls-16" points="171.98 60.24 168.41 54.83 160.03 54.83 153.7 57.17 159.85 56.72 171.98 60.24"/><polygon class="cls-9" points="171.98 60.24 176.57 67.73 176.49 82.67 165.13 68.39 153.7 57.17 159.85 56.72 171.98 60.24"/><polygon class="cls-9" points="185.93 60.24 180.32 67.73 180.37 83.16 183.13 91.89 194.39 68.42 210.58 57.17 201.9 56.72 185.93 60.24"/><polygon class="cls-12" points="240.04 73.6 238.98 94.18 248.31 94.18 253.8 84.67 240.04 73.6"/><polygon class="cls-13" points="238.98 94.18 242.77 103.46 248.31 94.18 238.98 94.18"/><polygon class="cls-16" points="231.66 62.02 240.04 73.6 265.2 70.22 261.52 31.99 198.11 21.75 215.29 37.72 231.66 62.02"/><polygon class="cls-1" points="240.04 73.6 253.8 84.67 267.89 98.1 265.2 70.22 240.04 73.6"/><polygon class="cls-16" points="230.31 0.45 198.11 21.75 177.29 21.75 195.07 2.8 230.31 0.45"/><polygon class="cls-16" points="244.79 154.02 216.44 148.33 242.77 103.46 261.52 139.37 244.79 154.02"/><polygon class="cls-1" points="206.83 164.03 220.69 175.95 215.86 186.62 206.83 164.03"/><polygon class="cls-2" points="151.92 31.7 146.75 24.94 136.35 46.09 146.75 48.43 151.92 31.7"/><polygon class="cls-15" points="146.75 48.43 136.35 46.09 149.99 83.99 146.75 48.43"/><polygon class="cls-18" points="157.47 165.98 177.59 157.2 176.35 148.72 160.77 156.52 157.47 165.98"/><polygon class="cls-18" points="201.73 148.19 214.02 159.8 211.41 167.94 196.81 155.44 201.73 148.19"/><polygon class="cls-19" points="241.79 190.19 241.79 190.19 230.82 181.45 241.79 190.19"/><polygon class="cls-19" points="243.29 187.31 243.3 187.31 238.66 183.62 243.29 187.31"/><polygon class="cls-20" points="245.56 182.97 246.31 181.54 240.08 176.52 239.08 177.77 239.09 177.78 239.1 177.77 245.56 182.97"/><polygon class="cls-21" points="239.09 177.78 238.1 179.02 244.81 184.42 245.56 182.98 239.09 177.78"/><polygon class="cls-21" points="245.56 182.97 239.1 177.77 239.09 177.78 245.56 182.98 245.56 182.97"/><polygon class="cls-20" points="236.86 180.08 236.89 180.1 236.88 180.08 244.05 185.86 244.81 184.42 237.86 178.83 236.86 180.08"/><polygon class="cls-21" points="236.89 180.1 238.22 183.27 238.66 183.62 243.3 187.31 244.05 185.87 236.89 180.1"/><polygon class="cls-21" points="244.05 185.86 236.88 180.08 236.89 180.1 244.05 185.87 244.05 185.86"/><polygon class="cls-20" points="238.22 183.27 238.22 183.27 232.54 178.74 231.67 180.08 242.54 188.75 243.29 187.31 238.66 183.62 238.22 183.27"/><polygon class="cls-20" points="238.66 183.62 238.22 183.27 238.22 183.27 238.66 183.62"/><polygon class="cls-21" points="231.67 180.08 230.82 181.45 241.79 190.19 242.54 188.75 231.67 180.08"/><polygon class="cls-21" points="242.54 188.75 231.67 180.08 242.54 188.75 242.54 188.75"/><polygon class="cls-20" points="229.98 182.76 241.04 191.63 241.79 190.19 230.82 181.45 229.98 182.76"/><polygon class="cls-21" points="229.98 182.76 229.1 184.09 240.28 193.07 241.03 191.63 229.98 182.76"/><polygon class="cls-21" points="241.04 191.63 229.98 182.76 241.03 191.63 241.04 191.63"/><polygon class="cls-22" points="232.54 178.74 238.22 183.27 241.72 177.8 236.06 173.2 232.54 178.74"/><polygon class="cls-18" points="157.38 202.37 150.06 203.96 146.12 221.46 139.09 226.94 142.11 232.73 157.02 225.92 157.38 202.37"/><polygon class="cls-18" points="223.21 225.92 210.16 223.38 193.22 209.41 184.12 213.56 199.78 229.12 218.18 233.39 223.21 225.92"/><polygon class="cls-1" points="239.39 86.11 232.6 76.7 231.66 62.02 240.04 73.6 239.39 86.11"/><polygon class="cls-22" points="149.74 159.7 154.94 158.08 152.64 166.56 144.94 171.29 149.74 159.7"/><polygon class="cls-12" points="157.38 202.37 146.76 193.32 135.98 207.02 157.38 202.37"/><polygon class="cls-16" points="206.83 164.03 221.78 156.82 244.79 154.02 252.31 170.27 220.69 175.95 206.83 164.03"/><polygon class="cls-1" points="206.83 164.03 244.79 154.02 216.44 148.33 206.83 164.03"/><polygon class="cls-3" points="170.06 105.8 173.82 109.4 185.76 109.4 191.32 105.6 179.61 104.86 170.06 105.8"/><polygon class="cls-10" points="169.88 105.8 191.5 105.58 193.5 104.11 189.41 103.68 183.09 101.59 179.25 102.92 175.59 101.63 167.46 104.86 169.88 105.8"/><polygon class="cls-9" points="189.67 95.69 193.5 104.11 194.04 110.05 198.09 104.27 189.67 95.69"/><polygon class="cls-9" points="170.88 95.69 167.46 104.5 167.46 109.4 163.99 104.19 170.88 95.69"/><polygon class="cls-13" points="244.58 77.25 244.24 87.57 249.65 81.33 244.58 77.25"/><polygon class="cls-16" points="177.29 21.75 155.48 36.35 146.75 48.43 151.92 31.7 177.29 21.75"/><polygon class="cls-10" points="188.34 167.94 205.33 142.88 224.42 134.73 216.44 148.33 188.34 167.94"/><polygon class="cls-10" points="180.81 129.97 172.13 144.84 180.1 167.94 183.06 151.07 180.81 129.97"/><path class="cls-6" d="M198.18,68.4a3.79,3.79,0,1,1-3.79-3.8A3.79,3.79,0,0,1,198.18,68.4Z"/><path class="cls-6" d="M168.92,68.4a3.79,3.79,0,1,1-3.79-3.8A3.79,3.79,0,0,1,168.92,68.4Z"/></svg>