<svg id="Layer_1" data-name="Layer 1" xmlns="http://www.w3.org/2000/svg" viewBox="0 0 400 400"><defs><style>.cls-1{fill:#fbe3d4;}.cls-1,.cls-10,.cls-11,.cls-12,.cls-13,.cls-14,.cls-15,.cls-16,.cls-17,.cls-18,.cls-19,.cls-2,.cls-20,.cls-21,.cls-22,.cls-23,.cls-3,.cls-4,.cls-5,.cls-6,.cls-7,.cls-8,.cls-9{fill-rule:evenodd;}.cls-2{fill:#35785e;}.cls-3{fill:#74c7a5;}.cls-4{fill:#2c2b2b;opacity:0.1;}.cls-5{fill:#b7c644;}.cls-6{fill:#d8e156;}.cls-7{fill:#3f8e6f;}.cls-8{fill:#54af8a;}.cls-9{fill:#c1b170;}.cls-10{fill:#9d8d56;}.cls-11{fill:#44622d;}.cls-12{fill:#709c52;}.cls-13{fill:#c18f7c;}.cls-14{fill:#f4cab2;}.cls-15{fill:#fff7ae;}.cls-16{fill:#444648;}.cls-17{fill:#686b6d;}.cls-18{fill:#e1ce7f;}.cls-19{fill:#5a753d;}.cls-20{fill:#fff;}.cls-21{fill:#98c16c;}.cls-22{fill:#fff0e8;}.cls-23{fill:#2b2b2b;}</style></defs><title>diplomats_ENFP_famous_real_kelly_clarkson</title><polygon class="cls-1" points="94.28 119.38 82.72 113.16 102.57 103.28 114.2 108.92 112.26 109.87 109.32 116.3 94.28 119.38"/><polygon class="cls-2" points="301.49 112.72 314.38 115.05 309.12 122.97 301.74 120.47 301.49 112.72"/><polygon class="cls-3" points="303.23 99.7 303.34 99.45 304.53 96.6 306.51 97.03 305.61 105.26 302.15 109.98 302.87 120.33 308.96 121.81 314.88 112 311.92 105.61 312.56 97.41 314.67 97.71 318.73 112.24 309.83 124.23 302.87 124.2 300.51 121.19 299.7 105.44 303.23 99.7"/><polygon class="cls-4" points="93.09 375.06 222.76 400 240.13 398.31 245.39 384.4 276.58 390.27 319.87 381.01 210.66 365.28 93.09 375.06"/><polygon class="cls-5" points="150.72 364.34 125.51 371.45 125.51 377.74 185.41 377.71 185.3 371.34 150.72 364.34"/><polygon class="cls-6" points="155.19 354.55 147.26 358.05 125.51 371.45 185.3 371.34 185.16 356.88 155.19 354.55"/><polygon class="cls-2" points="156.49 344.53 158.36 362.71 185.16 356.88 178.1 324.89 156.49 344.53"/><polygon class="cls-7" points="159.51 304.56 148.49 311.55 147.26 358.05 158.36 362.71 178.1 324.89 159.51 304.56"/><polygon class="cls-5" points="269.01 369.94 279.13 377.61 279.25 383.41 237.6 383.34 237.24 377.8 247.69 369.94 269.01 369.94"/><polygon class="cls-6" points="264.12 356.42 268.8 362.94 279.13 377.61 248.59 377.5 237.24 377.8 237.1 363.64 264.12 356.42"/><polygon class="cls-2" points="234.01 388.12 240.13 398.31 276.58 390.27 274.1 387.67 234.01 388.12"/><polygon class="cls-7" points="225.58 382.64 213.31 382.77 211.46 385.09 240.13 398.31 241.12 394.89 225.58 382.64"/><polygon class="cls-7" points="245.49 376.01 213.31 382.77 241.12 394.89 274.1 387.67 245.49 376.01"/><polygon class="cls-2" points="246.03 336.37 233.4 327.92 237.1 363.64 252.84 363.38 246.03 336.37"/><polygon class="cls-7" points="236.81 296.28 257.85 306.42 268.8 362.94 252.84 363.38 233.4 327.92 236.81 296.28"/><polygon class="cls-8" points="174.71 251.42 164.73 252.84 148.49 311.55 178.1 324.89 200.56 287.66 174.71 251.42"/><polygon class="cls-7" points="160.41 306.9 161.06 306.98 172.05 308.34 159.46 313.87 152.72 303.65 160.41 306.9"/><polygon class="cls-3" points="159.41 302.76 152.72 303.65 161.28 311.12 172.05 308.34 159.41 302.76"/><polygon class="cls-8" points="192 254.8 200.56 287.66 233.4 327.92 257.85 306.42 234.29 250.19 192 254.8"/><polygon class="cls-7" points="235.8 290.72 243.68 286.09 232.77 298.93 217.45 294.25 235.8 290.72"/><polygon class="cls-3" points="233.59 295.35 217.45 294.25 230.78 288.19 243.68 286.09 233.59 295.35"/><polygon class="cls-7" points="222.26 238.86 231.91 242.24 238.56 262.49 200.56 287.66 162.39 263.62 167.08 242.24 209.44 237.45 222.26 238.86"/><polygon class="cls-2" points="195.75 210.28 168.69 230.08 167.08 242.24 231.91 242.24 230.92 230.96 195.75 210.28"/><polygon class="cls-9" points="189.9 231.47 193.34 230.43 201.23 230.54 204.11 234.04 197.12 237 189.9 231.47"/><polygon class="cls-10" points="197.61 230.49 201.23 230.54 204.91 231.63 201.46 235.52 197.43 236.87 197.61 230.49"/><polygon class="cls-10" points="191.07 236.54 189.78 240.69 197.27 242.24 205.73 240.83 203.48 236.45 191.07 236.54"/><polygon class="cls-9" points="197.27 242.24 205.73 240.83 203.48 236.45 197.44 236.49 197.27 242.24"/><polygon class="cls-9" points="198.96 236.01 201.91 233.86 204.91 231.63 208.29 236.47 205.73 240.83 202.35 239 198.96 236.01"/><polygon class="cls-10" points="208.29 236.47 205.73 240.83 202.35 239 200.41 237.29 200.44 236.47 208.29 236.47"/><polygon class="cls-10" points="194.75 234.5 191.49 232.4 189.9 231.47 186.04 235.81 189.78 240.69 193.05 238.93 194.75 234.5"/><polygon class="cls-9" points="186.04 235.81 193.05 236.29 194.06 237.87 193.05 238.93 189.78 240.69 186.04 235.81"/><path class="cls-11" d="M178.46,177.61c-.92-1.75-19.7,7.6-19.7,7.6l9.93,44.87,62.23.87,11.3-42.43Z"/><polygon class="cls-12" points="163.47 152.78 158.76 185.21 242.22 188.52 249.49 154.48 227.59 152.55 180.48 164.8 165.24 154.12 163.47 152.78"/><polygon class="cls-1" points="177.02 149.31 184.1 164.72 189.52 171.56 209.78 172.32 222.64 163.2 228.35 159.59 222.55 140.44 177.45 139.74 177.02 149.31"/><polygon class="cls-10" points="244.08 117.66 257.19 137.2 251.98 172.9 234.29 150.72 244.08 117.66"/><polygon class="cls-1" points="240.24 141.85 247.75 147.41 284.25 178.53 285.41 205.28 242.22 188.52 240.4 151.66 240.24 141.85"/><polygon class="cls-13" points="302.12 162 295.78 157.55 294.76 147.4 305.58 147.64 314.51 160.51 302.12 162"/><polygon class="cls-14" points="301.11 129.62 300.49 120.97 290.31 131.59 294.76 147.4 301.11 129.62"/><polygon class="cls-1" points="168.15 148.55 158.76 185.21 139.13 185.67 127.06 166.06 168.15 148.55"/><polygon class="cls-15" points="159.77 139.31 152.11 135.44 151.74 122.7 147.56 113.36 150.87 107.92 154.25 99.92 180.52 108.76 177.06 134.81 159.77 139.31"/><polygon class="cls-9" points="184.84 143.82 183.14 181.5 152.11 135.44 169.63 129.1 178.74 124.64 195.21 136.36 184.84 143.82"/><polygon class="cls-14" points="100.08 133.08 93.96 137.66 109.27 186.55 139.13 185.67 110.81 136.25 100.08 133.08"/><polygon class="cls-16" points="136.97 108.9 140.97 102.89 150.87 107.92 151.74 122.7 143.34 129.5 132.93 120.73 136.97 108.9"/><polygon class="cls-17" points="127.92 111.33 130.95 103.03 140.97 102.89 143.34 129.5 132.92 130.49 125.33 120.24 127.92 111.33"/><polygon class="cls-16" points="117.98 113.73 125.62 108.66 130.95 103.03 132.92 130.49 120.86 127.24 117.98 113.73"/><polygon class="cls-7" points="111.9 109.38 96.86 117.17 82.72 113.16 78.51 113.69 79.95 128.61 86.37 128.07 99.92 129.83 117.67 126.22 127.06 126.36 125.69 107.39 111.9 109.38"/><path class="cls-14" d="M187.93,125.81l8.29,37.86,31.91-14.78,14.05-31.26,6.95-23.15-11-44.85s-12.56,5-12.11,3.66S187.93,125.81,187.93,125.81Z"/><polygon class="cls-13" points="194.49 126.64 198.04 134.61 217.98 138.89 196.22 163.67 173.46 123.97 194.49 126.64"/><path class="cls-9" d="M246.07,119l-18.73,7.74-7.43,57.51L234.4,166l22.79-28.8S245.46,119.29,246.07,119Z"/><polygon class="cls-15" points="240.31 72.16 234.11 81.45 227.34 126.78 257.19 137.2 256.43 84.6 240.31 72.16"/><polygon class="cls-10" points="251.55 57.51 232.85 54.03 234.11 81.45 256.43 84.6 251.55 57.51"/><polygon class="cls-9" points="237 43.15 232.85 54.03 256.43 84.6 265.09 44.07 237 43.15"/><path class="cls-10" d="M145.65,44.28,135.52,60l15.35,47.9,3.42-4.22,3.89-28.87s5.15-45,7.49-43.93-13.54,2.54-13.54,2.54Z"/><polygon class="cls-9" points="208.65 40.31 151.27 14.5 135.52 60.02 153.73 53.56 157.75 53.08 208.65 40.31"/><polygon class="cls-18" points="220.57 15.06 209.19 0 151.27 14.5 174.57 46.15 199.82 47.87 225.32 26.05 220.57 15.06"/><polygon class="cls-15" points="245.06 40.55 241.9 23.37 209.19 0 207.62 26.76 245.06 40.55"/><polygon class="cls-18" points="207.46 45.76 207.62 26.76 229.13 14.25 241.38 13.92 265.09 44.07 232.85 54.03 207.46 45.76"/><polygon class="cls-1" points="174.57 46.15 153.73 53.56 154.29 103.7 169.63 129.1 198.04 134.61 222.07 110.25 232.85 54.03 207.62 26.76 174.57 46.15"/><polygon class="cls-14" points="169.2 62.16 181.81 66.81 185.91 72.14 187.02 74.19 190.4 72.33 196.12 67.56 208.65 65.93 212.8 66.38 221.35 68.97 203.77 76.98 191.4 93.38 185.45 87.75 178.62 91.63 172.09 73.14 158.68 61.59 167.46 61.59 169.2 62.16"/><polygon class="cls-14" points="82.72 113.16 90.28 123.05 112.12 121.67 111.9 109.38 82.72 113.16"/><polygon class="cls-1" points="93.96 137.66 110.81 136.25 120.98 121.39 115.05 118.67 106.43 126.83 102.52 128.42 93.96 137.66"/><polygon class="cls-13" points="106.43 126.83 86.37 128.07 93.96 137.66 106.43 126.83"/><polygon class="cls-14" points="259.52 193.98 295.78 157.55 314.51 160.51 285.41 205.28 259.52 193.98"/><polygon class="cls-7" points="300.51 121.19 304.78 135.83 294.76 147.4 291.67 161.68 292.65 163.37 295.6 167.3 299.76 164.72 301.6 163.57 309.83 124.23 300.51 121.19"/><polygon class="cls-8" points="292.65 163.37 243.68 384.18 247.62 386.72 250.99 384.19 299.76 164.72 292.65 163.37"/><polygon class="cls-1" points="300.49 120.97 313.88 129.85 314.51 160.51 294.76 147.4 300.49 120.97"/><polygon class="cls-8" points="304.53 96.6 295.94 108.31 300.49 120.97 300.53 109.48 303.77 103.92 304.53 96.6"/><polygon class="cls-8" points="314.51 106.11 317.17 111.91 309.83 124.23 321.49 111.99 314.67 97.71 314.51 106.11"/><polygon class="cls-14" points="160.6 300.94 172.05 308.34 152.72 303.65 160.6 300.94"/><polygon class="cls-14" points="217.45 294.25 229.27 285.1 243.68 286.09 217.45 294.25"/><path class="cls-2" d="M119.59,100.61c5.17-.26,9.86,6.57,10.47,15.26s-3.1,15.95-8.27,16.21-9.86-6.56-10.47-15.25S114.41,100.88,119.59,100.61Z"/><path class="cls-12" d="M119.81,102.54c4.12-.23,7.85,5.76,8.33,13.39s-2.46,14-6.58,14.23-7.84-5.76-8.33-13.39S115.69,102.77,119.81,102.54Z"/><path class="cls-19" d="M119.93,103.72c3.54-.21,6.75,5.27,7.17,12.24s-2.12,12.8-5.66,13-6.75-5.27-7.16-12.25S116.39,103.93,119.93,103.72Z"/><path class="cls-6" d="M123.77,108.48h-6l-.19,1.33,6.29.21-.09-1.54Zm-6.28,1.8,6.9.87-1.74,2.66-2.12-.24-3-3.29Zm5,1.86-1.9-.24,1,.94.87-.7Zm-2.15,2.27,2.56.82.89,1.7-.41,1.57-2.13.94-2.72-.38-.95-2.15.74-2,2-.53Zm1.23,3.26-.17-1.41-1.8,0,0,1.43,1.93,0Zm2.15,3.89h-4.74l.25,1.93-1.53,0-.09-3.23,6.2-.2Z"/><polygon class="cls-7" points="175.14 230.15 179.62 230.22 179.62 242.24 175.14 242.24 175.14 230.15"/><polygon class="cls-7" points="216.78 230.75 221.25 230.82 221.25 242.24 216.78 242.24 216.78 230.75"/><polygon class="cls-19" points="193.05 233.37 193.05 238.93 202.35 239 201.91 233.86 193.05 233.37"/><polygon class="cls-13" points="189.49 88.28 191.71 93.12 184.1 98.06 178.62 91.63 189.49 88.28"/><polygon class="cls-20" points="184.22 113.06 178.21 111.65 170.81 101.34 201.64 105.73 187.53 114.01 184.22 113.06"/><polygon class="cls-21" points="171.9 101.59 170.16 101.78 177.99 114.17 188.28 115.88 202.36 106.13 200.49 105.62 190.26 111.53 178.69 110.06 171.9 101.59"/><polygon class="cls-12" points="202.36 106.13 202.36 106.13 197.87 104.59 189.35 102.05 185.17 102.89 181.68 101.04 169.89 101.34 170.16 101.78 184.69 105.3 202.36 106.13"/><polygon class="cls-22" points="190.4 72.33 191.71 93.12 178.62 91.63 185.91 72.14 190.4 72.33"/><polygon class="cls-10" points="181.59 63.2 169.32 59.53 158.68 61.59 169.2 62.16 181.94 66.87 181.59 63.2"/><polygon class="cls-10" points="197.93 64.37 212.72 64.1 221.35 68.97 212.67 67.2 196.12 67.56 197.93 64.37"/><path class="cls-23" d="M176.23,73.78a3.2,3.2,0,1,1-3.2-3.19A3.2,3.2,0,0,1,176.23,73.78Z"/><path class="cls-23" d="M207,76.33a3.2,3.2,0,1,1-3.19-3.19A3.19,3.19,0,0,1,207,76.33Z"/></svg>