<svg id="Layer_2" data-name="Layer 2" xmlns="http://www.w3.org/2000/svg" viewBox="0 0 400 400"><defs><style>.cls-1{fill:#7d4f25;}.cls-17,.cls-2{fill:#2b2c2b;}.cls-2{opacity:0.1;}.cls-3{fill:#f4cab2;}.cls-4{fill:#35785e;}.cls-5{fill:#54af8a;}.cls-6{fill:#74c7a5;}.cls-7{fill:#3f8e6f;}.cls-8{fill:#5a753d;}.cls-9{fill:#b7c644;}.cls-10{fill:#fbe3d4;}.cls-11{fill:#c18f7c;}.cls-12{fill:#d8e156;}.cls-13{fill:#e5e97b;}.cls-14{fill:#738c57;}.cls-15{fill:#44622d;}.cls-16{fill:#505354;}.cls-18{fill:#fff;}.cls-19{fill:#9b6534;}.cls-20{fill:#fff0e8;}.cls-21{fill:#af7546;}.cls-22{fill:#cc9263;}.cls-23{fill:none;}</style></defs><title>diplomats_ENFP_famous_fictional_hoban_washburne_firefly</title><polygon class="cls-1" points="192.24 29.75 176 39.25 181.4 71.94 192.24 29.75"/><polygon class="cls-2" points="116.68 378.78 230.39 366.79 325.02 382.8 216.14 400.42 116.68 378.78"/><polygon class="cls-3" points="288.88 123.85 265.65 160.82 205.58 219.09 206.71 163.02 210.2 155.11 268.22 51.03 273.38 88.4 277.7 91.3 288.88 123.85"/><polygon class="cls-3" points="101.34 128.59 104.56 135.61 116.25 132.65 122.8 125.36 111.27 114.45 101.34 128.59"/><polygon class="cls-4" points="140.93 221.29 150.96 219.73 134.76 213.45 140.93 221.29"/><polygon class="cls-5" points="106.52 91.69 115.34 80.47 123.95 72.64 134.24 72.64 146.57 80.47 144.78 87.35 124.68 87.35 122.74 95.67 110.84 97 106.52 91.69"/><polygon class="cls-6" points="125.57 98.81 123.54 104.63 118.15 106.92 106.52 91.69 117.14 93.07 125.57 98.81"/><polygon class="cls-7" points="127.14 107.27 135.92 108.15 124.78 118.17 120.06 115.34 127.14 107.27"/><polygon class="cls-4" points="135.92 108.15 135.26 119.92 131.9 121.64 129.38 114.03 135.92 108.15"/><polygon class="cls-6" points="135.26 119.92 138.66 118.17 135.41 117.12 135.26 119.92"/><polygon class="cls-8" points="188.4 280.53 207.98 301.6 238.16 302.26 268.83 235.58 255.56 217.37 242.03 182.45 215.4 201.15 207.49 187.46 206.71 157.47 184.63 250.61 188.4 280.53"/><polygon class="cls-9" points="180.69 172.68 140.93 168.57 169.9 217.68 180.69 172.68"/><polygon class="cls-10" points="284.32 96.23 275.32 115.99 288.88 123.85 299.9 106.17 284.32 96.23"/><polygon class="cls-11" points="281.01 111.85 285.47 101.52 293.63 106.17 281.01 111.85"/><polygon class="cls-11" points="275.32 115.99 280.63 136.92 288.88 123.85 275.32 115.99"/><polygon class="cls-12" points="194.03 165.07 180.69 172.68 170.07 216.51 177.61 247.24 194.92 235.17 210.2 194.84 208.46 180.03 194.03 165.07"/><polygon class="cls-8" points="194.03 165.07 199.72 179.31 206.71 181.12 203.06 186.19 215.4 201.15 206.71 157.47 194.03 165.07"/><polygon class="cls-12" points="274.75 174.25 286.35 191.98 262.18 213.45 268.83 235.58 260.38 267.02 207.49 281.23 217.5 255.5 212.57 215.38 227.48 199.75 241.91 182.53 274.75 174.25"/><polygon class="cls-8" points="265.65 160.82 274.75 174.25 261.67 191.25 245.99 187.63 244.7 197.77 215.4 201.15 265.65 160.82"/><polygon class="cls-9" points="212.57 215.38 207.49 281.23 232.62 278.36 260.38 267.02 268.83 235.58 212.57 215.38"/><polygon class="cls-13" points="224.65 211.55 223.6 233.75 231.58 243.47 233.13 250.61 268.8 235.72 268.83 235.58 286.35 191.98 224.65 211.55"/><polygon class="cls-14" points="174.7 197.4 212.57 215.38 215.4 228.04 210.11 247.24 169.9 217.68 174.7 197.4"/><polygon class="cls-14" points="140.93 168.57 122.8 125.36 104.56 135.61 116.25 191.98 140.93 168.57"/><polygon class="cls-10" points="120.06 115.34 127.14 107.27 125.57 98.81 111.27 114.45 120.06 115.34"/><polygon class="cls-15" points="134.76 196.74 116.25 191.98 140.93 168.57 146.9 169.19 134.76 196.74"/><polygon class="cls-8" points="188.4 280.53 209.78 315.73 223.6 338.79 251.97 345.56 264.4 332.03 260.38 267.02 235.93 280.77 207.49 281.23 198.43 283.67 188.4 280.53"/><polygon class="cls-8" points="209.78 315.74 203.97 338.79 195.01 348.58 169.57 330.25 166.41 302.26 188.4 280.53 209.78 315.74"/><polygon class="cls-15" points="162.53 267.98 166.41 302.26 209.78 315.74 262.7 289.1 253.5 290.44 244.14 294.19 217.19 301.6 207.49 281.23 188.4 280.53 162.53 267.98"/><polygon class="cls-13" points="188.4 280.53 166.41 302.26 146.38 286.9 162.53 267.98 188.4 280.53"/><polygon class="cls-12" points="207.49 281.23 217.19 301.6 244.14 294.19 257.42 288.08 270.7 286.9 260.38 267.02 207.49 281.23"/><polygon class="cls-16" points="266.55 366.91 268.61 388.26 234.42 388.26 240.84 366.91 254.9 359.35 266.55 366.91"/><polygon class="cls-16" points="196.89 366.91 198.34 379.46 149.07 379.46 172.47 355.81 188.4 354.57 196.89 366.91"/><rect class="cls-17" x="234.42" y="388.26" width="34.19" height="4.47"/><rect class="cls-17" x="149.07" y="379.46" width="49.27" height="4.47"/><polygon class="cls-11" points="205.02 154.47 242.19 159.11 211.9 183.56 205.02 154.47"/><polygon class="cls-10" points="226.63 157.15 192.24 152.88 174.44 122.11 184.46 42.13 221.38 36.72 268.22 51.03 251.97 138.76 226.63 157.15"/><polygon class="cls-15" points="223.6 338.79 240.84 366.91 266.55 366.91 264.4 332.03 223.6 338.79"/><polygon class="cls-15" points="172.47 355.81 196.89 366.91 203.97 338.79 169.57 330.25 172.47 355.81"/><polygon class="cls-5" points="127.94 93.76 131.02 95.67 125.57 98.81 125.11 94.91 127.94 93.76"/><polygon class="cls-4" points="131.02 95.67 131.02 98.13 127.94 97.45 131.02 95.67"/><polygon class="cls-18" points="131.02 76.08 133.42 74.88 135.01 76.67 132.56 77.94 131.02 76.08"/><polygon class="cls-18" points="146.36 84.53 134.64 81.72 134.24 82.8 145.3 85.36 146.36 84.53"/><polygon class="cls-7" points="125.57 98.81 117.14 93.07 124.68 87.35 125.57 98.81"/><polygon class="cls-7" points="111.27 114.45 120.06 115.34 108.92 125.36 101.34 128.59 111.27 114.45"/><polygon class="cls-4" points="120.06 115.34 122.8 125.36 119.77 127.06 113.51 121.22 120.06 115.34"/><polygon class="cls-6" points="122.8 125.36 127.14 122.91 121.75 121.52 122.8 125.36"/><polygon class="cls-7" points="91.44 115.82 80.89 128.83 101.34 128.59 91.44 115.82"/><polygon class="cls-6" points="80.89 128.83 74.98 122.64 84.56 124.31 80.89 128.83"/><polygon class="cls-6" points="106.52 91.69 105.57 87.35 109.5 87.9 106.52 91.69"/><polygon class="cls-7" points="109.5 87.9 108.79 83.85 112.69 83.85 109.5 87.9"/><polygon class="cls-6" points="112.69 83.85 111.87 80.35 115.34 80.47 112.69 83.85"/><polygon class="cls-4" points="84.56 124.31 83.89 119.92 87.83 120.28 84.56 124.31"/><polygon class="cls-6" points="88.11 119.92 87.83 116.31 91.44 115.82 88.11 119.92"/><polygon class="cls-5" points="144.87 173.72 146.9 169.19 167.2 158.92 173.62 150.6 176.97 150.6 177.61 159.89 159.88 170.53 168.97 179.65 168.07 187.46 144.87 173.72"/><polygon class="cls-6" points="146.9 169.19 143.5 163.34 148.47 158.95 159.88 170.53 146.9 169.19"/><polygon class="cls-4" points="140.93 168.57 143.5 163.34 146.9 169.19 144.87 173.72 140.93 168.57"/><polygon class="cls-5" points="134.76 196.74 142.3 206.54 157.95 206.54 149.67 198.81 134.76 196.74"/><polygon class="cls-6" points="134.76 196.74 134.76 213.45 140.93 221.29 142.3 206.54 134.76 196.74"/><polygon class="cls-4" points="134.76 196.74 127.63 194.91 128.38 200.48 134.76 200.48 134.76 196.74"/><polygon class="cls-6" points="127.63 194.91 132.88 188.6 136.86 191.98 134.76 196.74 127.63 194.91"/><polygon class="cls-4" points="134.76 196.74 149.67 198.81 136.86 191.98 134.76 196.74"/><polygon class="cls-4" points="168.97 179.65 173.15 183.85 168.07 187.46 168.97 179.65"/><polygon class="cls-4" points="159.88 170.53 169.33 171.5 168.97 179.65 159.88 170.53"/><polygon class="cls-4" points="151.19 206.54 147.7 209.98 142.3 206.54 151.19 206.54"/><polygon class="cls-4" points="142.3 206.54 145.05 212.89 141.42 216.03 142.3 206.54"/><polygon class="cls-18" points="175.5 156.45 173.75 157.47 174.93 158.92 176.13 158.14 175.5 156.45"/><polygon class="cls-7" points="173.62 150.6 170.41 160.93 167.2 158.92 173.62 150.6"/><polygon class="cls-6" points="134.24 82.8 124.68 87.35 144.78 87.35 145.3 85.36 134.24 82.8"/><polygon class="cls-10" points="174.7 197.4 160.3 175.81 146.9 203.97 169.9 217.68 174.7 197.4"/><polygon class="cls-3" points="160.3 175.81 144.87 173.72 136.86 191.98 146.9 203.97 160.3 175.81"/><polygon class="cls-3" points="106.52 91.69 91.44 115.82 101.34 128.59 118.15 106.92 106.52 91.69"/><polygon class="cls-5" points="253.7 276.19 250.74 281.23 245.86 285.36 265.27 280.53 258.84 279.69 253.7 276.19"/><polygon class="cls-5" points="250.98 284.08 249.2 288.73 244.14 294.19 270.7 286.9 264.75 285.36 259.48 281.97 250.98 284.08"/><polygon class="cls-5" points="253.09 277.23 251.97 271.6 252.48 271.6 254.47 276.7 253.09 277.23"/><polygon class="cls-5" points="174.7 197.4 181.99 197.4 185.71 196.42 191.16 199.1 191.71 201.69 196.37 207.69 174.7 197.4"/><polygon class="cls-5" points="181.61 194.9 194.18 200.62 191.71 196.92 192.66 188.69 192.13 188.69 186.94 194.66 181.61 194.9"/><polygon class="cls-9" points="169.9 217.68 195.01 236.14 188.4 280.53 162.53 267.98 169.9 217.68"/><polygon class="cls-15" points="224.65 211.55 212.57 215.38 210.11 247.24 231.58 243.47 224.65 211.55"/><polygon class="cls-5" points="170.12 271.67 188.4 280.53 190.52 265.77 190.5 265.67 190.52 265.68 190.54 265.62 191 262.46 189.12 265.16 184.47 266.55 177.88 266.37 182.54 268.77 177.82 270.99 170.12 271.67"/><polygon class="cls-5" points="277.68 213.55 267.92 211.55 273.66 209.99 259.01 208.55 250.87 216.11 255.5 214.66 246.37 223.59 250.89 222.32 244.1 228.04 251.56 227.45 241.87 239.39 251.13 235.65 246.13 245.18 246.13 245.18 268.8 235.72 268.83 235.58 277.68 213.55"/><polygon class="cls-19" points="221.38 82.06 224.12 79.05 240.88 74.77 250.08 86.93 240.06 79.5 221.38 82.06"/><polygon class="cls-19" points="205.44 80.14 204.71 75.68 195.78 68.39 185.39 72.94 194.99 71.94 205.44 80.14"/><polygon class="cls-20" points="206.03 86.93 214.91 88.43 210.41 112.07 200.75 110.27 206.03 86.93"/><polygon class="cls-3" points="221.38 82.06 214.91 88.43 212.19 103.09 250.08 86.93 240.06 79.5 221.38 82.06"/><polygon class="cls-3" points="205.44 80.14 206.03 86.93 202.88 100.9 185.39 72.94 194.99 71.94 205.44 80.14"/><polygon class="cls-11" points="200.75 110.27 204.4 114.78 210.41 112.07 200.75 110.27"/><polygon class="cls-11" points="190.04 119 203.28 124.2 226.17 123.1 217.01 135.68 190.09 132.34 190.04 119"/><polygon class="cls-18" points="192.26 130.41 192.24 122.21 202.92 126.4 221.71 125.5 216 133.35 192.26 130.41"/><polygon class="cls-3" points="224.75 117.25 229.74 122.21 230.75 131.33 234.72 121.14 224.75 117.25"/><polygon class="cls-3" points="192.24 112.07 187.75 117.25 186.25 125.08 184.17 114.78 192.24 112.07"/><polygon class="cls-3" points="199.28 58.8 216.22 64.61 243.49 63.18 239.74 62.69 216.93 62.65 204.09 58.8 199.28 58.8"/><polygon class="cls-21" points="268.22 51.03 222.11 17.05 222.11 0.03 197.7 21.07 205.58 44.37 229.11 41 268.22 51.03"/><polygon class="cls-19" points="197.7 21.07 184.46 42.13 205.58 44.37 197.7 21.07"/><polygon class="cls-21" points="303.35 53.15 309.77 76.14 299.9 106.17 284.32 96.23 274.1 102.39 277.7 91.3 270.07 86.93 278.38 68.99 268.22 51.03 303.35 53.15"/><polygon class="cls-1" points="248.8 36.72 250.28 17.05 244.17 0.03 222.11 17.05 248.8 36.72"/><polygon class="cls-1" points="197.7 21.07 268.22 51.03 205.58 44.37 197.7 21.07"/><polygon class="cls-22" points="222.11 17.05 298.54 39.25 303.35 53.15 268.22 51.03 222.11 17.05"/><polygon class="cls-19" points="222.11 0.03 247.24 24.35 222.11 17.05 222.11 0.03"/><polygon class="cls-1" points="265.65 21.07 273.93 32.1 298.54 39.25 265.65 21.07"/><polygon class="cls-21" points="273.93 32.1 268.22 51.03 303.35 53.15 298.54 39.25 273.93 32.1"/><polygon class="cls-19" points="247.24 24.35 273.93 32.1 265.65 21.07 244.17 0.03 247.24 24.35"/><polygon class="cls-19" points="303.35 53.15 270.07 86.93 268.22 51.03 303.35 53.15"/><polygon class="cls-1" points="274.97 89.96 269.34 104.22 278.44 109.04 284.32 96.23 299.9 106.17 309.77 76.14 270.07 86.93 274.97 89.96"/><path class="cls-17" d="M234.35,94.53A4.53,4.53,0,1,1,229.82,90,4.53,4.53,0,0,1,234.35,94.53Z"/><path class="cls-17" d="M199.55,88.4A4.54,4.54,0,1,1,195,83.87,4.53,4.53,0,0,1,199.55,88.4Z"/><line class="cls-23" x1="299.9" y1="106.17" x2="265.65" y2="160.82"/></svg>