<svg id="Layer_1" data-name="Layer 1" xmlns="http://www.w3.org/2000/svg" viewBox="0 0 400 400"><defs><style>.cls-1,.cls-22{fill:#2b2c2b;}.cls-1{fill-opacity:0.1;}.cls-2{fill:#9fce7e;}.cls-3{fill:#98c16d;}.cls-4,.cls-6{fill:#709c53;}.cls-5{fill:#beda8d;}.cls-6{opacity:0.48;}.cls-7{fill:#f4c9b2;}.cls-8{fill:#3f8e6f;}.cls-9{fill:#54af8a;}.cls-10{fill:#35785d;}.cls-11{fill:#738c57;}.cls-12{fill:#446125;}.cls-13{fill:#b7c645;}.cls-14{fill:#d8e254;}.cls-15{fill:#e7ef78;}.cls-16{fill:none;}.cls-17{fill:#c1907d;}.cls-18{fill:#fce3d4;}.cls-19{fill:#474747;}.cls-20{fill:#737373;}.cls-21{fill:#4f5253;}.cls-23{fill:#ffefe7;}</style></defs><title>diplomats_ENFP_famous_fictional_phil_dunphy_modern_family</title><g id="Layer_1-2" data-name="Layer_1"><g id="_789106448" data-name=" 789106448"><polygon class="cls-1" points="107.7 383.13 221.26 366.75 313.03 380.42 242.82 398.91 107.7 383.13"/><polygon class="cls-2" points="182.39 148.11 160.71 164.84 152.82 215.85 168.6 245.3 202.77 267.21 238.11 246.12 254.6 220.08 263.55 194.52 255.54 159.18 241.88 152.23 182.39 148.11"/><path class="cls-3" d="M242.35,239.29l3.06-4.72-80,.47,1.54,4.72,74.92.35Zm-82.7-21.44,94.95.35-3.41,5.89-89.89-.82-1.88-5.42h.23Z"/><path class="cls-3" d="M230.1,171.2,230,245.88h-4.13l-.34-77.28Zm-38.88-4.6-.82,78.93h-5.3l2-87.29,4.12,8.48Zm15.67-8.71,2,87.76H204L202.89,160l3.88-2.24Zm-33.45,4.71-4.95,82.57-3.77-11.07,3.06-69.62,5.42-1.88h.24Z"/><polygon class="cls-3" points="155.06 201.47 154.23 207.01 159.65 208.31 254.6 207.95 259.31 206.54 261.67 199.82 254.72 202.3 159.77 202.65 155.06 201.47"/><polygon class="cls-3" points="158 182.74 157.06 187.93 160.12 188.87 255.07 188.04 255.07 182.27 160.36 183.45 158 182.74"/><polygon class="cls-4" points="168.02 164.6 175.56 153.29 182.39 148.11 185.1 152.94 187.34 158.12 168.02 164.6"/><polygon class="cls-4" points="230.1 171.2 206.89 158 234.22 142.93 241.88 152.23 230.1 171.2"/><polygon class="cls-5" points="267.44 173.08 255.54 159.18 254.36 218.44 289.24 222.32 267.44 173.08"/><polygon class="cls-3" points="266.85 219.85 271.92 220.32 259.79 164.13 255.54 159.18 266.85 219.85"/><polygon class="cls-3" points="255.07 182.15 255.07 188.04 255.07 188.04 269.92 178.15 267.44 173.08 255.07 182.15"/><polygon class="cls-3" points="254.72 202.3 254.6 207.95 279.34 199.94 276.87 194.28 254.72 202.3"/><polygon class="cls-3" points="244.94 234.1 254.36 218.44 289.24 222.32 272.27 242.35 250.71 242 244.94 234.1"/><polygon class="cls-6" points="266.85 219.85 271.92 220.32 261.9 239.29 257.31 237.99 266.85 219.85"/><polygon class="cls-7" points="232.45 254.84 237.75 246.12 250.71 242 261.32 255.43 248.12 271.45 232.45 254.84"/><polygon class="cls-4" points="272.27 242.35 244.94 234.1 237.75 246.12 261.32 255.43 272.27 242.35"/><polygon class="cls-5" points="130.79 223.15 155.41 176.62 160.71 164.84 159.53 218.08 148.93 225.03 130.79 223.15"/><polygon class="cls-3" points="151.17 186.04 152.82 181.56 160.36 183.45 160.12 188.87 151.17 186.04"/><polygon class="cls-3" points="141.16 203.47 143.51 198.88 159.77 202.65 159.65 208.31 159.65 208.31 141.16 203.47"/><polygon class="cls-7" points="159.53 272.63 148.46 253.54 147.99 248.12 150.94 236.22 166.84 240 168.6 245.3 171.31 254.25 159.53 272.63"/><polygon class="cls-3" points="139.98 239.17 130.79 223.15 159.53 218.08 162.48 227.15 152.7 235.4 139.98 239.17"/><polygon class="cls-4" points="148.46 253.54 139.98 239.17 162.48 227.15 166.84 240 148.46 253.54"/><polygon class="cls-8" points="232.45 254.84 202.77 267.21 171.31 254.25 168.6 245.3 180.74 245.41 238.11 246.12 232.45 254.84"/><polygon class="cls-9" points="209.01 254.49 190.52 254.49 190.4 245.65 208.89 245.77 209.01 254.49"/><polygon class="cls-10" points="203.94 300.31 181.68 296.19 159.53 272.63 171.31 254.25 232.45 254.84 248.12 271.45 237.05 300.66 203.94 300.31"/><polygon class="cls-9" points="168.84 324.1 159.53 272.63 203.94 300.31 203.47 334.12 189.22 340.36 168.84 324.1"/><polygon class="cls-9" points="215.72 333.53 203.94 300.31 248.12 271.45 249.66 329.88 238.93 343.78 215.72 333.53"/><polygon class="cls-8" points="176.14 365.69 168.84 324.1 203.47 334.12 204.3 371.46 188.16 375.35 176.14 365.69"/><polygon class="cls-8" points="227.04 374.17 215.72 333.53 249.66 329.88 252.25 372.17 242.35 380.3 227.04 374.17"/><polygon class="cls-11" points="158.24 381.48 176.14 365.69 204.3 371.46 204.77 381.94 182.04 385.72 158.24 381.48"/><polygon class="cls-12" points="158.24 387.6 158.24 381.48 204.77 381.94 204.65 387.72 158.24 387.6"/><polygon class="cls-11" points="222.68 386.89 227.04 374.17 252.25 372.17 259.19 386.54 241.17 391.02 222.68 386.89"/><polygon class="cls-12" points="222.68 393.14 222.68 386.89 259.19 386.54 259.19 392.67 222.68 393.14"/><polygon class="cls-11" points="105.46 302.55 95.92 303.84 87.32 324.1 97.81 334.23 102.4 333.06 100.04 326.23 94.39 321.98 98.87 308.79 104.17 308.09 111.12 308.32 105.46 302.55"/><polygon class="cls-13" points="111.94 275.45 86.97 379.47 107.7 383.13 126.55 324.69 120.78 275.45 111.94 275.45"/><polygon class="cls-14" points="141.28 384.18 107.7 383.13 120.78 275.45 129.61 277.22 130.08 281.81 146.58 358.74 141.28 384.18"/><polygon class="cls-15" points="130.08 281.81 158.24 381.48 141.28 384.18 130.08 281.81"/><polygon class="cls-3" points="105.82 270.98 105.7 278.16 110.41 281.23 119.95 282.52 125.72 277.34 120.54 271.92 105.82 270.98"/><polygon class="cls-5" points="134.32 271.1 120.54 271.92 119.95 282.52 130.08 281.81 135.03 277.57 134.32 271.1"/><polygon class="cls-4" points="119.95 269.92 105.82 270.98 120.42 272.74 134.32 271.1 119.95 269.92"/><polygon class="cls-11" points="113.59 296.19 115.95 313.74 118.77 313.5 118.42 305.02 123.96 304.31 127.37 298.66 123.02 294.54 113.59 296.19"/><polygon class="cls-11" points="111.59 318.45 110.06 331.76 113.83 332 114.3 327.64 119.95 327.29 120.54 331.88 125.72 330.82 122.31 315.98 119.01 316.56 119.01 322.69 115 322.22 114.53 317.98 111.59 318.45"/><polygon class="cls-11" points="114.77 334.23 117.83 334.12 117.71 346.96 113.12 346.13 114.77 334.23"/><polygon class="cls-11" points="114.77 352.97 111.47 352.61 110.77 371.11 127.02 372.29 126.9 365.45 114.53 367.69 114.77 352.97"/><line class="cls-16" x1="177.44" y1="161.54" x2="178.15" y2="245.41"/><line class="cls-16" x1="168.02" y1="164.6" x2="166.84" y2="240"/><line class="cls-16" x1="191.22" y1="166.6" x2="192.64" y2="245.65"/><line class="cls-16" x1="230.1" y1="171.2" x2="229.39" y2="246"/><line class="cls-16" x1="153.06" y1="181.92" x2="159.65" y2="184.15"/><polygon class="cls-3" points="145.52 222.21 142.81 221.02 150.7 185.45 152.82 181.56 154.23 182.74 147.64 220.08 145.52 222.21"/><polygon class="cls-6" points="149.02 234.34 142.81 221.02 147.64 220.08 152.42 232.53 149.02 234.34"/><path class="cls-4" d="M196.17,170.37a3.07,3.07,0,1,1-3.06,3.07A3.06,3.06,0,0,1,196.17,170.37Z"/><path class="cls-4" d="M196.17,188.51a3.07,3.07,0,1,1-3.06,3.07A3.07,3.07,0,0,1,196.17,188.51Z"/><path class="cls-4" d="M196.17,206.89a3.07,3.07,0,1,1-3.06,3.06A3.06,3.06,0,0,1,196.17,206.89Z"/><path class="cls-4" d="M196.17,223.85a3.07,3.07,0,1,1-3.06,3.07A3.07,3.07,0,0,1,196.17,223.85Z"/><polygon class="cls-17" points="199.23 116.18 179.21 141.28 191.22 166.6 202.3 160.48 219.14 151.17 232.57 141.28 229.98 135.97 199.23 116.18"/><polygon class="cls-18" points="137.74 31.95 139.57 117.36 152.7 141.51 207.83 141.06 232.57 120.54 225.62 28.3 194.99 17.46 151.17 21.59 137.74 31.95"/><polygon class="cls-7" points="142.22 68.59 157.06 78.49 166.6 103.46 173.32 101.81 181.68 102.99 193.34 78.49 213.02 68.59 198.17 66.35 184.27 70.94 178.74 75.89 174.38 83.2 171.2 76.48 164.01 72.36 154.35 68 142.22 68.59"/><polygon class="cls-19" points="132.32 35.49 138.45 67.18 137.74 36.67 136.33 29.48 132.32 35.49"/><polygon class="cls-20" points="144.22 15.46 132.32 35.49 137.74 36.67 152.35 28.3 152.35 17.82 144.22 15.46"/><polygon class="cls-21" points="170.84 0.97 144.22 15.46 152.35 28.3 164.25 21.82 170.84 0.97"/><polygon class="cls-19" points="168.02 40.79 152.35 28.3 170.84 0.97 225.62 4.15 223.15 14.64 206.42 27.36 183.68 40.08 168.02 40.79"/><polygon class="cls-21" points="238.34 14.87 225.62 4.15 206.42 27.36 235.04 26.18 238.34 14.87"/><polygon class="cls-19" points="229.03 48.33 222.68 36.67 206.42 27.36 238.34 14.87 252.6 27.71 251.19 36.67 229.03 48.33"/><polygon class="cls-7" points="234.22 142.93 245.3 101.81 243.88 71.89 233.75 43.62 230.45 41.26 221.18 35.78 218.56 118.66 207.83 141.06 221.15 141.04 219.14 151.17 234.22 142.93"/><polygon class="cls-21" points="233.75 85.55 224.68 70.12 230.45 41.26 241.88 52.57 246.47 66.35 233.75 85.55"/><polygon class="cls-21" points="253.78 50.92 252.6 27.71 230.45 41.26 236.58 64.58 253.66 60.23 253.78 50.92"/><polygon class="cls-19" points="238.93 65.06 247.06 72.95 254.25 67.53 253.78 50.92 238.93 65.06"/><polygon class="cls-18" points="233.04 92.15 236.58 64.58 254.25 67.53 247.65 93.09 233.04 92.15"/><polygon class="cls-17" points="238.34 81.43 240.34 70.59 249.89 72.12 238.34 81.43"/><polygon class="cls-17" points="233.04 92.15 245.3 101.81 247.65 93.09 233.04 92.15"/><polygon class="cls-19" points="184.27 66.94 208.07 61.41 213.02 68.59 184.27 70.94 184.27 66.94"/><polygon class="cls-19" points="166.6 68.36 164.01 72.36 142.22 68.59 147.75 62.82 166.6 68.36"/><polygon class="cls-17" points="159.3 113.12 168.02 118.07 182.86 117.72 197.7 109 197.59 110.41 184.27 119.83 167.19 120.54 159.3 114.53 159.3 113.12"/><polygon class="cls-7" points="164.6 129.26 175.56 124.9 185.8 128.79 164.6 129.26"/><path class="cls-22" d="M192.75,72.71a4,4,0,1,1-4,4A4,4,0,0,1,192.75,72.71Z"/><path class="cls-22" d="M158.36,73.07a4,4,0,1,1-4,4A4,4,0,0,1,158.36,73.07Z"/><polygon class="cls-7" points="214.43 100.87 208.89 103.81 207.83 118.66 214.43 100.87"/><polygon class="cls-7" points="190.63 102.28 201.94 103.81 203.12 116.18 198.53 106.76 190.63 102.28"/><polygon class="cls-7" points="159.89 102.05 153.53 105.58 157.3 117.36 157.77 106.17 159.89 102.05"/><polygon class="cls-7" points="144.69 104.4 149.05 106.99 150.94 118.54 144.69 104.4"/><polygon class="cls-17" points="166.6 103.46 174.14 111 181.68 102.99 166.6 103.46"/><polygon class="cls-23" points="171.2 76.48 170.25 89.91 166.6 103.46 173.91 104.87 181.68 102.99 179.09 89.56 178.74 75.89 171.2 76.48"/><polygon class="cls-14" points="118.42 298.31 118.42 302.19 122.9 301.25 122.9 298.31 118.42 298.31"/></g><rect class="cls-16" x="0.5" y="0.5" width="399" height="399"/></g></svg>