<svg id="Layer_1" data-name="Layer 1" xmlns="http://www.w3.org/2000/svg" viewBox="0 0 400 400"><defs><style>.cls-1,.cls-7{fill:#2b2b2b;}.cls-1{opacity:0.1;}.cls-2{fill:#44622d;}.cls-3{fill:#5a753d;}.cls-4{fill:#f4cab2;}.cls-5{fill:#c18f7c;}.cls-6{fill:#fbe3d4;}.cls-8{fill:#fff0e8;}.cls-9{fill:#c4b186;}.cls-10{fill:#b2879c;}.cls-11{fill:#ebebea;}.cls-12{fill:#f9f1de;}.cls-13{fill:#ecdbb4;}.cls-14{fill:#dcdcdb;}.cls-15{fill:#709c52;}.cls-16{fill:#bfda8e;}.cls-17{fill:#98c16c;}.cls-18{fill:#c3c3c3;}.cls-19{fill:#474748;}</style></defs><title>diplomats_ENFP_famous_real_ellen_degeneres</title><polygon class="cls-1" points="100.29 391.44 196.85 370.56 291.4 392.54 211.38 400 143.43 400 100.29 391.44"/><polygon class="cls-2" points="150.64 232.87 243.96 241.09 197.65 267.79 150.64 232.87"/><polygon class="cls-3" points="197.65 267.79 215.03 311.32 246.96 311.32 243.96 241.09 197.65 267.79"/><polygon class="cls-3" points="183.42 312.04 197.65 267.79 151.33 233.19 150.38 311.32 183.42 312.04"/><polygon class="cls-4" points="235.17 48.44 254.34 66.8 227.53 144.31 203.28 175.53 193.99 162 235.17 48.44"/><polygon class="cls-5" points="178.47 141.22 221.52 140.97 193.99 162 178.47 141.22"/><polygon class="cls-6" points="225.83 118.18 203.92 140.97 178.47 141.22 156.18 113.52 152.15 38.1 208.58 20.98 235.17 48.44 225.83 118.18"/><polygon class="cls-4" points="176.39 94.83 170.56 74.53 157.37 66.04 167.34 61.61 177.3 65.32 182.5 70.3 185.4 88.18 176.39 94.83"/><polygon class="cls-4" points="191.56 70.3 197.48 63.66 208.83 60.88 221.52 64.38 205.99 75.14 196.27 94.83 186.33 83.35 191.56 70.3"/><circle class="cls-7" cx="170.56" cy="74.53" r="4.4"/><circle class="cls-7" cx="205.99" cy="74.53" r="4.4"/><polygon class="cls-8" points="182.5 70.3 191.56 70.3 191.56 86.97 196.27 94.83 176.39 94.83 181.82 86.24 182.5 70.3"/><polygon class="cls-5" points="176.39 94.83 186.33 101.11 196.27 94.83 176.39 94.83"/><polygon class="cls-9" points="197.48 63.66 197.48 59.79 207.87 58.83 221.52 61.24 221.52 64.38 207.5 62.21 197.48 63.66"/><polygon class="cls-10" points="168.36 105.34 212.22 105.34 196.42 119.87 176.39 119.14 168.36 105.34"/><polygon class="cls-4" points="161.5 50.38 210.38 32.99 203.43 39.36 220.43 40.27 215.35 49.83 227.24 49.04 217.07 18.96 164.26 45.98 161.5 50.38"/><polygon class="cls-9" points="177.3 65.32 177.3 61.21 167.76 59.88 157.37 62.6 157.37 66.04 167.34 63.38 177.3 65.32"/><polygon class="cls-11" points="174.39 107.75 204.99 107.91 196.06 115.52 179.87 115.52 174.39 107.75"/><polygon class="cls-4" points="204.73 95.91 213.72 103.65 210.82 104.61 204.73 95.91"/><polygon class="cls-4" points="164.26 103.53 171.38 95.91 167.34 104.61 164.26 103.53"/><polygon class="cls-12" points="154.4 80.17 147.87 66.04 161.5 7.46 178.24 25.37 154.47 60.88 154.4 80.17"/><polygon class="cls-13" points="214.87 28.89 164.26 45.98 186.77 12.81 225.66 11.39 214.87 28.89"/><polygon class="cls-12" points="203.43 39.36 214.87 28.89 225.66 11.39 232.27 22.34 222.12 37.1 203.43 39.36"/><polygon class="cls-9" points="254.34 66.8 254.34 37.32 228.08 0.53 225.66 11.39 232.27 22.34 254.34 66.8"/><polygon class="cls-13" points="232.27 22.34 222.12 37.1 215.35 49.83 226.46 45.96 239.13 35.42 232.27 22.34"/><polygon class="cls-12" points="226.46 45.96 239.13 35.42 254.34 66.8 236.52 85.8 226.46 45.96"/><polygon class="cls-12" points="228.08 0.53 195.54 0.53 186.77 12.81 225.66 11.39 228.08 0.53"/><polygon class="cls-9" points="195.54 0.53 161.5 7.46 178.24 25.37 195.54 0.53"/><polygon class="cls-9" points="161.5 7.46 145.39 39.83 147.87 66.04 161.5 7.46"/><polygon class="cls-13" points="236.52 85.8 239.13 35.42 254.34 66.8 236.52 85.8"/><polygon class="cls-13" points="154.4 80.17 161.5 7.46 147.87 66.04 154.4 80.17"/><polygon class="cls-6" points="254.34 66.8 242.66 61.61 233.96 95.91 243.94 99.86 254.34 66.8"/><polygon class="cls-5" points="244.15 75.5 247.97 75.5 241.93 87.58 244.15 75.5"/><polygon class="cls-5" points="233.96 95.91 240.18 107.75 243.94 99.86 233.96 95.91"/><polygon class="cls-14" points="227.53 144.31 197.27 165.54 178.47 141.22 162.93 158.49 167.34 250.75 212.22 252.69 238.95 159.51 227.53 144.31"/><polygon class="cls-15" points="176.39 168.76 165.9 144.24 150.68 147.69 152.15 227.16 141.26 255.59 174.39 270.25 178.47 218.54 176.39 208.06 176.39 168.76"/><polygon class="cls-16" points="125.06 205.4 157.53 231.53 160.56 202.02 153.44 198.4 125.06 205.4"/><polygon class="cls-15" points="240.4 150.51 252.34 157.18 248.52 189.86 239.13 220.15 250.21 271.65 190.29 271.65 189.69 214.35 229.27 151.49 240.4 150.51"/><polygon class="cls-4" points="185.18 214.25 176.13 209.03 159.87 207.87 155.01 208.71 157.53 231.53 184.96 235.81 188.08 236.3 192.38 214.42 185.18 214.25"/><polygon class="cls-6" points="167.76 219.26 169.31 206.6 155.01 208.71 157.53 231.53 167.76 219.26"/><polygon class="cls-5" points="159.87 207.87 172.11 216.84 176.13 209.03 159.87 207.87"/><polygon class="cls-17" points="178.47 141.22 176.39 208.06 162.96 152.49 168.42 150.75 165.9 144.24 178.47 141.22"/><polygon class="cls-5" points="157.53 231.53 167.96 217.65 184.51 226.57 184.96 235.81 157.53 231.53"/><polygon class="cls-6" points="159.87 207.87 160.56 202.02 176.13 209.03 170.99 212.89 159.87 207.87"/><polygon class="cls-4" points="160.56 202.02 164.43 200 178.06 207.46 176.13 209.03 160.56 202.02"/><polygon class="cls-5" points="185.18 214.25 183.31 235.75 192.98 237.55 192.38 214.42 185.18 214.25"/><polygon class="cls-17" points="227.53 144.31 240.4 150.51 229.21 162 232.27 169.4 189.69 214.35 227.53 144.31"/><polygon class="cls-17" points="252.34 157.18 239 211.18 261.75 236.26 262.22 162.76 252.34 157.18"/><polygon class="cls-16" points="239 211.18 186.85 214.25 191.28 241.97 261.75 236.26 239 211.18"/><polygon class="cls-17" points="150.68 147.69 153.44 198.4 125.06 205.4 150.68 147.69"/><polygon class="cls-15" points="150.38 311.32 147.81 360.44 177.39 367.85 183.42 312.04 150.38 311.32"/><polygon class="cls-15" points="215.03 311.32 225.16 368.81 254.61 367.85 246.96 311.32 215.03 311.32"/><polygon class="cls-2" points="174.63 382.36 174.08 387.67 154.69 385.56 153.24 383.38 139.17 383.93 112.23 377.77 113.01 374.81 114.4 375.41 155.78 370.56 174.63 382.36"/><polygon class="cls-18" points="175.59 371.41 174.63 382.36 158.62 381.09 155.54 380.79 141.22 381.09 114.4 375.41 115.55 367.36 139.59 366.94 153.42 368.51 175.59 371.41"/><polygon class="cls-19" points="139.59 366.94 147.81 360.44 175 367.25 175.59 371.41 158.62 381.09 155.54 380.79 153.79 371.95 142.91 372.62 139.59 366.94"/><polygon class="cls-2" points="256.16 378.97 258.07 384.83 254.61 385.26 255.32 388.94 245.53 392.54 222.34 392.54 221.67 387.97 223 388.04 240.64 373.34 256.16 378.97"/><polygon class="cls-18" points="250.24 367.99 256.16 378.97 253.75 380.61 252.6 385.8 245.53 388.34 223 388.04 223 380.23 227.53 376.24 233.81 370.38 250.24 367.99"/><polygon class="cls-19" points="228.32 368.71 227.53 376.24 234.82 373.46 247.04 378.12 249.82 375.04 253.75 380.61 250.24 367.99 228.32 368.71"/><polygon class="cls-6" points="168 221.19 183.74 227.63 183.17 238.36 157.53 231.53 168 221.19"/></svg>