<svg id="Layer_1" data-name="Layer 1" xmlns="http://www.w3.org/2000/svg" viewBox="0 0 400 400"><defs><style>.cls-1{fill:#a19161;}.cls-1,.cls-10,.cls-11,.cls-12,.cls-13,.cls-14,.cls-15,.cls-16,.cls-17,.cls-18,.cls-19,.cls-2,.cls-20,.cls-21,.cls-22,.cls-23,.cls-24,.cls-25,.cls-26,.cls-27,.cls-28,.cls-29,.cls-3,.cls-30,.cls-32,.cls-33,.cls-34,.cls-35,.cls-36,.cls-4,.cls-5,.cls-6,.cls-7,.cls-8,.cls-9{fill-rule:evenodd;}.cls-16,.cls-2{fill:#2b2b2b;}.cls-2{opacity:0.1;}.cls-3{fill:#948559;}.cls-4{fill:#d8e254;}.cls-5{fill:#e1a842;}.cls-6{fill:#709c53;}.cls-7{fill:#5a753d;}.cls-8{fill:#446125;}.cls-9{fill:#738c57;}.cls-10{fill:#bb8e2d;}.cls-11{fill:#f1bc68;}.cls-12{fill:#846400;}.cls-13{fill:#3f8e6f;}.cls-14{fill:#c3c3c3;}.cls-15{fill:#b48a00;}.cls-17{fill:#fff;}.cls-18{fill:#dcdcdb;}.cls-19,.cls-31{fill:#35785d;}.cls-20{fill:#54af8a;}.cls-21{fill:#f4c9b2;}.cls-22{fill:#fce3d4;}.cls-23{fill:#c1907d;}.cls-24{fill:#dbd9d9;}.cls-25{fill:#f5f5f5;}.cls-26{fill:#ab913c;}.cls-27{fill:#98c16d;}.cls-28{fill:#c2b375;}.cls-29{fill:#ab9c70;}.cls-30{fill:#a2a2a2;}.cls-32{fill:#ffefe7;}.cls-33{fill:#b3a67d;}.cls-34{fill:#72c8a5;}.cls-35{fill:#e7ef78;}.cls-36{fill:#b7c645;}</style></defs><title>diplomats_ENFP_famous_fictional_willy_wonka_charlie_and_the_chocolate_factory</title><polygon class="cls-1" points="196.97 118.14 183.37 121.5 183.37 109.4 196.43 109.47 196.97 118.14"/><polygon class="cls-2" points="140.63 383.04 267.54 363.35 349.61 380.52 268.01 400.5 140.63 383.04"/><polygon class="cls-3" points="169.46 94.51 179.35 81.16 190 87.52 183.37 109.4 169.46 94.51"/><polygon class="cls-1" points="171.8 76.51 169.46 94.5 177.04 90.97 181.16 89.05 181.55 79.62 177.54 73.29 173.8 73.54 171.8 76.51"/><polygon class="cls-1" points="287.39 100.67 300.48 98.63 295.39 79.02 287.63 70.95 279.22 71.15 277.76 76.66 281.45 86.24 287.39 100.67"/><polygon class="cls-4" points="308.85 291.94 305.38 289.12 297.1 291.32 293.18 293.08 298.72 312.61 308.85 291.94"/><polygon class="cls-4" points="309.38 335.69 301.97 338.37 291.24 333.66 302.67 315.33 309.38 335.69"/><polygon class="cls-4" points="315.14 293.38 313.22 332.2 301.85 318.82 307.47 304.9 315.14 293.38"/><polygon class="cls-5" points="331.6 259.83 328.98 274.1 323.79 284.17 321.57 291.04 301.07 288 296.96 287.39 295.48 261.06 304.73 250.79 320.78 254.5 331.6 259.83"/><polygon class="cls-6" points="331.6 259.83 336.76 250.64 319.18 237.24 297.06 236.83 298.77 245.6 304.73 250.79 323.27 253.8 331.6 259.83"/><polygon class="cls-7" points="336.76 250.64 338.15 264.35 334 264.72 331.6 259.83 326.79 255.07 328.67 250.79 336.76 250.64"/><polygon class="cls-8" points="338.15 264.35 330.24 278.93 330.46 281.8 323.79 284.17 331.6 259.83 338.15 264.35"/><polygon class="cls-6" points="323.79 284.17 330.24 278.93 337.13 280.98 334.09 284.68 323.79 284.17"/><polygon class="cls-9" points="295.48 261.06 288.13 257.36 278.72 247.87 298.86 234.13 304.73 250.79 295.48 261.06"/><polygon class="cls-7" points="319.18 237.24 309.64 234.24 305.95 232.87 298.86 234.13 298.34 235.99 300.16 237.81 319.18 237.24"/><polygon class="cls-8" points="309.64 234.24 313.2 229.33 302.35 228.76 298.86 234.13 309.64 234.24"/><polygon class="cls-10" points="300.55 261.27 306.83 265.93 313.16 274.58 315.68 269.87 315.26 265.38 308.03 259.25 300.55 261.27"/><polygon class="cls-6" points="320.77 233.02 302.35 228.76 314.44 228 320.77 233.02"/><path class="cls-10" d="M317.94,275.13c5.79-6.19,3.4-4.57,10.28-8.22l-2.43-3.44-5.93.93.23,1.18-2.15.41c-.72,5.47-.64,3.52,0,9.14"/><polygon class="cls-7" points="299.77 258.81 300.55 261.27 307.78 260.75 313.2 263.42 315.01 261.47 308.8 257.78 299.77 258.81"/><polygon class="cls-7" points="319.63 263.22 320.09 265.58 325.28 264.45 328.22 266.91 329.34 264.04 325.62 261.79 319.63 263.22"/><polygon class="cls-11" points="317.94 265.99 317.94 275.13 313.13 274.58 315.24 265.38 317.94 265.99"/><polygon class="cls-12" points="317.94 275.13 313.13 274.58 315.02 277.43 317.94 275.13"/><path class="cls-12" d="M305.19,278.11c.56,0,15.24,3.49,15.24,3.49l-4,5.13-8.69-1.64Z"/><polygon class="cls-8" points="308.86 291.94 296.47 312.49 301.08 320.91 315.14 293.38 308.86 291.94"/><polygon class="cls-8" points="289.01 293.42 301.08 320.91 309.38 335.69 313.22 332.2 297.1 291.32 292.38 287.15 289.01 293.42"/><polygon class="cls-6" points="309.38 335.69 312.17 344.23 294.48 370.39 290.69 371.96 286.99 370.08 288.84 346.37 300.58 338.88 309.38 335.69"/><polygon class="cls-8" points="304.36 355.78 294.48 370.39 290.69 371.96 286.99 370.08 287.89 358.53 304.36 355.78"/><polygon class="cls-6" points="288.84 346.37 275.42 361.47 269.38 347.77 263.68 320.91 288.38 330.79 288.84 346.37"/><polygon class="cls-8" points="279.27 357.14 270.85 366.99 269.38 347.77 269.47 347.31 279.27 357.14"/><polygon class="cls-7" points="299.39 287.73 297.1 291.32 294.28 292.06 292.15 292.61 289.67 296.37 276 265.69 278.72 247.87 295.48 261.06 297.95 278.25 299.39 287.73"/><polygon class="cls-13" points="286.99 370.08 284.56 379.43 296.44 380.47 308.32 379.43 294.48 370.39 291.69 370.27 286.99 370.08"/><polygon class="cls-6" points="314.25 311.3 321.48 317.7 329.16 306.77 326.5 300.59 315.14 293.38 314.25 311.3"/><polygon class="cls-9" points="321.48 317.7 347.94 302.27 343.16 296.12 326.5 300.6 321.48 317.7"/><polygon class="cls-14" points="347.94 302.27 355.31 297.84 360.36 296.75 357.5 291.46 365.99 286.07 363.67 282.74 355.43 288.1 357.33 280.23 353.12 279.68 351.21 289.83 346.99 290.09 350.08 295.34 346.57 296.94 346.09 299.9 348.53 300.37 347.94 302.27"/><polygon class="cls-15" points="304.73 250.79 321.3 256.37 331.6 259.83 328.67 250.79 304.73 250.79"/><path class="cls-16" d="M323.08,267.85a1.8,1.8,0,1,1-2,1.79,1.88,1.88,0,0,1,2-1.79"/><polygon class="cls-17" points="307.75 280.13 318.34 282.42 315.99 285.42 308.85 284.09 307.75 280.13"/><path class="cls-10" d="M301.07,288c.58.09-5.59-26.94-5.59-26.94L297,286.24l.14,5.08,5.26,1.53,6.5-.91Z"/><polygon class="cls-8" points="288.84 346.37 280.81 328.14 297.17 334.6 309.38 335.69 288.84 346.37"/><path class="cls-18" d="M343.16,296.12l2.88-7.47,2.83-1.18,4.76,1.66-.35,2.39-4.65-.56c1.44,2.06,1.62,1.77,1.45,4.38l-.24,1.74-3.75,2.83Z"/><polygon class="cls-12" points="309.27 289.22 308.86 291.94 302.36 292.85 298.13 287.54 309.27 289.22"/><polygon class="cls-18" points="357.5 291.46 353.69 293.89 354.1 296.41 356.53 298.44 360.36 296.75 358.93 294.11 357.5 291.46"/><polygon class="cls-4" points="215.86 280.2 241.23 253.69 257.68 145.91 219.93 144.44 190.11 257.28 215.86 280.2"/><polygon class="cls-19" points="293.27 319.93 297.17 334.6 184.36 316.63 190.4 278.19 273.24 269.92 293.27 319.93"/><polygon class="cls-7" points="235.76 288.37 197.39 261.19 195.4 258.06 187.13 266.42 184.36 316.63 214.04 337.36 222.25 322.67 235.76 288.37"/><polygon class="cls-9" points="267.04 269.92 246.34 261.77 222.12 278.71 216.36 271.41 217.56 293.16 231.74 324.18 258.33 340.86 270.85 330.69 267.04 269.92"/><polygon class="cls-19" points="192.43 147.34 154.84 174.88 180.07 192.64 190.58 186.22 197.08 164.6 192.43 147.34"/><polygon class="cls-13" points="184.36 316.63 199.46 250.68 205.02 200.86 225.29 137.79 192.43 147.34 184.36 316.63"/><polygon class="cls-20" points="202.1 187.44 192.31 200.45 199.46 250.68 223.04 146.82 225.84 143.58 215.9 140.52 197.08 164.6 202.1 187.44"/><polygon class="cls-21" points="234.71 143.77 256.56 141.24 266.12 131.3 270.23 113.37 275.62 107.05 278.65 76.68 284.34 57.32 264.34 53.9 251.28 43.57 243.32 111.25 236.45 128.45 234.71 143.77"/><polygon class="cls-22" points="171.96 48.92 183.37 109.4 209.25 131.81 239.97 128.01 253.57 108.05 251.28 43.57 231.54 33.04 197.02 35.43 171.96 48.92"/><polygon class="cls-23" points="216.35 130.93 219.7 138.39 223.1 145.2 234.28 150.56 248.71 145.56 254.9 125.98 216.35 130.93"/><polygon class="cls-24" points="216.35 130.93 234.58 143.7 231.91 161.32 215.9 140.52 216.35 130.93"/><polygon class="cls-25" points="234.58 143.7 266.12 131.3 265.29 141.05 258.45 150.26 237.54 155.76 231.91 161.32 234.58 143.7"/><polygon class="cls-13" points="265.29 141.05 287.25 150.99 293.13 175.05 282.62 187.23 269.96 222.23 301.08 320.91 297.17 334.6 246.36 274.5 227.29 275.09 234.83 260.38 226.28 249.89 261.63 151.52 265.29 141.05"/><polygon class="cls-20" points="268.58 171.13 250.28 194.42 257.97 211.35 226.28 249.89 244.82 177.64 257.1 145.39 265.29 141.05 268.58 171.13"/><polygon class="cls-26" points="237.54 180.98 232.24 185.19 233.81 191.25 239.34 187.55 237.54 180.98"/><polygon class="cls-26" points="221.33 191.78 216.36 195.47 217.61 202.05 223.37 197.94 221.33 191.78"/><polygon class="cls-26" points="231.81 205.81 226.27 210.33 228.08 216.08 233.84 211.77 231.81 205.81"/><polygon class="cls-26" points="217.81 215.33 212.11 219.49 214.08 225.6 219.33 221.39 217.81 215.33"/><polygon class="cls-13" points="179.44 359.89 202.24 363.53 191.38 384.58 154.76 381.62 179.44 359.89"/><polygon class="cls-19" points="202.24 363.53 183.97 381.62 197.59 384.29 202.24 381.62 202.24 363.53"/><polygon class="cls-20" points="170.64 367.63 191.95 373.68 202.24 363.53 195.38 358.08 179.44 359.89 170.64 367.63"/><polygon class="cls-13" points="179.42 366.81 183.11 362.87 193.77 365.01 190.36 370.03 179.42 366.81"/><polygon class="cls-7" points="208.18 158.41 215.16 157.9 227.15 160.74 224.98 165.7 216.35 173.75 208.18 158.41"/><polygon class="cls-9" points="208.18 158.41 218.64 144.09 227.41 154.14 227.15 160.74 208.18 158.41"/><polygon class="cls-9" points="237.54 155.76 235.06 161.71 247.09 165.31 262.19 163.75 257.1 145.39 237.54 155.76"/><polygon class="cls-7" points="235.06 161.71 234.18 166.31 244.82 177.64 262.19 163.75 235.06 161.71"/><polygon class="cls-6" points="226.03 160.67 236.66 159.79 235.09 167.03 224.98 165.7 226.03 160.67"/><polygon class="cls-27" points="227.41 154.14 226.03 160.67 236.23 161.79 237.54 155.76 227.41 154.14"/><polygon class="cls-20" points="278.72 247.87 255.93 243.65 281.79 204.62 303.46 191.52 318.49 209.74 278.72 247.87"/><polygon class="cls-21" points="255.93 243.65 245.34 260.23 274.82 260.3 276.65 258.73 278.72 247.87 255.93 243.65"/><polygon class="cls-4" points="239.06 262.44 275.94 262.44 276.65 258.73 239.06 258.75 239.06 262.44"/><polygon class="cls-8" points="234.83 260.38 246.36 274.5 217.56 293.16 197.39 261.19 211.12 255.09 223.85 265.89 234.83 260.38"/><polygon class="cls-26" points="216.37 235.27 210.66 239.42 212.64 245.53 217.89 241.32 216.37 235.27"/><polygon class="cls-9" points="184.36 316.63 222.25 322.67 202.24 363.53 179.44 359.89 184.36 316.63"/><polygon class="cls-7" points="231.74 324.18 270.85 330.69 270.85 366.99 264.58 374.76 248.61 364.93 231.74 324.18"/><polygon class="cls-19" points="287.25 150.99 318.49 209.74 281.79 204.62 271.54 173.29 287.25 150.99"/><polygon class="cls-23" points="205.32 98.67 212.25 104.55 216.8 96.18 211.22 99.14 205.32 98.67"/><polygon class="cls-21" points="208.94 70.43 211.89 68.25 223.96 62.91 235.76 65.87 216.8 96.18 208.3 87.14 208.94 70.43"/><polygon class="cls-23" points="206.24 111.85 220.56 109.76 228.07 104.33 229.91 106.84 223.19 112.6 208.46 114.47 206.24 111.85"/><polygon class="cls-21" points="186.01 76.63 194.48 81.82 204.94 93.57 208.3 87.14 205.5 71.27 203.12 70.18 192.67 69.2 186.01 76.63"/><polygon class="cls-28" points="211.89 68.25 212.35 63.5 224.78 61.22 236.33 65.89 225.16 65.37 211.89 68.25"/><polygon class="cls-28" points="186.01 76.63 191.03 67.75 202.84 65.69 203.12 70.18 191.42 71.98 186.01 76.63"/><polygon class="cls-1" points="251.28 43.57 261.35 46.57 268.29 38.78 264.87 33.86 252.96 22.33 239.33 29.92 251.28 43.57"/><polygon class="cls-21" points="220.26 96.67 235.04 106.83 231.04 98.13 220.26 96.67"/><polygon class="cls-21" points="203.78 100 203.17 112.37 200.38 105.31 203.78 100"/><polygon class="cls-3" points="264.42 86.42 254.72 55.55 273.88 58.08 275.54 70.23 264.42 86.42"/><polygon class="cls-29" points="278.65 76.68 275.05 79.83 274.41 95.15 277.23 114.12 286.94 116.59 287.39 100.67 278.65 76.68"/><polygon class="cls-1" points="274.41 95.15 286.94 116.59 266.12 131.3 274.41 95.15"/><polygon class="cls-29" points="173.26 52.84 168.54 62.71 166.64 76.36 177.61 79.02 173.26 52.84"/><polygon class="cls-3" points="166.64 76.36 162.71 60.35 169.46 56.68 175.05 63.59 166.64 76.36"/><polygon class="cls-30" points="353.27 291.52 353.69 293.89 356.54 298.44 347.94 302.27 346.09 299.9 350.08 295.34 348.63 290.96 353.27 291.52"/><path class="cls-16" d="M306.83,263.92a2,2,0,1,1-2.22,2,2.12,2.12,0,0,1,2.22-2"/><rect class="cls-31" x="154.76" y="381.62" width="47.48" height="4.88"/><path class="cls-16" d="M195.37,75.27a4,4,0,1,1-3.36,4.6,4,4,0,0,1,3.36-4.6"/><path class="cls-16" d="M221.49,70.26a4,4,0,1,1-3.35,4.59,4,4,0,0,1,3.35-4.59"/><rect class="cls-31" x="284.56" y="379.43" width="23.76" height="2.1"/><polygon class="cls-13" points="248.61 364.93 238.25 385.42 256.87 389.46 273.61 385.69 270.85 366.99 248.61 364.93"/><polygon class="cls-20" points="264.67 366.42 248.61 364.93 246.94 377.6 266.24 377.47 264.67 366.42"/><rect class="cls-31" x="238.25" y="385.42" width="35.32" height="4.89"/><polygon class="cls-13" points="252.01 368.43 250.94 374.07 261.37 374.09 261.59 368.87 252.01 368.43"/><polygon class="cls-32" points="205.5 71.27 204.4 86.38 205.32 98.67 211.22 99.14 216.8 96.18 211.12 86.13 208.94 70.43 205.5 71.27"/><polygon class="cls-29" points="288.33 34.92 278.36 44.44 264.67 39.48 260.22 30.52 258.65 20.53 276.21 26.64 288.33 34.92"/><polygon class="cls-1" points="289.22 47.83 286.42 54.28 268.06 50.89 260.71 47.08 264.67 39.48 288.33 34.92 289.22 47.83"/><polygon class="cls-33" points="299.99 58.63 292.14 63.95 284.34 57.32 271.5 56.62 268.06 50.89 289.22 47.83 299.99 58.63"/><polygon class="cls-29" points="266.7 62.96 262.51 60.37 254.72 55.55 260.17 47.27 268.06 50.89 284.34 57.32 276.1 66.46 266.7 62.96"/><polygon class="cls-29" points="278.65 76.68 274.32 68.12 284.34 57.32 299.99 58.63 295.39 79.02 278.65 76.68"/><polygon class="cls-1" points="264.42 86.42 266.7 62.96 284.34 57.32 278.65 76.68 264.42 86.42"/><polygon class="cls-22" points="276.17 87.47 264.42 86.42 278.65 76.68 276.17 87.47"/><polygon class="cls-23" points="274.41 95.15 264.42 86.42 276.17 87.47 274.41 95.15"/><polygon class="cls-1" points="171.35 38.94 165.92 36.3 165.37 45.32 162.71 60.35 175.05 63.59 177.61 45.67 171.35 38.94"/><polygon class="cls-3" points="181.7 24.55 172.52 45.91 171.35 38.94 165.37 45.32 159.92 25.75 178.72 19.45 181.7 24.55"/><polygon class="cls-29" points="182.02 46.23 187.56 38.4 181.7 24.55 171.35 38.94 172.25 44.29 175.05 63.59 182.02 46.23"/><polygon class="cls-33" points="190.49 13.3 190.95 24.46 181.7 24.55 159.92 25.75 177.71 14.28 190.49 13.3"/><polygon class="cls-1" points="197.02 35.43 201.95 25.28 190.49 13.3 181.7 24.55 182.02 46.23 197.02 35.43"/><polygon class="cls-33" points="207.27 44.38 215.92 28.74 208.26 4.35 190.49 13.3 197.02 35.43 207.27 44.38"/><polygon class="cls-1" points="223.91 39.74 225.86 28.41 207.93 17.73 207.27 44.38 223.91 39.74"/><polygon class="cls-33" points="232.13 46.63 239.69 31.7 229.37 15.9 224.93 12.78 207.93 17.73 223.91 39.74 232.13 46.63"/><polygon class="cls-29" points="251.28 43.57 248.41 33.56 247.68 22.32 229.37 15.9 232.13 46.63 251.28 43.57"/><polygon class="cls-33" points="276.21 26.64 267.99 16.84 253.79 11.68 229.37 15.9 248.41 33.56 276.21 26.64"/><polygon class="cls-3" points="250.02 1.5 247.83 10.92 229.37 15.9 220.68 16.64 207.93 17.73 208.26 4.35 250.02 1.5"/><polygon class="cls-1" points="267.99 16.84 264.75 9.18 250.02 1.5 242.07 7.05 229.37 15.9 252.65 16.47 267.99 16.84"/><polygon class="cls-23" points="137 132.3 117.61 123.87 120.41 137.72 130.89 143.11 137 132.3"/><polygon class="cls-13" points="131.29 145.42 150.99 210.42 180.07 192.64 151.96 147.18 131.29 145.42"/><polygon class="cls-19" points="99.75 43.49 100.2 58.39 106.05 54.87 103.35 47.83 99.75 43.49"/><polygon class="cls-19" points="114.17 142.57 107.6 129.57 113.55 121.31 115.56 128.48 114.17 142.57"/><polygon class="cls-20" points="40.79 124.61 34.46 75.34 36.24 65.72 94.62 58.65 103.66 67 110.83 95.46 110.61 113.56 93.99 117.1 43.79 129.66 40.79 124.61"/><polygon class="cls-13" points="41.98 122.8 96.97 114.08 114.09 118.55 103.9 129.91 42.8 139.53 40.16 125.57 41.98 122.8"/><polygon class="cls-34" points="117.06 44.9 125.3 128.1 125.85 133.49 114.17 142.57 113.27 129.06 106.85 120.12 112.34 66.25 99.75 43.49 117.06 44.9"/><polygon class="cls-34" points="36.48 76 112.35 66.25 105.46 60.59 93.38 55.54 36.11 60.4 36.48 76"/><polygon class="cls-4" points="116.76 112.03 112.35 66.25 99.04 63.58 91.96 68.21 96.97 114.08 101.65 117.5 116.76 112.03"/><polygon class="cls-35" points="91.97 68.21 112.35 66.25 106.05 54.87 93.38 55.54 91.97 68.21"/><polygon class="cls-19" points="42.8 139.53 41.98 122.8 38.58 116.73 36.03 119.56 42.8 139.53"/><polygon class="cls-19" points="36.11 60.4 32.01 80.23 34.53 82.62 36.63 75.99 36.11 60.4"/><polygon class="cls-13" points="41.98 122.8 36.63 75.99 32.01 80.23 36.03 119.56 41.98 122.8"/><polygon class="cls-36" points="96.97 114.08 116.76 112.03 114.83 121.42 113.27 129.06 103.9 129.91 99.45 122.08 96.97 114.08"/><polygon class="cls-21" points="114.48 148.53 134.2 155.02 151.96 147.18 137 132.3 125.86 133.49 121.89 135.02 114.65 137.7 114.48 148.53"/><polygon class="cls-23" points="99.45 122.08 114.48 148.53 121.89 135.02 115.58 117.77 99.45 122.08"/><polygon class="cls-29" points="259.57 70.99 272.99 80.55 264.42 86.42 258.58 85.21 259.57 70.99"/><polygon class="cls-33" points="251.28 43.57 254.72 55.55 268.06 50.89 264.67 39.48 251.28 43.57"/></svg>