<svg id="Layer_1" data-name="Layer 1" xmlns="http://www.w3.org/2000/svg" viewBox="0 0 400 400"><defs><style>.cls-1,.cls-18{fill:#2b2b2b;}.cls-1,.cls-10,.cls-11,.cls-12,.cls-13,.cls-14,.cls-15,.cls-16,.cls-17,.cls-18,.cls-2,.cls-3,.cls-4,.cls-5,.cls-6,.cls-7,.cls-8,.cls-9{fill-rule:evenodd;}.cls-1{opacity:0.1;}.cls-2{fill:#35785e;}.cls-3{fill:#44622d;}.cls-4{fill:#f4cab2;}.cls-5{fill:#fbe3d4;}.cls-6{fill:#5a753d;}.cls-7{fill:#d8e156;}.cls-8{fill:#3f8e6f;}.cls-9{fill:#54af8a;}.cls-10{fill:#738c57;}.cls-11{fill:#b7c644;}.cls-12{fill:#c18f7c;}.cls-13{fill:#9d8d56;}.cls-14{fill:#c1b170;}.cls-15{fill:#e1ce7f;}.cls-16{fill:#fff0e8;}.cls-17{fill:#e5e97b;}</style></defs><title>diplomats_ENFP_famous_fictional_peeta_mellark_the_hunger_games</title><polygon class="cls-1" points="106.27 387.76 197.04 400 293.73 387.76 200.57 378 106.27 387.76"/><polygon class="cls-2" points="218.48 379.65 212.09 387.02 212.49 391.63 245.77 391.63 245.59 387 218.48 379.65"/><polygon class="cls-2" points="157.54 373.96 133.3 380.87 133.58 385.57 186.31 386.31 186.67 380.77 157.54 373.96"/><polygon class="cls-3" points="149.37 247.17 146 257.19 143.16 263.67 128.08 259.77 128.79 248.76 149.37 247.17"/><polygon class="cls-4" points="128.79 248.76 121.51 248.41 114.42 261.72 131.98 279.64 143.16 263.67 131.98 253.91 128.79 248.76"/><polygon class="cls-5" points="143.87 238.83 132.87 242.64 121.51 248.41 124.89 265.09 130.03 263.67 131.98 253.91 142.14 249.3 143.87 238.83"/><polygon class="cls-3" points="156.82 210.35 149.55 214.96 136.39 236.8 139.1 242.55 150.49 252.51 158.24 244.42 172.26 223.84 156.82 210.35"/><polygon class="cls-6" points="136.39 236.8 132.87 242.64 136.89 249.6 146 257.19 150.49 252.51 147.47 247.32 159.18 222.43 153.98 218.41 142.03 242.62 136.39 236.8"/><polygon class="cls-7" points="176.69 180.19 163.21 160.67 155.6 190.91 154.87 198.77 152.37 203.74 149.55 214.96 153.98 218.41 159.18 222.43 165.34 227.21 176.69 180.19"/><polygon class="cls-8" points="227.31 356.2 217.82 364.52 212.09 387.02 245.59 387 241.28 364.71 227.31 356.2"/><polygon class="cls-8" points="170.39 355.14 161.47 359.96 133.3 380.87 186.67 380.77 185.38 362.55 170.39 355.14"/><polygon class="cls-9" points="172.83 324.18 161.45 337.29 161.47 359.96 185.38 362.55 188.12 339.83 172.83 324.18"/><polygon class="cls-9" points="216.09 314.95 211.01 341.33 217.82 364.52 241.28 364.71 239.19 337.37 216.09 314.95"/><polygon class="cls-10" points="176.34 257.99 158.75 254.93 161.45 337.29 167.82 337.84 172.37 333.06 174.25 338.39 188.12 339.83 194.44 283.01 176.34 257.99"/><polygon class="cls-6" points="170.84 257.04 163.64 255.78 167.82 337.84 171.47 338.15 174.25 338.39 170.84 257.04"/><polygon class="cls-3" points="199.23 258.88 194.44 283.01 211.01 341.33 225.84 339.25 228.49 329.29 232.1 338.37 239.19 337.37 232.1 256.22 199.23 258.88"/><polygon class="cls-6" points="225.84 339.25 232.1 338.37 219.98 255.82 212.74 256.89 225.84 339.25"/><polygon class="cls-6" points="171.9 240.43 158.24 244.86 158.75 254.93 163.77 258.34 167.93 259.2 171.14 264.29 194.44 283.01 214.6 268.55 215.14 258.85 221.18 264.02 232.1 256.22 231.34 244.68 225.26 238.46 171.9 240.43"/><polygon class="cls-6" points="170.12 241.01 163.04 243.3 163.08 244.85 163.77 258.34 171.14 264.29 170.33 244.83 170.12 241.01"/><polygon class="cls-6" points="214.6 268.55 221.18 264.02 218.35 244.72 218.39 243.76 210.88 243.22 210.81 244.74 214.6 268.55"/><polygon class="cls-4" points="258.31 262.96 252.28 272.19 248.73 279.82 268.43 283.01 277.83 273.25 258.31 262.96"/><polygon class="cls-4" points="254.68 246.77 250.86 252.05 245.18 261.9 254.06 267.22 257.96 254.62 254.68 246.77"/><polygon class="cls-3" points="258.49 241.49 250.86 252.05 252.28 272.19 277.83 273.25 269.67 251.16 258.49 241.49"/><path class="cls-10" d="M222.12,224.81l9.22,11.62v8.25l-13,0-4.71-4-2.83,4-40.48.1-.09,0h18.43l-1.42-4.31,1.42-9.4,33.45-6.27Zm-59,20h0l-.07.06h-4.84v-.07Z"/><polygon class="cls-3" points="170.24 244.79 165.76 242.42 163.15 244.79 158.24 244.79 158.24 236.79 188.67 231.08 188.67 244.79 170.24 244.79"/><polygon class="cls-10" points="170.33 244.83 163.08 244.85 162.88 235.92 169.76 234.63 170.33 244.83"/><polygon class="cls-3" points="249.97 205.03 265.41 206.8 268.5 238.94 268.39 247.92 256.54 249.65 249.77 245.87 245.18 219.93 249.97 205.03"/><polygon class="cls-6" points="268.49 238.84 269.67 251.16 250.86 252.05 249.77 245.87 264.08 246.33 245.18 219.93 253.02 214.85 268.49 238.84"/><polygon class="cls-7" points="230.81 167.41 241.99 161.2 254.73 186.01 255.57 193.68 258.63 193.59 265.41 206.8 253.02 214.85 250.17 215.34 245.18 219.93 227.62 200.41 230.81 167.41"/><polygon class="cls-3" points="215.91 147.89 216.75 148.12 212.9 156.17 228.51 152.88 232.94 155.61 235.24 208.89 230.59 216.44 233.87 218.56 231.34 236.43 218.7 236.5 213.51 233.11 211.04 236.53 188.72 236.64 184.29 191.95 192.84 169.36 192.69 149.29 215.91 147.89"/><polygon class="cls-2" points="215.93 148.68 215.74 148.81 223.89 150.02 228.51 152.88 207.12 166.75 192.81 165.67 192.69 149.29 207.03 148.43 215.93 148.68"/><polygon class="cls-10" points="188.72 236.64 169.88 236.73 164.72 235.57 162.9 236.76 158.24 236.79 159.16 221.91 161.83 219.56 159.74 213.82 160.58 200.04 166.22 167.91 171.27 157.6 175.29 156.06 190.98 160.12 192.69 149.29 192.84 169.36 188.72 236.64"/><polygon class="cls-8" points="175.38 156.03 179.32 154.53 187.87 149.58 192.69 149.29 192.81 165.67 183.7 164.98 175.38 156.03"/><polygon class="cls-6" points="169.88 236.73 166.04 236.75 162.9 236.76 162.63 225.11 159.18 222.43 159.74 213.82 169 221 169.88 236.73"/><polygon class="cls-6" points="235.24 208.89 233.87 218.56 218.97 230.22 218.7 236.5 211.04 236.53 211.74 226.76 235.24 208.89"/><polygon class="cls-11" points="160.6 200.56 163.21 160.67 171.27 157.6 171.76 183.9 160.6 200.56"/><polygon class="cls-11" points="232.94 155.61 241.99 161.2 235.24 208.89 218 186.75 232.94 155.61"/><path class="cls-2" d="M189.57,222.7l7.67-11.46L212,189.16l-1-11.77-.82-9.87-.71-8.62-1.31-8.25L201.86,152l-15,34.6C186.37,186.45,190,216.17,189.57,222.7Z"/><path class="cls-8" d="M176.49,187.08l8.63,23.5,4.45,12.12.64-10.33s-3.84-25.92-3.36-25.74l15-34.6-14.42,3.12-3.37,4.59-7.58,27.34Z"/><polygon class="cls-8" points="190.21 212.37 206.61 187.09 205.19 157.54 191.89 157.14 189.32 165.5 190.21 212.37"/><polygon class="cls-9" points="189.31 156.3 181.42 185.58 190.21 212.37 192.84 169.36 192.76 159.33 191.89 157.14 189.31 156.3"/><path class="cls-4" d="M233.39,105.88,223.89,150l-31,19.34-9.48-28.12L191.78,29s25.25-3.9,27-1.77S233.39,105.88,233.39,105.88Z"/><polygon class="cls-12" points="189.47 129.8 183.36 141.24 215.73 141.51 205.39 161.55 192.84 169.36 160.02 133.34 189.47 129.8"/><polygon class="cls-12" points="231.52 94.49 223.43 95.97 233.39 105.88 235.16 97.98 231.52 94.49"/><polygon class="cls-13" points="227.66 44.09 246.43 52.08 239.33 78.69 226.56 84.9 220.34 84.19 221.41 62.02 227.66 44.09"/><polygon class="cls-14" points="224.43 26.17 233.65 33.27 246.43 52.08 221.41 62.02 208.78 41.81 224.43 26.17"/><polygon class="cls-15" points="171.37 33.27 153.54 0 226.2 12.51 233.65 33.27 208.78 41.81 171.37 33.27"/><path class="cls-13" d="M143.6,19.16,125.68,35.31l11.18,14.55s26.11-11,25.91-9.94S143.6,19.16,143.6,19.16Z"/><polygon class="cls-14" points="149.28 44.71 143.34 40.29 133.67 15.08 153.54 0 208.78 41.81 170.22 52.34 149.28 44.71"/><polygon class="cls-5" points="136.86 49.86 136.86 120.56 155.06 140.98 186.06 141.24 205.66 127.83 208.78 41.81 165.25 41.52 143.34 40.29 136.86 49.86"/><path class="cls-4" d="M147.05,69.24l-7.79,3.07,12.86,9.22s12,12.82,11.27,12.69,9,4.29,9,4.29l14.14-17.4,15.37-8.74-12.62-2.13-15.92,3.48L170,80.38,168.36,85,165,80.38l-2.78-6.3Z"/><polygon class="cls-12" points="166.05 93.03 161.79 100.84 167.56 105.88 172.35 100.84 166.05 93.03"/><polygon class="cls-13" points="160.46 70.15 145.99 68.18 139.25 72.31 147.01 72 162.2 74.08 160.46 70.15"/><polygon class="cls-13" points="174.99 69.81 193.68 68.31 201.86 72.37 191.16 72.08 173.32 73.72 174.99 69.81"/><polygon class="cls-16" points="164.98 80.38 161.79 100.84 172.35 100.84 170.04 80.38 164.98 80.38"/><polygon class="cls-12" points="155.62 114.66 181.84 114.93 180.78 117.55 156.47 117.28 155.62 114.66"/><polygon class="cls-5" points="225.31 76.92 239.33 78.69 235.16 97.98 223.43 95.97 225.31 76.92"/><polygon class="cls-12" points="235.61 82.06 228.85 81.11 227.61 90.61 235.61 82.06"/><polygon class="cls-6" points="211.04 236.53 210.81 244.74 218.35 244.72 218.7 236.5 214.52 233.77 211.04 236.53"/><polygon class="cls-17" points="254.73 186.01 245.18 219.93 253.02 214.85 258.63 193.59 254.73 186.01"/><polygon class="cls-17" points="152.37 203.74 153.98 218.41 159.18 222.43 159.74 213.82 155.65 190.71 152.37 203.74"/><polygon class="cls-3" points="132.87 242.64 131.98 253.91 146 257.19 137.22 247.47 132.87 242.64"/><path class="cls-18" d="M157.66,81.11A3.68,3.68,0,1,1,154,77.43,3.68,3.68,0,0,1,157.66,81.11Z"/><path class="cls-18" d="M190.17,81.11a3.68,3.68,0,1,1-3.68-3.68A3.68,3.68,0,0,1,190.17,81.11Z"/></svg>