<svg id="Layer_1" data-name="Layer 1" xmlns="http://www.w3.org/2000/svg" viewBox="0 0 400 400"><defs><style>.cls-1{opacity:0.1;}.cls-2{fill:#2b2c2b;}.cls-3{fill:#fbe3d4;}.cls-4{fill:#f4cab2;}.cls-5{fill:#c18f7c;}.cls-6{fill:#3f8e6f;}.cls-7{fill:#35785e;}.cls-8{fill:#709c52;}.cls-9{fill:#98c16c;}.cls-10{fill:#9ecd7e;}.cls-11{fill:#bfda8e;}.cls-12{fill:#738c57;}.cls-13{fill:#74c7a5;}.cls-14{fill:#d8e156;}.cls-15{fill:#b7c644;}.cls-16{fill:#4f5253;}.cls-17{fill:#484748;}.cls-18{fill:#e5e97b;}.cls-19{fill:#e4d286;}.cls-20{fill:#efdc8f;}.cls-21{fill:#54af8a;}.cls-22{fill:#fff0e8;}.cls-23{fill:#fef7b0;}.cls-24{fill:#fff;}</style></defs><title>diplomats_ENFP_famous_fictional_carrie_bradshaw_sex_and_the_city</title><g class="cls-1"><polygon class="cls-2" points="88 389.21 204.26 402.01 320 387.79 204.26 380.69 88 389.21"/></g><polygon class="cls-3" points="238.56 359.56 168.58 306.58 213.06 310.54 252.2 351.14 238.56 359.56"/><polygon class="cls-4" points="137.15 246.89 154.94 204.58 163.83 210.52 166.8 230.82 149.86 254.96 141.3 258.05 137.15 246.89"/><polygon class="cls-5" points="195.26 326.88 168.58 306.58 213.06 310.54 218.39 315.98 195.26 326.88"/><polygon class="cls-6" points="234.41 364.51 223.14 353.62 238.56 343.22 248.64 358.07 234.41 364.51"/><polygon class="cls-3" points="119.17 339.26 137.74 300.64 167.39 299.15 170.35 311.03 138.88 346.67 119.17 339.26"/><polygon class="cls-4" points="137.74 300.64 153.75 266.97 170.36 311.03 162.79 319.6 137.74 300.64"/><polygon class="cls-6" points="112.83 352.63 119.17 339.26 140.15 345.26 128.25 358.57 112.83 352.63"/><polygon class="cls-7" points="123.5 380.35 128.25 358.57 114.61 359.06 115.2 371.94 115.79 380.35 123.5 380.35"/><polygon class="cls-3" points="111.05 375.41 104.53 372.93 112.83 352.63 128.25 358.57 120.54 366 114.02 367.98 115.2 371.94 111.05 375.41"/><polygon class="cls-6" points="74.28 373.92 83.77 368.96 92.07 366.98 98.59 370.45 111.05 375.41 105.12 381.84 74.28 373.92"/><polygon class="cls-8" points="234.41 262.51 232.04 248.15 221.36 243.69 195.86 226.36 165.61 241.22 151.39 271.92 152.69 311.92 168.58 315.49 218.39 315.98 225.51 292.71 215.43 280.83 234.41 262.51"/><polygon class="cls-9" points="227.29 183.28 191.71 178.83 155.53 191.7 153.16 209.03 159.71 216.93 161.31 230.09 165.61 241.22 221.36 243.69 242.71 199.62 227.29 183.28"/><polygon class="cls-10" points="166.2 199.13 216.02 243.2 221.95 230.82 177.47 200.12 166.2 199.13"/><polygon class="cls-11" points="202.98 242.7 211.87 246.17 216.02 243.2 166.2 199.13 153.08 209 157.08 219.18 166.8 204.58 202.98 242.7"/><polygon class="cls-10" points="202.98 242.7 205.35 248.65 212.46 251.12 216.02 243.2 202.98 242.7"/><polygon class="cls-3" points="248.05 159.52 218.99 149.12 183.4 149.61 173.32 145.65 166.8 154.07 169.64 164.72 177.47 183.78 227.29 183.28 248.05 159.52"/><polygon class="cls-12" points="225.51 292.22 228.47 280.83 213.65 273.9 182.22 280.83 225.51 292.22"/><polygon class="cls-4" points="255.16 218.94 248.05 159.52 227.29 183.28 231.44 211.51 239.15 224.88 255.16 218.94"/><polygon class="cls-3" points="216.02 243.2 231.44 211.51 255.16 218.94 232.04 248.15 220.77 248.15 216.02 243.2"/><polygon class="cls-13" points="212.46 251.12 216.02 243.2 232.04 248.15 226.7 255.58 218.39 257.56 212.46 251.12"/><polygon class="cls-5" points="199.41 259.54 212.46 251.12 215.43 258.05 204.75 269.44 199.41 259.54"/><polygon class="cls-14" points="185.18 258.05 208.31 260.53 234.41 262.51 228.47 280.83 212.46 280.83 210.09 275.88 200.6 280.83 182.22 280.83 179.25 275.88 185.18 258.05"/><polygon class="cls-15" points="181.62 257.56 185.18 258.05 182.22 280.83 175.1 278.35 181.62 257.56"/><polygon class="cls-4" points="204.75 269.44 212.46 251.12 226.7 255.58 224.92 270.93 213.65 273.9 204.75 269.44"/><polygon class="cls-3" points="200.6 280.83 204.75 269.44 224.92 270.93 212.46 280.83 200.6 280.83"/><polygon class="cls-6" points="120.54 355.6 120.54 366 115.2 371.94 100.97 372.93 98.59 370.45 92.66 367.48 92.66 363.52 112.83 352.63 119.94 350.65 120.54 355.6"/><polygon class="cls-3" points="83.77 368.96 98.59 370.45 92.66 363.52 83.77 368.96"/><polygon class="cls-7" points="253.09 365.25 232.93 349.9 226.4 358.82 239.45 365.75 248.94 370.2 253.09 365.25"/><polygon class="cls-4" points="241.23 370.2 234.7 373.67 218.69 356.34 232.93 349.9 237.08 358.82 234.7 364.26 239.45 365.75 241.23 370.2"/><polygon class="cls-6" points="219.29 393.97 219.29 385.06 221.66 378.62 229.37 376.14 241.23 370.2 244.78 378.13 219.29 393.97"/><polygon class="cls-6" points="225.81 353.37 237.08 358.82 239.45 365.75 232.93 376.14 229.37 376.14 222.84 379.12 218.69 376.14 218.69 356.34 220.47 350.89 225.81 353.37"/><polygon class="cls-4" points="219.29 385.06 229.37 376.14 218.69 376.14 219.29 385.06"/><polygon class="cls-16" points="181.62 316.48 181.03 349.66 191.71 371.94 284.22 355.6 267.02 297.17 227.29 302.62 181.62 316.48"/><polygon class="cls-17" points="173.92 366.49 191.71 371.94 181.62 316.48 179.25 314.5 166.84 315.15 173.92 366.49"/><polygon class="cls-18" points="267.02 297.17 245.08 296.18 168.58 315 169.76 315.49 181.63 316.48 184 314.5 185.18 315.98 267.02 297.17"/><polygon class="cls-7" points="200.6 280.83 185.18 315.98 181.62 316.48 197.63 280.83 200.6 280.83"/><polygon class="cls-7" points="166.84 315.15 197.63 280.83 203.31 273.4 200.6 280.83 169.53 315.49 166.84 315.15"/><polygon class="cls-7" points="264.06 298.16 223.14 272.41 224.92 270.93 267.02 297.17 264.06 298.16"/><polygon class="cls-7" points="242.12 297.17 223.14 272.41 224.92 270.93 245.08 296.18 242.12 297.17"/><polygon class="cls-5" points="125.69 265.16 130.45 257.56 143.88 251.16 149.86 254.96 145.45 269.44 138.33 272.91 125.69 265.16"/><polygon class="cls-4" points="134.18 280.83 125.69 265.16 145.45 269.44 147.23 280.34 134.18 280.83"/><polygon class="cls-3" points="130.45 257.56 136.55 267.52 141.89 264.98 139.75 258.05 143.88 251.16 137.15 246.89 130.45 257.56"/><polygon class="cls-19" points="184.54 160.13 173.28 139.77 165.94 126.73 153.08 137.41 154.31 149.86 172.13 164.69 184.54 160.13"/><polygon class="cls-4" points="236.34 63.27 243.07 117.24 216.37 149.56 184.54 160.13 182.47 137.66 209.4 47.26 236.34 63.27"/><polygon class="cls-20" points="216.13 84.62 209.4 50.82 224.09 62.09 227.16 73.94 216.13 84.62"/><polygon class="cls-3" points="135.33 41.92 135.33 93.52 153.08 137.4 184.56 137.4 203.91 117.83 209.4 47.26 178.18 17.01 137.16 18.2 135.33 41.92"/><polygon class="cls-5" points="184.54 160.13 205.03 137.4 169 137.4 184.54 160.13"/><polygon class="cls-3" points="219.81 67.72 214.91 90.26 229.6 93.81 234.5 70.69 219.81 67.72"/><polygon class="cls-5" points="220.42 84.92 222.25 73.06 229.6 74.83 220.42 84.92"/><polygon class="cls-5" points="214.91 90.25 226.54 100.93 228.38 99.74 229.6 93.81 214.91 90.25"/><path class="cls-21" d="M222.25,92,213.07,98l4.9,15.42,9.79-13Zm-4.89,7.12L221,97.37l2.45,3-4.29,6.52Z"/><polygon class="cls-4" points="137.16 61.75 152.17 72.47 164.1 95.89 169 97.67 173.28 95.89 187.36 73.51 205.03 61.33 194.65 58.37 177.13 62.74 172.67 69.8 169 72.17 166.03 69.8 162.01 62.74 145.81 58.8 137.16 61.75"/><polygon class="cls-22" points="166.03 69.8 163.59 95.89 173.99 95.89 172.67 69.8 166.03 69.8"/><polygon class="cls-5" points="168.39 100.04 163.59 95.89 173.99 95.89 168.39 100.04"/><polygon class="cls-19" points="160.99 58.11 162.01 62.74 145.81 58.8 137.16 61.75 145.47 56.22 160.99 58.11"/><polygon class="cls-19" points="178.28 58.27 177.13 62.74 194.65 58.37 205.03 61.33 194.88 56.22 178.28 58.27"/><path class="cls-2" d="M184.54,68.61a3.86,3.86,0,1,1-4,3.86,3.92,3.92,0,0,1,4-3.86"/><path class="cls-2" d="M156.15,68.61a3.86,3.86,0,1,1-4,3.86,3.93,3.93,0,0,1,4-3.86"/><polygon class="cls-20" points="145.12 23.54 164.71 39.55 191.65 41.33 175.73 19.98 145.12 11.08 140.23 19.98 145.12 23.54"/><polygon class="cls-23" points="135.33 46.67 145.12 23.54 146.96 17.61 145.12 11.08 131.04 17.61 117.58 44.29 124.31 46.67 135.33 46.67"/><polygon class="cls-23" points="169.61 1 145.12 11.08 191.65 41.33 201.44 39.55 200.84 30.06 169.61 1"/><polygon class="cls-19" points="169.61 1 177.57 10.49 200.84 14.05 215.53 9.9 169.61 1"/><polygon class="cls-19" points="263.89 208.57 279.8 180.7 276.74 151.04 263.89 138 260.83 157.57 264.5 170.02 263.89 208.57"/><polygon class="cls-20" points="227.77 21.76 215.53 9.9 177.57 10.49 186.75 21.76 206.34 27.09 227.77 21.76"/><polygon class="cls-23" points="242.46 40.74 227.77 21.76 186.75 21.76 201.44 39.55 219.19 43.11 242.46 40.74"/><polygon class="cls-20" points="264.5 76.32 242.46 40.74 201.44 39.55 208.79 50.23 242.46 76.32 264.5 76.32"/><polygon class="cls-23" points="247.97 89.36 232.06 80.47 208.79 50.23 236.34 63.27 247.97 89.36"/><polygon class="cls-19" points="284.08 117.83 278.58 116.65 260.83 107.75 247.97 89.36 236.34 63.27 264.5 76.32 284.08 117.83"/><polygon class="cls-20" points="298.78 120.8 264.5 76.32 278.58 116.65 290.82 122.58 298.78 120.8"/><polygon class="cls-23" points="290.82 133.25 300.01 132.66 298.78 120.8 278.58 116.65 290.82 133.25"/><polygon class="cls-20" points="325.72 147.49 290.82 133.25 298.78 120.8 325.72 147.49"/><polygon class="cls-20" points="278.58 116.65 286.54 157.57 284.7 177.14 279.8 180.7 276.74 151.04 271.23 132.66 278.58 116.65"/><polygon class="cls-19" points="301.84 194.34 286.54 157.57 279.8 180.7 301.84 194.34"/><polygon class="cls-23" points="278.58 116.65 263.89 138 276.74 151.04 278.58 130.88 278.58 116.65"/><polygon class="cls-20" points="232.06 80.47 238.18 120.21 263.89 138 278.58 116.65 247.97 89.36 232.06 80.47"/><polygon class="cls-23" points="222.25 124.36 228.38 139.18 233.28 138.59 243.07 102.41 232.06 80.47 222.25 124.36"/><polygon class="cls-19" points="247.36 140.96 243.07 146.3 233.28 138.59 243.07 102.41 252.87 119.02 247.36 140.96"/><polygon class="cls-23" points="263.89 138 258.37 145.71 247.36 140.96 252.87 119.02 263.89 138"/><polygon class="cls-23" points="246.13 177.14 232.67 157.57 233.28 138.59 247.36 140.96 260.83 164.09 255.93 218.94 246.13 177.14"/><polygon class="cls-20" points="219.19 137.4 221.65 155.79 224.71 167.06 246.13 177.14 233.28 138.59 222.25 124.36 219.19 137.4"/><polygon class="cls-23" points="213.69 156.42 224.71 167.06 219.19 137.4 213.69 156.42"/><polygon class="cls-20" points="255.93 218.94 254.09 171.21 247.36 140.96 263.89 138 264.5 170.02 255.93 218.94"/><polygon class="cls-20" points="117.58 44.29 128.6 11.08 145.12 11.08 117.58 44.29"/><polygon class="cls-20" points="120.64 72.76 117.58 44.29 135.33 46.67 135.33 93.52 120.64 72.76"/><polygon class="cls-6" points="153.08 107.16 157.77 107.14 164 104.6 168.25 107.16 172.72 104.6 182.68 107.44 187.36 107.16 173.17 120.27 164.86 120.45 153.08 107.16"/><polygon class="cls-24" points="158.59 108.94 182.47 108.94 172.67 116.06 165.94 116.06 158.59 108.94"/><path class="cls-5" d="M159.82,122.58a1.19,1.19,0,1,1-1.23,1.18,1.2,1.2,0,0,1,1.23-1.18"/><polygon class="cls-23" points="153.08 137.4 138.39 132.07 135.33 93.52 153.08 137.4"/><polygon class="cls-20" points="164.71 167.06 138.39 132.07 153.08 137.41 160.43 148.67 170.22 164.69 164.71 167.06"/><polygon class="cls-20" points="213.69 156.42 216.82 183.33 225.73 173.82 224.71 167.06 213.69 156.42"/><polygon class="cls-23" points="231.44 211.51 224.71 167.06 246.13 177.14 231.44 211.51"/><polygon class="cls-11" points="227.89 218.94 183.41 196.16 177.47 200.12 221.95 230.82 227.89 218.94"/><polygon class="cls-10" points="161.31 230.09 167.39 212 193.57 242.46 212.46 251.12 166.8 204.58 157.08 219.18 161.31 230.09"/><polygon class="cls-9" points="193.57 242.46 199.41 259.54 212.46 251.12 204.25 242.75 193.57 242.46"/><polygon class="cls-6" points="152.5 186.52 141.82 183.76 137.67 175.48 137.08 169.96 145.43 160.13 166.2 158.11 172.13 164.69 174.44 179.34 161.99 185.42 152.5 186.52"/><polygon class="cls-21" points="165.55 188.46 161.99 182.51 172.13 164.69 188.68 166.67 191.64 173.11 194.61 183.61 189.86 188.95 178 191.92 165.55 188.46"/><polygon class="cls-6" points="161.99 195.39 158.43 206.78 170.29 210.74 181.56 211.73 194.01 204.3 195.79 193.41 189.86 188.95 165.55 188.46 161.99 195.39"/><polygon class="cls-7" points="148.94 195.39 138.27 196.88 135.3 205.29 135.9 211.73 157.16 220.61 170.29 210.74 161.99 195.39 148.94 195.39"/><polygon class="cls-21" points="135.3 205.29 126.41 202.32 121.07 188.46 131.74 175.09 137.67 173.6 144.2 178.06 152.5 183.5 148.94 195.39 135.3 205.29"/><polygon class="cls-10" points="129.37 187.96 147.75 189.94 147.16 186.48 129.37 187.96"/><polygon class="cls-10" points="153.09 206.78 153.69 195.39 157.84 195.39 153.09 206.78"/><polygon class="cls-10" points="183.28 199.35 162.52 192.91 164.3 190.44 183.28 199.35"/><polygon class="cls-10" points="182.15 176.65 163.77 187.69 161.99 184.93 182.15 176.65"/><polygon class="cls-10" points="154.28 168.31 159.03 185.42 153.69 185.42 154.28 168.31"/><polygon class="cls-13" points="147.16 186.48 148.94 195.39 161.99 195.39 165.55 188.46 161.99 182.51 150.72 182.51 147.16 186.48"/><polygon class="cls-4" points="192.32 97.96 205.03 88.09 201.14 96.74 192.32 97.96"/><polygon class="cls-4" points="137.83 90.55 147.59 98.56 138.46 95.89 137.83 90.55"/></svg>