<svg id="ryan_copy" data-name="ryan copy" xmlns="http://www.w3.org/2000/svg" viewBox="0 0 400 400"><defs><style>.cls-1,.cls-13{fill:#2b2b2b;}.cls-1,.cls-10,.cls-11,.cls-12,.cls-14,.cls-15,.cls-16,.cls-2,.cls-3,.cls-4,.cls-5,.cls-6,.cls-7,.cls-8,.cls-9{fill-rule:evenodd;}.cls-1{opacity:0.1;}.cls-2{fill:#a09160;}.cls-3{fill:#f4c9b2;}.cls-4{fill:#c1907d;}.cls-17,.cls-5{fill:#3f8e6f;}.cls-6{fill:#fce3d4;}.cls-7{fill:#35785d;}.cls-8{fill:#5a753d;}.cls-9{fill:#c1b274;}.cls-10{fill:#fff7ae;}.cls-11{fill:#e2d086;}.cls-12{fill:#ffefe7;}.cls-14{fill:#72c8a5;}.cls-15{fill:#709c53;}.cls-16{fill:#446125;}</style></defs><title>diplomats_ENFP_famous_real_meg_ryan</title><polygon class="cls-1" points="99.56 386.1 189.04 371.88 278 385.73 194.53 400 99.56 386.1"/><polygon class="cls-2" points="268.55 118.57 253.44 125.98 247.87 108.84 253.44 90.59 268.55 118.57"/><polygon class="cls-3" points="174.41 212.85 182.09 238.22 166.37 254.55 160.94 251.26 157.87 243.2 174.41 212.85"/><polygon class="cls-4" points="166.37 254.55 159.44 270.07 149.51 253.76 157.54 245.37 162.51 249.39 166.37 254.55"/><polygon class="cls-5" points="130.23 249.32 145 253.29 154.97 257.72 164.59 258.56 176.99 261.9 173.86 274.06 146.94 286.27 126.51 262.79 130.23 249.32"/><polygon class="cls-6" points="162.51 249.39 153.34 255.54 148.78 255.92 145 253.29 157.87 243.2 162.51 249.39"/><polygon class="cls-7" points="149.79 263.62 164.58 258.56 153.34 255.54 150.52 256.97 149.79 263.62"/><polygon class="cls-3" points="153.34 255.54 149.79 263.62 145.7 264.82 145 253.29 153.34 255.54"/><polygon class="cls-7" points="126.51 262.79 149.17 275.8 173.86 274.06 168.89 293.36 121.43 281.12 126.51 262.79"/><polygon class="cls-3" points="236.66 237.18 221.18 235.78 223.15 251.91 233.27 252.72 236.66 237.18"/><polygon class="cls-3" points="282.53 210.76 246.68 246 236.66 237.18 253.07 210.76 282.53 210.76"/><polygon class="cls-5" points="162.03 383.04 167.35 382.96 168.14 368.42 165.64 357.23 155.84 363.85 162.03 383.04"/><polygon class="cls-5" points="225.4 368.01 231.83 382.02 227.08 392.77 225.4 368.01"/><polygon class="cls-3" points="215.39 333.17 208.99 346.23 214.87 363.85 215.73 375.63 225.4 368.01 229.37 341.37 215.39 333.17"/><polygon class="cls-6" points="214.87 363.85 207.89 374.73 213.84 382.49 226.82 385.04 225.4 368.01 214.87 363.85"/><polygon class="cls-5" points="226.82 385.04 207.89 374.73 205.25 378.7 209.17 385.04 227.08 389.31 226.82 385.04"/><polygon class="cls-3" points="227.08 389.31 205.25 378.7 198.31 389.31 209.03 391.41 227.08 389.31"/><polygon class="cls-3" points="161.42 317.3 153.46 353.74 156.1 360.58 165.64 357.23 178.36 337.1 180.13 320.65 161.42 317.3"/><polygon class="cls-6" points="153.46 353.74 140.25 366.43 145.99 372.75 154.76 375.87 165.64 357.23 153.46 353.74"/><polygon class="cls-5" points="154.76 375.87 140.25 366.43 136.75 369.79 141.98 375.63 152.44 378.79 154.76 375.87"/><polygon class="cls-3" points="152.44 379.84 136.75 369.79 126.28 379.84 140.15 381.93 152.44 379.84"/><polygon class="cls-4" points="161.42 317.3 178.36 337.1 189.06 321.31 161.42 317.3"/><polygon class="cls-4" points="229.37 341.37 208.99 346.23 202.83 328.28 229.37 341.37"/><polygon class="cls-6" points="250.12 185.65 266.74 191.93 282.53 210.76 233.76 215.3 250.12 185.65"/><polygon class="cls-8" points="233.76 215.3 266.74 191.93 248.7 168.74 237.53 192.02 233.76 215.3"/><polygon class="cls-6" points="222.89 158.85 248.7 168.74 197.43 200.13 177.29 162.82 192.55 157.34 222.89 158.85"/><polygon class="cls-9" points="112.91 53.74 140.41 84.45 142.08 49.54 112.91 53.74"/><polygon class="cls-10" points="139.8 51.88 117.47 86.49 138.56 86.49 142.27 66.02 139.8 51.88"/><polygon class="cls-9" points="117.47 86.49 136 114.79 140.69 79.77 117.47 86.49"/><polygon class="cls-9" points="165.51 19.07 145.34 26.88 125.16 40.58 150.44 40.15 165.51 19.07"/><polygon class="cls-10" points="165.51 19.07 142.13 19.07 125.16 40.58 165.51 19.07"/><polygon class="cls-10" points="229.98 15.22 256.58 20.4 251.45 38.53 233.2 26.83 229.98 15.22"/><polygon class="cls-9" points="256.58 20.4 276.53 46.72 271.69 58.52 253.44 47.3 249.17 35.02 256.58 20.4"/><polygon class="cls-11" points="200.14 3.14 216 0.8 249.17 35.02 271.69 58.52 266.56 69.82 251.45 69.82 241.47 44.38 216 35.31 200.14 3.14"/><polygon class="cls-9" points="249.17 35.02 253.44 66.02 266.56 69.82 278.81 98.49 234.98 72.75 231.02 41.75 249.17 35.02"/><polygon class="cls-9" points="247.87 108.84 259.71 140.02 232.03 149.91 236.34 125.98 247.87 108.84"/><polygon class="cls-2" points="239.67 127.39 246.55 144.72 228.89 150.96 235.2 136.8 239.67 127.39"/><polygon class="cls-6" points="139.8 51.88 135.65 114.77 143.9 134.7 178.57 138.85 201.28 172.77 221.52 163.12 253.44 94.39 227.22 63.64 214.29 57.34 174.38 29.27 139.8 51.88"/><polygon class="cls-3" points="214.29 57.34 201.65 123.02 186.54 140.73 190.73 157.99 199.09 171.73 226.38 160.19 239.67 127.39 244.04 115.51 247.87 108.84 253.44 94.39 229.12 59.3 214.29 57.34"/><polygon class="cls-3" points="193.01 74.65 168.11 97.46 142.46 67.92 153.57 64.7 182.08 67.92 193.01 74.65"/><polygon class="cls-12" points="172.84 66.88 168.26 81.5 168.11 97.46 158.56 96.14 162.27 81.08 161.01 65.54 172.84 66.88"/><polygon class="cls-4" points="139.8 51.88 155.38 56.02 174.19 44.38 193.04 57.34 212.82 64.85 220.38 80.94 230.54 92.94 253.44 94.39 216.1 49.54 186.16 42.1 172.84 29.27 158.56 42.39 139.8 51.88"/><ellipse class="cls-13" cx="180.66" cy="81.08" rx="3.99" ry="4.09"/><ellipse class="cls-13" cx="152.34" cy="77.99" rx="3.99" ry="4.09"/><polygon class="cls-4" points="247.87 108.84 234.66 103.63 235.31 113.33 239.67 127.39 247.87 108.84"/><polygon class="cls-4" points="178.57 138.85 217.43 142.54 190.73 157.99 178.57 138.85"/><polygon class="cls-4" points="168.11 97.46 162.6 101.95 158.56 96.14 168.11 97.46"/><polygon class="cls-3" points="190.92 81.08 197.76 80.5 197.76 82.84 190.92 81.08"/><polygon class="cls-3" points="145.88 76.99 140.6 75.23 140.6 77.99 145.88 76.99"/><polygon class="cls-2" points="172.84 66.88 172.84 63.34 184.27 64.63 193.01 74.65 182.08 67.92 172.84 66.88"/><polygon class="cls-2" points="161.01 65.54 161.01 62.37 151.73 61.77 142.46 67.92 153.57 64.7 161.01 65.54"/><polygon class="cls-10" points="171.34 35.02 154.53 51.1 112.91 53.74 125.16 40.58 148.16 37.81 160.82 33.85 171.34 35.02"/><polygon class="cls-11" points="148.16 37.81 176.47 7.24 205.84 35.02 236.91 44.38 237.92 72 229.21 69.82 214.29 57.34 193.04 57.34 171.34 35.02 148.16 37.81"/><polygon class="cls-10" points="176.47 7.24 200.14 3.14 223.51 32.97 249.17 35.02 236.91 44.38 204.41 39.41 176.47 7.24"/><polygon class="cls-9" points="243.28 90.26 231.02 102.19 229.98 82.11 243.28 90.26"/><polygon class="cls-10" points="214.29 57.34 278.81 98.49 268.55 109.65 253.44 94.39 220.38 80.94 214.29 57.34"/><polygon class="cls-5" points="231.02 102.19 243.85 97.41 247.87 108.84 235.31 113.34 231.02 102.19"/><polygon class="cls-5" points="182.26 112.77 169.56 111.9 162.41 108.35 155.97 110.37 146.83 109.65 162.22 116.77 182.26 112.77"/><polygon class="cls-14" points="146.83 109.65 161.75 121.08 182.26 112.77 162.32 115.89 146.83 109.65"/><polygon class="cls-15" points="177.29 162.82 160.41 199.08 197.43 215.3 233.76 215.3 248.7 168.74 191.41 195.07 177.29 162.82"/><polygon class="cls-16" points="233.76 215.3 224.19 243.53 198.66 259.24 174.41 254.01 160.41 199.08 233.76 215.3"/><polygon class="cls-8" points="224.19 243.53 232.66 262.79 240.7 271.26 229.37 341.37 161.42 317.3 181.91 264.55 224.19 243.53"/><polygon class="cls-15" points="224.19 243.53 225.94 259.58 240.7 271.26 161.42 317.3 174.41 254.01 224.19 243.53"/><polygon class="cls-8" points="212.06 260.19 228.32 270.07 240.7 271.26 232.66 257.75 212.06 260.19"/><polygon class="cls-6" points="236.66 237.18 224.19 243.53 223.66 258.4 232.66 257.75 246.68 246 236.66 237.18"/><polygon class="cls-3" points="232.66 257.75 229.25 264.55 212.06 260.19 224.19 243.53 232.66 257.75"/><polygon class="cls-14" points="145 273.41 150.42 270.83 154.26 275.44 148.59 278.86 145 273.41"/><polygon class="cls-11" points="253.44 94.39 278.81 98.49 268.55 118.57 253.44 94.39"/><rect class="cls-17" x="198.31" y="389.31" width="28.78" height="3.46"/><polygon class="cls-5" points="157.95 370.4 159.26 374.45 148.95 383.04 126.28 383.04 126.28 379.84 145.11 379.84 157.95 370.4"/></svg>