<svg id="Layer_1" data-name="Layer 1" xmlns="http://www.w3.org/2000/svg" viewBox="0 0 400 400"><defs><style>.cls-1{fill:#ececeb;}.cls-2{fill:#446125;}.cls-3{fill:#738d57;}.cls-15,.cls-4{fill:#2b2b2b;}.cls-4{fill-opacity:0.1;}.cls-5{fill:#5a753d;}.cls-6{fill:#709d53;}.cls-7{fill:#35785d;}.cls-8{fill:#3f8f6f;}.cls-9{fill:#b18d79;}.cls-10{fill:#dddddc;}.cls-11{fill:#d9e354;}.cls-12{fill:#b8c745;}.cls-13{fill:#916a59;}.cls-14{fill:#66483a;}.cls-16{fill:#6f7173;}.cls-17{fill:#474747;}.cls-18{fill:#ba9e8e;}.cls-19{fill:#fff;}.cls-20{fill:none;}</style></defs><title>diplomats_ENFP_famous_real_will_smith</title><g id="Layer_1-2" data-name="Layer_1"><g id="_897270080" data-name=" 897270080"><polygon class="cls-1" points="141.16 250.13 141.86 256.84 146.93 272.86 165.19 262.26 154.59 248.36 141.16 250.13"/><polygon class="cls-2" points="148.58 225.38 136.33 236.7 141.86 256.84 150.23 254.84 163.42 240.81 162.36 220.21 148.58 225.38"/><polygon class="cls-3" points="178.5 176.03 156.24 172.02 136.33 236.7 153.06 232.1 167.78 201.35 178.5 176.03"/><polygon class="cls-4" points="106.17 387.96 203.36 398.91 293.83 387.96 203.36 382.06 106.17 387.96"/><polygon class="cls-5" points="158.94 376.06 134.21 383 134.32 389.01 165.54 389.37 170.84 386.07 174.97 389.37 184.51 389.01 183.92 383.13 158.94 376.06"/><polygon class="cls-6" points="166.01 362.98 160.48 365.22 134.21 383 183.92 383.13 183.45 369.7 166.01 362.98"/><polygon class="cls-7" points="169.55 304.31 154.35 323.52 160.48 365.22 183.45 369.7 190.67 332 169.55 304.31"/><polygon class="cls-8" points="159.77 248.24 154.59 248.24 146.93 272.86 154.35 323.52 190.67 332 197.49 296.42 159.77 248.24"/><polygon class="cls-5" points="221.15 384.89 211.96 386.66 212.19 392.43 252.72 392.43 252.25 386.77 248.59 385.01 221.15 384.89"/><polygon class="cls-6" points="228.45 366.04 221.5 367.46 211.96 386.66 252.25 386.77 246.12 371.11 228.45 366.04"/><polygon class="cls-7" points="228.92 298.66 209.01 332 221.5 367.46 246.12 371.11 248.59 319.21 228.92 298.66"/><polygon class="cls-2" points="237.52 296.42 249.66 296.3 268.15 281.58 264.5 265.09 226.92 283.81 237.52 296.42"/><path class="cls-7" d="M243.17,302.66l6.49-6.36.7-15s-5.89-5.06-7-3.65-8.71,15.67-8.71,15.67Z"/><polygon class="cls-8" points="184.33 272.21 195.89 291.47 209.01 332 248.59 319.21 249.24 295.65 244.52 290.82 242.17 281.87 233.92 259.37 205.3 253.36 184.33 272.21"/><polygon class="cls-7" points="157.53 256.37 163.9 280.41 197.49 296.42 207 286.08 209.01 271.1 181.68 246 157.53 256.37"/><path class="cls-5" d="M190.16,238c0-2.12-8.95,15.43-8.95,15.43l-17.31,27-17-7.67L153.06,232l7.06-4.94L187,228.57s3.07,9.07,3.18,9.3Z"/><polygon class="cls-2" points="229.98 269.92 224.44 269.92 207 286.08 181.09 253.54 182.51 235.87 179.56 226.68 182.62 206.54 237.87 187.45 250.48 210.89 254.25 240.81 237.52 266.74 229.98 269.92"/><polygon class="cls-9" points="239.05 266.97 230.57 265.79 224.44 269.92 244.94 291.47 250.36 281.34 239.05 266.97"/><polygon class="cls-1" points="246.94 252.25 237.64 256.02 230.57 265.79 250.36 281.34 257.43 273.33 246.94 252.25"/><path class="cls-5" d="M259.32,224.33c-1.3.58-8.72,12-8.72,12l-13,19.68,19.79,17.31,30.74-35.93-31.09-14.25,2.35,1.29Z"/><polygon class="cls-5" points="259.19 227.15 250.6 236.34 182.51 235.87 174.38 224.56 181.8 200.18 237.87 187.45 259.19 227.15"/><polygon class="cls-2" points="233.75 188.04 234.46 194.05 241.76 204.65 260.02 203.12 274.51 172.14 245.53 154.47 233.75 188.04"/><polygon class="cls-2" points="157.18 192.28 153.06 232.1 182.51 235.87 183.8 215.85 179.68 184.51 166.96 177.09 157.18 192.28"/><polygon class="cls-5" points="177.44 167.54 180.74 158.47 156.24 172.02 157.18 192.28 161.65 190.52 179.68 184.51 177.44 167.54"/><polygon class="cls-6" points="205.24 166.13 183.8 215.85 234.46 194.05 245.53 154.47 205.24 166.13"/><polygon class="cls-6" points="184.98 160.95 180.74 158.47 161.65 190.52 183.8 215.85 189.46 167.54 184.98 160.95"/><polygon class="cls-10" points="185.92 169.55 180.97 173.44 183.8 215.85 213.37 176.26 203.83 167.07 185.92 169.55"/><polygon class="cls-11" points="199.71 149.76 196.76 169.31 205.72 172.85 220.21 168.72 227.27 158.12 216.19 147.4 199.71 149.76"/><polygon class="cls-12" points="196.76 169.31 205.12 179.09 213.37 176.26 220.21 168.72 196.76 169.31"/><polygon class="cls-11" points="190.52 149.87 180.74 158.47 180.86 167.54 186.87 172.26 196.76 169.31 199.59 157.06 190.52 149.87"/><polygon class="cls-12" points="180.86 167.54 180.97 173.44 187.34 177.21 196.76 169.31 180.86 167.54"/><polygon class="cls-1" points="220.91 147.05 219.97 156.47 220.21 168.72 245.53 154.47 238.23 146.69 220.91 147.05"/><polygon class="cls-13" points="241.88 103.46 243.76 112.18 238.23 146.69 219.97 156.47 197 136.92 164.6 21.82 214.08 2.03 236.11 33.72 240.23 88.85 241.88 103.46"/><path class="cls-14" d="M201.35,128.91l16.73,9.42,9.07-1.18-30.27,32.16-21-38.75S202.65,129.61,201.35,128.91Z"/><polygon class="cls-14" points="235.04 89.21 230.21 94.86 243.76 112.18 246.12 97.57 235.04 89.21"/><polygon class="cls-15" points="215.96 15.58 254.36 22.88 250 67.53 244.59 71.42 227.51 71.18 225.38 40.08 208.78 18.52 215.96 15.58"/><polygon class="cls-15" points="149.87 8.86 136.56 12.63 134.09 28.54 131.85 48.33 132.56 59.76 146.81 32.9 149.87 8.86"/><polygon class="cls-16" points="201.35 8.16 169.78 0.97 136.56 12.63 140.45 21.94 172.96 35.6 201.35 8.16"/><polygon class="cls-17" points="181.8 29.83 183.68 25.36 169.78 0.97 217.38 1.21 254.36 22.88 208.78 18.52 181.8 29.83"/><polygon class="cls-9" points="140.45 21.94 132.56 59.76 137.86 113.36 160.48 145.16 166.13 142.57 202.89 138.21 207.6 139.98 217.97 138.33 218.32 48.92 208.78 18.52 140.45 21.94"/><polygon class="cls-17" points="170.14 120.31 168.37 121.48 178.85 125.02 188.87 119.01 184.98 117.95 170.14 120.31"/><polygon class="cls-13" points="147.4 57.16 139.04 62.11 154.23 73.3 164.36 87.56 172.02 81.55 178.97 91.68 191.93 67.06 204.06 58.22 199.71 53.75 196.41 52.45 188.16 55.98 183.33 59.64 172.73 65.76 167.9 72.36 165.19 66 156 63.29 153.29 58.34 147.4 57.16"/><polygon class="cls-14" points="157.3 100.99 155.53 104.28 168.37 121.48 188.87 119.01 197 100.28 188.04 97.81 157.3 100.99"/><path class="cls-17" d="M160.48,145.16,207.6,140l-7.66-43.35-24.38-2.12-5.78.35-18.14,6.48,8.72,43.7h0Zm-4.95-40.29,19.79-1.06L197,100.28l1.41,25.45-33.69,5.53L155.65,105Z"/><polygon class="cls-14" points="165.9 88.26 161.06 94.51 171.43 99.69 179.44 92.74 165.9 88.26"/><path class="cls-17" d="M181.8,55.75l14.49-5,9.07,5.77-1.3,1.77-7.89-4-12.84,5.53s-1.41-4-1.53-4Z"/><polygon class="cls-17" points="158.36 60.23 149.05 55.75 137.86 60.7 139.04 62.11 148.11 58.93 156 63.29 158.36 60.23"/><polygon class="cls-18" points="165.19 66 161.06 94.51 179.44 92.74 172.73 65.76 165.19 66"/><polygon class="cls-13" points="147.28 111.82 145.4 102.52 151.05 100.75 147.28 111.82"/><polygon class="cls-13" points="207.13 105.46 208.07 94.86 201.12 93.8 207.13 105.46"/><polygon class="cls-19" points="161.77 107.23 165.78 112.18 173.2 114.42 188.16 109.82 190.87 104.28 174.49 106.76 161.77 107.23"/><polygon class="cls-15" points="165.78 112.18 169.67 116.89 185.45 115.12 188.16 109.82 165.78 112.18"/><polygon class="cls-9" points="231.75 65.06 250 67.53 248.71 77.66 246.12 97.57 230.21 94.86 231.75 65.06"/><polygon class="cls-1" points="240.23 88.85 237.87 90.97 239.53 94.04 242 91.92 240.23 88.85"/><polygon class="cls-14" points="236.46 84.73 237.4 71.3 244.35 72.48 236.46 84.73"/><polygon class="cls-3" points="241.76 204.65 274.51 172.14 288.06 237.4 250.6 236.34 241.76 204.65"/><path class="cls-15" d="M152.23,68.59a4,4,0,1,1-4,4A4,4,0,0,1,152.23,68.59Z"/><path class="cls-15" d="M191.58,64.11a4,4,0,1,1-4,4A4,4,0,0,1,191.58,64.11Z"/></g><rect class="cls-20" x="0.5" y="0.5" width="399" height="399"/></g></svg>