<svg id="Layer_1" data-name="Layer 1" xmlns="http://www.w3.org/2000/svg" viewBox="0 0 400 400"><defs><style>.cls-1{fill:#cfae95;}.cls-2{fill:#446125;}.cls-3{fill:#5a753d;}.cls-4{fill:#e7ef78;}.cls-5{fill:#b7c645;}.cls-6{fill:#2c2b2b;fill-opacity:0.1;}.cls-7{fill:#35785d;}.cls-8{fill:#165e60;}.cls-9{fill:#393939;}.cls-10{fill:#d8e254;}.cls-11{fill:#686b6d;}.cls-12{fill:#1c140a;}.cls-13{fill:#281b0e;}.cls-14{fill:#35291b;}.cls-15{fill:#a8836c;}.cls-16{fill:#4c3a27;}.cls-17{fill:#eed2c1;}.cls-18{fill:#251c11;}.cls-19{fill:#f6e5db;}.cls-20{fill:#709c53;}.cls-21{fill:#fff;}.cls-22{fill:none;}</style></defs><title>diplomats_ENFP_famous_real_russell_brand</title><polygon class="cls-1" points="104.64 202.3 90.86 211.37 72.71 210.07 71.18 185.69 76.95 184.63 96.27 188.51 104.64 202.3"/><polygon class="cls-1" points="292.89 220.68 303.26 233.4 321.04 237.64 329.29 218.79 324.57 212.07 305.02 209.95 292.89 220.68"/><polygon class="cls-2" points="151.88 319.74 153.06 341.07 167.78 352.14 184.04 343.31 188.04 327.52 174.02 303.73 151.88 319.74"/><polygon class="cls-3" points="153.76 262.26 149.28 268.5 151.88 319.74 188.04 327.52 194.41 302.31 185.1 291.24 179.91 270.15 153.76 262.26"/><polygon class="cls-4" points="263.32 189.46 274.63 205.95 264.14 235.28 252.6 240 238.46 221.5 234.57 191.81 263.32 189.46"/><polygon class="cls-5" points="250.95 158.71 251.89 172.96 263.32 189.46 247.41 200.18 236.46 226.33 250.95 158.71"/><polygon class="cls-6" points="93.68 382.89 201 376.41 301.37 386.66 195.7 398.91 93.68 382.89"/><polygon class="cls-7" points="220.68 381.71 214.55 385.36 214.67 390.31 255.66 390.43 255.9 385.48 220.68 381.71"/><polygon class="cls-7" points="159.89 374.64 130.08 382.89 130.2 387.13 178.74 387.25 178.97 382.19 159.89 374.64"/><polygon class="cls-8" points="245.06 345.07 247.18 364.39 234.22 371.34 220.32 363.1 216.19 353.32 224.8 343.07 245.06 345.07"/><polygon class="cls-7" points="225.15 327.4 244.59 339.77 245.06 345.07 216.19 353.32 211.02 341.31 225.15 327.4"/><polygon class="cls-7" points="247.18 364.39 255.9 385.48 214.55 385.36 220.32 363.1 247.18 364.39"/><polygon class="cls-8" points="153.29 345.66 154.23 360.74 163.78 370.52 178.5 365.34 181.56 352.97 163.54 344.49 153.29 345.66"/><polygon class="cls-7" points="153.06 341.07 153.29 345.66 181.56 352.97 184.04 343.31 153.06 341.07"/><polygon class="cls-7" points="154.23 360.74 130.08 382.89 178.97 382.19 178.5 365.34 154.23 360.74"/><polygon class="cls-2" points="204.42 325.75 211.02 341.31 244.59 339.77 242.82 313.27 218.79 304.67 204.42 325.75"/><polygon class="cls-3" points="168.49 280.05 194.41 302.31 204.42 325.75 242.82 313.27 240.23 273.45 167.78 264.85 168.49 280.05"/><polygon class="cls-9" points="163.78 249.19 148.11 256.13 149.28 268.5 201 280.52 240.23 273.45 240.47 260.85 163.78 249.19"/><path class="cls-10" d="M165.31,167.55s-9.07,45-8.13,45.23,59.25,2.71,59.25,2.71l.24-55.13-51.25,2.71-.11,4.59Z"/><path class="cls-4" d="M168.84,169.08l2.71.23L186.39,179l22-5.89s5.54-2.12,5.07-4.48c-.59-2.82-7.07-5.77-6.24-5.65,1.53.12-44.77-.59-44.77-.59l6.36,6.6Z"/><polygon class="cls-5" points="153.88 226.92 147.28 246.94 148.11 256.13 169.31 257.19 184.15 260.14 189.46 258.25 240.47 260.85 240.11 251.66 216.32 210.19 159.65 207.48 153.88 226.92"/><polygon class="cls-10" points="124.19 206.3 110.17 190.63 96.27 188.51 90.86 211.37 109.82 220.08 124.19 206.3"/><polygon class="cls-5" points="134.68 199.71 126.43 193.7 110.17 190.63 109.82 220.08 137.27 232.81 146.58 212.66 134.68 199.71"/><polygon class="cls-4" points="165.31 167.54 158 161.18 126.43 193.7 137.27 232.81 148.81 224.33 165.31 167.54"/><polygon class="cls-5" points="165.31 167.54 158 161.18 145.87 173.67 157.41 196.52 165.31 167.54"/><path class="cls-3" d="M176.73,157.18l-10.83,2.59-7.9,1.41-8.48,52.43c3.65-1.06,7.54,4.59,10.84,3.41,3.77-1.3,6.83-9.19,6.83-9.19L172.38,161Z"/><path class="cls-2" d="M149.52,213.72l-2.24,33.22L165,249.3l2.24-41.47s-9.89,3.54-17.67,5.78Z"/><polygon class="cls-3" points="209.01 160.71 206.66 209.72 206.66 209.72 229.74 238.93 244.59 217.49 251.89 172.96 247.18 153.88 226.68 143.98 209.01 160.71"/><polygon class="cls-2" points="237.64 159.42 245.88 157.06 251.89 172.96 208.42 173.08 208.78 166.6 223.03 153.41 237.64 159.42"/><polygon class="cls-2" points="206.66 209.72 204.18 248.95 240.11 251.66 244.59 217.49 206.66 209.72"/><polygon class="cls-11" points="169.31 257.19 179.91 270.15 189.46 258.25 169.31 257.19"/><polygon class="cls-2" points="171.55 169.43 158 161.18 165.31 157.18 171.9 166.13 171.55 169.43"/><polygon class="cls-12" points="155.29 47.03 140.22 40.32 119.25 43.03 131.62 62.58 138.09 67.88 155.29 47.03"/><polygon class="cls-12" points="272.63 122.31 282.99 123.37 251.89 172.96 245.3 160.36 246.12 119.6 272.63 122.31"/><polygon class="cls-13" points="237.99 138.45 252.36 142.45 245.3 160.36 229.16 169.31 223.03 153.41 237.99 138.45"/><polygon class="cls-13" points="248 133.62 252.36 142.45 282.99 123.37 278.16 109.35 246.12 119.6 248 133.62"/><polygon class="cls-14" points="215.49 142.34 223.03 153.41 252.36 142.45 259.55 122.55 226.09 121.37 215.49 142.34"/><polygon class="cls-13" points="209.01 143.75 209.01 158.12 223.03 153.41 232.22 124.78 208.07 127.73 209.01 143.75"/><polygon class="cls-1" points="236.58 117.36 232.22 124.78 214.2 128.91 213.84 94.74 231.98 98.39 236.58 117.36"/><polygon class="cls-14" points="242.7 111.71 259.55 122.55 278.16 109.35 283.11 85.79 235.87 88.26 242.7 111.71"/><path class="cls-13" d="M234.34,91.68s-9.43,6.72-9.19,6.24,3.3,6.6,3.3,6.6l3.77,20.26,27.33-2.24L244.47,97Z"/><path class="cls-13" d="M237.52,87l7.07,10,38.64-11.19L271.92,68.24s-25.56,2-26.51,2S237.64,87,237.64,87Z"/><polygon class="cls-14" points="225.74 89.09 227.62 98.87 244.47 96.98 245.3 76.84 221.38 77.54 225.74 89.09"/><polygon class="cls-15" points="214.2 96.63 228.45 104.64 227.62 98.87 211.84 85.2 214.2 96.63"/><polygon class="cls-3" points="213.02 86.14 216.67 92.27 227.62 98.87 229.51 80.13 215.61 66.12 213.02 86.14"/><polygon class="cls-14" points="238.11 69.3 245.3 76.84 271.8 68.24 266.5 35.6 227.62 39.38 238.11 69.3"/><polygon class="cls-13" points="222.91 70.94 229.51 80.13 245.3 76.84 240.23 41.26 208.07 51.98 222.91 70.94"/><polygon class="cls-1" points="212.43 63.29 218.44 72.71 229.51 80.13 220.08 52.8 212.9 64.11 212.43 63.29"/><polygon class="cls-13" points="233.16 40.67 240.23 41.26 266.5 35.6 260.61 20.53 223.5 20.88 225.27 40.91 233.16 40.67"/><polygon class="cls-14" points="214.9 34.19 226.21 26.18 240.23 41.26 220.08 52.8 214.9 34.19"/><polygon class="cls-12" points="201.71 2.97 209.95 1.56 260.61 20.53 226.21 26.18 198.41 25 177.91 11.1 201.71 2.97"/><polygon class="cls-16" points="193.7 25 187.57 12.75 209.95 1.56 158.12 0.97 187.81 25.24 193.7 25"/><polygon class="cls-16" points="173.08 13.11 187.57 12.75 226.21 26.18 220.08 52.8 175.91 30.77 173.08 13.11"/><polygon class="cls-14" points="148.93 29.01 132.44 21.94 158.12 0.97 187.57 12.75 177.09 24.77 148.93 29.01"/><polygon class="cls-16" points="144.69 50.68 136.21 45.38 119.25 43.03 132.44 21.94 177.09 24.77 144.69 50.68"/><polygon class="cls-15" points="157.18 143.63 158.71 148.23 171.9 166.13 185.69 172.85 208.66 166.72 223.03 153.41 212.07 154.94 157.18 143.63"/><polygon class="cls-17" points="136.21 45.38 135.74 63.05 136.8 84.73 135.27 87.2 134.56 122.31 142.33 142.34 201.83 147.4 214.2 128.91 217.02 92.15 216.32 77.54 218.44 72.71 220.08 52.8 177.09 24.77 136.21 45.38"/><polygon class="cls-15" points="153.06 115.36 182.39 116.06 176.38 128.32 154.94 125.72 153.06 115.36"/><path class="cls-1" d="M146.81,55.63c-.35-.71-9.07,4.83-9.07,4.83l8.36,14.37L135.15,87.2,158.71,100l7.42-3.29,1.06,4.71L207,97.69,205.83,71.3l4.36-3.53-8-7.66L181.09,66l-5.77,4.71-16.49-1.88-1.06-4.36Z"/><polygon class="cls-14" points="134.56 122.31 133.97 145.16 212.07 154.94 214.2 128.91 195.46 139.98 169.55 136.09 166.37 131.03 159.18 130.2 156.35 134.44 141.86 133.26 134.56 122.31"/><polygon class="cls-18" points="177.91 114.42 186.75 111.35 191.22 123.02 183.09 115.24 177.91 114.42"/><polygon class="cls-18" points="150.7 110.65 147.4 108.53 139.27 116.77 148.34 113.12 150.7 110.65"/><polygon class="cls-15" points="162.72 97.22 158.83 100.04 163.42 103.81 167.19 101.46 162.72 97.22"/><polygon class="cls-19" points="158.83 100.04 167.19 101.46 172.26 84.38 164.84 79.78 162.83 83.55 158.83 100.04"/><polygon class="cls-20" points="135.74 63.05 131.62 62.58 130.67 82.37 135.27 87.2 151.52 90.74 162.83 83.55 172.26 84.38 182.74 95.21 207.01 97.69 217.02 92.15 218.44 72.71 135.74 63.05"/><polygon class="cls-18" points="137.51 58.81 147.16 54.57 160.48 60.7 157.77 64.47 146.81 57.75 137.74 60.46 137.51 58.81"/><polygon class="cls-18" points="179.21 61.41 202.18 58.46 211.49 66 210.19 67.65 201.24 62.46 180.97 65.88 179.21 61.41"/><polygon class="cls-14" points="159.89 107.47 147.4 108.53 148.34 113.12 159.06 113 159.89 107.47"/><polygon class="cls-14" points="166.13 108.17 164.36 113.36 183.09 115.24 186.75 111.35 166.13 108.17"/><polygon class="cls-21" points="155.18 117.01 179.32 117.72 175.2 126.31 156.59 123.96 155.18 117.01"/><path class="cls-2" d="M134.68,66.23,164,69.41,162.6,79.55l-11.67,7-14-2.48L134,81.08l.59-14.85h.12ZM173.44,71h0l40.87,4.47-1.53,14.37-6.48,4-21-2.12L173.44,80l.11-9.19Z"/><polygon class="cls-2" points="194.41 302.31 240.23 273.45 149.28 268.5 194.41 302.31"/><polygon class="cls-10" points="272.98 218.55 291.12 207.83 305.02 209.95 303.26 233.4 282.52 236.11 272.98 218.55"/><polygon class="cls-5" points="274.63 205.95 291.12 207.83 282.52 236.11 252.6 240 274.63 205.95"/><polygon class="cls-17" points="58.58 187.69 76.95 184.63 72.71 210.07 59.99 203.24 58.58 187.69"/><polygon class="cls-17" points="96.27 188.51 85.44 174.38 81.67 177.56 87.2 196.05 93.56 199.94 96.27 188.51"/><polygon class="cls-17" points="341.42 218.44 324.57 212.07 321.04 237.64 337.18 233.28 341.42 218.44"/><polygon class="cls-17" points="305.02 209.95 318.8 198.41 322.81 202.18 311.15 220.44 304.2 221.62 305.02 209.95"/><rect class="cls-22" x="0.5" y="0.5" width="399" height="399"/></svg>