<svg id="Layer_1" data-name="Layer 1" xmlns="http://www.w3.org/2000/svg" viewBox="0 0 400 400"><defs><style>.cls-1{opacity:0.1;}.cls-2{fill:#2b2b2b;}.cls-3{fill:#f4cab2;}.cls-4{fill:#594265;}.cls-5{fill:#c18f7c;}.cls-6{fill:#795d88;}.cls-7{fill:#685c55;}.cls-8{fill:#554b43;}.cls-9{fill:#73675f;}.cls-10{fill:#453b32;}.cls-11{fill:#383029;}.cls-12{fill:#5f5044;}.cls-13{fill:#fbe3d4;}.cls-14{fill:#d1a0b8;}.cls-15{fill:#734d61;}.cls-16{fill:#b2879c;}.cls-17{fill:#95637c;}.cls-18{fill:#8f759f;}.cls-19{fill:#a587b8;}.cls-20{fill:#fff0e8;}.cls-21{fill:#534941;}</style></defs><title>analysts_ENTJ_famous_fictional_river_tam_firefly</title><g class="cls-1"><polygon class="cls-2" points="108.13 389.42 228.46 366.31 347.11 392.69 227.08 400.37 108.13 389.42"/></g><polygon class="cls-3" points="277.31 316.72 288.48 366.31 272.67 369.7 242.59 316.72 277.31 316.72"/><polygon class="cls-3" points="166.97 305.27 160.02 366.31 178.69 366.31 200.71 311.03 166.97 305.27"/><polygon class="cls-4" points="254.18 337.13 272.67 369.7 288.48 366.31 280.52 330.97 280.52 330.97 254.18 337.13 254.18 337.13"/><polygon class="cls-5" points="277.31 316.72 245.1 321.14 240.41 312.89 257.26 309.67 277.31 316.72"/><polygon class="cls-4" points="178.69 366.31 183.16 375.2 177.82 389.42 174.82 389.42 173.38 375.65 178.69 366.31"/><polygon class="cls-6" points="160.02 366.31 132.99 389.42 165.57 389.42 182.63 374.13 178.69 366.31 160.02 366.31"/><polygon class="cls-4" points="164.04 330.98 160.02 366.31 178.69 366.31 190.85 335.79 164.04 330.97 164.04 330.98"/><polygon class="cls-5" points="166.97 305.27 198.45 316.72 201.58 308.86 190.85 302.62 166.97 305.27"/><polygon class="cls-7" points="178.93 54.38 163.37 86.08 151.56 81.16 166.03 56.74 178.93 54.38"/><polygon class="cls-8" points="162.29 81.16 169.87 108.93 159.24 107.06 151.56 81.16 162.29 81.16"/><polygon class="cls-9" points="167.8 106.07 169.67 136.01 156.58 140.24 159.24 107.06 167.8 106.07"/><polygon class="cls-10" points="166.13 131.58 189.07 154.12 169.87 155.6 156.58 140.24 166.13 131.58"/><polygon class="cls-2" points="177.45 145.85 189.07 154.13 185.43 179.04 174.99 184.85 169.87 155.6 177.45 145.85"/><polygon class="cls-11" points="166.13 131.58 183.16 154.52 185.43 179.04 197.74 169.78 198.92 159.54 198.92 151.66 189.07 128.63 182.08 114.94 166.13 131.58"/><polygon class="cls-2" points="194.58 148.32 195.08 149.6 217.62 151.66 206.6 117.69 199.41 116.22 180.11 122.72 194.58 148.32"/><polygon class="cls-7" points="167.8 106.07 166.13 131.58 180.11 122.72 178.93 99.87 167.8 106.07"/><polygon class="cls-10" points="162.29 81.16 167.8 106.07 177.45 104.89 175.29 77.91 162.29 81.16"/><polygon class="cls-8" points="178.93 54.38 162.29 81.16 172.33 82.15 182.08 68.26 178.93 54.38"/><polygon class="cls-12" points="174.99 31.04 178.93 54.38 189.07 35.08 189.07 22.57 174.99 31.04"/><polygon class="cls-3" points="271.32 221.75 256.32 196.47 250.51 157.08 271.09 157.57 288.82 206.9 289.8 220.69 271.32 221.75"/><polygon class="cls-13" points="208.96 141.13 245.79 143.39 244.12 186.42 211.91 207.79 183.16 181.4 208.96 141.13"/><polygon class="cls-14" points="256.32 196.47 261.74 161.12 255.04 140.83 245.59 143.49 237.71 181.99 228.46 201.29 234.37 219.31 248.15 211.53 256.32 196.47"/><polygon class="cls-3" points="145.55 203.66 183.16 154.52 188.38 182.58 179.03 196.66 162.82 221.75 148.9 213.99 145.55 203.66"/><polygon class="cls-14" points="207.48 143.29 183.16 154.52 179.03 196.66 181.29 218.91 190.35 223.44 200.79 208.48 197.74 184.36 207.48 143.29"/><polygon class="cls-13" points="114.83 239.4 145.55 203.66 162.82 221.75 136.19 239.59 115.81 246.39 114.83 239.4"/><polygon class="cls-15" points="208.37 238.51 218.61 213.31 213.39 195.09 197.74 184.36 190.35 223.44 194.09 234.97 208.37 238.51"/><polygon class="cls-16" points="178.34 228.76 183.56 231.62 190.35 223.44 179.03 196.66 178.34 228.76"/><polygon class="cls-15" points="166.97 305.27 170.17 282.23 187.69 251.51 208.37 238.51 267.25 276.02 277.31 316.72 166.97 305.27"/><polygon class="cls-14" points="186.51 291.78 170.17 282.23 178.34 228.76 190.35 223.44 208.37 238.51 186.51 291.78"/><polygon class="cls-14" points="233.48 292.17 208.37 238.51 219.69 220 234.37 219.31 246.28 217.74 255.04 225.51 267.25 276.03 233.48 292.17"/><polygon class="cls-16" points="256.32 196.47 255.04 225.51 243.92 222.17 234.37 219.31 246.08 207.1 256.32 196.47"/><polygon class="cls-17" points="208.37 238.51 223.43 227.38 234.37 219.31 237.71 181.99 213.39 195.09 208.37 238.51"/><polygon class="cls-3" points="102.91 260.96 102.91 249.05 114.83 239.4 123.2 251.81 115.52 258.5 109.61 262.73 106.56 263.52 102.91 260.96"/><polygon class="cls-18" points="102.91 260.96 109.81 262.44 113.35 265 111.58 272.68 103.21 267.85 102.91 260.96"/><polygon class="cls-13" points="111.58 272.68 110.3 264.9 109.81 262.44 111.19 254.86 123.2 251.81 128.81 264.7 111.58 272.68"/><polygon class="cls-19" points="95.63 251.12 118.47 282.13 103.01 282.62 91.49 278.48 93.86 269.04 95.63 251.12"/><polygon class="cls-18" points="46.69 313.74 93.86 269.04 103.01 282.62 72.29 317.38 59.39 339.44 38.91 334.22 46.69 313.74"/><polygon class="cls-19" points="6.32 335.8 46.69 313.74 56.04 325.85 41.96 331.86 6.32 335.8"/><polygon class="cls-18" points="59.39 339.44 6.32 335.79 56.04 325.85 59.39 339.44"/><polygon class="cls-19" points="103.01 282.62 59.39 339.44 56.04 325.85 103.01 282.62"/><polygon class="cls-18" points="130.29 232.21 136.19 239.59 123.2 251.81 118.08 244.22 130.29 232.21"/><polygon class="cls-13" points="315.11 246.09 288.82 206.9 271.32 221.75 304.08 256.33 315.11 246.09"/><polygon class="cls-18" points="310.88 276.81 326.63 293.56 335.49 294.04 332.64 287.05 311.95 257.02 310.88 276.81"/><path class="cls-6" d="M338.44,280.46l-5.8,6.5-6,6.49L315.6,304,307,301.92l-4.92,23.63,17.13,20.88L347.3,348l2.56-45.39,12.51-15L362,267.76l-10.14-2.07,1.67,16.25-7.88,10.53-7.19-12.21Zm-8.17,26.48-6.4,5.42-2,8.37,8.77,6,8.07-2,.69-11-9.26-6.8Z"/><polygon class="cls-19" points="347.3 348.1 353.71 302.81 352.82 300.05 347.11 302.71 347.3 348.1"/><polygon class="cls-18" points="353.71 302.81 365.82 290.3 361.98 267.95 359.71 288.34 347.11 302.71 353.71 302.81"/><polygon class="cls-19" points="307.03 302.02 289.7 297.88 293.84 326.73 306.54 330.97 310.28 324.47 307.03 302.02"/><polygon class="cls-18" points="293.84 326.73 313.93 351.36 325.05 348.1 324.56 341.61 310.28 324.47 293.84 326.73"/><polygon class="cls-19" points="313.93 351.36 345.34 362.08 347.3 348.1 324.56 341.61 313.93 351.36"/><polygon class="cls-18" points="287.54 252.4 299.16 262.93 307.72 262.14 307.43 253.18 297.87 240.68 287.54 252.4"/><polygon class="cls-3" points="321.8 269.82 324.46 258.2 315.11 246.09 304.08 256.33 308.81 264.02 314.71 269.63 321.8 269.82"/><polygon class="cls-13" points="311.46 277.5 314.71 269.63 315.11 261.95 304.08 256.33 295.71 267.56 311.46 277.5"/><polygon class="cls-3" points="245.79 143.39 224.62 162.5 230.03 126.98 251.2 47.24 262.72 115.33 245.79 143.39"/><polygon class="cls-13" points="170.95 44.14 166.33 54.38 171.54 66.19 172.63 105.48 186.12 126.98 230.03 126.98 243.28 110.2 250.61 56.05 242.05 35.97 221.27 9.87 193.8 12.44 180.7 31.14 170.95 44.14"/><polygon class="cls-3" points="172.82 58.43 187.79 70.23 196.75 85.59 201.58 88.15 206.4 85.59 220.76 68.43 239.32 56.32 228.66 53 208.17 59.31 204.03 63.44 201.77 66 198.92 63.52 196.31 59.9 179.32 55.07 172.82 58.43"/><polygon class="cls-20" points="198.92 63.52 204.03 63.44 204.31 79.78 206.4 85.59 196.75 85.59 198.93 79.64 198.92 63.52"/><polygon class="cls-21" points="209.11 56.85 208.17 59.31 229.31 54.38 239.32 56.32 228.95 51.03 209.11 56.85"/><polygon class="cls-21" points="172.82 58.43 179.62 53.79 195.02 57.42 196.31 59.9 179.49 56.85 172.82 58.43"/><polygon class="cls-5" points="201.18 90.72 196.75 85.59 206.4 85.59 201.18 90.72"/><polygon class="cls-4" points="187.62 101.84 193.18 99.87 198.78 96.03 201.04 97.78 204.16 95.34 212.77 97.87 221.21 98.89 202.09 103.12 187.62 101.84"/><polygon class="cls-6" points="202.42 104.95 198.27 106.07 187.62 101.84 221.21 98.89 206.79 105.36 202.42 104.95"/><polygon class="cls-5" points="201.58 126.98 207.48 143.29 224.62 162.5 247.17 126.98 239.32 126.98 201.58 126.98"/><polygon class="cls-7" points="230.03 4.16 246.18 4.65 261.94 14.31 258.78 29.27 230.03 4.16"/><polygon class="cls-5" points="225.5 14.31 221.27 9.87 193.8 12.44 187.99 20.7 186.12 39.71 218.41 18.64 226.88 18.74 225.5 14.31"/><polygon class="cls-8" points="261.94 14.31 273.26 27.4 273.55 35.67 264.2 38.73 257.21 21.69 261.94 14.31"/><polygon class="cls-7" points="273.26 27.4 264.5 35.08 269.52 53.69 281.92 44.73 273.26 27.4"/><polygon class="cls-8" points="281.92 44.73 290.69 76.73 269.52 83.53 272.18 48.96 281.92 44.73"/><polygon class="cls-10" points="290.69 76.73 282.91 96.03 265.38 102.73 273.55 76.73 290.69 76.73"/><polygon class="cls-8" points="282.91 96.03 293.84 138.57 274.44 135.71 269.52 96.62 282.91 96.03"/><polygon class="cls-10" points="293.84 138.57 278.87 179.13 256.32 196.47 265.18 157.28 260.46 158.75 276.81 130.69 293.84 138.57"/><polygon class="cls-8" points="230.03 4.16 257.21 21.69 251.3 37.15 227.17 23.46 211.82 6.13 230.03 4.16"/><polygon class="cls-10" points="251.2 27.5 257.21 21.69 272.18 48.96 273.55 76.73 258.49 82.44 251.2 27.5"/><polygon class="cls-8" points="273.55 76.73 269.52 96.62 254.65 99.58 264.5 76.73 273.55 76.73"/><polygon class="cls-10" points="269.52 96.62 276.81 130.69 267.65 136.6 259.57 135.22 255.93 114.64 258 96.92 269.52 96.62"/><polygon class="cls-11" points="276.81 130.69 256.32 196.47 237.71 181.99 246.67 146.35 261.34 131.28 276.81 130.69"/><polygon class="cls-7" points="208.86 11.05 216.25 6.13 251.2 27.5 246.57 37.15 242.05 35.97 217.23 19.33 208.86 11.05"/><polygon class="cls-11" points="251.2 27.5 263.12 52.9 264.5 76.73 258.49 82.44 255.04 77.81 250.61 56.05 242.05 35.97 251.2 27.5"/><polygon class="cls-7" points="264.5 76.73 258 96.92 251.3 99.58 247.17 95.05 255.04 77.81 264.5 76.73"/><polygon class="cls-11" points="258 96.92 259.57 113.56 261.34 131.28 255.04 126.56 253.07 121.43 247.17 95.05 258 96.92"/><polygon class="cls-2" points="253.07 121.43 240.18 148.51 237.71 181.99 261.34 131.28 253.07 121.43"/><polygon class="cls-11" points="178.63 27.2 184.84 7.61 159.43 28.29 170.07 37.84 178.63 27.2"/><polygon class="cls-8" points="169.28 34.49 172.82 43.06 171.25 55.76 171.54 66.19 163.27 61.37 159.43 28.29 169.28 34.49"/><polygon class="cls-2" points="171.25 55.76 186.12 39.71 187.79 17.65 178.44 20.41 169.28 34.39 171.25 55.76"/><polygon class="cls-10" points="224.12 11.25 230.03 4.16 212.41 -0.37 204.14 2.78 209.35 10.66 224.12 11.25"/><polygon class="cls-11" points="224.12 11.25 204.14 2.78 194.09 11.25 195.18 21.2 217.23 19.32 224.12 11.25"/><polygon class="cls-10" points="184.84 7.61 204.14 2.78 186.12 39.71 178.44 20.41 184.84 7.61"/><path class="cls-2" d="M191.68,70.23a3.89,3.89,0,1,1-3.89-3.88A3.89,3.89,0,0,1,191.68,70.23Z"/><path class="cls-2" d="M225.24,68.43a3.89,3.89,0,1,1-3.89-3.89A3.89,3.89,0,0,1,225.24,68.43Z"/><polygon class="cls-3" points="213.39 195.09 214.48 184.36 209.51 192.43 213.39 195.09"/><polygon class="cls-6" points="288.48 366.31 304.08 392.69 277.31 392.98 272.67 369.7 288.48 366.31"/><polygon class="cls-4" points="272.67 369.7 270.16 380.92 274.94 392.69 277.31 392.98 272.67 369.7"/></svg>