<svg id="Layer_1" data-name="Layer 1" xmlns="http://www.w3.org/2000/svg" viewBox="0 0 400 400"><defs><style>.cls-1,.cls-5{fill:#2b2b2b;}.cls-1{opacity:0.1;}.cls-2{fill:#484749;}.cls-3{fill:#594265;}.cls-4{fill:#8f759f;}.cls-6{fill:#755446;}.cls-7{fill:#cfcecd;}.cls-8{fill:#916d5a;}.cls-9{fill:#343434;}.cls-10{fill:#4f5353;}.cls-11{fill:#51362a;}.cls-12{fill:#98796a;}.cls-13{fill:#474748;}.cls-14{fill:#ececeb;}.cls-15{fill:#734d61;}.cls-16{fill:#795d88;}.cls-17{fill:#543042;}.cls-18{fill:#a587b8;}.cls-19{fill:#95637c;}.cls-20{fill:#d1a0b8;}</style></defs><title>analysts_ENTJ_famous_fictional_david_palmer_24</title><polygon class="cls-1" points="140.15 388.89 215.19 377.31 290.5 386.84 214.02 400 140.15 388.89"/><polygon class="cls-2" points="254.1 369.6 259.35 388.02 241.97 388.89 224.6 388.02 227.27 372.11 241.97 365.73 254.1 369.6"/><polygon class="cls-2" points="205.03 374.29 205.03 385.51 180.69 386.84 156.35 385.51 177.24 365.67 192.76 363.41 205.03 374.29"/><polygon class="cls-3" points="129.68 96 148.21 79.77 154.38 96.62 151.29 109.73 144.5 117.22 128.44 112.85 129.68 96"/><polygon class="cls-4" points="148.21 86.01 150.06 104.74 145.74 109.11 136.47 96.62 148.21 86.01"/><polygon class="cls-3" points="296.44 263.9 279.87 241.17 274.82 256.41 272.81 275.21 296.44 263.9"/><polygon class="cls-5" points="168.59 2.37 148.82 19.85 153.15 21.72 187.74 32.33 220.47 22.97 232.82 9.86 216.15 0.5 168.59 2.37"/><polygon class="cls-6" points="247.65 132.83 255.73 86.01 225.41 19.23 214.29 75.4 216.77 126.58 221.71 144.69 240.23 149.05 247.65 132.83"/><polygon class="cls-7" points="156.23 175.89 174.77 146.56 253.21 145.31 232.82 250.79 205.65 262.03 183.41 252.04 159.32 229.57 156.23 175.89"/><polygon class="cls-8" points="151.29 27.34 148.82 42.94 148.21 97.87 156.85 132.2 179.09 132.2 185.26 132.2 205.03 136.57 220.47 131.58 225.41 44.19 222.32 22.97 218.62 19.22 158.09 19.22 151.29 27.34"/><polygon class="cls-6" points="151.29 52.93 166.73 64.79 173.53 87.89 182.18 91.01 190.82 87.89 201.94 64.17 218.62 51.68 209.68 50.43 193.1 51.68 187.19 60.99 177.85 61.05 172.91 52.93 164.27 49.81 151.29 52.93"/><polygon class="cls-9" points="216.14 19.23 222.94 23.6 247.65 31.08 259.38 24.22 248.27 7.37 216.14 0.5 216.14 19.23"/><polygon class="cls-5" points="225.41 44.19 243.94 64.17 251.97 48.56 262.47 41.07 259.38 24.22 216.14 19.23 218.62 39.2 225.41 44.19"/><polygon class="cls-9" points="225.41 44.19 243.94 64.17 259.38 62.29 262.47 41.07 262.47 40.45 225.41 44.19"/><polygon class="cls-10" points="225.41 44.19 233.44 57.92 234.68 70.41 242.71 71.03 248.27 67.91 243.32 60.42 225.41 44.19"/><polygon class="cls-11" points="232.82 132.2 220.47 131.58 179.09 132.2 179.71 138.44 203.79 162.16 230.35 140.94 232.82 132.2"/><polygon class="cls-8" points="241.47 86.01 243.32 60.42 259.38 62.29 255.73 86.01 241.47 86.01"/><polygon class="cls-11" points="253.87 97.09 241.47 86.01 255.73 86.01 253.87 97.09"/><polygon class="cls-11" points="246.41 77.9 247.65 65.42 255.06 66.04 246.41 77.9"/><polygon class="cls-12" points="177.85 61.05 173.53 87.89 182.18 92.88 190.82 87.89 187.19 60.99 177.85 61.05"/><polygon class="cls-11" points="182.18 94.13 173.53 87.88 190.82 87.88 182.18 94.13"/><polygon class="cls-6" points="170.44 89.76 161.18 109.11 162.41 94.13 170.44 89.76"/><polygon class="cls-6" points="197 88.51 207.5 110.36 205.03 94.75 197 88.51"/><polygon class="cls-13" points="151.78 48.95 151.29 52.93 159.93 50.9 172.91 52.93 171.72 45.42 159.95 44.98 151.78 48.95"/><polygon class="cls-13" points="195.15 45.44 193.1 51.68 209.68 50.43 218.62 51.68 218.93 48.52 209.76 44.19 195.15 45.44"/><path class="cls-5" d="M203.18,56.05a4.37,4.37,0,1,1-4.33,4.37,4.35,4.35,0,0,1,4.33-4.37"/><path class="cls-5" d="M164.81,56.05a4.37,4.37,0,1,1-4.33,4.37,4.35,4.35,0,0,1,4.33-4.37"/><polygon class="cls-14" points="174.77 146.56 179.71 138.44 205.03 152.8 193.29 169.03 174.77 146.56"/><polygon class="cls-3" points="195.76 175.27 193.29 169.03 205.03 152.8 213.68 170.28 211.2 175.89 203.79 182.76 195.76 175.27"/><polygon class="cls-15" points="195.76 175.27 193.29 169.03 207.89 158.58 210.85 164.57 195.76 175.27"/><polygon class="cls-14" points="253.21 145.31 213.68 170.28 205.03 152.8 247.65 132.83 253.21 145.31"/><polygon class="cls-3" points="195.76 175.27 188.97 233.32 203.18 248.3 215.53 235.82 211.2 175.89 195.76 175.27"/><polygon class="cls-15" points="194.21 188.59 213.12 202.45 212.39 192.32 195.18 180.28 194.21 188.59"/><polygon class="cls-15" points="214.92 227.34 214.15 216.68 192.76 200.92 191.79 209.25 214.92 227.34"/><polygon class="cls-15" points="210.23 241.17 215.42 235.93 190.7 218.52 189.8 226.23 210.23 241.17"/><polygon class="cls-3" points="253.21 145.31 245.79 180.26 222.32 208.97 232.82 250.79 230.97 262.03 253.82 264.53 281.62 217.72 275.44 155.29 253.21 145.31"/><polygon class="cls-16" points="257.53 180.89 222.32 208.97 253.21 145.31 261.24 163.41 253.82 169.03 257.53 180.89"/><polygon class="cls-4" points="303.24 224.58 275.44 155.29 268.03 217.09 282.85 230.82 303.24 224.58"/><polygon class="cls-16" points="251.35 257.04 247.65 275.76 272.81 275.21 303.24 224.58 268.03 217.09 251.35 257.04"/><polygon class="cls-15" points="171.06 324.41 162.41 270.22 203.79 263.45 214.29 272.68 220.47 278.84 216.14 297.61 211.2 329.95 191.44 345.96 171.06 324.41"/><polygon class="cls-17" points="177.24 365.67 171.06 324.41 211.2 329.95 205.03 374.29 177.24 365.67"/><polygon class="cls-15" points="221.09 330.57 216.14 297.61 205.65 277 216.77 262.21 259.56 271.35 272.81 275.21 263.71 320.71 240.23 348.43 221.09 330.57"/><polygon class="cls-17" points="227.27 372.11 221.09 330.57 263.71 320.71 254.1 369.39 227.27 372.11"/><polygon class="cls-17" points="232.21 247.67 183.41 248.3 183.41 252.67 162.41 273.66 216.14 297.61 272.81 275.21 252.35 254.65 232.21 247.67"/><polygon class="cls-16" points="115.47 169.65 159.94 152.8 163.03 186.51 151.29 200.24 120.41 198.99 115.47 169.65"/><polygon class="cls-3" points="101.88 144.69 90.77 178.39 120.41 198.99 127.82 155.92 117.94 145.94 101.88 144.69"/><polygon class="cls-14" points="104.97 133.45 101.88 144.69 127.82 155.92 129.68 145.93 124.12 131.58 104.97 133.45"/><polygon class="cls-6" points="108.55 124.57 104.97 133.45 123.5 142.81 134 114.1 108.55 124.57"/><polygon class="cls-11" points="140.18 122.84 143.26 135.94 129.68 145.93 123.5 142.81 127.82 126.58 140.18 122.84"/><polygon class="cls-16" points="108.55 124.57 131.53 99.12 144.5 117.22 140.18 122.84 123.5 142.81 108.55 124.57"/><path class="cls-18" d="M118.56,121l1.55,2.09,3.39-2.72L121,117.85Zm3.7,4.37,1.86,2.49,3.09-3.74-2.47-2.5-3.09,3.12Zm3.09,4.36,1.86,2.5,3.08-4.37-1.85-2.49-3.09,3.74Zm7.41-4.36,3.09-3.75-1.85-2.5-3.09,3.75Zm0-7.49-1.85-2.5-3.09,3.74,2.11,2.13Zm-3.08-3.75-2.47-2.5-3.71,3.75,2.47,2.5Zm8,5,3.08-3.74-1.85-2.5-3.09,3.75Zm0-7.49-1.86-2.5-3.09,3.75,1.86,2.5Zm-3.09-3.74-2.47-3.12-3.71,3.74,2.47,2.5,3.71-3.75Z"/><polygon class="cls-19" points="248.27 172.77 242.09 174.02 240.85 177.77 250.74 182.13 253.82 174.65 248.27 172.77"/><path class="cls-20" d="M242.09,174l-.62,1.25,9.88,4.37.62-1.25-4.94-2.5-1.24-.62.62-1.25,6.18,2.5.62-1.25L247,173.4l-2.47-.63Zm-.62,2.5-.61,1.25,9.88,4.37.61-.63Z"/><path class="cls-17" d="M243.32,170.9,242.09,174a34.88,34.88,0,0,1,4.94,2.5l.62-3.75-4.94-1.87Z"/><polygon class="cls-9" points="148.82 42.94 153.77 36.7 158.09 19.23 148.82 19.85 148.82 42.94"/><polygon class="cls-8" points="129.68 96 108.55 124.57 129.06 122.22 139.53 110.29 129.68 96"/><polygon class="cls-6" points="166.12 105.36 179.09 105.99 180.94 107.86 184.03 105.99 198.23 105.36 198.23 107.86 187.59 112.6 175.53 112.6 166.12 107.86 166.12 105.36"/><polygon class="cls-11" points="166.12 105.36 177.85 104.11 180.94 106.61 185.26 104.11 198.23 105.36 180.94 108.48 166.12 105.36"/><polygon class="cls-3" points="159.94 152.8 174.77 146.56 174.15 178.39 185.88 210.22 193.91 276.38 150.68 272.64 151.29 200.24 159.94 152.8"/><polygon class="cls-16" points="163.03 186.51 185.88 210.22 174.77 146.56 163.03 167.78 169.82 173.4 163.03 186.51"/><polygon class="cls-6" points="191.44 119.72 173.53 119.72 182.18 115.35 191.44 119.72"/><rect class="cls-5" x="224.6" y="388.02" width="34.75" height="4.55"/><rect class="cls-5" x="156.35" y="385.51" width="48.68" height="4.31"/></svg>