<svg id="Layer_1" data-name="Layer 1" xmlns="http://www.w3.org/2000/svg" viewBox="0 0 400 400"><defs><style>.cls-1,.cls-17{fill:#2b2b2b;}.cls-1{fill-opacity:0.1;}.cls-2{fill:#393939;}.cls-3{fill:#727272;}.cls-4{fill:#9ca1a1;}.cls-5{fill:#8e8e8e;}.cls-6{fill:#ebebeb;}.cls-7{fill:#cdcdcd;}.cls-8{fill:#4f5252;}.cls-9{fill:#a3a3a3;}.cls-10{fill:#543042;}.cls-11{fill:#95637c;}.cls-12{fill:#734d60;}.cls-13{fill:#464646;}.cls-14{fill:#594165;}.cls-15{fill:#fce3d4;}.cls-16{fill:#f4c9b2;}.cls-18{fill:#5d5044;}.cls-19{fill:#46382d;}.cls-20{fill:#c1907d;}.cls-21{fill:#ffefe7;}.cls-22{fill:#dddddb;}.cls-23{fill:#8f759f;}.cls-24{fill:#785d87;}.cls-25{fill:#a587b9;}.cls-26{fill:#b2879c;}.cls-27{fill:none;}</style></defs><title>analysts_ENTJ_famous_fictional_francis_j_underwood_house_of_cards</title><polygon class="cls-1" points="111.92 383.26 203.41 362.04 258.93 370.63 278.98 384.06 220.97 400 111.92 383.26"/><polygon class="cls-2" points="207.89 375.99 187.7 387.37 188.29 392.81 219.94 392.81 219.94 387.07 207.89 375.99"/><polygon class="cls-3" points="277.36 369.01 267.16 369.01 245.05 373.86 249.53 376.72 269.14 380.83 278.98 381.2 295.72 375.11 301.01 372.68 277.36 369.01"/><polygon class="cls-4" points="244.69 378.78 245.05 373.86 269.14 377.97 278.17 378.41 301.01 372.68 301.01 377.16 278.98 384.06 267.96 384.06 244.69 378.78"/><polygon class="cls-4" points="277.36 45.9 267.16 45.9 267.16 373.49 269.14 374.3 274.87 374.3 277.36 373.49 277.36 45.9"/><polygon class="cls-5" points="273.25 104.28 260.99 116.1 263.41 129.61 257.31 131.67 254.45 143.93 257.31 156.12 251.22 157.81 248.36 169.63 262.24 183.51 265.1 199.08 276.92 198.64 285.07 220.31 294.92 217.44 292.86 197.39 286.76 186.01 291.24 179.03 289.19 159.87 284.27 147.16 287.57 143.49 273.25 104.28"/><polygon class="cls-5" points="277.36 45.9 260.99 116.1 287.13 143.05 277.36 45.9"/><path class="cls-6" d="M261,116.1l-3.67,15.57,31.87,28.2-1.62-16.82Zm-6.54,28.2h0l-3.23,13.88,41.64,39.65-2.06-18-36.72-35.1Z"/><polygon class="cls-3" points="268.77 190.49 259.74 196.22 247.11 236.61 259.74 241.09 265.1 236.24 267.16 243.14 282.21 248.06 281.4 240.72 288.75 219.06 276.92 198.64 268.77 190.49"/><polygon class="cls-7" points="262.24 183.51 259.74 196.22 255.26 239.47 267.16 243.14 268.77 190.49 262.24 183.51"/><polygon class="cls-8" points="298.95 256.21 281.4 240.72 276.92 198.64 294.92 217.44 298.95 256.21"/><polygon class="cls-9" points="281.84 241.09 281.4 240.72 278.98 217 285.07 206.79 290.8 212.96 281.84 241.09"/><polygon class="cls-6" points="277.58 82.03 278.61 87.53 273.99 90.69 272.96 85.19 277.58 82.03"/><polygon class="cls-6" points="274.35 97.3 275.45 102.73 270.83 105.89 269.8 100.46 274.35 97.3"/><polygon class="cls-6" points="278.1 114.63 279.13 120.14 274.57 123.3 273.55 117.79 278.1 114.63"/><polygon class="cls-10" points="116.69 235.8 111.25 227.06 122.93 182.93 133.28 211.64 136.88 237.41 116.69 235.8"/><polygon class="cls-11" points="156.34 365.19 136.74 282.65 166.62 253.72 176.61 281.62 191.22 293.67 179.99 303.29 169.05 373.56 165.16 381.86 156.34 365.19"/><polygon class="cls-12" points="147.68 273.32 167.87 253.72 177.86 281.62 192.4 293.67 181.16 303.29 178.52 367.98 165.81 372.1 150.25 273.25 147.68 273.32"/><polygon class="cls-11" points="223.02 284.12 207.89 375.99 207.45 385.31 193.94 370.04 176.61 281.62 208.26 269.14 223.02 284.12"/><polygon class="cls-12" points="223.68 272.66 215.02 370.04 204.81 385.31 203.05 380.39 196.66 289.77 211.93 275.53 223.68 272.66"/><polygon class="cls-10" points="143.56 278.91 136.74 282.65 148.12 282.58 152.82 289.41 179.62 300.64 223.68 272.66 200.4 268.48 160.53 261.36 143.56 278.91"/><polygon class="cls-13" points="132.26 379.22 156.34 365.19 178.52 367.98 178.52 378.26 174.48 381.2 170.59 378.41 170.59 378.41 170.59 378.41 153.85 380.61 132.26 379.22"/><path class="cls-2" d="M178.52,378.26v6.83l-7.12.08-.81-6.76Zm-7.93.15-7.93,6.83-30-.07-.36-5.95Z"/><polygon class="cls-12" points="136.74 282.65 135.78 262.02 128.29 252.03 138.35 247.84 154.14 242.04 159.94 250.34 167.43 255.77 161.19 265.76 152.82 289.41 136.74 282.65"/><polygon class="cls-14" points="135.78 262.02 129.54 253.72 130.79 251.22 138.35 247.84 152.45 242.48 154.95 242.85 159.94 250.34 167.43 255.77 160.82 261.21 150.4 267.01 135.78 262.02"/><polygon class="cls-11" points="196.66 289.77 161.19 265.76 160.82 261.21 159.94 250.34 159.57 227.5 190.78 169.56 209.51 149.15 230.37 160.82 226.99 198.72 225.37 242.04 223.68 272.66 196.66 289.77"/><polygon class="cls-12" points="160.82 261.21 159.94 250.34 159.94 243.73 173.31 245.35 171.62 255.33 160.82 261.21"/><polygon class="cls-12" points="175.36 208.34 187.48 186.23 226.62 212.08 225.37 240.57 211.64 246.23 175.36 208.34"/><polygon class="cls-15" points="103.54 39.66 106.77 59.34 108.1 133.65 141.88 132.77 184.76 131.81 194.82 41.49 188.87 21 182.93 11.9 176.1 7.78 146.87 11.9 115.88 23.28 103.54 39.66"/><polygon class="cls-16" points="111.77 58.82 124.99 71.6 131.81 90.77 148.26 89.89 159.65 66.17 174.7 50.16 163.76 51.55 152.82 56.1 142.32 62.93 140.04 67.49 136.37 63.45 129.1 57.5 120.87 55.66 111.77 58.82"/><path class="cls-17" d="M159.65,62.13a4,4,0,1,1-4,4A4,4,0,0,1,159.65,62.13Z"/><path class="cls-17" d="M123.59,66.24a4,4,0,1,1-4,4A4,4,0,0,1,123.59,66.24Z"/><polygon class="cls-18" points="98.99 38.77 115.88 23.28 106.26 43.77 106.77 59.34 98.99 38.77"/><polygon class="cls-19" points="117.72 16.45 115.88 23.28 174.7 11.9 177.93 8.22 170.15 0 117.72 16.45"/><polygon class="cls-18" points="188.87 21 185.64 10.06 170.15 0 174.7 11.9 188.87 21"/><polygon class="cls-19" points="196.59 14.17 170.15 0 188.87 21 196.59 19.61 196.59 14.17"/><polygon class="cls-18" points="200.26 44.28 188.87 21 196.59 14.17 213.48 20.56 217.15 31.94 200.26 44.28"/><polygon class="cls-19" points="226.69 47.88 216.27 51.99 200.26 44.28 213.48 20.05 226.69 47.88"/><polygon class="cls-16" points="203.85 165.74 205.32 140.04 215.53 99.06 200.26 44.28 188.87 21 184.76 131.81 178.67 154.21 203.85 165.74"/><polygon class="cls-18" points="200.26 44.28 201.21 51.55 211.2 64.77 223.53 61.54 226.69 47.88 200.26 44.28"/><polygon class="cls-5" points="200.26 44.28 201.5 67.56 208.7 69.25 223.53 61.54 225 55.22 200.26 44.28"/><polygon class="cls-15" points="208.92 57.87 223.53 61.54 217.59 89.89 204.37 87.97 208.92 57.87"/><polygon class="cls-20" points="210.24 77.55 212.23 64.25 219.13 65.58 210.24 77.55"/><polygon class="cls-20" points="204.37 87.97 215.53 99.06 217.59 89.89 204.37 87.97"/><polygon class="cls-18" points="150.54 51.11 152.82 56.1 174.7 50.16 172.43 42.89 150.54 51.11"/><polygon class="cls-18" points="129.98 52.43 129.1 57.5 111.77 58.82 111.77 52.95 129.98 52.43"/><polygon class="cls-21" points="136.37 63.45 142.32 62.93 148.26 89.89 131.81 90.77 136.37 63.45"/><polygon class="cls-20" points="140.04 96.71 131.81 90.77 148.26 89.89 140.04 96.71"/><polygon class="cls-20" points="130.49 109.49 133.21 110.37 158.33 103.54 161.04 99.94 156.49 99.43 165.16 96.71 166.48 103.54 163.32 99.94 159.65 105.82 133.21 112.65 129.98 110.89 130.49 109.49"/><polygon class="cls-16" points="152.38 83.06 171.98 95.83 162.88 86.65 152.38 83.06"/><polygon class="cls-22" points="157.88 180.8 157.08 169.56 145.4 165.01 142.9 182.93 141.22 195.85 159.57 227.5 173.75 182.93 157.88 180.8"/><polygon class="cls-20" points="149.15 153.77 141.88 132.77 184.76 131.81 197.54 132.04 180.21 151.72 158.77 161.04 149.15 153.77"/><polygon class="cls-6" points="145.4 165.01 149.15 153.77 159.57 160.01 151.2 172.5 145.4 165.01"/><polygon class="cls-6" points="205.32 140.04 209.51 149.15 195.78 164.57 177.49 172.94 159.57 160.01 205.32 140.04"/><polygon class="cls-16" points="157.08 158.77 151.2 172.5 157.88 180.8 167.43 170 167.87 156.27 157.08 158.77"/><polygon class="cls-15" points="181.6 168.75 174.11 160.01 167.87 156.27 157.88 180.8 172.43 184.18 177.86 178.3 181.6 168.75"/><polygon class="cls-16" points="177.05 155.83 167.87 156.27 181.6 168.75 177.05 155.83"/><polygon class="cls-23" points="209.51 149.15 204.52 171.25 197.47 171.25 192.03 173.75 181.6 168.75 209.51 149.15"/><polygon class="cls-24" points="159.57 227.5 184.98 197.1 185.79 185.79 197.03 181.68 197.47 171.25 181.6 168.75 179.99 180.8 176.24 196.66 167.87 200.4 158.33 205.84 159.57 227.5"/><polygon class="cls-24" points="175.36 208.34 185.35 196.66 185.79 185.79 186.6 185.79 179.99 179.99 179.99 180.8 172.43 184.18 167.87 200.4 175.36 208.34"/><polygon class="cls-12" points="122.93 182.93 145.4 165.01 139.97 195.41 159.57 227.5 148.71 232.5 134.97 237.05 132.92 230.37 128.73 210.39 122.93 182.93"/><polygon class="cls-24" points="148.34 202.9 156.2 208.34 159.57 227.5 129.98 191.22 139.16 180.8 134.17 179.18 145.4 165.01 148.34 202.9"/><polygon class="cls-25" points="159.57 227.5 164.57 211.2 162.88 209.14 167.87 200.4 167.06 190.78 163.32 190.42 166.18 182.93 157.88 180.8 154.14 189.54 154.95 194.6 148.34 202.9 151.64 210.39 157.08 212.89 154.95 217.44 159.57 227.5"/><path class="cls-23" d="M164.57,211.2l3.3-10.8-16.23,10,3.31,7.49,9.62-6.24Zm2.49-20.78h0l-.88-7.93-12,6.68-5.43,13.29,18.72-12Z"/><polygon class="cls-11" points="141.66 231.61 111.25 227.06 105.01 249.97 135.78 262.02 136.66 255.77 143.71 245.79 141.66 231.61"/><polygon class="cls-22" points="144.15 257.83 136.66 255.77 141.66 231.61 148.71 232.5 153.7 241.6 146.21 247.48 144.15 257.83"/><polygon class="cls-16" points="146.21 247.48 159.94 250.34 165.81 240.35 159.57 227.5 148.71 232.5 147.46 239.54 146.21 247.48"/><polygon class="cls-15" points="173.31 245.35 159.94 250.34 159.57 227.5 172.87 232.5 173.31 245.35"/><polygon class="cls-26" points="245.35 214.65 225.37 240.57 191.59 202.9 207.01 182.04 211.64 185.94 227.06 188.43 245.35 214.65"/><polygon class="cls-22" points="191.59 202.9 185.35 196.66 188.73 186.67 197.03 181.68 200.77 177.05 207.01 182.04 191.59 202.9"/><polygon class="cls-16" points="172.43 184.18 177.86 189.54 181.6 189.54 182.49 193.72 185.35 196.66 189.98 190.42 197.03 181.68 191.59 177.05 188.73 177.49 187.85 174.19 181.6 168.75 172.43 184.18"/><polygon class="cls-11" points="177.86 189.54 179.99 186.23 186.23 175.44 187.85 174.19 191.59 177.05 191.22 179.55 185.35 189.17 182.49 193.72 177.86 189.54"/><polygon class="cls-23" points="179.11 182.93 179.99 186.23 184.54 190.42 188.29 190.42 191.59 184.18 191.22 179.55 186.23 175.44 182.49 176.69 179.11 182.93"/><polygon class="cls-27" points="183.29 183.73 187.04 183.73 186.6 179.18 183.29 183.73"/><polygon class="cls-6" points="183.29 183.29 186.23 182.93 185.79 179.18 187.48 179.18 187.85 183.29 187.85 184.18 187.04 184.54 183.29 184.54 183.29 183.29"/><polygon class="cls-12" points="230.37 160.82 245.35 214.65 211.64 185.94 230.37 160.82"/><polygon class="cls-16" points="165.6 65.72 171.54 68 176.98 69.32 172.87 66.17 165.6 65.72"/><polygon class="cls-16" points="166.48 63.89 172.87 63.89 178.37 62.93 171.1 62.49 166.48 63.89"/><polygon class="cls-16" points="117.72 103.54 129.98 85.77 122.71 92.16 117.72 103.54"/><polygon class="cls-13" points="193.94 370.04 187.7 387.37 219.94 387.07 215.02 370.04 193.94 370.04"/></svg>