<svg id="Layer_1" data-name="Layer 1" xmlns="http://www.w3.org/2000/svg" viewBox="0 0 400 400"><defs><style>.cls-1{fill:#fbe3d4;}.cls-2{fill:#c7c7c6;}.cls-3{fill:#f4cab2;}.cls-4{fill:#dddddc;}.cls-5{fill:#ececeb;}.cls-6{fill:#f0edec;}.cls-7{fill:#a587b8;}.cls-8{fill:#795d88;}.cls-9{fill:#322b25;}.cls-10{opacity:0.1;}.cls-11{fill:#2b2b2b;}.cls-12{fill:#c18f7c;}.cls-13{fill:#8f759f;}.cls-14{fill:#734d61;}.cls-15{fill:#543042;}.cls-16{fill:#95637c;}.cls-17{fill:#474748;}.cls-18{fill:#fff0e8;}.cls-19{fill:#2b2c2b;}</style></defs><title>analysts_ENTJ_famous_fictional_mary_talbot_downtown_abbey</title><polygon class="cls-1" points="197.47 139.21 193.84 141.77 187.83 144.91 185.82 158.41 203.74 166.44 236.8 159.46 238.43 149.56 234.79 139.49 200.73 139.32 197.47 139.21"/><polygon class="cls-2" points="127.28 195 111.65 181.36 124.22 167.14 129.99 167.14 126.91 176.64 124.8 181.06 131.78 187.72 127.28 195"/><polygon class="cls-3" points="175.68 150.96 171.29 153.73 165.5 181.93 169.79 201.25 175.68 150.96"/><polygon class="cls-4" points="172.05 181.93 158.9 179.57 159.56 192.42 169.79 201.25 170.71 193.37 172.05 181.93"/><polygon class="cls-5" points="170.59 196.65 136.45 180.1 127.28 195 166.16 220.5 180.15 214.06 170.59 196.65"/><polygon class="cls-6" points="111.65 181.36 113.23 160.4 127.03 156.42 123.66 167.84 111.65 181.36"/><polygon class="cls-7" points="142.55 146.51 135.14 152.87 135.02 154.72 136.27 154.08 143.66 147.58 144.4 146.6 142.55 146.51"/><polygon class="cls-7" points="151.73 133.75 152.81 117.27 159.72 116.19 158.97 114.32 150.96 115.73 149.81 132.46 150.79 134.62 151.73 133.75"/><polygon class="cls-8" points="149.81 132.46 160.91 139.06 147.66 152.07 139.53 143.25 149.81 132.46"/><polygon class="cls-8" points="132.17 149.89 140.53 158.24 126.49 170.26 118.21 163.16 132.17 149.89"/><polygon class="cls-7" points="124.25 139.04 116.56 140.68 115.82 140.95 115.79 141.68 118.21 163.16 119.93 161.52 117.76 142.2 124.55 140.71 124.25 139.04"/><polygon class="cls-4" points="131.78 187.72 124.02 182.39 129.99 167.14 137.05 161.04 136.45 180.1 131.78 187.72"/><polygon class="cls-9" points="139.19 57.51 147.62 86.31 153.6 41.58 147.74 41.95 139.19 57.51"/><g class="cls-10"><polygon class="cls-11" points="130.96 384.1 212.58 375.65 288.35 386.69 196.61 398.14 130.96 384.1"/></g><polygon class="cls-3" points="169.76 304.74 194.95 365.27 166.28 387.62 194.66 381.8 212.33 370.16 212.33 348.16 200.31 326.5 169.76 304.74"/><polygon class="cls-12" points="173.66 315.45 186.26 344.44 205.24 346.88 208.72 341.64 200.17 326.16 185.11 315.45 173.66 315.45"/><polygon class="cls-1" points="194.52 381.45 210.6 367.02 205.24 346.88 208.72 341.64 230.15 344.44 226.96 368.76 224.35 375.98 209 388.55 194.52 381.45"/><polygon class="cls-3" points="205.24 346.88 202.6 336.28 234.78 315.21 230.15 344.44 205.24 346.88"/><polygon class="cls-8" points="226.17 392.63 228.12 376.68 224.47 375.1 219.55 376.85 220.92 392.63 226.17 392.63"/><polygon class="cls-8" points="182.06 375.28 166.14 387.27 191.48 387.16 194.08 387.62 194.52 381.45 182.06 375.28"/><polygon class="cls-13" points="194.52 381.45 208.28 385.18 226.96 368.76 228.12 376.68 211.6 392.63 182.21 392.51 194.52 381.45"/><polygon class="cls-14" points="173.05 297.99 172.17 326.04 202.6 336.28 257.46 323.25 256.09 310.21 251.2 292.63 173.05 297.99"/><polygon class="cls-15" points="172.8 304.97 172.17 326.04 202.61 336.28 202.73 320.8 172.8 304.97"/><polygon class="cls-1" points="147.74 41.95 147.62 86.31 165.62 130.69 198.44 130.69 212.44 109.34 216.74 57.67 212.34 38.18 162.88 34.41 147.74 41.95"/><polygon class="cls-9" points="218.2 34.05 197.69 31.62 169.96 40.61 173.87 45.84 216.74 57.67 219.18 43.77 218.2 34.05"/><polygon class="cls-16" points="147.74 29.43 147.74 41.95 216 37.94 239.69 43.04 250.56 35.99 249.58 24.44 209.28 12.9 147.74 29.43"/><polygon class="cls-17" points="147.74 29.43 157.63 28.94 175.46 21.29 172.65 5.12 151.41 16.79 147.74 29.43"/><polygon class="cls-3" points="234.79 139.49 244.11 91.18 221.89 42.41 217.91 43.92 212.44 109.34 198.44 130.69 194.87 139.5 197.77 145.94 202.85 155.61 234.79 139.49"/><polygon class="cls-12" points="241.52 107.03 243.36 95.18 239.3 87.73 228.82 87.71 241.52 107.03"/><polygon class="cls-9" points="172.65 5.12 157.63 28.94 183.52 27.73 187.18 13.75 181.81 0.5 172.65 5.12"/><polygon class="cls-9" points="195.24 16.66 215.51 26.14 232.12 17.88 230.17 5.73 181.81 0.5 195.24 16.66"/><polygon class="cls-17" points="183.52 27.73 215.51 26.14 181.81 0.5 183.52 27.73"/><polygon class="cls-17" points="230.17 5.73 249.58 24.44 236.52 25.05 215.51 26.14 230.17 5.73"/><polygon class="cls-3" points="232.73 59.45 227.36 61.88 228.82 84.12 238.23 84.36 244.21 66.25 232.73 59.45"/><polygon class="cls-9" points="216 37.94 235.78 61.27 265.18 76.59 250.56 35.99 236.64 36.72 216 37.94"/><polygon class="cls-17" points="243.36 95.18 265.18 76.59 216 37.94 216.74 57.67 243.36 95.18"/><polygon class="cls-12" points="186.88 130.69 202.85 155.61 216.69 130.69 186.88 130.69"/><polygon class="cls-14" points="234.79 139.49 250.56 150.96 252.71 158.53 249.58 160.39 236.17 164.23 231.29 155.39 234.79 139.49"/><polygon class="cls-14" points="187.83 144.91 175.68 150.96 174.8 158.53 184.44 166.21 191.71 155.85 187.83 144.91"/><polygon class="cls-16" points="171.32 184.56 172.82 173.03 174.8 158.53 191.71 155.85 231.29 155.15 249.58 160.39 253.33 179.71 245.94 184.72 205.49 194.15 171.32 184.56"/><polygon class="cls-16" points="249.58 160.39 253.33 179.71 245.94 184.72 239.56 184.72 249.58 160.39"/><polygon class="cls-14" points="169.79 196.34 171.66 181.93 245.94 184.72 254.46 198.92 242.69 206.61 200.6 211.38 169.79 196.34"/><polygon class="cls-14" points="239.68 184.49 245.94 184.72 254.46 198.92 242.69 206.61 231.04 205.68 239.68 184.49"/><polygon class="cls-16" points="176.31 235.94 180.15 214.06 169.79 196.34 242.69 206.61 248.07 231.28 176.31 235.94"/><polygon class="cls-16" points="231.31 205.01 242.69 206.61 246.57 214.4 228.9 211.2 231.31 205.01"/><polygon class="cls-16" points="185.95 287.98 201.1 237.92 248.07 231.28 267.36 308 202.74 320.8 185.95 287.98"/><polygon class="cls-14" points="163.28 310.79 177.94 226.4 204.41 237.45 202.74 320.8 163.28 310.79"/><polygon class="cls-16" points="192.84 235.24 247.36 227.99 251.18 243.62 204.29 243.62 192.84 235.24"/><polygon class="cls-14" points="204.29 243.62 175.18 242.46 176.69 233.77 179.68 233.01 204.41 237.45 204.29 243.62"/><polygon class="cls-1" points="261.91 157.71 250.56 150.96 245.07 190.42 244.31 195.66 253.46 203.35 260.43 202.65 261.91 157.71"/><polygon class="cls-5" points="270.73 205.01 244.31 195.66 242.69 206.61 238.18 219.76 259.9 225.23 270.73 205.01"/><polygon class="cls-3" points="149.33 58.72 164.41 69.84 173.29 85.36 182.39 90.91 195.6 69.18 214.52 57.06 206.43 55.58 184.85 61.13 181.44 66.62 177.54 71.24 174.6 66.74 171.72 61.17 155.83 56.05 149.33 58.72"/><polygon class="cls-9" points="186.77 57.73 184.85 61.13 206.89 56.95 214.52 57.06 210.52 53.94 206.21 54.76 186.77 57.73"/><polygon class="cls-9" points="155.43 55.08 170.39 57.85 171.72 61.17 155.58 57.11 149.33 58.72 155.43 55.08"/><polygon class="cls-18" points="174.61 66.72 172.87 90.91 182.39 90.91 181.44 66.62 174.61 66.72"/><polygon class="cls-12" points="177.47 96.31 172.87 90.91 182.39 90.91 177.47 96.31"/><polygon class="cls-15" points="164.58 105.06 175.57 102.14 178.5 103.73 181.8 101.66 193.54 104.7 178.5 108.34 164.58 105.06"/><polygon class="cls-14" points="178.5 111.87 164.58 105.06 178.14 106.88 193.54 104.7 178.5 111.87"/><polygon class="cls-15" points="237.21 93.95 235.57 96.98 232.53 102.92 238.15 109.32 242.36 102.68 238.85 96.86 237.21 93.95"/><polygon class="cls-16" points="235.63 87.88 235.57 96.98 238.85 96.86 238.67 92.16 235.63 87.88"/><path class="cls-19" d="M199.39,68.39a3.79,3.79,0,1,1-3.79-3.77A3.78,3.78,0,0,1,199.39,68.39Z"/><path class="cls-19" d="M168.21,69.18a3.8,3.8,0,1,1-3.8-3.77A3.79,3.79,0,0,1,168.21,69.18Z"/><polygon class="cls-17" points="243.36 95.18 239.17 116.79 223.08 129.15 246.56 127.64 259.53 117.82 265.18 76.59 243.36 95.18"/><polygon class="cls-9" points="243.36 95.18 262.03 99.56 265.18 76.59 238.05 87.71 243.36 95.18"/><polygon class="cls-9" points="246.56 127.64 259.53 117.82 262.03 99.56 239.17 116.79 223.08 129.15 246.56 127.64"/><polygon class="cls-4" points="180.15 214.06 166.16 220.5 168.18 233.01 179.68 233.01 183.26 226.4 180.15 214.06"/><polygon class="cls-5" points="201.23 220.42 180.15 214.06 179.68 233.01 204.41 237.45 206.77 229.71 201.23 220.42"/><polygon class="cls-4" points="242.69 206.61 259.9 225.23 204.41 237.45 201.23 220.42 242.69 206.61"/><polygon class="cls-9" points="222.69 66.05 224.17 80.17 228.82 81.42 231.56 78.56 222.69 66.05"/></svg>