<svg id="tony_soprano" xmlns="http://www.w3.org/2000/svg" viewBox="0 0 400 400"><defs><style>.cls-1,.cls-18,.cls-7{fill:#2b2b2b;}.cls-1{opacity:0.1;}.cls-2{fill:#785d87;}.cls-3{fill:#a587b9;}.cls-4{fill:#8f759f;}.cls-5{fill:#95637c;}.cls-6{fill:#734d60;}.cls-7{opacity:0.2;}.cls-8{fill:#b2879c;}.cls-9{fill:#d0a0b7;}.cls-10{fill:#fce3d4;}.cls-11{fill:#f4c9b2;}.cls-12{fill:#c1907d;}.cls-13{fill:#ffefe7;}.cls-14{fill:#66483a;}.cls-15{fill:#51362a;}.cls-16{fill:#98796a;}.cls-17{fill:#82624d;}.cls-19{fill:#cdcdcc;}.cls-20{fill:#4f5253;}.cls-21{fill:#474747;}.cls-22{fill:#6f7173;}.cls-23{fill:#e7c9b5;}</style></defs><title>analysts_ENTJ_famous_fictional_tony_soprano_the_sopranos</title><polygon class="cls-1" points="73.66 385.38 200.22 371.75 309.81 387.04 207.96 400 73.66 385.38"/><polygon class="cls-2" points="206 313.89 189.66 337.41 157 347.63 135.09 316.14 140.66 265.04 170.66 271.17 206 313.89"/><polygon class="cls-3" points="170.55 286.63 179.5 311.42 203.26 337.67 223.5 347.63 252.23 345.98 263.81 324.48 267.67 269.4 170.66 266.99 170.55 286.63"/><polygon class="cls-4" points="203.26 337.67 263.81 324.48 261.49 370.78 240.67 375.18 223.5 361.72 203.26 337.67"/><polygon class="cls-4" points="135.09 316.14 189.66 337.41 162.98 375.82 140.66 366.17 131.41 351.15 135.09 316.14"/><polygon class="cls-5" points="223.5 361.72 211.5 384.37 238.16 388.63 262 384.37 261.49 370.78 223.5 361.72"/><rect class="cls-6" x="211.5" y="384.37" width="50.5" height="8.51"/><polygon class="cls-5" points="131.41 351.15 101.47 375.82 131.41 381.19 162.98 375.82 131.41 351.15"/><polygon class="cls-4" points="197 302.97 179.5 311.42 165.9 295.25 177.67 262.33 197 302.97"/><polygon class="cls-6" points="168.73 140.85 156.33 143.87 132.78 155.55 139.34 186.5 150.29 211.11 175.63 168.15 186.58 140.85 168.73 140.85"/><polygon class="cls-5" points="248 133.25 284.67 152.71 269.18 253.12 267.67 269.4 197 302.97 177.55 269.74 165.9 295.25 140.66 265.04 159.33 160.43 156.33 143.87 171.51 136.78 248 133.25"/><polygon class="cls-7" points="231.17 183.26 207 168.5 219.41 157.44 231.17 183.26"/><polygon class="cls-7" points="265.86 295.25 237.83 283.58 186.77 285.49 165.9 295.25 146.74 272.33 182.6 251.39 221.67 248.37 269.18 253.12 267.67 269.4 265.86 295.25"/><polygon class="cls-7" points="159.33 160.43 190.64 165.24 181.47 153.54 159.33 160.43"/><polygon class="cls-8" points="190.64 165.24 181.47 153.54 173.13 150.56 186.58 140.85 193.72 142.31 190.64 165.24"/><polygon class="cls-9" points="159.33 160.43 181.47 153.54 188.2 145.59 181.67 140.68 159.33 160.43"/><polygon class="cls-10" points="149.67 26.63 134.77 117.4 192.62 140.46 192.57 180.72 245.51 128.02 272.17 60.3 255.09 20.77 206.38 2.83 167.48 7.96 149.67 26.63"/><polygon class="cls-11" points="245.91 17.74 226.74 37.24 211.1 130.21 188.2 145.59 192.57 180.72 251.82 130.58 260.01 102.28 260.81 92.7 263.9 88.21 271.11 63.96 255.09 20.77 245.91 17.74"/><polygon class="cls-11" points="203.76 53.53 176.03 76.32 152.58 45.3 159.12 43.1 169.8 47.34 170.85 50.51 179.26 51.88 181.48 49.14 199.29 46.94 203.76 53.53"/><polygon class="cls-12" points="263.9 88.21 248.82 83.18 260.01 102.28 263.9 88.21"/><polygon class="cls-12" points="253.18 78.51 257.81 65.06 266.26 68.08 253.18 78.51"/><polygon class="cls-13" points="179.26 51.88 175.85 65.06 178.3 69.36 176.03 76.32 163.76 74.34 164.21 67.17 168.76 63.41 170.85 50.51 179.26 51.88"/><polygon class="cls-12" points="163.76 74.34 169.3 81.39 176.03 76.32 163.76 74.34"/><polygon class="cls-14" points="199.47 1.65 215.28 0.27 230.19 4.53 232.87 7.96 245.51 8.9 266.26 14.82 260.81 24.98 250.18 26.35 220.04 13.31 220.74 10.43 210.81 9.32 201.58 5.33 199.47 1.65"/><polygon class="cls-15" points="266.26 14.82 276.9 41.18 272.17 43.92 274.66 51.04 271.11 63.96 260.81 53.53 254.63 54.86 247.73 71.92 241.18 70.83 235.46 52.68 245.51 47.47 245.48 34.63 250.18 26.35 266.26 14.82"/><polygon class="cls-16" points="167.48 7.96 192.92 0 215.28 0.27 201.58 5.33 167.48 7.96"/><polygon class="cls-14" points="245.48 34.63 271.11 63.96 235.46 52.68 245.48 34.63"/><polygon class="cls-14" points="250.18 26.35 276.9 41.18 274.65 51.04 250.18 26.35"/><polygon class="cls-16" points="210.81 9.32 230.19 4.53 245.51 8.9 220.04 13.31 210.81 9.32"/><polygon class="cls-17" points="203.76 53.53 203.76 50.51 199.66 44.38 182.12 46.76 181.48 49.14 198.75 48.56 203.76 53.53"/><polygon class="cls-17" points="169.8 47.34 170.17 44.75 158.44 41.04 152.58 43.37 152.58 45.3 158.71 44.47 169.8 47.34"/><ellipse class="cls-18" cx="193.66" cy="55.65" rx="3.18" ry="3.51" transform="translate(115.39 241.32) rotate(-83.18)"/><ellipse class="cls-18" cx="163.02" cy="50.32" rx="3.18" ry="3.51" transform="translate(93.69 206.21) rotate(-83.18)"/><polygon class="cls-11" points="175.96 47.4 178.17 44.19 178.68 36.78 174.05 43.37 175.96 47.4"/><polygon class="cls-12" points="152.96 87.73 188.61 94.34 187.93 97.61 151.9 90.63 152.96 87.73"/><polygon class="cls-11" points="181.11 79.82 189.97 106.65 194.08 92.86 181.11 79.82"/><polygon class="cls-11" points="160.47 76.61 149.43 98.61 148.61 84.3 160.47 76.61"/><polygon class="cls-11" points="171.51 123.47 190.2 114.11 184.72 126.93 171.51 123.47"/><polygon class="cls-11" points="157.35 121.13 147.12 107.15 147.12 120.54 157.35 121.13"/><polygon class="cls-12" points="134.77 117.4 225.1 132.32 188.2 145.59 134.77 117.4"/><polygon class="cls-8" points="252.23 129.15 256.25 137.52 231.17 183.26 219.41 157.44 252.23 129.15"/><polygon class="cls-6" points="192.57 180.72 192.72 194.3 182.62 258.25 177.55 269.74 177.27 260.35 187.66 193.38 192.57 180.72"/><polygon class="cls-11" points="150.29 211.11 128.92 143.76 125.31 138.5 106.44 145.18 104.7 154.26 101.37 196 128.76 213.46 150.29 211.11"/><polygon class="cls-12" points="126.41 136.1 112.57 108.78 95.88 131.94 105.5 144.15 114.88 142 126.41 136.1"/><polygon class="cls-11" points="95.88 131.94 89.33 120.11 93.67 111.09 111.87 104.5 115.25 116.13 111.39 123.77 95.88 131.94"/><polygon class="cls-11" points="111.87 101.15 105.77 94.48 98.98 99.51 99.68 106.77 111.87 101.15"/><polygon class="cls-14" points="120.67 97.67 111.87 101.15 100.5 107.3 93.99 108.22 74.67 115.87 78.36 124.58 97.33 116.85 102.93 112.25 109.87 111.74 123.81 106.06 120.67 97.67"/><polygon class="cls-16" points="97.33 116.85 93.99 108.22 111.87 101.15 109.87 111.74 97.33 116.85"/><polygon class="cls-10" points="126 116.13 111.87 101.15 107.89 107.94 112.24 116.29 111.39 123.77 119.26 125.19 126 116.13"/><polygon class="cls-11" points="126 116.13 111.39 123.77 116.5 140.85 126.41 136.1 126 116.13"/><polygon class="cls-19" points="74.67 115.87 66.33 102.48 76.66 86.13 79.67 100.62 74.67 115.87"/><polygon class="cls-19" points="76.66 86.13 71.83 83.49 68.83 69.65 80.83 80.34 76.66 86.13"/><polygon class="cls-12" points="101.37 196 150.29 211.11 128.17 219.17 101.37 196"/><rect class="cls-6" x="101.47" y="375.82" width="61.51" height="8.51"/><polygon class="cls-7" points="165.9 295.25 135.81 309.51 140.66 265.04 165.9 295.25"/><polygon class="cls-4" points="105.5 144.15 126.41 136.1 128.92 143.76 104.7 154.26 105.5 144.15"/><polygon class="cls-20" points="185.64 264.6 199.85 275.71 220.89 266.44 209.33 253.12 185.64 264.6"/><polygon class="cls-21" points="235.5 247.02 259.72 257.7 244.83 280.25 238.16 275.57 220.89 266.44 204.35 250.9 235.5 247.02"/><polygon class="cls-21" points="205.48 236.19 163.85 250.43 153.22 254.57 140.41 262.21 81.77 285.38 85.35 291.07 97.94 288.94 152.45 279.59 156.14 275.71 161.84 275.9 196.59 262.28 219.79 255.59 235.5 247.02 216.09 238.35 205.48 236.19"/><polygon class="cls-20" points="206.19 233.93 163.85 250.43 167.03 258.08 216.09 238.35 206.19 233.93"/><polygon class="cls-20" points="149.56 268.38 97.94 288.94 102.22 299.29 152.45 279.59 149.56 268.38"/><polygon class="cls-21" points="136.85 263.75 133.73 264.98 141.59 283.85 144.51 282.7 136.85 263.75"/><polygon class="cls-21" points="126.5 267.79 123.36 269.01 131.23 287.91 134.16 286.76 126.5 267.79"/><polygon class="cls-21" points="116.14 271.83 113 273.05 120.88 291.97 123.81 290.82 116.14 271.83"/><polygon class="cls-21" points="105.51 275.97 102.37 277.19 110.25 296.14 113.19 294.99 105.51 275.97"/><polygon class="cls-22" points="82.95 294.9 149.56 268.38 143.32 258.43 78.36 283.74 82.95 294.9"/><polygon class="cls-21" points="153.22 254.57 143.32 258.43 152.45 279.59 161.84 275.9 153.22 254.57"/><polygon class="cls-11" points="258.75 213.12 244.47 233.93 237.31 249.37 243.38 257.22 253.63 259.51 269.18 253.12 288.5 243 305.38 225.54 297.03 212.26 258.75 213.12"/><polygon class="cls-11" points="211.5 265.76 201.59 269.04 196.59 262.28 203.65 259.51 211.5 265.76"/><polygon class="cls-10" points="235.5 247.02 211.02 256.62 223.06 267.59 238.16 275.57 252.23 261.52 235.5 247.02"/><polygon class="cls-12" points="238.16 275.57 220.82 279.18 203.65 259.51 211.02 256.62 238.16 275.57"/><polygon class="cls-12" points="258.75 213.12 288.5 243 309.59 232.23 287.67 213.12 258.75 213.12"/><polygon class="cls-6" points="284.67 152.71 322 236.9 258.75 213.12 261.25 178.55 284.67 152.71"/><polygon class="cls-4" points="235.5 247.02 244.48 233.93 269.18 253.12 252.23 261.52 235.5 247.02"/><polygon class="cls-23" points="256.25 242.19 244.83 243 244.83 255.11 257 253.84 256.25 242.19"/><polygon class="cls-4" points="253.35 245.07 248.48 248.32 253.35 252.76 251.35 248.38 253.35 245.07"/></svg>