<svg id="Layer_1" data-name="Layer 1" xmlns="http://www.w3.org/2000/svg" xmlns:xlink="http://www.w3.org/1999/xlink" viewBox="0 0 400 400"><defs><style>.cls-1,.cls-21{fill:none;}.cls-2{fill:#95637c;}.cls-3{fill:#b2879c;}.cls-4{fill:#d0ae95;}.cls-5{fill:#eed2c1;}.cls-6{fill:#a8836c;}.cls-7{fill:#f6e5db;}.cls-19,.cls-8{fill:#2b2b2b;}.cls-9{fill:#474748;}.cls-10{fill:#4f5353;}.cls-11{fill:#594265;}.cls-12{fill:#795d88;}.cls-13{fill:#6f7273;}.cls-14{fill:#412b23;}.cls-15{fill:#33231b;}.cls-16{fill:#734d61;}.cls-17,.cls-25{fill:#543042;}.cls-18{fill:#a587b8;}.cls-19{opacity:0.1;}.cls-20{fill:#c3c3c3;}.cls-21{stroke:#cecdcc;stroke-miterlimit:10;stroke-width:3px;}.cls-22{fill:#51362a;}.cls-23{fill:#8f759f;}.cls-24{clip-path:url(#clip-path);}.cls-25{opacity:0.41;}</style><clipPath id="clip-path"><path class="cls-1" d="M153.24,156.9c-2.2,33.5-29.15,56.17-57.13,51.16C71,203.58,54,178,55.77,150.49S77.83,99.86,103.29,98.7C131.69,97.4,155.44,123.39,153.24,156.9Z"/></clipPath></defs><title>analysts_ENTJ_famous_fictional_Dr_Strange</title><polygon class="cls-2" points="82.57 291.07 179.68 347.06 254.97 353.83 352.12 291.07 258.05 135.89 162.97 127.31 124.61 239.28 82.57 291.07"/><polygon class="cls-3" points="229.37 68.54 282.1 117.03 234.1 145.83 229.37 68.54"/><polygon class="cls-4" points="230.83 49.05 254.46 64.11 240.13 137.93 224.41 165.21 190.46 166.53 188.59 142 230.83 49.05"/><polygon class="cls-5" points="161.69 73.69 166.77 110.91 172.29 122.19 188.91 139.59 212.01 135.5 230.83 112 232.38 81.98 231.76 35.48 217.59 35.48 184.2 40.67 160.56 38.48 161.69 73.69"/><polygon class="cls-6" points="184.75 100.72 204.43 100.72 194.3 106.76 184.75 100.72"/><polygon class="cls-4" points="204.43 100.72 210.45 78.01 227.76 74.5 221 68.54 199.25 77.16 198.16 93.67 204.43 100.72"/><polygon class="cls-4" points="184.75 100.72 189.34 93.67 188.26 78.01 168.69 66.17 163.66 70.36 176.96 75.63 184.75 100.72"/><polygon class="cls-7" points="184.75 100.72 189.34 93.67 188.26 78.01 199.25 77.16 198.16 93.67 204.43 100.72 184.75 100.72"/><polygon class="cls-6" points="188.59 142 208.86 157.39 233.64 132.97 242.91 123.86 221.01 132.95 188.59 142"/><polygon class="cls-8" points="136.48 354.56 166.65 249.87 237.46 244.39 159.98 362.7 136.48 354.56"/><polygon class="cls-9" points="234.65 302.2 221.26 265.82 258.92 249.87 271.73 293.02 234.65 302.2"/><polygon class="cls-10" points="199.25 77.16 200.09 72.93 219.72 66.17 227.76 74.5 220 70.36 199.25 77.16"/><polygon class="cls-10" points="188.26 78.01 187.93 73.54 168.47 64.11 163.66 70.36 169.17 68.22 188.26 78.01"/><circle class="cls-8" cx="177.29" cy="76.74" r="3.05"/><circle class="cls-8" cx="210.45" cy="78.01" r="3.05"/><polygon class="cls-11" points="188.34 316.21 205.17 316.21 199.21 247.35 173.18 248.66 188.34 316.21"/><polygon class="cls-11" points="205.17 316.21 234.65 319.84 227.51 245.28 193.71 248.66 205.17 316.21"/><path class="cls-10" d="M223.72,122l-2.55-8.7-21.92-9.48-4.95,3-4-2.52-18,10.05,3.05,8.62-3.05-.72,7.6,10.15,8.7,9.66h16.82l5-3.23L221,133,230.83,112Zm-9.61,3.42-6.71,9.73-12.1-2.48-5.55,2.84-5.37-5.74-4-11.49,9.12-5.27,5.13,1.62L202,113l12.08,2.64Z"/><polygon class="cls-6" points="184.2 116.04 190.46 124.25 201.42 124.25 209.78 114.69 196.99 118.8 184.2 116.04"/><polygon class="cls-4" points="184.2 116.04 187.15 114.34 195.75 116.04 207.4 114.34 209.78 114.69 196.99 118.8 184.2 116.04"/><polygon class="cls-9" points="190.46 124.25 195.3 132.66 201.42 124.25 190.46 124.25"/><polygon class="cls-5" points="254.97 71.06 241.14 68.54 238.89 93.35 249.73 95.39 254.97 71.06"/><polygon class="cls-6" points="244.2 74.96 248.87 76.74 245.93 83.99 244.2 76.74 244.2 74.96"/><polygon class="cls-12" points="132.85 331.36 179.68 347.06 199.21 247.35 166.65 249.87 132.85 331.36"/><polygon class="cls-6" points="238.89 93.35 249.73 95.39 246.36 105.82 238.89 93.35"/><polygon class="cls-8" points="217.59 35.48 241.14 68.54 238.89 35.48 217.59 35.48"/><polygon class="cls-10" points="217.59 35.48 228.38 8.21 256.21 35.48 238.89 35.48 217.59 35.48"/><polygon class="cls-9" points="238.89 35.48 241.14 68.54 254.97 71.06 261.18 46.47 256.21 35.48 238.89 35.48"/><polygon class="cls-8" points="217.59 35.48 192.3 19.41 174.97 57.85 217.59 35.48"/><polygon class="cls-9" points="217.59 35.48 192.3 19.41 170.77 7.17 196.99 0.71 212.31 0.5 228.38 8.21 217.59 35.48"/><polygon class="cls-10" points="192.3 19.41 174.97 57.85 166.74 47.68 164.97 49.64 162.97 51.85 151.06 41.16 170.77 7.17 192.3 19.41"/><polygon class="cls-13" points="162.97 51.85 162.82 81.96 150.42 56.46 151.06 41.16 162.97 51.85"/><polygon class="cls-13" points="239.48 86.81 233.64 84.63 234.75 59.57 261.18 46.47 254.97 71.06 241.14 68.54 239.48 86.81"/><polygon class="cls-11" points="168.77 218.49 167.96 195.66 162.97 163.67 188.59 142 208.86 157.39 254.46 112.34 253.46 207.26 168.77 218.49"/><polygon class="cls-12" points="255.74 177.08 269.54 217.39 298.04 205.3 278.85 138.54 256.21 142.71 255.74 177.08"/><polygon class="cls-14" points="184.2 144.4 188.59 142 203.7 175.4 201.56 176.08 184.2 144.4"/><polygon class="cls-5" points="119.87 160.88 118.27 154.48 120.67 132.36 115.64 129.47 101.76 151.96 103.82 172.19 119.87 160.88"/><polygon class="cls-11" points="82.71 151.51 98.55 173.76 119.87 160.88 117.15 149.27 115.78 142.86 108.5 134.11 82.71 151.51"/><polygon class="cls-12" points="119.44 145.73 119.87 160.88 103.82 172.19 101.76 151.96 110.99 137 119.44 145.73"/><polygon class="cls-12" points="82.71 151.51 78.33 142.71 102.73 126.5 108.5 134.11 82.71 151.51"/><polygon class="cls-5" points="78.33 142.71 73.51 130.99 96.3 116.58 102.73 126.5 78.33 142.71"/><polygon class="cls-15" points="253.46 207.26 254.74 211.69 256.77 221.84 263.54 242.38 166.65 249.87 168.77 218.49 253.46 207.26"/><polygon class="cls-16" points="202.8 181.18 200.6 176.39 201.56 176.08 204.64 175.09 206.17 180.35 202.8 181.18"/><polygon class="cls-16" points="211.71 180.67 213.31 175.64 217.4 177.72 215.04 181.61 211.71 180.67"/><ellipse class="cls-2" cx="208.33" cy="189.04" rx="11.69" ry="9.83"/><circle class="cls-17" cx="208.86" cy="188.89" r="7.28"/><polygon class="cls-16" points="202.29 188.24 208.69 183.53 215.75 189.34 208.69 193.93 202.29 188.73 202.29 188.24"/><circle class="cls-18" cx="208.68" cy="188.75" r="3.45"/><polygon class="cls-2" points="202.8 184.28 213 195.66 213.82 194.56 203.19 182.63 202.8 184.28"/><polygon class="cls-2" points="207.82 181.02 201.58 193.93 202.29 194.6 210.06 180.67 207.82 181.02"/><polygon class="cls-2" points="200.76 187.97 210.53 197.07 209.55 197.39 200.21 189.81 200.76 187.97"/><polygon class="cls-2" points="203.94 195.46 216.81 186.91 217.24 189.15 205.23 196.01 203.94 195.46"/><polygon class="cls-2" points="198.16 177.08 163.66 164.26 147.24 132.39 152.92 127.31 194.94 160.31 198.16 177.08"/><polygon class="cls-14" points="167.62 230.18 254.74 211.69 256.77 221.84 260.53 233.24 166.96 245.28 167.62 230.18"/><polygon class="cls-19" points="82.71 372.19 208.69 357.71 339.68 393.07 206.17 400.5 82.71 372.19"/><polygon class="cls-8" points="233.44 299.95 231.43 296.2 242.87 290.12 267.16 287.7 271.73 293.02 258.92 299.54 233.44 299.95"/><polygon class="cls-3" points="194.94 160.31 189.34 149.44 188.59 142 179.89 132.34 172.29 122.19 166.77 110.91 163.54 87.21 139.37 116.91 194.94 160.31"/><polygon class="cls-20" points="198.16 177.08 195.81 164.83 185.83 172.5 198.16 177.08"/><polygon class="cls-14" points="179.34 249.87 175.11 305.95 156.02 302.88 173.18 248.66 179.34 249.87"/><circle class="cls-21" cx="178.68" cy="243.89" r="8.91"/><polygon class="cls-14" points="214.11 176.05 233.64 132.97 242.91 123.86 216.14 177.08 214.11 176.05"/><polygon class="cls-22" points="179.34 242.38 254.74 211.69 256.77 221.84 193.71 248.66 179.34 242.38"/><polygon class="cls-22" points="175.11 240.2 167.62 230.18 164.97 242.86 172.69 245.28 175.11 240.2"/><polygon class="cls-9" points="245.28 319.84 234.65 302.2 233.44 299.95 258.92 299.54 271.73 293.02 275.86 306.79 251.08 312.37 245.28 319.84"/><polygon class="cls-8" points="267.2 379.69 267.2 368.57 245.28 319.84 251.08 312.37 275.86 306.79 295.46 372.19 274.21 372.19 267.2 379.69"/><polygon class="cls-22" points="173.18 248.66 179.34 249.87 173.18 286.12 156.02 282.73 173.18 248.66"/><polygon class="cls-2" points="220.03 177.08 224.41 159.21 234.1 145.83 272 122.89 283.66 136.84 249.73 161.33 220.03 177.08"/><polygon class="cls-3" points="282.1 117.03 224.41 159.21 249.73 110.57 282.1 117.03"/><polygon class="cls-20" points="220.03 177.08 223.16 164.32 230.84 171.35 220.03 177.08"/><polygon class="cls-12" points="263.54 242.38 319.63 295.35 297.15 321.45 199.21 247.35 263.54 242.38"/><rect class="cls-8" x="267.2" y="385.24" width="34.54" height="6.04"/><polygon class="cls-9" points="267.2 385.24 267.2 379.69 274.21 372.19 295.46 372.19 301.75 385.24 267.2 385.24"/><rect class="cls-8" x="113.53" y="370.85" width="48.35" height="5.22"/><polygon class="cls-9" points="113.53 370.85 113.53 365.19 136.48 354.56 159.98 362.7 161.88 370.85 113.53 370.85"/><polygon class="cls-23" points="143.97 175.09 143.97 208.26 98.55 173.76 119.87 160.88 143.97 175.09"/><polygon class="cls-12" points="143.97 177.68 139.88 138.1 147.24 132.39 163.66 164.26 167.96 195.66 143.97 208.26 143.97 177.68"/><g class="cls-24"><path class="cls-17" d="M134.05,197.87l-69-10.09,4.79-73,69.71-1ZM65.82,187l67.38,9.74,5.39-82-68.08.84Z"/><path class="cls-17" d="M96.07,208.66,55.34,150.47l48-52.37,50.56,58.84ZM56.26,150.53l39.89,56.86,56.36-50.54L103.25,99.37Z"/><path class="cls-17" d="M115.62,207.76,57.16,170,85,103l65.93,30.34ZM58.05,169.69l57.19,36.77,34.35-72.61L85.28,104.12Z"/><path class="cls-17" d="M87.8,116.25l2-10.72,15.38-8.32Zm2.7-10.14L89,113.75l12.33-13.5Z"/><path class="cls-17" d="M69.1,137.67l-4.54-8.43,6.13-16.39Zm-3.76-8.55,3.23,6,1.13-17.63Z"/><path class="cls-17" d="M67.85,167l-8.25-2.32-4.72-16.1Zm-7.75-3L66,165.57l-9.22-13.12Z"/><path class="cls-17" d="M77,195l-13.4-8.32,21.13,3Zm-9.67-6.94,9.62,6,5.47-3.78Z"/><path class="cls-17" d="M94.22,209.13l18.12-16.32L110.1,203.9ZM111,195.28,98,206.91l11.36-3.76Z"/><path class="cls-17" d="M133,199.91l1.82-28.5,6.2,10.35Zm2.55-25.49-1.3,20.31L140,181.8Z"/><path class="cls-17" d="M154.61,159.29l-18.46-21.45,11.3,2.12Zm-15.94-20,13.13,15.21-5.06-13.68Z"/><path class="cls-17" d="M115.49,115.08l8.93-7,17.18,6.66Zm9-6-6.38,5,18.48-.3Z"/><path class="cls-17" d="M89.6,115.39l-21.34.21,14.37-6.49Zm-17.45-.67,15.23-.18-4.93-4.45Z"/><path class="cls-17" d="M117.39,115.94,101.56,97.39l15.06,7.26ZM105,100.09l11.31,13.23-.54-8Z"/><path class="cls-17" d="M136.88,140.1l1.92-28.49,5.57,19Zm2.49-23.19L138,137.21l5.33-6.74Z"/><path class="cls-17" d="M133.8,173.56l21.11-18.86-9.62,18.24Zm17.7-14.48-15,13.36,8.2-.46Z"/><path class="cls-17" d="M118.28,201.57l-7.94-8.15,25.84,3.79Zm-5.47-6.85,5.68,5.81,12.61-3.09Z"/><path class="cls-17" d="M97.83,209.79,83.68,199.53l-.63-10.89ZM84.4,199.05l10,7.23L84,191.28Z"/><path class="cls-17" d="M65.64,189.77,61.7,172.72,67.31,165Zm-3.18-16.83,2.8,12.11,1.19-17.62Z"/><path class="cls-17" d="M54.63,152.3,61.42,137l8.48-1.22Zm7.2-14.57-4.86,11,10.87-11.8Z"/></g><path class="cls-17" d="M106.91,224.84A57.93,57.93,0,0,1,95,223.6c-31.12-6.54-52.82-38.29-50.48-73.84s28-64.19,59.7-66.6c17-1.3,33.28,4.84,45.85,17.29,14.49,14.34,22,35.33,20.5,57.59S159,200.13,142.73,212.45A59,59,0,0,1,106.91,224.84ZM108.68,84c-1.45,0-2.9.05-4.36.16-31.21,2.38-56.48,30.61-58.78,65.67s19.05,66.36,49.68,72.8c16.39,3.44,33.05-.45,46.91-11,16-12.15,26-31.72,27.46-53.69s-5.92-42.67-20.2-56.81C138.11,90,123.79,84,108.68,84Z"/><path class="cls-17" d="M106,220.49a53.93,53.93,0,0,1-10.69-1.08c-14.35-2.89-27.13-11.69-36-24.78a72.39,72.39,0,0,1,5.75-87.42C75.55,95.38,89.37,88.33,104,87.34c15.86-1.07,31,4.76,42.73,16.43,13.5,13.48,20.46,33.15,19.1,54l-.5,0,.5,0c-1.37,20.81-10.84,39.39-26,51A55.38,55.38,0,0,1,106,220.49Zm1.68-132.28c-1.2,0-2.41,0-3.63.13-14.34,1-27.92,7.9-38.23,19.53a71.42,71.42,0,0,0-5.66,86.2c8.7,12.87,21.25,21.53,35.34,24.36,15.3,3.09,30.82-.65,43.71-10.51,14.92-11.42,24.25-29.74,25.6-50.26s-5.51-39.9-18.81-53.18C135.4,93.91,121.91,88.21,107.67,88.21Z"/><path class="cls-17" d="M103.91,209.26a44.84,44.84,0,0,1-7.89-.7c-24.7-4.42-42.6-29.94-40.75-58.1s22.94-51.12,48-52.26a45.5,45.5,0,0,1,34.89,14.11c11,11.24,16.7,27.51,15.58,44.62l-.5,0,.5,0c-1.12,17.11-8.88,32.5-21.28,42.21A46.18,46.18,0,0,1,103.91,209.26Zm1.43-110.11c-.67,0-1.35,0-2,0-24.57,1.12-45.23,23.67-47,51.33s15.72,52.71,39.93,57a44.58,44.58,0,0,0,35.64-9.22c12.18-9.54,19.8-24.66,20.9-41.48h0c1.11-16.83-4.47-32.82-15.29-43.86A44.7,44.7,0,0,0,105.34,99.15Z"/><path class="cls-25" d="M104,87.84c-30.26,2-53.91,29.77-56,62.14s17.7,63,47.43,68.94c33.87,6.83,67.2-20.18,69.9-61.23S138.48,85.51,104,87.84Zm-7.9,120.22C71,203.58,54,178,55.77,150.49S77.83,99.86,103.29,98.7c28.4-1.3,52.15,24.69,50,58.2S124.09,213.07,96.11,208.06Z"/><path class="cls-17" d="M101.18,188.74a27.37,27.37,0,0,1-3.82-.27c-16.3-2.23-28.12-18.49-26.9-37s15.06-33.1,31.51-33.18a29,29,0,0,1,21.32,9.42c6.72,7.13,10.17,17.29,9.48,27.85s-5.45,20.19-13,26.38A29.27,29.27,0,0,1,101.18,188.74Zm.93-69.46H102c-15.93.08-29.34,14.24-30.52,32.25s10.25,33.79,26,35.95a28,28,0,0,0,21.6-6.32c7.37-6,12-15.38,12.67-25.67s-2.68-20.17-9.21-27.11A27.94,27.94,0,0,0,102.11,119.28Z"/><polygon class="cls-23" points="269.54 217.39 298.04 205.3 275.38 257.86 257.65 245.06 269.54 217.39"/><polygon class="cls-11" points="257.65 245.06 249.03 264.7 268.77 274.37 275.38 257.86 257.65 245.06"/><polygon class="cls-4" points="249.03 264.7 243.31 271.95 260.53 279.03 268.77 274.37 249.03 264.7"/><polygon class="cls-5" points="257.65 245.06 243.31 248.66 240.14 264.22 243.31 271.95 250.73 271.95 249.03 264.7 257.65 245.06"/><polygon class="cls-23" points="249.03 264.7 241.02 258.51 243.31 248.66 257.65 245.06 249.03 264.7"/></svg>