<svg xmlns="http://www.w3.org/2000/svg" viewBox="0 0 400 400"><defs><style>.a{fill:#f4cab2;}.b{fill:#c18f7c;}.c,.i{fill:#2b2b2b;}.c{fill-opacity:0.1;}.d{fill:#594265;}.e{fill:#795d88;}.f{fill:#fbe3d4;}.g{fill:#543042;}.h{fill:#734d61;}.j{fill:#737474;}.k{fill:#ab913c;}.l{fill:#95637c;}.m{fill:#fff0e8;}.n{fill:#848585;}.o,.q{fill:#ebebea;}.o{opacity:0.28;}.p{fill:#c3c3c3;}.r{fill:#dcdcdb;}.s{fill:#a2a1a1;}.t{fill:#8e8e8e;}.u{fill:#cecdcc;}.v{fill:#474748;}.w{fill:#51362a;}.x{fill:#66493b;}.y{fill:#b28b71;}.z{fill:#82624e;}.aa{fill:#d1a0b8;}.ab{fill:#d0ab91;}.ac{fill:#b2879c;}.ad{fill:#d6bba9;}.ae{fill:#f3d65c;}.af{fill:#e1a940;}</style></defs><title>analysts_ENTJ_famous_fictional_Miranda_Presley_The_Devil_Wears_Prada</title><polygon class="a" points="197.13 307.42 206.01 351.73 209.84 363.74 220.66 356.24 232.84 309.29 197.13 307.42"/><polygon class="a" points="161.87 305.57 181.65 341.55 187.39 351.68 196.21 340.62 194.66 307.29 161.87 305.57"/><polygon class="b" points="194.44 294.45 161.87 305.57 163.99 309.44 195.1 316.74 194.44 294.45"/><polygon class="b" points="232.84 309.29 232.15 311.93 198.39 313.68 194.44 294.45 232.84 309.29"/><polygon class="c" points="191.38 372.93 115.94 382.24 201.22 400 275.03 383.99 191.38 372.93"/><polygon class="d" points="178.58 361.51 174.6 365.55 159.22 379.4 194.71 380.72 203.09 371.42 178.58 361.51"/><polygon class="e" points="216.07 355.94 220.66 356.24 225.8 371.66 215.03 388.13 212.17 374.23 216.07 355.94"/><polygon class="e" points="203.09 371.42 191.11 372.93 179.53 388.45 215.03 388.13 203.09 371.42"/><polygon class="d" points="188.24 342.96 196.21 340.62 206.01 351.73 198.5 368.92 191.11 372.93 186.34 360.91 188.24 342.96"/><polygon class="f" points="206.01 351.73 191.11 372.93 215.03 388.13 220.66 356.24 206.01 351.73"/><polygon class="f" points="181.65 341.55 174.6 365.55 191.11 372.93 196.21 340.62 181.65 341.55"/><polygon class="d" points="225.8 371.66 230.98 388.82 215.03 388.13 225.8 371.66"/><polygon class="g" points="166.23 257.25 169.26 220.32 221.17 222.07 229.49 269.31 166.23 257.25"/><polygon class="h" points="221.17 222.07 231.03 130.42 195.92 173.27 174.42 139.34 155.95 148.47 169.26 220.32 221.17 222.07"/><polygon class="i" points="125.83 154.91 118.43 204.02 126.26 228.36 152.92 200 161.88 152.03 125.83 154.91"/><polygon class="j" points="125.83 154.91 137.92 123.2 169.07 103.36 196.81 209.67 125.83 154.91"/><polygon class="i" points="266.38 155.23 283.64 202.26 249.98 202.26 237.08 189.74 266.38 155.23"/><polygon class="k" points="156.64 97.77 154.46 100.18 157.56 110.21 147.45 117.07 140.28 106.5 152 96.26 148.1 94.91 134.32 105.38 146.81 124.06 165.16 109.24 156.64 97.77"/><polygon class="j" points="266.38 155.23 254.27 122.72 231.29 111.94 211.93 177.09 220.53 209.67 266.38 155.23"/><polygon class="a" points="174.42 139.34 217.75 33.46 249.44 53.11 232.66 121.81 222.12 142.91 195.92 173.27 174.42 139.34"/><polygon class="f" points="174.42 139.34 198.82 139.34 220.5 119.23 223.14 58.91 223.71 23.07 149.93 26.45 140.92 59.2 154.69 120.09 174.42 139.34"/><polygon class="g" points="171.42 115.53 183.5 108.36 198.32 113.43 171.42 115.53"/><polygon class="l" points="171.42 115.53 181.24 121.2 188.73 120.2 198.32 113.43 171.42 115.53"/><polygon class="b" points="175.22 98.24 192.44 98.24 183.97 104.59 175.22 98.24"/><polygon class="m" points="175.22 98.24 180.02 76.47 185.66 76.47 192.44 98.24 175.22 98.24"/><polygon class="a" points="192.44 98.24 201.96 76.45 221.1 68.25 203.65 63.66 190.73 68.49 185.66 76.47 192.44 98.24"/><polygon class="a" points="175.22 98.24 180.02 76.47 169.63 66.28 155.09 66.28 160.69 75.18 175.22 98.24"/><polygon class="n" points="173.74 66.44 173.74 61.69 156.38 59.2 147.68 64.19 149.45 66.28 157.34 63.18 173.74 66.44"/><polygon class="n" points="190.33 66.16 190.33 61 209.93 55.85 215.17 58.91 217.75 64.06 209.45 59.63 190.33 66.16"/><polygon class="i" points="215.17 58.91 194.71 60.44 185.66 71.15 179.3 71.58 170.28 62.66 152.51 62.66 142.96 70.28 142.96 80.34 152.83 92.49 171.24 92.49 180.02 76.47 185.66 76.47 195.76 90.22 214.48 90.22 226.5 77.11 226.5 68.09 215.17 58.91"/><polygon class="o" points="151.69 89.49 160.64 65.78 165.16 65.44 155.77 89.49 151.69 89.49"/><polygon class="o" points="157.3 89.49 166.42 65.42 168.09 65.29 158.69 89.49 157.3 89.49"/><path class="k" d="M213.81,62l9.69,7.12V76L213.05,87.22H197.23L188,74.63l-.63-.81.66-.87,8.23-9.62L213.81,62m-44.66,3.64,8.18,8.18.48.42-.42.76-7.92,14.47H154L146,79V71.7l7.62-6h15.57m46-6.75-20.46,1.53-9.05,10.71-6.36.43-9-8.92H152.51L143,70.28V80.34l9.87,12.15h18.41l8.78-16h5.64l10.1,13.76h18.72l12-13.11v-9l-11.33-9.18Z"/><polygon class="o" points="197.23 87.22 207.19 62.51 211.7 62.17 201.32 87.22 197.23 87.22"/><polygon class="o" points="202.84 87.22 212.96 62.15 214.63 62.02 204.23 87.22 202.84 87.22"/><polygon class="b" points="174.42 139.34 198.82 139.34 214.63 139.34 198.33 164.73 174.42 139.34"/><polygon class="f" points="235.06 66.16 245.59 68.86 237.88 100.42 229.23 98.77 235.06 66.16"/><polygon class="p" points="225.53 32.25 242.73 32.25 261.15 51.58 231.03 54.72 225.53 32.25"/><polygon class="q" points="206.14 55.85 225.53 32.25 232.75 49.89 248.58 45.05 239.15 68.01 223.26 70.91 206.14 55.85"/><polygon class="r" points="206.14 55.85 181.04 10.99 155.33 19.2 184.2 0 225.53 32.25 206.14 55.85"/><polygon class="q" points="155.33 19.2 142.18 20.65 128.87 36.6 126.51 58.91 153.23 37.81 155.33 19.2"/><polygon class="q" points="155.33 19.2 155.33 7.33 170.51 0 184.2 0 155.33 19.2"/><polygon class="p" points="155.33 7.33 142.18 20.65 155.33 19.2 155.33 7.33"/><polygon class="s" points="155.33 19.2 163.24 34.67 192.94 32.25 181.04 10.99 155.33 19.2"/><polygon class="p" points="155.33 19.2 163.24 34.67 142.96 70.28 142.96 80.34 145.96 84.04 147.68 93.02 126.51 58.91 153.23 37.81 155.33 19.2"/><polygon class="t" points="223.26 70.91 237.88 100.42 262.2 73.56 261.15 51.58 248.58 45.05 239.15 68.01 223.26 70.91"/><polygon class="p" points="184.2 0 240.98 13.99 225.53 32.25 184.2 0"/><polygon class="s" points="225.53 32.25 240.98 13.99 253.45 31.04 242.73 32.25 225.53 32.25"/><polygon class="u" points="242.73 32.25 253.45 31.04 266.92 40.71 261.15 51.58 242.73 32.25"/><polygon class="t" points="266.92 40.71 262.2 73.56 261.15 51.58 266.92 40.71"/><polygon class="k" points="240.06 98.01 237.88 100.42 241.98 108.45 230.87 117.31 223.71 106.75 235.42 96.5 231.52 95.15 217.75 105.62 230.23 124.3 248.58 109.48 240.06 98.01"/><polygon class="v" points="237.44 222.07 249.98 202.26 283.64 202.26 257.59 249.45 237.44 222.07"/><polygon class="i" points="257.59 249.45 247.23 247.2 254.27 239.69 257.59 249.45"/><polygon class="i" points="161.74 233.9 146.32 298.91 135.68 285.7 152.32 224.73 161.74 233.9"/><polygon class="b" points="247.23 247.2 237.44 222.07 254.27 239.69 247.23 247.2"/><polygon class="f" points="247.23 247.2 222.23 237.53 221.17 222.07 237.44 222.07 247.23 247.2"/><polygon class="s" points="158.59 216.77 129.12 173.95 133.37 162.55 180.98 173.85 202.41 226.58 158.59 216.77"/><polygon class="r" points="161.77 212.54 156.7 180.37 178.4 176 199.68 224.41 194.78 240.49 161.77 212.54"/><polygon class="q" points="159.47 204.02 130.05 175.5 135.75 166.34 178.4 176 175.82 186.11 159.47 204.02"/><polygon class="p" points="154.11 232.38 129.12 173.95 175.82 186.11 194.78 240.49 154.11 232.38"/><polygon class="h" points="163.94 214.79 164.06 211.72 164.66 211.78 167.39 216.39 170.88 219.04 171.82 220.05 169.9 219.98 163.94 214.79"/><polygon class="g" points="157.18 221.7 156.37 218.44 158.32 215.84 159.09 216.25 160.04 217.35 160 223.08 157.18 221.7"/><polygon class="c" points="156.03 231.04 169.71 232.65 179.08 231.16 177.21 230.08 175.25 229.78 169.26 229.32 156.03 231.04"/><polygon class="w" points="156.11 208.27 155.47 207.93 154.96 207.36 154.69 205.94 154.99 205.51 155.78 205.93 157.67 207.65 157.47 208.04 156.11 208.27"/><polygon class="w" points="160.38 204.64 159.72 206.79 160.34 207.54 161.54 208.44 163.47 208.5 163.63 208.07 162.44 205.78 161.31 204.59 160.38 204.64"/><polygon class="x" points="164.8 209.44 163.46 208.57 161.31 204.59 162.19 204.7 166.24 208.24 166.93 209.58 166.47 209.8 164.8 209.44"/><polygon class="x" points="153.48 205.57 152.43 206.06 151.87 207.54 152.31 208.41 153.22 208.65 155.13 208.44 155.47 207.93 154.99 205.51 154.39 205.23 153.33 205.21 153.48 205.57"/><polygon class="l" points="169.28 230.22 171.18 232.03 170.68 230.25 169.25 228.43 169.28 230.22"/><polygon class="y" points="152.31 208.41 154.21 211.61 154.76 211.29 154.84 208.33 154.46 208.08 152.31 208.41"/><polygon class="z" points="154.21 211.61 155.06 211.98 158.45 215.41 158.73 216.26 158.04 216.23 156.38 214.89 155.69 214.1 154.21 211.61"/><polygon class="l" points="161.28 199.18 160.91 198.05 162.66 198.28 163.92 198.64 164.23 199.14 165.37 203.5 165.01 203.49 161.28 199.18"/><polygon class="g" points="167.2 211.84 167.69 212.56 173.04 209.85 171.5 209.27 168.27 209.22 166.93 209.58 166.69 210.05 167.2 211.84"/><polygon class="y" points="164.06 211.72 164.48 212.46 166.68 216.64 167.41 216.4 168.24 215.33 168.3 214.87 166.93 209.58 164.85 208.94 164.19 208.99 164.06 211.72"/><polygon class="g" points="183.65 230.43 179.08 231.16 177.91 230.05 176.44 226.3 176.85 225.89 183.65 230.43"/><polygon class="g" points="169.84 219.43 171.77 220.03 172.06 221 171.24 227.8 170.79 228.18 170.38 227.56 169.39 219.53 169.84 219.43"/><polygon class="h" points="179.08 231.16 170.79 228.18 171.77 220.03 173.2 221.4 174.8 221.03 179.08 231.16"/><polygon class="h" points="161.23 228.07 162.52 229.27 163.17 229.39 169.25 228.43 169.41 227.99 169.07 227.36 163.46 224.3 162.97 224.33 161.23 228.07"/><polygon class="g" points="163.07 224.12 163.36 224.53 168.7 227.39 168.92 227.07 165.3 220.05 164.82 220.38 163.07 224.12"/><polygon class="h" points="155 220.07 159.53 227.95 160.04 227.82 160.22 222.86 159.61 222.53 157.51 221.41 156.33 220.42 155 220.07"/><polygon class="aa" points="174.95 231.81 171.18 232.03 171.21 230.48 172.4 229.92 174.95 231.81"/><polygon class="ab" points="169.25 228.43 171.18 232.03 172.4 229.92 170.79 228.18 170.44 227.94 169.41 227.99 169.25 228.43"/><polygon class="y" points="170.31 223.71 170.69 227.25 170.38 227.56 169.2 227.6 168.7 227.39 166.92 223.99 167.11 223.56 169.77 223.38 170.31 223.71"/><polygon class="aa" points="168.7 227.39 170.69 227.25 170.79 228.18 169.25 228.43 168.7 227.39"/><polygon class="ab" points="166.92 223.99 170.31 223.71 169.84 219.43 165.29 215.41 164.8 216.31 164.83 219.71 166.92 223.99"/><polygon class="aa" points="158.7 231.36 162.02 231.55 160.72 230.13 159.51 229.78 158.7 231.36"/><polygon class="aa" points="162.6 230.46 163.55 231.44 163.17 229.39 162.52 229.27 162.6 230.46"/><polygon class="l" points="162.02 231.55 161.09 229.5 161.65 228.11 163.17 229.39 162.02 231.55"/><polygon class="y" points="162.02 227.32 163.36 224.53 163.13 223.99 160.18 222.51 159.61 222.53 159.54 226.93 160.57 227.45 162.02 227.32"/><polygon class="ab" points="159.51 229.78 162.02 231.55 161.65 228.11 160.55 227.71 159.53 227.95 159.51 229.78"/><polygon class="aa" points="159.53 227.95 161.65 228.11 162.02 227.32 159.54 226.93 159.53 227.95"/><polygon class="ab" points="159.61 222.53 163.36 224.53 165.25 220.57 165.08 220.32 160.41 217.89 159.67 218.15 159.61 222.53"/><polygon class="l" points="173.44 222.49 171.6 221.4 171.77 220.03 173.2 221.4 173.44 222.49"/><polygon class="ac" points="174.8 221.03 173.44 222.49 171.77 220.03 171.27 218.57 171.97 218.34 174.8 221.03"/><polygon class="ab" points="171.53 218.94 169.66 216.24 168.3 214.87 166.68 216.64 171.77 220.03 171.53 218.94"/><polygon class="l" points="168.3 214.87 171.77 220.03 171.97 218.34 168.3 214.87"/><polygon class="l" points="156.82 218.62 158.37 220.31 157.81 221.57 156.79 219.88 156.82 218.62"/><polygon class="ac" points="155.37 217.04 155 220.07 157.81 221.57 157.05 218.87 155.98 217.66 155.37 217.04"/><polygon class="y" points="155.69 214.1 158.73 216.26 157.05 218.87 156.3 217.71 155.83 215.57 155.69 214.1"/><polygon class="l" points="155.69 214.1 157.05 218.87 155.37 217.04 155.69 214.1"/><polygon class="ab" points="163.66 209.62 160.44 212.01 159.36 212.4 158.27 211.8 155.23 209.41 155.13 208.29 155.47 207.93 157.13 207.67 160.34 207.54 163.47 208.5 163.87 208.95 163.66 209.62"/><polygon class="y" points="158.99 210.94 158.56 211.75 158.73 212.19 159.36 212.4 158.99 210.94"/><polygon class="y" points="159.69 217.25 155.86 213.31 156.18 212.97 157.8 213.06 159.36 212.4 161.05 213.31 163.9 213.57 164.38 213.99 164.33 214.57 164.19 215.15 160.42 217.22 159.69 217.25"/><polygon class="z" points="160.22 215.04 161.01 215.79 160.84 215.29 160.22 215.04"/><polygon class="l" points="155.86 213.31 157.98 213.48 159.36 212.4 160.98 213.72 164.38 213.99 164.51 212.51 163.67 212.23 160.08 211.99 159.36 212.4 158.27 211.8 154.76 211.52 154.21 211.61 155.86 213.31"/><polygon class="aa" points="155.59 209.33 155.47 207.93 154.46 208.08 154.21 211.61 159.37 212.4 164.51 212.51 164.85 208.94 163.47 208.5 163.32 209.34 159.37 212.4 155.59 209.33"/><polygon class="l" points="168.58 206.16 166.93 209.58 173.04 209.85 172.57 208.72 170.2 206.85 168.58 206.16"/><polygon class="ac" points="166.64 202.93 165.37 203.5 168.58 206.16 169.45 205.78 170.34 204.09 170 203.18 168.89 202.77 166.64 202.93"/><polygon class="h" points="173.04 209.85 174.96 207.3 173.52 206.48 169.45 205.78 168.58 206.16 173.04 209.85"/><polygon class="l" points="174.96 207.3 174.46 206.3 171.22 203.37 170 203.18 168.58 206.16 174.96 207.3"/><polygon class="l" points="166.24 200.04 165.37 203.5 170 203.18 169.2 201.88 167.58 200.53 166.24 200.04"/><polygon class="ac" points="168.15 199.51 166.24 200.04 170 203.18 171.22 203.37 173.68 201.65 174.03 200.56 172.41 199.71 168.15 199.51"/><polygon class="h" points="174.96 207.3 170 203.18 174.03 200.56 174.96 207.3"/><polygon class="l" points="170.75 197.76 172.97 198.94 174.03 200.56 166.24 200.04 170.75 197.76"/><polygon class="ac" points="177.06 198.71 170.75 197.76 174.03 200.56 177.06 198.71"/><polygon class="ac" points="163.5 196.43 160.91 198.05 164.22 199.1 163.5 196.43"/><polygon class="aa" points="159.67 218.15 160.1 217.68 164.59 215.65 165.29 215.41 165.25 220.57 159.67 218.15"/><polygon class="l" points="164.33 214.57 159.69 217.25 159.67 218.15 165.29 215.41 164.33 214.57"/><polygon class="w" points="149 202.61 148.43 203.6 148.28 205.28 152.31 208.41 153.48 205.57 152.31 204.76 149.94 202.85 149 202.61"/><polygon class="x" points="144.27 197.19 148.28 205.28 152.31 208.41 149 202.61 149.11 202.12 145.9 196.49 145.28 196.1 144.41 196.15 144.27 197.19"/><polygon class="z" points="155.03 205.14 154.99 205.51 158.36 208.82 159.21 207.59 159.63 204.91 155.03 205.14"/><polygon class="y" points="155.81 205.47 159 205.33 158.36 208.82 160.34 207.54 161.09 205.23 160.82 204.18 156.66 199.91 155.67 199.81 156.87 202.06 155.38 204.44 155.81 205.47"/><polygon class="z" points="156.85 200.83 157.93 201.13 160.8 203.51 161.31 204.59 161.09 205.23 156.85 200.83"/><polygon class="ab" points="153.48 205.57 155.81 205.47 157.59 202.33 156.29 199.72 149.7 193.96 148.87 193.9 148.02 193.81 145.15 195.56 145.28 196.1 149 202.61 153.48 205.57"/><polygon class="y" points="145.33 196.13 148.87 193.9 148.17 193.3 147.57 193.28 145.15 195.56 145.33 196.13"/><polygon class="z" points="144.27 197.19 148.17 193.3 148.09 192.57 147.09 192.37 142.72 194.04 144.27 197.19"/><polygon class="y" points="147.43 198.87 147.88 198.45 149.81 198.86 150.78 199.64 151.25 200.5 151.26 201.43 149.13 199.7 147.43 198.87"/><polygon class="w" points="147.43 198.87 147.74 198.25 149.83 198.87 147.93 198.57 147.43 198.87"/><polygon class="y" points="151.41 199.56 151.72 200.49 152.72 201.41 153.02 199.43 154.01 198.38 152.87 198.09 151.55 198.79 151.41 199.56"/><path class="i" d="M152.79,199.14a.81.81,0,0,1,.67.37.26.26,0,0,1-.25.41.76.76,0,0,1-.66-.37C152.43,199.33,152.54,199.15,152.79,199.14Z"/><polygon class="w" points="152.72 197.89 154.01 198.38 152.9 198.22 151.55 198.79 152.72 197.89"/><path class="i" d="M148.92,199.31a.77.77,0,0,1,.66.38.26.26,0,0,1-.24.41.8.8,0,0,1-.67-.38A.26.26,0,0,1,148.92,199.31Z"/><polygon class="z" points="152.23 201.88 151.26 201.43 151.76 201.15 152.72 201.41 152.23 201.88"/><polygon class="ad" points="150.78 199.64 151.41 199.56 152.72 201.41 151.26 201.43 150.78 199.64"/><polygon class="h" points="152.7 203.69 151.59 202.97 151.88 202.82 153.85 202.77 154.38 202.82 153.91 203.61 152.7 203.69"/><polygon class="z" points="157.72 194.16 165.37 203.5 162.17 201.18 150.8 191.99 150.37 191.12 157.72 194.16"/><polygon class="w" points="148.77 192.7 147.09 192.37 166.93 209.58 165.37 203.5 162.17 201.18 148.77 192.7"/><polygon class="x" points="147.09 192.37 165.37 203.5 150.37 191.12 147.09 192.37"/><polygon class="g" points="151.59 202.97 151.89 202.35 152.48 202.46 153.01 202.29 154.38 202.82 151.59 202.97"/><polygon class="a" points="184.61 212.66 190.12 205.03 205.27 215.53 203.11 232.4 194.2 235.61 184.61 212.66"/><polygon class="f" points="174.92 214.8 190.12 205.03 194.2 235.61 176.78 230.98 174.92 214.8"/><polygon class="v" points="174.92 214.8 140.72 201.06 126.26 228.36 176.78 230.98 174.92 214.8"/><polygon class="h" points="232.84 309.29 245.95 272.45 157.78 255.65 156.48 294.45 161.87 305.57 232.84 309.29"/><polygon class="v" points="220.53 209.67 221.17 222.07 237.44 222.07 242.06 194.57 237.08 189.74 220.53 209.67"/><polygon class="v" points="222.23 237.53 226.63 298.91 251.73 298.91 247.23 247.2 222.23 237.53"/><polygon class="i" points="247.23 247.2 251.73 298.91 260.58 286.67 247.23 247.2"/><polygon class="v" points="179.45 237.43 167.32 298.91 146.32 298.91 161.74 233.9 179.45 237.43"/><path class="g" d="M143,188.1,139,183.28l.93-1.07-1.71-2.75-5.06-1.36,4.19,8.34,1.6.41-1.28-3,3.43,3.8Zm-6.09-5.33-1.33-2.66,2.86,1.39Z"/><polygon class="g" points="140.79 182.19 143.91 188.13 146.87 189.1 146.89 188.22 147.59 189.28 148.79 189.56 145.78 183.55 144.02 183.28 146.04 187.22 145.18 187.68 142.35 182.44 140.79 182.19"/><polygon class="g" points="147.3 184 150.21 190.03 151.72 190.41 149.83 186.41 150.44 186.04 151.56 186.98 153.62 190.91 155.38 191.43 152.31 186.1 149.89 184.44 149.12 185.06 148.46 184.35 147.3 184"/><polygon class="g" points="152.75 185.53 157.46 192.03 158.9 192.45 157.81 188.54 160.73 193.04 162.29 193.42 160.7 187.66 159.21 187.29 160.85 191.85 157.59 186.85 156.36 186.44 157.49 190.7 154.45 186.16 152.75 185.53"/><path class="g" d="M166.82,190.52l-2.61-2.16-2.32-.06.94,1.33,1.5.19,1.36,1.13-1.38-.51-1.32.47,1.23,2.57,2.28,1.2.91-.48.23.79,1.51.25Zm-1.93,2.25-.38-1,1.32,0,.7,2.05Z"/><polygon class="g" points="166.66 189.4 168.52 189.8 171.61 194.32 170.48 190.44 172.32 190.9 173.41 197.37 171.68 198.49 170.58 196.82 172.19 196.58 166.66 189.4"/><polygon class="ae" points="137.04 172.47 145.15 174.64 145.15 172.95 136.38 170.77 137.04 172.47"/><polygon class="ae" points="156.85 175.44 156.47 173.95 165.76 176.25 165.52 177.62 156.85 175.44"/><polygon class="af" points="179.79 187.72 184.56 200.95 185.85 200.18 181 186.96 179.79 187.72"/><polygon class="ac" points="155.95 178.75 147.43 176.57 147.3 175.12 156.41 177.62 155.95 178.75"/><polygon class="ac" points="162.42 177.7 170.31 179.63 170.63 178.67 162.42 176.57 162.42 177.7"/><polygon class="s" points="239.15 68.01 262.2 73.56 261.15 51.58 248.58 45.05 239.15 68.01"/><polyline class="a" points="178.4 33.46 192.94 32.25 206.14 55.85"/></svg>