<svg id="Layer_1" data-name="Layer 1" xmlns="http://www.w3.org/2000/svg" viewBox="0 0 400 400"><defs><style>.cls-1{fill:#2c2b2b;opacity:0.1;}.cls-1,.cls-10,.cls-11,.cls-12,.cls-13,.cls-14,.cls-15,.cls-16,.cls-17,.cls-18,.cls-19,.cls-2,.cls-20,.cls-21,.cls-22,.cls-23,.cls-3,.cls-4,.cls-5,.cls-6,.cls-7,.cls-8,.cls-9{fill-rule:evenodd;}.cls-2{fill:#33231b;}.cls-24,.cls-3{fill:#734d61;}.cls-4{fill:#543042;}.cls-5{fill:#fbe3d4;}.cls-6{fill:#f4cab2;}.cls-7{fill:#c18f7c;}.cls-8{fill:#444648;}.cls-9{fill:#3a3c3e;}.cls-10{fill:#313335;}.cls-11{fill:#95637c;}.cls-12{fill:#eaeceb;}.cls-13{fill:#c9c9c8;}.cls-14{fill:#b2879c;}.cls-15{fill:#a587b8;}.cls-16{fill:#8f759f;}.cls-17{fill:#593e35;}.cls-18{fill:#412b23;}.cls-19{fill:#2c2825;}.cls-20{fill:#fff0e8;}.cls-21{fill:#030303;}.cls-22{fill:#795d88;}.cls-23{fill:#d1a0b8;}</style></defs><title>analysts_ENTJ_famous_fictional_jacqueline_a_sharp_from_house_of_cards</title><polygon class="cls-1" points="143.45 392.19 212.5 400 273.7 392.45 213.21 384.9 143.45 392.19"/><polygon class="cls-2" points="201.13 386.55 213.33 387.69 219.63 376.94 206.71 371.87 201.13 386.55"/><polygon class="cls-3" points="209.19 373.01 213.64 378.32 210.97 391.79 223 393.38 238.63 392.25 229.36 369.23 220.46 362.36 209.19 373.01"/><polygon class="cls-4" points="210.97 391.79 210.23 395.55 240.21 396.17 238.63 392.25 210.97 391.79"/><polygon class="cls-3" points="203.2 362.15 202.76 367.13 177.78 388.17 191.57 391.84 199.82 391.06 214.43 374.1 215.4 368.36 203.2 362.15"/><polygon class="cls-4" points="177.78 388.17 177.95 391.7 198.65 393.79 213.74 378.23 214.78 372.04 198.18 390.16 177.78 388.17"/><polygon class="cls-5" points="241.66 328.66 229.36 369.23 215.4 368.36 195.34 309.85 241.66 328.66"/><path class="cls-6" d="M233.22,318.91l8.44,9.75-28.18,12.53s-9-18.2-8.79-17.32S233.22,318.91,233.22,318.91Z"/><polygon class="cls-6" points="184.67 328.42 202.76 367.13 215.4 368.36 213.48 341.19 200.9 320.74 184.67 328.42"/><polygon class="cls-7" points="213.48 341.19 184.77 328.66 209.8 323.8 212.59 328.66 213.48 341.19"/><path class="cls-8" d="M179.21,280.07l-8.36,10,13.92,38.59,56.48-12.41,10.69-34.65s-21.66-45.15-24.34-44.33-43,3.24-43,3.24Z"/><polygon class="cls-9" points="184.77 328.66 241.66 328.66 251.94 281.6 184.77 328.66"/><polygon class="cls-10" points="231.74 262.63 215.47 251 215.65 271.6 251.94 281.6 253.59 274.03 231.74 262.63"/><polygon class="cls-10" points="167.43 280.15 170.85 290.07 192.67 275.48 193.87 250.38 167.43 280.15"/><polygon class="cls-3" points="183.35 239.13 193.87 250.38 192.67 275.48 167.43 280.15 171.54 247.49 183.35 239.13"/><polygon class="cls-4" points="244.29 168.99 249.07 165.82 259.8 171.47 273.86 211.38 263.88 236.71 232.09 193.6 244.29 168.99"/><polygon class="cls-11" points="283.16 235.78 244.29 271.34 247.81 238.88 272.55 207.66 283.16 235.78"/><polygon class="cls-3" points="240.16 232.05 247.81 238.88 253.59 274.03 215.65 271.6 215.47 251 240.16 232.05"/><polygon class="cls-4" points="248.21 215.46 247.81 238.88 215.47 251 207.12 184.55 248.21 215.46"/><polygon class="cls-11" points="235.61 146.46 249.07 165.82 248.21 215.46 218.91 218.04 218.91 218.04 226.16 148.4 235.61 146.46"/><path class="cls-12" d="M185.29,202.1l8.58,48.28,21.6.62,13.13-73s-14.52-7.76-15.5-8.07-30.81,1.66-30.81,1.66Z"/><path class="cls-13" d="M189.72,190.16l.13.32,9.89,23.05-3.29,24,.3,2.74,17.38,0-.07-30.22-4.86-.83,13.34-26-3.62-2.36-14.78,30.91S190.8,181,191.27,181,189.72,190.16,189.72,190.16Z"/><polygon class="cls-14" points="186.63 172.85 191.59 176.21 204.26 209.24 220.26 175.03 222.09 178.02 204.62 214.3 202.34 212.03 188.08 176.16 186.63 172.85"/><polygon class="cls-15" points="193.87 158.06 220.02 175.54 218.56 199.73 223.29 207.55 239.66 193.32 229.95 149.07 222.92 147.83 193.87 158.06"/><polygon class="cls-16" points="218.56 199.73 215.47 251 239.66 193.32 218.56 199.73"/><polygon class="cls-6" points="137.01 157.13 135.36 145.14 148.79 133.56 159.55 132.94 163.89 148.04 159.55 156.31 137.01 157.13"/><polygon class="cls-5" points="140.53 182.36 134.53 168.5 135.36 145.14 159.55 156.31 152.1 170.37 140.53 182.36"/><polygon class="cls-3" points="187.46 184.63 166.78 213.37 141.15 228.26 139.21 201.44 168.37 169.02 187.46 184.63"/><path class="cls-4" d="M173.4,207l-6.62,6.41,4.76,34.12,22.33,2.89s-10.1-43.29-8.48-43.42S173.4,207,173.4,207Z"/><polygon class="cls-11" points="190.56 164.58 181.98 156.9 168.37 169.02 166.78 213.37 187.67 215.44 184.56 174.71 190.56 164.58"/><polygon class="cls-15" points="198.83 164.37 191.59 176.21 192.25 197.76 185.29 202.1 175.49 191.58 181.98 156.9 198.83 164.37"/><polygon class="cls-16" points="192.25 197.76 193.87 250.38 175.49 191.58 192.25 197.76"/><polygon class="cls-2" points="139.08 35.98 127.91 48.79 148.38 94.28 163.06 59.96 139.08 35.98"/><path class="cls-17" d="M155.41,24.81l-11.16-11L127.91,48.79l12.2,7.66s19.45-7.6,20.68-9.1S155.41,24.81,155.41,24.81Z"/><path class="cls-18" d="M244.32,115.16l4.54,19.64.21,31-32-18.08s7.85-32.1,6.41-32S244.32,115.16,244.32,115.16Z"/><polygon class="cls-2" points="246.59 62.23 264.37 87.25 248.86 134.8 223.85 133.98 217.44 71.33 246.59 62.23"/><polygon class="cls-18" points="242.87 34.94 264.37 55.2 264.37 87.25 239.15 86.11 212.32 89.53 202.03 34.78 242.87 34.94"/><polygon class="cls-17" points="234.81 21.92 242.46 27.91 264.37 55.2 217.02 53.96 195.31 37.42 234.81 21.92"/><polygon class="cls-2" points="203.79 13.23 233.15 10.34 242.46 27.91 207.31 40.52 179.6 26.26 183.74 15.09 203.79 13.23"/><polygon class="cls-17" points="176.91 33.91 144.25 13.85 192.83 0 233.15 10.34 186.63 23.16 176.91 33.91"/><polygon class="cls-18" points="166.16 49.21 150.86 36.8 144.25 13.85 186.63 23.16 207.31 40.52 166.16 49.21"/><polygon class="cls-6" points="231.39 111.55 231.5 112.68 232.22 120.23 222.85 163.84 220.02 175.54 210.2 175.85 185.7 121.26 217.02 53.96 224.88 84.67 231.39 111.55"/><polygon class="cls-7" points="226.02 103.89 221.99 105.96 232.22 120.23 234.6 108.86 226.02 103.89"/><polygon class="cls-7" points="200.07 130.36 204.62 147.83 218.88 147.73 210.2 175.85 191.59 176.21 172.37 137.6 200.07 130.36"/><polygon class="cls-5" points="140.11 56.45 148.79 133.56 163.89 148.04 204.62 147.83 217.02 53.96 207.31 40.52 150.86 36.8 140.11 56.45"/><polygon class="cls-6" points="154.74 74.12 163.84 79.08 168.33 87.46 169.83 89.73 172.99 87.36 177.74 79.03 197.54 74.9 204.51 78.93 190.61 89.47 174.12 108.65 169.94 100.53 165.13 108.44 156.29 89.37 145.23 77.07 151.84 73.09 154.74 74.12"/><polygon class="cls-15" points="166.99 121.21 162.96 123.54 172.57 130.28 186.73 123.85 166.99 121.21"/><polygon class="cls-7" points="169.47 102.86 165.13 108.44 170.3 112.27 174.12 108.65 169.47 102.86"/><polygon class="cls-19" points="177.74 79.03 177.38 74.9 198.47 73.45 204.51 78.93 196.87 76.86 177.74 79.03"/><polygon class="cls-19" points="165.02 74.79 151.28 71.8 145.23 77.07 151.59 75.05 163.84 79.08 165.02 74.79"/><polygon class="cls-20" points="168.33 87.46 165.13 108.44 174.12 108.65 172.99 87.36 168.33 87.46"/><path class="cls-21" d="M156.44,92.52c1.31,0,2.38-1.81,2.38-4s-1.07-4-2.38-4-2.37,1.81-2.37,4S155.14,92.52,156.44,92.52Z"/><path class="cls-21" d="M190.56,92.32c1.31,0,2.38-1.81,2.38-4s-1.07-4-2.38-4-2.38,1.81-2.38,4S189.25,92.32,190.56,92.32Z"/><polygon class="cls-22" points="157.38 120.54 162.96 123.54 186.73 123.85 192.21 120.44 185.7 121.26 171.67 119.51 162.75 121.26 157.38 120.54"/><polygon class="cls-5" points="224.88 84.67 221.99 105.96 234.6 108.86 239.15 86.11 224.88 84.67"/><polygon class="cls-7" points="228.4 89.53 233.67 90.46 226.64 100.17 228.4 89.53"/><polygon class="cls-4" points="134.53 168.5 152.1 170.37 141.15 228.26 116.84 215.27 134.53 168.5"/><path class="cls-12" d="M228,196.36c2,0,3.67-2,3.67-4.49s-1.65-4.5-3.67-4.5-3.67,2-3.67,4.5S226,196.36,228,196.36Z"/><path class="cls-23" d="M228,194.87a3.06,3.06,0,1,0-2.45-3A2.77,2.77,0,0,0,228,194.87Z"/><rect class="cls-24" x="196.45" y="209.23" width="15.61" height="28.33"/><polygon class="cls-11" points="198.88 217.45 204 231.62 210.25 217.04 207.31 215.96 204.26 223.4 201.21 215.8 198.88 217.45"/></svg>