<svg id="Layer_1" data-name="Layer 1" xmlns="http://www.w3.org/2000/svg" viewBox="0 0 400 400"><defs><style>.cls-1{fill:#66483a;}.cls-1,.cls-10,.cls-11,.cls-12,.cls-13,.cls-14,.cls-15,.cls-16,.cls-17,.cls-18,.cls-19,.cls-2,.cls-20,.cls-21,.cls-22,.cls-23,.cls-24,.cls-3,.cls-4,.cls-5,.cls-6,.cls-7,.cls-8,.cls-9{fill-rule:evenodd;}.cls-2{opacity:0.1;}.cls-3{fill:#543042;}.cls-4{fill:#734d60;}.cls-5{fill:#f4c9b2;}.cls-6{fill:#c1907d;}.cls-7{fill:#785d87;}.cls-8{fill:#474747;}.cls-9{fill:#a587b9;}.cls-10{fill:#8f759f;}.cls-11{fill:#cdcdcc;}.cls-12{fill:#ebebea;}.cls-13{fill:#594165;}.cls-14{fill:#4f5253;}.cls-15{fill:#2b2b2b;}.cls-16{fill:#1c1c1c;}.cls-17{fill:#9ca0a1;}.cls-18{fill:#fce3d4;}.cls-19{fill:#82624d;}.cls-20{fill:#51362a;}.cls-21{fill:#674736;}.cls-22{fill:#593e35;}.cls-23{fill:#ffefe7;}.cls-24{fill:#fff;}</style></defs><title>analysts_ENTJ_famous_real_jim_carrey</title><polygon class="cls-1" points="257 107.39 243.45 125.56 243.24 97.19 255.15 81.65 257 107.39"/><polygon class="cls-2" points="104.61 380.33 205.76 366.08 302.58 390.07 203.59 399.5 104.61 380.33"/><polygon class="cls-3" points="218.95 363.9 213.51 332.29 229.76 297.78 247.14 324.37 244.37 359.38 234.68 371.35 218.95 363.9"/><polygon class="cls-3" points="178.19 256.85 163.66 270 165.88 284.03 181.92 297.74 208.73 304.53 242.51 301.58 250.76 287.48 241.31 261.25 207.09 245.79 178.19 256.85"/><polygon class="cls-4" points="208.73 304.53 250.76 287.48 247.14 324.37 213.51 332.29 208.73 304.53"/><polygon class="cls-5" points="121.78 223.16 115.05 220.61 111.17 209.82 120.9 205.96 133.14 208.34 141.57 219.03 121.78 223.16"/><polygon class="cls-5" points="234.22 160.26 246.53 114.01 246.82 54.09 226.86 48.39 209.51 153.18 208.55 188.06 225.77 179.23 234.22 160.26"/><polygon class="cls-6" points="185.5 152.95 189.54 167.15 208.55 188.06 216.15 176.42 223.87 152.82 209.51 153.18 185.5 152.95"/><polygon class="cls-7" points="196.2 189.5 204.49 229.22 189.29 269.69 188.06 282.91 163.66 270 165.64 246.26 160.97 211.62 173.86 176.66 189.54 167.15 196.2 189.5"/><polygon class="cls-8" points="204.04 176.66 196.2 189.5 189.54 167.15 204.04 176.66"/><polygon class="cls-9" points="181.46 180.46 196.2 189.5 189.54 167.15 184.74 170.07 181.46 180.46"/><polygon class="cls-10" points="178.85 197.09 188.83 184.98 196.2 189.5 192.16 232.27 178.85 197.09"/><polygon class="cls-11" points="208.55 188.06 204.04 176.66 196.2 189.5 189.29 269.69 206.65 261.18 214.74 224.68 208.55 188.06"/><polygon class="cls-12" points="216.15 176.42 208.55 188.06 206.65 261.18 221.64 269.8 232.48 229.24 219.79 192.64 216.15 176.42"/><polygon class="cls-7" points="222.01 284.03 220.77 229.89 219.79 192.64 234.22 160.26 264.76 178.45 257.72 220.36 258.15 248.1 230.09 273.94 222.01 284.03"/><polygon class="cls-7" points="262.96 189.17 257.72 220.36 258.15 248.1 243.6 261.5 243.6 261.5 245.85 192.71 262.96 189.17"/><polygon class="cls-7" points="229.71 170.37 234.22 160.26 264.76 178.45 261.75 196.36 245.85 192.71 235.41 184.03 229.71 170.37"/><polygon class="cls-9" points="235.41 184.03 234.22 160.26 219.79 192.64 235.41 184.03"/><polygon class="cls-10" points="236.65 198.64 227.6 188.33 219.79 192.64 220.77 229.89 236.65 198.64"/><polygon class="cls-10" points="154.79 213.25 169.45 179.51 173.86 176.66 165.58 246.77 148.24 229.58 154.79 213.25"/><polygon class="cls-13" points="129.6 207.31 154.79 213.25 165.58 246.77 120.81 225.13 129.6 207.31"/><polygon class="cls-3" points="177.12 355.35 171.86 322 189.59 298.82 204.58 332.29 199.94 363.43 180.28 371.18 177.12 355.35"/><polygon class="cls-4" points="171.86 322 165.88 284.03 208.73 304.53 204.58 332.29 171.86 322"/><polygon class="cls-14" points="149.8 377.2 177.12 355.35 199.94 363.43 200.17 376.73 174.51 379.35 149.8 377.2"/><polygon class="cls-8" points="234.22 160.26 216.15 176.42 219.79 192.64 234.22 160.26"/><polygon class="cls-15" points="149.86 381.6 149.8 377.2 200.17 376.73 200.17 381.96 149.86 381.6"/><polygon class="cls-14" points="214.85 386.83 218.95 363.9 244.37 359.38 252.28 386.71 233.21 390.57 214.85 386.83"/><polygon class="cls-15" points="214.73 391.88 252.34 391.88 252.28 386.71 214.85 386.71 214.73 391.88"/><polygon class="cls-6" points="119.57 222.32 115.05 220.61 120.77 206.37 125.5 207.13 121.36 213.31 119.57 222.32"/><polygon class="cls-15" points="140.16 179 142.64 189.39 152.89 195.49 163.74 192.65 170.34 178.93 167.3 169.44 170.97 164.33 164.96 162.14 138.49 172 132.06 174.13 108.75 181.59 107.05 194.46 108.49 201.57 119.3 207.1 131.03 204.69 132.24 201.37 137.02 191.21 133.99 180.78 140.16 179"/><polygon class="cls-16" points="187.57 159.36 164.96 162.14 167.3 169.44 189.54 167.15 187.57 159.36"/><path class="cls-17" d="M164.34,175.24l2.15,7.22-3.66,7.22v-7.22l-2.08-5.83Zm-5.78-4.71,3.93-1.48,1,3.21-3.7,1.59Z"/><polygon class="cls-5" points="111.17 225.61 97.98 213.41 107.05 194.46 120.77 206.37 117.93 213.44 115.05 220.61 111.17 225.61"/><polygon class="cls-18" points="133.14 208.34 121.36 213.31 118.36 204.28 132.24 201.37 133.14 208.34"/><polygon class="cls-18" points="97.42 182.94 107.05 194.46 114.64 186.9 102.86 176.27 97.42 182.94"/><polygon class="cls-18" points="225.19 119.2 209.51 153.18 171.72 153.18 145.82 122.05 142.03 41.49 177.43 27.95 222.11 32.94 226.86 48.39 225.19 119.2"/><polygon class="cls-18" points="237.08 78.8 236.13 102.56 245.11 108.33 248.89 105.16 255.15 81.65 237.08 78.8"/><polygon class="cls-6" points="241.24 84.15 240.53 94.13 249.68 85.81 241.24 84.15"/><polygon class="cls-6" points="236.13 102.56 246.53 114.01 248.89 105.16 236.13 102.56"/><polygon class="cls-1" points="259.54 63.23 255.15 81.65 237.08 78.8 237.31 56.44 257.4 41.61 259.54 63.23"/><polygon class="cls-19" points="236.61 90.68 231.74 91.27 226.86 48.39 242.16 37.07 257.4 41.61 237.08 78.8 236.61 90.68"/><polygon class="cls-1" points="250.27 26.4 257.4 41.61 226.86 48.39 204.41 38.05 216.43 28.5 222.8 23.52 250.27 26.4"/><polygon class="cls-20" points="219.15 13.57 250.27 26.4 225.09 29.73 217.1 26.64 219.15 13.57"/><polygon class="cls-19" points="215.34 5.01 219.15 13.57 221.64 20.37 225.09 29.73 204.41 38.05 202.42 18.93 215.34 5.01"/><polygon class="cls-21" points="196.33 8.82 215.34 5.01 204.41 38.05 177.56 44.94 184.89 16.69 196.33 8.82"/><polygon class="cls-19" points="174.23 0.5 196.33 8.82 177.56 44.94 169.56 16.8 174.23 0.5"/><polygon class="cls-1" points="161.64 9.77 174.23 0.5 177.56 44.94 162.17 22.84 161.64 9.77"/><polygon class="cls-22" points="148.33 9.53 161.64 9.77 177.56 44.94 142.03 41.49 148.33 9.53"/><polygon class="cls-1" points="133.12 57.05 138.35 23.79 148.33 9.53 159.79 43.22 142.03 41.49 140.9 54.83 133.12 57.05"/><polygon class="cls-22" points="143.65 75.83 133.12 57.05 142.03 41.49 143.65 75.83"/><polygon class="cls-5" points="195.85 89.46 182.91 112.28 176.37 108.96 171.74 112.28 163.54 90.42 152.49 85.23 157.25 80.48 168.53 80.25 170.66 83 173.29 84 177.21 89.47 181.6 83.89 186.1 81.31 205.12 76.46 213.75 80.72 195.85 89.46"/><polygon class="cls-23" points="173.29 84 171.74 112.28 182.91 112.28 181.6 83.89 173.29 84"/><polygon class="cls-5" points="203.99 87.9 213.26 86 213.14 89.56 203.99 87.9"/><polygon class="cls-5" points="203.28 91.23 213.14 92.06 212.19 95.51 203.28 91.23"/><polygon class="cls-5" points="155.58 89.71 147.86 87.81 147.74 91.25 155.58 89.71"/><polygon class="cls-5" points="155.82 93.63 147.98 93.63 148.1 96.95 155.82 93.63"/><polygon class="cls-6" points="171.74 112.28 177.68 117.39 182.91 112.28 171.74 112.28"/><polygon class="cls-5" points="164.49 119.05 159.86 123.33 165.44 137.59 155.82 121.55 164.49 119.05"/><polygon class="cls-5" points="197.9 116.11 207.17 121.93 203.84 137.38 212.76 119.2 197.9 116.11"/><polygon class="cls-6" points="163.9 122.52 201.07 121.27 194.18 131.49 170.79 131.91 163.9 122.52"/><polygon class="cls-24" points="169.13 125.02 172.01 129.41 192.16 129.11 196.2 123.64 169.13 125.02"/><path class="cls-15" d="M163.54,86.93a3.49,3.49,0,1,1-3.49,3.49,3.5,3.5,0,0,1,3.49-3.49"/><path class="cls-15" d="M195.85,86a3.49,3.49,0,1,1-3.49,3.49A3.49,3.49,0,0,1,195.85,86"/><polygon class="cls-22" points="171.47 78.22 170.66 83 156.56 82.79 152.49 85.23 154.9 78.81 171.47 78.22"/><polygon class="cls-22" points="185.99 76.79 186.1 81.31 206.96 78.99 213.75 80.72 206.78 73.17 185.99 76.79"/><polygon class="cls-10" points="254.54 229.37 262.99 236.67 286.56 238.62 264.76 178.45 245.85 192.71 254.54 229.37"/><polygon class="cls-13" points="257.35 272.19 286.56 238.62 254.54 229.37 243.6 261.29 243.72 274.39 257.35 272.19"/><polygon class="cls-18" points="257.35 272.19 250.76 287.48 230.09 273.94 243.6 261.29 257.35 272.19"/></svg>