<svg id="Layer_1" data-name="Layer 1" xmlns="http://www.w3.org/2000/svg" viewBox="0 0 400 400"><defs><style>.cls-1,.cls-9{fill:#2b2b2b;}.cls-1,.cls-10,.cls-11,.cls-12,.cls-13,.cls-14,.cls-15,.cls-16,.cls-17,.cls-18,.cls-19,.cls-2,.cls-20,.cls-21,.cls-22,.cls-3,.cls-4,.cls-5,.cls-6,.cls-7,.cls-8,.cls-9{fill-rule:evenodd;}.cls-1{opacity:0.1;}.cls-2{fill:#795d88;}.cls-3{fill:#8f759f;}.cls-4{fill:#d1a0b8;}.cls-5{fill:#fff0e8;}.cls-6{fill:#b2879c;}.cls-7{fill:#cecdcc;}.cls-8{fill:#543042;}.cls-10{fill:#95637c;}.cls-11{fill:#a587b8;}.cls-12{fill:#734d61;}.cls-13{fill:#594265;}.cls-14{fill:#c18f7c;}.cls-15{fill:#f4cab2;}.cls-16{fill:#8e8e8e;}.cls-17{fill:#fbe3d4;}.cls-18{fill:#9b9fa0;}.cls-19{fill:#c3c3c3;}.cls-20{fill:#4f5353;}.cls-21{fill:#6f7273;}.cls-22{fill:#070908;opacity:0.2;}</style></defs><title>analysts_ENTJ_famous_real_harrison_ford</title><path class="cls-1" d="M206,395.43l-80.66-14.79L151,379l54.49-4.59,91,11.41S204.33,394.93,206,395.43Z"/><polygon class="cls-2" points="289.08 186.16 288.63 171.46 284.97 172.25 281.41 182.54 285.96 187.37 289.08 186.16"/><polygon class="cls-2" points="242.17 151.76 247.98 156.02 259.04 152.9 258.44 148.53 256.83 144.74 249.2 143.22 242.33 147.39 242.17 151.76"/><polygon class="cls-3" points="242.03 139.04 242.33 147.39 256.83 144.74 254.02 137.52 247.55 132.55 242.03 139.04"/><polygon class="cls-2" points="262.26 152.71 256.43 150.81 252.82 154.23 254.82 159.16 260.05 161.44 263.26 168.28 270.89 168.66 278.93 169.42 282.14 164.86 276.52 159.54 262.26 152.71"/><polygon class="cls-2" points="299.42 154.61 293.79 151.95 284.15 155.37 275.95 162.56 282.14 171.32 288.63 171.46 299.42 154.61"/><polygon class="cls-2" points="258.25 111.37 253.35 115.1 253.62 121 268.72 120.89 270.89 112.08 269.29 107.14 258.25 111.37"/><polygon class="cls-3" points="286.16 106.38 269.29 107.14 266.68 117.58 268.88 125.75 275.71 132.2 280.53 128.41 286.96 110.94 286.16 106.38"/><polygon class="cls-2" points="299.82 119.29 286.16 106.38 275.71 132.2 285.36 133.34 294.35 130.72 298.21 125.75 299.82 119.29"/><polygon class="cls-3" points="303.83 144.35 299.82 119.29 293.79 128.41 295.8 136.76 303.83 144.35"/><polygon class="cls-4" points="299.42 154.61 303.83 144.35 293.79 128.41 275.71 132.2 266.68 117.58 255.08 118.55 250.41 121.19 245.75 131.46 247.73 135.53 256.83 144.74 285.96 157.76 299.42 154.61"/><polygon class="cls-5" points="260.05 142.08 256.83 144.74 263.14 147.19 260.05 142.08"/><polygon class="cls-5" points="279.37 155.19 286.76 152.44 285.96 157.76 279.37 155.19"/><polygon class="cls-6" points="256.43 150.81 256.83 144.74 273.71 145.49 285.96 157.76 279.33 162.2 256.43 150.81"/><polygon class="cls-7" points="271.5 137.86 279.93 141.13 280.13 143.97 273.71 142.84 269.29 139.42 271.5 137.86"/><polygon class="cls-8" points="273.71 145.49 269.29 139.42 280.13 143.97 273.71 145.49"/><polygon class="cls-6" points="253.22 125.37 254.42 129.54 261.25 128.78 271.5 137.86 263.66 124.99 253.22 125.37"/><polygon class="cls-6" points="279.93 141.13 294.19 137.9 299.01 144.35 296.2 146.25 292.18 141.32 279.93 141.13"/><path class="cls-9" d="M261.65,138.28a2.28,2.28,0,1,0-2.4-2.28A2.35,2.35,0,0,0,261.65,138.28Z"/><path class="cls-9" d="M287,148.15a2.28,2.28,0,1,0-2.41-2.28A2.35,2.35,0,0,0,287,148.15Z"/><polygon class="cls-6" points="78.02 395.14 82.6 395.44 83.41 393.44 84.07 391.89 92.46 393.95 95.96 390.91 81.29 387.4 78.02 395.14"/><polygon class="cls-6" points="89.53 381.56 88.48 375.56 90.49 369.3 98.12 368.73 104.95 372.15 99.33 379.36 89.53 381.56"/><polygon class="cls-10" points="96.67 385.6 89.53 381.56 95.71 373.48 104.95 372.15 106.05 380.8 96.67 385.6"/><polygon class="cls-6" points="208.78 395.62 166.33 387.84 165.62 385.49 169.9 383.62 208.78 395.62"/><polygon class="cls-4" points="143.92 388.1 141.91 390 143.11 394.17 166.33 387.84 169.9 383.62 143.92 388.1"/><polygon class="cls-4" points="149.12 365.26 122.25 378.13 124.03 381.83 158.78 367.95 154.61 365.73 149.12 365.26"/><polygon class="cls-4" points="199.53 351.02 197.93 358.62 221.63 353.07 199.53 351.02"/><polygon class="cls-6" points="122.25 378.13 121.84 384.93 143.11 394.17 143.92 388.1 122.25 378.13"/><polygon class="cls-4" points="80.85 352.02 80.45 355.82 82.46 358.1 106.22 354.89 109.37 348.6 80.85 352.02"/><polygon class="cls-6" points="76.03 357.72 85.75 371.64 91.31 370.33 93.93 364.67 80.85 352.02 76.03 357.72"/><polygon class="cls-4" points="79.68 362.94 86.7 357.68 89.49 360.37 82.26 366.64 79.68 362.94"/><polygon class="cls-4" points="93.93 364.67 85.75 371.64 88.48 375.56 91.94 370.12 98.12 368.73 93.93 364.67"/><polygon class="cls-11" points="97.72 360.75 109.37 348.6 123.43 353.54 129.05 361.89 128.65 365.39 117.91 370.22 97.72 360.75"/><polygon class="cls-3" points="132.17 349.1 109.37 348.6 129.05 361.89 133.07 353.54 132.17 349.1"/><polygon class="cls-11" points="137.21 328.39 132.17 349.11 133.07 353.54 181.93 344.21 182.71 330 176.87 324.64 159.9 324 137.21 328.39"/><polygon class="cls-3" points="163.05 322.45 137.21 328.39 176.87 324.64 163.05 322.45"/><polygon class="cls-12" points="179.16 342.75 132.17 349.11 129.05 361.89 136.28 362.46 166.32 355.42 176.73 347.81 179.16 342.75"/><polygon class="cls-3" points="117.91 370.22 129.05 361.89 162.97 354.88 161.52 359.42 149.12 365.26 117.91 370.22"/><polygon class="cls-13" points="181.51 364.81 149.12 365.26 179.16 342.75 181.91 345.2 183.91 350.4 181.51 364.81"/><polygon class="cls-6" points="221.63 353.07 200.75 355.74 149.12 365.26 158.78 367.95 165.76 369.04 200.75 361.07 224.66 358.48 221.63 353.07"/><polygon class="cls-12" points="99.93 380.5 96.67 385.6 103.28 386.37 106.05 380.8 99.93 380.5"/><polygon class="cls-6" points="96.03 394.81 102.55 396.37 109.06 385.91 102.12 382.51 103.51 388.13 96.03 394.81"/><polygon class="cls-4" points="78.02 395.14 87.5 400.08 106.91 389.04 102.12 382.51 99.97 385.98 101.69 387.71 87.83 395.44 83.41 393.44 78.02 395.14"/><polygon class="cls-14" points="194.06 144.64 198.3 151.84 205.02 183.4 219.46 167.62 227.56 161.4 235.92 155.54 237.93 149.93 216.06 140.07 200.11 139.7 194.06 144.64"/><polygon class="cls-15" points="228.39 126.73 208.3 139.06 209.57 144.1 232.45 153.1 237.19 156.43 242.14 152.79 242.33 147.39 258.25 111.37 255.8 85.45 240.51 66.48 235.21 68.52 228.39 126.73"/><polygon class="cls-14" points="247.21 98.08 258.25 111.37 264.15 98.04 256.86 94.32 247.21 98.08"/><polygon class="cls-16" points="236.59 59.56 240.51 66.48 249.62 89.15 274.71 74.12 274.23 35.61 265.55 34.2 246.72 43.13 242.38 52.05 236.59 59.56"/><polygon class="cls-10" points="253.22 97.14 256.36 102.3 261.02 98.31 258.27 96.94 253.22 97.14"/><polygon class="cls-17" points="252.52 73.19 247.21 98.08 264.15 98.04 274.71 74.12 252.52 73.19"/><polygon class="cls-14" points="258.12 79.77 255.93 90.26 265.86 80 258.12 79.77"/><polygon class="cls-18" points="232.73 14.95 229.35 22.93 229.35 37.49 242.38 52.05 274.23 35.61 250.1 5.55 232.73 14.95"/><polygon class="cls-19" points="225.01 9.78 215.36 15.89 210.05 29.51 221.15 29.98 229.35 22.93 250.1 5.55 225.01 9.78"/><polygon class="cls-16" points="211.98 38.43 210.05 29.51 229.35 22.93 242.38 52.05 232.73 53.46 211.98 38.43"/><polygon class="cls-16" points="151.66 51.11 163.72 26.69 183.02 16.36 201.36 16.36 210.05 29.51 206.19 36.55 156.96 54.4 151.66 51.11"/><polygon class="cls-19" points="150.21 25.28 147.31 43.13 151.66 51.11 183.02 16.36 192.68 9.31 191.23 -0.08 150.21 25.28"/><polygon class="cls-18" points="225.01 9.78 191.23 -0.08 183.02 16.36 210.05 29.51 225.01 9.78"/><polygon class="cls-18" points="142.73 59.8 147.31 60.5 151.66 51.11 150.21 25.28 142.73 59.8"/><polygon class="cls-16" points="156.96 82.76 142.73 59.8 151.66 51.11 156.96 54.4 158.72 76.99 156.96 82.76"/><polygon class="cls-17" points="160.82 132.83 182.54 145.04 209.57 144.1 232.25 130.01 242.38 52.05 210.05 29.51 151.66 51.11 156.96 82.76 160.82 132.83"/><polygon class="cls-15" points="164.2 62.62 188.5 63.2 207.56 58.27 217.22 58.74 207.15 56.04 188.33 61.21 164.2 62.62"/><polygon class="cls-15" points="187.97 55.28 173.85 54.63 188.16 53.17 203.78 48.53 187.97 55.28"/><polygon class="cls-15" points="160.04 73.66 173.37 72.95 182.57 75.44 185.61 79.07 186.81 89.74 182.8 102.42 173.06 81.52 160.04 73.66"/><polygon class="cls-15" points="193.44 78.78 191.88 89.03 196.63 102.08 206.84 81.05 221.63 68.84 205.71 69.66 197.69 72.42 193.44 78.78"/><path class="cls-9" d="M207,85.06a3.77,3.77,0,1,0-3.87-3.77A3.83,3.83,0,0,0,207,85.06Z"/><polygon class="cls-15" points="181.12 133.43 196.03 130.79 207.05 133.1 204.52 135.82 195.94 133.13 181.12 133.43"/><polygon class="cls-14" points="176.17 119.57 204.74 121.35 211.66 117.16 211.5 114.75 209.5 115 204.42 117.99 176.03 117.01 176.17 119.57"/><polygon class="cls-15" points="182.8 102.42 171.76 116.29 176.59 127.09 176.03 117.01 182.8 102.42"/><polygon class="cls-15" points="196.63 102.08 211.76 117.26 211.55 128.13 216.64 115.82 196.63 102.08"/><polygon class="cls-15" points="193.93 64.02 190.31 69.42 192.48 73.89 193.93 64.02"/><polygon class="cls-15" points="156.96 82.76 160.66 79.76 165.89 82.46 156.96 82.76"/><polygon class="cls-15" points="218.25 80.94 224.77 78.59 228.87 81.87 218.25 80.94"/><polygon class="cls-4" points="264.15 98.04 260.42 94.5 256.36 94.56 258.77 98.05 261.91 99.72 264.15 98.04"/><polygon class="cls-6" points="261.18 102.07 264.15 98.04 258.77 98.05 256.36 102.3 261.18 102.07"/><polygon class="cls-16" points="160.04 73.66 170.56 70.48 181.78 71.44 182.57 75.44 160.04 73.66"/><polygon class="cls-16" points="198.47 68.25 197.69 72.42 221.63 68.84 210.32 66.7 198.47 68.25"/><polygon class="cls-14" points="182.8 102.42 189.24 100.12 196.63 102.08 190.26 108.18 182.8 102.42"/><polygon class="cls-5" points="185.61 79.07 193.44 78.79 196.63 102.08 182.8 102.42 185.61 79.07"/><path class="cls-9" d="M173.14,85.38a3.77,3.77,0,1,0-3.88-3.77A3.83,3.83,0,0,0,173.14,85.38Z"/><polygon class="cls-17" points="163.01 234.08 168.98 248.98 161.72 268.26 132.19 229.1 139.17 226.95 160.44 229.91 163.01 234.08"/><polygon class="cls-15" points="132.19 229.1 162.98 233.98 160.44 229.91 132.14 219.93 126.64 221.74 132.19 229.1"/><polygon class="cls-6" points="265.34 216.7 271.28 221.96 281.16 222.18 299.56 213.77 306.68 205.14 284.17 180.87 272.57 178.04 266.84 183.09 265.34 216.7"/><polygon class="cls-17" points="282.42 233.18 277.25 243.12 280.36 252.01 274.35 263.03 276.25 269.08 283.74 262.15 285.16 256.99 289.65 256.68 319.89 228.71 314.96 233.26 301.15 229.63 282.42 233.18"/><polygon class="cls-15" points="314.96 233.26 282.42 233.18 287.87 229.04 312.77 222.18 323.97 223.78 314.96 233.26"/><polygon class="cls-4" points="271.28 221.96 282.42 233.18 323.97 223.78 306.68 205.14 271.28 221.96"/><polygon class="cls-10" points="277.25 243.12 283.51 248.83 289.65 256.68 283.74 262.15 278.45 254.38 274.21 252.47 273.93 249.53 277.25 243.12"/><polygon class="cls-4" points="172.85 219.93 168.86 225.24 163.41 226 143.12 212.57 141.37 203.62 168.56 170.18 172.85 177.39 172.85 219.93"/><polygon class="cls-6" points="141.37 203.62 126.64 221.74 162.98 233.98 168.86 225.24 141.37 203.62"/><polygon class="cls-20" points="200.75 379.04 158.78 379.04 158.78 374.46 164.21 371.14 195.32 370.3 200.75 374.46 200.75 379.04"/><polygon class="cls-20" points="273.89 384.86 240.76 384.86 240.56 379.53 244.71 375.65 269.24 374.68 273.7 379.53 273.89 384.86"/><polygon class="cls-21" points="158.78 374.46 158.78 367.95 166.87 366.72 173.43 368.98 174.31 374.46 158.78 374.46"/><polygon class="cls-16" points="181.21 355.11 166.87 366.72 174.31 374.46 200.75 374.46 200.75 361.07 198.23 357.21 185.4 353 181.21 355.11"/><polygon class="cls-16" points="245.42 359.29 240.56 379.53 251.5 374.99 261.43 374.99 273.7 379.53 267.27 358.53 261.15 354.22 251.16 354.62 245.42 359.29"/><polygon class="cls-21" points="249.27 372.2 240.56 379.53 273.7 379.53 263.95 371.82 249.27 372.2"/><polygon class="cls-3" points="216.2 293.6 231.1 327.1 237.23 330.81 263.83 331.57 268.14 328.81 269.72 274.99 265.12 269.67 254.82 267.01 217.08 289.42 216.2 293.6"/><polygon class="cls-3" points="168.56 275.75 176.34 324.56 182.21 328.28 202.47 328.91 208.77 326.05 216.2 293.6 214.08 289.61 176.09 269.52 172 271 168.56 275.75"/><polygon class="cls-2" points="245.42 359.29 267.27 358.53 268.14 328.81 231.1 327.1 245.42 359.29"/><polygon class="cls-2" points="181.09 355.21 200.75 361.07 208.77 326.05 176.34 324.56 181.09 355.21"/><polygon class="cls-8" points="178.86 273.47 216.2 293.6 252.25 271.57 254.82 267.01 250.78 261.68 178.5 263.59 176.09 269.52 178.86 273.47"/><polygon class="cls-6" points="168.99 250.69 178.4 260.94 205.04 261.32 209.33 258.28 212.34 180.05 207.62 177.39 205.04 163.34 193.45 167.14 190.94 160.6 168.56 170.18 168.99 250.69"/><polygon class="cls-4" points="214.05 163.72 207.62 177.39 205.04 261.32 250.1 259.8 266.41 252.2 270.58 245.94 272.5 180.33 275.21 174.92 272.85 168.66 261.26 161.44 255.68 159.16 244.52 158.78 230.34 171.36 214.05 163.72"/><path class="cls-10" d="M184.52,257.6l15.58-.28v10.49l-14.77.23-3.47-4.94,2.66-5.5Zm32.57-.59,25.82-.48,5.15,4.94-5.15,5.69-25.78.39h0l-3.94-5.66Z"/><polygon class="cls-2" points="184.52 257.6 185.33 268.04 178.67 268.13 175.23 263.21 178.28 257.73 184.52 257.6"/><polygon class="cls-2" points="242.91 256.53 242.74 267.14 250.96 267.01 256.11 261.32 250.96 256.38 242.91 256.53"/><polygon class="cls-12" points="200.1 269.29 217.13 267.55 217.09 257.01 200.1 255.81 200.1 269.29"/><polygon class="cls-6" points="224.81 218.28 240.57 223.34 257.26 218.28 257.98 189.37 224.35 190 224.81 218.28"/><polygon class="cls-15" points="161.7 268.15 161.84 255.22 168.98 248.98 168.35 263.4 161.7 268.15"/><polygon class="cls-17" points="178.28 257.73 168.98 248.98 161.72 268.26 168.56 275.75 178.86 273.47 178.28 257.73"/><polygon class="cls-15" points="278.45 254.38 270.58 245.94 270.06 259.61 276.09 269.22 278.45 254.38"/><polygon class="cls-4" points="198.3 151.84 190.94 160.6 188.73 175.87 205.04 163.34 198.3 151.84"/><polygon class="cls-6" points="214.05 163.72 231.43 178.72 243.28 164.36 249.21 158.94 247.53 153.09 242.33 147.39 214.05 163.72"/><polygon class="cls-18" points="197.75 253.82 197.74 271.31 217.14 271.39 217.13 267.55 201.83 267.78 201.83 257.29 217.09 257.01 217.07 253.59 197.75 253.82"/><path class="cls-22" d="M269.41,285.64l-17.16-14.07L269.72,275l-.31,10.65ZM224.35,190l33.63-.63L241.14,193Z"/><polygon class="cls-17" points="250.96 256.38 252.25 271.57 269.72 274.99 276.29 269.04 270.58 245.94 250.96 256.38"/><polygon class="cls-12" points="203.33 181.17 207.36 185.6 211.54 181.37 207.62 177.39 203.33 181.17"/><polygon class="cls-2" points="277.06 185.18 272.52 180.33 272.85 168.66 280.88 169.42 285.3 175.87 284.17 180.87 277.06 185.18"/><polygon class="cls-3" points="279.33 162.2 272.85 168.66 284.17 180.87 288.63 171.46 279.33 162.2"/><polygon class="cls-2" points="248.8 170.56 243.22 164.36 248.77 158.94 254.82 159.16 260.05 161.44 257.35 169.82 248.8 170.56"/><polygon class="cls-3" points="247.19 153.09 243.22 164.36 260.05 161.44 256.43 150.81 247.19 153.09"/><polygon class="cls-6" points="286.62 249.12 283.51 248.83 278.45 254.38 277.99 257.28 281.56 262.02 283.74 262.15 289.65 256.68 289.74 253.53 286.62 249.12"/><polygon class="cls-4" points="285.59 251.51 284.07 251.37 280.41 255.25 280.19 256.61 282.42 259.57 283.31 259.63 287.56 255.59 287.54 254.27 285.59 251.51"/><polygon class="cls-12" points="202.46 209.5 206.5 213.94 210.67 209.7 206.75 205.73 202.46 209.5"/><polygon class="cls-12" points="201.55 239.29 205.58 243.72 209.75 239.49 205.83 235.51 201.55 239.29"/></svg>