<svg id="Layer_1" data-name="Layer 1" xmlns="http://www.w3.org/2000/svg" viewBox="0 0 400 400"><defs><style>.cls-1{fill:#fce3d4;}.cls-2{fill:#a587b9;}.cls-3{opacity:0.1;}.cls-4{fill:#2b2b2b;}.cls-5{fill:#ae9f6b;}.cls-6{fill:#8f759f;}.cls-7{fill:#d0a0b7;}.cls-8{fill:#b2879c;}.cls-9{fill:#594165;}.cls-10{fill:#785d87;}.cls-11{fill:#95637c;}.cls-12{fill:#fff;}.cls-13{fill:#e6e6e6;}.cls-14{fill:#ccc;}.cls-15{fill:#b3b3b3;}.cls-16{fill:#f4c9b2;}.cls-17{fill:#dddddc;}.cls-18{fill:#ffefe7;}.cls-19{fill:#c1907d;}.cls-20{fill:#cdc177;}.cls-21{fill:#c1b274;}.cls-22{fill:#734d60;}</style></defs><title>analysts_ENTJ_famous_fictional_milady_de_winter_the_three_musketeers</title><polygon class="cls-1" points="175.95 137.7 178.77 134.68 214.74 137.06 227.02 146.52 205.69 179.41 181.47 181.96 169.4 176.4 170.05 161.65 175.95 137.7"/><polygon class="cls-2" points="175.95 137.7 155.87 132.21 147.19 147.64 141.53 175.58 141.66 192.4 154.44 213.32 184.6 221.84 220.51 209.83 241.91 147.37 220.9 143.26 200.81 178.8 182.63 176.6 176.83 180.4 169.4 176.4 175.95 137.7"/><g class="cls-3"><polygon class="cls-4" points="79.26 382.5 180.32 353.74 298.32 368.92 326.57 376.87 250.52 398.76 201.14 400 133.66 394.7 79.26 382.5"/></g><polygon class="cls-5" points="161.67 140.01 157.57 129.5 159.02 121.22 174.23 121.32 179.13 135.75 175.95 137.7 166.69 140.89 161.67 140.01"/><polygon class="cls-2" points="140 146.49 129.86 134.96 91.57 91.89 131.83 68.79 157.84 132.68 140 146.49"/><polygon class="cls-2" points="260.08 115.42 286.81 102.47 293.35 75.75 246.01 57.94 235.46 89.04 260.08 115.42"/><polygon class="cls-6" points="249.7 147.84 312.71 119.12 293.35 75.75 260.08 115.42 248.76 129.29 249.7 147.84"/><polygon class="cls-6" points="156.85 230.18 154.45 213.32 220.51 209.83 218.78 233.84 192.87 236.35 156.85 230.18"/><polygon class="cls-7" points="210.84 186.81 216.16 162.39 226.1 164.22 243.12 183.99 249.84 220.65 228.27 223.57 220.51 209.83 210.84 186.81"/><polygon class="cls-8" points="264.36 225.36 251.98 226.72 249.67 219.67 216.16 162.39 220.9 143.26 234.28 146.86 259.85 173 264.36 225.36"/><polygon class="cls-7" points="269.85 172.73 264.36 225.36 234.28 146.86 240.92 141.2 249.7 147.84 269.85 172.73"/><polygon class="cls-9" points="110.57 317.9 93.88 382.7 133.66 394.7 158.28 363.44 137.56 325.21 110.57 317.9"/><polygon class="cls-10" points="188.53 390.76 133.66 394.7 136.64 336.56 137.56 325.21 187.04 324.72 212.1 354.67 188.53 390.76"/><polygon class="cls-9" points="250.52 398.76 188.53 390.76 187.03 324.72 241.73 318.06 275.71 357.98 250.52 398.76"/><polygon class="cls-10" points="300.98 377.26 281.85 317.2 241.73 318.06 247.06 339.21 250.52 398.76 300.98 377.26"/><polygon class="cls-11" points="190.9 207.12 205.38 202.54 264.36 225.36 240.85 247.27 221.02 238.69 218.78 233.84 195.78 218.68 190.9 207.12"/><polygon class="cls-7" points="207.18 199.52 191.65 225.67 180.08 208.31 175.61 199.73 187.14 195.15 207.18 199.52"/><polygon class="cls-12" points="171.64 219.84 171.64 192.09 167.4 193.45 167.4 219.94 169.4 221.63 171.64 219.84"/><polygon class="cls-11" points="85.61 200.68 73.43 173.34 83.98 164.09 88.86 167.95 132.1 161.91 138.48 167.48 124.74 180.91 85.61 200.68"/><polygon class="cls-7" points="142.07 189.04 128.64 198.17 85.61 200.68 120.98 177.14 138.47 167.48 149.73 164.7 145.73 177.48 142.07 189.04"/><polygon class="cls-12" points="153.6 176.16 172.22 176.43 182.63 176.6 179.91 189.49 161.03 196.2 155.87 189.55 153.6 176.16"/><polygon class="cls-8" points="164.45 176.33 169.4 176.4 169.67 182.74 166.08 186.54 164.01 182.74 164.45 176.33"/><polygon class="cls-8" points="156.72 182.74 179.13 182.74 177.24 190.43 162.93 195.56 158.24 189.49 156.72 182.74"/><polygon class="cls-10" points="157.02 237.1 156.85 230.18 218.78 233.84 230 240.69 193.99 248.12 157.02 237.1"/><polygon class="cls-10" points="137.9 258.1 158.96 279.96 136.64 336.56 100.09 316.44 108.36 264.66 137.9 258.1"/><polygon class="cls-6" points="157.02 237.1 167.44 237.49 154.51 279.07 141.49 276.58 108.36 264.66 157.02 237.1"/><polygon class="cls-6" points="187.27 334.87 136.64 336.56 141.49 276.58 167.44 264.42 205.25 278.79 187.27 334.87"/><polygon class="cls-2" points="141.49 276.58 167.44 237.49 184.25 238.14 205.25 278.79 203.78 282.43 185.78 285.14 141.49 276.58"/><polygon class="cls-10" points="247.06 339.21 187.27 334.87 185.78 285.14 204.87 257.45 249.84 279.41 247.06 339.21"/><polygon class="cls-6" points="185.78 285.14 184.25 238.14 217.35 239.39 244.85 273.27 230.92 278.37 185.78 285.14"/><polygon class="cls-6" points="291.25 311.27 247.06 339.21 230.92 278.37 237.73 264.47 276.73 261.56 291.25 311.27"/><polygon class="cls-2" points="230.92 278.37 217.35 239.39 230 239.86 276.73 261.56 230.92 278.37"/><polygon class="cls-7" points="98.8 138.45 131.32 134.79 149.16 130.55 152.24 142.69 147.6 144.28 129.52 152.79 88.86 167.95 73.43 173.34 98.8 138.45"/><polygon class="cls-13" points="117.25 146.89 85.27 157.1 85.1 169.27 110.67 165.61 115.89 158.35 120.91 152.28 117.25 146.89"/><polygon class="cls-12" points="130.3 149.47 117.25 146.89 115.89 158.35 124.81 158.93 132.47 152.52 130.3 149.47"/><polygon class="cls-14" points="85.1 169.27 90.39 183.55 114.43 176.36 120.19 168.16 121.82 161.31 115.99 158.32 85.1 169.27"/><polygon class="cls-8" points="129.25 187.86 138.47 167.48 132.1 161.91 120.19 168.16 120.16 175.99 129.25 187.86"/><polygon class="cls-15" points="100.39 190.84 90.39 183.55 120.19 168.16 126.13 169.21 127.89 174.12 100.39 190.84"/><polygon class="cls-13" points="134.17 163.07 128.91 167.61 120.19 168.16 115.99 158.32 129.52 152.79 136.37 157.3 134.17 163.07"/><polygon class="cls-14" points="127.89 174.12 134.71 164.19 136.95 161.75 132.1 161.91 120.19 168.16 127.89 174.12"/><polygon class="cls-16" points="138.47 167.48 132.1 161.91 139.02 154.32 155.67 154.08 149.73 164.7 138.47 167.48"/><polygon class="cls-17" points="167.4 219.94 160.01 225.06 178.22 225.06 171.64 219.84 167.4 219.94"/><polygon class="cls-16" points="214.74 137.06 185.41 154.22 204.81 83.34 219.22 90.09 225.15 119.32 214.74 137.06"/><polygon class="cls-1" points="145.8 28.95 147.14 96.93 167.08 121.44 198.21 121.46 218.78 96.93 230.51 35.56 198.33 12.37 145.8 28.95"/><polygon class="cls-16" points="148.99 57.84 163.19 63.98 175.03 86.56 180.19 88.84 185.38 86.56 198.94 63.98 216.16 57.47 205.28 53.3 188.9 55.67 182.73 63.06 180.35 65.44 177 63.06 172.32 55.53 156.63 54.31 148.99 57.84"/><polygon class="cls-18" points="177 63.06 175.03 86.56 185.38 86.56 182.73 63.06 177 63.06"/><polygon class="cls-19" points="179.91 91.07 175.03 86.56 185.38 86.56 179.91 91.07"/><polygon class="cls-2" points="164.18 98.53 179.47 99.01 197.28 98.43 183.94 103.76 175.03 103.76 164.18 98.53"/><polygon class="cls-2" points="164.43 98.53 179.72 99.01 197.53 98.43 185.38 104.75 174.23 104.75 164.43 98.53"/><polygon class="cls-6" points="164.18 98.53 169.57 98.25 176.88 96.96 179.57 97.75 182.52 96.93 191.61 98.17 197.28 98.43 179.34 100.19 164.18 98.53"/><polygon class="cls-20" points="166.28 35.97 163.33 26.81 144.75 21.28 140.88 31.73 145.84 33.83 153.02 37.39 166.28 35.97"/><polygon class="cls-5" points="183.1 26.03 184.6 30.2 166.28 35.97 144.75 21.28 159.43 18 183.1 26.03"/><polygon class="cls-5" points="202.26 35.26 184.6 30.2 183.1 26.03 205.65 17.66 224.75 20.1 219.15 27.36 202.26 35.26"/><polygon class="cls-20" points="202.26 35.26 218.23 33.19 224.95 37.36 229.43 31.76 231.22 24.91 224.75 20.1 202.26 35.26"/><polygon class="cls-5" points="157.7 1.24 143.76 13.79 161.5 23.96 184.94 20.88 173.81 6.77 157.7 1.24"/><polygon class="cls-21" points="176.42 1 157.7 1.24 172.32 11.79 184.94 20.88 188.56 12.97 182.8 6.67 176.42 1"/><polygon class="cls-20" points="194.63 1 182.8 6.67 184.94 20.88 214.23 11.28 224.44 1 194.63 1"/><polygon class="cls-21" points="239.29 9.18 224.44 1 184.94 20.88 222.03 17.49 239.29 9.18"/><polygon class="cls-21" points="237.7 30.81 238.18 23.35 232.48 18.03 224.75 20.1 229.43 31.76 234.58 35.53 237.7 30.81"/><polygon class="cls-5" points="243.84 30.81 240.07 15.89 232.48 18.03 237.7 30.81 243.23 34.78 243.84 30.81"/><polygon class="cls-21" points="222.78 55.2 218.23 33.19 229.43 31.76 234.95 37.97 236.04 54.24 228.34 59.98 222.78 55.2"/><polygon class="cls-20" points="244.55 50.21 239.39 56.96 236.04 54.24 229.43 31.76 237.7 30.81 245.84 38.38 244.55 50.21"/><polygon class="cls-21" points="254.48 43.12 250.75 53.3 244.55 50.21 240.31 38.17 237.7 30.81 243.84 30.81 254.48 43.12"/><polygon class="cls-20" points="218.78 68.69 222.78 55.2 236.04 54.24 236.41 63.67 227.77 70.08 223.08 75.95 218.78 68.69"/><polygon class="cls-21" points="239.84 72.46 235.7 77 227.77 70.08 236.04 54.24 244.55 50.21 248.82 62.62 239.84 72.46"/><polygon class="cls-5" points="254.72 68.9 247.5 76.02 239.84 72.46 244.55 50.21 254.48 43.12 254.72 68.9"/><polygon class="cls-21" points="218.78 68.69 219.05 95.89 226.74 97.18 232.01 91.85 235.56 80.97 227.77 70.08 218.78 68.69"/><polygon class="cls-5" points="243.36 89.75 245.91 77.27 239.84 72.46 227.76 70.08 232 91.85 237.12 98.5 243.36 89.75"/><polygon class="cls-21" points="254.72 68.9 239.84 72.46 243.36 89.75 251.47 86.39 254.72 68.9"/><polygon class="cls-5" points="252.62 95.89 254.72 68.9 243.36 89.75 238.82 96.13 242.89 104.64 251.84 106.57 252.62 95.89"/><polygon class="cls-21" points="232.01 91.85 228.03 98.36 230.85 107.25 237.26 111.96 242.89 104.64 243.36 89.75 232.01 91.85"/><polygon class="cls-20" points="219.05 95.89 218.78 105.11 225.02 111.66 230.85 107.25 231.56 97.89 232.01 91.85 219.05 95.89"/><polygon class="cls-5" points="214.74 137.06 218.78 105.11 225.73 106.33 230.85 107.25 235.09 119.66 227.29 134.68 224.51 140.89 214.74 137.06"/><polygon class="cls-21" points="240.55 128.78 238.34 137.94 227.29 134.68 230.85 107.25 242.89 104.64 249.23 115.36 240.55 128.78"/><polygon class="cls-19" points="174.27 121.46 185.41 154.22 206.82 121.46 174.27 121.46"/><polygon class="cls-20" points="234.31 146.86 237.42 139.5 227.29 134.68 214.74 137.06 220.9 143.26 234.31 146.86"/><polygon class="cls-5" points="249.7 147.84 234.31 146.86 227.29 134.68 240.55 128.78 248.76 129.29 249.7 147.84"/><polygon class="cls-20" points="260.08 115.42 252.62 95.89 242.89 104.64 240.55 128.78 250.31 129.36 260.08 115.42"/><polygon class="cls-21" points="249.7 147.84 260.08 115.42 240.55 128.78 249.7 147.84"/><polygon class="cls-21" points="142.07 23.42 128.03 49.4 136.13 49.33 145.83 33.83 144.98 23.86 142.07 23.42"/><polygon class="cls-20" points="139.63 65.71 133.83 57.33 134.88 43.4 145.83 33.83 146.46 62.31 142.99 68.93 139.63 65.71"/><polygon class="cls-5" points="131.83 68.79 135.63 71.27 139.63 65.71 137.39 55.23 134.88 43.4 128.03 49.4 131.83 68.79"/><polygon class="cls-21" points="124.98 87.72 131.83 68.79 139.63 65.71 141.73 80.22 135.15 88.9 130.74 92.73 124.98 87.72"/><polygon class="cls-5" points="146.94 86.79 141.12 91.65 135.15 88.9 139.63 65.71 146.46 62.31 146.94 86.79"/><polygon class="cls-21" points="133.02 108.2 124.98 87.72 135.15 88.9 144.17 98.94 143.76 108.44 137.12 111.45 133.02 108.2"/><polygon class="cls-20" points="153.76 105.06 150.18 110.71 143.76 108.44 139.69 99.18 135.15 88.9 146.94 86.79 147.14 96.93 153.76 105.06"/><polygon class="cls-20" points="125.32 120.95 133.01 108.2 143.76 108.44 137.39 122.14 132.68 125.8 125.32 120.95"/><polygon class="cls-5" points="167.08 121.44 150.99 127.73 137.39 122.14 143.76 108.44 148.61 107.04 153.76 105.06 167.08 121.44"/><polygon class="cls-21" points="157.97 143.91 166.69 140.89 167.08 121.44 148.21 121.69 148.72 130.92 157.97 143.91"/><polygon class="cls-20" points="151.84 146.01 157.97 143.91 148.21 121.69 137.39 122.14 136.31 132 139.69 138.89 149.8 142.96 151.84 146.01"/><polygon class="cls-5" points="125.32 120.98 129.86 134.96 139.69 138.89 137.39 122.14 125.32 120.98"/><polygon class="cls-21" points="188.9 55.67 205.28 50.5 216.16 57.47 205.28 53.3 190.26 56.5 188.9 55.67"/><polygon class="cls-21" points="172.32 55.53 156.18 50.79 148.99 57.84 156.63 54.31 171.07 56.13 172.32 55.53"/><path class="cls-4" d="M163.2,60.38a3.6,3.6,0,1,1-3.6,3.6,3.6,3.6,0,0,1,3.6-3.6"/><path class="cls-4" d="M198.94,60.45A3.53,3.53,0,1,1,195.41,64a3.53,3.53,0,0,1,3.53-3.53"/><polygon class="cls-2" points="143.76 13.79 142.07 23.42 184.6 30.2 240.78 18.81 239.29 9.18 184.94 20.88 143.76 13.79"/><polygon class="cls-1" points="130.3 149.47 129.52 152.79 132.1 161.91 141.59 158.76 155.67 154.08 156.52 148.18 151.84 146.01 150.51 143.26 130.3 149.47"/><polygon class="cls-13" points="166.69 140.89 151.84 146.01 155.67 154.08 168.62 149.54 166.69 140.89"/><polygon class="cls-2" points="143.9 150.35 144.54 148.69 147.02 147.98 148.31 149 147.9 152.11 145.43 153.98 143.9 150.35"/><polygon class="cls-2" points="149.09 153.1 146.21 154.22 145.43 153.98 148.31 149 149.29 151.91 149.09 153.1"/><polygon class="cls-1" points="179.91 189.49 187.14 195.15 180.09 208.31 167.4 212.61 161.84 203.05 167.4 190.26 179.91 189.49"/><polygon class="cls-16" points="156.28 198.27 167.4 190.27 167.4 212.61 158.07 208.88 156.28 198.27"/><polygon class="cls-12" points="169.23 140.01 165.6 138.11 162.55 142.31 164.55 150.96 169.1 153.34 171.6 149.33 169.23 140.01"/><polygon class="cls-14" points="168.38 142.96 166.62 142.04 165.64 143.91 166.38 148.18 168.32 149.4 169.54 147.47 168.38 142.96"/><polygon class="cls-22" points="168.32 149.4 169.4 176.4 164.45 176.33 166.38 148.18 168.32 149.4"/><polygon class="cls-16" points="182.63 176.6 185.41 165.38 176.38 176.5 182.63 176.6"/></svg>