<svg id="Layer_1" data-name="Layer 1" xmlns="http://www.w3.org/2000/svg" xmlns:xlink="http://www.w3.org/1999/xlink" viewBox="0 0 400 400"><defs><style>.cls-1,.cls-23{fill:none;}.cls-2{fill:#51362a;}.cls-18,.cls-3{fill:#755446;}.cls-4{fill:#8f759f;}.cls-5{fill:#a587b8;}.cls-16,.cls-6{fill:#916d5a;}.cls-7{fill:#474748;}.cls-17,.cls-8{fill:#98796a;}.cls-11,.cls-9{fill:#2b2b2b;}.cls-10{fill:#4f5353;}.cls-11{opacity:0.1;}.cls-12{fill:#cecdcc;}.cls-13{fill:#ebebea;}.cls-14{fill:#795d88;}.cls-15{fill:#594265;}.cls-16,.cls-17,.cls-18,.cls-20,.cls-21{fill-rule:evenodd;}.cls-19{fill:#6f7273;}.cls-20{fill:#424242;}.cls-21{fill:#5e5f5f;}.cls-22{clip-path:url(#clip-path);}.cls-23{stroke:#020202;stroke-miterlimit:10;stroke-width:2px;}.cls-24{fill:#dcdcdb;}</style><clipPath id="clip-path"><polygon class="cls-1" points="138.11 134.27 125.3 93.6 91.47 107.07 103.92 143.49 138.11 134.27"/></clipPath></defs><title>analysts_ENTJ_famous_real_malcom_x</title><polygon class="cls-2" points="129.25 163.47 110.49 135.88 93.4 163.07 117.01 178.95 129.25 163.47"/><polygon class="cls-3" points="118.23 141.81 117.08 164.69 122.39 172.4 129.25 163.47 124.22 140.31 118.23 141.81"/><polygon class="cls-4" points="130.21 160.21 113.97 180.82 141.72 225.28 159 208.21 160.19 197.13 149.09 178.38 143.52 178.93 130.21 160.21"/><polygon class="cls-5" points="160.26 146.16 137.53 172.4 160.19 197.13 164.05 184.59 160.26 146.16"/><polygon class="cls-3" points="204.61 149.88 203.91 111.48 230.07 54.8 251.81 43.01 238.39 126.94 204.61 149.88"/><polygon class="cls-2" points="184.92 129.97 224.3 129.68 197.69 152.25 184.92 129.97"/><polygon class="cls-6" points="176.85 130.06 166.78 103.04 163.8 56.7 165.8 34.5 176.43 25.56 187.3 29.43 204.94 29.91 228.3 23.66 230.07 54.8 229.79 105.04 206.08 129.77 176.85 130.06"/><polygon class="cls-6" points="238.31 89.86 237.59 62.9 254.12 59.35 250.55 86.99 238.31 89.86"/><polygon class="cls-2" points="242.46 69.39 248.01 67.36 243.72 82.64 242.46 69.39"/><polygon class="cls-7" points="237.42 59.99 230.07 54.8 228.86 45.25 251.7 34.5 251.81 44.01 250.56 60.12 241.94 61.96 237.42 59.99"/><polygon class="cls-3" points="180.05 90.83 178.13 67.22 164.59 62.84 170.51 60.59 186.46 65.79 188.27 69.39 180.05 90.83"/><polygon class="cls-8" points="180.05 90.83 188.27 69.39 195.52 69.39 203.7 90.86 180.05 90.83"/><polygon class="cls-2" points="180.05 90.83 191.38 95.1 203.7 90.86 180.05 90.83"/><polygon class="cls-7" points="186.46 65.79 186.46 60.84 172.68 54.7 164.59 59.99 164.59 62.84 170.51 60.59 186.46 65.79"/><polygon class="cls-7" points="196.6 61.24 196.97 65.79 215.81 60.24 226.22 64.08 227.3 61.24 215.69 54.82 196.6 61.24"/><polygon class="cls-3" points="203.7 90.86 210.5 67.96 225.99 64.14 215.81 60.24 196.97 65.79 195.52 69.39 203.7 90.86"/><rect class="cls-7" x="185.85" y="66.63" width="10.39" height="1.33"/><polygon class="cls-7" points="161.76 81.52 159.52 65.86 160.51 65.72 162.63 80.5 183.08 80.28 186.37 67.84 187.34 68.09 183.86 81.27 161.76 81.52"/><polygon class="cls-7" points="223.75 81.51 201.22 81.51 195.78 68.15 196.7 67.78 201.89 80.51 222.88 80.51 224.99 64.01 225.99 64.14 223.75 81.51"/><circle class="cls-9" cx="178.13" cy="67.22" r="3.2"/><circle class="cls-9" cx="211.09" cy="67.17" r="3.2"/><polygon class="cls-9" points="165.8 34.5 176.43 25.56 191.37 0.83 170.27 14.69 165.8 34.5"/><polygon class="cls-9" points="228.86 45.25 228.3 34.5 248.51 24.56 251.7 34.5 228.86 45.25"/><polygon class="cls-7" points="228.3 34.5 219.56 27.73 234.86 8.37 248.51 24.56 228.3 34.5"/><polygon class="cls-7" points="176.43 25.56 191.37 0.83 220.84 0.28 204.94 29.91 187.3 29.43 176.43 25.56"/><polygon class="cls-10" points="204.94 29.91 220.84 0.28 234.86 8.37 219.56 27.73 204.94 29.91"/><polygon class="cls-9" points="194.91 68.33 196.97 69.39 200.95 62.9 217.26 62.41 224.52 67.36 226.22 67.36 227.02 65.19 237.59 62.9 241.94 61.96 240.46 59.99 224.16 59.99 202.04 59.99 196.24 62.9 194.91 68.33"/><polygon class="cls-9" points="188.63 67.36 185.01 62.9 179.21 60.72 155.91 60.72 155.91 65.31 158.33 65.67 159.29 68.2 160.8 68.2 165.8 63.49 179.09 62.9 183.92 65.55 185.49 69.39 188.63 67.36"/><polygon class="cls-11" points="74.29 389.96 214.26 376.52 288.06 386.38 213.04 400 115.85 399.12 74.29 389.96"/><polygon class="cls-7" points="250.38 368.53 255.81 387.6 241.97 388.5 223.99 387.6 226.75 371.13 237.83 364.54 250.38 368.53"/><polygon class="cls-7" points="203.74 373.39 203.74 385 183.72 386.38 158.53 385 180.15 364.47 191.04 362.13 203.74 373.39"/><polygon class="cls-12" points="164.41 170.06 178.59 139.7 212.69 159.25 242.46 138.41 254.81 252.24 205.38 257.21 182.37 246.87 167.61 223.62 164.41 170.06"/><polygon class="cls-13" points="178.59 139.7 183.92 129.97 204.74 146.16 197.59 157.96 178.59 139.7"/><polygon class="cls-7" points="201.15 165.42 197.59 157.96 204.74 146.16 212.69 159.25 210.13 166.06 203.46 177.17 201.15 165.42"/><polygon class="cls-13" points="242.46 138.41 212.69 159.25 204.74 146.16 238.39 126.94 242.46 138.41"/><polygon class="cls-9" points="201.15 165.42 199.12 236.5 206.82 249 215.61 236.08 210.13 166.06 201.15 165.42"/><polygon class="cls-14" points="173.75 321.77 162.81 265.69 203.46 258.68 214.32 268.23 220.72 274.61 215.24 294.03 210.13 327.5 189.67 344.07 173.75 321.77"/><polygon class="cls-15" points="180.15 364.47 173.75 321.77 210.13 327.5 203.74 373.39 180.15 364.47"/><polygon class="cls-14" points="220.36 328.14 215.24 294.03 205.38 272.7 216.89 257.4 254.03 266.85 267.75 270.85 260.32 317.94 240.17 346.62 220.36 328.14"/><polygon class="cls-15" points="226.75 371.13 220.36 328.14 260.32 317.94 250.38 368.32 226.75 371.13"/><polygon class="cls-15" points="246.57 249.57 165.81 249.49 182.37 247.52 162.81 269.24 215.24 294.03 267.75 270.85 246.57 249.57 246.57 249.57"/><polygon class="cls-14" points="160.25 146.16 178.59 139.7 177.95 172.65 192.33 238.63 190.23 272.06 158.66 268.19 159.3 193.26 160.25 146.16"/><polygon class="cls-4" points="166.44 181.05 192.33 238.63 178.59 139.7 166.44 161.66 173.48 167.48 166.44 181.05"/><rect class="cls-9" x="223.99" y="387.6" width="31.82" height="4.71"/><rect class="cls-9" x="158.53" y="385" width="45.21" height="4.46"/><polygon class="cls-14" points="242.46 138.41 239.79 174.59 223.96 232.9 226.37 250.78 231.83 274.69 267.46 272.99 273.86 209.35 267.47 146.75 242.46 138.41"/><polygon class="cls-16" points="237.24 279.13 243.91 276.02 246.87 268.14 264.16 279.25 256.08 286.8 237.24 279.13"/><polygon class="cls-17" points="256.38 248.75 258.24 252.62 246.87 268.14 243.91 276.02 237.24 279.13 236.8 257.62 256.38 248.75"/><polygon class="cls-18" points="257.24 255.62 265.75 260.06 264.16 279.25 246.87 268.14 251.7 263.18 257.24 255.62"/><polygon class="cls-4" points="251.93 175.23 223.96 232.9 242.46 138.41 255.77 157.14 248.1 162.96 251.93 175.23"/><polygon class="cls-5" points="292.24 216.45 267.47 146.75 259.8 208.7 275.14 222.91 292.24 216.45"/><polygon class="cls-4" points="245.54 252.04 267.75 270.85 292.24 216.45 259.8 208.7 245.54 252.04"/><rect class="cls-19" x="197.59" y="206.96" width="13.88" height="1.73"/><polygon class="cls-20" points="115.95 393.95 91.93 387.88 91.98 383.73 139.72 383.07 140.23 387.37 115.95 393.95"/><polygon class="cls-21" points="116.09 388.57 91.98 383.73 110.43 377.73 119.44 377.39 139.72 383.07 116.09 388.57"/><polygon class="cls-20" points="117.42 265.52 113.42 268.52 110.39 381.56 119.49 381.3 119.44 377.39 119.39 373.36 120.18 269.01 117.42 265.52"/><polygon class="cls-21" points="113.42 268.35 114.79 133.96 119.17 129.7 121.1 130.71 120.18 269.01 113.42 268.35"/><polygon class="cls-19" points="138.11 134.27 125.3 93.6 91.47 107.07 103.92 143.49 138.11 134.27"/><g class="cls-22"><line class="cls-23" x1="118.43" y1="105.66" x2="92.78" y2="114.76"/><line class="cls-23" x1="119.86" y1="109.69" x2="94.21" y2="118.79"/><line class="cls-23" x1="121.29" y1="113.72" x2="95.64" y2="122.82"/><line class="cls-23" x1="122.72" y1="117.75" x2="97.07" y2="126.85"/><line class="cls-23" x1="124.15" y1="121.78" x2="98.5" y2="130.88"/><line class="cls-23" x1="125.58" y1="125.81" x2="99.93" y2="134.91"/><line class="cls-23" x1="127" y1="129.84" x2="101.36" y2="138.93"/><line class="cls-23" x1="128.84" y1="101.49" x2="122.83" y2="103.62"/><line class="cls-23" x1="130.26" y1="105.52" x2="124.26" y2="107.65"/><line class="cls-23" x1="131.69" y1="109.54" x2="125.69" y2="111.68"/><line class="cls-23" x1="133.12" y1="113.57" x2="127.12" y2="115.71"/><line class="cls-23" x1="134.55" y1="117.6" x2="128.54" y2="119.73"/><line class="cls-23" x1="137.97" y1="120.93" x2="129.97" y2="123.76"/><line class="cls-23" x1="138.16" y1="125.39" x2="131.4" y2="127.79"/></g><polygon class="cls-6" points="118.23 141.81 110.76 136.21 93.6 163.4 117.08 164.69 118.23 141.81"/><polygon class="cls-7" points="178.44 105.46 187.75 100.95 199.41 101.73 208.02 107.29 194.03 115.54 184.11 110.15 178.44 105.46"/><polygon class="cls-3" points="178.44 105.46 187.63 98.14 191.92 99.53 196.83 98.45 208.02 107.29 196.62 103.01 187.6 102.58 178.44 105.46"/><polygon class="cls-24" points="178.44 105.46 189.16 108.46 197.01 108.38 204.48 106.96 204.48 105.96 196.39 111.04 189.12 111.09 178.44 105.46"/><polygon class="cls-3" points="180.05 104.68 189.12 111.09 196.39 111.04 204.48 105.96 208.02 107.29 196.28 116.28 186.64 115.81 177.43 106.16 180.05 104.68"/><polygon class="cls-24" points="183.67 103.81 200.9 104.62 196.62 103.01 187.6 102.58 183.67 103.81"/></svg>