<svg id="Layer_1" data-name="Layer 1" xmlns="http://www.w3.org/2000/svg" viewBox="0 0 400 400"><defs><style>.cls-1,.cls-10{fill:#2b2b2b;}.cls-1{opacity:0.2;}.cls-2{fill:#543042;}.cls-3{fill:#f4cab2;}.cls-4{fill:#fbe3d4;}.cls-5{fill:#c18f7c;}.cls-6{fill:#593e35;}.cls-7{fill:#95637c;}.cls-8{fill:#b2879c;}.cls-9{fill:#734d61;}.cls-11{fill:#fff0e8;}.cls-12{fill:#795d88;}.cls-13{fill:#594265;}.cls-14{fill:#8a6651;}.cls-15{fill:#4f5353;}.cls-16{fill:#474748;}.cls-17{fill:#fff;}.cls-18{fill:#dcdcdb;}.cls-19{fill:#a587b8;}.cls-20{fill:#8f759f;}.cls-21{fill:#b38b2e;opacity:0.45;}.cls-22{fill:#f0bc67;}</style></defs><title>analysts_ENTJ_famous_fictional_Raymond_Reddington_The_Blacklist</title><polygon class="cls-1" points="133.1 381.27 204.05 366.07 267.99 383.49 228.95 400 133.1 381.27"/><polygon class="cls-2" points="126.36 69.7 140.61 82.5 162.18 88.06 162.18 64.86 126.36 69.7"/><polygon class="cls-2" points="173.29 314.53 255.14 319.5 263.32 279.9 167.02 280.55 173.29 314.53"/><polygon class="cls-2" points="285.01 62.97 276.96 76.46 251.09 84.92 212.92 47.23 285.01 62.97"/><polygon class="cls-3" points="202.93 165.14 226.45 186.64 260.52 69.7 238.17 53.67 182.77 142.97 202.93 165.14"/><polygon class="cls-4" points="182.77 142.97 212.92 142.97 232.01 126 246.01 35.15 156.63 63.29 167.98 124.79 182.77 142.97"/><polygon class="cls-3" points="207.04 99.9 215.22 76.26 228.95 71.39 219.93 64.86 202.05 69.7 199.72 76.26 207.04 99.9"/><polygon class="cls-3" points="186.91 99.42 177.52 76.26 164.03 70.02 167.82 65.27 185.21 68.01 192.01 76.26 186.91 99.42"/><polygon class="cls-3" points="157.03 65.67 240.64 70 243.22 53.26 157.03 65.67"/><polygon class="cls-4" points="259.67 72.67 247.35 66.73 240.92 97.61 251.34 102.29 259.67 72.67"/><polygon class="cls-5" points="249.77 76.46 254.48 78.4 248.19 90.24 249.77 76.46"/><polygon class="cls-5" points="240.92 97.61 247.78 113.43 251.34 102.29 240.92 97.61"/><polygon class="cls-6" points="202.05 69.7 202.05 65.35 221.65 62.69 230.64 70.1 228.95 71.39 221.22 66.32 202.05 69.7"/><polygon class="cls-6" points="185.13 68.73 185.62 64.3 168.54 62.21 162.75 67.61 164.03 70.02 169.03 66.12 185.13 68.73"/><polygon class="cls-7" points="152.63 56.41 159.28 38.05 211.95 29.83 212.92 47.23 152.63 56.41"/><polygon class="cls-8" points="159.28 38.05 174.02 0 211.71 0 211.95 29.83 159.28 38.05"/><polygon class="cls-9" points="211.71 0 239.01 3.5 252.3 38.05 211.95 29.83 211.71 0"/><polygon class="cls-2" points="211.95 29.83 212.92 47.23 262.6 58.08 252.3 38.05 211.95 29.83"/><polygon class="cls-9" points="126.36 69.7 152.63 56.41 212.92 47.23 270.34 59.76 126.36 69.7"/><polygon class="cls-5" points="182.77 142.97 202.93 165.14 229.18 142.97 212.92 142.97 182.77 142.97"/><circle class="cls-10" cx="177.52" cy="76.26" r="3.58"/><circle class="cls-10" cx="215.22" cy="76.26" r="3.58"/><polygon class="cls-5" points="186.91 99.42 207.04 99.9 197.54 105.86 186.91 99.42"/><polygon class="cls-11" points="186.91 99.42 192.01 76.26 199.72 76.26 207.04 99.9 186.91 99.42"/><polygon class="cls-5" points="184.06 119.22 184.91 123.02 214.32 118.1 213.19 114.38 184.06 119.22"/><polygon class="cls-3" points="183.77 100.55 175.19 120.91 186.91 105.86 183.77 100.55"/><polygon class="cls-3" points="210.26 100.55 218.24 110.72 208.73 104.18 210.26 100.55"/><polygon class="cls-3" points="217.32 84.03 220.49 87.42 226.93 84.92 217.32 84.03"/><polygon class="cls-3" points="178.02 84.03 175.71 87.42 169.59 85.73 178.02 84.03"/><polygon class="cls-5" points="259.67 72.67 260.52 69.7 248.74 61.26 221.65 62.69 259.67 72.67"/><polygon class="cls-12" points="151.79 274.95 168.83 327.62 185.28 339.43 201.19 336.07 202.93 302.36 194.02 275.4 151.79 274.95"/><polygon class="cls-12" points="202.93 302.36 208.75 334.25 225.44 346.31 243.13 344.56 254.23 282.75 217.26 287.82 202.93 302.36"/><polygon class="cls-13" points="208.75 334.25 244.84 335.02 238.95 371.03 222.77 370.58 214.25 363.1 208.75 334.25"/><polygon class="cls-13" points="199.24 366.1 201.53 330.81 168.83 327.62 177.58 355.96 185.49 364.31 199.24 366.1"/><polygon class="cls-14" points="243.22 85.73 238.74 84.34 240.76 71.04 236.27 61.92 248.74 61.26 260.52 69.7 259.67 72.67 246.81 69.3 243.22 85.73"/><polygon class="cls-15" points="177.58 355.96 159.16 374.16 177.58 376.19 199.24 374.16 199.24 366.1 177.58 355.96"/><rect class="cls-16" x="159.15" y="374.16" width="40.08" height="6.85"/><polygon class="cls-15" points="214.25 363.1 208.82 383.49 239.2 383.49 238.95 371.03 214.25 363.1"/><rect class="cls-16" x="208.82" y="383.49" width="30.37" height="6.85"/><polygon class="cls-13" points="179.22 290.62 202.93 302.36 194.06 273.69 179.22 290.62"/><polygon class="cls-7" points="273.29 160.68 287.98 227.8 253.53 253.73 273.29 160.68"/><polygon class="cls-17" points="184.06 144.39 195.73 224.62 237.03 150.31 203.45 163.23 184.06 144.39"/><polygon class="cls-18" points="203.49 164.23 183.8 176.67 197.42 209.4 213.77 186.52 203.49 164.23"/><polygon class="cls-15" points="209.88 178.07 203.49 164.23 191.23 171.97 198.56 184.7 193.91 192.07 196.57 215.49 206.81 197.65 203.01 185.77 209.88 178.07"/><polygon class="cls-19" points="184.06 144.39 158.66 155.45 151.79 274.95 179.22 290.62 193.23 278.69 199.79 251.73 197.42 209.4 184.06 144.39"/><polygon class="cls-20" points="237.03 150.31 197.42 209.4 193.23 278.69 202.93 302.36 254.23 282.75 273.29 160.68 237.03 150.31"/><polygon class="cls-13" points="207.4 222.63 210.78 228.72 205.92 232.53 202.54 227.58 207.4 222.63"/><polygon class="cls-13" points="205.67 243.53 209.05 249.62 204.19 253.42 200.81 248.48 205.67 243.53"/><polygon class="cls-13" points="204.71 265.45 208.09 271.54 203.23 275.34 199.85 270.39 204.71 265.45"/><polygon class="cls-2" points="258.81 154.26 273.29 160.68 262.54 224.26 279.61 307.19 255.14 319.5 228.03 205.49 258.81 154.26"/><polygon class="cls-7" points="228.03 205.49 255.14 319.5 267.99 313.03 228.03 205.49"/><polygon class="cls-2" points="237.03 150.31 241.81 133.93 240.53 153.06 237.03 150.31"/><polygon class="cls-8" points="262.54 224.26 287.98 227.8 258.59 265.45 248 244.85 262.54 224.26"/><polygon class="cls-7" points="140.74 160.11 123.97 225.32 159.31 251.89 140.74 160.11"/><polygon class="cls-2" points="155.83 152.48 140.74 160.11 149.79 221.77 146.24 304.38 173.29 314.53 177.26 202.12 155.83 152.48"/><polygon class="cls-2" points="184.06 144.39 175.46 133.93 172.86 149.27 184.06 144.39"/><polygon class="cls-8" points="149.79 221.77 123.97 225.32 151.51 260.53 160.57 240 149.79 221.77"/><polygon class="cls-9" points="149.46 265.45 162.02 232.53 165.48 239.63 156.63 271.85 149.46 265.45"/><polygon class="cls-9" points="245.3 241.15 258.32 269.27 263.42 266.37 248 236.65 245.3 241.15"/><polygon class="cls-7" points="172.86 130.77 148.35 156.26 177.26 202.12 179.82 139.24 172.86 130.77"/><polygon class="cls-7" points="241.81 133.93 244.1 126.07 264.13 156.62 228.03 205.49 241.81 133.93"/><polygon class="cls-21" points="160.91 69.37 157.51 74.09 159.45 87.36 167.38 92.03 183.48 91.99 190.7 79.9 190.54 71.37 191.41 68.88 160.91 69.37"/><polygon class="cls-21" points="235.15 68.96 239.49 71.7 238.23 84.34 228.71 91.88 209.96 91.48 200.92 80.55 200.22 71.93 200.13 68.37 235.15 68.96"/><path class="cls-22" d="M240.76,71,235,67.27l-74.85,1.79-2.67,5,1.93,13.19,7.57,5.5,17.54-.13L191,81.25l.49-5.22,8.77,0,.87,5.88L210,91.48l18.12.55,10.66-7.69Zm-51.28,10.1-5.69,10.34H167.43l-6.55-5-2-11.35,2.41-4.65,29.37-1.2Zm2.21-6.86.46-5,7.29-.24.44,5ZM227.9,91.06l-17.34-.7-8.15-8.81L200.9,68.92l33.15.11,4.72,3-1.49,11.64Z"/><polygon class="cls-22" points="259.67 72.67 246.81 69.3 237.75 69.3 239.07 71.92 246.75 71.37 259.43 73.69 259.67 72.67"/><polygon class="cls-3" points="196.97 108.12 195.79 113.43 200.13 113.43 199.72 108.12 196.97 108.12"/></svg>