<svg id="Layer_1" data-name="Layer 1" xmlns="http://www.w3.org/2000/svg" viewBox="0 0 400 400"><defs><style>.cls-1{fill:#f4cab2;}.cls-1,.cls-10,.cls-11,.cls-12,.cls-13,.cls-14,.cls-15,.cls-16,.cls-17,.cls-18,.cls-19,.cls-2,.cls-20,.cls-21,.cls-23,.cls-24,.cls-25,.cls-26,.cls-27,.cls-3,.cls-4,.cls-5,.cls-6,.cls-7,.cls-8,.cls-9{fill-rule:evenodd;}.cls-2{fill:#95637c;}.cls-3{fill:#fbe3d4;}.cls-4{fill:#c18f7c;}.cls-5{fill:#c1b170;}.cls-26,.cls-6{fill:#2b2b2b;}.cls-6{opacity:0.1;}.cls-22,.cls-7{fill:#734d61;}.cls-8{fill:#d1a0b8;}.cls-9{fill:#e0cc7f;}.cls-10{fill:#fff7ae;}.cls-11{fill:#795d88;}.cls-12{fill:#594265;}.cls-13{fill:#b2879c;}.cls-14{fill:#8f759f;}.cls-15{fill:#f1da48;}.cls-16{fill:#f2b41c;}.cls-17{fill:#ebebea;}.cls-18{fill:#c3c3c3;}.cls-19{fill:#4f5353;}.cls-20{fill:#a2a1a1;}.cls-21{fill:#dcdcdb;}.cls-23{fill:#fff0e8;}.cls-24{fill:#66493b;}.cls-25{fill:#fff;}.cls-27{fill:#d0bf76;}</style></defs><title>analysts_ENTJ_famous_real_gordon_ramsay</title><polygon class="cls-1" points="298.96 127.72 288.38 139.87 298.11 151.35 303.71 130.62 298.96 127.72"/><polygon class="cls-1" points="126.09 192.31 134.75 187.5 139.74 192.18 141.81 220.79 132.64 229.92 110.87 196.23 126.09 192.31"/><polygon class="cls-2" points="126.09 192.31 138.32 168.26 144.95 157.83 167.24 185.4 170.79 190.55 141.81 220.79 126.09 192.31"/><polygon class="cls-3" points="94.22 184.72 126.09 192.31 132.64 229.92 84.28 196.74 79.89 177.21 94.22 184.72"/><polygon class="cls-4" points="74.81 155.5 64.07 154.41 62.78 160.66 71.01 174.19 73.52 169.11 74.81 155.5"/><polygon class="cls-4" points="82.32 160.66 80.55 177.66 94.22 184.72 90.95 160.34 82.32 160.66"/><polygon class="cls-1" points="215.63 180.72 238.79 171.97 232.44 137.95 231 122.39 235.72 75.37 193.75 34.66 189.44 150.96 150.65 158.97 215.63 180.72"/><polygon class="cls-5" points="114.75 93.84 91.66 72.83 104.77 60.97 119.2 55.83 124.58 74.94 114.75 93.84"/><polygon class="cls-6" points="111.45 381.17 231.2 362.35 344.48 377.55 240.9 400 111.45 381.17"/><polygon class="cls-7" points="171.37 369.26 153.57 375.46 153.73 381.29 206.77 381.55 206.88 375.46 171.37 369.26"/><polygon class="cls-8" points="186.81 232.31 173.22 208.11 144.95 157.75 186.78 164.88 213.35 180.72 277.5 184.94 254.09 246.33 186.81 232.31"/><polygon class="cls-4" points="195.05 165.57 148.43 157.83 213.35 180.72 230.98 162.97 195.05 165.57"/><polygon class="cls-3" points="116.39 51.22 112.44 82.54 121.44 136.1 138.32 168.26 195.05 165.57 207.13 133.65 207.13 74.66 199.47 37.71 144.04 39.77 116.39 51.22"/><polygon class="cls-1" points="132.33 81.65 123.88 83.32 120.02 92 132.91 96.09 140.45 107.81 148.56 102.37 156.15 111.22 169.2 87.89 184.37 81.9 175.6 75.25 158.05 76.27 156.28 79.07 149.85 85.99 146.35 88.2 144.21 86.26 140.67 82.4 132.33 81.65"/><path class="cls-4" d="M146.1,108.12c-.12.45-6.32,5.44-6.32,5.44l8.83,2.87,7.54-5.21Z"/><polygon class="cls-1" points="140.67 82.4 132.84 82.57 133.98 80.27 134.97 78.75 141.22 72.32 140.67 82.4"/><polygon class="cls-1" points="162.67 75.06 156.28 79.07 152.13 68.47 159.82 73.52 162.67 75.06"/><polygon class="cls-4" points="232.44 137.95 220.23 120.47 231.76 114.88 235.45 121.64 232.44 137.95"/><polygon class="cls-9" points="215.43 69.11 214.97 77.99 221.25 96.87 224.24 104.11 246.89 74.12 245.15 44.19 236.66 45.31 215.43 69.11"/><polygon class="cls-5" points="214.97 77.99 214.56 92.78 227.63 101.07 242.91 88.77 246.89 74.12 214.97 77.99"/><polygon class="cls-10" points="188.56 23.67 229.98 28.23 245.15 44.19 215.43 69.11 200.32 41.85 204.42 34.66 188.56 23.67"/><polygon class="cls-9" points="229.98 28.23 211.23 9.01 189.72 12.58 166.02 20.5 144.05 45.38 200.32 41.85 229.98 28.23"/><polygon class="cls-9" points="94 43.48 113.8 23.8 146.35 26.69 144.05 45.38 110.44 55.77 102.22 50.01 94 43.48"/><polygon class="cls-10" points="91.66 72.83 101.27 51.94 107.89 48.57 144.05 45.27 91.66 72.83"/><polygon class="cls-1" points="125.21 63.55 145.08 66 167.74 53.56 145.83 69.01 125.21 63.55"/><polygon class="cls-11" points="177.51 355.13 147.79 290.23 209.05 290.23 206.4 355.3 192.1 363.66 177.51 355.13"/><polygon class="cls-12" points="169.34 337.28 164.13 328.92 184.09 321.17 207.47 332.33 207 345.01 169.34 337.28"/><polygon class="cls-2" points="153.57 375.46 177.51 355.13 206.4 355.3 206.88 375.46 153.57 375.46"/><polygon class="cls-13" points="233.92 274 216.92 277.56 172.85 250.59 186.82 232.38 248.04 232.16 245.14 253.18 233.92 274"/><polygon class="cls-13" points="271.41 149.88 231.04 135.7 218.72 167.04 213.35 180.72 257.02 194.56 278.32 187.68 271.41 149.88"/><polygon class="cls-2" points="291.28 208.2 281.96 193.34 257.02 194.56 248.04 232.16 256.62 252.41 288.44 256.78 291.28 208.2"/><polygon class="cls-8" points="248.04 232.16 222.8 262.78 223.28 276.19 288.44 256.78 248.04 232.16"/><polygon class="cls-11" points="229.87 290.23 279.85 290.23 284.66 322.38 290.18 357.63 275.16 364.07 259.54 357.63 249.44 335.64 229.87 290.23"/><path class="cls-12" d="M249.44,335.64,234.93,302a10.9,10.9,0,0,1,2-1.89c1.81-1,20.11-4,20.11-4l15.3,4-7.1,22.08,1.59,10.73Z"/><polygon class="cls-2" points="248.22 380.92 259.54 357.63 290.18 357.63 293.94 380.92 290.53 383.86 248.22 380.92"/><path class="cls-14" d="M241.53,195.52a6.75,6.75,0,1,1-6.75,6.75,6.75,6.75,0,0,1,6.75-6.75Zm-1.37,15.13h0a5.63,5.63,0,1,1-5.64,5.63A5.63,5.63,0,0,1,240.16,210.65Z"/><polygon class="cls-15" points="256.13 102.3 204.95 83.95 207.13 74.66 259.19 94.64 258.33 98.66 256.13 102.3"/><polygon class="cls-16" points="256.13 102.3 207.12 87.9 203.77 79.23 258.33 98.66 256.13 102.3"/><polygon class="cls-17" points="191.05 77.67 207.13 74.66 207.07 79.23 201.27 81.55 191.05 77.67"/><polygon class="cls-18" points="207.07 79.23 207.12 87.9 191.05 77.67 207.07 79.23"/><polygon class="cls-19" points="191.05 77.67 198.31 76.32 199.06 78.47 197.09 81.52 191.05 77.67"/><path class="cls-3" d="M220.24,120.44c.28-.71,2.32-28,2.32-28l18.55,5.45-5.65,23.74Z"/><polygon class="cls-4" points="227.07 107.68 227.99 96.81 237.33 99.54 227.07 107.68"/><polygon class="cls-10" points="157.77 0 161.42 13.45 144.05 45.38 91.71 19.08 157.77 0"/><polygon class="cls-18" points="238.57 321.93 284.66 322.38 288.44 256.78 255.78 253.73 238.91 290.64 238.57 321.93"/><polygon class="cls-20" points="238.57 321.93 265.24 322.18 255.78 253.73 238.91 290.64 238.57 321.93"/><polygon class="cls-21" points="147.79 290.32 172.85 250.59 255.78 253.73 250.44 290.32 190.45 313.42 147.79 290.32"/><polygon class="cls-17" points="250.44 290.32 249.44 335.64 152.89 328.04 147.79 290.32 250.44 290.32"/><polygon class="cls-1" points="150.69 160.68 161.36 155.29 175.57 158.32 150.69 160.68"/><rect class="cls-22" x="248.22" y="380.92" width="45.73" height="6.22"/><polygon class="cls-4" points="291.22 209.22 310.71 212.44 311.82 182.78 288.74 183.45 291.22 209.22"/><polygon class="cls-8" points="257.02 194.56 291.28 208.2 298.43 191.41 304.58 170.2 299.38 162.51 282.37 145.94 265.65 147.86 257.02 194.56"/><polygon class="cls-3" points="277.54 160.54 255.09 144.15 262.26 129.07 286.25 123.2 298.11 151.35 277.54 160.54"/><polygon class="cls-1" points="247 127.02 255.09 144.15 286.25 123.2 267.93 113.46 247 127.02"/><polygon class="cls-1" points="336.06 192.67 311.52 165.91 305.87 166.06 306.94 160.97 298.11 151.3 277.54 160.54 286.19 173.19 292.35 172.6 289.71 178.96 310.71 212.44 336.06 192.67"/><polygon class="cls-19" points="306.94 160.97 286.19 173.19 289.71 178.96 311.52 165.96 306.94 160.97"/><polygon class="cls-18" points="291.75 164.54 297.79 161.55 302.74 163.19 306.39 168.82 305.13 174.35 300.58 176.95 294.76 175.32 291.14 169.3 291.75 164.54"/><polygon class="cls-17" points="293.4 165.65 298.02 163.37 301.8 164.62 304.59 168.93 303.63 173.15 300.15 175.13 295.7 173.89 292.94 169.29 293.4 165.65"/><polygon class="cls-23" points="144.21 86.26 139.78 113.56 156.15 111.22 149.85 85.99 144.21 86.26"/><polygon class="cls-4" points="141.31 125.6 162.16 122.27 176.09 138.43 170.66 150.27 144.3 154.06 140.63 141.09 141.31 125.6"/><polygon class="cls-24" points="144.64 133.65 148.76 127.79 164.15 130.16 171.7 139.48 167.39 147.39 147.55 149.74 144.48 140.87 144.64 133.65"/><polygon class="cls-25" points="145.02 128.53 160.29 125.52 164.15 130.16 144.64 133.65 145.02 128.53"/><polygon class="cls-5" points="156.28 79.07 159.82 73.46 175.84 73.38 184.59 79.69 184.37 81.9 175.68 77.33 156.28 79.07"/><polygon class="cls-5" points="140.67 82.4 125.39 84.65 120.02 92 119.28 89.17 122.8 81.62 134.97 78.75 140.67 82.4"/><path class="cls-26" d="M169.79,85.37a3.55,3.55,0,1,1-3.39,3.56A3.49,3.49,0,0,1,169.79,85.37Z"/><polygon class="cls-1" points="161.05 110.15 170.13 117.62 185.76 139.68 172.85 114.45 161.05 110.15"/><polygon class="cls-1" points="138.87 116.66 134.32 125.97 136.5 144.9 130.59 122.91 138.87 116.66"/><polygon class="cls-5" points="157.77 0 189.72 12.58 144.05 45.38 157.77 0"/><polygon class="cls-27" points="94 43.48 144.05 45.38 101.27 52.04 94 43.48"/><polygon class="cls-1" points="69.64 167.2 81.06 172.81 94.22 184.72 84.28 196.74 61.8 174.26 55.52 152.82 62.58 150.99 69.64 167.2"/><path class="cls-26" d="M132.56,91.65a3.55,3.55,0,1,1-3.39,3.56A3.48,3.48,0,0,1,132.56,91.65Z"/></svg>