<svg id="Layer_1" data-name="Layer 1" xmlns="http://www.w3.org/2000/svg" viewBox="0 0 400 400"><defs><style>.cls-1{fill:#f4cab2;}.cls-1,.cls-10,.cls-11,.cls-12,.cls-13,.cls-14,.cls-15,.cls-16,.cls-17,.cls-18,.cls-19,.cls-2,.cls-20,.cls-21,.cls-22,.cls-23,.cls-24,.cls-25,.cls-26,.cls-27,.cls-28,.cls-29,.cls-3,.cls-30,.cls-4,.cls-5,.cls-6,.cls-7,.cls-8,.cls-9{fill-rule:evenodd;}.cls-2{fill:#c18f7c;}.cls-3{fill:#95637c;}.cls-4{fill:#b2879c;}.cls-5{fill:#d1a0b8;}.cls-6{fill:#fbe3d4;}.cls-7{fill:#2c2b2b;opacity:0.1;}.cls-8{fill:#734d61;}.cls-9{fill:#543042;}.cls-10{fill:#594265;}.cls-11{fill:#795d88;}.cls-12{fill:#444648;}.cls-13{fill:#313335;}.cls-14{fill:#a0a1a0;}.cls-15{fill:#8f8f8f;}.cls-16{fill:#8f759f;}.cls-17{fill:#a587b8;}.cls-18{fill:#1c140a;}.cls-19{fill:#332921;}.cls-20{fill:#3d332b;}.cls-21{fill:#443b34;}.cls-22{fill:#2b221c;}.cls-23{fill:#fff0e8;}.cls-24{fill:#030303;}.cls-25{fill:#3f4142;}.cls-26{fill:#4f5051;}.cls-27{fill:#2b2c2e;}.cls-28{fill:#dddddc;}.cls-29{fill:#808181;}.cls-30{fill:#c2c1c2;}</style></defs><title>analysts_ENTJ_famous_fictional_malcolm_merlyn_from_arrow </title><polygon class="cls-1" points="106.13 125.71 115.23 120.33 128.26 125.09 128.67 117.44 119.26 98.52 116.85 95.27 95.18 99.45 98.48 113.72 106.13 125.71"/><polygon class="cls-2" points="116.85 95.27 106.75 81.67 95.18 99.45 109.03 105.24 116.85 95.27"/><polygon class="cls-3" points="141.39 107.41 134.32 111.7 137.28 121.6 145.73 126.23 141.39 107.41"/><polygon class="cls-4" points="128.26 114.75 140.35 131.5 144.54 127.93 134.32 111.7 128.26 114.75"/><polygon class="cls-5" points="127.26 124.72 135.03 135.84 143.9 135.54 133.79 120.77 126.83 117.54 127.26 124.72"/><polygon class="cls-3" points="111.18 101.51 127.26 124.72 133.79 120.77 127.01 110.86 111.18 101.51"/><polygon class="cls-6" points="106.75 81.67 131.77 98.21 127.41 111.45 109.03 105.24 106.75 81.67"/><polygon class="cls-7" points="68.5 379.44 214.06 400 331.5 375.53 200.83 369.65 68.5 379.44"/><polygon class="cls-1" points="250.71 258.27 248.51 263.38 268.15 265.87 271.74 253.51 250.71 258.27"/><polygon class="cls-8" points="260.79 342.18 261.1 342.24 278.15 345.49 301.25 372.04 276.87 374.42 258.19 372.23 256.65 359.96 260.79 342.18"/><polygon class="cls-9" points="301.25 372.04 301.14 377.33 258.72 376.51 258.19 372.23 301.25 372.04"/><polygon class="cls-10" points="246.73 306.62 261.2 304.55 278.15 345.49 256.65 359.96 232.26 325.85 246.73 306.62"/><path class="cls-8" d="M145.42,349.21l-16.54,8.27L111.5,377.41c2.38-.13,1,2.71,6.67,2.37,9.08-.54,24.15-1.34,32.4-2.73,1.9-.32,3.64-2.56,4.63-2.68l-.27-9.86Z"/><path class="cls-9" d="M111.5,377.41l.38,5.1,43.46-3.11-.14-5c-5.15.67-19.07,1.59-30.14,2.25C119.11,377,114,377.27,111.5,377.41Z"/><polygon class="cls-10" points="150.79 311.58 133.43 311.79 128.88 357.48 154.93 364.51 166.3 327.71 150.79 311.58"/><polygon class="cls-8" points="229.15 181.95 242.02 169.65 255.16 186.92 269.59 220.17 247 238.18 243.96 233.97 242.59 233.16 242.93 232.33 239.25 226.5 228.74 209.65 229.15 181.95"/><polygon class="cls-3" points="239.8 168.63 244.61 162.62 255.16 186.92 242.07 187.9 239.8 168.63"/><polygon class="cls-11" points="140.09 137.75 141.62 145.67 147.85 154.86 166.87 160.6 183.82 143.65 172.83 129.08 154.25 129.53 140.09 137.75"/><polygon class="cls-9" points="170.6 132.49 157.23 131.79 150.73 141.12 158.6 152.69 179.7 160.91 187.7 144.3 170.6 132.49"/><polygon class="cls-9" points="144.54 127.93 138.65 132.94 135.03 135.84 141.62 145.67 150.73 141.12 151.85 140.56 169.04 131.96 144.54 127.93"/><polygon class="cls-8" points="117.09 162.51 88.97 171.82 98.48 113.72 115.23 120.33 119.23 153.5 117.09 162.51"/><path class="cls-3" d="M164.23,181.33c2-.17-11.32,13.25-11.32,13.25L89,171.82l30.27-18.32,10.89.1,12.33,2.55S164.41,181.39,164.23,181.33Z"/><path class="cls-8" d="M130.13,153.6l17,.17,4.54,7.25L150,171.39Z"/><polygon class="cls-8" points="207.44 272.92 226.05 314.07 256.45 295.25 238.2 248.21 204.87 236.67 207.44 272.92"/><path class="cls-8" d="M216.74,293.48l3.07,6.78c5.86-.61,26.35-3.4,36.23-4.76l.41-.25-3.92-10.1-21.68.3-9.69-35.91-.2-7.3-16.09-5.57,1.57,22.12C210.53,272.12,214.6,285.62,216.74,293.48Z"/><path class="cls-11" d="M159.06,294.22l-22,9.61-3.61,8,32.87,15.92L197.67,286l-35.54-2.82-3.07,11Zm42.74-7.88h0l30.46,39.51,28.94-21.3-1.5-2.94-5.12-3.88-28.79-2.07-5.15-18.14-18.84,8.82Z"/><polygon class="cls-10" points="259.69 301.61 225.79 295.66 256.45 295.25 259.69 301.61"/><path class="cls-10" d="M137,303.83c.83,0,35.74-6.13,35.74-6.13l-27.76-6-4.36,4.14Z"/><polygon class="cls-10" points="197.67 286.01 199.59 283.46 201.8 286.34 201.8 286.34 220.71 277.74 212.16 250.25 172.86 244.65 162.13 283.19 197.67 286.01"/><path class="cls-12" d="M303.17,235.13l-7.85,5.17s-82.92,43.55-84.7,44.35S196.9,287,196.9,287l-3-4,53.39-28.25,1.85-12.88L260,248.06l42.81-22.64Z"/><path class="cls-13" d="M280.22,248.23l-29.44,15.44h0l-3.52-8.9,1.14-8,7.33-1.16,4.22,2.4,8.29-4.38,3.94-.63Z"/><polygon class="cls-8" points="166.71 249.35 160.04 254.31 144.91 286.76 167.74 295.72 185.45 252.33 166.71 249.35"/><path class="cls-8" d="M144.91,286.76l-4.25,9.11,32.12,1.83,12.67-45.37-7.26-1.15c-2.79,11.47-14.64,36.42-14.64,36.42Z"/><polygon class="cls-9" points="166.66 234.26 159.12 240.98 160.04 254.31 238.2 248.21 238.61 237.05 166.66 234.26"/><polygon class="cls-11" points="193.64 244.75 201.81 239.01 210.86 244.85 202.76 250.98 193.64 244.75"/><polygon class="cls-14" points="166.66 234.26 171.95 240.45 170.03 253.53 185.45 252.33 184.79 239.92 169.59 234.37 166.66 234.26"/><path class="cls-15" d="M166,238.88,170,253.53l.37,0,14.39-13.58S173.27,239.17,166,238.88Z"/><polygon class="cls-16" points="181.13 207.28 201.81 239.01 207.27 238.62 219.18 232.4 215.38 202.87 181.13 207.28"/><polygon class="cls-11" points="207.27 238.62 212.77 238.3 215.32 234.88 196.82 205.26 186.72 206.56 207.27 238.62"/><polygon class="cls-2" points="171.31 157.34 203.07 199.66 222.53 161.2 208.53 135.63 175.97 149.18 171.31 157.34"/><polygon class="cls-16" points="198.61 191.04 196.32 178.28 212.25 154.24 219.48 193.13 210.6 214.2 198.61 191.04"/><path class="cls-17" d="M196,179.73l-.69-3,14.48-26.65,2.84,12.57C207,168.56,198.62,177.05,196,179.73Z"/><polygon class="cls-17" points="169.87 224.54 184.79 239.92 201.81 239.01 200.6 228.22 198.18 221.21 199.51 218.43 195.71 184.43 164.7 163.34 169.87 224.54"/><polygon class="cls-11" points="200.6 228.22 198.31 207.64 176.5 172.74 172.99 185.14 200.6 228.22"/><polygon class="cls-3" points="176.9 165.51 174.59 175.72 179.38 205.85 166.46 221.44 156.42 196.85 162.79 164.61 176.9 165.51"/><polygon class="cls-3" points="184.79 239.92 159.12 240.98 154.46 206.76 156.42 196.85 173.07 206.14 184.79 239.92"/><path class="cls-8" d="M179.38,205.85l5.41,34.07-6.58.27c-1.8-11.42-5.14-34.05-5.14-34.05Z"/><polygon class="cls-4" points="167.46 159.01 158.6 152.69 147.11 153.77 149.01 165.33 153.22 166.65 149.95 171.39 152.38 190.4 155.6 192.91 152.91 194.58 154.46 206.76 173.07 206.14 171.87 194.05 167.49 191.25 171.41 189.4 167.46 159.01"/><path class="cls-5" d="M149,165.33l.94,6.06L168.89,170l0-5.67h0l-19.9,1Zm3.37,25.07h0l.53,4.18,19-.53-.46-4.65Z"/><path class="cls-3" d="M215.25,144c1,1.43-5.48,6.1-5.48,6.1l2.41,55.41,14.53,9.08L237,192.15,216.8,149Z"/><polygon class="cls-3" points="213.55 207.21 217.4 219.32 234.86 237.43 238.61 237.05 240.7 202.33 237.03 192.15 219.86 202.69 213.55 207.21"/><polygon class="cls-8" points="212.09 203.29 213.8 222.16 220.51 226.19 219.86 202.69 212.09 203.29"/><polygon class="cls-4" points="219.86 202.69 219.43 191.79 222.18 189.6 219.11 187.11 218.01 170.9 220.63 167.89 217.55 165.13 216.44 147.82 221.87 144.83 223.83 147.83 244.61 162.62 243.93 169.35 240.13 171.45 243.47 173.98 242.07 187.9 240.06 189.6 241.66 191.95 240.7 202.33 219.86 202.69"/><path class="cls-5" d="M219.43,191.79l-.32-4.68,23,.79-.41,4-22.23-.16ZM218,170.93h0l-.46-5.8,26.38,4.22-.46,4.63Z"/><polygon class="cls-2" points="164.39 129.74 175.97 149.18 209.77 150.11 218.56 143.8 220 125.4 164.39 129.74"/><polygon class="cls-1" points="229.72 109.38 232 117.65 227.66 133.7 209.77 150.11 212.66 142.97 201.91 143.9 204.97 46.43 230.34 38.98 236.85 74.23 229.72 109.38"/><polygon class="cls-8" points="209.77 150.11 211.11 132.16 228.23 131.58 226.02 149.39 209.77 150.11"/><polygon class="cls-2" points="227.55 100.8 222.59 104.41 232 117.65 234.54 108.27 227.55 100.8"/><polygon class="cls-6" points="236.85 74.23 240.37 86.22 234.54 108.27 222.59 104.41 227.97 81.88 236.85 74.23"/><polygon class="cls-18" points="234.79 48.8 249.67 47.76 240.37 86.22 227.97 81.88 229.32 62.24 234.79 48.8"/><path class="cls-19" d="M203,24c1-.82,26.46-12,26.46-12l20.26,35.77L229.32,62.24l-10.45-15.1-13.65,2.07Z"/><polygon class="cls-20" points="168.83 10.55 193.44 4.96 229.41 11.99 213.7 38.66 172.97 48.59 165.94 24.4 168.83 10.55"/><polygon class="cls-21" points="144.23 26.88 145.06 15.3 166.14 0 193.44 4.96 177.1 38.46 150.22 40.73 144.23 26.88"/><polygon class="cls-19" points="166.76 48.17 150.43 31.84 145.06 15.3 131 31.43 139.68 49.83 166.76 48.17"/><polygon class="cls-6" points="139.68 49.83 138.65 132.94 201.91 143.9 218.87 47.14 213.7 38.66 177.1 38.46 150.43 31.84 139.68 49.83"/><polygon class="cls-1" points="153.43 59.13 144.02 61.82 163.87 94.59 171.44 91.73 173.9 96.45 209.98 69.37 202.33 64.51 181.55 70.09 174.83 74.12 170.49 79.19 170.18 73.5 168.73 68.54 153.43 59.13"/><polygon class="cls-2" points="170.18 89.32 163.87 94.59 168.01 99.45 173.9 96.45 170.18 89.32"/><polygon class="cls-22" points="178.55 66.16 203.36 63.06 209.98 69.37 201.91 66.37 181.55 70.09 178.55 66.16"/><polygon class="cls-22" points="170.38 65.03 168.73 68.54 152.91 60.89 144.02 61.82 153.12 57.58 170.38 65.03"/><polygon class="cls-23" points="170.18 73.5 163.87 94.59 173.9 96.45 174.83 74.12 170.18 73.5"/><path class="cls-24" d="M155.15,74.14c1.51.16,2.54,2.19,2.3,4.55s-1.65,4.14-3.16,4-2.53-2.18-2.29-4.54S153.65,74,155.15,74.14Z"/><path class="cls-24" d="M192.27,78c1.5.15,2.53,2.19,2.29,4.54s-1.65,4.15-3.16,4-2.53-2.19-2.29-4.55S190.76,77.82,192.27,78Z"/><polygon class="cls-2" points="158.5 110.92 181.76 113.72 187.34 110.92 188.16 113.51 182.58 117.13 158.81 114.23 158.5 110.92"/><polygon class="cls-2" points="236.13 90.25 231.48 88.49 229 97.28 236.13 90.25"/><polygon class="cls-25" points="165.61 164.47 175.41 180.9 181.95 178.09 189.27 203.4 199.58 219.06 212.77 238.3 212.09 203.29 203.36 188.55 191.47 175.95 187.55 165.42 179.01 153.45 165.1 154.36 165.61 164.47 165.61 164.47"/><polygon class="cls-26" points="158.6 152.69 165.61 164.47 165.61 164.47 179.01 153.45 175.97 149.18 158.6 152.69"/><polygon class="cls-13" points="199.58 219.06 212.77 238.3 226.8 229.96 225.61 223.6 212.09 203.29 199.58 219.06"/><polygon class="cls-27" points="212.77 238.3 234.59 236.89 225.61 223.6 212.77 238.3"/><path class="cls-13" d="M180.05,178.47l1.9-.38,4.66,21.26,2.66,4.05c3.62-4,9.5-10.37,14.09-14.85L200.89,185l-9.42-9L189.26,170l-3.31.62Z"/><path class="cls-28" d="M300,202.47l1.62-1.49-2.19.05L268.62,218l0,1.19.87.28L300,202.47Zm-57.06,29.86h0l-75.44,41.24-.81,3.17,2.52-1.6L244,234Z"/><polygon class="cls-3" points="268.63 217.95 269.48 219.42 275.84 230.48 259.55 240.87 247.26 254.78 243.96 233.97 244.31 233.74 268.63 217.95"/><polygon class="cls-2" points="262.75 247.28 252.52 236.74 247.26 254.78 262.75 247.28"/><path class="cls-29" d="M310.82,202.67l-2.58-5.45L299.42,201l.57,1.44,9,5.58S310.43,201.85,310.82,202.67Z"/><polygon class="cls-30" points="308.24 197.22 295.31 240.3 306.38 247.75 315.89 197.4 308.24 197.22"/><polygon class="cls-29" points="167.95 283.93 163.02 280.01 167.49 273.57 169.2 275.14 171.88 282.58 167.95 283.93"/><polygon class="cls-30" points="163.55 287.6 210.69 297.87 210.62 284.65 163.02 280.01 163.55 287.6"/><polygon class="cls-15" points="186.61 199.35 200.89 184.97 187.91 175.02 175.41 180.9 186.61 199.35"/><polygon class="cls-14" points="200.89 184.97 187.55 165.42 175.41 180.9 200.89 184.97"/><polygon class="cls-13" points="180.69 181.75 186.72 173.57 194.38 183.93 187.35 191.84 180.69 181.75"/><polygon class="cls-9" points="171.49 243.63 173.63 250.45 181.5 249.2 181.52 243.01 171.49 243.63"/><polygon class="cls-6" points="252.52 236.74 258.98 259.38 288.49 246.25 275.05 229.5 252.52 236.74"/></svg>