<svg id="Layer_1" data-name="Layer 1" xmlns="http://www.w3.org/2000/svg" viewBox="0 0 400 400"><defs><style>.cls-1{fill:#f0d1cc;}.cls-2{fill:#8f75a1;}.cls-3{fill:#ffede8;}.cls-18,.cls-4{fill:#2b2b2b;}.cls-4{fill-opacity:0.1;}.cls-5{fill:#fff7ad;}.cls-6{fill:#c2b373;}.cls-7{fill:#e3d187;}.cls-8{fill:#a19161;}.cls-9{fill:#785c87;}.cls-10{fill:#594066;}.cls-11{fill:#cfa39e;}.cls-12{fill:#a687ba;}.cls-13{fill:#6d5678;}.cls-14{fill:#fff5f2;}.cls-15{fill:#fff;}.cls-16{fill:#6f7173;}.cls-17{fill:#8f8f8f;}.cls-19{fill:none;}</style></defs><title>analysts_ENTP_famous_fictional_felicity_smoak_arrow</title><g id="Layer_1-2" data-name="Layer_1"><g id="_789126496" data-name=" 789126496"><polygon class="cls-1" points="279.69 182.74 333.65 167.07 300.55 149.99 290.77 151.41 279.34 161.3 279.69 182.74"/><polygon class="cls-2" points="76.13 136.8 66.35 134.91 71.06 131.5 148.81 116.65 147.28 121.84 144.1 125.49 76.13 136.8"/><polygon class="cls-3" points="288.53 122.78 306.67 174.97 333.65 167.07 298.07 108.29 284.29 109.94 288.53 122.78"/><polygon class="cls-4" points="97.22 384.77 213.13 369.11 331.88 381.94 243.53 398.91 97.22 384.77"/><polygon class="cls-1" points="281.58 76.48 278.75 126.08 260.37 161.18 243.29 164.25 218.44 134.79 261.9 46.09 281.58 76.48"/><polygon class="cls-5" points="235.51 0.97 284.05 14.99 280.99 37.14 231.98 42.56 209.25 22.41 235.51 0.97"/><polygon class="cls-6" points="181.21 58.7 173.91 40.79 193.58 7.69 203.24 21.11 193.34 42.44 181.21 58.7"/><polygon class="cls-7" points="193.58 7.69 186.75 32.66 206.42 42.44 209.25 22.41 235.51 0.97 193.58 7.69"/><polygon class="cls-7" points="256.49 37.73 284.05 14.99 309.73 56.46 307.26 71.06 281.58 76.48 263.2 48.21 252.25 48.92 256.49 37.73"/><polygon class="cls-7" points="186.28 102.4 187.1 149.4 211.49 174.38 223.03 163.19 215.02 134.91 206.06 125.37 186.28 102.4"/><polygon class="cls-8" points="187.1 149.4 193.46 180.62 213.6 173.67 219.97 166.13 220.79 156.47 187.1 149.4"/><polygon class="cls-6" points="190.28 190.4 189.93 168.6 203 163.89 213.6 173.67 214.08 177.91 193.81 188.63 190.28 190.4"/><polygon class="cls-9" points="275.22 122.07 265.91 114.3 266.5 107.11 276.87 102.4 281.93 116.89 284.17 123.49 279.93 123.02 275.22 122.07"/><polygon class="cls-10" points="262.26 115.12 265.79 112.29 267.56 114.06 279.93 123.02 276.39 127.61 265.56 122.42 262.26 115.12"/><polygon class="cls-6" points="288.53 122.78 290.77 151.41 284.88 159.06 250.71 157.65 262.26 115.12 275.22 123.61 279.93 123.02 281.93 116.89 288.53 122.78"/><polygon class="cls-9" points="254.96 221.02 270.62 210.66 248.24 186.39 217.73 181.8 193.81 188.63 205.83 243.29 254.96 221.02"/><polygon class="cls-2" points="281.46 177.44 263.32 162.95 251.89 154.59 243.29 164.25 224.44 163.3 222.44 156.24 213.6 173.67 193.81 188.63 270.62 210.66 281.46 177.44"/><polygon class="cls-9" points="251.89 154.59 243.29 164.25 224.44 163.3 221.02 155.88 213.6 173.67 193.81 188.63 217.02 178.74 225.15 170.14 245.3 170.14 263.32 162.95 251.89 154.59"/><polygon class="cls-9" points="276.04 194.05 279.69 182.74 277.93 170.14 268.38 175.09 254.6 184.63 276.04 194.05"/><polygon class="cls-10" points="205.83 243.29 270.62 210.66 259.55 243.29 240 250 205.83 243.29"/><polygon class="cls-8" points="254.6 184.63 263.55 162.36 279.69 182.74 254.6 184.63"/><polygon class="cls-9" points="66.35 134.91 86.73 193.34 144.69 192.99 166.37 184.27 154.82 140.1 146.69 119.95 66.35 134.91"/><polygon class="cls-10" points="166.37 184.27 169.08 183.92 148.81 116.65 147.99 117.95 146.69 119.95 166.37 184.27"/><polygon class="cls-10" points="91.09 200.65 86.73 193.34 166.37 184.27 168.13 180.97 176.5 188.75 172.73 191.93 151.76 202.89 129.61 196.52 91.09 200.65"/><polygon class="cls-1" points="187.1 149.4 176.97 178.5 184.75 187.81 196.88 179.56 203 163.89 187.1 149.4"/><polygon class="cls-1" points="193.81 188.63 184.63 185.22 172.73 191.93 173.08 199.94 189.1 203.59 193.81 188.63"/><polygon class="cls-9" points="196.88 179.56 178.15 180.74 169.08 183.92 172.73 191.93 184.86 190.05 193.81 188.63 196.88 179.56"/><polygon class="cls-11" points="139.98 205.83 130.32 196.41 159.41 193.34 172.73 191.93 189.1 203.59 139.98 205.83"/><polygon class="cls-2" points="114.06 170.37 98.28 162.6 101.46 151.17 109.7 155.53 115.71 147.99 123.96 157.18 114.06 170.37"/><polygon class="cls-11" points="215.02 134.91 248.12 135.27 243.29 164.25 222.91 164.48 215.02 134.91"/><polygon class="cls-7" points="251.89 154.59 279.69 182.74 290.77 151.41 251.89 154.59"/><polygon class="cls-2" points="167.31 177.91 169.08 183.92 196.88 179.56 167.31 177.91"/><polygon class="cls-3" points="203.24 135.15 180.97 100.04 181.33 42.79 186.75 32.66 209.25 22.41 256.49 37.73 263.2 48.21 257.19 102.52 234.57 135.15 203.24 135.15"/><polygon class="cls-1" points="269.09 67.18 264.38 75.54 253.66 69.89 254.96 61.29 269.09 67.18"/><path class="cls-1" d="M217.85,64.7H251.3L248.83,77,218,77.07V64.82ZM181.09,79.43V75.19l22.74.47-.36-11.07H181.09V61.17h73.74l1.54,5.77L253.19,80l-37.94-.12V64.82H206l-.83,14.84L181,79.31Z"/><polygon class="cls-1" points="272.51 108.64 288.53 122.78 298.07 108.29 287.35 86.97 274.15 95.8 272.51 108.64"/><polygon class="cls-3" points="266.74 103.34 272.51 108.64 287.35 86.97 275.57 80.25 266.74 103.34"/><polygon class="cls-12" points="266.74 103.34 270.62 106.88 267.56 114.06 262.26 115.12 266.74 103.34"/><polygon class="cls-9" points="282.52 76.25 292.89 67.65 304.08 72.36 297.6 93.8 291.36 94.74 287.35 86.97 279.81 82.73 278.99 78.37 282.52 76.25"/><polygon class="cls-12" points="277.93 74.01 282.52 76.25 281.34 78.96 279.81 82.73 275.57 80.25 274.39 76.01 277.93 74.01"/><polygon class="cls-13" points="294.89 85.2 299.48 73.54 294.07 70.83 288.64 80.72 294.89 85.2"/><polygon class="cls-6" points="309.73 56.46 307.38 94.27 301.25 99.92 294.89 85.2 299.48 73.54 294.07 70.83 288.64 80.72 277.93 74.01 309.73 56.46"/><polygon class="cls-8" points="307.38 94.27 298.07 108.29 291.36 94.74 294.89 85.2 307.38 94.27"/><polygon class="cls-14" points="206.42 59.17 215.25 62.23 216.91 85.08 204.65 85.2 206.42 59.17"/><polygon class="cls-11" points="210.54 90.5 204.65 85.2 215.38 85.08 210.54 90.5"/><polygon class="cls-12" points="197.47 102.87 210.78 96.98 234.57 101.81 222.32 113.47 206.3 114.3 197.47 102.87"/><polygon class="cls-15" points="201.71 103.46 211.37 100.51 228.92 103.22 224.8 106.41 213.72 109 204.42 106.88 201.71 103.46"/><polygon class="cls-9" points="204.42 106.88 224.8 106.41 219.5 110.65 207.6 111 204.42 106.88"/><polygon class="cls-1" points="196.05 69.42 204.65 85.2 205.24 77.07 200.53 69.77 196.05 69.42"/><polygon class="cls-1" points="215.38 85.08 225.62 68.59 215.25 62.23 215.38 85.08"/><polygon class="cls-1" points="228.45 67.41 252.13 54.45 234.57 52.92 215.02 59.05 216.32 76.37 228.45 67.41"/><polygon class="cls-6" points="215.02 59.05 214.9 55.63 234.34 49.98 252.13 54.45 234.57 52.92 215.02 59.05"/><polygon class="cls-1" points="181.21 55.4 192.4 53.16 206.42 59.17 203.12 75.89 181.21 55.4"/><polygon class="cls-6" points="206.42 59.17 206.42 55.87 192.52 50.21 181.21 55.4 192.4 53.16 206.42 59.17"/><polygon class="cls-16" points="255.66 61.99 277.93 74.01 275.57 80.25 254.01 68.59 252.83 66 255.66 61.99"/><path class="cls-17" d="M178.85,62.11,203.59,62l-.23,12.61-22.15-.35Zm39-.12H251.3l-2.47,12.26L218,74.36V62.11ZM175.2,58.7l80.46-.12L254.83,62,254,65.17l-2.94,12.14H215.38V62.23l-9.08-.12-1.06,15-26.74-.35Z"/><polygon class="cls-1" points="268.74 317.74 263.2 365.22 260.84 380.18 249.89 380.3 250.71 363.1 242.59 319.51 268.74 317.74"/><polygon class="cls-3" points="263.2 365.22 259.9 379.47 250 378.53 250.71 363.1 263.2 365.22"/><polygon class="cls-11" points="267.44 329.52 267.32 329.76 245.06 333.18 242.59 319.51 249.66 319.04 267.44 329.52"/><polygon class="cls-2" points="177.79 371.93 180.5 382.3 187.81 382.3 188.63 361.92 177.79 371.93"/><polygon class="cls-12" points="168.02 364.15 143.87 382.3 173.67 382.3 188.63 361.92 168.02 364.15"/><polygon class="cls-1" points="215.02 315.51 188.63 361.92 169.55 372.4 163.07 367.81 177.09 356.03 189.22 307.96 215.02 315.51"/><polygon class="cls-3" points="188.63 361.92 188.63 361.92 169.55 372.4 163.07 367.81 177.09 356.03 188.63 361.92"/><polygon class="cls-11" points="215.02 315.51 209.13 325.75 188.4 311.26 188.4 311.26 197.11 310.32 215.02 315.51"/><polygon class="cls-9" points="205.83 243.29 259.55 243.29 273.1 275.81 235.04 259.79 205.83 243.29"/><polygon class="cls-2" points="188.28 311.26 255.07 300.55 273.1 275.81 205.83 243.29 188.28 311.26"/><polygon class="cls-9" points="188.28 311.26 267.68 329.64 273.1 275.81 188.28 311.26"/><polygon class="cls-1" points="133.85 192.28 139.98 205.83 121.13 208.89 112.06 198.41 123.02 190.4 133.85 192.28"/><polygon class="cls-3" points="128.91 182.51 133.85 192.28 112.06 198.41 113.83 185.22 128.91 182.51"/><polygon class="cls-12" points="241.41 392.67 250.71 363.1 250 378.53 254.72 379 259.9 379.47 263.2 365.22 266.5 392.67 241.41 392.67"/><polygon class="cls-3" points="181.09 74.36 181.21 64.7 200.76 62.94 201.71 74.6 181.09 74.36"/><polygon class="cls-1" points="203.47 64.7 181.21 64.7 181.21 62.11 203.59 61.99 203.47 64.7"/><polygon class="cls-1" points="201.59 74.6 187.93 62.11 203.59 61.99 203.36 74.6 201.59 74.6"/><polygon class="cls-3" points="217.85 62.11 251.3 62.11 248.71 74.25 217.85 74.36 217.85 62.11"/><polygon class="cls-1" points="217.85 62.11 251.3 62.11 250.71 64.7 217.85 64.7 217.85 62.11"/><polygon class="cls-1" points="228.45 67.41 238.23 62.11 217.85 62.11 217.85 74.36 219.02 74.36 228.45 67.41"/><path class="cls-18" d="M195.82,65.64a4.13,4.13,0,1,1-4.13,4.13A4.13,4.13,0,0,1,195.82,65.64Z"/><path class="cls-18" d="M227,65.64a4.13,4.13,0,1,1-4.13,4.13A4.13,4.13,0,0,1,227,65.64Z"/><polygon class="cls-1" points="223.62 88.26 239.4 101.34 233.87 90.5 223.62 88.26"/><polygon class="cls-1" points="199.12 89.32 192.05 103.7 193.7 91.8 199.12 89.32"/></g><rect class="cls-19" x="0.5" y="0.5" width="399" height="399"/></g></svg>