<svg id="Layer_1" data-name="Layer 1" xmlns="http://www.w3.org/2000/svg" viewBox="0 0 400 400"><defs><style>.cls-1{fill:#2c2b2b;opacity:0.1;}.cls-1,.cls-10,.cls-11,.cls-12,.cls-13,.cls-14,.cls-15,.cls-16,.cls-17,.cls-18,.cls-19,.cls-2,.cls-20,.cls-21,.cls-22,.cls-23,.cls-24,.cls-25,.cls-3,.cls-4,.cls-5,.cls-6,.cls-7,.cls-8,.cls-9{fill-rule:evenodd;}.cls-2{fill:#543042;}.cls-3{fill:#594265;}.cls-4{fill:#795d88;}.cls-5{fill:#734d61;}.cls-6{fill:#444343;}.cls-7{fill:#393939;}.cls-8{fill:#95637c;}.cls-9{fill:#b2879c;}.cls-10{fill:#f4cab2;}.cls-11{fill:#fbe3d4;}.cls-12{fill:#dddddc;}.cls-13{fill:#eaeceb;}.cls-14{fill:#c18f7c;}.cls-15{fill:#33231b;}.cls-16{fill:#8f759f;}.cls-17{fill:#a587b8;}.cls-18{fill:#fff0e8;}.cls-19{fill:#593e35;}.cls-20{fill:#805e4f;}.cls-21{fill:#98796a;}.cls-22{fill:#030303;}.cls-23{fill:#fff;}.cls-24{fill:#444648;}.cls-25{fill:#504f4e;}</style></defs><title>analysts_ENTP_famous_fictional_tyrion_lannister_from_game_of_thrones</title><polygon class="cls-1" points="107.46 385 203.31 400 292.5 388.22 203.66 379.33 107.46 385"/><path class="cls-2" d="M235.66,381c.05-.46-7.66,6.35-7.66,6.35l.29,3.92h32.82l.81-3.92Z"/><polygon class="cls-2" points="150.35 371.24 132.25 382.03 132.43 385.74 177.22 384.67 177.04 380.37 150.35 371.24"/><polygon class="cls-2" points="238.25 347.97 235.37 364.38 228 387.37 261.92 387.37 254.31 360.49 238.25 347.97"/><polygon class="cls-2" points="166.56 347.05 158.14 357.05 132.25 382.03 177.04 380.37 177.96 362 166.56 347.05"/><polygon class="cls-3" points="235.71 320.99 221.88 342.78 235.37 364.38 254.31 360.49 254.58 337.32 235.71 320.99"/><polygon class="cls-3" points="173.35 320.31 156.09 336.46 158.14 357.05 177.96 362 186.25 342.91 173.35 320.31"/><polygon class="cls-4" points="211.11 308.63 201.97 315.46 186.25 342.91 156.09 336.46 153.7 304.01 185.82 284.02 211.11 308.63"/><polygon class="cls-4" points="217.77 284.88 199.32 298.12 201.97 315.46 221.88 342.78 254.58 337.32 255.62 308.63 217.77 284.88"/><polygon class="cls-3" points="175.06 298.72 184.45 309.31 201.97 315.46 218.97 310 226.31 287.27 181.39 286.78 175.06 298.72"/><polygon class="cls-2" points="228.02 284.02 253.65 289.92 255.62 308.63 218.97 310 209.57 291.37 228.87 284.22 228.02 284.02"/><polygon class="cls-5" points="169.76 281.63 158.8 284.88 153.7 304.01 184.45 309.31 192.14 291.54 169.76 281.63"/><polygon class="cls-6" points="170.44 265.14 158.65 276.59 158.8 284.88 199.32 298.12 200.18 297.99 207.74 272.31 170.44 265.14"/><polygon class="cls-7" points="200.18 297.99 253.65 289.92 253.99 281.2 207.74 272.31 200.34 282.06 200.18 297.99"/><polygon class="cls-5" points="189.41 259.16 200.34 282.06 253.99 281.2 257.28 248.23 207.86 224.31 189.41 259.16"/><polygon class="cls-8" points="176.75 220.04 155.71 239.76 158.65 276.59 200.34 282.06 199.36 254.21 176.75 220.04"/><polygon class="cls-5" points="235.03 208.93 246 200.77 268.17 199.36 292.27 237.38 272.23 251.77 257.28 248.23 235.03 208.93"/><polygon class="cls-9" points="246 200.77 255.5 193.71 268.17 199.36 254.08 221.55 246 200.77"/><polygon class="cls-10" points="301.15 238.83 293.98 219.35 301.32 203.97 307.81 204.15 306.45 220.55 301.15 238.83"/><polygon class="cls-11" points="301.66 234.9 292.99 219.35 323.4 209.95 329.53 196.56 335.32 197.82 333.27 213.71 313.11 229.77 301.66 234.9"/><polygon class="cls-12" points="81.72 175.19 73.35 167.73 87.18 123.49 106.31 124.18 105.81 161.51 99.83 166.38 98.98 172.79 93.51 170.66 81.72 175.19"/><polygon class="cls-13" points="81.72 175.19 73.35 167.73 64.98 160.49 64.68 122.69 87.18 123.49 87.18 173.09 81.72 175.19"/><path class="cls-14" d="M80.7,177.58,78,196.64l18.36,2.64s11.19.67,10.68-.52-10.94-26.31-10.94-26.31l-2.56-1.79-12.94,7.78Z"/><polygon class="cls-12" points="81.38 184.67 84.39 190.85 87.61 211.66 101.88 211.83 91.03 202.95 90.94 186.72 81.38 184.67"/><polygon class="cls-13" points="81.38 184.67 84.39 190.85 84.11 202.78 73.35 211.49 87.18 211.66 87.18 185.91 81.38 184.67"/><polygon class="cls-11" points="114.18 194.24 111.36 183.22 99.83 166.38 93.51 170.66 98.01 189.13 96.33 199.28 114.18 194.24"/><polygon class="cls-9" points="145.37 205.94 131.01 198.16 111.36 183.22 96.33 199.28 117.69 222.17 145.37 205.94"/><polygon class="cls-5" points="177.32 208.5 173.78 204.13 145.95 195.19 132.19 198.8 117.69 222.17 155.71 239.76 179.54 209.01 177.32 208.5"/><polygon class="cls-8" points="173.78 204.13 162.95 190.72 145.95 195.19 162.84 217.28 173.78 204.13"/><polygon class="cls-8" points="214.56 196.71 248.56 191.06 255.5 193.71 257.28 248.23 199.36 254.21 179.54 209.01 214.56 196.71"/><polygon class="cls-9" points="175.44 185.86 162.95 190.72 155.71 239.76 199.36 254.21 201.64 207.06 175.44 185.86"/><polygon class="cls-15" points="231.72 168.33 242.34 177.81 270.54 166.99 247.99 145.28 231.72 168.33"/><path class="cls-16" d="M185.08,171.69c.26,1.71,16.56,35.37,16.56,35.37l46.92-16-6.22-13.25Z"/><polygon class="cls-17" points="173.69 176.9 170.14 187.92 201.64 207.06 201.48 195.69 187.74 171.22 173.69 176.9"/><polygon class="cls-14" points="232.25 171.63 225.8 184.26 201.87 193.81 171.62 175.66 231.18 165.04 232.25 171.63"/><path class="cls-10" d="M248.92,130.7l-1.58,25-5,22.12-16.54,6.45-5.41-4.36-30.34-121s43.48-14.16,46-12.45S248.92,130.7,248.92,130.7Z"/><polygon class="cls-11" points="131.65 45.45 129.43 98.96 142.14 179.09 220.39 179.9 222.2 71.8 212.32 37.65 131.65 45.45"/><polygon class="cls-10" points="149.4 98.08 161.23 103.66 168.22 107.36 170.44 110.38 174.94 107.02 182.64 102.86 192.35 94.05 200.96 93.71 209.63 96.81 193.04 111 178.03 129.1 171.25 121.14 164.32 130.04 152.17 114.13 136.35 103.26 147.51 96.54 149.4 98.08"/><polygon class="cls-14" points="168.35 123.31 164.32 130.04 173.53 133.4 178.03 129.1 168.35 123.31"/><polygon class="cls-18" points="168.22 107.36 164.32 130.04 178.03 129.1 174.94 107.02 168.22 107.36"/><polygon class="cls-19" points="248.08 143.79 247.34 155.69 270.54 166.99 267.38 142.25 263.75 125.58 249.22 125.98 248.08 143.79"/><path class="cls-14" d="M246.74,133.11c-.41.13-10.56,2.82-10.56,2.82l11.16,19.76,3.16-14.29Z"/><polygon class="cls-11" points="251.65 111.33 238.27 108.97 236.18 135.93 250.5 141.4 256.62 115.09 251.65 111.33"/><polygon class="cls-14" points="245.19 112.27 243.71 126.52 253.26 116.97 245.19 112.27"/><polygon class="cls-20" points="266.84 83.09 282.44 97.61 267.38 142.25 238.27 108.97 266.84 83.09"/><polygon class="cls-21" points="244.52 48.94 222.2 71.8 238.27 108.97 282.44 97.61 273.56 45.44 244.52 48.94"/><polygon class="cls-19" points="226.23 32.54 248.55 33.61 273.56 45.44 222.2 71.8 226.23 32.54"/><polygon class="cls-20" points="194.77 47.06 203.38 52.44 222.2 71.8 248.55 33.61 220.59 0 194.77 47.06"/><polygon class="cls-19" points="141.53 66.69 129.43 98.96 113.03 66.15 141.53 66.69"/><polygon class="cls-20" points="195.31 38.18 220.59 0 125.67 26.62 113.03 66.15 195.31 38.18"/><polygon class="cls-21" points="203.38 52.44 138.4 75.05 113.03 66.15 129.73 55.88 220.59 0 203.38 52.44"/><polygon class="cls-19" points="161.86 97.27 144.48 95.26 136.35 103.26 143.08 100.7 161.23 103.66 161.86 97.27"/><path class="cls-19" d="M180,96.3l18-5.68,11.63,6.19s-8.79-.81-9.46-.67-17.53,6.72-17.53,6.72Z"/><path class="cls-22" d="M155.25,115.71c1.87,0,3.39-2.2,3.39-4.91s-1.52-4.91-3.39-4.91-3.4,2.21-3.4,4.91S153.38,115.71,155.25,115.71Z"/><path class="cls-22" d="M198.81,113.29c1.87,0,3.4-2.21,3.4-4.91s-1.53-4.91-3.4-4.91-3.4,2.21-3.4,4.91S196.94,113.29,198.81,113.29Z"/><path class="cls-10" d="M152,119.49l-1.73,3.11L145.7,121l3.84,2.76-2.65,4.73-3.91-1,3.09,2.85-1.33,4.25-3.14-.84,2.76,2.05-2,6.28,3.46-5.52,3.29,1-2.65-2,2.33-3.71,3.82,1L149.39,130l1.36-5.57,4.36,1.12s-3-2-4-2.57Z"/><polygon class="cls-14" points="155.34 148.37 198.03 142.43 190.43 159.83 167.59 162.1 155.34 148.37"/><polygon class="cls-23" points="160.91 150.14 193.51 145.73 188.68 157.02 168.97 159.03 160.91 150.14"/><polygon class="cls-11" points="77.97 196.64 94.43 186.18 93.51 170.66 73.35 167.73 77.97 196.64"/><polygon class="cls-16" points="87.18 141.15 101.07 141.61 100.56 159.21 93.38 166.56 87.18 166.08 81.59 162.75 87.18 141.15"/><polygon class="cls-17" points="70.14 140.58 87.18 141.15 87.18 166.08 79.24 165.47 70.14 158.35 70.14 140.58"/><polygon class="cls-8" points="293.98 219.35 272.23 251.77 301.06 259.16 313.11 229.77 293.98 219.35"/><polygon class="cls-24" points="194.02 288.21 200.34 282.06 210.42 288.3 199.32 298.12 194.02 288.21"/><polygon class="cls-25" points="189.75 287.53 200.34 282.06 199.32 298.12 189.75 287.53"/></svg>