<svg id="Layer_1" data-name="Layer 1" xmlns="http://www.w3.org/2000/svg" viewBox="0 0 400 400"><defs><style>.cls-1,.cls-20{fill:#2b2b2b;}.cls-1,.cls-10,.cls-11,.cls-12,.cls-13,.cls-14,.cls-15,.cls-16,.cls-17,.cls-18,.cls-19,.cls-2,.cls-20,.cls-21,.cls-22,.cls-23,.cls-24,.cls-25,.cls-26,.cls-27,.cls-28,.cls-29,.cls-3,.cls-30,.cls-31,.cls-4,.cls-5,.cls-6,.cls-7,.cls-8,.cls-9{fill-rule:evenodd;}.cls-1{opacity:0.1;}.cls-2{fill:#785d87;}.cls-3{fill:#8f759f;}.cls-4{fill:#b2879c;}.cls-5{fill:#734d60;}.cls-6{fill:#594165;}.cls-7{fill:#6b6b6b;}.cls-8{fill:#4f5254;}.cls-9{fill:#f4c9b2;}.cls-10{fill:#c1907d;}.cls-11{fill:#fce3d4;}.cls-12{fill:#95637c;}.cls-13{fill:#dbdbdb;}.cls-14{fill:#c2c2c2;}.cls-15{fill:#ffefe7;}.cls-16{fill:#a1a1a1;}.cls-17{fill:#4a4747;}.cls-18{fill:#e3e6e3;}.cls-19{fill:#707373;}.cls-21{fill:#9ea1a3;}.cls-22{fill:#737373;}.cls-23{fill:#cfcfcc;}.cls-24{fill:#8f8f8f;}.cls-25{fill:#7d8082;}.cls-26{fill:#8c9191;}.cls-27{fill:#bababa;}.cls-28{fill:#c7c7c7;}.cls-29{fill:#d0a0b7;}.cls-30{fill:#a587b9;}.cls-31{fill:#fff;}</style></defs><title>analysts_ENTP_famous_real_sarah_silverman</title><polygon class="cls-1" points="216.83 369.53 330.94 378.5 296.52 391.33 228.77 400.38 125.4 384.1 216.83 369.53"/><polygon class="cls-2" points="236.44 327.73 232.89 369.53 220.55 378.05 213.17 366.1 206.74 331.58 219.12 308.93 236.44 327.73"/><polygon class="cls-2" points="171.43 356.75 165.62 320.76 188.42 312.5 196.38 330.76 190.6 364 180.23 368.62 171.43 356.75"/><polygon class="cls-3" points="208.42 281.69 241.11 272.87 236.44 327.73 206.74 331.58 201.32 302.41 208.42 281.69"/><polygon class="cls-4" points="145.54 381.98 145.32 377.82 171.43 356.75 190.6 364 191.61 380.07 145.54 381.98"/><polygon class="cls-5" points="145.54 381.98 145.32 377.82 191.34 375.88 191.61 380.07 145.54 381.98"/><polygon class="cls-4" points="213.17 366.1 232.89 369.53 237.42 386.33 219.43 390.52 203.77 386.04 213.17 366.1"/><polygon class="cls-5" points="237.57 391.43 203.82 391.65 203.77 386.04 237.42 386.33 237.57 391.43"/><polygon class="cls-3" points="165.62 320.76 156.73 266.09 188.59 260.5 201.32 302.41 196.38 330.76 165.62 320.76"/><polygon class="cls-6" points="172.38 258.37 161.49 266.09 156.73 266.09 201.32 302.41 244.04 269.88 229.08 259.25 172.38 258.37"/><polygon class="cls-5" points="122.36 223.8 155.87 208.75 161.18 189.63 150.71 169.35 132.38 191.54 119.92 195.88 122.36 223.8"/><polygon class="cls-7" points="249.45 151.68 271.33 130.79 248.99 123.75 240.57 129.82 249.45 151.68"/><polygon class="cls-8" points="229.25 135.54 249.45 151.68 250.69 87.22 243.68 91.33 224.07 120.05 229.25 135.54"/><polygon class="cls-7" points="241.81 108.59 264.92 90.4 256.31 65.07 251.4 59.52 226.66 72.8 241.81 108.59"/><polygon class="cls-9" points="184.92 160.09 215.3 168.45 226.17 146.19 237.32 119.39 232.88 50.48 206.95 59.43 189.24 140.35 184.92 160.09"/><polygon class="cls-10" points="229.15 104.98 237.28 119.47 241.81 108.59 229.15 104.98"/><polygon class="cls-8" points="223.85 98.72 245.16 100.54 254.42 78.26 248.01 69.99 218.15 55.56 206.95 59.43 223.85 83.44 223.85 98.72"/><polygon class="cls-11" points="233.96 81.05 229.16 104.98 241.81 108.59 250.69 87.22 233.96 81.05"/><polygon class="cls-10" points="169.33 152.52 166.55 141.91 189.24 140.35 206.18 139.26 191.88 161.29 173.06 163.09 169.33 152.52"/><polygon class="cls-11" points="122.53 64.13 126.54 108.03 147.43 143.23 189.71 140.32 206.95 99.28 206.95 59.43 176.07 27.01 146.73 22.38 122.53 64.13"/><polygon class="cls-10" points="206.95 59.43 176.07 27.01 146.73 22.38 122.53 64.13 206.95 59.43"/><polygon class="cls-9" points="159.79 103.19 165.44 99.62 176.71 80.19 193.5 71.62 174.3 67.89 168.49 70.97 162.6 78.19 159.18 82.48 156.4 78.71 153.78 73.45 145.41 69.79 130.72 74.01 143.93 83.69 154.52 100.49 159.79 103.19"/><polygon class="cls-12" points="109.99 57.27 141.18 46.15 146.23 42.52 206.95 59.43 218.71 37.24 202.93 1.38 136.85 1.38 120.29 40.05 109.99 39.67 109.99 57.27"/><polygon class="cls-5" points="122.53 64.13 141.18 46.15 109.99 39.67 87.6 59.43 122.53 64.13"/><polygon class="cls-4" points="109.99 39.67 149.21 36.89 206.95 59.43 109.99 39.67"/><polygon class="cls-13" points="202.93 1.38 250.17 24.54 263.45 57.93 237.82 50.48 202.93 1.38"/><polygon class="cls-14" points="202.93 1.38 263.45 57.93 254.42 78.26 206.95 59.43 202.93 1.38"/><polygon class="cls-10" points="237.26 86.82 234.55 97.61 245.98 89.73 237.26 86.82"/><polygon class="cls-8" points="130.72 74.01 145.78 71.99 153.78 73.45 153.78 69.47 146.85 66.99 129.72 71.53 130.72 74.01"/><polygon class="cls-15" points="162.6 78.19 156.4 78.71 156.51 92.57 154.52 100.49 165.44 99.62 162.71 91.52 162.6 78.19"/><polygon class="cls-10" points="165.44 99.62 154.52 100.49 160.91 107.43 165.44 99.62"/><polygon class="cls-14" points="149.84 261.99 173.9 265.85 191.88 265.77 194.91 227.75 191.88 161.29 165.43 171.36 168.35 239.9 149.84 261.99"/><polygon class="cls-16" points="191.88 265.77 219.16 265.77 246.31 269.14 225.92 237.11 232.67 168.76 191.88 161.29 191.88 265.77"/><polygon class="cls-17" points="222.12 254.2 152.9 254.2 163.81 240.23 222.12 240.23 222.12 254.2"/><polygon class="cls-12" points="173.87 280.05 174.01 214.24 168.32 182.9 154.71 167.47 150.71 169.35 159.32 235.13 149.84 261.99 173.87 280.05"/><polygon class="cls-4" points="154.71 167.47 174.01 214.24 174.01 178.83 167.05 161.29 154.71 167.47"/><polygon class="cls-18" points="169.33 152.52 167.05 161.29 174.01 178.83 191.88 161.29 169.33 152.52"/><polygon class="cls-12" points="232.99 211.72 245.12 236.17 260.6 226.05 257.04 205.76 246.31 167.47 232.99 211.72"/><polygon class="cls-5" points="223.66 285.4 213.3 240.23 210.9 214.24 230.03 175.18 246.31 167.47 232.99 235.13 246.31 269.14 223.66 285.4"/><polygon class="cls-4" points="210.9 214.24 210.9 178.83 231.37 159.34 246.31 167.47 231.31 187.28 210.9 214.24"/><polygon class="cls-14" points="210.9 178.83 191.88 161.29 224.99 148.6 231.37 159.34 210.9 178.83"/><polygon class="cls-5" points="245.12 236.17 290.65 234.21 297.18 222.84 290.65 213.56 257.04 205.76 245.12 236.17"/><polygon class="cls-9" points="315.68 218.46 319.81 222.77 324.09 232.65 321.09 241 301.95 233.81 294.18 225.86 301.5 224.26 315.68 218.46"/><polygon class="cls-18" points="290.65 234.21 301.95 233.81 301.11 215.98 290.65 213.56 290.65 234.21"/><polygon class="cls-11" points="319.81 222.77 332.89 227.36 336.91 236.27 321.09 241 319.81 222.77"/><polygon class="cls-12" points="122.36 223.8 91.57 185.67 95.11 174.6 106.19 172.05 132.38 191.54 122.36 223.8"/><polygon class="cls-9" points="85.71 178.42 74.21 168.57 74.32 151.58 64.07 143.61 69.06 137.43 83.31 143.96 90 149 95.61 170.25 85.71 178.42"/><polygon class="cls-19" points="62.86 161.29 71.14 170.88 101.84 147.81 99.39 138.23 91.61 136.93 62.86 161.29"/><polygon class="cls-8" points="96.07 118.33 92.75 120.85 91.61 136.93 101.84 147.81 115.48 147.49 117.46 145.77 96.07 118.33"/><polygon class="cls-8" points="111.26 116.14 100.46 115 97.5 117.25 119.96 143.59 122.95 140.99 122.95 127.83 111.26 116.14"/><polygon class="cls-7" points="100.46 115 92.75 120.85 115.48 147.49 122.95 140.99 100.46 115"/><polygon class="cls-11" points="91.74 173.45 84.11 167.62 85.4 160.16 77.68 154.25 79.29 147.37 98.18 153.79 99.47 167.05 91.74 173.45"/><polygon class="cls-18" points="106.19 172.05 99.48 167.05 85.71 178.42 91.57 185.67 106.19 172.05"/><path class="cls-20" d="M145.15,76.51a4.34,4.34,0,1,1-4.34,4.34,4.34,4.34,0,0,1,4.34-4.34"/><path class="cls-20" d="M176.71,75.54a4.35,4.35,0,1,1-4.34,4.34,4.35,4.35,0,0,1,4.34-4.34"/><polygon class="cls-8" points="193.5 71.62 175.96 69.32 168.49 70.97 168.49 66.58 175.91 64.17 194.41 69.34 193.5 71.62"/><polygon class="cls-21" points="267.53 302.31 253.84 383.68 266.44 387.05 272.59 351.94 274.05 303.48 267.53 302.31"/><polygon class="cls-22" points="275.14 382.77 266.44 387.05 274.05 303.48 277.68 303.48 276.07 353.62 275.14 382.77"/><polygon class="cls-21" points="284.92 303.48 284.05 354.99 278.31 361.41 283.76 371.51 283.47 388.6 296.52 391.33 299.02 354.48 292.89 303.09 284.92 303.48"/><polygon class="cls-23" points="304.57 388.6 296.52 391.33 292.89 303.09 300.28 302.9 304.57 388.6"/><polygon class="cls-23" points="313.19 301.93 313.82 345.88 318.55 383.12 330.94 378.5 320.07 299.21 313.19 301.93"/><polygon class="cls-21" points="306.67 302.32 309.11 381.32 318.55 383.12 313.19 301.93 306.67 302.32"/><polygon class="cls-24" points="303.23 368.02 317.29 363.45 316.51 351.79 306.78 352.57 302.7 356.19 303.23 368.02"/><polygon class="cls-25" points="302.75 352.26 308.17 350.81 316.51 351.79 302.7 356.19 302.75 352.26"/><polygon class="cls-24" points="269.16 357.14 281.11 356.24 283.97 359.45 283.76 371.51 268.19 367.88 269.16 357.14"/><polygon class="cls-25" points="269.16 357.14 276.07 353.62 284.04 354.99 283.97 359.45 269.16 357.14"/><polygon class="cls-26" points="254.92 294.15 254.92 307.37 303.89 312.81 310.87 303.26 303.5 296.87 295.37 291.58 254.92 294.15"/><polygon class="cls-27" points="329.54 291.04 304.96 290.6 303.5 296.87 303.89 312.81 331.49 303.87 329.54 291.04"/><polygon class="cls-28" points="291.26 286.77 254.92 294.15 303.5 296.87 329.54 291.04 291.26 286.77"/><polygon class="cls-29" points="302.7 266.35 299.72 271.91 302.7 283.63 302.7 291.44 295.39 293.76 291.21 277.56 295.3 264 302.7 266.35"/><polygon class="cls-4" points="287.23 273.26 284.75 267.88 295.2 266.89 295.2 266.89 295.39 293.76 285.56 292.3 285.56 283.63 287.23 273.26"/><polygon class="cls-3" points="284.75 260.31 284.75 267.88 295.21 268.67 297.47 262.9 295.39 259.34 292.67 257.24 284.75 260.31"/><polygon class="cls-30" points="302.87 259.09 298.9 256.79 295.39 259.34 295.21 268.67 302.7 266.35 302.87 259.09"/><polygon class="cls-4" points="290.18 251.65 284.75 260.31 295.39 259.34 297.35 255.76 294.46 250.07 290.18 251.65"/><polygon class="cls-29" points="298.62 251.28 302.87 259.09 295.39 259.34 294.28 250.14 298.62 251.28"/><polygon class="cls-26" points="289.89 247.25 289.92 247.61 290.18 251.65 294.86 251.5 298.62 251.28 298.74 246.94 289.89 247.25"/><path class="cls-5" d="M187,188.94a2.78,2.78,0,1,1-2.78,2.77,2.78,2.78,0,0,1,2.78-2.77"/><path class="cls-5" d="M187,214.87a2.78,2.78,0,1,1-2.78,2.78,2.79,2.79,0,0,1,2.78-2.78"/><polygon class="cls-9" points="177.82 102.59 190.05 106.79 191.81 116.93 194.63 102.84 177.82 102.59"/><polygon class="cls-11" points="301.5 224.26 312.17 224.05 315.68 218.46 326.8 212.81 326.44 206.98 311.8 208.02 301.11 215.98 301.5 224.26"/><polygon class="cls-12" points="147.28 116.56 160.55 112.34 186.3 112.63 171.62 126.76 154.22 126.82 147.28 116.56"/><polygon class="cls-31" points="150.25 118.27 152.87 122.15 172.31 121.76 178.62 114.57 150.25 118.27"/></svg>