<svg id="Layer_1" data-name="Layer 1" xmlns="http://www.w3.org/2000/svg" viewBox="0 0 400 400"><defs><style>.cls-1{fill:#000002;fill-opacity:0.1;}.cls-2{fill:#75451c;}.cls-3{fill:#2b2b2b;}.cls-4{fill:#444648;}.cls-5{fill:#f4c9b2;}.cls-6{fill:#c1907d;}.cls-7{fill:#594165;}.cls-8{fill:#a587b9;}.cls-9{fill:#8f759f;}.cls-10{fill:#785d87;}.cls-11{fill:#fce3d4;}.cls-12{fill:#734d60;}.cls-13{fill:#95637c;}.cls-14{fill:#b2879c;}.cls-15{fill:#d0a0b7;}.cls-16{fill:none;}.cls-17{fill:#ebebea;opacity:0.2;}.cls-18{fill:#995e26;}.cls-19{fill:#ad7038;}.cls-20{fill:#ca8d58;}.cls-21{fill:#fff;}.cls-22{fill:#ffefe7;}.cls-23{fill:#373736;}.cls-24{fill:#484848;}.cls-25{fill:#686b6d;}.cls-26{fill:#797b7d;}</style></defs><title>analysts_ENTP_famous_real_celine_dion</title><g id="Layer_1-2" data-name="Layer_1"><g id="_788030144" data-name=" 788030144"><polygon class="cls-1" points="91.56 387.49 190.16 379.24 292.3 388.9 192.28 398.91 91.56 387.49"/><polygon class="cls-2" points="241.64 173.2 216.08 192.99 218.67 170.61 241.64 173.2"/><path class="cls-3" d="M195,371.7,161.3,351.32s-5.42-37.35-4.48-38.41,21.09-1.41,21.09-1.41Z"/><polygon class="cls-3" points="202.77 320.69 256.72 385.48 195.58 391.37 194.28 376.76 200.29 355.56 202.77 320.69"/><polygon class="cls-3" points="162.95 366.16 169.55 365.34 164.25 388.9 159.06 389.49 156.24 373.23 162.95 366.16"/><polygon class="cls-4" points="159.53 356.74 165.31 359.09 169.55 365.34 141.86 390.78 131.73 389.72 141.16 372.17 159.53 356.74"/><path class="cls-5" d="M148.34,293.6l-7.07,4.59,9.08,55.36-9.19,18.74,7,2.94,17.08-16-3.89-7.66L166,318.92s-18.14-24.85-17.67-25.09Z"/><path class="cls-6" d="M146.81,294.54l-5.54,3.53,2,12.25L166,318.69s-8.12-11.08-13.31-18.62Z"/><polygon class="cls-7" points="169.31 295.72 166.01 318.69 141.28 298.07 156.24 280.16 169.31 295.72"/><polygon class="cls-7" points="210.78 330.23 204.42 355.8 206.3 364.15 200.88 370.28 195.58 391.37 180.86 355.09 172.85 335.65 166.01 318.69 210.07 261.32 227.39 262.73 219.5 295.01 210.78 330.23"/><polygon class="cls-8" points="159.3 300.07 166.01 318.69 227.39 262.73 208.78 223.97 205.72 212.43 160.59 231.75 149.28 271.92 149.28 282.87 156.82 293.12 159.3 300.07"/><path class="cls-9" d="M156.35,184.27l-1.65,21.79,5.89,25.81,6.84-1.19,7.89-1.29,18.14,3L208.78,224l13-32.51,15-15.08L217,185.57l-3.89-4.83-.94-1.18c-16.14.12-29.92.47-45.82-.71h0l-6.6,5.54Z"/><polygon class="cls-8" points="233.63 184.27 221.85 191.46 216.19 190.87 212.78 190.4 163.07 184.98 155.53 188.04 149.52 183.57 154 166.72 181.33 149.76 214.31 151.52 239.53 152.94 233.63 184.27"/><polygon class="cls-10" points="166.6 158.94 178.85 151.29 199.12 150.7 214.9 150.58 233.75 162.6 229.04 173.91 195.23 178.03 193.93 169.08 206.3 158.59 182.39 161.18 163.54 170.25 153.17 175.67 166.6 158.94"/><polygon class="cls-5" points="131.5 172.73 138.09 181.92 149.52 183.57 163.19 158.36 131.14 163.3 127.61 166.13 131.5 172.73"/><polygon class="cls-11" points="120.19 135.74 122.66 140.8 138.09 181.92 113.94 178.38 108.29 135.5 120.19 135.74"/><polygon class="cls-5" points="297.6 154.47 308.32 154.94 308.32 147.64 307.49 146.22 308.32 142.93 308.44 138.09 294.3 138.56 290.89 144.81 297.6 154.47"/><polygon class="cls-12" points="307.38 144.93 308.32 142.93 304.08 140.57 302.55 144.69 306.79 146.34 307.38 144.93"/><polygon class="cls-6" points="285.46 152.47 275.81 154.94 279.11 142.57 283.23 141.98 285.46 152.47"/><polygon class="cls-11" points="278.75 162.48 286.17 162.6 308.32 154.94 290.89 144.81 275.81 154.94 278.75 162.48"/><polygon class="cls-11" points="237.75 162.36 268.5 177.79 251.42 193.7 221.85 191.46 229.98 171.55 237.75 162.36"/><polygon class="cls-5" points="275.81 154.94 251.42 193.7 273.21 195.94 286.17 162.6 275.81 154.94"/><polygon class="cls-13" points="307.14 147.52 308.32 147.64 308.32 142.93 305.49 144.46 303.61 146.93 307.14 147.52"/><path class="cls-14" d="M304.67,145.63l.94.47,2.83,1.54L304.08,150a30.43,30.43,0,0,1-1.18-3.53C303,146.34,304.67,145.63,304.67,145.63Z"/><polygon class="cls-12" points="303.84 146.22 304.08 146.93 304.08 149.99 299.72 147.64 302.08 145.04 303.84 146.22"/><polygon class="cls-13" points="303.13 143.16 304.2 145.04 302.55 146.1 299.72 147.64 299.72 142.93 303.13 143.16"/><polygon class="cls-14" points="304.2 145.04 304.08 143.63 304.08 140.57 299.72 142.93 302.55 144.46 304.2 145.04"/><polygon class="cls-15" points="304.08 143.63 303.26 143.98 302.55 144.46 302.55 145.28 302.55 146.1 303.26 146.46 304.08 146.93 304.78 146.46 305.49 146.1 305.49 145.28 305.49 144.46 304.78 143.98 304.08 143.63"/><polygon class="cls-5" points="254.72 170.96 229.04 173.91 234.57 160.71 254.72 170.96"/><polygon class="cls-8" points="195.23 178.03 181.56 179.68 182.39 161.18 206.3 158.59 195.23 178.03"/><polygon class="cls-16" points="208.07 189.93 189.22 177.56 181.56 179.68 181.21 186.98 208.07 189.93"/><polygon class="cls-8" points="229.04 173.91 208.07 189.93 195.23 178.03 229.04 173.91"/><polygon class="cls-8" points="181.56 179.68 163.54 170.25 163.07 184.98 175.09 190.63 181.21 186.98 181.56 179.68"/><polygon class="cls-17" points="195.23 178.03 181.56 179.68 182.39 161.18 206.3 158.59 195.23 178.03"/><polygon class="cls-17" points="229.04 173.91 208.07 189.93 195.23 178.03 229.04 173.91"/><polygon class="cls-17" points="181.56 179.68 163.54 170.25 163.07 184.98 175.09 190.63 181.21 186.98 181.56 179.68"/><polygon class="cls-8" points="154.7 206.06 163.07 184.98 155.06 184.15 149.52 183.57 154.7 206.06"/><polygon class="cls-8" points="181.44 204.89 163.07 184.98 181.21 186.98 181.44 204.89"/><polygon class="cls-8" points="208.07 189.93 181.44 204.89 208.78 223.97 208.07 189.93"/><polygon class="cls-8" points="154.7 206.06 181.44 204.89 175.32 229.4 154.7 206.06"/><polygon class="cls-9" points="153.88 255.43 175.32 229.4 176.38 258.13 153.88 255.43"/><polygon class="cls-10" points="208.78 223.97 175.32 229.4 203 250.13 208.78 223.97"/><polygon class="cls-9" points="191.22 274.86 176.38 258.13 203 250.13 191.22 274.86"/><polygon class="cls-10" points="214.55 274.39 191.22 274.86 195.35 291.94 214.55 274.39"/><polygon class="cls-9" points="227.39 262.73 203 250.13 214.55 274.39 227.39 262.73"/><polygon class="cls-10" points="156.82 293.12 153.64 308.44 166.01 318.69 156.82 293.12"/><polygon class="cls-10" points="141.28 298.07 156.82 293.12 151.99 279.69 149.28 271.92 141.28 298.07"/><polygon class="cls-10" points="176.38 258.13 149.28 271.92 191.22 274.86 176.38 258.13"/><polygon class="cls-10" points="156.82 293.12 191.22 274.86 180.15 305.85 156.82 293.12"/><polygon class="cls-10" points="191.34 328.23 166.01 318.69 180.15 305.85 191.34 328.23"/><polygon class="cls-10" points="208.31 302.78 180.15 305.85 195.35 291.94 208.31 302.78"/><polygon class="cls-10" points="214.55 274.39 208.31 302.78 218.91 297.48 214.55 274.39"/><polygon class="cls-10" points="191.34 328.23 208.31 302.78 210.78 330.23 191.34 328.23"/><polygon class="cls-10" points="175.91 341.66 191.34 328.23 192.52 349.55 175.91 341.66"/><polygon class="cls-10" points="185.22 365.81 192.52 349.55 200.88 370.28 185.22 365.81"/><polygon class="cls-10" points="210.78 330.23 192.52 349.55 204.42 355.8 210.78 330.23"/><polygon class="cls-7" points="222.32 344.25 204.42 355.8 231.98 355.91 222.32 344.25"/><polygon class="cls-7" points="221.26 373.81 204.42 355.8 200.88 370.28 221.26 373.81"/><polygon class="cls-7" points="195.58 391.37 221.26 373.81 229.63 388.07 195.58 391.37"/><polygon class="cls-7" points="231.98 355.91 221.26 373.81 241.76 367.57 231.98 355.91"/><polygon class="cls-3" points="256.72 385.48 221.26 373.81 241.76 367.57 256.72 385.48"/><polygon class="cls-18" points="222.32 137.15 215.02 150.35 195.23 178.03 237.75 162.36 222.32 137.15"/><polygon class="cls-18" points="266.03 111.59 271.92 139.86 254.72 170.96 237.75 162.36 198.29 99.45 231.69 58.22 266.03 111.59"/><polygon class="cls-2" points="158 118.07 147.4 120.31 143.98 129.02 160.48 158.71 166.84 160.36 183.33 155.18 178.74 124.31 161.77 117.6 161.77 123.25 161.65 123.13 158 118.07"/><path class="cls-6" d="M163,113.36l20.26,41.93,31.57-4.71s-1.41-33.1.6-33.1S163,113.36,163,113.36Z"/><polygon class="cls-5" points="227.51 146.34 215.02 150.35 201.71 152.47 205.44 143.63 180.58 135.5 229.71 71.89 225.56 130.2 227.51 146.34"/><polygon class="cls-2" points="221.85 132.4 215.02 150.35 237.75 162.36 229.71 71.89 221.85 132.4"/><polygon class="cls-19" points="270.39 85.2 271.8 96.04 271.92 139.86 229.71 71.89 270.39 85.2"/><polygon class="cls-2" points="272.86 63.64 282.87 74.6 271.8 96.04 229.71 71.89 272.86 63.64"/><polygon class="cls-18" points="239.29 23.12 274.39 24.18 282.87 74.6 229.71 71.89 195.11 47.39 239.29 23.12"/><polygon class="cls-19" points="217.61 5.21 232.93 2.5 274.39 24.18 212.78 50.45 188.98 14.64 217.61 5.21"/><polygon class="cls-20" points="197.94 28.3 198.41 20.88 232.93 2.5 195.35 0.97 145.04 25.47 197.94 28.3"/><polygon class="cls-2" points="167.66 40.79 153.06 44.68 145.04 25.47 198.41 20.88 167.66 40.79"/><path class="cls-19" d="M147.4,67.53l-.71-3.65-1.64-38.41L157.18,41l4,34.76s-14-.59-13.07-1.06S147.4,67.53,147.4,67.53Z"/><polygon class="cls-2" points="147.28 71.42 133.38 82.61 140.92 112.41 148.46 124.19 156.47 85.67 147.28 71.42"/><polygon class="cls-20" points="156.47 74.48 146.69 63.88 133.38 82.61 156.47 85.67 156.47 74.48"/><polygon class="cls-11" points="157.18 41.02 143.22 86.85 148.46 124.19 180.58 135.5 212.13 115.48 229.71 71.89 198.41 20.88 157.18 41.02"/><path class="cls-9" d="M178.5,100.75c.12-.35,10.84,1.65,10.84,1.65l-22.62,12L157.06,95s10.72,2.24,11.07,2.35l10.37,3.3Z"/><polygon class="cls-21" points="167.54 109.35 158.83 95.92 171.9 98.87 186.75 101.81 167.54 109.35"/><polygon class="cls-5" points="215.49 62.82 217.49 66 199.47 72.36 177.68 86.85 173.67 80.37 168.37 83.91 166.6 62.23 161.54 49.04 168.13 46.21 180.15 56.69 180.5 60.81 181.44 65.29 185.45 62.82 192.4 60.11 209.72 58.34 215.49 62.82"/><polygon class="cls-6" points="174.97 82.02 177.68 86.85 172.02 90.15 168.37 83.91 174.97 82.02"/><polygon class="cls-2" points="219.5 65.17 211.13 56.81 191.1 56.93 190.05 61.05 210.19 60.34 217.49 66 219.5 65.17"/><polygon class="cls-2" points="182.39 53.75 168.25 44.91 160.95 46.91 161.54 49.04 167.31 48.21 180.15 56.69 182.39 53.75"/><polygon class="cls-22" points="185.45 62.82 180.5 60.81 168.37 83.91 177.68 86.85 185.45 62.82"/><polygon class="cls-10" points="189.34 102.52 170.02 96.63 157.06 95.09 168.96 100.28 189.34 102.52"/><polygon class="cls-18" points="183.33 155.18 154.12 175.09 160.48 158.71 183.33 155.18"/><path class="cls-6" d="M186.88,89.22a1.64,1.64,0,0,1,1.28,1.92,1.63,1.63,0,1,1-1.28-1.92Z"/><polygon class="cls-16" points="183.8 181.68 164.01 171.31 184.86 161.42 183.8 181.68"/><path class="cls-3" d="M168.37,58.22a4,4,0,1,1-4,4A4,4,0,0,1,168.37,58.22Z"/><path class="cls-3" d="M197.7,67.88a4,4,0,1,1-4,4A4,4,0,0,1,197.7,67.88Z"/><polygon class="cls-6" points="122.66 140.8 108.29 135.5 118.66 129.14 130.32 128.55 122.66 140.8"/><path class="cls-23" d="M140.92,117.83l5.07-2.35,2.47,8.71L144,129l-6-5.77S141.16,118,140.92,117.83Z"/><polygon class="cls-24" points="132.32 115.12 135.5 112.89 140.92 112.41 145.99 115.48 142.45 119.6 132.32 115.12"/><polygon class="cls-25" points="138.33 118.54 142.45 119.6 143.98 129.02 139.27 131.62 135.74 120.07 138.33 118.54"/><polygon class="cls-26" points="129.97 117.6 129.85 115 135.5 112.89 142.45 119.6 137.86 121.01 129.97 117.6"/><path class="cls-23" d="M134.68,123.72l3.18-2.71-8-6-2.59,3.89s2.23,5.89,2,5.54,5.53-.83,5.53-.83Z"/><polygon class="cls-24" points="127.61 125.25 130.32 128.55 139.27 131.62 137.86 121.01 131.97 122.07 127.61 125.25"/><polygon class="cls-24" points="109.94 121.72 103.22 126.08 95.92 127.96 98.98 136.33 125.72 125.61 131.97 122.07 127.25 119.01 109.94 121.72"/><polygon class="cls-23" points="98.98 136.33 99.81 138.33 130.32 128.55 131.97 122.07 102.87 130.67 98.98 136.33"/><polygon class="cls-11" points="116.65 110.88 127.25 119.01 114.42 130.56 107.94 124.66 103.22 126.08 116.65 110.88"/><polygon class="cls-25" points="102.87 130.67 95.92 127.96 93.8 134.09 99.81 138.33 102.87 130.67"/></g><rect class="cls-16" x="0.5" y="0.5" width="399" height="399"/></g></svg>