<svg id="Layer_1" data-name="Layer 1" xmlns="http://www.w3.org/2000/svg" viewBox="0 0 400 400"><defs><style>.cls-1{fill:none;}.cls-2{fill:#785d87;}.cls-3{fill-opacity:0.1;}.cls-4{fill:#594165;}.cls-5{fill:#a587b9;}.cls-6{fill:#f4c9b2;}.cls-7{fill:#c1907d;}.cls-8{fill:#fce3d4;}.cls-9{fill:#e2d086;}.cls-10{fill:#fff;}.cls-11{fill:#ffefe7;}.cls-12{fill:#474747;}.cls-13{fill:#c1b274;}.cls-14{fill:#4f5253;}.cls-15{fill:#474a4b;}.cls-16{fill:#b2879c;}.cls-17{fill:#734d60;}.cls-18{fill:#95637c;}.cls-19{fill:#8f759f;}.cls-20{fill:#6f7173;}.cls-21{fill:#646668;}.cls-22{fill:#ccc;}.cls-23{fill:#2b2b2b;}</style></defs><title>analysts_ENTP_famous_real_adam_savage</title><g id="Layer_1-2" data-name="Layer_1"><rect class="cls-1" x="152" y="152" width="96" height="96"/></g><g id="illustration_layer_copy_2" data-name="illustration layer_copy_2"><g id="_869244432" data-name=" 869244432"><polygon class="cls-2" points="120.84 35.64 109.23 55.85 136.56 54.73 152.28 47.99 145.91 42 120.84 35.64"/><polygon class="cls-3" points="109.23 379.99 216.65 366.89 312.48 382.99 208.42 399.45 109.23 379.99"/><polygon class="cls-2" points="150.41 9.81 147.41 30.02 160.14 51.36 214.41 48.36 225.26 22.91 216.65 0.46 150.41 9.81"/><polygon class="cls-4" points="147.41 30.02 144.79 47.99 153.77 52.11 214.41 48.36 221.9 37.14 215.53 20.67 147.41 30.02"/><polygon class="cls-5" points="260.82 29.65 216.65 0.46 215.53 20.67 255.21 50.24 260.82 29.65"/><polygon class="cls-2" points="215.53 20.67 214.41 48.36 213.66 52.11 255.21 50.24 257.45 42.75 215.53 20.67"/><polygon class="cls-6" points="226.39 159.16 243.23 94.78 232 70.82 220.03 51.36 211.79 145.31 177.35 143.06 191.2 179.37 204.31 185.73 217.78 179.37 226.39 159.16"/><polygon class="cls-7" points="191.2 179.37 224.14 146.43 211.79 145.31 177.35 143.06 191.2 179.37"/><polygon class="cls-5" points="214.41 48.36 144.79 47.99 109.23 55.85 145.54 59.59 182.97 59.97 214.41 48.36"/><polygon class="cls-8" points="143.29 140.82 145.54 59.59 178.1 53.98 214.41 48.36 220.03 51.36 211.79 145.31 143.29 140.82"/><path class="cls-6" d="M144.42,101.14l.37-7.86L169.87,97l-25.45,4.12Zm71.49-2.25-.38,3.75h0l-34.06-6,34.44,1.87Z"/><polygon class="cls-9" points="153.4 114.99 151.53 141.19 182.59 156.54 204.68 144.93 204.68 114.62 181.85 110.12 174.74 114.62 168 109.75 153.4 114.99"/><polygon class="cls-8" points="159.39 119.11 197.57 119.86 197.57 138.2 186.71 138.2 182.22 130.34 177.35 129.96 172.49 138.2 160.14 137.45 159.39 119.11"/><polygon class="cls-7" points="165.38 129.21 162.76 119.11 197.57 119.86 191.95 131.08 165.38 129.21"/><polygon class="cls-10" points="165.75 123.6 166.5 127.72 190.46 128.09 192.7 123.22 165.75 123.6"/><polygon class="cls-11" points="170.99 78.68 169.5 103.39 181.47 103.39 181.47 97.02 182.59 79.06 170.99 78.68"/><polygon class="cls-7" points="174.74 108.25 169.5 103.39 181.47 103.39 174.74 108.25"/><polygon class="cls-12" points="169.87 97.02 135.43 96.28 136.56 66.7 171.74 67.83 169.87 97.02"/><polygon class="cls-12" points="182.97 68.58 181.47 97.02 215.91 99.27 218.53 68.95 182.97 68.58"/><polygon class="cls-8" points="164.63 92.16 141.42 91.41 142.17 71.94 163.13 75.69 164.63 92.16"/><polygon class="cls-6" points="142.17 71.94 165.75 72.69 164.63 92.16 156.02 80.55 142.17 71.94"/><polygon class="cls-8" points="195.69 77.56 187.09 92.91 211.04 94.4 212.91 73.82 195.69 77.56"/><polygon class="cls-6" points="188.21 73.44 187.09 92.91 203.93 80.55 212.91 73.82 188.21 73.44"/><polygon class="cls-4" points="275.8 40.13 214.41 48.36 220.03 51.36 232 70.82 246.6 81.68 284.4 63.71 275.8 40.13"/><polygon class="cls-13" points="223.4 94.78 218.53 68.95 220.03 51.36 237.24 61.09 249.97 68.58 243.23 94.78 229.01 86.54 227.88 95.53 223.4 94.78"/><polygon class="cls-9" points="191.95 60.34 191.95 68.58 218.53 68.95 219.28 60.34 191.95 60.34"/><polygon class="cls-9" points="145.54 59.59 172.49 60.34 171.74 67.83 145.54 67.08 145.54 59.59"/><polygon class="cls-12" points="171.74 71.57 182.97 71.57 185.59 76.06 182.59 79.06 170.99 78.68 166.5 74.57 171.74 71.57"/><polygon class="cls-4" points="167.62 356.78 166.5 317.48 190.08 298.02 199.06 324.6 190.08 359.03 187.84 365.77 178.1 363.9 167.62 356.78"/><polygon class="cls-2" points="166.5 317.48 165.75 296.52 175.11 283.42 163.88 258.35 191.2 254.6 207.3 260.59 218.15 267.7 206.93 295.03 199.06 324.6 166.5 317.48"/><path class="cls-2" d="M165.75,296.52,165,277.44a9.1,9.1,0,0,1,3.75.75L178.85,292Z"/><polygon class="cls-14" points="174.36 232.89 173.61 190.97 185.59 184.98 198.69 177.5 212.91 180.12 208.05 259.85 169.12 257.6 174.36 232.89"/><polygon class="cls-15" points="174.36 232.89 173.61 190.97 185.59 184.98 187.84 183.11 185.21 249.73 171.37 247.49 174.36 232.89"/><polygon class="cls-16" points="160.14 170.76 184.09 161.03 181.47 196.96 170.62 211.56 177.35 235.51 173.99 242.25 162.76 243.37 158.26 241.88 153.02 216.8 160.14 170.76"/><polygon class="cls-17" points="147.79 230.65 160.14 170.76 162.76 243.37 158.26 241.88 148.91 237.76 147.79 230.65"/><polygon class="cls-18" points="263.07 187.23 225.26 171.88 206.93 198.83 208.05 259.85 265.31 241.88 263.07 187.23"/><polygon class="cls-4" points="177.35 235.51 181.47 196.96 162.76 211.18 177.35 235.51"/><polygon class="cls-19" points="188.58 173.01 194.2 180.49 185.59 184.98 180.72 204.07 165.75 185.36 184.09 161.03 188.58 173.01"/><polygon class="cls-20" points="185.59 184.98 211.04 184.23 220.4 179.74 216.28 173.01 188.58 173.01 185.59 184.98"/><polygon class="cls-21" points="185.59 184.98 187.84 184.61 188.58 173.01 185.59 184.98"/><polygon class="cls-6" points="147.79 230.65 134.68 234.39 127.95 245.99 147.04 251.61 162.76 243.37 147.79 230.65"/><polygon class="cls-19" points="202.06 203.32 238.74 185.36 240.99 167.02 227.88 153.54 216.28 173.01 214.78 176 211.04 184.23 202.06 203.32"/><polygon class="cls-4" points="226.76 210.44 210.29 199.21 202.06 203.32 208.05 259.85 226.76 210.44"/><polygon class="cls-17" points="205.8 239.26 237.99 226.16 262.69 227.65 269.43 256.85 260.45 257.22 249.22 275.94 210.67 268.82 207.3 259.85 205.8 239.26"/><polygon class="cls-6" points="192.7 243.75 205.8 239.26 207.3 259.85 192.7 260.59 185.96 251.98 192.7 243.75"/><polygon class="cls-4" points="206.93 295.03 165 272.19 178.85 266.95 191.2 260.59 208.05 259.85 258.2 257.22 254.83 274.44 206.93 295.03"/><polygon class="cls-16" points="244.73 189.1 237.99 226.16 269.43 256.85 271.68 173.01 251.46 174.5 244.73 189.1"/><polygon class="cls-17" points="238.74 185.36 244.73 189.1 260.08 179.74 271.68 173.01 227.88 153.54 238.74 185.36"/><polygon class="cls-12" points="139.18 241.13 171.74 244.5 172.11 252.73 154.15 257.22 142.54 257.97 120.09 249.36 139.18 241.13"/><polygon class="cls-20" points="119.71 259.47 120.09 249.36 154.15 257.22 159.39 261.71 157.89 267.7 119.71 259.47"/><polygon class="cls-22" points="132.44 256.1 92.02 263.21 92.39 265.45 133.19 258.72 134.31 256.85 132.44 256.1"/><path class="cls-12" d="M91.64,268.45a4.77,4.77,0,0,0,4.49-4.12A4.16,4.16,0,0,0,92,260.21a4.8,4.8,0,0,0-4.5,4.12A4.16,4.16,0,0,0,91.64,268.45Z"/><polygon class="cls-16" points="157.52 267.7 178.85 263.96 181.47 266.58 178.85 292.03 156.02 282.68 157.52 267.7"/><polygon class="cls-18" points="167.62 356.78 190.08 359.4 189.71 375.87 166.13 378.49 142.92 375.87 167.62 356.78"/><polygon class="cls-17" points="189.71 375.87 189.71 380.74 142.92 380.37 142.92 375.87 189.71 375.87"/><polygon class="cls-18" points="215.16 383.74 233.87 386.36 252.59 383.36 243.23 363.9 239.86 359.03 222.65 361.28 220.03 366.14 215.16 383.74"/><polygon class="cls-17" points="215.16 383.74 215.53 388.98 252.96 388.6 252.59 383.36 215.16 383.74"/><polygon class="cls-4" points="218.15 320.1 212.91 327.59 220.03 366.14 243.23 363.9 249.59 317.48 218.15 320.1"/><polygon class="cls-2" points="206.93 295.03 212.91 327.59 249.59 317.48 252.96 292.78 227.14 283.05 206.93 295.03"/><polygon class="cls-4" points="252.96 292.78 254.83 278.19 236.12 281.55 213.66 290.91 213.66 290.91 252.96 292.78"/><polygon class="cls-18" points="265.31 278.56 213.66 290.91 210.29 274.81 222.65 263.59 262.32 264.33 265.31 278.56"/><polygon class="cls-2" points="210.29 274.81 207.3 259.85 260.45 257.22 262.32 264.33 210.29 274.81"/><polygon class="cls-8" points="142.54 241.5 134.68 234.39 127.95 245.99 134.31 246.37 142.54 241.5"/><polygon class="cls-7" points="162.76 243.37 165.75 247.86 192.7 243.75 177.35 235.51 162.76 243.37"/><polygon class="cls-6" points="154.15 257.22 165.75 247.86 178.85 254.23 181.47 266.58 157.89 267.7 154.15 257.22"/><polygon class="cls-8" points="181.47 237.38 165.75 247.86 181.47 266.58 192.7 260.59 192.7 243.75 181.47 237.38"/><path class="cls-23" d="M200.19,79.06a4.13,4.13,0,1,1-4.5,4.11A4.31,4.31,0,0,1,200.19,79.06Z"/><path class="cls-23" d="M156.39,78.31a4.13,4.13,0,1,1-4.49,4.12A4.32,4.32,0,0,1,156.39,78.31Z"/><polygon class="cls-8" points="229.76 79.81 226.76 103.39 240.24 105.63 245.85 84.3 229.76 79.81"/><polygon class="cls-7" points="231.25 95.15 233.12 85.05 240.99 86.92 231.25 95.15"/><polygon class="cls-7" points="226.76 103.39 237.62 116.49 240.24 105.63 226.76 103.39"/></g></g></svg>