<svg id="illustration_layer_copy_2" data-name="illustration_layer copy 2" xmlns="http://www.w3.org/2000/svg" viewBox="0 0 400 400"><defs><style>.cls-1,.cls-20{fill:#2b2b2b;}.cls-1,.cls-10,.cls-11,.cls-12,.cls-13,.cls-14,.cls-15,.cls-16,.cls-17,.cls-18,.cls-19,.cls-2,.cls-3,.cls-4,.cls-5,.cls-6,.cls-7,.cls-8,.cls-9{fill-rule:evenodd;}.cls-1{opacity:0.1;}.cls-2{fill:#594165;}.cls-3{fill:#785d87;}.cls-4{fill:#8f759f;}.cls-5{fill:#e2e2e2;}.cls-6{fill:#95637c;}.cls-7{fill:#734d60;}.cls-8{fill:#c1907d;}.cls-9{fill:#fce3d4;}.cls-10{fill:#c6c6c6;}.cls-11{fill:#d1d1d1;}.cls-12{fill:#f4c9b2;}.cls-13{fill:#ffefe7;}.cls-14{fill:#6d6d6d;}.cls-15{fill:#bababa;}.cls-16{fill:#9b9b9b;}.cls-17{fill:#757575;}.cls-18{fill:#5b5b5b;}.cls-19{fill:#d0a0b7;}</style></defs><title>analysts_ENTP_famous_real_thomas_edison</title><polygon class="cls-1" points="83 380.64 202.71 400 307.01 380.8 198.95 362.6 83 380.64"/><polygon class="cls-2" points="153.25 280.5 206.92 330.74 250.86 277.25 204.8 274.83 153.25 280.5"/><polygon class="cls-3" points="170.94 326.33 192.98 341.38 206.92 341.38 209.84 335.15 204.95 325.19 153.25 280.5 170.94 326.33"/><polygon class="cls-2" points="206.92 341.38 170.94 326.33 182.07 355.22 189.91 366.27 209.71 375.56 211.51 353.72 206.92 341.38"/><polygon class="cls-3" points="182.07 355.22 151.98 375.68 183.49 378.08 206 372.44 182.07 355.22"/><polygon class="cls-2" points="151.98 375.68 151.98 381.62 183.27 381.62 199.08 376.69 202.71 381.62 209.48 381.62 209.77 374.54 206 372.44 151.98 375.68"/><polygon class="cls-4" points="255.01 270.42 204.95 325.19 206.92 341.38 227.13 351.12 249.18 344.86 263.67 300 260.36 284.64 255.01 270.42"/><polygon class="cls-3" points="249.18 344.86 206.92 341.38 209.77 364.75 223.96 370.17 241.68 368.29 249.18 344.86"/><polygon class="cls-5" points="88.94 95.21 76.91 75.13 90.29 49.67 107.78 49.67 119.86 74.33 108.77 95.21 97.13 97.71 88.94 95.21"/><polygon class="cls-3" points="102.74 96.08 103.47 83.91 111.69 70.6 84.54 70.77 92.71 83.08 94.59 96.74 96.15 96.79 95.55 82.39 90.37 73.94 105.82 73.21 101.13 83.68 100.84 96.79 102.74 96.08"/><polygon class="cls-6" points="97.68 104.17 90.1 102.18 88.94 95.21 108.77 95.21 107.78 99.7 97.68 104.17"/><polygon class="cls-7" points="91.54 110.73 107.78 99.7 90.1 102.18 91.54 110.73"/><polygon class="cls-8" points="114.03 142.54 119.86 119.19 115.72 114.48 97.68 128.66 114.03 142.54"/><polygon class="cls-9" points="84.46 107.4 107.78 99.7 115.72 114.48 101.09 129.91 84.46 107.4"/><polygon class="cls-2" points="168.1 149.25 116.52 176.68 138.18 211.03 155.5 177.17 168.1 149.25"/><polygon class="cls-2" points="280.14 159.93 310.12 234.1 267.44 232 272.3 180.28 280.14 159.93"/><polygon class="cls-3" points="250.86 151.54 280.14 159.93 269.44 266.81 255.01 270.42 242.79 283.78 222.13 288.07 193.52 275.47 153.25 280.5 139.13 278.24 138.18 211.03 168.1 149.25 182.16 143.79 250.86 151.54"/><polygon class="cls-6" points="168.1 149.25 159.04 196 157.94 227.21 153.25 280.5 181.32 289.2 192.98 279.25 202.97 292.16 222.13 288.07 232.43 234.1 245.96 198.18 250.86 151.54 168.1 149.25"/><polygon class="cls-10" points="168.1 149.25 197.05 214.74 250.86 151.54 199.64 164.04 168.1 149.25"/><polygon class="cls-11" points="157.94 17.93 133.29 37.37 139.82 67.25 148.05 38.07 157.94 17.93"/><polygon class="cls-9" points="157.94 17.93 143.29 39.97 136.37 94.38 141.3 128.39 166.04 132.24 198 159.69 243.17 150.74 271.85 86.84 258.7 66.98 238.5 23.78 181.8 11.63 157.94 17.93"/><polygon class="cls-12" points="238.5 23.78 221.76 115.41 204.95 138.57 190.27 142.54 198 159.69 213.94 159.75 256.14 135.24 262.24 117.72 264.83 108 266.33 105.32 274.85 81.83 258.7 66.98 238.5 23.78"/><polygon class="cls-12" points="203.85 60.68 174.15 82.37 148.05 52.13 203.85 60.68"/><polygon class="cls-8" points="174.15 82.37 166.95 89.81 161.66 80.26 174.15 82.37"/><polygon class="cls-13" points="179.12 56.89 174.15 82.37 167.4 83.18 161.66 80.26 166.04 54.89 179.12 56.89"/><polygon class="cls-8" points="152 96 188.5 101.75 190.69 107.06 149.66 100.8 152 96"/><polygon class="cls-14" points="179.12 56.89 181.12 49.43 206.78 54.89 203.85 60.68 179.12 56.89"/><polygon class="cls-14" points="166.04 54.89 166.04 46.73 149.68 45.38 148.05 52.13 166.04 54.89"/><polygon class="cls-8" points="166.04 132.24 232.43 143.04 207.14 166.12 195.75 164.19 166.04 132.24"/><polygon class="cls-12" points="179.12 56.89 174.82 52.13 174.71 39.75 170.52 51.57 166.04 54.89 179.12 56.89"/><polygon class="cls-8" points="266.33 105.33 252.2 100.28 262.24 117.72 266.33 105.33"/><polygon class="cls-8" points="258.6 94.66 262.1 85.03 269.65 87.46 258.6 94.66"/><polygon class="cls-5" points="206.78 5.22 211.03 20.2 241.66 29.19 254.2 33 266.65 27.6 224.78 0.6 206.78 5.22"/><polygon class="cls-15" points="241.66 29.19 245.81 43.44 254.14 54.89 250.79 67.43 243.7 85.03 251.84 92.51 260.27 76.55 274.85 81.83 279.15 67 269.73 58.66 278.55 49.43 266.65 27.6 241.66 29.19"/><polygon class="cls-11" points="206.78 5.22 241.66 29.19 208.57 30.64 181.8 11.63 206.78 5.22"/><polygon class="cls-5" points="250.79 67.43 279.15 67 278.55 49.43 245.81 43.44 250.79 67.43"/><polygon class="cls-5" points="256.14 135.24 218.41 140.76 207.14 166.12 219.16 164.04 233.89 157.2 250.86 151.54 256.14 135.24"/><polygon class="cls-5" points="166.04 132.24 199.64 164.04 188.4 161.02 179.65 154.67 168.1 149.25 166.04 132.24"/><polygon class="cls-16" points="201.1 169.55 197.56 189.02 197.05 214.74 201.1 189.44 201.1 169.55"/><polygon class="cls-17" points="207.14 166.12 199.64 164.04 195.58 168.2 197.14 172.89 207.14 175.07 209.84 170.91 207.14 166.12"/><polygon class="cls-18" points="207.14 166.12 233.89 157.2 224.16 182.91 207.14 175.07 207.14 166.12"/><polygon class="cls-18" points="197.14 172.89 180.44 177.17 179.65 154.67 199.64 164.04 197.14 172.89"/><polygon class="cls-19" points="197.05 214.74 161.22 181.65 168.1 149.25 197.05 214.74"/><polygon class="cls-19" points="250.86 151.54 197.05 214.74 245.87 189.44 250.86 151.54"/><polygon class="cls-4" points="250.86 151.54 275.89 196.64 232.43 234.1 250.86 151.54"/><polygon class="cls-4" points="157.94 227.21 138.18 211.03 168.1 149.25 157.94 227.21"/><polygon class="cls-7" points="197.05 214.74 192.98 250.65 192.98 279.25 197.05 250.97 197.05 214.74"/><polygon class="cls-7" points="209.38 223.45 204.8 226.9 208.53 232 212.99 228.12 209.38 223.45"/><polygon class="cls-7" points="207.4 243.36 202.82 246.81 206.56 251.9 211.02 248.03 207.4 243.36"/><polygon class="cls-7" points="205.43 263.26 200.85 266.71 204.58 271.81 209.05 267.94 205.43 263.26"/><polygon class="cls-4" points="310.12 234.1 281.6 274.37 264.94 271.83 260.35 258.94 272.3 227.72 310.12 234.1"/><polygon class="cls-5" points="260.35 258.94 255.01 270.42 262.15 278.88 274.3 284.71 281.6 274.37 260.35 258.94"/><polygon class="cls-12" points="255.01 270.42 263.67 300 274.3 284.71 255.01 270.42"/><polygon class="cls-3" points="138.18 211.03 118.47 153.15 103.99 144.24 93.27 158.17 99.45 206.14 138.18 211.03"/><polygon class="cls-5" points="114.03 142.54 91.54 146.35 93.27 158.17 118.47 153.15 114.03 142.54"/><polygon class="cls-12" points="114.03 142.54 84.46 107.4 76.13 126.22 91.54 146.35 114.03 142.54"/><polygon class="cls-2" points="209.77 364.75 199.64 385.39 222.29 388.51 242 386.32 241.68 368.29 209.77 364.75"/><polygon class="cls-3" points="199.64 385.39 199.64 392.26 242 392.88 242 386.32 199.64 385.39"/><polygon class="cls-12" points="174.15 82.37 189.25 91 194.5 114.5 174.15 82.37"/><polygon class="cls-12" points="161.66 80.26 149.25 87 147.25 104.5 161.66 80.26"/><circle class="cls-20" cx="188.55" cy="65.07" r="3.4"/><circle class="cls-20" cx="157.47" cy="60.68" r="3.4"/></svg>