<svg id="Layer_1" data-name="Layer 1" xmlns="http://www.w3.org/2000/svg" viewBox="0 0 400 400"><defs><style>.cls-1,.cls-5{fill:#2b2b2b;}.cls-1,.cls-10,.cls-11,.cls-12,.cls-13,.cls-14,.cls-15,.cls-16,.cls-17,.cls-18,.cls-19,.cls-2,.cls-20,.cls-3,.cls-4,.cls-5,.cls-6,.cls-7,.cls-8,.cls-9{fill-rule:evenodd;}.cls-1{opacity:0.1;}.cls-2{fill:#f4c9b2;}.cls-3{fill:#c1907d;}.cls-4{fill:#734d60;}.cls-6{fill:#785d87;}.cls-7{fill:#594165;}.cls-8{fill:#8f759f;}.cls-9{fill:#543042;}.cls-10{fill:#a3a3a3;}.cls-11{fill:#fce3d4;}.cls-12{fill:#8f8f8f;}.cls-13{fill:#cfcfcc;}.cls-14{fill:#95637c;}.cls-15{fill:#c2b373;}.cls-16{fill:#e3d187;}.cls-17{fill:#fff7ad;}.cls-18{fill:#a19161;}.cls-19{fill:#a587b9;}.cls-20{fill:#ffefe7;}</style></defs><title>analysts_ENTP_famous_fictional_julian_stark_alias</title><polygon class="cls-1" points="120.01 383.16 262.02 371.04 337.85 386.38 281.59 400.5 120.01 383.16"/><polygon class="cls-2" points="221.05 39.53 214.01 124.99 229.74 191.28 252.31 177.57 265.1 140.07 266.18 99.44 272.81 88.29 272.81 77.8 249.88 82.18 245.41 76.67 238.53 61.29 229.88 53.71 221.05 39.53"/><polygon class="cls-3" points="191.34 144.34 219.62 126.53 224.54 141.79 244.23 137.37 241.36 165.2 233.34 174.22 217.43 175.82 205.97 155.91 191.34 144.34"/><polygon class="cls-4" points="290.34 191.75 308.61 196.77 314.22 154.89 290.93 148.08 281.26 169.81 290.34 191.75"/><polygon class="cls-4" points="192.89 260.92 190.16 279.45 237.79 295 274.72 292.81 289.23 273.48 284.6 259.21 192.89 260.92"/><polygon class="cls-5" points="284.06 263.26 194.25 263.26 194.25 257.08 207.22 254.31 269.63 253.46 284.06 257.08 284.06 263.26"/><polygon class="cls-6" points="235.51 255.69 201.24 255.69 191.44 174.22 205.97 155.91 215.57 166.58 222.19 166.76 233.34 174.22 239.03 216.98 235.51 255.69"/><polygon class="cls-7" points="233.33 174.22 235.51 255.69 284.2 255.69 275.57 149.48 265.71 139.65 254.79 155.74 241.36 165.2 233.33 174.22"/><polygon class="cls-6" points="265.71 139.65 241.36 165.2 255.96 186.44 264.51 165.06 265.71 139.65"/><polygon class="cls-8" points="222.19 166.76 205.97 155.91 208.53 180.18 213.58 184.24 222.19 166.76"/><polygon class="cls-4" points="181.05 171.47 197.47 219.01 191.94 237.52 181.05 252.72 166.63 235.31 168.83 206.71 181.05 171.47"/><polygon class="cls-9" points="226.55 282.1 190.16 279.45 181.05 171.47 205.97 155.91 208.53 188.88 225.09 227.07 226.55 282.1"/><polygon class="cls-9" points="289.23 273.48 290.93 148.08 265.71 139.65 258.77 179.42 243.23 226.45 247.69 280.46 289.23 273.48"/><polygon class="cls-4" points="243.22 226.45 271.88 181.55 265.71 139.65 243.22 226.45"/><polygon class="cls-4" points="225.09 227.07 205.97 155.91 197.47 191.02 225.09 227.07"/><polygon class="cls-9" points="308.61 196.77 344.95 180.74 298.72 113.01 284.04 118.62 283.48 127.56 308.61 196.77"/><polygon class="cls-9" points="168.83 206.71 123.32 195.67 116.85 202.92 119.53 218.19 181.05 252.72 168.83 206.71"/><polygon class="cls-10" points="85.72 180.74 90.03 186.02 117.96 193.58 119.62 186.81 65.95 160 55.95 161.85 53.05 168.01 85.72 180.74"/><polygon class="cls-2" points="121.22 219.14 123.32 195.67 96.61 185.25 91.21 190.24 92.96 194.58 93.61 203.99 93.95 210.25 109.18 216.88 121.22 219.14"/><polygon class="cls-11" points="96.61 185.25 92.96 194.58 89.97 196.39 87.36 192.53 81.38 189.83 85.72 180.74 96.61 185.25"/><polygon class="cls-12" points="109.18 216.88 112.06 201.83 104.6 199.27 96.66 209.27 96.71 215.14 95.48 221.78 107.53 225.34 109.18 216.88"/><polygon class="cls-3" points="104.6 199.27 103.03 217.16 87.53 213.03 87.36 192.53 92.96 194.58 104.6 199.27"/><polygon class="cls-10" points="59.51 154.37 61.86 150.13 64.74 151.77 65.84 156.69 64.33 159.71 60.01 157.41 59.51 154.37"/><polygon class="cls-13" points="119.62 186.81 55.95 161.85 59.51 154.37 116.37 175.19 120.45 183.52 119.62 186.81"/><polygon class="cls-14" points="171.75 319.09 189.31 269.3 237.79 295 205.56 329.13 188.17 339.76 171.75 319.09"/><polygon class="cls-4" points="170.78 355.8 171.75 319.09 205.56 329.13 191.65 360.44 177.43 369.52 170.78 355.8"/><polygon class="cls-7" points="138.99 383.05 139.86 376.67 180.89 365.85 191.26 376.67 191.26 383.05 179.09 383.05 179.18 377.93 165.83 383.14 138.99 383.05"/><polygon class="cls-6" points="139.86 376.67 170.78 355.8 191.65 360.44 191.26 376.67 139.86 376.67"/><polygon class="cls-14" points="262.78 332.32 238.17 294.84 289.23 273.48 297.75 324.01 291.26 338.24 262.78 332.32"/><polygon class="cls-4" points="286.54 363.83 262.78 332.32 297.75 324.01 307.03 365.75 295.5 377.49 286.54 363.83"/><polygon class="cls-7" points="309.93 392.81 273.21 392.81 273.21 386.14 295.5 377.49 309.73 386.24 309.93 392.81"/><polygon class="cls-6" points="273.21 386.14 286.54 363.83 307.03 365.75 309.73 386.24 273.21 386.14"/><polygon class="cls-15" points="144.37 76.77 135.6 67.45 138.68 59.03 141.11 64.01 144.37 63.38 144.37 76.77"/><polygon class="cls-16" points="135.6 67.45 141.11 64.01 157.96 48.17 148.47 36.98 150.06 31.64 147.39 27.85 138.97 38.66 135.6 67.45"/><polygon class="cls-15" points="148.47 36.98 147.39 22.86 155.4 8.61 171.27 29.54 168.69 38.48 159.33 42.17 148.47 36.98"/><polygon class="cls-16" points="155.4 8.61 168.69 38.48 193.32 37.4 196.74 26.12 185.03 14.79 155.4 8.61"/><polygon class="cls-17" points="155.4 8.61 196.74 26.12 205.81 16.61 211.13 1.5 181.46 9.66 155.4 8.61"/><polygon class="cls-16" points="211.13 1.5 196.74 26.12 217.61 17.32 225.06 6.22 211.13 1.5"/><polygon class="cls-17" points="221.05 39.53 205.53 34.03 196.74 26.12 225.06 6.22 249.6 11.18 246.6 21.57 221.05 39.53"/><polygon class="cls-16" points="229.88 53.71 221.05 39.53 249.6 11.18 266.76 29.54 264.85 38.94 229.88 53.71"/><polygon class="cls-15" points="270.32 46.26 266.06 49.21 229.88 53.71 266.76 29.54 270.32 46.26"/><polygon class="cls-18" points="268.31 80.94 270.32 46.26 229.88 53.71 238.53 61.29 249.88 82.18 255.39 84.17 268.31 80.94"/><polyline class="cls-3" points="255.39 95.17 266.09 102.54 266.78 91.27 261.66 88.81"/><polygon class="cls-3" points="283.48 127.56 266.09 102.54 273.64 93.5 279.63 88.73 279.23 82.95 287.1 78.99 298.72 113.01 283.48 127.56"/><polygon class="cls-11" points="231.52 85.77 224.54 141.79 180.98 151.13 150.32 108.99 140.99 63.43 148.47 36.98 168.69 38.48 196.74 26.12 221.05 39.53 231.52 85.77"/><polygon class="cls-2" points="170.07 77.6 176.29 79.14 181.02 81.61 183.56 85.2 187.66 80.69 191.4 76.45 194.8 72.64 212.38 67.71 218.75 69.45 200.52 83.06 192.6 105.15 188.11 108.29 181.93 107.54 171.11 90.93 153.74 83.23 158.59 79.48 170.07 77.6"/><polygon class="cls-19" points="228.64 108.9 228.1 113.26 242.48 105.49 242.48 101.34 239.18 100.16 228.64 108.9"/><polygon class="cls-8" points="253.91 81.38 239.19 100.16 242.48 105.49 256.58 89.81 256.58 82.94 253.91 81.38"/><polygon class="cls-6" points="248.25 69.87 250.45 86.48 255.39 95.17 261.65 88.17 263.25 65.87 248.25 69.87"/><polygon class="cls-7" points="263.25 65.87 255.39 95.17 266.78 91.27 268.54 88.36 270.19 79.05 263.25 65.87"/><polygon class="cls-2" points="266.09 102.54 266.78 91.27 268.58 84.83 275.31 83.39 279.63 88.73 266.09 102.54"/><polygon class="cls-11" points="260.34 76.71 287.1 78.99 279.63 88.73 259.05 81.54 260.34 76.71"/><polygon class="cls-18" points="176.29 79.14 175.58 74.75 158.06 77.81 153.74 83.23 158.44 81.44 176.29 79.14"/><polygon class="cls-18" points="189.75 71.7 191.4 76.44 212.63 69.64 218.75 69.45 211.87 65.57 189.75 71.7"/><polygon class="cls-20" points="187.66 80.69 181.02 81.61 181.93 107.54 192.6 105.15 187.66 80.69"/><polygon class="cls-3" points="210.07 116.47 209.56 119.81 198.31 121.42 193.26 124.4 188.63 124.77 181.69 127.33 180.43 124.74 187.49 121.66 192.5 121.42 197.11 118.45 210.07 116.47"/><path class="cls-5" d="M170.78,83.51A4.49,4.49,0,1,1,166.3,88a4.49,4.49,0,0,1,4.48-4.48"/><path class="cls-5" d="M201.44,77.35A4.49,4.49,0,1,1,197,81.84a4.49,4.49,0,0,1,4.49-4.49"/><polygon class="cls-15" points="238.53 61.28 243.28 81.18 249.88 82.18 248.25 69.87 238.53 61.28"/><polygon class="cls-3" points="188.49 112.18 181.93 107.54 192.6 105.15 188.49 112.18"/><polygon class="cls-2" points="161.65 58.33 176.34 57.02 190.69 49.49 161.65 58.33"/><polygon class="cls-2" points="163.45 64.72 178.14 63.41 192.49 55.88 163.45 64.72"/></svg>