<svg id="Layer_1" data-name="Layer 1" xmlns="http://www.w3.org/2000/svg" viewBox="0 0 400 400"><defs><style>.cls-1,.cls-26{fill:#2b2b2b;}.cls-1,.cls-10,.cls-11,.cls-12,.cls-13,.cls-14,.cls-15,.cls-16,.cls-17,.cls-18,.cls-19,.cls-2,.cls-20,.cls-21,.cls-22,.cls-23,.cls-24,.cls-25,.cls-26,.cls-3,.cls-4,.cls-5,.cls-6,.cls-7,.cls-8,.cls-9{fill-rule:evenodd;}.cls-1{opacity:0.1;}.cls-2{fill:#828382;}.cls-3{fill:#a8a8a9;}.cls-4{fill:#8b8a8a;}.cls-5{fill:#cdcccb;}.cls-6{fill:#795d88;}.cls-7{fill:#8f759f;}.cls-8{fill:#eaeceb;}.cls-9{fill:#a587b8;}.cls-10{fill:#c18f7c;}.cls-11{fill:#f4cab2;}.cls-12{fill:#444648;}.cls-13{fill:#5e5e5f;}.cls-14{fill:#b2879c;}.cls-15{fill:#95637c;}.cls-16{fill:#734d61;}.cls-17{fill:#bc8f2d;}.cls-18{fill:#e1a940;}.cls-19{fill:#e4c723;}.cls-20{fill:#543042;}.cls-21{fill:#dddddc;}.cls-22{fill:#fbe3d4;}.cls-23{fill:#6d6e6e;}.cls-24{fill:#fff0e8;}.cls-25{fill:#393939;}</style></defs><title>analysts_ENTP_famous_real_tom_hanks</title><polygon class="cls-1" points="214.4 400.11 294.39 390.01 137.1 371.63 69.67 381.73 214.4 400.11"/><polygon class="cls-2" points="85.67 310.98 83.73 314.86 88.23 377.51 91.1 380.57 96.8 379.66 95.34 314.81 91.49 310.98 85.67 310.98"/><polygon class="cls-3" points="161.97 310.01 157.63 314.4 164.41 370.14 171.65 366.9 170.32 310.59 166.93 309.03 161.97 310.01"/><polygon class="cls-3" points="83.54 379.65 72.47 299.33 89.55 299.72 131.47 305.45 131.86 377.9 128.77 385.13 121.01 384.19 116.34 317.58 86.83 313.69 91.1 380.57 83.54 379.65"/><polygon class="cls-4" points="134.21 303.21 128.74 307.69 128.77 385.13 136.23 383.05 141.19 317.58 166.72 312.64 169.07 366.11 171.65 366.9 176.41 361.7 177.31 300.49 165.55 299.13 134.21 303.21"/><polygon class="cls-5" points="72.47 299.33 128.74 307.69 177.31 300.49 165.12 296.1 92.46 296.42 72.47 299.33"/><polygon class="cls-6" points="96.76 254.23 97.92 257.72 102.69 255.57 103.19 254.56 102.75 253.61 96.76 254.23"/><polygon class="cls-7" points="116.3 255.22 102.75 253.61 102.69 255.57 113.53 257.47 117.1 256.66 116.3 255.22"/><polygon class="cls-8" points="125.86 230.41 123.74 255.3 123.03 259.53 132.06 259.5 149.18 255.41 150.17 253.32 157.54 230.13 125.86 230.41"/><polygon class="cls-7" points="125.68 257.45 123.74 255.3 120.23 256.62 115.95 260.5 124.51 261.14 125.68 257.45"/><polygon class="cls-6" points="121.33 261.01 125.68 257.45 136.72 257.43 136.73 258.75 132.7 261.48 121.33 261.01"/><polygon class="cls-9" points="116.3 255.22 103.33 265.75 105.01 268.48 133.03 268.78 148.49 262.19 150.62 256.85 148.02 255.3 141.37 255.36 132.06 259.5 119.05 259.54 124.28 255.3 116.3 255.22"/><polygon class="cls-7" points="101.55 272.87 103.34 265.75 133.67 265.94 136.21 268.08 135.01 274.5 130.18 277.33 102.99 275.06 101.55 272.87"/><polygon class="cls-6" points="147.25 259.38 133.67 265.94 131.66 274.92 134.59 277.4 153.23 274.97 154.93 271.96 153.9 263.22 147.25 259.38"/><polygon class="cls-7" points="122.42 293.3 118.58 289.97 126.48 277.01 131.66 274.92 154.93 271.96 162.38 284.96 159.3 288.34 122.42 293.3"/><polygon class="cls-9" points="91.91 286.88 101.55 272.87 131.66 274.92 122.18 290.39 119.19 292.39 94.07 289.96 91.91 286.88"/><polygon class="cls-7" points="91.91 286.88 122.18 290.39 125.42 293.57 125.9 298.56 123.11 301.62 92.46 296.42 91.91 286.88"/><polygon class="cls-6" points="162.76 285.03 122.18 290.39 123.11 301.62 165.12 296.1 166.63 290.2 162.76 285.03"/><path class="cls-5" d="M129.34,250.17l16.91.29-.26,1.29-16.73-.28.08-1.3Zm.19-3,17.33.29-.26,1.29-17.15-.28.08-1.3Zm.39-6.31,18.23.3-.17,1.24-18.14-.24.08-1.3Zm.21-3.44,14.06.22,1.17.7-.31.69-15-.32.08-1.29Zm-.4,6.46,17.8.31-.26,1.29-17.62-.31Z"/><path class="cls-6" d="M103,275.06l-1.39,2.14,2.35.2,1.45-2.14-2.41-.2Zm2.72,2.49,2.44.22,1.45-2.16-2.44-.2-1.45,2.14Zm4.2.37,2.43.21,1.47-2.17-2.44-.2-1.46,2.16Zm4.2.36,2.43.21,1.48-2.18-2.44-.2-1.47,2.17Zm4.2.36,2.43.22,1.49-2.21-2.44-.2-1.48,2.19Zm4.19.37,2.62.22,1.36-2.22L124,276.8,122.5,279Zm-21.86-.34-1.59,2.43,2.26.19,1.64-2.42-2.31-.2Zm2.44,2.78,2.43.21,1.64-2.42-2.43-.21-1.64,2.42Zm4.2.36,2.43.21,1.64-2.42-2.44-.21-1.63,2.42Zm4.19.36,2.44.21,1.63-2.42-2.43-.21-1.64,2.42Zm4.2.37,2.44.21,1.63-2.42-2.43-.21-1.64,2.42Zm4.2.36,2.85.25,1.49-2.44-2.7-.23-1.64,2.42Zm-21.78-.33-1.31,2,2.15.24,1.39-2.06-2.23-.19Zm2.57,2.44,2.4.27,1.46-2.15-2.44-.21L100.66,285Zm4.13.47,6.53.73,1.59-2.36-6.63-.57-1.49,2.2Zm8.26.92,2.4.27,1.66-2.45-2.43-.21-1.63,2.39Zm4.13.46,3.06.35,1.58-2.58-2.95-.26Z"/><polygon class="cls-10" points="194.29 136.91 191.7 141.27 200.23 156.06 203.91 162.46 213.69 169.36 225.22 169.7 243.56 161.38 248.01 137.36 194.29 136.91"/><polygon class="cls-11" points="248.83 159.19 251.58 153.34 272.31 109.93 268.64 79.52 247.53 67.04 242.73 70.67 237.86 121.44 214.25 137.07 212.51 142.35 241.13 158 248.83 159.19"/><polygon class="cls-6" points="277.69 231.49 303.35 256.62 302.92 248.08 283.46 209.61 277.69 231.49"/><polygon class="cls-6" points="289.6 181.8 295.16 179.57 330.33 233.32 324.24 232.55 292.23 203.38 285.51 190.61 289.6 181.8"/><polygon class="cls-7" points="330.33 233.32 302.94 208.78 298.26 208.88 289.43 218.57 289.34 228.38 303.35 256.62 330.33 233.32"/><polygon class="cls-9" points="257.23 161.1 256.8 167.31 250.11 178.97 242.44 166.54 241.13 158 251.58 153.34 257.23 161.1"/><polygon class="cls-7" points="273.18 168.87 257.23 161.1 250.27 173.92 249.84 187.51 255.71 197.13 275.82 174.26 273.18 168.87"/><polygon class="cls-12" points="154.44 386.76 196.79 386.76 196.79 378.76 191.01 375.73 164.23 375.76 154.44 378.76 154.44 386.76"/><polygon class="cls-13" points="174.38 361.52 154.44 378.76 196.79 378.76 196.79 363.21 193.52 359.39 182.74 358.55 174.38 361.52"/><polygon class="cls-12" points="248.06 391.52 282.47 391.52 282.47 383.52 277.78 380.49 254.13 380.05 248.06 383.52 248.06 391.52"/><polygon class="cls-13" points="251.58 367.05 248.06 383.52 282.47 383.52 274.64 366.2 268.11 361.59 258.67 362.02 251.58 367.05"/><polygon class="cls-14" points="185.44 289.83 181.31 355.83 185.21 362.33 196.79 363.21 216.82 308.44 212.63 298.11 191.7 284.14 185.44 289.83"/><polygon class="cls-14" points="235.02 287.25 231.35 295 257.67 363.23 264.56 366.57 274.64 366.2 276.37 289.97 271.15 286.52 235.02 287.25"/><polygon class="cls-15" points="162.38 284.96 166.73 281.86 191.7 284.14 185.21 362.33 174.38 361.52 162.38 284.96"/><polygon class="cls-15" points="235.02 287.25 264.56 366.57 251.58 367.05 214.59 304.68 216.16 298.33 235.02 287.25"/><polygon class="cls-16" points="209.48 271.42 191.7 284.14 191.19 289.6 216.82 308.44 236.78 291.98 235.02 287.25 209.48 271.42"/><path class="cls-17" d="M272,156l1.19,12.92,2.64,5.39,13.78,7.54,5.56-2.23,8.9-6.87-4.57-6.49-19.81-10.54S272,156.23,272,156Z"/><polygon class="cls-18" points="271.99 155.95 304.06 172.7 309.9 159.37 288.68 151.63 271.99 155.95"/><polygon class="cls-19" points="281.82 142.84 271.99 155.95 309.9 159.37 296.11 146.97 281.82 142.84"/><polygon class="cls-18" points="298.13 141.82 281.82 142.84 309.9 159.37 303.55 146.33 302.08 142.63 298.13 141.82"/><polygon class="cls-17" points="297.56 134.59 298.13 141.82 303.55 146.33 310.02 142.71 306.26 135.75 297.56 134.59"/><polygon class="cls-19" points="302.3 126.91 297.56 134.59 310.02 142.71 316.23 134.7 311.61 125.72 302.3 126.91"/><polygon class="cls-18" points="270.26 176.68 273.18 168.87 295.16 179.57 288.89 189.81 270.26 176.68"/><polygon class="cls-8" points="302.94 208.78 294.22 200.32 283.46 209.61 283.37 216.36 289.1 227.91 302.94 208.78"/><polygon class="cls-7" points="143.91 237.69 163.69 260.45 169.3 255.81 170.72 230.21 165.56 225.33 153.46 229.63 143.91 237.69"/><polygon class="cls-6" points="168.47 170.81 143.91 237.69 170.72 230.21 172.11 176.44 168.47 170.81"/><polygon class="cls-9" points="194.62 163.39 168.47 170.81 162.38 284.96 191.19 289.6 215.9 271.77 216.79 230.85 179.78 190.22 193.71 171.59 194.62 163.39"/><polygon class="cls-7" points="230.32 216.05 211.24 235.66 209.23 276.58 236.78 291.98 276.37 289.97 277.69 231.49 239.85 210.88 230.32 216.05"/><polygon class="cls-20" points="205.34 245.85 210.48 251.05 215.82 246.4 210.96 241.34 205.34 245.85"/><polygon class="cls-20" points="204.28 265.85 209.48 271.42 214.81 266.86 209.96 261.71 204.28 265.85"/><polygon class="cls-21" points="191.1 183.62 210.68 173.92 223.29 174.69 241.13 187.51 226.78 215.85 211.24 235.66 200.24 215.46 191.1 183.62"/><polygon class="cls-8" points="210.68 173.92 206.22 226.46 211.24 235.66 218.19 226.79 222.95 174.67 210.68 173.92"/><polygon class="cls-7" points="173.69 189.84 188.05 171.97 197.41 177.41 196.75 185.18 211.24 235.66 173.69 189.84"/><polygon class="cls-9" points="238.52 178.96 235.91 187.89 211.24 235.66 239.85 210.88 252.01 206.92 259.62 197.69 252.99 185.52 250.27 173.92 238.52 178.96"/><polygon class="cls-16" points="188.05 171.97 196.75 185.18 210.37 177.58 213.72 171.59 201.97 168.48 188.05 171.97"/><polygon class="cls-16" points="220.1 171.56 222.63 178.18 235.91 187.89 250.27 173.92 234.61 168.87 220.1 171.56"/><polygon class="cls-15" points="200.24 156.06 188.05 171.97 213.72 171.59 211.98 164.99 200.24 156.06"/><polygon class="cls-15" points="220.1 171.56 224.17 165.37 241.13 158 250.27 173.92 220.1 171.56"/><polygon class="cls-14" points="211.98 164.99 210.37 177.58 222.63 178.18 224.17 165.37 211.98 164.99"/><polygon class="cls-10" points="260.96 96.53 272.31 109.93 278.71 96.53 269.61 93.3 260.96 96.53"/><polygon class="cls-13" points="245.61 40.27 243.69 62.95 247.53 67.04 262.06 86.2 281.2 70.47 284.9 31.69 272.47 29.84 253.77 33.01 245.61 40.27"/><path class="cls-22" d="M263.36,71.12s-2.16,26-2.4,25.41,17.75,0,17.75,0l2.49-26.06Z"/><polygon class="cls-10" points="268.96 77.03 267.56 87.82 275.64 77.01 268.96 77.03"/><polygon class="cls-23" points="159.75 36.19 169.34 38.46 181.34 31.2 182.29 17.13 170.3 12.6 159.75 36.19"/><polygon class="cls-13" points="188.05 -0.11 170.3 12.6 181.34 31.2 190.45 29.38 194.77 11.23 188.05 -0.11"/><polygon class="cls-13" points="215.87 12.6 231.22 -0.11 257.6 6.7 249.93 20.31 230.74 30.74 210.12 30.29 215.87 12.6"/><polygon class="cls-23" points="192.85 33.92 190.45 29.38 188.05 -0.11 231.22 -0.11 210.12 30.29 202.92 33.47 192.85 33.92"/><polygon class="cls-23" points="245.61 40.27 230.74 30.74 236.98 21.67 257.6 6.7 284.9 31.69 245.61 40.27"/><polygon class="cls-22" points="158.31 125.11 177.5 140.53 212.51 142.35 242.73 124.66 250.83 39.07 236.98 21.67 210.12 30.29 190.45 29.38 176.72 23.41 159.75 36.19 158.31 125.11"/><polygon class="cls-11" points="169.82 124.2 173.85 137.6 177.5 140.53 169.82 124.2"/><polygon class="cls-11" points="219.23 125.56 212.51 142.35 215.82 140.42 219.23 125.56"/><polygon class="cls-11" points="168.53 74.83 171.5 70.62 184.38 71.04 189.34 73.43 191.88 77.84 191.32 88.89 183.89 98.73 179.92 80.92 168.53 74.83"/><polygon class="cls-11" points="208.66 71.55 203.21 72.96 199.48 78.06 197.26 87.95 201.22 98.26 214.6 81.39 228.04 77.16 225.56 71.55 208.66 71.55"/><polygon class="cls-11" points="174.47 113.72 178.93 104.35 183.89 98.73 175.47 102.95 174.47 113.72"/><polygon class="cls-10" points="181.41 114.25 180.42 117.06 195.03 119.63 214.83 113.15 215.59 111.43 214.6 110.03 194.78 116.59 181.41 114.25"/><polygon class="cls-11" points="218.4 107.56 201.22 98.26 214.6 110.03 215.59 122.63 218.4 107.56"/><polygon class="cls-10" points="193.46 106.04 183.89 98.73 192.31 95.92 201.22 98.26 193.46 106.04"/><polygon class="cls-24" points="191.88 77.84 199.48 78.06 201.22 98.26 183.89 98.73 191.88 77.84"/><polygon class="cls-25" points="170.51 69.21 166.05 73.43 168.53 74.83 172 72.26 189.34 73.43 187.35 69.68 170.51 69.21"/><polygon class="cls-25" points="205.19 69.21 203.21 72.96 225.25 73.66 228.04 77.16 231.44 75.95 226.12 69.67 205.19 69.21"/><path class="cls-26" d="M179.47,77A3.29,3.29,0,1,1,176,80.21,3.38,3.38,0,0,1,179.47,77Z"/><path class="cls-26" d="M214.32,77.39a3.28,3.28,0,1,1-3.52,3.23A3.37,3.37,0,0,1,214.32,77.39Z"/><polygon class="cls-11" points="198.75 59.37 196.27 71.79 199.48 78.06 193.3 72.73 198.75 59.37"/><polygon class="cls-11" points="294.22 200.32 283.37 216.36 279.39 215 273.81 206.73 272.4 199.52 270.29 192.55 274.4 184.24 283.01 178.19 294.22 200.32"/><polygon class="cls-11" points="252.99 185.52 262.47 180.38 264.19 190.61 259.04 198.59 256.8 201.49 255.71 197.13 252.99 185.52"/><polygon class="cls-22" points="263.32 175.86 283.01 178.19 272.4 199.52 265.93 202.26 259.04 198.59 263.32 175.86"/><polygon class="cls-19" points="239.85 210.88 255.71 197.13 272.4 199.52 273.81 206.74 264.66 212.87 257.23 214.69 246.36 214.3 239.85 210.88"/><polygon class="cls-18" points="264.97 219.34 264.66 212.87 272.4 199.52 283.37 216.36 277.69 231.49 270.64 227.06 264.97 219.34"/><polygon class="cls-17" points="253.75 228.66 239.85 210.88 264.66 212.87 277.69 231.49 253.75 228.66"/><polygon class="cls-11" points="181.66 49.3 197.22 50.7 224.7 48.36 197.73 52.11 181.66 49.3"/><polygon class="cls-1" points="277.08 258.51 277.69 231.49 253.75 228.66 277.08 258.51"/><path class="cls-7" d="M150.52,263.22c-1.86,0-3.37-2.31-3.37-5.15s1.51-5.15,3.37-5.15h3.38v10.3Z"/><path class="cls-9" d="M153.9,263.22c1.86,0,3.38-2.31,3.38-5.15s-1.52-5.16-3.38-5.16-3.38,2.32-3.38,5.16S152,263.22,153.9,263.22Z"/></svg>