<svg id="Layer_1" data-name="Layer 1" xmlns="http://www.w3.org/2000/svg" viewBox="0 0 400 400"><defs><style>.cls-1,.cls-23{fill:#2b2b2b;}.cls-1{fill-opacity:0.1;}.cls-2{fill:#56595a;}.cls-3{fill:#6d6e6e;}.cls-4{fill:#444648;}.cls-5{fill:#f4c9b2;}.cls-6{fill:#fce3d4;}.cls-7{fill:#c1907d;}.cls-8{fill:#95637c;}.cls-9{fill:#b2879c;}.cls-10{fill:#8f759f;}.cls-11{fill:#785d87;}.cls-12{fill:#3f3f3f;}.cls-13{fill:#393939;}.cls-14{fill:#4f5153;}.cls-15{fill:#5e5f61;}.cls-16{fill:#4e5052;}.cls-17{fill:#fff;}.cls-18{fill:#a587b9;}.cls-19{fill:#4f5051;}.cls-20{fill:#ffefe7;}.cls-21{fill:#656565;}.cls-22{fill:#8b8a8a;}.cls-24{fill:none;}</style></defs><title>analysts_ENTP_famous_fictional_irene_adler_sherlock_holmes</title><g id="Layer_1-2" data-name="Layer_1"><g id="_789117712" data-name=" 789117712"><polygon class="cls-1" points="136.91 388.54 212.9 398.91 284.29 388.54 211.72 379.71 136.91 388.54"/><polygon class="cls-2" points="200.53 369.93 197.11 373.47 183.92 385.6 214.67 386.42 221.85 378.3 200.53 369.93"/><polygon class="cls-2" points="233.28 362.87 236.93 364.98 241.53 378.3 232.34 392.67 229.74 380.65 233.28 362.87"/><polygon class="cls-3" points="221.85 378.3 211.49 379.71 201.59 393.26 232.34 392.67 221.85 378.3"/><polygon class="cls-4" points="208.89 350.96 215.61 351.67 224.21 361.21 217.85 376.17 211.49 379.71 207.25 369.34 208.89 350.96"/><polygon class="cls-5" points="221.62 325.75 216.08 330.35 224.21 361.21 227.62 371.58 236.93 364.98 243.53 328.58 221.62 325.75"/><polygon class="cls-6" points="224.21 361.21 211.49 379.71 232.34 392.67 236.93 364.98 224.21 361.21"/><polygon class="cls-5" points="180.62 316.21 176.38 323.52 203 352.61 208.07 361.33 215.61 351.67 200.65 317.15 180.62 316.21"/><polygon class="cls-6" points="203 352.61 197.11 373.47 211.49 379.71 215.61 351.67 203 352.61"/><polygon class="cls-7" points="172.96 302.31 162.25 306.91 176.38 323.52 200.65 317.15 172.96 302.31"/><polygon class="cls-7" points="234.34 315.27 243.53 328.58 216.08 330.35 212.19 312.91 234.34 315.27"/><polygon class="cls-8" points="197.82 263.79 176.73 280.16 162.25 306.91 243.53 328.58 257.66 267.91 197.82 263.79"/><polygon class="cls-9" points="240.23 247.89 255.31 260.14 257.66 267.91 176.73 280.16 193.46 245.41 209.6 235.28 232.69 236.7 240.23 247.89"/><path class="cls-8" d="M245.3,249.06c-.24.47,7.77,3.42,7.77,3.42l2.24,7.66L235.4,265l9.77-15.91Z"/><polygon class="cls-5" points="229.63 245.3 222.32 242.59 217.02 257.07 227.51 267.09 235.4 265.09 237.17 257.31 229.63 245.3"/><polygon class="cls-6" points="219.73 238.34 235.4 265.09 253.07 252.48 253.42 243.65 247.3 240.23 219.73 238.34"/><path class="cls-10" d="M121.37,140.45l5.89,8.48-8.72,11.55s-4.48-5.66-4.48-5.19,3.77-15.43,3.77-15.43l3.54.47Z"/><polygon class="cls-6" points="112.41 134.32 111.35 135.5 106.99 155.53 113.71 158 116.18 155.88 119.6 141.16 119.25 139.74 112.41 134.32"/><path class="cls-6" d="M119.13,127.14l-7.42,5.18s5.3,5.66,4.94,6.13S124,138,124,138l1.06-6.13Z"/><path class="cls-11" d="M109.82,103.23l-6.24,4.83,9,13-7.42,6.48,6.24,8,8.25,5.66,6.13,8-7,9.3L116.18,156l-9.19-.47L117.6,167s9.54-2.71,9.66-3.3,8.83-25,8.83-25L109.7,103.34h0Zm5.07,22.26h0l7.3,8L118,137.15,110.53,129Z"/><polygon class="cls-10" points="135.74 147.99 140.57 149.99 146.1 143.75 111.94 97.22 104.99 102.16 130.67 136.92 132.56 145.87 135.74 147.99"/><polygon class="cls-5" points="131.03 170.25 135.27 166.72 140.57 149.99 133.03 147.16 129.61 151.41 117.71 166.84 126.31 172.14 131.03 170.25"/><polygon class="cls-6" points="140.57 149.99 130.67 136.92 126.55 140.22 129.61 151.41 140.57 149.99"/><polygon class="cls-8" points="178.38 202.41 156.12 206.77 138.68 188.87 178.26 168.96 187.45 190.52 178.38 202.41"/><polygon class="cls-8" points="247.06 196.76 252.36 210.54 247.3 240.23 193.46 245.41 178.38 202.41 185.1 195.23 247.06 196.76"/><polygon class="cls-8" points="272.04 227.62 268.85 226.21 252.36 210.54 249.42 202.18 254.36 170.84 261.55 163.42 283.23 207.01 280.05 223.15 272.04 227.62"/><polygon class="cls-9" points="208.78 159.3 201.83 157.18 178.26 168.96 178.38 202.41 252.36 210.54 261.55 163.42 236.7 156.94 208.78 159.3"/><polygon class="cls-6" points="206.42 159.65 201.83 157.18 198.53 158.59 195.11 175.79 206.3 192.75 228.68 179.32 236.7 156.94 206.42 159.65"/><polygon class="cls-5" points="247.3 240.23 283.23 207.01 296.42 232.93 251.07 253.89 247.3 240.23"/><polygon class="cls-6" points="130.2 212.78 156.12 206.77 135.27 166.72 117.71 166.84 130.2 212.78"/><polygon class="cls-12" points="186.98 31.6 181.44 50.8 156 43.38 159.65 25.71 186.98 31.6"/><path class="cls-5" d="M242.35,106.52l2.35,4.72-6.47,36.28-5.78,4.24,4.13,5.18-26.74,17.79-25-39.23L210,128.32c3.54-20.38,14.14-81,13.55-82.58-.71-1.89,18.5,26.5,18.5,26.5Z"/><polygon class="cls-7" points="190.63 147.4 209.84 174.73 225.27 148.46 199.71 147.75 194.99 135.74 190.63 147.4"/><polygon class="cls-7" points="243.17 93.8 231.75 100.87 244.83 111.12 246.35 102.87 243.17 93.8"/><polygon class="cls-13" points="230.57 57.75 226.21 64.58 233.63 78.25 242.23 82.02 246.35 102.87 269.8 65.53 240.23 51.63 230.57 57.75"/><path class="cls-4" d="M242.23,26.18l22.5,9.66,5.07,29.69-19,14.25-17.2-1.53-7.42-13.66S210,40.67,209.48,42.2,242.23,26.18,242.23,26.18Z"/><polygon class="cls-14" points="223.5 19.7 228.1 16.29 264.73 35.84 226.21 64.58 217.73 43.73 223.5 19.7"/><polygon class="cls-2" points="228.1 16.29 240.47 7.21 264.73 35.84 223.03 27.83 228.1 16.29"/><polygon class="cls-2" points="210.89 8.39 205.95 5.09 192.28 0.97 162.95 6.63 183.92 26.65 210.89 8.39"/><polygon class="cls-15" points="190.75 14.52 209.6 9.22 240.47 7.21 219.97 19.35 223.03 27.83 217.73 43.73 195.58 47.39 181.56 41.26 181.56 30.42 190.75 14.52"/><polygon class="cls-3" points="190.75 14.52 205.95 5.09 240.47 7.21 223.03 27.83 190.75 14.52"/><polygon class="cls-2" points="146.34 32.78 162.95 6.63 189.34 17.58 177.79 29.36 168.02 34.08 146.34 32.78"/><polygon class="cls-16" points="190.75 14.52 188.04 21.35 181.56 41.26 168.02 34.08 190.75 14.52"/><polygon class="cls-6" points="154.7 43.5 145.63 64.94 152.35 120.66 174.02 146.58 199.71 147.75 222.32 134.79 226.21 64.58 217.73 43.73 181.56 41.26 154.7 43.5"/><polygon class="cls-5" points="161.42 78.25 167.9 80.72 173.44 85.44 175.32 89.68 178.15 85.32 184.27 80.13 186.63 78.37 199 74.6 211.6 75.07 195.82 85.79 181.68 108.88 177.21 100.16 170.61 108.88 159.41 87.2 148.7 76.95 152.94 75.54 161.42 78.25"/><path class="cls-17" d="M169.43,123.25l8.36-3s15.67,2.83,15.44,2.36-7.9,7.19-7.9,7.19l-9.42-.59-6.6-6Z"/><polygon class="cls-18" points="170.84 122.19 169.67 122.66 175.67 127.14 184.86 127.37 192.87 122.31 191.1 121.72 197 120.78 187.45 130.91 175.79 131.03 166.25 121.13 170.84 122.19"/><polygon class="cls-7" points="174.97 102.4 170.61 108.88 177.44 113.36 181.68 108.88 174.97 102.4"/><polygon class="cls-19" points="168.6 78.96 155.29 73.89 148.7 76.95 154.94 76.6 167.9 80.72 168.6 78.96"/><path class="cls-19" d="M183.57,78.49l15.19-5.3L211.49,75l-11.9,1.18-15.44,4s-.47-1.64-.58-1.53Z"/><polygon class="cls-20" points="173.44 85.44 170.61 108.88 181.68 108.88 178.15 85.32 173.44 85.44"/><polygon class="cls-11" points="166.25 121.13 177.44 118.42 197 120.78 192.87 122.31 169.67 122.66 166.25 121.13"/><polygon class="cls-5" points="215.38 105.23 203.83 117.95 212.9 116.06 215.38 105.23"/><polygon class="cls-5" points="153.17 109.47 160.95 115 155.65 117.36 153.17 109.47"/><polygon class="cls-6" points="233.63 78.25 250.83 79.78 246.35 102.87 231.75 100.87 233.63 78.25"/><polygon class="cls-7" points="245.41 84.85 238.46 84.14 237.05 96.27 245.41 84.85"/><polygon class="cls-3" points="159.89 43.03 168.02 34.08 162.95 6.63 134.91 31.13 146.58 40.67 159.89 43.03"/><polygon class="cls-21" points="134.91 31.13 130.44 54.1 141.75 57.4 159.65 57.63 159.89 43.03 134.91 31.13"/><polygon class="cls-21" points="130.44 54.1 145.63 64.94 159.65 57.63 130.44 54.1"/><polygon class="cls-2" points="225.51 147.28 238.34 147.52 236.7 156.94 220.08 157.41 218.44 155.18 225.51 147.28"/><polygon class="cls-16" points="197.59 157.18 190.63 147.4 225.51 147.28 220.08 157.41 197.59 157.18"/><polygon class="cls-22" points="205.24 147.28 200.41 152.47 205.48 157.3 210.07 152.35 205.24 147.28"/><path class="cls-23" d="M191,86.21a3.61,3.61,0,1,1,3.75,3.6A3.67,3.67,0,0,1,191,86.21Z"/><path class="cls-23" d="M157.2,86.09a3.61,3.61,0,1,1,3.75,3.6A3.67,3.67,0,0,1,157.2,86.09Z"/></g><rect class="cls-24" x="0.5" y="0.5" width="399" height="399"/></g></svg>