<svg id="Layer_1" data-name="Layer 1" xmlns="http://www.w3.org/2000/svg" viewBox="0 0 400 400"><defs><style>.cls-1,.cls-22{fill:#070908;}.cls-1{fill-opacity:0.15;}.cls-2{fill:#785d87;}.cls-3{fill:#8f759f;}.cls-4{fill:#a587b9;}.cls-5{fill:#b2879c;}.cls-6{fill:#f4c9b2;}.cls-7{fill:#fce3d4;}.cls-8{fill:#95637c;}.cls-9{fill:#734d60;}.cls-10{fill:#dddddc;}.cls-11{fill:#eaeceb;}.cls-12{fill:#9c9fa0;}.cls-13{fill:#c2c1c2;}.cls-14{fill:#594165;}.cls-15{fill:#cdcccb;}.cls-16{fill:#d0a0b7;}.cls-17{fill:#8b8a8a;}.cls-18{fill:#c1907d;}.cls-19{fill:#ffefe7;}.cls-20{fill:#2b2b2b;}.cls-21{fill:#fff;}.cls-22{fill-opacity:0.1;}.cls-23{fill:none;}</style></defs><title>analysts_ENTP_famous_fictional_doc_brown_back_to_the_future</title><g id="Layer_1-2" data-name="Layer_1"><g id="_789099040" data-name=" 789099040"><polygon class="cls-1" points="177.44 398.91 86.73 386.31 202.41 377.12 302.19 391.84 177.44 398.91"/><polygon class="cls-2" points="158.83 247.3 163.3 242.23 176.5 214.9 167.31 204.06 162.13 203.59 158.47 207.95 155.41 239.76 158.83 247.3"/><polygon class="cls-3" points="144.46 202.53 134.91 235.28 158.83 247.3 162.13 203.59 153.17 199.71 144.46 202.53"/><polygon class="cls-4" points="146.1 196.52 144.46 202.53 162.13 203.59 166.6 201.35 162.48 197.47 153.41 194.52 146.1 196.52"/><polygon class="cls-5" points="146.34 184.15 143.63 193.58 146.1 196.52 151.17 192.52 149.99 182.98 146.34 184.15"/><polygon class="cls-6" points="155.18 156.94 149.99 182.98 151.17 192.52 158.12 192.4 167.31 173.44 161.42 160.59 155.18 156.94"/><polygon class="cls-7" points="172.38 160.12 155.18 156.94 162.48 173.44 166.13 175.91 176.26 175.2 178.03 170.96 172.38 160.12"/><polygon class="cls-8" points="134.68 257.19 138.8 271.45 144.57 272.98 147.99 269.68 146.34 254.6 134.68 257.19"/><polygon class="cls-5" points="141.28 250.13 144.57 272.98 149.76 272.27 155.65 265.32 153.76 258.37 152.23 249.06 141.28 250.13"/><polygon class="cls-9" points="197.47 172.02 205.24 179.56 205.24 163.3 197 160.71 192.52 168.6 197.47 172.02"/><polygon class="cls-10" points="313.27 59.28 298.19 77.31 289.82 76.25 263.44 31.36 265.91 22.88 268.98 18.41 280.4 19.47 313.27 59.28"/><polygon class="cls-11" points="310.32 97.69 289.12 115.36 278.87 109.11 254.49 52.8 252.95 33.84 254.96 24.89 265.91 22.88 310.32 97.69"/><polygon class="cls-11" points="275.93 138.56 244.23 150.58 246.47 137.51 256.72 117.83 264.14 113.71 275.93 138.56"/><polygon class="cls-9" points="132.79 272.51 148.58 269.68 150.58 273.92 141.98 291.59 137.39 293.95 132.79 272.51"/><polygon class="cls-12" points="110.41 379.36 123.6 376.76 154.47 377.12 164.36 379.36 164.36 386.31 110.41 386.31 110.41 379.36"/><polygon class="cls-12" points="232.1 383.95 243.41 381.12 269.92 381.48 278.51 383.95 278.51 391.84 232.1 391.84 232.1 383.95"/><polygon class="cls-13" points="137.27 356.27 137.15 359.92 132.44 360.39 129.97 362.51 130.2 367.22 124.31 367.46 110.41 379.36 164.36 379.36 164.36 359.21 159.3 354.5 143.4 353.32 137.27 356.27"/><path class="cls-12" d="M137.15,356.27l-4.71,4.12,13.31,3.06,4.95-5.77L141.86,354l-4.71,2.25ZM130,362.51l13.2,4-4.83,5.54-14.14-4.59Z"/><polygon class="cls-13" points="232.1 383.95 232.1 359.56 240.47 356.5 253.89 356.27 258.25 359.21 256.72 362.39 263.08 365.1 265.44 368.04 263.55 370.64 270.5 374.29 278.51 383.95 232.1 383.95"/><path class="cls-12" d="M258.25,359.21l-11.07-2.83-15.31,3.07.23.12,7.07,6.59,24-1.06-4.83-5.89h-.12Zm7.19,8.83-23.91,1.3,4.94,6.13,24.15-1.18L265.56,368Z"/><polygon class="cls-3" points="129.14 311.62 133.5 335.42 137.98 345.9 143.4 353.32 150.82 357.68 164.36 359.21 170.61 322.81 165.07 313.62 140.1 305.26 129.14 311.62"/><polygon class="cls-4" points="194.88 304.43 170.61 322.81 129.14 311.62 148.58 269.68 154.12 269.56 195.58 297.48 194.88 304.43"/><polygon class="cls-3" points="264.73 323.75 258.25 359.21 253.89 356.27 252.83 345.19 240.47 356.5 231.87 359.45 224.33 326.7 232.45 321.51 256.25 320.45 264.73 323.75"/><polygon class="cls-4" points="224.33 326.7 194.88 304.43 195.58 297.48 231.51 272.15 238.46 297.48 257.19 295.36 261.55 297.83 264.73 323.75 224.33 326.7"/><polygon class="cls-14" points="148.58 269.68 155.65 265.32 224.09 266.62 231.51 272.15 227.51 284.99 218.79 286.29 194.88 304.43 163.89 281.23 152.58 278.28 148.58 269.68"/><polygon class="cls-3" points="153.76 258.37 162.13 254.25 240.34 255.31 252.01 260.49 231.51 272.15 148.58 269.68 153.76 258.37"/><polygon class="cls-4" points="172.38 217.85 176.5 214.9 184.86 214.9 197.7 219.38 215.72 216.08 247.65 251.66 252.01 260.49 248.12 262.73 232.57 263.2 222.09 259.79 187.45 259.08 185.1 254.6 179.91 258.96 153.76 258.37 172.38 217.85"/><polygon class="cls-8" points="143.87 279.69 158.47 290.18 163.89 281.23 148.58 269.68 143.87 279.69"/><polygon class="cls-9" points="218.79 286.29 224.44 295.25 235.64 287.35 233.51 279.58 229.74 277.69 218.79 286.29"/><polygon class="cls-2" points="187.93 219.14 179.91 258.96 187.45 259.08 194.17 221.74 191.58 218.91 187.93 219.14"/><polygon class="cls-4" points="203.59 174.97 251.66 166.96 257.19 169.08 259.67 170.02 276.63 176.38 275.57 186.28 252.36 226.68 220.08 210.19 203.24 181.56 203.59 174.97"/><polygon class="cls-11" points="225.51 187.93 225.27 198.29 221.38 198.29 218.32 195.58 218.08 187.93 225.51 187.93"/><polygon class="cls-8" points="243.29 202.06 246.94 205.36 244.83 216.19 237.4 219.02 220.08 210.19 218.2 206.89 221.62 202.65 243.29 202.06"/><polygon class="cls-11" points="237.17 188.4 235.75 198.76 227.98 198.65 228.33 187.57 237.17 188.4"/><polygon class="cls-15" points="223.62 182.51 223.03 195.94 226.56 197.47 229.51 196.29 230.81 182.62 223.62 182.51"/><polygon class="cls-15" points="236.7 183.57 234.81 196.52 237.87 199 241.29 197 243.88 184.51 236.7 183.57"/><polygon class="cls-16" points="248.36 197.35 218.32 195.58 217.02 196.88 218.2 206.89 223.03 206.89 246.94 205.36 248.36 197.35"/><polygon class="cls-8" points="162.48 197.47 161.42 191.81 155.65 189.46 149.99 182.98 146.1 196.52 162.48 197.47"/><path class="cls-12" d="M172.38,217.85l15.54,1.29,1.06-2.82-6.59-15.2-15.91.12-4.36,2.23s10.37,14.26,10.26,14.26Z"/><polygon class="cls-12" points="189.34 188.87 183.68 185.69 161.18 186.04 155.65 189.46 162.48 197.47 166.13 201 184.51 201 193.7 209.48 200.65 208.31 212.07 206.89 195.23 189.57 189.34 188.87"/><polygon class="cls-12" points="188.28 174.14 192.52 168.6 203.59 174.97 203.24 181.56 195.23 189.57 189.34 188.87 187.1 184.51 188.28 174.14"/><polygon class="cls-13" points="162.48 173.44 155.65 189.46 189.34 188.87 192.52 168.6 162.48 173.44"/><polygon class="cls-17" points="223.03 206.89 203.59 174.97 189.34 188.87 202.3 205.24 212.07 206.89 223.03 206.89"/><polygon class="cls-12" points="174.38 171.55 176.26 175.32 180.5 178.97 184.86 175.32 178.85 168.25 176.03 167.19 174.38 171.55"/><polygon class="cls-13" points="154.35 128.91 174.38 171.55 178.85 168.25 158.71 126.67 154.23 125.61 154.35 128.91"/><polygon class="cls-17" points="180.5 178.97 174.38 171.55 176.14 178.62 180.5 178.97"/><polygon class="cls-7" points="209.72 184.98 210.89 201 212.07 206.89 223.03 206.89 213.49 184.39 209.72 184.98"/><polygon class="cls-6" points="223.03 206.89 223.15 211.72 218.2 218.79 213.84 222.32 202.41 225.27 197.7 221.15 193.46 214.19 193.7 206.77 210.89 201 223.03 206.89"/><polygon class="cls-2" points="252.01 260.49 221.02 229.51 220.68 221.62 225.03 212.66 231.16 210.31 252.36 219.38 257.19 224.91 256.13 251.3 252.01 260.49"/><polygon class="cls-4" points="221.02 229.51 231.16 210.31 223.03 206.89 213.84 222.32 221.02 229.51"/><polygon class="cls-3" points="252.01 260.49 252.36 219.38 276.63 176.38 288.77 223.38 252.01 260.49"/><polygon class="cls-8" points="235.17 303.37 244.47 296.77 249.89 288.3 245.41 272.15 242 266.15 222.09 259.79 235.17 303.37"/><polygon class="cls-9" points="268.62 286.29 263.55 282.64 248.59 283.81 243.64 288.3 235.17 303.37 261.55 297.83 268.62 286.29"/><polygon class="cls-5" points="261.2 266.26 268.62 286.29 243.64 288.3 238.11 268.38 242 266.15 256.49 265.2 261.2 266.26"/><polygon class="cls-9" points="252.01 260.49 261.2 266.26 238.11 268.38 222.09 259.79 252.01 260.49"/><polygon class="cls-18" points="186.75 139.04 195.7 133.03 241.53 137.03 230.57 161.89 203.59 174.97 186.75 139.04"/><polygon class="cls-6" points="203.59 174.97 250.48 166.72 246 156.94 278.75 86.73 258.96 82.14 242 59.52 209.72 115.36 216.37 142.96 235.17 145.16 203.59 174.97"/><polygon class="cls-10" points="242 59.52 247.06 40.32 252.95 33.84 295.01 120.19 271.68 129.73 263.55 113.71 262.38 110.88 254.6 92.39 244.47 69.42 242 59.52"/><polygon class="cls-18" points="250.83 103.81 262.38 121.84 267.8 110.29 262.38 100.51 250.83 103.81"/><polygon class="cls-7" points="278.75 86.73 267.8 110.29 250.83 103.81 260.84 76.84 278.75 86.73"/><polygon class="cls-18" points="263.2 84.49 258.85 96.86 271.92 88.5 263.2 84.49"/><polygon class="cls-11" points="212.07 0.97 280.4 19.47 265.91 22.88 254.96 24.89 212.07 0.97"/><polygon class="cls-10" points="214.67 11.93 212.07 0.97 265.91 22.88 252.95 33.84 240.58 32.42 214.67 11.93"/><polygon class="cls-10" points="162.75 25.64 174.26 23.47 206.66 9.45 212.07 0.97 157.3 10.51 155.29 19.94 162.75 25.64"/><polygon class="cls-11" points="124.9 43.38 157.3 10.51 162.75 25.64 155.29 40.91 139.39 59.28 131.38 61.17 124.9 43.38"/><polygon class="cls-10" points="119.48 74.72 162.75 25.64 160.36 42.91 142.81 83.67 135.74 89.09 119.48 74.72"/><polygon class="cls-11" points="148.34 115.12 130.44 101.11 162.75 25.64 166.25 37.84 154.82 105.11 148.34 115.12"/><polygon class="cls-10" points="163.78 117.13 171.17 133.03 158.71 126.67 148.81 122.66 145.14 120.81 150.58 107.7 158.71 82.25 163.78 117.13"/><polygon class="cls-7" points="150.58 107.7 162.75 25.64 212.07 0.97 252.95 33.84 235.96 119.36 216.37 142.96 172.73 138.56 150.58 107.7"/><polygon class="cls-6" points="182.27 33.01 197.35 28.18 216.43 34.9 197 30.66 182.27 33.01"/><polygon class="cls-6" points="176.85 39.49 196.52 35.25 219.61 41.61 195.35 38.31 176.85 39.49"/><polygon class="cls-18" points="179.68 90.74 188.75 98.63 199.71 91.68 190.16 87.2 179.68 90.74"/><polygon class="cls-6" points="162.83 57.63 168.72 48.8 185.22 51.15 189.34 66.82 189.69 78.72 179.68 90.74 175.2 71.3 162.83 57.63"/><polygon class="cls-6" points="204.77 51.51 198.53 66.94 194.64 78.72 199.71 91.68 212.07 73.3 230.21 57.99 224.09 49.62 204.77 51.51"/><polygon class="cls-10" points="167.31 47.15 184.27 46.68 185.22 51.15 169.31 51.15 162.83 57.63 160.24 54.69 167.31 47.15"/><polygon class="cls-10" points="225.74 47.62 206.42 47.03 204.77 51.51 223.15 51.51 230.21 57.99 233.28 55.51 225.74 47.62"/><polygon class="cls-19" points="189.34 66.82 198.53 66.94 199.71 91.68 179.68 90.74 189.34 66.82"/><path class="cls-20" d="M173.79,64.94a4.48,4.48,0,1,1-4.48,4.47A4.47,4.47,0,0,1,173.79,64.94Z"/><path class="cls-20" d="M212.08,66.71a4.48,4.48,0,1,1-4.48,4.47A4.47,4.47,0,0,1,212.08,66.71Z"/><polygon class="cls-18" points="175.44 121.84 206.77 124.43 198.29 105.58 182.62 104.87 175.44 121.84"/><polygon class="cls-9" points="253.54 161.06 251.66 166.96 203.59 174.97 248 152.47 253.54 161.06"/><polygon class="cls-3" points="253.54 161.06 203.59 174.97 259.67 170.02 253.54 161.06"/><polygon class="cls-21" points="182.86 111.23 198.29 112.41 196.17 108.41 184.51 107.7 182.86 111.23"/><polygon class="cls-6" points="219.85 75.66 227.04 75.89 230.57 82.25 219.85 75.66"/><polygon class="cls-6" points="159.18 80.37 162.01 74.6 168.72 74.36 159.18 80.37"/><polygon class="cls-16" points="133.5 335.42 150.82 357.68 137.15 356.27 133.5 335.42"/><polygon class="cls-16" points="252.25 340.72 231.87 359.45 258.25 359.21 252.25 340.72"/><polygon class="cls-13" points="186.39 197.35 187.1 203.24 182.27 205.36 162.13 203.59 162.48 197.47 186.39 197.35"/><polygon class="cls-17" points="193.7 206.77 186.39 197.35 178.5 205.12 186.16 209.6 193.7 206.77"/><polygon class="cls-7" points="202.41 225.27 193.7 206.77 178.5 205.12 187.93 219.14 202.41 225.27"/><path class="cls-22" d="M213.84,222.32,252,260.49,172.38,218.2l15.54,1.06,14.5,6.12,11.42-3.06Zm49.24,88.24-27.91-7.19,26.38-5.54,1.53,12.61Z"/><polygon class="cls-6" points="166.13 101.58 179.8 90.74 170.84 93.45 166.13 101.58"/><polygon class="cls-6" points="213.72 105.11 199.71 91.68 209.95 95.21 213.72 105.11"/><polygon class="cls-12" points="148.81 122.66 154.35 128.91 158.71 126.67 157.18 119.36 148.81 122.66"/><polygon class="cls-13" points="151.64 118.3 148.81 122.66 154.23 122.66 157.18 119.36 151.64 118.3"/></g><rect class="cls-23" x="0.5" y="0.5" width="399" height="399"/></g></svg>