<svg id="Layer_1" data-name="Layer 1" xmlns="http://www.w3.org/2000/svg" viewBox="0 0 400 400"><defs><style>.cls-1,.cls-16,.cls-9{fill:#2b2b2b;}.cls-1{fill-opacity:0.1;}.cls-2{fill:#fce3d4;}.cls-3{fill:#f4c9b2;}.cls-4{fill:#c1907d;}.cls-5{fill:#95637c;}.cls-6{fill:#734d60;}.cls-7{fill:#c4c4c4;}.cls-8{fill:#a587b9;}.cls-9{opacity:0.1;}.cls-10{fill:#474747;}.cls-11{fill:#4f5253;}.cls-12{fill:#6f7173;}.cls-13{fill:#3a3a3a;}.cls-14{fill:#fff;}.cls-15{fill:#ffefe7;}</style></defs><title>analysts_ENTP_famous_real_sacha_baron_cohen</title><g id="_789088528" data-name=" 789088528"><polygon class="cls-1" points="87.23 383.77 197.89 373.63 312.66 386.4 212.94 399.5 87.23 383.77"/><polygon class="cls-2" points="151.51 314.94 155.04 257.15 195.61 290.77 172.59 320.63 180.46 334.65 168.37 363.37 151.28 360.18 151.51 314.94"/><polygon class="cls-3" points="186.04 282.8 195.61 290.77 172.59 320.63 151.51 314.94 151.39 351.06 172.13 354.6 180.46 334.65 172.59 320.63 182.85 284.51 186.04 282.8"/><polygon class="cls-2" points="212.37 320.29 195.61 290.77 231.51 257.95 238.69 321.55 244.62 331.46 241.66 366.91 227.29 367.14 212.94 333.51 212.37 320.29"/><path class="cls-3" d="M212.37,320.29l-16.76-29.51,8.21-7.52,4.21.91,4.34,36.12Zm26.32,1.26,5.82,9.91-3,35.45-14.36.23-14.25-33.63-.56-13.1,26.32,1.25h0Z"/><polygon class="cls-3" points="281.88 186.04 282.34 206.55 242.79 200.51 231.74 187.06 237.67 164.27 281.88 186.04"/><polygon class="cls-2" points="281.66 168.03 282.34 206.55 313.23 199.37 294.65 158.12 281.66 168.03"/><polygon class="cls-4" points="281.66 168.03 281.77 175.44 296.02 161.42 294.65 158.12 281.66 168.03"/><polygon class="cls-3" points="273.56 128.37 273.68 140.56 284.17 152.19 290.43 142.96 281.43 125.18 273.56 128.37"/><polygon class="cls-2" points="273.68 140.56 290.77 142.96 296.02 161.31 281.66 168.03 270.38 156.98 273.68 140.56"/><polygon class="cls-3" points="261.26 149.23 273.68 140.56 281.66 168.03 267.87 169.06 261.26 149.23"/><polygon class="cls-3" points="111.05 186.95 104.21 196.98 114.58 209.06 145.12 202.22 150.82 196.07 147.29 166.78 111.05 186.95"/><polygon class="cls-2" points="108.88 173.73 114.58 209.06 86.77 206.55 90.65 170.66 95.09 166.32 108.88 173.73"/><polygon class="cls-4" points="109.11 168.72 108.88 173.73 90.31 173.73 90.99 167.12 109.11 168.72"/><polygon class="cls-3" points="112.42 133.73 112.3 145.92 101.82 157.55 95.55 148.32 104.55 130.53 112.42 133.73"/><polygon class="cls-2" points="112.3 145.92 95.21 148.32 90.99 167.12 108.88 173.73 115.61 162.34 112.3 145.92"/><polygon class="cls-3" points="124.72 154.58 112.3 145.92 108.88 173.73 119.59 169.97 124.72 154.58"/><polygon class="cls-2" points="147.29 166.78 163.36 157.78 217.15 152.31 237.67 164.27 242.79 200.51 229.69 239.49 231.51 257.95 195.61 290.77 171.11 270.49 155.04 257.15 156.86 240.18 145.12 202.22 147.29 166.78"/><polygon class="cls-3" points="229.69 239.49 231.51 257.95 218.97 267.64 194.93 279.38 171.11 270.49 155.04 257.15 156.86 240.18 178.97 257.04 184.67 269.92 202.91 269.12 209.52 257.04 229.69 239.49"/><polygon class="cls-3" points="182.73 261.49 192.08 251.91 189.91 215.9 160.97 217.04 188.32 207.92 191.74 185.47 197.32 207.24 225.36 218.06 197.44 215.78 199.72 252.37 211.57 263.77 194.24 274.37 182.73 261.49"/><polygon class="cls-5" points="147.29 166.78 171.11 270.49 182.85 284.51 195.61 290.77 208.15 284.17 218.97 267.64 237.67 164.27 231.4 160.63 209.52 257.04 194.24 264.9 178.97 257.04 171.56 220.23 153.67 163.25 147.29 166.78"/><polygon class="cls-6" points="171.11 270.49 182.85 284.51 195.61 290.77 208.03 284.17 218.97 267.64 194.24 274.37 171.11 270.49"/><polygon class="cls-7" points="175.33 346.85 168.37 363.37 151.28 360.18 151.39 341.83 175.33 346.85"/><polygon class="cls-5" points="118.57 379.44 129.51 372.61 151.28 360.18 168.37 363.37 167.92 378.76 147.4 384 118.57 379.44"/><polygon class="cls-6" points="167.92 378.76 167.69 386.51 118.57 387.08 118.57 379.44 167.92 378.76"/><polygon class="cls-8" points="129.51 372.61 151.28 360.18 160.85 362.01 129.51 372.61"/><polygon class="cls-7" points="242.91 351.29 241.66 366.91 227.29 367.14 220.11 350.27 242.91 351.29"/><polygon class="cls-5" points="217.95 385.48 227.29 367.14 227.29 367.14 232.65 370.32 235.84 370.67 241.66 366.91 254.19 385.25 254.65 393.12 217.49 393.35 217.95 385.48"/><polygon class="cls-8" points="227.29 367.14 241.66 366.91 235.16 378.87 227.29 367.14"/><polygon class="cls-6" points="254.19 385.25 254.65 393.12 217.49 393.35 217.95 385.48 254.19 385.25"/><polygon class="cls-2" points="128.03 46.66 131.33 111.05 165.75 130.42 196.98 107.74 202.56 70.13 197.44 37.77 157.2 26.94 128.03 46.66"/><polygon class="cls-2" points="131.33 111.05 142.39 142.39 156.63 141.71 180.46 152.08 196.87 140.11 203.7 118 196.98 107.74 160.4 103.07 131.33 111.05"/><polygon class="cls-9" points="131.33 111.05 142.39 142.39 156.63 141.71 180.46 152.08 196.87 140.11 203.7 118 196.98 107.74 160.4 103.07 131.33 111.05"/><polygon class="cls-10" points="120.17 42.32 117.89 56.91 129.4 72.76 128.03 46.66 120.17 42.32"/><polygon class="cls-10" points="114.24 31.27 120.17 42.32 140.11 33.67 158.23 18.39 159.94 9.5 155.84 0.5 114.24 31.27"/><polygon class="cls-11" points="120.17 42.32 154.93 14.97 148.77 37.31 138.97 51.21 128.26 51.78 120.17 42.32"/><polygon class="cls-10" points="150.94 44.61 157.32 34.92 154.93 14.97 145.81 35.72 138.97 51.21 150.94 44.61"/><polygon class="cls-12" points="161.53 45.17 150.94 44.61 154.93 14.97 164.04 19.65 175.78 36.06 161.53 45.17"/><polygon class="cls-12" points="183.19 7.57 155.84 0.5 154.93 14.97 173.39 22.61 186.61 20.67 188.89 13.84 183.19 7.57"/><polygon class="cls-11" points="175.78 36.06 185.7 31.27 186.61 20.67 168.15 17.37 154.93 14.97 175.78 36.06"/><polygon class="cls-10" points="213.96 6.77 183.19 7.57 186.61 20.67 205.76 20.9 213.96 6.77"/><polygon class="cls-10" points="197.44 39.82 198.8 25.8 186.61 20.67 175.78 36.06 197.44 39.82"/><polygon class="cls-12" points="233.56 23.86 213.96 6.77 186.61 20.67 197.44 39.82 219.89 39.48 233.56 23.86"/><polygon class="cls-4" points="162.45 158.34 156.63 141.71 196.87 140.11 199.37 137.6 207.35 139.77 203.93 159.82 190.71 183.99 162.45 158.34"/><polygon class="cls-3" points="217.15 152.31 225.13 102.27 216.24 44.72 197.44 39.82 196.98 107.74 203.82 139.88 190.71 183.99 217.15 152.31"/><polygon class="cls-13" points="210.77 91.33 203.82 99.54 202.56 70.13 221.48 63.41 235.27 70.25 235.73 92.47 210.77 91.33"/><polygon class="cls-2" points="211.91 73.44 228.78 74.69 234.13 93.5 224.79 102.27 210.08 100.79 207.69 98.28 210.77 91.33 211.91 73.44"/><polygon class="cls-4" points="223.65 110.93 210.08 100.79 224.79 102.27 223.65 110.93"/><polygon class="cls-4" points="215.67 88.83 216.81 79.36 223.76 80.16 215.67 88.83"/><polygon class="cls-11" points="205.53 55.09 197.44 39.82 233.56 23.86 242.34 51.21 225.47 60.33 205.53 55.09"/><polygon class="cls-10" points="202.56 70.13 205.53 55.09 242.34 51.21 235.27 70.25 219.78 70.25 202.56 70.13"/><polygon class="cls-11" points="222.74 117.32 240.86 96.12 235.27 70.25 228.78 74.69 222.74 117.32"/><polygon class="cls-3" points="210.08 100.79 203.82 139.88 198.69 140 196.87 140.11 196.98 120.28 196.98 107.74 210.77 91.33 210.54 94.75 210.08 100.79"/><polygon class="cls-9" points="210.08 100.79 203.82 139.88 198.69 140 196.87 140.11 196.98 120.28 196.98 107.74 210.77 91.33 210.54 94.75 210.08 100.79"/><polygon class="cls-4" points="147.29 115.49 179.66 112.53 174.53 120.62 152.88 122.79 147.29 115.49"/><polygon class="cls-14" points="150.48 116.75 152.76 120.28 172.25 118.46 175.33 114.35 150.48 116.75"/><polygon class="cls-3" points="131.33 67.86 144.1 76.06 153.56 96.8 159.82 99.08 166.32 95.43 174.3 76.97 186.49 65.23 174.87 63.52 165.87 67.17 161.76 70.93 158.46 74.01 154.01 71.05 149.23 67.86 139.54 65.12 131.33 67.86"/><polygon class="cls-11" points="130.99 63.07 131.33 67.86 149.23 67.86 149.11 63.07 130.99 63.07"/><polygon class="cls-11" points="165.41 62.84 165.87 67.17 186.49 65.23 186.61 59.76 165.41 62.84"/><polygon class="cls-3" points="154.93 59.88 154.01 65.12 156.41 68.08 154.93 59.88"/><polygon class="cls-3" points="159.14 58.97 159.82 66.49 161.88 61.81 159.14 58.97"/><polygon class="cls-15" points="154.01 71.05 153.56 96.8 166.32 95.43 162.45 70.25 154.01 71.05"/><polygon class="cls-4" points="160.4 103.07 153.56 96.8 166.32 95.43 160.4 103.07"/><path class="cls-16" d="M140.33,78.25A3.77,3.77,0,1,1,144.24,82,3.82,3.82,0,0,1,140.33,78.25Z"/><path class="cls-16" d="M170.48,77.08a3.77,3.77,0,1,1,3.92,3.75A3.84,3.84,0,0,1,170.48,77.08Z"/><polygon class="cls-4" points="194.81 240.74 192.88 243.25 195.84 245.19 198 242.11 194.81 240.74"/><polygon class="cls-4" points="213.28 205.19 211.34 207.69 214.3 209.63 216.47 206.55 213.28 205.19"/><polygon class="cls-4" points="171.45 204.73 169.63 207.24 172.59 209.17 174.75 206.1 171.45 204.73"/></g></svg>