<svg id="illustration_layer_copy_3" data-name="illustration_layer copy 3" xmlns="http://www.w3.org/2000/svg" viewBox="0 0 400 400"><defs><style>.cls-1,.cls-19,.cls-20,.cls-21{fill:#2b2b2b;}.cls-1{opacity:0.1;}.cls-2{fill:#8f759f;}.cls-3,.cls-4{fill:#594165;}.cls-4{opacity:0.7;}.cls-5{fill:#734d60;}.cls-6{fill:#95637c;}.cls-7{fill:#82624d;}.cls-8{fill:#a98c80;}.cls-9{fill:#98796a;}.cls-10{fill:#66483a;}.cls-11{fill:#51362a;}.cls-12{fill:#fce3d4;}.cls-13{fill:#b2879c;}.cls-14{fill:#d0a0b7;}.cls-15{fill:#f4c9b2;}.cls-16{fill:#ffefe7;}.cls-17{fill:#c1907d;}.cls-18{fill:#fff;}.cls-20{opacity:0.2;}.cls-21{opacity:0.3;}.cls-22{fill:#636363;}.cls-23{fill:#474747;}.cls-24{fill:#f3d65d;}.cls-25{fill:#e1a842;}.cls-26{fill:#bb8e2d;}.cls-27{fill:#858686;}.cls-28{fill:#e4c728;}.cls-29{fill:#b48a00;}</style></defs><title>analysts_ENTP_famous_real_weird_al_yankovic</title><polygon class="cls-1" points="85.33 384.77 189.01 369.56 300.01 387.06 197.21 400 85.33 384.77"/><polygon class="cls-2" points="189.13 302.14 220.4 365.4 232.26 374.14 248.9 370.33 246.58 274.13 189.13 302.14"/><polygon class="cls-2" points="189.13 302.14 154.81 366.21 140.26 366.25 130.6 357.82 142.15 277.3 177.94 260.04 189.13 302.14"/><polygon class="cls-3" points="234.3 273.07 242.03 369.14 236.88 370.37 221.42 279.06 234.3 273.07"/><polygon class="cls-3" points="230.37 369.24 209.07 284.72 201.59 288.22 220.4 365.4 230.37 369.24"/><polygon class="cls-3" points="154.81 366.21 192.95 261.44 182.99 258.62 145.51 366.9 154.81 366.21"/><polygon class="cls-3" points="166.01 258.63 142.14 361.82 135.75 363.14 155.54 255.72 166.01 258.63"/><polygon class="cls-4" points="246.58 274.13 195.14 312.79 189.13 302.14 166.01 310.06 142.15 277.3 174.98 256.66 246.58 274.13"/><polygon class="cls-5" points="262.86 160.38 270.09 168.49 271.88 183.05 292.74 202.8 291.68 225.6 275.25 232.17 249.57 205.72 262.86 160.38"/><polygon class="cls-6" points="307.49 216.83 292.74 202.8 287.91 223.32 286.65 233.38 292.74 240.09 307.49 216.83"/><polygon class="cls-7" points="152.32 22.64 159.1 9 183.66 6.93 179.74 12.61 161.85 26.14 155.01 31.16 152.32 22.64"/><polygon class="cls-8" points="158.01 29.93 152.32 22.64 137.54 31.06 148.8 41.18 158.01 29.93"/><polygon class="cls-7" points="147.98 37.68 154.33 64.75 139.97 60.74 137.54 31.06 147.98 37.68"/><polygon class="cls-9" points="151.58 58.56 137.62 87.1 126.93 82.63 139.97 60.74 151.58 58.56"/><polygon class="cls-7" points="136.62 82.63 143.47 107.53 133.95 105.86 126.93 82.63 136.62 82.63"/><polygon class="cls-8" points="141.64 105.03 139.25 126.9 120.92 123.57 133.95 105.86 141.64 105.03"/><polygon class="cls-10" points="136.62 123.57 160.68 148.13 143.47 149.42 120.92 123.57 136.62 123.57"/><polygon class="cls-9" points="154.33 146 161.93 162.62 150.33 175.71 143.47 149.42 154.33 146"/><polygon class="cls-7" points="136.62 123.57 154.33 146 169.54 146 160.68 125.24 154.33 112.88 136.62 123.57"/><polygon class="cls-10" points="154.33 146 158.72 162.62 168.49 162.25 169.54 152.98 165.69 142.96 154.33 146"/><polygon class="cls-10" points="165.69 142.96 186.34 146 176.81 125.58 160.68 125.24 165.69 142.96"/><polygon class="cls-11" points="165.69 142.96 168.49 162.25 188.55 152.98 184.08 138.84 165.69 142.96"/><polygon class="cls-9" points="141.64 105.03 136.62 123.57 154.33 119.89 151.58 99.34 141.64 105.03"/><polygon class="cls-10" points="136.62 82.63 141.64 105.03 150.32 103.98 148.32 79.63 136.62 82.63"/><polygon class="cls-7" points="151.58 58.56 136.62 82.63 145.64 83.46 154.33 71.01 151.58 58.56"/><polygon class="cls-10" points="147.98 37.68 151.58 58.56 160.68 41.18 160.68 29.93 147.98 37.68"/><polygon class="cls-12" points="183.28 151.12 180.75 208.04 212.82 165.35 224.19 141.62 183.28 151.12"/><polygon class="cls-13" points="183.28 151.12 158.72 162.62 142.15 277.3 169.78 297.9 173.72 266.68 181.79 263.14 183.58 204.64 182.99 186.16 177.76 171.71 183.28 151.12"/><polygon class="cls-6" points="183.58 204.64 196.36 187.63 213.37 175.77 230.37 155.21 262.86 160.38 249.57 205.72 248.36 240.09 248.21 242.89 245.87 255.03 246.87 268.55 246.58 274.13 189.13 302.14 173.72 266.68 183.58 204.64"/><polygon class="cls-6" points="173.72 178.17 157.36 190.75 156.79 202.46 182.99 186.16 173.72 178.17"/><polygon class="cls-5" points="216.01 209.43 249.57 205.72 259.54 171.71 230.37 155.21 196.36 187.63 211.97 220.88 216.01 209.43"/><polygon class="cls-14" points="183.28 151.12 157.36 190.75 182.99 186.16 183.28 151.12"/><polygon class="cls-13" points="196.36 187.63 216.01 209.43 233.25 173.05 230.37 155.21 211.97 166.85 196.36 187.63"/><polygon class="cls-5" points="158.72 162.62 128.73 208.41 155.97 219.62 158.72 162.62"/><polygon class="cls-12" points="157.67 33 145.64 83.46 152.32 130.25 174.72 136.27 190.43 152.98 218.17 139.61 234.21 111.87 236.55 75.44 229.85 46.91 225.85 36.34 195.1 15.62 175.39 14.95 157.67 33"/><polygon class="cls-15" points="229.85 46.91 199.62 143.12 174.72 136.27 189.93 156.66 217.75 145.45 238.55 115.88 239.89 73.44 229.85 46.91"/><polygon class="cls-15" points="207.3 60.74 212.82 61.93 207.96 69.09 202.9 63.94 177.39 82.46 161.24 56.01 151.58 58.56 151.58 51.31 169.37 48.7 176.72 53.05 184.08 54.72 188.42 49.2 200.45 48.7 207.3 60.74"/><polygon class="cls-15" points="212.82 88.48 201.79 92.15 201.79 110.2 207.3 95.5 212.82 88.48"/><polygon class="cls-15" points="145.64 83.46 151.44 87.35 148.27 101.9 145.64 83.46"/><polygon class="cls-16" points="184.08 54.72 177.39 82.46 169.54 80.62 176.72 53.05 184.08 54.72"/><polygon class="cls-17" points="177.39 82.46 172.58 86.69 169.54 80.62 177.39 82.46"/><polygon class="cls-17" points="158.01 92.94 194.94 96.95 181.07 114 160.68 109.65 158.01 92.94"/><polygon class="cls-17" points="161.93 66.47 172.58 68.59 171.55 72.89 158.32 70.44 150.1 64.75 151.06 60.74 161.93 66.47"/><polygon class="cls-17" points="180.55 69.35 191.86 72.09 213.09 71.01 236.55 81.21 234.37 87.34 219.57 79.63 186.34 75.96 180.55 69.35"/><polygon class="cls-17" points="172.97 17.41 197.78 13.11 228.99 39.01 236.55 75.44 218.17 48.7 205.44 41.18 205.8 34.92 197.11 14.61 184.08 16.21 173.46 34.33 157.67 33 172.97 17.41"/><polygon class="cls-18" points="160.68 95.78 161.68 101.97 184.08 106.15 189.93 99.13 160.68 95.78"/><circle class="cls-19" cx="194.31" cy="64.34" r="3.84"/><circle class="cls-19" cx="164.57" cy="58.19" r="3.84"/><polygon class="cls-17" points="174.72 136.27 217.75 145.45 188.4 160 174.72 136.27"/><polygon class="cls-17" points="227.36 90.56 241.4 118.16 228.99 125.24 227.36 90.56"/><polygon class="cls-10" points="188.42 49.2 192.09 45.13 203.88 49.54 207.3 60.74 198.95 51.71 188.42 49.2"/><polygon class="cls-10" points="176.72 53.05 177.39 49.12 164.57 46.77 158.01 50.71 168.2 49.62 176.72 53.05"/><polygon class="cls-20" points="147.42 241.12 145.95 251.01 175.99 252.4 177.94 240.09 160.39 239.32 147.42 241.12"/><polygon class="cls-13" points="176.72 53.05 184.08 54.72 183.03 59.06 175.57 57.36 176.72 53.05"/><path class="cls-6" d="M197.11,54.72h-13l-3.53,14.63,9.06,4.24,21.71-.76,4.12-4.24L214.3,60.9ZM208,69.09l-16.47,1.69L184.93,67l2.44-8.42,8.86,0,13.22,4.17Z"/><path class="cls-6" d="M168.2,49.62,150,49.54l-2.75,9.83,14.66,8.38,10.65.84,4.14-15.54Zm1.39,14.79-6,.38-12-6.23,1.31-5.51,13.89-.43,4.87,2.62Z"/><polygon class="cls-5" points="214.3 60.9 236.55 75.44 236.55 81.21 211.32 72.83 214.3 60.9"/><polygon class="cls-9" points="207.3 5.25 225.86 2.92 245.16 14.81 239.89 31.91 207.3 5.25"/><polygon class="cls-7" points="245.16 14.81 252.97 30.15 253.27 37.68 244.76 40.35 238.56 25.14 245.16 14.81"/><polygon class="cls-9" points="252.97 30.15 245.16 37.17 249.59 53.82 266.31 43.24 252.97 30.15"/><polygon class="cls-7" points="266.31 43.24 268.64 74.52 249.59 80.62 251.93 49.54 266.31 43.24"/><polygon class="cls-11" points="268.64 74.52 261.63 91.82 245.92 97.83 253.27 74.52 268.64 74.52"/><polygon class="cls-10" points="261.63 91.82 275.91 117.89 256.64 119.16 249.59 92.33 261.63 91.82"/><polygon class="cls-11" points="275.91 117.89 266.12 140.49 241.4 148.13 258.62 114.63 275.91 117.89"/><polygon class="cls-9" points="266.12 140.49 262.86 160.38 242.82 166.02 246.28 142.96 266.12 140.49"/><polygon class="cls-7" points="207.3 5.25 238.56 25.14 233.25 39.01 211.58 26.72 197.78 11.1 207.3 5.25"/><polygon class="cls-10" points="232.37 31.16 238.56 25.14 251.93 49.54 253.27 74.52 239.7 79.63 232.37 31.16"/><polygon class="cls-7" points="253.27 74.52 249.59 92.33 236.26 95.08 245.16 74.52 253.27 74.52"/><polygon class="cls-11" points="249.59 92.33 258.62 114.63 242.1 123.57 239.28 92.68 249.59 92.33"/><polygon class="cls-10" points="258.62 114.63 246.28 142.96 222.46 159.35 245.16 117.39 258.62 114.63"/><polygon class="cls-7" points="246.28 142.96 242.82 166.02 233.25 173.05 224.19 160 228.58 150.08 246.28 142.96"/><polygon class="cls-9" points="201.79 11.1 207.3 5.25 188.52 0.42 182.3 7.03 185.25 12.23 201.79 11.1"/><polygon class="cls-10" points="201.79 11.1 182.3 7.03 171.29 21.3 195.1 15.62 199.79 16.82 201.79 11.1"/><polygon class="cls-9" points="182.3 7.03 152.32 22.64 147.98 37.68 169.54 28.98 182.3 7.03"/><polygon class="cls-9" points="195.1 15.62 201.79 11.1 214.82 25.14 232.37 31.16 228.99 39.01 221.34 41.18 205.8 34.92 195.1 15.62"/><polygon class="cls-7" points="232.37 31.16 245.16 74.52 239.7 79.63 236.55 75.44 221.34 41.18 232.37 31.16"/><polygon class="cls-9" points="245.16 74.52 239.28 92.68 233.25 95.08 227.36 90.56 236.55 75.44 245.16 74.52"/><polygon class="cls-10" points="239.28 92.68 245.16 117.39 236.55 119.16 234.88 114.63 227.36 90.56 239.28 92.68"/><polygon class="cls-9" points="234.88 114.63 220.26 132.01 211.97 166.85 233.25 173.05 228.58 150.08 245.16 117.39 234.88 114.63"/><polygon class="cls-14" points="208.02 267.29 211.37 257.61 214.01 267.29 222.82 265.71 217.18 272.4 221.94 279.8 212.07 276.31 202.03 279.8 206.62 273.28 199.4 268.7 208.02 267.29"/><polygon class="cls-14" points="153.52 265.48 150.05 256.85 158.36 260.02 165.08 255.79 161.5 264.07 170.84 268.15 160.62 270.24 158.8 280.28 155.38 270.94 147.42 270.94 153.52 265.48"/><polygon class="cls-14" points="248.13 242.89 242.25 250.76 232.11 247.77 237.69 255.16 232.11 263.79 242.28 259.88 246.83 268.55 248.13 242.89"/><polygon class="cls-6" points="128.73 208.41 156.11 216.56 175.45 228.12 155.14 240.85 135.95 241.51 133.82 231.76 134.08 226.58 131.45 220.88 128.73 208.41"/><polygon class="cls-17" points="307.49 216.83 287.91 223.32 282.57 228.44 277.85 238.05 296.39 243.7 307.49 216.83"/><polygon class="cls-21" points="177.94 239.32 175.99 252.4 190.13 253.72 214.01 267.29 235.61 252.4 247.71 252.4 248.36 240.09 234.03 228.44 190.43 236.83 177.94 239.32"/><polygon class="cls-12" points="156.11 216.56 155.14 240.85 177.94 240.09 183.58 233.88 180.63 223.24 156.11 216.56"/><polygon class="cls-15" points="180.63 223.24 197.69 228.67 200.5 241.71 193.34 247.36 177.94 240.09 180.63 223.24"/><polygon class="cls-17" points="197.69 228.67 221.42 233.99 210.79 244.5 193.34 247.36 197.69 228.67"/><polygon class="cls-17" points="180.63 223.24 202.41 215.81 205.67 219.62 197.69 228.67 180.63 223.24"/><polygon class="cls-7" points="172.58 86.69 187.18 91.82 173.51 91.57 172.58 86.69"/><polygon class="cls-7" points="172.58 86.69 169.54 91.18 159.13 87.99 172.58 86.69"/><polygon class="cls-7" points="228.58 150.08 211.97 166.85 233.25 173.05 228.58 150.08"/><polygon class="cls-22" points="216.01 209.43 253.81 211.15 248.36 240.09 204.57 230.18 216.01 209.43"/><polygon class="cls-23" points="249.22 215.78 257.9 208.01 275.74 201.67 282.57 219.08 248.36 240.09 249.22 215.78"/><polygon class="cls-24" points="216.01 209.43 241.26 195.97 275.74 201.67 270.09 208.01 265.51 207.11 249.22 215.78 216.01 209.43"/><polygon class="cls-25" points="225.65 204.29 246.58 208.01 250.04 189.73 225.39 187.6 225.65 204.29"/><polygon class="cls-26" points="247.3 190.75 251.53 187.6 262.39 185.12 262.86 199.54 246.58 208.01 247.3 190.75"/><polygon class="cls-24" points="225.39 187.6 241.34 183.05 262.39 185.12 247.3 190.75 225.39 187.6"/><polygon class="cls-27" points="219.99 217.52 238.87 220.88 237.45 229.12 218.29 225.31 219.99 217.52"/><polygon class="cls-25" points="257.61 186.9 267.37 171.71 274.4 173.67 271.88 183.05 262.31 193.22 257.61 186.9"/><polygon class="cls-26" points="266.22 173.49 267.37 171.71 282.57 171.71 271.88 183.05 266.22 173.49"/><polygon class="cls-28" points="282.57 171.71 262.86 160.38 257.61 164.31 259.54 171.71 277.97 176.6 282.57 171.71"/><polygon class="cls-29" points="261.32 165.64 250.04 155.47 228.58 150.08 231.2 174.1 259.54 171.71 261.32 165.64"/><polygon class="cls-25" points="228.58 150.08 250.04 134.32 262.86 160.38 261.32 165.64 228.58 150.08"/><polygon class="cls-12" points="275.74 201.67 287.91 223.32 277.85 238.05 272.34 223.32 275.74 201.67"/><polygon class="cls-17" points="275.74 201.67 265.46 207.03 260.46 232.66 277.85 238.05 275.74 201.67"/><polygon class="cls-14" points="137.19 222.4 137.56 213.61 131.45 220.88 133.82 231.76 142.24 237.5 137.94 228.06 145.95 225.23 137.19 222.4"/><polygon class="cls-6" points="220.4 365.4 211.97 386.12 230.67 387.52 249.37 386.12 248.9 370.33 220.4 365.4"/><polygon class="cls-14" points="211.97 386.12 231.34 375.9 249.37 386.12 249.57 392.1 211.97 392.1 211.97 386.12"/><polygon class="cls-6" points="154.81 366.21 154.81 377.44 112.04 379.24 115.21 368.29 130.6 357.82 154.81 366.21"/><polygon class="cls-14" points="115.21 368.29 126.72 377.44 154.81 377.44 154.81 384.7 101.82 384.7 101.82 377.44 115.21 368.29"/></svg>