<svg id="Layer_1" data-name="Layer 1" xmlns="http://www.w3.org/2000/svg" viewBox="0 0 400 400"><defs><style>.cls-1{fill:#594165;}.cls-2{fill:#734d60;}.cls-25,.cls-3{fill:#2b2b2b;}.cls-3{fill-opacity:0.1;}.cls-4{fill:#dddddc;}.cls-5{fill:#fff;}.cls-6{fill:#95637c;}.cls-7{fill:#d0a0b7;}.cls-8{fill:#b2879c;}.cls-9{fill:#785d87;}.cls-10{fill:#a587b9;}.cls-11{fill:#ffefe7;}.cls-12{fill:#eed2c1;}.cls-13{fill:#c8ac9a;}.cls-14{fill:#e6e6e6;}.cls-15{fill:#cfcfcf;}.cls-16{fill:#446125;}.cls-17{fill:#709c53;}.cls-18{fill:#738c57;}.cls-19{fill:#98c16d;}.cls-20{fill:#9fce7e;}.cls-21{fill:#fcf7f5;}.cls-22{fill:#9c9c9c;}.cls-23{fill:#7e7e7e;}.cls-24{fill:#dc0b09;}.cls-26{fill:none;}</style></defs><title>analysts_ENTP_famous_fictional_the_joker_batman_series</title><g id="Layer_1-2" data-name="Layer_1"><g id="_788710560" data-name=" 788710560"><polygon class="cls-1" points="193.58 319.16 213.96 319.63 217.02 294.07 197.11 273.33 178.15 297.36 193.58 319.16"/><polygon class="cls-1" points="160.48 165.54 133.85 201 152.11 215.02 160.83 209.48 168.02 198.65 160.48 165.54"/><polygon class="cls-2" points="158.9 267.91 178.97 279.93 196.41 284.64 214.55 280.52 245.41 264.5 192.87 240 158.9 267.91"/><polygon class="cls-3" points="125.96 379.71 224.21 370.52 312.09 384.07 216.79 398.91 125.96 379.71"/><polygon class="cls-4" points="183.21 160.59 181.33 180.62 195.11 187.34 211.49 180.74 213.02 160.01 198.53 154.82 183.21 160.59"/><polygon class="cls-5" points="185.8 174.61 201.12 162.72 188.98 150.23 176.14 164.36 185.8 174.61"/><polygon class="cls-5" points="211.96 174.14 201.12 162.72 225.27 149.17 227.98 164.84 211.96 174.14"/><polygon class="cls-6" points="210.54 319.55 196.41 284.64 234.94 262.32 239.05 286.41 238.58 321.98 210.54 319.55"/><polygon class="cls-7" points="171.9 168.02 177.32 165.43 195.23 184.75 203.36 213.13 192.28 251.19 170.73 268.12 167.54 267.91 165.9 254.72 171.9 168.02"/><polygon class="cls-2" points="210.54 319.55 232.81 369.34 245.65 376.29 253.25 366.28 245.41 311.94 228.33 315.15 210.54 319.55"/><polygon class="cls-8" points="219.62 271.2 192.28 251.19 195.23 184.75 220.68 168.49 223.74 161.89 233.16 247.18 219.62 271.2"/><polygon class="cls-1" points="194.99 167.31 197 171.2 190.05 179.21 195.23 184.75 202.18 180.39 199.94 171.31 205.01 166.96 201.12 162.72 194.99 167.31"/><polygon class="cls-9" points="188.98 150.23 176.73 172.96 180.39 209.13 170.73 268.12 160.48 271.33 159.84 255.19 160.83 209.48 160.48 165.54 188.98 150.23"/><polygon class="cls-10" points="168.96 171.78 180.39 209.13 188.98 150.23 168.96 171.78"/><polygon class="cls-9" points="225.27 149.17 230.45 173.67 206.3 209.01 219.62 271.2 236.67 272.45 239.87 248.33 246.71 205.12 257.43 194.88 253.78 162.83 225.27 149.17"/><polygon class="cls-6" points="162.17 262.61 155.88 297.83 166.84 314.68 181.8 329.06 196.39 319.63 196.41 284.64 162.17 262.61"/><polygon class="cls-2" points="174.72 358.54 162.25 313.91 196.39 319.63 200.06 368.28 184.15 370.4 174.72 358.54"/><polygon class="cls-10" points="153.17 376.88 174.72 358.54 200.06 368.28 201.12 375.82 174.73 378.77 153.17 376.88"/><polygon class="cls-1" points="201.12 375.82 201.59 379.94 153.17 381.24 153.17 376.88 201.12 375.82"/><polygon class="cls-10" points="229.04 386.54 232.81 369.34 253.25 366.28 258.85 386.42 243.29 390.78 229.04 386.54"/><polygon class="cls-1" points="229.04 392.19 229.04 386.54 258.85 386.42 258.37 392.19 229.04 392.19"/><polygon class="cls-1" points="144.93 319.74 159.84 255.19 170.73 268.12 166.07 327.57 144.93 319.74"/><polygon class="cls-10" points="206.3 209.01 239.87 174.97 225.27 149.17 206.3 209.01"/><polygon class="cls-1" points="260.49 221.38 246.71 205.12 253.78 162.83 283.47 205.95 277.93 225.74 260.49 221.38"/><polygon class="cls-9" points="272.39 264.5 260.49 221.38 283.47 205.95 291.47 262.38 283.23 271.33 272.39 264.5"/><polygon class="cls-11" points="270.27 280.4 268.74 273.57 272.39 264.5 291.47 262.38 296.19 276.51 283.23 282.87 270.27 280.4"/><polygon class="cls-12" points="270.5 287.35 270.27 280.4 296.19 276.51 289.59 289.35 270.5 287.35"/><polygon class="cls-13" points="272.39 264.5 265.56 275.69 270.27 280.4 272.39 264.5"/><polygon class="cls-9" points="130.2 228.8 152.11 215.02 125.25 176.97 115.36 178.5 109.23 184.39 130.2 228.8"/><polygon class="cls-1" points="194.52 201.35 189.69 205.24 194.17 209.95 199.12 205.95 194.52 201.35"/><polygon class="cls-1" points="193.7 220.79 188.51 224.44 193.34 229.16 198.06 224.8 193.7 220.79"/><polygon class="cls-1" points="232.93 333.29 219.62 271.2 239.87 248.33 273.1 318.1 232.93 333.29"/><polygon class="cls-14" points="87.79 121.48 101.34 154.47 120.54 151.05 118.3 113.12 87.79 121.48"/><polygon class="cls-15" points="108.53 153.17 113.24 152.35 113.36 152.35 109.58 142.34 108.53 153.17"/><polygon class="cls-1" points="102.75 125.72 109.94 123.96 111.94 141.39 105.34 143.98 101.69 140.33 103.93 136.09 106.17 141.98 107.82 139.74 108.88 138.68 107.58 127.49 104.75 128.32 102.75 125.72"/><polygon class="cls-11" points="100.87 163.54 101.69 140.33 109.58 142.34 108.53 153.41 107.23 164.6 100.87 163.54"/><polygon class="cls-10" points="93.09 122.42 91.68 126.08 95.69 129.26 97.45 124.43 93.09 122.42"/><polygon class="cls-12" points="125.72 157.18 113.47 158.71 113.36 152.35 108.53 153.17 106.52 164.48 125.37 166.37 125.72 157.18"/><polygon class="cls-13" points="113.47 158.71 113.36 152.35 108.53 153.17 106.52 164.48 113.47 158.71"/><polygon class="cls-11" points="109.23 184.39 101.1 176.73 100.87 163.54 125.37 166.37 127.37 179.91 109.23 184.39"/><polygon class="cls-12" points="225.27 149.17 256.37 80.72 227.98 47.27 194.76 142.1 201.12 162.72 225.27 149.17"/><polygon class="cls-11" points="151.52 32.54 146.92 110.77 163.66 140.8 203.47 142.57 221.85 117.47 228.21 36.08 182.27 16.76 151.52 32.54"/><polygon class="cls-12" points="172.14 98.04 166.13 81.78 163.3 68.71 177.56 74.95 179.91 80.25 184.15 75.07 194.99 72.36 195.23 85.08 185.1 97.81 178.26 100.4 172.14 98.04"/><polygon class="cls-16" points="134.32 14.99 135.38 42.56 149.52 66.59 151.52 32.54 144.81 16.76 134.32 14.99"/><polygon class="cls-17" points="146.46 0.97 134.32 14.99 151.52 32.54 155.29 25.12 151.88 10.98 146.46 0.97"/><polygon class="cls-18" points="166.13 35.72 167.54 15.11 151.88 10.98 151.52 32.54 166.13 35.72"/><polygon class="cls-19" points="175.32 47.39 166.13 35.72 151.88 10.98 184.15 1.68 191.58 17.7 175.32 47.39"/><polygon class="cls-20" points="233.75 3.68 214.08 24.18 188.98 37.26 175.32 47.39 184.15 1.68 233.75 3.68"/><polygon class="cls-19" points="216.19 31.13 188.98 37.26 233.75 3.68 231.16 26.42 216.19 31.13"/><polygon class="cls-18" points="227.98 47.27 216.19 31.13 233.75 3.68 253.31 17.11 249.77 36.19 227.98 47.27"/><polygon class="cls-19" points="282.99 9.93 253.31 17.11 227.98 47.27 233.04 67.29 264.5 51.86 273.1 32.66 282.99 9.93"/><polygon class="cls-17" points="297.13 29.83 273.1 32.66 233.04 67.29 237.28 88.26 275.69 60.7 297.13 29.83"/><polygon class="cls-18" points="280.99 68.24 275.69 60.7 238.7 74.95 256.37 80.72 262.26 83.08 280.99 68.24"/><polygon class="cls-11" points="238.7 74.95 233.16 99.34 245.3 102.75 256.37 80.72 238.7 74.95"/><polygon class="cls-13" points="238.93 91.33 242.35 80.37 250.71 82.96 238.93 91.33"/><polygon class="cls-13" points="233.16 99.34 241.29 110.77 245.3 102.75 233.16 99.34"/><polygon class="cls-16" points="280.99 68.24 241.29 110.77 256.37 80.72 280.99 68.24"/><polygon class="cls-13" points="180.39 141.51 201.12 162.72 203.94 161.06 211.84 142.1 203.47 142.57 180.39 141.51"/><polygon class="cls-21" points="177.56 74.95 175.44 90.38 172.14 98.04 178.26 100.4 185.1 97.81 182.39 90.86 184.15 75.07 177.56 74.95"/><polygon class="cls-13" points="178.03 105.23 172.14 98.04 178.26 100.4 185.1 97.81 178.03 105.23"/><polygon class="cls-22" points="177.56 74.95 166.13 81.78 154.82 78.01 151.41 61.76 160.83 58.34 168.37 70.94 177.56 74.95"/><polygon class="cls-23" points="177.56 74.95 166.13 81.78 151.41 61.76 160.83 58.34 174.26 70.24 177.56 74.95"/><polygon class="cls-22" points="184.15 75.07 195.23 85.08 211.96 82.37 221.85 67.41 213.25 59.64 203 72.36 184.15 75.07"/><polygon class="cls-23" points="184.15 75.07 195.23 85.08 221.85 67.41 213.49 61.52 192.4 71.54 184.15 75.07"/><polygon class="cls-24" points="155.29 102.16 178.38 107.82 216.08 102.28 207.48 109.7 196.88 126.55 169.43 126.31 160.71 108.64 155.29 102.16"/><path class="cls-25" d="M163.19,70.59a3.3,3.3,0,1,1-3.3,3.3A3.29,3.29,0,0,1,163.19,70.59Z"/><polygon class="cls-5" points="164.01 108.41 179.21 111.47 204.42 108.64 193.58 123.13 173.32 123.13 164.01 108.41"/><path class="cls-25" d="M201.35,74.13a3.3,3.3,0,1,1-3.29,3.3A3.3,3.3,0,0,1,201.35,74.13Z"/><polygon class="cls-16" points="192.4 71.54 191.46 67.65 214.9 58.93 221.85 67.41 213.49 63.88 192.4 71.54"/><polygon class="cls-16" points="174.26 70.24 176.62 66.94 160.83 55.63 151.41 61.76 160.48 60.7 174.26 70.24"/></g><rect class="cls-26" x="0.5" y="0.5" width="399" height="399"/></g></svg>