<svg id="Layer_1" data-name="Layer 1" xmlns="http://www.w3.org/2000/svg" viewBox="0 0 400 400"><defs><style>.cls-1{fill:#46382c;}.cls-2{fill:#070908;fill-opacity:0.15;}.cls-3{fill:#2b2b2b;}.cls-4{fill:#d1a1b8;}.cls-5{fill:#554537;}.cls-6{fill:#4e4034;}.cls-7{fill:#543042;}.cls-8{fill:#c4c4c4;}.cls-9{fill:#96637c;}.cls-10{fill:#efd3c2;}.cls-11{fill:#734d60;}.cls-12{fill:#a9846c;}.cls-13{fill:#858686;}.cls-14{fill:#6f7173;}.cls-15{fill:#9da1a2;}.cls-16{fill:#d0af96;}.cls-17{fill:#4f5253;}.cls-18{fill:#785d88;}.cls-19{fill:#b3889d;}.cls-20{fill:#dddddc;}.cls-21{fill:#a688ba;}.cls-22{fill:#f7e6dc;}.cls-23{fill:none;}</style></defs><title>analysts_ENTP_famous_fictional_captain_jack_sparrow_pirates_of_the_caribbean</title><g id="Layer_1-2" data-name="Layer_1"><g id="_785958608" data-name=" 785958608"><polygon class="cls-1" points="270.62 175.32 270.74 206.54 274.63 211.84 279.11 207.83 280.4 173.55 274.98 168.6 270.62 175.32"/><polygon class="cls-2" points="179.21 398.91 105.94 386.19 206.77 381.71 289 394.08 179.21 398.91"/><polygon class="cls-3" points="220.08 188.16 254.72 193.58 255.43 151.88 242.7 92.03 237.87 93.21 240.47 133.5 235.99 135.5 220.08 188.16"/><polygon class="cls-4" points="244.12 179.91 240.23 183.57 236.7 180.39 231.98 166.96 236.7 159.18 240.58 155.06 244.59 159.18 244.12 179.91"/><polygon class="cls-5" points="261.2 195.11 254.72 193.58 250.83 190.87 245.88 150.23 270.03 146.69 269.21 163.07 261.2 195.11"/><polygon class="cls-6" points="267.56 148.81 269.92 143.98 274.04 146.46 280.4 173.55 270.62 175.32 267.56 148.81"/><polygon class="cls-7" points="150.35 304.43 133.74 296.77 139.39 291.12 151.29 287 150.35 304.43"/><polygon class="cls-8" points="297.13 117.13 293.95 122.78 308.91 199.12 312.8 201.24 314.91 198.65 308.44 128.55 297.13 117.13"/><polygon class="cls-4" points="289 341.89 258.85 367.1 259.19 353.08 263.2 340.48 253.78 319.98 256.25 315.04 289 341.89"/><polygon class="cls-9" points="244.12 214.19 246 229.51 253.42 240.11 258.85 238.23 272.15 214.55 270.74 206.54 260.96 194.88 257.43 196.17 256.6 189.57 251.66 183.57 248 188.28 244.12 214.19"/><polygon class="cls-10" points="100.63 184.39 102.16 189.34 129.38 188.04 119.48 177.09 100.63 184.39"/><polygon class="cls-7" points="124.9 209.13 121.37 242.59 128.91 240.11 141.86 225.98 130.67 210.54 124.9 209.13"/><polygon class="cls-11" points="150.82 208.42 146.93 212.66 146.22 231.04 138.56 238.93 140.22 243.17 156.59 247.06 164.72 240.47 162.25 215.49 158 212.31 150.82 208.42"/><polygon class="cls-9" points="171.31 184.98 158 212.31 160.59 238.46 160.59 248 164.84 243.29 173.55 190.75 171.31 184.98"/><polygon class="cls-12" points="122.42 200.06 124.9 209.13 136.91 226.33 141.86 225.98 143.28 208.42 140.92 202.53 122.42 200.06"/><polygon class="cls-13" points="112.65 186.75 136.44 188.63 135.74 198.29 131.73 206.19 122.42 200.06 113.83 197.59 108.76 190.75 112.65 186.75"/><polygon class="cls-8" points="140.92 202.53 136.44 188.63 131.73 206.19 140.92 202.53"/><polygon class="cls-14" points="109.82 203.36 113.47 201.24 113.12 204.65 110.53 214.9 102.99 217.38 96.27 214.19 94.04 211.6 97.92 211.37 103.34 213.49 107.7 212.31 105.11 205.59 109.82 203.36"/><polygon class="cls-14" points="93.92 191.22 112.65 186.75 111.35 194.4 113.24 203.24 105.11 205.59 95.8 198.65 93.92 191.22"/><path class="cls-15" d="M99,196.17l1,3L71.54,247.3l-4,2.47-2.36-2.71c8.49-16.61,17.08-33.22,25.57-49.95L99,195.94Z"/><polygon class="cls-16" points="99.34 208.42 107.7 212.31 109.82 203.36 104.05 201.24 99.57 203.12 99.34 208.42"/><polygon class="cls-8" points="84.61 190.05 82.14 194.76 85.2 195.58 86.61 193.11 92.27 194.52 90.86 197.35 95.57 201.71 98.98 196.17 93.92 191.22 84.61 190.05"/><polygon class="cls-16" points="111.35 194.4 109.82 203.36 124.9 209.13 126.43 196.17 111.35 194.4"/><polygon class="cls-11" points="263.08 274.51 260.49 278.75 254.01 283.11 223.15 266.03 216.55 257.9 214.9 229.63 217.49 226.8 226.09 229.63 239.76 243.29 243.06 253.54 263.08 274.51"/><polygon class="cls-7" points="260.26 293.71 256.25 291.94 252.72 285.11 252.95 281.11 263.08 274.51 260.26 293.71"/><polygon class="cls-14" points="314.91 232.1 310.91 233.99 310.68 246.94 317.51 248 321.28 242.35 317.86 235.75 314.91 232.1"/><polygon class="cls-7" points="302.08 232.34 296.19 258.61 290.89 252.72 283.7 231.04 300.55 228.57 302.08 232.34"/><polygon class="cls-12" points="289.82 225.98 289.35 233.75 303.84 232.1 306.67 225.98 297.25 222.32 289.82 225.98"/><polygon class="cls-10" points="221.02 179.56 193.34 181.09 190.4 185.33 191.1 199.35 198.06 206.54 194.05 215.61 197.59 220.32 202.65 220.32 207.72 218.79 222.09 183.92 221.02 179.56"/><polygon class="cls-16" points="187.69 235.4 184.75 235.4 181.8 237.87 185.92 258.37 190.75 258.25 195.46 245.77 187.69 235.4"/><polygon class="cls-13" points="229.63 389.25 234.34 387.49 253.78 387.25 259.19 389.25 259.19 394.08 229.63 394.08 229.63 389.25"/><polygon class="cls-13" points="123.37 381.36 130.2 379.59 162.01 379.36 166.72 381.36 166.72 386.19 123.37 386.19 123.37 381.36"/><polygon class="cls-17" points="146.22 365.34 123.37 381.36 166.72 381.36 166.72 370.4 164.36 365.69 152.35 361.68 146.22 365.34"/><polygon class="cls-17" points="232.57 373.58 229.63 389.25 259.19 389.25 249.77 370.05 243.76 367.1 235.75 368.87 232.57 373.58"/><polygon class="cls-14" points="145.99 352.38 146.22 365.34 166.72 370.4 172.49 354.5 169.55 351.32 149.76 349.79 145.99 352.38"/><polygon class="cls-14" points="224.21 356.03 232.57 373.58 249.77 370.05 250.71 353.68 246.59 350.14 228.21 352.73 224.21 356.03"/><polygon class="cls-18" points="146.22 323.16 156 324.23 174.97 331.53 181.68 330.35 191.58 307.02 189.34 301.61 160.01 285.47 147.75 287.7 146.22 323.16"/><polygon class="cls-18" points="193.7 300.9 191.58 307.02 209.48 332.23 215.61 333.65 233.99 325.75 233.99 293.6 224.33 276.4 220.91 278.87 193.7 300.9"/><polygon class="cls-13" points="255.54 352.73 240.11 355.56 233.99 351.91 226.56 328.93 228.92 323.52 233.99 322.81 251.66 330.7 257.78 348.72 255.54 352.73"/><polygon class="cls-9" points="258.85 367.1 249.66 332.94 253.78 328.58 260.49 332.23 266.38 340.48 258.85 367.1"/><polygon class="cls-9" points="287.59 303.02 275.69 303.37 266.74 311.03 295.12 330.82 287.59 303.02"/><polygon class="cls-4" points="260.26 293.71 287.59 303.02 256.25 315.04 254.49 299.13 260.26 293.71"/><polygon class="cls-9" points="231.28 274.28 237.99 285.47 248.36 309.5 256.25 315.04 260.26 293.71 244.47 266.74 239.87 266.85 233.4 269.8 231.28 274.28"/><polygon class="cls-19" points="222.21 259.08 244.47 266.74 231.28 274.28 227.74 273.57 223.5 270.27 222.21 259.08"/><polygon class="cls-7" points="222.79 281.7 191.58 307.02 160.24 288.17 163.3 285.11 217.61 279.81 222.79 281.7"/><polygon class="cls-13" points="159.41 264.85 155.88 271.33 154.47 284.64 157.89 288.3 169.43 287.7 174.97 276.75 168.49 264.38 159.41 264.85"/><polygon class="cls-13" points="195.46 262.73 190.4 275.69 198.88 285.58 222.44 281.7 224.33 278.64 215.02 261.2 195.46 262.73"/><polygon class="cls-4" points="172.49 205.12 167.07 221.74 160.59 248 156.94 262.38 185.92 258.37 188.4 255.9 184.75 235.4 179.68 226.8 182.15 217.02 172.49 205.12"/><polygon class="cls-4" points="221.02 179.56 218.55 184.63 205.01 220.55 191.93 228.21 192.52 246.36 188.4 255.9 190.75 258.25 215.02 261.2 222.21 259.08 216.67 251.54 220.08 243.53 217.49 226.8 222.09 221.97 224.91 186.04 221.02 179.56"/><polygon class="cls-18" points="159.77 259.79 157.3 263.08 159.18 268.86 166.13 268.15 198.64 265.2 213.13 264.15 219.97 263.08 222.21 259.08 188.4 255.9 172.73 258.02 159.77 259.79"/><polygon class="cls-13" points="220.08 243.53 222.21 259.08 195.7 248.83 199.94 242.94 207.01 237.99 220.08 243.53"/><polygon class="cls-13" points="184.75 235.4 187.22 227.51 199.47 226.8 204.3 235.17 199.71 243.17 192.52 246.36 184.75 235.4"/><polygon class="cls-8" points="207.01 237.99 204.3 235.17 192.52 246.36 195.7 248.83 207.01 237.99"/><polygon class="cls-11" points="160.59 238.46 165.43 236.34 170.49 227.74 174.38 211.25 178.26 209.25 180.97 199.94 180.74 187.22 177.09 183.92 171.31 184.98 160.59 238.46"/><polygon class="cls-13" points="177.09 183.92 177.44 201 186.39 204.77 195.58 197.7 193.93 180.97 177.09 183.92"/><polygon class="cls-20" points="175.91 227.04 184.75 235.4 191.93 228.21 201.24 229.87 205.01 220.55 198.06 211.96 199.59 201.71 195.58 197.7 186.28 201.35 177.44 198.53 174.38 211.25 178.15 217.73 175.91 227.04"/><polygon class="cls-13" points="178.15 206.54 181.44 227.51 197 223.03 193.34 203.24 188.4 204.3 186.63 206.77 184.04 205.36 178.15 206.54"/><polygon class="cls-8" points="184.63 210.78 184.04 205.36 188.4 204.3 189.57 210.07 184.63 210.78"/><polygon class="cls-11" points="251.66 183.57 221.02 179.56 218.55 184.63 217.49 226.8 243.06 253.54 246 229.51 251.66 183.57"/><polygon class="cls-11" points="287.47 209.01 270.74 206.54 253.42 240.11 278.64 250.24 282.52 246.24 278.99 231.75 287.23 216.67 287.47 209.01"/><polygon class="cls-9" points="296.19 258.61 289.35 233.75 283.58 229.16 273.81 232.22 279.69 255.07 296.19 258.61"/><polygon class="cls-19" points="273.81 232.22 289.35 233.75 297.25 222.32 298.77 213.49 295.95 210.19 287.47 209.01 273.81 232.22"/><polygon class="cls-10" points="304.2 209.6 301.6 208.42 295.95 210.19 296.07 225.15 302.66 226.21 307.02 216.32 304.2 209.6"/><polygon class="cls-16" points="304.2 209.6 302.08 232.34 317.86 235.75 322.22 227.62 320.34 205.48 311.03 205.48 304.2 209.6"/><polygon class="cls-12" points="326.11 230.34 317.86 235.75 315.74 208.78 320.34 205.48 328.7 211.96 329.76 225.27 326.11 230.34"/><polygon class="cls-13" points="295.95 210.19 323.87 208.31 328.7 211.96 332.23 207.72 314.91 198.65 308.91 199.12 295.95 210.19"/><polygon class="cls-15" points="332.23 207.72 323.87 208.31 326.46 240.11 329.76 241.17 334.7 238.93 332.23 207.72"/><polygon class="cls-13" points="310.68 246.94 326.46 240.11 334.7 238.93 318.22 254.13 310.68 246.94"/><polygon class="cls-15" points="146.22 323.16 142.33 350.61 152.7 355.56 155.88 350.26 159.3 326.23 156.35 320.22 146.22 323.16"/><polygon class="cls-13" points="181.68 330.35 156.35 320.22 152.7 355.56 181.09 354.97 181.68 330.35"/><polygon class="cls-15" points="209.48 332.23 217.02 356.27 240.11 355.56 228.92 323.52 209.48 332.23"/><polygon class="cls-20" points="172.73 258.02 168.49 267.91 171.9 276.98 169.43 287.7 177.32 295.72 184.15 290.29 192.75 294.18 198.88 285.58 193.46 275.69 195.7 265.44 188.4 255.9 181.21 262.26 172.73 258.02"/><polygon class="cls-13" points="173.91 268.5 188.63 267.09 191.1 286.17 175.67 287.23 174.97 279.58 176.26 277.34 174.49 274.98 173.91 268.5"/><polygon class="cls-8" points="179.44 274.39 174.49 274.98 174.97 279.58 180.15 279.46 179.44 274.39"/><polygon class="cls-19" points="229.98 296.19 231.98 289 237.99 285.47 244.83 286.53 266.38 340.48 228.92 323.52 229.98 296.19"/><polygon class="cls-4" points="222.21 259.08 213.13 264.15 229.98 296.19 244.83 286.53 222.21 259.08"/><polygon class="cls-9" points="121.37 242.59 136.8 226.8 141.86 225.98 149.05 229.98 150.11 233.63 135.74 247.65 121.37 242.59"/><polygon class="cls-19" points="140.92 202.53 136.8 226.8 150.11 233.63 150.82 208.42 140.92 202.53"/><polygon class="cls-11" points="170.49 227.74 160.24 288.17 133.26 296.89 160.59 238.46 170.49 227.74"/><polygon class="cls-5" points="153.41 190.05 149.99 204.65 158.24 204.42 153.41 190.05"/><polygon class="cls-21" points="152.11 180.86 148.34 186.28 153.41 190.05 157.3 185.22 152.11 180.86"/><polygon class="cls-4" points="155.41 176.26 152.11 180.86 147.52 178.15 145.99 159.53 149.87 154.59 154.79 159.37 154.7 167.19 155.41 176.26"/><polygon class="cls-21" points="148.34 144.81 144.22 150.23 149.87 154.59 153.41 149.17 148.34 144.81"/><polygon class="cls-1" points="145.87 84.38 143.28 112.29 144.22 141.51 148.34 144.81 152.7 140.8 155.41 134.21 152.82 92.74 145.87 84.38"/><polygon class="cls-12" points="182.39 169.19 187.45 182.62 195.58 197.7 218.55 184.63 222.56 181.09 227.51 158.94 212.66 165.9 186.16 164.36 182.39 169.19"/><polygon class="cls-16" points="224.91 94.86 217.85 101.34 208.54 161.65 213.02 165.78 223.38 167.9 218.55 184.63 226.21 180.27 234.22 163.19 229.63 99.22 224.91 94.86"/><polygon class="cls-10" points="155.41 87.32 148.81 91.09 148.34 144.81 156.72 158.89 160.01 163.19 205.83 165.54 211.65 161.8 220.08 146.46 224.91 94.86 214.78 89.44 155.41 87.32"/><polygon class="cls-1" points="173.32 164.36 168.25 168.13 174.26 184.51 179.91 169.08 173.32 164.36"/><polygon class="cls-1" points="186.16 164.36 193.34 170.02 187.22 182.15 179.91 169.08 186.16 164.36"/><polygon class="cls-5" points="156.72 158.89 213 161.87 216.43 164.13 205.65 171.16 160.97 167.65 156.72 158.89"/><polygon class="cls-1" points="229.63 146.46 211.65 161.8 205.65 171.16 222.09 172.34 229.63 146.46"/><polygon class="cls-5" points="172.49 204.42 169.78 192.87 174.26 184.51 177.32 192.52 172.49 204.42"/><polygon class="cls-5" points="183.33 190.05 187.22 182.15 191.46 190.16 186.28 201.35 183.33 190.05"/><polygon class="cls-16" points="154.47 104.87 164.13 110.65 170.25 130.67 175.44 118.77 174.14 111.35 173.79 107.94 164.6 100.87 154.47 104.87"/><polygon class="cls-16" points="182.39 111.47 180.03 118.19 185.1 130.67 195.35 112.29 209.13 105.34 198.17 101.69 183.68 108.06 182.39 111.47"/><polygon class="cls-1" points="163.3 99.45 154.47 104.87 163.07 102.99 173.79 107.94 173.08 103.46 163.3 99.45"/><polygon class="cls-1" points="185.22 103.46 183.57 108.41 200.29 103.46 209.6 105.46 199.94 99.45 185.22 103.46"/><polygon class="cls-12" points="178.15 136.33 170.25 130.67 177.21 127.73 185.1 130.67 178.15 136.33"/><polygon class="cls-22" points="174.14 111.35 182.39 111.47 185.1 130.67 170.25 130.67 174.14 111.35"/><polygon class="cls-12" points="171.08 151.05 185.92 151.05 189.69 146.93 188.63 144.81 186.39 145.52 184.04 147.99 171.08 147.99 171.08 151.05"/><polygon class="cls-5" points="163.3 145.16 163.89 150.46 178.62 141.98 197.59 150.46 197.94 144.81 178.15 136.33 163.3 145.16"/><polygon class="cls-5" points="143.87 221.38 140.69 228.68 147.28 232.1 149.17 223.85 146.34 220.68 143.87 221.38"/><polygon class="cls-5" points="135.03 181.68 134.09 188.4 138.09 193.46 141.16 181.92 138.33 180.03 135.03 181.68"/><polygon class="cls-1" points="142.69 177.32 141.16 181.92 143.87 221.38 149.17 223.85 147.52 178.15 142.69 177.32"/><polygon class="cls-5" points="139.27 132.44 147.52 178.15 141.16 181.92 138.33 180.03 135.62 153.41 139.27 132.44"/><polygon class="cls-5" points="133.5 131.73 135.62 153.41 135.03 181.68 124.78 141.04 121.95 124.55 127.85 128.55 133.5 131.73"/><polygon class="cls-1" points="134.56 129.61 130.44 133.38 135.03 181.68 141.16 181.92 139.27 132.44 134.56 129.61"/><polygon class="cls-1" points="117.12 123.61 122.19 122.55 124.31 129.02 135.03 181.68 117.12 123.61"/><polygon class="cls-5" points="146.81 63.41 141.63 66.12 117.12 123.61 124.31 129.02 135.5 106.29 149.64 66.71 146.81 63.41"/><polygon class="cls-1" points="124.31 129.02 130.44 133.38 141.51 108.88 147.64 66.59 124.31 129.02"/><polygon class="cls-1" points="240.11 95.21 246.59 119.6 244.94 139.86 241.29 144.22 236.7 142.57 232.34 137.74 229.63 99.22 230.34 93.21 235.75 91.09 240.11 95.21"/><polygon class="cls-5" points="228.57 91.68 224.91 94.86 229.63 146.46 233.04 146.93 236.7 142.57 231.98 94.86 228.57 91.68"/><polygon class="cls-1" points="236.7 180.39 236.7 142.57 229.63 146.46 230.92 178.74 234.22 180.62 236.7 180.39"/><polygon class="cls-5" points="229.16 208.78 236.81 180.5 230.92 178.74 224.68 210.19 227.86 213.61 229.16 208.78"/><polygon class="cls-1" points="225.15 221.02 224.68 210.19 229.16 208.78 232.81 219.38 225.15 221.02"/><polygon class="cls-21" points="240.58 155.06 236.58 149.28 241.29 144.22 245.88 150.23 240.58 155.06"/><polygon class="cls-21" points="239.76 193.7 235.99 188.87 240.23 183.57 245.06 190.05 239.76 193.7"/><polygon class="cls-1" points="239.76 193.7 240.58 204.77 247.3 203.47 239.76 193.7"/><polygon class="cls-5" points="243.88 90.5 240.11 95.21 244.94 139.86 245.88 150.23 256.13 155.06 262.49 151.88 256.72 119.83 250.24 93.92 243.88 90.5"/><polygon class="cls-1" points="252.01 92.15 248.36 95.57 257.78 150.23 267.56 148.81 269.8 145.63 263.79 118.19 257.55 94.04 252.01 92.15"/><polygon class="cls-5" points="259.19 92.15 255.9 95.92 267.56 148.81 274.04 146.46 270.98 114.42 265.79 94.51 259.19 92.15"/><polygon class="cls-1" points="265.32 93.21 263.79 96.27 274.04 146.46 279.11 132.32 268.38 96.51 265.32 93.21"/><polygon class="cls-5" points="251.19 211.72 256.6 189.57 260.96 194.88 255.19 212.31 253.54 214.9 251.19 211.72"/><polygon class="cls-1" points="247.06 220.44 251.19 211.72 255.19 212.31 253.78 223.5 247.06 220.44"/><polygon class="cls-1" points="257.31 148.34 255.66 160.12 256.37 190.16 267.56 148.81 257.31 148.34"/><polygon class="cls-5" points="257.31 148.34 249.77 150.82 256.6 189.57 257.31 148.34"/><polygon class="cls-7" points="305.85 70.36 266.26 85.08 257.19 77.54 266.85 59.76 290.06 63.41 305.85 70.36"/><polygon class="cls-21" points="222.44 55.87 258.72 59.05 262.85 67.18 268.38 96.51 148.81 91.09 145.87 84.38 150.82 66.82 165.07 59.76 171.31 60.93 176.38 70.47 222.44 55.87"/><polygon class="cls-5" points="152.35 63.41 147.64 66.59 130.44 133.38 139.27 132.44 155.41 67.18 152.35 63.41"/><polygon class="cls-11" points="126.2 25.36 110.06 52.57 141.63 66.12 142.69 54.81 133.85 33.01 126.2 25.36"/><polygon class="cls-9" points="161.77 7.69 126.2 25.36 141.63 66.12 169.19 68.24 171.31 60.93 159.77 48.45 170.96 29.13 171.31 17.82 161.77 7.69"/><polygon class="cls-4" points="198.41 2.62 171.31 17.82 170.25 47.15 178.97 45.97 183.57 31.95 211.72 6.98 198.41 2.62"/><polygon class="cls-9" points="286.17 35.72 305.85 70.36 262.85 67.18 258.72 59.05 279.46 37.96 286.17 35.72"/><polygon class="cls-11" points="221.38 62.94 217.85 60.11 223.38 10.75 230.1 0.97 286.17 35.72 262.85 67.18 221.38 62.94"/><polygon class="cls-9" points="183.09 16.17 230.1 0.97 221.38 62.94 211.72 60.7 183.57 31.95 183.09 16.17"/><polygon class="cls-7" points="153.88 49.27 171.31 17.82 176.38 36.19 170.25 47.15 153.88 49.27"/><polygon class="cls-11" points="183.09 16.17 221.38 62.94 173.32 76.95 153.88 49.27 176.38 36.19 183.09 16.17"/><polygon class="cls-13" points="67.53 250 98.98 196.17 104.05 201.24 72.01 250.71 67.53 250"/><polygon class="cls-2" points="163.19 225.62 170.49 227.74 160.59 238.46 156.59 247.06 140.22 243.17 150.11 233.63 160.59 238.46 163.19 225.62"/><polygon class="cls-2" points="221.38 62.94 268.38 96.51 262.85 67.18 221.38 62.94"/><polygon class="cls-2" points="222.44 281.7 229.98 296.19 228.92 323.52 252.6 343.89 249.66 332.94 228.92 323.52 222.44 281.7"/><polygon class="cls-2" points="147.05 302.9 160.24 288.17 147.64 292.3 147.05 302.9"/><polygon class="cls-2" points="246 229.51 217.49 226.8 243.06 253.54 246 229.51 273.81 232.22 278.64 250.24 253.42 240.11 246 229.51"/><polygon class="cls-20" points="293.95 122.78 308.44 128.55 288.64 96.16 293.95 122.78"/><path class="cls-3" d="M163.89,109.11a3.78,3.78,0,1,1-3.53,3.78A3.67,3.67,0,0,1,163.89,109.11Z"/><path class="cls-3" d="M195.35,109.94a3.78,3.78,0,1,1-3.54,3.77A3.66,3.66,0,0,1,195.35,109.94Z"/></g><rect class="cls-23" x="0.5" y="0.5" width="399" height="399"/></g></svg>