<svg id="Layer_1" data-name="Layer 1" xmlns="http://www.w3.org/2000/svg" viewBox="0 0 400 400"><defs><style>.cls-1{fill:#805e4f;}.cls-1,.cls-10,.cls-2,.cls-3,.cls-6,.cls-7,.cls-9{fill-rule:evenodd;}.cls-2{fill:#51362a;}.cls-24,.cls-3{fill:#593e35;}.cls-4{fill:#f4cab2;}.cls-10,.cls-5{fill:#c18f7c;}.cls-6{fill:#98796a;}.cls-7{fill:#33231b;}.cls-8,.cls-9{fill:#fbe3d4;}.cls-11{fill:#2b2c2b;opacity:0.1;}.cls-12{fill:#95637c;}.cls-13{fill:#734d61;}.cls-14{fill:#795d88;}.cls-15{fill:#a587b8;}.cls-16{fill:#8f759f;}.cls-17{fill:#393939;}.cls-18{fill:#5a5a5a;}.cls-19{fill:#494849;}.cls-20{fill:#d0cecd;}.cls-21{fill:#594265;}.cls-22{fill:#fff0e8;}.cls-23{fill:#2b2b2b;}</style></defs><title>analysts_ENTP_famous_fictional_jim_halpert_the_office</title><polygon class="cls-1" points="258.12 70.78 267.23 86.79 246.71 91.97 238.77 77.26 243.47 75.69 258.12 70.78"/><polygon class="cls-2" points="249.85 98.85 257.83 119.77 233.83 117.92 240.67 89.41 249.85 98.85"/><path class="cls-3" d="M248.08,73.49l2.84,9.12,10.81,20.85-17.44.13s-6.76-17.25-8.45-17.33S248.08,73.49,248.08,73.49Z"/><polygon class="cls-4" points="193.34 144.69 188.03 157.4 235.11 147.72 243.47 104.07 225.12 45.71 190.96 77.19 193.34 144.69"/><polyline class="cls-5" points="245.86 93.67 243.47 104.07 230.9 90.67 245.86 82.61 245.86 93.67"/><polygon class="cls-1" points="235 21.66 256.45 26.1 264.58 52.93 258.12 70.78 232.87 55.71 222.94 31.24 235 21.66"/><polygon class="cls-6" points="214.43 14.92 233.58 10.85 256.45 26.1 235.17 40.28 192.61 44.54 214.43 14.92"/><polygon class="cls-7" points="190.96 6.29 224.53 3 233.58 10.85 207.52 31.65 171.87 43.31 190.96 6.29"/><polygon class="cls-6" points="157.32 24.86 137.99 21.93 170.88 0 224.53 3 157.32 24.86"/><polygon class="cls-1" points="141.72 33.01 137.99 21.93 224.53 3 188 23.26 158.92 52.87 141.72 33.01"/><polygon class="cls-3" points="162.29 45.78 157.07 38.7 188 23.26 207.52 31.65 210.21 37.4 189.42 55.89 162.29 45.78"/><polygon class="cls-7" points="138.7 63.69 131.79 76.28 147.93 76.46 152 61.92 138.7 63.69"/><polygon class="cls-3" points="139.94 51.1 129.48 66.35 146.27 68.55 139.94 51.1"/><polygon class="cls-1" points="141.01 37.8 131.61 45.6 146.38 76.44 171.26 52.87 141.01 37.8"/><polygon class="cls-6" points="162.29 45.78 157.07 38.7 137.99 21.93 131.61 45.6 146.13 51.74 162.29 45.78"/><polygon class="cls-3" points="208.75 45.43 207.52 31.65 235.17 40.28 258.12 70.78 244.71 70.44 229.39 60.83 223.34 52.87 208.75 45.43"/><polygon class="cls-7" points="253 86.62 243.42 82.71 241.55 78.96 226.86 75.93 226.46 56.98 258.12 70.78 253 86.62"/><polygon class="cls-5" points="174.03 125.62 191.18 157.4 215.75 157.4 225.02 137.32 200.04 137.37 174.03 125.62"/><polygon class="cls-8" points="146.95 115.38 167.93 136.39 200.04 137.37 220.35 115.9 223.34 52.87 207.52 31.65 157.07 38.7 146.13 51.74 146.13 59.12 146.95 115.38"/><polygon class="cls-9" points="233.83 70.01 249.94 73.15 245.86 93.67 230.9 90.67 233.83 70.01"/><polygon class="cls-10" points="237.62 75.41 235.92 84.51 243.76 76.79 237.62 75.41"/><polygon class="cls-11" points="112.46 387 199.86 372.45 287.54 391.96 199.71 400 112.46 387"/><polygon class="cls-12" points="199.71 301.78 190.97 331.07 170.67 336.59 156.44 326.04 156.78 278.45 172.75 256.15 199.71 301.78"/><polygon class="cls-12" points="199.71 298.65 210.88 331.07 230.67 354.03 246.32 332.25 247.73 284.11 234.93 254.75 199.71 298.65"/><polygon class="cls-13" points="199.71 301.78 156.75 281.22 156.75 264.68 177.02 243.25 248.5 267.43 247.73 284.11 199.71 301.78"/><polygon class="cls-14" points="161.02 161.1 132.52 211.73 158.99 223.48 167.28 214.92 161.02 161.1"/><polygon class="cls-15" points="179.34 154.56 175.96 174.23 158.99 214.92 157 256.15 170.9 264.15 200.16 260.56 217.18 254.99 204.28 155.32 179.34 154.56"/><polygon class="cls-15" points="179.34 154.56 161.02 161.1 158.99 214.92 202.63 205.26 204.28 155.32 179.34 154.56"/><polygon class="cls-16" points="235.18 156.49 261.02 166.58 249.3 258.43 234.93 265.54 201.17 261.97 204.28 155.32 221.23 161.12 235.18 156.49"/><polygon class="cls-17" points="157 256.15 249.3 258.43 248.5 267.43 156.75 264.68 157 256.15"/><polygon class="cls-16" points="238.02 154.12 261.02 166.58 253.93 218.14 204.64 206.72 204.28 155.32 221.23 161.12 238.02 154.12"/><polygon class="cls-13" points="210.88 331.07 246.32 332.25 245.36 370.37 234.93 371.76 221.55 367.23 210.88 331.07"/><polygon class="cls-13" points="156.44 326.04 190.97 331.07 180.2 371.76 167.96 370.43 156.17 360.97 156.44 326.04"/><polygon class="cls-18" points="221.55 367.23 215.53 386.73 232.53 389.47 247.73 386.73 245.36 370.37 221.55 367.23"/><rect class="cls-19" x="215.53" y="386.73" width="32.2" height="5.48"/><polygon class="cls-19" points="179.71 384.9 168.07 384.9 167.32 380.98 153.91 384.9 132.6 384.9 132.6 379.42 156.4 376.41 179.71 379.42 179.71 384.9"/><polygon class="cls-18" points="156.17 360.97 132.6 379.42 162.43 379.42 179.71 379.42 180.2 371.76 156.17 360.97"/><polygon class="cls-14" points="235.7 144.62 238.02 154.12 222.29 174.65 204.28 155.32 184.93 173.36 179.34 154.56 184.73 145.46 204.28 155.32 235.7 144.62"/><polygon class="cls-20" points="193.34 257.05 193.34 264.64 206.24 264.92 206.24 257.36 193.34 257.05"/><polygon class="cls-16" points="167.64 191.68 132.52 211.73 158.17 231.79 177.62 214.86 176.91 197 167.64 191.68"/><polygon class="cls-5" points="183.37 181.29 167.64 191.68 180.33 212.53 195.96 198.91 195.25 181.06 183.37 181.29"/><polygon class="cls-21" points="173.06 186.36 156.08 191.05 178.26 221.04 187.39 207.35 173.06 186.36"/><polygon class="cls-8" points="193.88 176.28 187.09 162.33 204.28 155.32 217.18 169.16 207.7 181.76 193.88 176.28"/><polygon class="cls-4" points="183.37 181.29 187.09 162.33 207.7 181.76 195.96 198.91 183.37 181.29"/><polygon class="cls-4" points="170.52 65.01 174.35 68.11 177.9 70.35 181.33 74.83 183.04 70.35 187.79 68.11 193.19 64.48 206.24 63.37 211.77 66.26 200.83 74.83 190.42 94.46 178.03 86.29 170.52 94.46 161.17 75.49 151.68 66.53 159.32 63.37 170.52 65.01"/><polygon class="cls-5" points="179.88 87.35 170.52 94.46 180.47 100.26 190.42 94.46 179.88 87.35"/><polygon class="cls-22" points="177.9 70.35 183.04 70.35 185.15 82.74 190.42 94.46 170.52 94.46 176.29 82.99 177.9 70.35"/><path class="cls-23" d="M202,73.25a3.76,3.76,0,1,1-3.76-3.75A3.76,3.76,0,0,1,202,73.25Z"/><circle class="cls-23" cx="164.2" cy="74.1" r="3.76"/><polygon class="cls-5" points="164.99 107.25 170.52 109.49 194.45 109.49 200.83 105.93 201.96 108.43 194.45 112.39 170 112.39 164.2 109.16 164.99 107.25"/><polygon class="cls-4" points="166.7 98.68 157.35 110.14 158.14 101.58 166.7 98.68"/><polygon class="cls-4" points="198.99 98.68 208.87 110.14 207.29 100.26 198.99 98.68"/><polygon class="cls-24" points="187.79 68.11 187.79 62.05 202.81 60.86 211.77 63.37 211.77 66.26 202.41 64.48 187.79 68.11"/><polygon class="cls-24" points="174.35 68.11 174.35 61.92 159.85 61.92 150.76 64.48 151.68 66.53 161.04 65.01 174.35 68.11"/><polygon class="cls-15" points="261.02 166.58 264.4 218.14 232.65 236.81 211.32 204.78 233.31 203.7 261.02 166.58"/><polygon class="cls-14" points="233.95 202.84 215.19 201.12 205.77 206.28 213.69 226.94 232.65 236.81 233.95 202.84"/><polygon class="cls-21" points="215.19 201.12 203.69 199.82 195.19 197.54 202.38 220.54 213.69 226.94 215.19 201.12"/><polygon class="cls-8" points="202.81 199.59 189.09 189.3 188.07 215.84 202.38 220.54 202.81 199.59"/><polygon class="cls-4" points="175.29 189.63 189.09 189.3 188.07 215.84 172.29 208.25 175.29 189.63"/></svg>