<svg id="Layer_1" data-name="Layer 1" xmlns="http://www.w3.org/2000/svg" viewBox="0 0 400 400"><defs><style>.cls-1{fill:none;}.cls-2,.cls-28{fill:#2b2b2b;}.cls-2{fill-opacity:0.15;}.cls-3{fill:#95637c;}.cls-4{fill:#734d60;}.cls-5{fill:#543042;}.cls-6{fill:#434848;}.cls-7{fill:#383838;}.cls-8{fill:#6c6d6d;}.cls-9{fill:#f4c9b2;}.cls-10{fill:#785d87;}.cls-11{fill:#8f759f;}.cls-12{fill:#fff;}.cls-13{fill:#a587b9;}.cls-14{fill:#000002;fill-opacity:0.1;}.cls-15{fill:#b2879c;}.cls-16{fill:#eaeceb;}.cls-17{fill:#c1907d;}.cls-18{fill:#808181;}.cls-19{fill:#8b8a8a;}.cls-20{fill:#9c9fa0;}.cls-21{fill:#a8a8a9;}.cls-22{fill:#cdcccb;}.cls-23{fill:#fce3d4;}.cls-24{fill:#c4c4c3;}.cls-25{fill:#d6d7d6;}.cls-26{fill:#ffefe7;}.cls-27{fill:#33231b;}.cls-29{fill:#dddddc;}.cls-30{fill:#ebebea;}</style></defs><title>analysts_ENTP_famous_real_mark_twain</title><g id="Layer_1-2" data-name="Layer_1"><rect class="cls-1" x="152" y="152" width="96" height="96"/></g><g id="illustration_layer_copy_2" data-name="illustration layer_copy_2"><g id="_869243280" data-name=" 869243280"><polygon class="cls-2" points="133.06 386.87 235.89 377.61 335.53 388.46 233.62 399.5 133.06 386.87"/><polygon class="cls-3" points="242.28 370.83 235.57 391.29 237.51 394.82 270.22 396.49 271.57 392.89 265.29 371.79 254.79 356.47 242.28 370.83"/><polygon class="cls-4" points="211.13 357.27 197.72 363.98 173 383.75 174.58 386.97 199.13 385.95 219.05 386.75 220.69 383.39 221.43 367.3 211.13 357.27"/><polygon class="cls-5" points="173 383.75 173.1 388.39 220.85 388.29 220.84 383.46 173 383.75"/><polygon class="cls-6" points="206.41 326.06 190.69 330.2 197.72 363.98 221.43 367.3 226.98 336.75 206.41 326.06"/><polygon class="cls-7" points="260.59 308.07 273.57 331.51 265.29 371.79 242.28 370.83 236.78 337.7 260.59 308.07"/><polygon class="cls-6" points="205.07 295.52 232.01 309.02 236.78 337.7 273.57 331.51 281.87 291.24 252.66 260.64 213.26 280.93 205.07 295.52"/><polygon class="cls-8" points="200.96 271.6 179.24 275.13 190.69 330.2 226.98 336.75 232.01 309.02 220.32 270.47 200.96 271.6"/><polygon class="cls-7" points="232.01 309.02 247.5 302.51 269.45 278.21 222.35 261.04 205.23 293.38 232.01 309.02"/><polygon class="cls-4" points="235.57 391.29 271.57 392.89 271.57 398.24 235.57 396.65 235.57 391.29"/><polygon class="cls-9" points="121.34 171.27 115.54 179.65 100.66 169.25 114.96 156.32 121.34 171.27"/><polygon class="cls-9" points="128.44 170.14 135.16 170.08 127.81 153.89 105.43 142.22 102.69 146.33 113.64 156.56 128.44 170.14"/><polygon class="cls-10" points="205.79 191.96 188.54 163.56 152.56 194.08 150.15 211.16 169.94 218.09 183.03 214.69 207.1 205.05 205.89 192.57 205.79 191.96"/><polygon class="cls-10" points="286.49 173.35 272.96 165.87 201.21 218.38 218.26 278.03 247.5 302.51 281.87 291.24 283.6 274.52 292.36 213.14 286.49 173.35"/><polygon class="cls-11" points="201.12 164.05 197.06 160.82 188.54 163.56 179.24 275.13 205.23 293.38 218.26 278.03 216.11 221.63 201.12 164.05"/><path class="cls-12" d="M258.71,176.6l-42.6,45s-11.25-50.78-12.19-51.1S258.71,176.6,258.71,176.6Z"/><polygon class="cls-13" points="208.71 170.24 216.11 221.63 192.38 185.23 197.06 160.82 207.96 157.31 208.71 170.24"/><polygon class="cls-13" points="262.05 161.01 272.96 165.87 267.03 193.87 216.11 221.63 245.15 159.6 262.05 161.01"/><path class="cls-14" d="M240.91,186.21l3.25,8.63-1.61,3.77-22.34-15.17L198.81,185l-.69-2.5s16-8.56,15.85-9.17,26.94,12.91,26.94,12.91Z"/><polygon class="cls-15" points="221.71 176.7 225.19 181.56 244.16 194.84 246.6 184.7 231.06 169.35 215.68 170.91 221.71 176.7"/><path class="cls-15" d="M208.71,168.85,201,175.32l-2.92,7.15,16.27-3.67s10.3-9.72,10.45-9.08-16.12-.88-16.12-.88Z"/><polygon class="cls-3" points="228.56 169.64 201 175.33 209.02 154.53 227.53 162.09 228.56 169.64"/><polygon class="cls-3" points="222.06 171.95 246.6 184.7 252.84 161.55 222.43 165.48 222.06 171.95"/><polygon class="cls-16" points="211.47 136.83 190.46 147.42 222.43 165.48 211.47 136.83"/><polygon class="cls-16" points="223.26 147.42 222.43 165.48 272.96 165.87 270.3 153.02 230.38 144.59 223.26 147.42"/><polygon class="cls-17" points="197.12 120.19 222.43 165.48 234.64 147.94 270.3 153.02 224.46 116.39 197.12 120.19"/><path class="cls-9" d="M247.13,136.67l4.93,8.16L270.3,153l43.08-51.64s-33.3-50.72-34.18-52.84S245,108.47,245,108.47l2.11,28.18Z"/><polygon class="cls-17" points="286.86 114.23 274.51 113.42 285.21 129.5 291.82 126.98 292.54 117.98 286.86 114.23"/><polygon class="cls-18" points="299.01 125.92 313.65 139.23 270.3 153.02 282.79 131.53 299.01 125.92"/><polygon class="cls-19" points="307 89.06 326.97 105.92 313.65 139.23 282.79 131.53 293.71 112.71 307 89.06"/><polygon class="cls-20" points="317.43 66.2 323.65 82.85 326.97 105.92 293.71 112.71 282.42 106.78 277.38 79.24 317.43 66.2"/><path class="cls-21" d="M307.88,36.45,330.52,48l-6.89,34.85-46.28-3.61s-31.07-22.7-31.19-20.59S302.54,36,302.54,36l5.33.45Z"/><polygon class="cls-22" points="250.84 12.93 295.9 0.5 330.53 48 261.88 58.83 220.21 29.79 250.84 12.93"/><polygon class="cls-16" points="215.32 27.13 194.46 20.25 230.43 4.93 295.9 0.5 238.09 25.52 215.32 27.13"/><polygon class="cls-20" points="203.78 26.47 197.57 28.75 183.37 49.77 199.12 71.08 206.23 29.79 203.78 26.47"/><polygon class="cls-21" points="233.09 36.45 238.09 25.52 194.46 20.25 201.8 40.29 233.09 36.45"/><polygon class="cls-23" points="201.8 40.29 180.37 118.97 252.06 144.83 277.38 79.24 261.88 58.83 238.09 25.52 201.8 40.29"/><path class="cls-9" d="M238.09,62.15l-4.66,1.66-5.16,2.89-7.71,3.43,1.34-4.64-1-4.68s-9.13-8-8.65-8.77-10.1,1.89-10.1,1.89l5.13,11.36L209,85.88l6.38-2,6,5.44,19.27-13.42L260,73.24l-7.66-9.77L238.1,62.14h0ZM189.91,107.1h0l-7.77,5.34-1,3.54,13.18-3,24.19,6.16,15.94,15.81.38-2.72-14.31-21.75Z"/><polygon class="cls-24" points="195.46 97.33 192.8 94.56 182.16 112.42 195.57 109.31 195.46 97.33"/><polygon class="cls-24" points="226.64 104.44 231.2 104.88 234.86 132.17 221.32 115.98 226.64 104.44"/><polygon class="cls-25" points="216 87.24 221.27 89.33 231.2 104.88 221.32 115.97 195.57 109.33 192.8 94.56 208.94 85.88 216 87.24"/><polygon class="cls-19" points="213.89 85.97 208.94 85.88 214.1 90.87 221.27 89.33 213.89 85.97"/><polygon class="cls-21" points="265.14 72.52 257.66 56.46 233.51 57.35 233.41 63.81 251.5 65.15 259.93 73.24 265.14 72.52"/><polygon class="cls-21" points="220.88 60.81 224.77 56.23 215.19 46.17 201.38 49.3 202.12 53.95 211.11 53.72 220.88 60.81"/><polygon class="cls-26" points="228.25 66.7 222.24 64.97 213.13 76.79 208.94 85.88 221.27 89.33 223.06 79.85 228.25 66.7"/><polygon class="cls-27" points="225.19 181.56 214.37 178.81 222.43 165.48 225.19 181.56"/><path class="cls-28" d="M208.62,62.41a3.82,3.82,0,1,1-3.83,3.82A3.83,3.83,0,0,1,208.62,62.41Z"/><path class="cls-28" d="M239.18,72.16A3.83,3.83,0,1,1,235.37,76,3.83,3.83,0,0,1,239.18,72.16Z"/><polygon class="cls-23" points="289.5 119.97 274.51 113.42 285.41 88.35 302.96 96.78 289.5 119.97"/><polygon class="cls-17" points="297.13 99.86 287.38 95.3 281.62 107.46 297.13 99.86"/><polygon class="cls-11" points="103.64 158.45 127.81 153.89 129.95 158.6 111.17 163.43 105.06 163.84 103.64 158.45"/><polygon class="cls-10" points="85.65 179.72 103.64 158.45 111.17 163.43 96.84 187.13 87.16 188.7 85.65 179.72"/><polygon class="cls-13" points="75.51 174.01 78.2 166.69 92.9 162.45 96.84 187.13 87.16 193.28 80.81 187.28 75.51 174.01"/><polygon class="cls-11" points="64.46 167.87 71.62 164.01 80.65 173.14 87.16 193.28 77.64 190.41 64.46 167.87"/><polygon class="cls-15" points="64.46 167.87 76.43 161.45 92.9 162.45 80.65 173.14 64.46 167.87"/><polygon class="cls-27" points="69.72 167.43 77.47 163.8 86.67 164.71 79.94 169.58 69.72 167.43"/><polygon class="cls-23" points="135.16 170.08 113.64 156.56 111.17 163.43 115.6 168.64 115.54 179.65 128.13 183.78 135.16 170.08"/><polygon class="cls-11" points="169.94 218.09 138.45 228.41 115.54 179.65 135.16 170.08 169.94 218.09"/><polygon class="cls-4" points="250.39 213.61 248.76 261.54 283.44 276.1 294.84 249.5 285.52 230.45 250.39 213.61"/><polygon class="cls-3" points="318.46 215.5 285.52 230.45 283.44 276.1 316.77 264.56 318.46 215.5"/><polygon class="cls-29" points="259.98 209.84 250.39 213.61 285.52 230.45 289.64 226.28 285.84 223.15 259.98 209.84"/><polygon class="cls-30" points="311.67 212 285.84 223.15 285.52 230.45 318.46 215.5 311.67 212"/><polygon class="cls-11" points="286.49 173.35 304.35 216.96 285.84 223.15 286.49 173.35"/><polygon class="cls-23" points="317.86 232.86 306.4 239.4 304.46 259.01 316.88 261.69 320.59 250 317.86 232.86"/><polygon class="cls-9" points="324.2 252.34 317.86 232.86 316.88 261.69 324.2 252.34"/></g></g></svg>