<svg id="Layer_1" data-name="Layer 1" xmlns="http://www.w3.org/2000/svg" viewBox="0 0 400 400"><defs><style>.cls-1{fill:#7c4e25;}.cls-2{fill:#9b6534;}.cls-24,.cls-3{fill:#2b2b2b;}.cls-3{fill-opacity:0.1;}.cls-4{fill:#fce3d4;}.cls-5{fill:#50a8a9;}.cls-6{fill:#f4c9b2;}.cls-7{fill:#c1907d;}.cls-8{fill:#cdcdcc;}.cls-9{fill:#ebebea;}.cls-10{fill:#4f5253;}.cls-11{fill:#6f7173;}.cls-12{fill:#3a9fb9;}.cls-13{fill:#474747;}.cls-14{fill:#318ea5;}.cls-15{fill:#27788b;}.cls-16{fill:#369395;}.cls-17{fill:#1c7678;}.cls-18{fill:#72cacb;}.cls-19{fill:#8bdfdb;}.cls-20{fill:#a2a2a2;}.cls-21{fill:#848585;}.cls-22{fill:#af7546;}.cls-23{fill:#cc9262;}.cls-25{fill:#ffefe7;}</style></defs><title>sentinels_ISTJ_famous_fictional_dana_scully_x_files</title><g id="Layer_1-2" data-name="Layer_1"><polygon class="cls-1" points="219.01 152.42 181.4 147.07 167.46 118.05 165.27 83.12 219.01 152.42"/><polygon class="cls-2" points="181.4 147.07 149.95 110.43 154.65 89.03 166.67 83.91 176.7 100.87 173.94 116.92 181.4 147.07"/><polygon class="cls-3" points="210.01 398.91 137.06 383.51 210.01 369 276.96 382.62 210.01 398.91"/><polygon class="cls-4" points="132.44 152.74 147.84 160.12 133.33 165.71 118.5 159.47 132.44 152.74"/><polygon class="cls-5" points="190.48 164.82 162.19 195.06 164.13 211.02 177.43 216.7 186.34 211.02 196.07 170.74 190.48 164.82"/><polygon class="cls-2" points="307.28 96.17 278.5 140.34 269.67 129.89 267.48 89.6 274.29 87.58 290.26 86.36 307.28 96.17"/><polygon class="cls-1" points="278.5 140.34 273.56 89.36 252.08 124.7 251.43 149.75 278.5 140.34"/><polygon class="cls-6" points="214.55 155.82 210.25 171.39 205.39 198.62 242.59 163.36 251.43 149.75 266.18 109.58 261.97 76.23 243 48.75 238.46 61.31 235.62 110.35 212.93 136.13 214.55 155.82"/><polygon class="cls-7" points="134.79 171.39 126.36 176.74 136.82 189.71 142.49 179.65 142.09 174.79 134.79 171.39"/><polygon class="cls-8" points="92.72 171.06 99.21 156.07 111.61 170.17 101.31 183.06 92.72 171.06"/><polygon class="cls-9" points="104.31 163.77 101.31 170.74 105.21 175.84 111.61 170.17 104.31 163.77"/><polygon class="cls-10" points="230.03 385.94 256.29 386.51 247.22 373.3 235.62 370.22 230.03 385.94"/><polygon class="cls-10" points="252.24 353.27 260.35 372.57 256.29 386.51 249.57 369.49 252.24 353.27"/><polygon class="cls-11" points="237.81 355.14 243.32 349.95 252.24 353.27 256.29 386.51 235.62 370.22 237.81 355.14"/><polygon class="cls-12" points="244.06 285.11 249.24 328.55 236.52 334.31 221.28 326.61 205.55 299.61 221.84 287.13 244.06 285.11"/><polygon class="cls-10" points="181.24 381.65 152.71 380.43 166.73 365.6 176.86 371.84 181.24 381.65"/><polygon class="cls-13" points="191.37 381.16 194.69 363.81 185.29 370.62 187.96 381.32 191.37 381.16"/><polygon class="cls-10" points="194.69 363.81 181.24 381.65 181.56 365.92 190.07 351.9 194.69 363.81"/><polygon class="cls-11" points="176.21 350.52 166.73 365.6 181.24 381.65 190.07 351.9 183.34 346.95 176.21 350.52"/><polygon class="cls-12" points="169.16 277.41 173.62 323.28 185.69 330.98 198.01 324.99 205.55 299.61 185.45 281.54 169.16 277.41"/><polygon class="cls-14" points="173.62 323.28 198.01 324.99 190.07 351.9 176.21 350.52 173.62 323.28"/><path class="cls-14" d="M221.28,326.61l16.53,28.53,14.43-1.87-3-24.72S221.28,326.53,221.28,326.61Z"/><polygon class="cls-15" points="193.39 262.9 169.16 277.41 205.55 299.61 244.06 285.11 204.66 263.47 193.39 262.9"/><polygon class="cls-5" points="183.34 247.5 169.16 277.41 169.16 277.41 187.4 279.27 197.85 266.14 204.66 263.47 208.23 249.28 199.96 242.72 183.34 247.5"/><polygon class="cls-16" points="216.82 243.04 197.2 248.88 197.85 266.14 214.55 282.03 244.06 285.11 233.11 252.52 216.82 243.04"/><polygon class="cls-16" points="177.43 216.7 183.34 247.5 200.85 249.28 206.77 242.15 203.2 220.51 196.07 217.27 186.34 211.02 177.43 216.7"/><polygon class="cls-17" points="212.69 212.24 196.07 217.27 197.2 248.88 233.11 252.52 255.32 219.05 244.95 213.45 212.69 212.24"/><polygon class="cls-7" points="250.13 284.78 258.97 274.17 257.99 286.81 251.43 296.37 250.13 284.78"/><polygon class="cls-6" points="249.24 302.62 255.16 286 265.78 285.11 272.34 291.02 263.1 301.97 249.24 302.62"/><polygon class="cls-4" points="258.97 274.17 255.16 286 272.34 291.02 273.8 275.06 266.43 272.06 258.97 274.17"/><polygon class="cls-5" points="259.7 238.34 259.13 265.98 267.64 270.52 275.67 266.95 283.45 234.12 272.58 234.21 259.7 238.34"/><polygon class="cls-18" points="259.13 265.98 275.67 266.95 273.8 275.06 258.97 274.17 259.13 265.98"/><polygon class="cls-18" points="255.32 219.05 259.7 238.34 283.45 234.12 278.91 173.9 261.97 187.11 255.32 219.05"/><polygon class="cls-5" points="245.84 180.55 196.07 217.27 255.32 219.05 278.91 173.9 257.43 155.01 245.84 180.55"/><polygon class="cls-18" points="190.48 164.82 177.43 216.7 196.07 217.27 195.75 178.44 207.74 158.34 190.48 164.82"/><polygon class="cls-18" points="155.3 185.33 177.43 216.7 154 228.21 141.52 200.32 144.6 189.14 155.3 185.33"/><polygon class="cls-19" points="136.82 189.71 142.49 179.65 150.84 179.01 155.3 185.33 141.52 200.32 136.82 189.71"/><polygon class="cls-20" points="128.55 170.74 141.03 168.15 133.9 159.8 113.96 159.39 99.21 156.07 108.45 170.01 128.55 170.74"/><polygon class="cls-21" points="101.31 183.06 108.45 170.01 119.39 168.39 141.03 168.15 142.09 174.79 116.31 178.03 101.31 183.06"/><polygon class="cls-9" points="207.74 158.34 199.96 178.76 196.07 217.27 236.03 180.22 257.43 155.01 251.43 149.75 207.99 193.51 214.55 155.82 207.74 158.34"/><polygon class="cls-19" points="186.99 178.6 207.74 158.34 196.07 217.27 186.99 178.6"/><polygon class="cls-18" points="196.07 217.27 257.43 155.01 256.45 183.22 196.07 217.27"/><polygon class="cls-8" points="233.11 183.22 256.45 183.22 255.32 219.05 230.76 218.32 233.11 183.22"/><polygon class="cls-7" points="204.18 136.05 220.39 166.93 237.81 141.07 215.44 141.15 211.71 133.7 204.18 136.05"/><polygon class="cls-4" points="166.65 82.91 167.17 113.43 195.91 141.15 215.44 141.15 240.81 115.05 244.06 51.54 236.84 33.51 166.16 40.81 166.65 82.91"/><polygon class="cls-7" points="258.08 95.92 266.18 109.58 270.32 98.28 267.56 94.06 258.08 95.92"/><polygon class="cls-4" points="259.29 86.6 258.08 95.92 270.32 98.28 274.29 87.58 259.29 86.6"/><polygon class="cls-5" points="261.06 96.5 267.48 91.75 270.32 98.28 264.97 104.7 261.06 96.5"/><polygon class="cls-22" points="292.93 41.94 307.28 96.17 259.29 86.6 265.7 52.64 292.93 41.94"/><polygon class="cls-23" points="234.25 38.38 259.29 86.6 292.93 41.94 263.91 34 234.25 38.38"/><polygon class="cls-2" points="244.06 19.49 234.25 38.38 292.93 41.94 268.05 10.57 244.06 19.49"/><polygon class="cls-22" points="237.25 8.22 214.15 19.17 216.5 31 234.25 38.38 268.05 10.57 237.25 8.22"/><polygon class="cls-23" points="184.64 6.68 190.15 20.06 214.15 19.17 268.05 10.57 231.9 1.09 184.64 6.68"/><polygon class="cls-2" points="149.87 46.97 185.69 27.19 214.15 19.17 234.25 38.38 177.43 42.37 166.67 54.59 166.67 83.91 155.38 70.64 149.87 46.97"/><polygon class="cls-22" points="149.87 46.97 184.64 6.68 214.15 19.17 149.87 46.97"/><polygon class="cls-23" points="149.87 46.97 149.95 110.43 166.67 83.91 149.87 46.97"/><polygon class="cls-6" points="181.97 82.79 172.16 75.74 179.05 71.2 192.26 74.44 195.83 81.33 197.04 95.36 194.85 98.52 181.97 82.79"/><polygon class="cls-6" points="200.45 81.17 199.96 94.95 203.04 102.25 213.25 81.74 225.98 71.45 217.55 69.18 203.69 74.04 200.45 81.17"/><path class="cls-24" d="M213.72,77.85A4,4,0,1,1,209.84,82,4,4,0,0,1,213.72,77.85Z"/><polygon class="cls-7" points="199.39 106.79 194.61 102.33 198.82 100.14 203.04 102.25 199.39 106.79"/><polygon class="cls-25" points="200.45 81.17 195.83 81.33 194.61 102.33 203.04 102.25 200.45 81.17"/><path class="cls-24" d="M182.65,78.89A4,4,0,1,1,178.76,83,4,4,0,0,1,182.65,78.89Z"/><polygon class="cls-18" points="196.88 120.65 190.31 114.65 201.82 113.03 213.33 112.62 206.44 120.16 196.88 120.65"/><polygon class="cls-6" points="147.84 160.12 150.84 179.01 136.82 189.71 141.03 168.15 133.33 165.71 133.9 159.8 147.84 160.12"/><polygon class="cls-1" points="172.16 75.74 178.48 72.34 192.26 74.44 190.15 71.36 178.32 69.83 172.16 75.74"/><polygon class="cls-1" points="205.8 70.8 203.69 74.04 218.6 70.07 225.98 71.45 217.87 67.88 205.8 70.8"/><polygon class="cls-5" points="190.31 114.65 195.58 111.16 199.88 112.54 204.26 110.92 213.33 112.62 200.2 115.94 190.31 114.65"/><polygon class="cls-3" points="113.96 159.39 119.39 168.39 116.31 178.03 101.31 183.06 108.45 170.01 99.21 156.07 113.96 159.39"/><polygon class="cls-9" points="244.7 188.73 240.73 183.22 245.43 177.63 249.48 183.22 244.7 188.73"/><path class="cls-15" d="M251.83,195.87l-.4,11.1,2.51.08V195.87Zm-17.75,11.34h2.44l.24-5,3.89.24.16-2.27-3.56-.24-.17-2,4.14.24.48-2.26h-6.56Zm8.76-11.34-.65,10.86,7.46.24-.49-6.81-1.46-.24.25-4Zm2.19,1.78-.16,1.7,1.21.16.08-1.86Zm-.41,4L247,202l-.08,2.67-2.19.24Z"/></g></svg>