<svg id="illustration_layer_copy_5" data-name="illustration_layer copy 5" xmlns="http://www.w3.org/2000/svg" viewBox="0 0 400 400"><defs><style>.cls-1{fill:#51362a;}.cls-1,.cls-12,.cls-13,.cls-14,.cls-16,.cls-2,.cls-21,.cls-22{fill-rule:evenodd;}.cls-18,.cls-2{fill:#66483a;}.cls-3,.cls-5{fill:#165e60;}.cls-4{fill:#369395;}.cls-5{opacity:0.1;}.cls-6{fill:#1c7678;}.cls-7{fill:#dcdcdb;}.cls-8{fill:#cfae95;}.cls-9{fill:#a8836c;}.cls-10,.cls-13{fill:#cdcdcc;}.cls-11,.cls-16{fill:#ebebea;}.cls-12{fill:#a2a2a2;opacity:0.3;}.cls-14{fill:#fff;}.cls-15{fill:#50a8a9;}.cls-17{fill:#eed2c1;}.cls-19{fill:#f6e5db;}.cls-20{fill:#2b2b2b;}.cls-21{fill:#412b23;}.cls-22{fill:#825940;}</style></defs><title>sentinels_ISTJ_famous_fictional_mr_darcy_pride_and_prejudice</title><polygon class="cls-1" points="138.07 88.91 135.57 108.07 144.25 111.9 150.79 116.26 150.45 92.22 146.19 85.48 140.19 85.75 138.07 88.91"/><polygon class="cls-2" points="251.84 89.09 248.01 92.44 247.33 108.76 250.33 128.96 254.65 129.58 261.15 114.64 251.84 89.09"/><polyline class="cls-1" points="233.93 139.86 247.33 108.76 254.65 129.58 245.86 133.19"/><polygon class="cls-2" points="141.63 63.7 134.59 74.22 132.57 88.75 146.26 91.58 141.63 63.7"/><polygon class="cls-3" points="262.81 337.27 155.87 322.17 200.76 300.53 246.91 294.3 262.81 337.27"/><polygon class="cls-4" points="200.76 300.53 188.97 333.82 169.48 331.91 155.87 322.17 157.91 270.13 189.51 281.24 200.76 300.53"/><polygon class="cls-5" points="103 386.5 206.41 370.79 297.13 387.15 200.07 400 103 386.5"/><polygon class="cls-3" points="163.03 170.81 137.36 226.8 160.25 229.11 165.76 200.78 163.03 170.81"/><polygon class="cls-6" points="260.72 255.16 271.19 323.8 262.81 337.27 246.91 294.3 250.59 267 260.72 255.16"/><polygon class="cls-4" points="200.76 300.53 214.89 337.46 232.94 342.17 250.01 333.82 246.61 290.31 235.39 260.04 200.76 300.53"/><polygon class="cls-3" points="163.69 273.72 200.76 300.53 235.39 270.13 200.76 257.15 179.48 270.58 163.69 273.72"/><polygon class="cls-3" points="261.49 172.07 282.02 245.56 249.57 241.18 261.49 172.07"/><polygon class="cls-7" points="233.27 162.9 224.46 185.59 196.76 235.93 181.36 159.93 204.04 166.46 233.27 162.9"/><polygon class="cls-8" points="219.58 58.61 222 134.06 203.1 165.18 232.75 159.71 248.14 111.72 254.13 101.39 256.1 86.9 256.1 86.9 219.58 58.61"/><polygon class="cls-9" points="248.14 111.72 235.74 109.16 243.41 126.48 248.14 111.72"/><polygon class="cls-9" points="243.66 105.03 243.4 93.43 253.25 86.61 243.66 105.03"/><polygon class="cls-10" points="196.1 221.6 207.42 252.1 202.74 269.67 198.07 281.15 163.69 273.72 182.53 165.18 196.1 221.6"/><polygon class="cls-11" points="196.1 221.6 233.27 162.9 253.01 262.63 209.49 281.15 202.74 269.67 196.1 221.6"/><polygon class="cls-6" points="233.27 162.9 221.49 239.51 219.81 259.28 248.14 260.04 251.97 251.87 254.24 237.18 261.49 172.07 240.25 164.9 235.96 163.77 233.27 162.9"/><polygon class="cls-6" points="182.53 165.48 179.48 166.46 163.03 170.81 158.72 257.15 182.55 257.15 182.43 237.18 182.53 165.48"/><polygon class="cls-4" points="282.02 245.56 253.01 281.39 244.2 280.22 235.39 270.13 254.24 237.18 282.02 245.56"/><polygon class="cls-8" points="235.39 270.13 253.01 281.39 246.91 294.3 235.39 270.13"/><polygon class="cls-6" points="214.89 337.46 250.01 333.82 253.01 370.08 239.24 371.82 227.66 366.95 214.89 337.46"/><polygon class="cls-6" points="188.97 333.82 155.87 322.17 154.42 359.59 166.56 366.35 178.41 364.46 188.97 333.82"/><polygon class="cls-3" points="227.66 366.95 221.49 385.91 235.45 387.15 256.99 385.91 253.01 370.08 227.66 366.95"/><rect class="cls-6" x="221.49" y="385.91" width="35.5" height="6"/><polygon class="cls-3" points="154.42 359.59 128.84 380.38 159.85 381.88 178.33 380.38 178.41 364.46 154.42 359.59"/><polygon class="cls-6" points="178.29 386.38 169.06 386.38 167.25 382.07 158.88 386.38 128.78 386.38 128.78 380.38 178.29 380.38 178.29 386.38"/><polygon class="cls-12" points="208.52 165.87 205.91 173.77 212.81 172.69 221.95 164.11 208.52 165.87"/><polygon class="cls-13" points="194.09 178.48 208.52 181.26 212.81 172.69 195.25 165.87 190.1 164.82 194.09 178.48"/><polygon class="cls-14" points="195.25 165.87 192.02 170.6 203.04 178.47 212.81 172.69 208.52 165.87 201.46 161.6 195.25 165.87"/><polygon class="cls-15" points="233.27 162.9 240.25 164.9 240.25 195.6 235.39 202.66 240.25 214.65 221.49 239.51 233.27 162.9"/><polygon class="cls-15" points="182.53 165.48 176.98 167.12 168.4 187.91 174 192.73 169.07 203.51 182.43 237.18 182.53 165.48"/><polygon class="cls-9" points="179.48 147.07 222 134.06 203.04 167.15 182.54 158.38 179.48 147.07"/><polygon class="cls-16" points="164.46 138.87 168.85 161.57 203.04 167.15 164.46 138.87"/><polygon class="cls-16" points="208.25 154.19 245.86 133.19 233.27 162.9 203.04 167.15 208.25 154.19"/><polygon class="cls-6" points="166.61 257.15 155.87 322.17 158.72 257.15 166.61 257.15"/><polygon class="cls-13" points="203.81 221.44 200.13 226.01 205.11 230.13 208.56 225.17 203.81 221.44"/><polygon class="cls-8" points="149.87 286.45 159.45 278.78 168.94 295.62 165.6 298.61 156.57 288.37 149.87 286.45"/><polygon class="cls-8" points="146.03 290.19 138.37 299.77 151.26 314.19 164.15 308.73 161.37 294.98 146.03 290.19"/><polygon class="cls-17" points="145.17 277.82 143.25 280.7 138.37 299.77 161.37 294.98 159.45 278.78 145.17 277.82"/><polygon class="cls-13" points="206.84 241.67 203.17 246.23 208.15 250.35 211.6 245.39 206.84 241.67"/><polygon class="cls-13" points="209.88 261.89 206.21 266.46 211.18 270.57 214.64 265.62 209.88 261.89"/><polygon class="cls-4" points="160.25 229.11 159.45 278.78 143.25 280.7 137.36 226.8 160.25 229.11"/><polygon class="cls-17" points="173.06 156.71 195.78 156.71 222 134.06 219.53 42.02 137.34 36.21 150.93 128.82 173.06 156.71"/><polygon class="cls-18" points="178.69 84.54 178.69 89.66 194.72 87.65 212.1 81.71 178.69 84.54"/><polygon class="cls-18" points="164.86 85.87 164.86 90.48 149.41 90.48 145.99 85.87 164.86 85.87"/><polygon class="cls-19" points="169.02 95.92 165.1 118.27 183.21 116.26 176.31 94.93 169.02 95.92"/><polygon class="cls-8" points="183.21 116.26 194.72 87.65 178.69 89.66 176.31 94.93 183.21 116.26"/><polygon class="cls-8" points="165.1 118.27 149.41 90.48 164.86 90.48 169.02 95.92 165.1 118.27"/><polygon class="cls-9" points="165.1 118.27 173.97 122.33 183.21 116.26 165.1 118.27"/><polygon class="cls-18" points="221.75 126.12 221.36 110.77 229.08 101.33 230.46 85.65 240.71 85.65 235.74 109.16 221.75 126.12"/><circle class="cls-20" cx="161.4" cy="95.51" r="3.46"/><circle class="cls-20" cx="193.7" cy="94.55" r="3.46"/><polygon class="cls-9" points="197.14 128.52 168.38 133.39 168.38 137.6 197.14 132.73 197.14 128.52"/><polygon class="cls-14" points="194.09 178.48 192.41 182.1 194.91 187.19 192.02 189.99 194.43 196.96 192.02 200.66 194.91 206.16 193.13 207.77 196.1 221.6 196.61 209.76 199.02 204.67 195.52 200.04 197.01 195.69 195.52 191.81 199.02 185.5 197.98 179.23 194.09 178.48"/><polygon class="cls-16" points="197.98 179.23 203.66 180.33 204.98 187.19 201.46 192.17 202.1 197.35 200.13 201.21 201.48 206.16 200.13 215.23 196.1 221.6 196.61 209.76 199.02 204.67 195.52 200.04 197.01 195.69 195.52 191.81 199.02 185.5 197.98 179.23"/><polygon class="cls-14" points="203.66 180.33 204.98 187.19 201.46 192.17 202.1 197.35 200.13 201.21 201.48 206.16 200.53 212.54 196.1 221.6 204.98 207.58 204.35 202.24 207.42 196.05 204.98 191.56 208.56 184.29 208.52 181.26 203.66 180.33"/><polygon class="cls-14" points="212.81 172.69 221.47 164.56 225.44 164 211.34 175.64 212.81 172.69"/><polygon class="cls-14" points="192.02 170.6 190.1 165.18 187.83 164.67 192.55 173.2 192.02 170.6"/><polygon class="cls-16" points="192.55 173.2 193.13 175.2 185.55 164.3 187.83 164.67 192.55 173.2"/><polygon class="cls-16" points="211.34 175.64 225.44 164 227.87 163.66 210.3 177.71 211.34 175.64"/><polygon class="cls-1" points="261.15 114.64 269.06 110.46 269.66 91.58 261.4 82.99 252.45 83.2 250.89 89.07 254.82 99.27 261.15 114.64"/><polygon class="cls-1" points="213.65 43.79 233.42 57.03 240.81 48.74 238.17 34.46 225.49 22.18 209.97 39.3 213.65 43.79"/><polygon class="cls-21" points="236.69 99.46 219.33 66.59 246.76 69.29 248.52 82.22 236.69 99.46"/><polygon class="cls-21" points="132.57 88.75 125.41 82.19 128.38 71.7 135.57 67.79 143.53 75.15 132.57 88.75"/><polygon class="cls-2" points="263.15 35.59 251.53 54.76 236.96 49.48 233.22 30.9 231.55 20.26 255.27 26.77 263.15 35.59"/><polygon class="cls-1" points="263.1 58.37 260.11 65.24 240.57 61.63 232.74 57.57 236.96 49.48 263.15 35.59 263.1 58.37"/><polygon class="cls-22" points="274.56 69.88 266.21 75.54 257.9 68.48 244.23 67.73 240.57 61.63 263.1 58.37 274.56 69.88"/><polygon class="cls-2" points="239.12 74.48 234.66 71.72 219.33 66.59 232.17 57.77 240.57 61.63 257.9 68.48 249.13 78.21 239.12 74.48"/><polygon class="cls-2" points="251.84 89.09 247.23 79.98 257.9 68.48 274.56 69.88 269.66 91.58 251.84 89.09"/><polygon class="cls-1" points="236.69 99.46 239.12 74.48 257.9 68.48 251.84 89.09 236.69 99.46"/><polygon class="cls-1" points="137.58 48.9 131.8 46.1 131.21 55.7 128.38 71.7 143.53 75.15 144.25 56.07 137.58 48.9"/><polygon class="cls-21" points="148.6 41.62 138.83 56.32 137.58 48.9 131.21 55.7 125.41 34.85 145.43 32.16 148.6 41.62"/><polygon class="cls-2" points="164.01 70.73 159.21 46.1 148.6 41.62 137.58 48.9 138.54 54.61 143.53 75.15 164.01 70.73"/><polygon class="cls-22" points="155.96 7.55 158.46 33.49 148.6 41.62 125.41 34.85 144.35 26.66 155.96 7.55"/><polygon class="cls-1" points="175.83 54.7 170.17 34.36 155.96 7.55 148.6 41.62 164.01 70.73 175.83 54.7"/><polygon class="cls-2" points="175.83 54.7 185.04 38.04 185.93 10.07 155.96 7.55 164.92 45.17 175.83 54.7"/><polygon class="cls-1" points="188.53 41.72 195.63 37.69 177.54 17.29 175.83 54.7 188.53 41.72"/><polygon class="cls-22" points="197.29 49.06 210.36 41.2 200.37 15.34 195.65 12.01 177.54 17.29 188.53 41.72 197.29 49.06"/><polygon class="cls-2" points="213.65 43.79 219.64 43.17 219.87 22.17 200.37 15.34 197.29 49.06 213.65 43.79"/><polygon class="cls-22" points="255.27 26.77 246.51 16.34 226.37 10.84 200.37 15.34 219.64 43.17 255.27 26.77"/><polygon class="cls-1" points="208.3 0 220.03 10.03 200.37 15.34 191.12 16.13 177.54 17.29 185.93 10.07 208.3 0"/><polygon class="cls-1" points="246.51 16.34 232.02 10.19 208.3 0 213.89 5.91 200.37 15.34 225.16 15.94 246.51 16.34"/><polygon class="cls-22" points="213.65 43.8 219.33 66.59 240.57 61.63 236.96 49.48 213.65 43.8"/></svg>