<svg id="Layer_1" data-name="Layer 1" xmlns="http://www.w3.org/2000/svg" viewBox="0 0 400 400"><defs><style>.cls-1{fill:#1c7678;}.cls-2{fill:#27788b;}.cls-3{fill:#73cee4;}.cls-4{fill:#3a9fb9;}.cls-5{fill:#f4c9b2;}.cls-6{fill:#c1907d;}.cls-7{fill:#369395;}.cls-8{fill:#5ebfd8;}.cls-9{fill:#318ea5;}.cls-10,.cls-20{fill:#2b2b2b;}.cls-10{fill-opacity:0.1;}.cls-11{fill:#6f7173;}.cls-12{fill:#4f5253;}.cls-13{fill:#fce3d4;}.cls-14{fill:#46382d;}.cls-15{fill:#5e5044;}.cls-16{fill:#8bdfdb;}.cls-17{fill:#50a8a9;}.cls-18{fill:#72cacb;}.cls-19{fill:#ffefe7;}.cls-21{fill:#165e60;}</style></defs><title>sentinels_ISTJ_famous_fictional_jason_bourne_bourne_series</title><g id="Layer_1-2" data-name="Layer_1"><polygon class="cls-1" points="173.33 174.4 163.07 172.31 163.92 186.48 173.33 174.4"/><polygon class="cls-2" points="172.76 138.18 189.59 159.1 186.17 142.37 172.76 138.18"/><polygon class="cls-3" points="94.52 119.93 103.84 112.61 115.91 111.66 107.74 123.26 94.52 119.93"/><polygon class="cls-4" points="95.28 130.29 101.94 145.98 116.96 147.5 112.97 137.52 108.69 126.2 95.28 130.29"/><polygon class="cls-5" points="116.96 147.5 141.58 171.36 145.29 157.1 138.35 145.79 125.23 141.6 116.96 147.5"/><polygon class="cls-5" points="196.15 141.7 199.67 153.39 213.74 152.54 213.74 137.42 204.71 137.8 196.15 141.7"/><polygon class="cls-5" points="213.36 172.6 210.79 157.39 225.34 147.41 229.52 163.94 213.36 172.6"/><polygon class="cls-4" points="187.4 138.28 182.56 142.65 189.59 159.1 215.54 157.01 218.11 152.16 213.64 150.16 194.25 151.21 190.92 142.08 187.4 138.28"/><polygon class="cls-6" points="227.71 139.42 243.4 155.87 229.52 163.94 220.77 152.63 215.54 157.01 211.07 140.56 227.71 139.42"/><polygon class="cls-4" points="283.23 281.36 321.35 317.48 354.15 318.62 365.08 296.47 338.75 249.41 298.82 259.49 283.23 281.36"/><polygon class="cls-1" points="205.47 264.91 232.85 266.43 251.48 243.52 242.07 207.2 220.87 216.61 205.47 264.91"/><polygon class="cls-4" points="204.23 295.14 241.69 241.9 271.92 255.49 286.08 284.01 259.75 306.07 239.03 312.44 204.23 295.14"/><polygon class="cls-7" points="227.71 139.42 237.31 133.81 259.27 146.83 242.92 158.53 227.71 139.42"/><polygon class="cls-8" points="313.84 246.27 283.51 260.63 241.69 241.9 242.07 207.2 261.18 179.35 309.09 177.73 313.84 246.27"/><polygon class="cls-2" points="241.69 241.9 286.08 284.01 302.53 270.23 308.04 252.65 241.69 241.9"/><polygon class="cls-9" points="227.05 344.38 204.23 295.14 259.75 306.07 259.75 349.9 244.63 353.13 227.05 344.38"/><polygon class="cls-10" points="144.61 373.48 297.26 358.74 398.55 379.46 297.12 400 144.61 373.48"/><polygon class="cls-11" points="198.34 368.24 227.05 344.38 259.75 349.9 259.75 367.58 229.42 371.48 198.34 368.24"/><polygon class="cls-12" points="199.1 375.47 198.34 368.24 259.75 367.48 259.75 375.47 199.1 375.47"/><polygon class="cls-9" points="357.67 351.8 321.35 317.48 365.08 296.47 394.55 349.9 375.44 358.74 357.67 351.8"/><polygon class="cls-11" points="397.79 369.86 394.55 349.9 357.67 351.8 346.74 369.86 371.45 374.61 397.79 369.86"/><polygon class="cls-12" points="398.55 379.46 397.79 369.86 346.74 369.86 346.74 379.46 398.55 379.46"/><polygon class="cls-13" points="201.38 46.06 206.23 98.73 210.22 106.33 211.36 117.74 227.81 139.32 240.64 138.47 250.43 141.03 268.21 136.47 279.52 113.94 283.51 15.83 206.99 26.2 201.38 46.06"/><polygon class="cls-14" points="205.37 18.21 213.83 21.63 216.02 28.38 206.99 32.56 201.38 46.06 205.37 18.21"/><polygon class="cls-15" points="248.44 -0.14 205.37 18.21 220.96 33.13 241.31 20.59 248.44 -0.14"/><polygon class="cls-14" points="248.44 -0.14 290.74 2.24 273.06 17.26 258.23 23.15 244.54 31.99 220.96 33.13 248.44 -0.14"/><polygon class="cls-15" points="320.21 24.58 290.74 2.24 258.23 23.15 272.49 31.14 282.66 37.13 315.46 32.56 320.21 24.58"/><polygon class="cls-5" points="316.22 107.48 316.5 101.77 296.35 51.67 282.09 51.39 279.52 113.94 295.49 121.83 316.22 107.48"/><polygon class="cls-14" points="293.88 85.14 290.74 57.28 282.09 51.39 272.49 31.14 320.21 24.58 318.22 66.03 300.34 85.14 293.88 85.14"/><polygon class="cls-13" points="299.49 93.12 305.76 92.84 317.07 92.36 318.22 66.03 298.73 66.88 299.49 93.12"/><polygon class="cls-6" points="307.38 82.57 304.24 77.25 304.24 71.64 313.84 70.78 307.38 82.57"/><polygon class="cls-6" points="299.49 93.12 316.5 101.77 317.07 92.36 313.84 92.36 308.04 90.27 304.24 92.93 299.49 93.12"/><polygon class="cls-16" points="316.22 107.48 279.52 113.94 268.21 136.47 300.34 137.8 318.59 132.76 316.22 107.48"/><polygon class="cls-5" points="207.75 68.4 222.1 80.38 228.47 96.35 238.07 98.73 243.68 94.74 256.42 78.01 269.16 69.26 262.79 66.03 255.66 67.64 247.68 71.64 240.45 77.25 236.46 80.38 232.47 78.01 227.71 72.4 219.73 66.03 214.12 65.27 207.75 68.4"/><polygon class="cls-5" points="238.93 62.89 235.7 67.64 241.31 73.25 238.93 66.88 238.93 62.89"/><polygon class="cls-14" points="246.82 67.64 247.68 71.64 262.03 68.4 269.16 69.26 262.79 62.89 246.82 67.64"/><polygon class="cls-14" points="228.47 67.64 227.71 72.4 214.97 67.64 207.75 68.4 213.36 62.89 228.47 67.64"/><polygon class="cls-17" points="351.87 272.99 337.42 262.06 290.36 185.62 318.59 132.76 375.26 240.76 351.87 272.99"/><polygon class="cls-18" points="312.7 216.71 324.77 210.43 347.88 241.62 340.27 253.97 322.02 240.95 312.7 216.71"/><polygon class="cls-7" points="281.43 183.91 299.3 187.24 351.87 272.99 302.53 270.23 276.58 195.7 281.43 183.91"/><polygon class="cls-19" points="232.47 78.01 228.47 96.35 243.68 94.74 240.45 77.25 232.47 78.01"/><polygon class="cls-6" points="237.31 101.96 228.47 96.35 243.68 94.74 237.31 101.96"/><polygon class="cls-5" points="233.32 122.69 242.92 117.84 252.43 120.31 233.32 122.69"/><polygon class="cls-6" points="226.95 111.47 238.93 108.33 254.05 108.33 254.81 111.47 238.93 111.47 227.71 113.94 226.95 111.47"/><path class="cls-20" d="M221.34,77.25a3.95,3.95,0,1,1-4,4A4,4,0,0,1,221.34,77.25Z"/><polygon class="cls-21" points="140.63 110.23 141.39 98.16 149.38 88.46 172.67 90.56 175.81 108.33 160.5 115.27 140.63 110.23"/><polygon class="cls-1" points="143.48 97.97 144.72 110.04 135.5 112.7 138.16 94.83 143.48 97.97"/><polygon class="cls-18" points="268.21 136.47 269.16 164.9 299.3 187.24 318.59 132.76 268.21 136.47"/><polygon class="cls-6" points="240.64 138.47 251.86 148.07 262.51 146.45 268.21 136.47 240.64 138.47"/><polygon class="cls-17" points="213.36 172.41 268.21 136.47 299.3 187.24 220.87 216.61 200.62 185.72 213.36 172.41"/><polygon class="cls-5" points="161.54 144.17 181.41 154.53 182.46 171.36 169.25 176.87 161.45 170.98 155.18 153.77 161.54 144.17"/><polygon class="cls-7" points="163.92 186.48 181.41 154.53 213.45 172.5 220.87 216.61 181.13 195.6 177.61 188.09 170.01 189.71 163.92 186.48"/><polygon class="cls-4" points="110.02 127.34 115.91 147.59 138.35 145.79 161.54 144.17 186.17 142.37 227.71 139.42 210.22 106.33 115.91 111.66 110.02 127.34"/><polygon class="cls-1" points="38.53 122.69 105.17 119.36 114.11 124.97 106.03 129.72 39.01 132.29 33.11 127.34 38.53 122.69"/><polygon class="cls-8" points="104.6 129.82 116.96 147.5 138.35 145.79 115.91 111.66 105.17 119.36 104.6 129.82"/><polygon class="cls-4" points="182.56 73.92 208.51 76.96 209.18 88.65 184.36 95.02 176.95 88.37 176.19 80.38 182.56 73.92"/><polygon class="cls-2" points="175.9 74.2 182.56 73.92 187.5 77.81 187.88 89.98 184.36 95.02 176.76 95.21 172.67 90.56 172.19 78.86 175.9 74.2"/><polygon class="cls-17" points="148.9 79.43 178.37 78.19 181.7 84.19 148.33 91.13 144.15 85.04 148.9 79.43"/><polygon class="cls-7" points="149.28 86.66 181.7 84.19 178.94 90.17 149.57 92.17 147.09 90.08 149.28 86.66"/><polygon class="cls-13" points="138.35 145.79 141.58 171.36 163.07 172.31 161.54 144.17 148.71 140.18 138.35 145.79"/><polygon class="cls-5" points="125.14 138.28 138.35 145.79 161.54 144.17 155.18 137.04 128.75 131.24 125.14 138.28"/><polygon class="cls-21" points="314.7 82.76 306.71 81.33 304.24 83.23 304.24 92.93 309.66 92.74 314.41 85.9 314.7 82.76"/><polygon class="cls-18" points="289.31 112.23 309.66 92.74 309.09 85.99 314.41 85.9 313.84 92.36 295.11 111.19 289.31 112.23"/><polygon class="cls-4" points="113.16 74.01 148.9 79.43 149.57 92.17 114.3 100.35 107.55 93.98 108.4 79.62 113.16 74.01"/><polygon class="cls-2" points="107.26 74.3 113.16 74.01 120.57 77.91 120.95 82 119.72 94.17 120 97.88 114.3 100.35 106.98 100.44 101.08 95.12 99.66 80.76 107.26 74.3"/><polygon class="cls-5" points="207.75 58.04 228.47 62.89 218.97 58.04 207.75 58.04"/><polygon class="cls-5" points="234.94 56.42 241.31 56.42 250.05 49.3 240.45 54.05 234.94 56.42"/><path class="cls-20" d="M253.28,74.77a3.94,3.94,0,0,1,3.9,4,3.95,3.95,0,1,1-7.89,0A4,4,0,0,1,253.28,74.77Z"/><polygon class="cls-17" points="112.68 79.81 106.6 81.14 106.88 93.22 112.49 95.31 115.25 92.17 115.82 82.67 112.68 79.81"/><polygon class="cls-21" points="110.11 77.53 112.68 79.81 108.02 82.38 108.31 92.84 112.49 95.31 110.88 97.11 105.17 93.22 104.13 82.28 110.11 77.53"/><polygon class="cls-13" points="210.6 140.65 227.71 139.42 217.16 159.48 210.79 157.39 210.6 140.65"/><polygon class="cls-17" points="179.99 170.89 170.01 189.71 181.13 195.6 191.02 175.35 179.99 170.89"/><polygon class="cls-10" points="242.45 208.53 270.4 212.53 295.68 250.65 276.58 195.7 242.45 208.53"/><polygon class="cls-8" points="113.16 74.01 120.95 82 148.9 79.43 143.48 73.35 113.16 74.01"/><polygon class="cls-8" points="182.56 73.92 187.5 79.05 208.51 76.96 203.85 73.25 182.56 73.92"/><polygon class="cls-9" points="114.3 100.35 119.72 94.17 149.57 92.17 143.48 97.97 114.3 100.35"/><polygon class="cls-9" points="184.36 95.02 187.78 88.46 209.18 88.65 205.75 93.69 184.36 95.02"/><polygon class="cls-1" points="314.7 82.76 304.24 83.23 304.24 77.25 314.7 82.76"/><polygon class="cls-10" points="123.33 122.88 216.11 117.46 227.81 139.32 161.54 144.17 155.18 137.04 128.75 131.24 123.33 122.88"/><path class="cls-2" d="M127.13,115.75l5.8,6.56,6.18-.29-4.18-6.75Zm43.54-2.57,3.71,6.75,6.08-.38-3.13-6.84Zm-10.93.67L164,120.5l6.08-.28-3.23-6.66Zm-9.41.57,3.32,6.75,6.09-.38-4.09-6.66Zm-11.32.66,4.28,6.66,6.09-.38L146,114.61Z"/><polygon class="cls-10" points="210.22 106.33 210.6 140.65 227.81 139.32 210.22 106.33"/><polygon class="cls-4" points="11.63 118.5 38.53 122.69 39.01 132.29 12.39 138.28 7.35 133.43 8.01 122.59 11.63 118.5"/><polygon class="cls-2" points="7.16 118.6 11.63 118.5 17.23 121.36 17.42 124.49 16.57 133.62 16.76 136.47 12.39 138.28 6.97 138.37 2.5 134.28 1.45 123.45 7.16 118.6"/><polygon class="cls-21" points="9.34 122.21 10.96 123.73 12.96 125.54 12.58 131.53 10.77 133.62 9.82 134.76 6.11 132.19 5.45 125.25 9.34 122.21"/><polygon class="cls-8" points="11.63 118.5 17.42 124.49 38.53 122.69 34.44 118.12 11.63 118.5"/><polygon class="cls-9" points="12.39 138.28 16.57 133.62 39.01 132.29 34.44 136.66 12.39 138.28"/></g></svg>