<svg id="illustration_layer_copy_3" data-name="illustration_layer copy 3" xmlns="http://www.w3.org/2000/svg" viewBox="0 0 400 400"><defs><style>.cls-1{fill:#318ea5;}.cls-2,.cls-22{fill:#2b2b2b;}.cls-2{opacity:0.1;}.cls-3{fill:#1c7678;}.cls-4{fill:#165e60;}.cls-5{fill:#73cee4;}.cls-6{fill:#5ebfd8;}.cls-7{fill:#737373;}.cls-8{fill:#8e8e8e;}.cls-9{fill:#c3c3c3;}.cls-10{fill:#50a8a9;}.cls-11{fill:#369395;}.cls-12{fill:#27788b;}.cls-13{fill:#72cacb;}.cls-14{fill:#8bdfdb;}.cls-15{fill:#a2a2a2;}.cls-16{fill:#cdcdcc;}.cls-17{fill:#fce3d4;}.cls-18{fill:#f4c9b2;}.cls-19{fill:#c1907d;}.cls-20{fill:#ffefe7;}.cls-21{fill:#4f5253;}.cls-23{fill:#dcdcdb;}.cls-24{fill:#ebebea;}.cls-25{fill:#fff;}.cls-26{fill:#3a9fb9;}</style></defs><title>sentinels_ISTJ_famous_fictional_geralt_of_rivia_the_witcher</title><polygon class="cls-1" points="273.59 259.92 268.25 268.9 279.7 272.67 273.59 259.92"/><polygon class="cls-2" points="87.75 383.98 185.31 370.62 295.16 386.61 182.75 400 87.75 383.98"/><polygon class="cls-3" points="153.01 257.25 139.85 278.71 137.96 328.45 150.99 356.95 173.91 335.62 184.49 305.56 198.24 335.99 220.45 355.62 235.56 333.8 234.29 300.04 223.82 257.25 153.01 257.25"/><polygon class="cls-4" points="184.49 305.56 200.02 293.44 221.19 272.55 153.01 269.15 167.03 285.36 184.49 305.56"/><polygon class="cls-4" points="234.29 300.04 235.56 333.8 222.9 339.91 216.33 292.13 234.29 300.04"/><polygon class="cls-4" points="154.48 275.3 139.85 278.71 137.96 328.45 146.13 337.62 154.48 275.3"/><polygon class="cls-1" points="204.22 349.95 216.99 342.87 235.71 347.06 236.5 369.96 224.78 371.41 211.07 366.56 204.22 349.95"/><polygon class="cls-5" points="198.24 335.99 235.56 333.8 235.71 347.06 204.22 349.95 198.24 335.99"/><polygon class="cls-1" points="168.81 350.1 161.59 369.62 148.56 369.62 136.51 361.85 137.41 342.04 153.01 341.79 168.81 350.1"/><polygon class="cls-5" points="173.91 335.62 137.96 328.45 137.41 342.04 168.81 350.1 173.91 335.62"/><polygon class="cls-6" points="161.59 369.62 161.59 379.91 118.1 383.18 110.33 379.66 136.51 361.85 161.59 369.62"/><polygon class="cls-6" points="211.07 366.56 204.18 385.55 219.85 388.77 239.42 385.55 234.15 372.63 211.07 366.56"/><polygon class="cls-5" points="211.07 366.56 239.42 385.55 236.5 369.96 211.07 366.56"/><polygon class="cls-5" points="136.51 361.85 146.13 379.66 133.51 382.58 127.09 368.26 136.51 361.85"/><polygon class="cls-1" points="110.33 379.66 161.59 379.91 161.59 386.7 110.33 386.7 110.33 379.66"/><rect class="cls-1" x="204.18" y="385.55" width="35.24" height="6.43"/><polygon class="cls-7" points="255.89 155.75 246.89 152.1 268.7 96.25 274.22 95.56 277.7 99.9 255.89 155.75"/><polygon class="cls-8" points="288.2 92.1 278.39 85.68 266.59 83.35 268.7 96.25 277.7 99.9 288.2 92.1"/><polygon class="cls-8" points="279.08 178.76 221.19 156.64 231.64 144.43 283.35 163.97 279.08 178.76"/><polygon class="cls-9" points="266.59 83.35 280.59 80.28 288.2 92.1 266.59 83.35"/><polygon class="cls-3" points="251.83 208.89 258.59 227.43 280.01 236.63 293.91 214.16 285.98 195.84 270.4 173.67 252.2 189.2 251.83 208.89"/><polygon class="cls-4" points="253.21 205.69 246.89 208.3 260.59 230.43 280.01 236.63 293.91 214.16 253.21 205.69"/><polygon class="cls-5" points="272.13 163.85 286.08 195.79 260.33 189.2 263 175.6 272.13 163.85"/><polygon class="cls-3" points="129.21 167.61 113.55 188.48 102.2 217.68 136.9 225.01 141.05 191.94 129.21 167.61"/><polygon class="cls-4" points="133.52 205.69 104.66 211.13 121.62 223.9 136.9 225.01 141.05 210.76 133.52 205.69"/><polygon class="cls-5" points="129.87 184.79 113.55 188.48 125.01 158.99 131.49 176.41 129.87 184.79"/><polygon class="cls-10" points="272.13 163.85 249.14 165.31 239.59 157.66 227.4 155.35 161.92 151.7 152.66 153.53 141.05 158.99 125.01 158.99 129.87 184.79 129.87 184.79 133.52 205.69 192.27 233.14 253.21 205.69 260.33 189.2 260.33 189.2 272.13 163.85"/><polygon class="cls-11" points="133.52 205.69 163.28 199.1 199.53 198.46 253.21 205.69 243.02 229.31 233.84 238.8 233.59 251.18 185.46 259.92 141.05 248.76 146.13 233.14 136.9 225.01 133.52 205.69"/><polygon class="cls-3" points="164.83 205.22 196.87 204.53 194.71 250.29 185.46 259.92 167.03 249.57 164.83 205.22"/><polygon class="cls-10" points="234.29 300.04 233.92 265.72 187.6 259.54 140.49 262.85 140.49 262.85 139.85 278.71 234.29 300.04"/><polygon class="cls-12" points="141.05 248.76 167.03 249.57 187.32 251.18 194.71 250.29 233.59 251.18 234.15 265.75 194.6 264.68 187.06 263.32 167.03 263.83 140.49 262.85 141.05 248.76"/><polygon class="cls-5" points="167.03 249.57 167.03 263.83 194.6 264.68 194.71 250.29 167.03 249.57"/><polygon class="cls-12" points="172.21 253.94 172.21 260.27 188.88 260.89 188.88 253.94 172.21 253.94"/><polygon class="cls-13" points="272.13 163.85 192.85 202.21 141.05 248.76 136.9 225.01 174.21 188.36 239.59 157.66 272.13 163.85"/><polygon class="cls-14" points="125.01 158.99 163.28 199.1 233.59 251.18 243.02 229.31 180.87 185.22 152.66 153.53 125.01 158.99"/><polygon class="cls-4" points="219.11 133.44 231.64 144.43 205.94 154.14 197.1 140.51 219.11 133.44"/><polygon class="cls-15" points="249.29 113.97 224.23 131.74 221.3 111.73 233.76 95.42 240.54 94.54 249.29 113.97"/><polygon class="cls-16" points="240.54 70.59 249.29 113.97 233.76 95.42 233.76 81.19 240.54 70.59"/><polygon class="cls-16" points="244.69 86.59 262.64 94.72 261.87 74.11 244.69 86.59"/><polygon class="cls-17" points="121.58 21.44 115.2 83.72 121.58 120.58 157.88 122.25 186.92 160.86 214.84 144.11 240.54 70.59 223.22 55.52 198.65 23.67 121.58 21.44"/><polygon class="cls-18" points="198.43 24.67 174.89 132.11 162.87 138.25 173.06 152.48 186.92 166.45 220.43 148.58 230 109.22 228.53 101.31 233.76 95.42 240.54 70.59 224.34 45.46 198.43 24.67"/><polygon class="cls-19" points="216.8 91.25 230 109.22 233.76 95.42 216.8 91.25"/><polygon class="cls-19" points="224.06 87.9 227.13 75.06 235.23 76.73 224.06 87.9"/><polygon class="cls-18" points="174.63 53.27 148.2 86.79 123.53 49.37 174.63 53.27"/><polygon class="cls-17" points="115.2 83.72 184.09 90.13 185.52 106.29 174.89 135.46 153.04 130.27 118.22 127 115.2 83.72"/><polygon class="cls-18" points="184.09 90.13 198.65 91.25 209.07 65.94 218.78 61.84 222.94 68.17 204.82 134.63 174.89 133.23 184.09 90.13"/><polygon class="cls-2" points="115.2 83.72 184.09 90.13 174.89 132.11 153.04 130.27 118.22 127 115.2 83.72"/><polygon class="cls-2" points="184.09 90.13 198.65 91.25 209.07 65.94 218.78 61.84 222.94 68.17 204.82 134.63 174.89 133.23 184.09 90.13"/><polygon class="cls-19" points="153.04 130.27 204.82 134.63 173.06 152.48 153.04 130.27"/><polygon class="cls-18" points="163.91 38.17 158.45 65.66 161.36 83.35 164.26 65.66 163.91 38.17"/><polygon class="cls-19" points="129.21 103.35 158.06 105.59 158.06 109.22 129.21 107.08 129.21 103.35"/><polygon class="cls-18" points="163.68 69.2 169.66 81.85 162.37 77.17 163.68 69.2"/><polygon class="cls-18" points="131.6 66.55 121.99 79.25 130.67 75.11 131.6 66.55"/><polygon class="cls-20" points="151.73 51.52 148.2 86.79 136.16 85.67 141.49 50.74 151.73 51.52"/><polygon class="cls-19" points="148.2 86.79 141.12 92.18 136.16 85.67 148.2 86.79"/><polygon class="cls-21" points="174.63 53.27 151.1 57.75 151.73 51.52 174.63 53.27"/><polygon class="cls-21" points="140.53 57.02 141.49 50.74 123.53 49.37 140.53 57.02"/><circle class="cls-22" cx="162.26" cy="65.66" r="3.82"/><circle class="cls-22" cx="130.61" cy="62.86" r="3.82"/><polygon class="cls-23" points="121.58 21.44 152.57 28.14 198.43 24.67 215.96 26.56 233.76 20.04 195.95 6.75 180.42 6.92 178.93 0.78 121.58 21.44"/><polygon class="cls-24" points="152.57 28.14 195.95 6.75 178.93 0.78 142.18 25.89 152.57 28.14"/><polygon class="cls-9" points="198.43 24.67 203.75 31.67 210.38 35.22 208.05 37.34 214.84 46.29 230.86 53.19 244.17 57.99 241.17 44.67 236.25 38.94 238.35 35.31 233.76 20.04 198.43 24.67"/><polygon class="cls-15" points="214.84 46.29 209.07 65.94 240.54 70.59 244.17 57.99 214.84 46.29"/><polygon class="cls-23" points="203.75 31.67 238.35 35.3 241.17 44.68 208.05 37.34 203.75 31.67"/><polygon class="cls-15" points="241.17 44.68 253.06 49.37 262.3 58.48 244.17 57.99 241.17 44.68"/><polygon class="cls-15" points="274.05 70.58 244.69 86.59 257.36 57.44 274.05 70.58"/><polygon class="cls-16" points="269.86 42.38 274.05 70.58 241.17 44.68 269.86 42.38"/><polygon class="cls-3" points="231.64 144.43 227.4 155.35 186.92 166.45 192.5 151.7 231.64 144.43"/><polygon class="cls-3" points="186.92 166.45 161.92 151.7 159.23 137.13 180.04 149.01 186.92 166.45"/><polygon class="cls-1" points="133.86 232.68 124.33 256.89 114.33 261.75 102.2 258.83 95.87 219.69 117.89 220.92 133.86 232.68"/><polygon class="cls-5" points="93.94 206.52 95.87 219.69 133.86 232.68 133.86 232.68 136.9 225.01 93.94 206.52"/><polygon class="cls-12" points="124.33 256.89 130.52 270.39 129.87 281.44 123.4 281.44 115.42 268.41 118.86 257.37 124.33 256.89"/><polygon class="cls-6" points="124.33 256.89 123.4 281.44 109.64 282.41 99.77 277.47 102.2 258.83 124.33 256.89"/><polygon class="cls-1" points="123.4 281.44 121.48 295.04 106.89 290.15 99.77 277.47 123.4 281.44"/><polygon class="cls-16" points="275.95 267.68 253.99 254.28 264.3 271.55 271.86 270.8 275.95 267.68"/><polygon class="cls-16" points="282.18 287.55 273.24 311.33 270.98 291.33 277.7 287.91 282.18 287.55"/><polygon class="cls-7" points="276.63 283.53 273.53 274.33 329.71 255.37 334.59 258.84 332.82 264.56 276.63 283.53"/><polygon class="cls-8" points="345.11 260.42 342 251.22 334.46 249.66 329.41 255.47 332.51 264.67 340.05 266.23 345.11 260.42"/><polygon class="cls-16" points="340.64 259.01 339.3 255.04 336.05 254.37 333.88 256.88 335.21 260.84 338.46 261.51 340.64 259.01"/><polygon class="cls-8" points="282.18 287.55 282.01 276.92 275.95 267.68 264.3 271.55 264.65 282.45 270.98 291.33 282.18 287.55"/><polygon class="cls-16" points="120.22 336.33 103.95 336.7 114.43 322.14 264.3 271.55 267.64 281.44 262.64 288.26 120.22 336.33"/><polygon class="cls-15" points="121.11 341.93 103.95 336.7 267.64 281.44 270.98 291.33 121.11 341.93"/><polygon class="cls-1" points="263.95 237.63 273.59 259.92 288.09 267.53 296.95 259.54 301.61 224.36 291.77 223.1 263.95 237.63"/><polygon class="cls-5" points="263.95 237.63 301.61 224.36 303.42 209.52 260.59 230.43 263.95 237.63"/><polygon class="cls-6" points="273.59 259.92 280.39 282.26 292.67 280.31 304.95 273.97 296.95 259.54 273.59 259.92"/><polygon class="cls-1" points="304.95 273.97 301.61 282.52 284.14 292.49 280.39 282.26 304.95 273.97"/><polygon class="cls-12" points="227.4 155.35 181.74 181.11 161.92 151.7 158.06 152.48 180.87 185.22 231.64 156.15 227.4 155.35"/><polygon class="cls-1" points="181.74 181.11 177.71 186.61 180.85 189.95 184.33 187.51 181.74 181.11"/><polygon class="cls-6" points="167.63 185.23 163.91 177.19 174.2 181.36 176 187.35 167.63 185.23"/><polygon class="cls-12" points="163.91 177.19 173.67 187.03 167.63 185.23 163.91 177.19"/><polygon class="cls-6" points="194.81 188.94 200.55 182.2 189.51 183.45 186.18 188.74 194.81 188.94"/><polygon class="cls-12" points="200.55 182.2 188.5 189.06 194.81 188.94 200.55 182.2"/><polygon class="cls-1" points="162.74 192.3 197.62 197.07 194.81 188.94 180.9 188.5 167.63 185.23 162.74 192.3"/><polygon class="cls-1" points="171.4 193.49 188.96 195.88 191.14 201.43 167.81 198.24 171.4 193.49"/><polygon class="cls-12" points="167.63 185.23 181.63 187.87 194.81 188.94 183.11 202.83 175.17 201.75 167.63 185.23"/><polygon class="cls-25" points="173.56 193.78 178.06 194.4 179.38 196.07 181.98 194.93 186.55 195.56 179.54 198.5 173.56 193.78"/><polygon class="cls-26" points="177.35 199.59 178.06 194.4 181.98 194.93 181.27 200.13 179.21 200.58 177.35 199.59"/><polygon class="cls-26" points="167.63 185.23 180.02 194.66 194.81 188.94 167.63 185.23"/><polygon class="cls-1" points="179.14 202.29 177.35 199.59 181.27 200.13 179.14 202.29"/><polygon class="cls-19" points="148.2 86.79 156.25 92.28 158.06 105.59 148.2 86.79"/><polygon class="cls-19" points="136.16 85.67 129.61 92.1 129.21 103.35 136.16 85.67"/></svg>