<svg id="Layer_1" data-name="Layer 1" xmlns="http://www.w3.org/2000/svg" viewBox="0 0 400 400"><defs><style>.cls-1,.cls-17{fill:#2b2b2b;}.cls-1{fill-opacity:0.1;}.cls-2{fill:#1c7678;}.cls-3{fill:#369496;}.cls-4{fill:#318fa6;}.cls-5{fill:#3aa0ba;}.cls-6{fill:#27788c;}.cls-7{fill:#165e60;}.cls-8{fill:#ececeb;}.cls-9{fill:#dddddc;}.cls-10{fill:#cececd;}.cls-11{fill:#a27e6e;}.cls-12{fill:#bc8f2d;}.cls-13{fill:#e2a942;}.cls-14{fill:#e5c828;}.cls-15{fill:#7f5d4e;}.cls-16{fill:#593e35;}.cls-18{fill:#474747;}.cls-19{fill:#6f7173;}.cls-20{fill:#858686;}.cls-21{fill:#aa8d80;}.cls-22{fill:#fff;}.cls-23{fill:#030303;}</style></defs><title>sentinels_ISTJ_famous_real_denzel_washington</title><g id="Layer_1-2" data-name="Layer_1"><polygon class="cls-1" points="100.9 378.55 210.18 399.43 297.3 379.97 201.93 371.21 100.9 378.55"/><polygon class="cls-2" points="242.91 372.88 229.77 380.1 230.41 387.83 268.82 387.06 268.3 379.45 242.91 372.88"/><polygon class="cls-3" points="240.85 350.07 235.05 361.03 229.77 380.1 268.3 379.45 261.47 361.93 240.85 350.07"/><polygon class="cls-2" points="152.44 365.15 128.99 371.08 129.12 378.17 179.9 377.14 179.64 369.79 152.44 365.15"/><polygon class="cls-3" points="169.33 344.27 155.02 350.85 128.99 371.08 179.64 369.79 179.38 360.13 169.33 344.27"/><polygon class="cls-4" points="171.52 271.98 163.79 339.89 167.14 355.49 179.38 360.13 204.64 290.27 200.26 278.55 171.52 271.98"/><polygon class="cls-5" points="150.64 272.49 155.02 350.85 167.14 355.49 176.29 280.87 168.43 266.18 150.64 272.49"/><polygon class="cls-5" points="235.96 267.72 221.01 285.25 240.21 351.49 248.33 361.54 261.47 361.93 262.76 273.39 235.96 267.72"/><polygon class="cls-4" points="204.64 290.27 235.05 361.03 248.33 361.54 232.48 282.42 215.08 277.65 204.64 290.27"/><polygon class="cls-6" points="176.29 280.87 204.64 290.27 231.57 282.42 224.62 269.27 197.68 260.76 185.44 265.92 176.29 280.87"/><polygon class="cls-2" points="157.73 230.22 153.22 242.59 150.64 272.49 176.29 280.87 197.81 266.44 204 252.13 201.29 221.07 157.73 230.22"/><polygon class="cls-7" points="197.16 219.78 197.81 266.44 231.57 282.42 262.76 273.39 263.15 245.56 235.57 207.67 197.16 219.78"/><polygon class="cls-7" points="227.71 211.28 241.75 230.48 257.09 228.03 266.37 217.46 271.14 206.64 273.97 169.65 264.31 149.29 240.72 139.62 227.32 158.82 227.71 211.28"/><polygon class="cls-2" points="263.54 216.3 264.31 149.29 299.1 201.48 280.55 220.81 263.54 216.3"/><polygon class="cls-3" points="237.89 237.05 245.49 223.78 299.1 201.48 286.86 247.1 249.23 244.65 237.89 237.05"/><polygon class="cls-3" points="232.99 137.82 240.72 139.62 238.53 163.08 228.35 161.27 223.71 155.6 232.99 137.82"/><polygon class="cls-8" points="227.32 129.06 236.86 127.38 240.72 139.62 230.93 150.58 221.13 139.62 227.32 129.06"/><polygon class="cls-9" points="218.94 170.29 215.72 204.83 173.32 211.28 168.17 161.66 208.25 155.34 218.94 170.29"/><polygon class="cls-10" points="194.33 158.31 192.4 163.46 193.3 199.81 206.57 193.88 216.88 167.46 194.33 158.31"/><polygon class="cls-3" points="214.43 179.57 208.51 177.9 202.97 192.46 210.95 201.09 220.75 199.29 220.1 186.53 214.43 179.57"/><path class="cls-2" d="M144.33,216s17.27,2.45,19.71,2.84,27.32-2.71,27.32-2.71l-16-48.2,5.67-17.91-8-8.12-29,12Z"/><polygon class="cls-3" points="168.04 158.44 161.72 178.93 183.89 206.9 189.69 206.12 178.99 171.2 177.45 161.27 168.04 158.44"/><polygon class="cls-7" points="154.89 210.12 144.07 153.93 121.26 213.72 140.85 221.07 154.89 210.12"/><polygon class="cls-3" points="194.07 219.65 183.89 206.9 121.26 213.72 140.33 247.36 188.4 229.45 194.07 219.65"/><polygon class="cls-11" points="214.56 208.18 202.97 192.46 183.89 206.9 188.4 229.45 208.38 228.29 214.56 208.18"/><polygon class="cls-8" points="189.04 137.56 180.03 132.41 173.06 141.94 174.1 146.45 177.58 152.9 192.91 151.74 189.04 137.56"/><polygon class="cls-4" points="202.19 154.44 192.78 157.79 195.49 163.34 213.27 170.17 221.13 164.37 221.65 155.34 202.19 154.44"/><path class="cls-12" d="M208.51,177.9l6.7,9.15,4.51,2.83,13.79-.64,3-2.32,3.74-11.08L233.76,173l-19.71,1.16S208.63,178,208.51,177.9Z"/><polygon class="cls-13" points="208.51 177.9 240.21 175.84 238.53 163.08 219.07 167.07 208.51 177.9"/><polygon class="cls-14" points="209.79 163.59 208.51 177.9 238.53 163.08 222.42 160.11 209.79 163.59"/><polygon class="cls-13" points="221.65 155.34 209.79 163.59 238.53 163.08 227.71 156.25 225 154.19 221.65 155.34"/><polygon class="cls-12" points="228.35 218.88 245.49 223.78 227.06 231.12 208.38 228.29 218.3 218.11 228.35 218.88"/><polygon class="cls-13" points="219.07 214.88 215.21 187.05 226.42 186.02 230.67 204.96 228.35 218.88 219.07 214.88"/><polygon class="cls-5" points="194.2 145.03 192.91 151.74 192.4 157.66 194.2 158.31 221.65 155.34 217.91 142.2 194.2 145.03"/><polygon class="cls-4" points="173.84 151.48 168.04 158.44 178.99 171.2 189.3 163.59 192.4 157.66 173.84 151.48"/><polygon class="cls-15" points="192.91 151.74 217.91 142.2 223.07 142.46 224.36 137.04 236.86 127.38 245.75 95.81 236.86 44.9 220.1 33.43 216.75 98.25 199.61 130.34 192.91 151.74"/><polygon class="cls-16" points="205.93 121.84 205.54 130.22 224.87 129.57 192.91 151.74 172.29 121.71 205.93 121.84"/><polygon class="cls-16" points="243.56 81.11 235.7 83.95 245.75 95.81 248.84 84.47 243.56 81.11"/><polygon class="cls-17" points="239.18 71.96 231.19 71.45 229.77 46.83 242.14 37.94 256.83 39.49 253.1 60.49 239.18 71.96"/><polygon class="cls-18" points="209.02 6.5 234.02 5.85 256.83 39.49 229.77 46.83 225.39 40.78 206.06 23.38 202.97 13.33 209.02 6.5"/><polygon class="cls-19" points="147.03 17.06 173.06 3.4 195.62 0.57 234.02 5.72 206.44 17.06 170.49 31.63 147.03 17.06"/><polygon class="cls-17" points="157.86 27.38 154.64 19.9 147.03 17.06 142.78 41.16 155.8 30.73 157.86 27.38"/><polygon class="cls-11" points="142.78 41.16 144.33 100.06 167.52 130.99 205.67 130.22 223.46 102.89 225.39 40.78 206.44 17.06 173.97 24.8 154.64 19.9 142.78 41.16"/><path class="cls-15" d="M169.2,56l6.19,3.23,3.35,7.73L166,82.4,150.51,53l5.29-1.55L169.2,56Zm19.72-.25-6.58,3.48-.9,4.64,4.64,14.69,5.67,3.86,21.78-29.51-8.89-1.67Z"/><polygon class="cls-11" points="237.12 59.72 235.7 83.95 248.84 84.47 253.1 60.49 237.12 59.72"/><polygon class="cls-8" points="243.82 78.02 240.72 80.47 243.04 84.34 246.52 81.37 243.82 78.02"/><polygon class="cls-16" points="241.75 65.26 247.3 65.39 241.37 74.03 241.75 65.26"/><polygon class="cls-5" points="192.91 151.74 192.4 157.66 190.85 158.44 168.04 158.44 173.06 141.94 192.91 151.74"/><polygon class="cls-20" points="192.53 165.78 187.76 170.42 192.65 175.45 197.42 170.55 192.53 165.78"/><polygon class="cls-20" points="193.04 185.89 188.53 190.27 193.3 195.43 198.07 190.66 193.04 185.89"/><polygon class="cls-16" points="174.1 77.64 165.98 82.4 177.19 88.2 191.75 82.4 174.1 77.64"/><polygon class="cls-18" points="188.4 52.63 205.41 48.9 214.31 51.99 213.53 52.89 205.28 52.38 190.59 55.6 188.4 52.63"/><polygon class="cls-18" points="170.1 53.02 154.89 49.8 149.48 51.99 150.51 53.02 155.15 52.38 169.2 55.98 170.1 53.02"/><polygon class="cls-21" points="175.38 59.21 171.91 71.96 165.98 82.4 191.75 82.4 184.41 70.8 182.34 59.21 175.38 59.21"/><polygon class="cls-16" points="159.53 93.49 207.47 92.58 192.4 111.27 173.45 111.66 159.53 93.49"/><polygon class="cls-22" points="167.27 96.71 200 96.06 190.21 107.15 175.51 107.28 167.27 96.71"/><polygon class="cls-15" points="165.98 82.4 155.8 92.07 159.02 81.63 165.98 82.4"/><polygon class="cls-15" points="209.02 90.91 191.75 82.4 201.93 80.21 209.02 90.91"/><path class="cls-23" d="M194.77,60.89a3.77,3.77,0,0,1,4-3.46,3.58,3.58,0,0,1,3.46,3.81,3.79,3.79,0,0,1-4,3.47A3.59,3.59,0,0,1,194.77,60.89Z"/><polygon class="cls-15" points="223.97 200.45 202.97 192.46 208.38 228.29 228.35 218.88 223.97 200.45"/><polygon class="cls-2" points="189.3 163.59 195.49 163.34 192.91 151.74 189.3 163.59"/><polygon class="cls-14" points="226.42 186.02 228.35 218.88 231.44 219.01 233.25 216.04 236.47 186.92 226.42 186.02"/><polygon class="cls-15" points="244.33 228.67 245.49 223.78 233.25 216.04 228.35 218.88 236.08 230.61 244.33 228.67"/><polygon class="cls-11" points="245.49 223.78 227.06 228.93 221.01 239.63 227.06 254.45 249.23 244.65 245.49 223.78"/><polygon class="cls-15" points="227.06 228.93 208.38 228.29 207.09 241.3 227.06 254.45 227.06 228.93"/><polygon class="cls-12" points="217.91 150.19 221.65 155.34 227.71 156.25 230.93 150.58 225 147.1 217.91 150.19"/><polygon class="cls-14" points="217.91 142.2 217.91 150.19 230.93 150.58 231.96 141.69 224.36 137.04 217.91 142.2"/></g><path class="cls-23" d="M159,61.09a3.77,3.77,0,0,1,4-3.46,3.58,3.58,0,0,1,3.46,3.81,3.79,3.79,0,0,1-4,3.47A3.59,3.59,0,0,1,159,61.09Z"/></svg>