<svg xmlns="http://www.w3.org/2000/svg" viewBox="0 0 400 400"><defs><style>.cls-1,.cls-5{fill:#2b2b2b;}.cls-1,.cls-10,.cls-11,.cls-12,.cls-13,.cls-14,.cls-15,.cls-16,.cls-17,.cls-18,.cls-19,.cls-2,.cls-20,.cls-21,.cls-24,.cls-25,.cls-3,.cls-4,.cls-5,.cls-6,.cls-7,.cls-8,.cls-9{fill-rule:evenodd;}.cls-1{opacity:0.1;}.cls-2{fill:#185e60;}.cls-23,.cls-3{fill:#1d7678;}.cls-4{fill:#474748;}.cls-6{fill:#c18f7c;}.cls-7{fill:#fbe3d4;}.cls-8{fill:#ebebea;}.cls-9{fill:#28788b;}.cls-10{fill:#318ea5;}.cls-11{fill:#f4cab2;}.cls-12{fill:#3a9fb9;}.cls-13{fill:#cecdcc;}.cls-14{fill:#369395;}.cls-15{fill:#5ebfd8;}.cls-16{fill:#50a8a9;}.cls-17{fill:#8e8e8e;}.cls-18{fill:#a2a1a1;}.cls-19{fill:#c3c3c3;}.cls-20{fill:#fff0e8;}.cls-21,.cls-22{fill:#fff;}.cls-24{fill:#72cbcb;}.cls-25{fill:#92d5d5;}</style></defs><title>sentinels_ISTJ_famous_real_george_h_w_bush</title><g id="Layer_1" data-name="Layer 1"><polygon class="cls-1" points="97.77 379.4 206.25 399.24 306.25 376.84 193.13 367.24 97.77 379.4"/><polygon class="cls-2" points="231.36 376.13 253.5 369.92 269.23 376.15 269.23 379.64 231.36 379.63 231.36 376.13"/><polygon class="cls-3" points="239.21 341.96 256.49 357.32 269.23 376.15 231.36 376.13 232.17 359.24 239.21 341.96"/><polygon class="cls-4" points="244.49 278.75 249.35 280.66 256.49 357.32 232.17 359.24 218.17 309.87 224.17 272.52 244.49 278.75"/><path class="cls-5" d="M220.27,307l5.59,3.12,16,48.38-9.68.76-5.88-12.92s-12.36-22.68-11.51-23.07S220.27,307,220.27,307Z"/><polygon class="cls-5" points="227.94 264.38 248.61 271.55 249.35 280.66 225.6 288.44 230.78 274.55 227.94 264.38"/><polygon class="cls-6" points="125.06 139.72 131.62 124.84 135.94 135.56 125.06 139.72"/><polygon class="cls-7" points="110.82 157.79 105.7 153.32 102.98 125.16 131.62 124.84 129.38 151.56 110.82 157.79"/><polygon class="cls-8" points="112.42 173.8 106.98 166.44 105.7 153.32 129.38 151.56 131.44 165.91 112.42 173.8"/><polygon class="cls-9" points="118.73 199.56 137.7 207.88 155.37 206.12 168.37 214.08 171.7 173.42 159.37 158.52 114.25 182.12 118.73 199.56"/><path class="cls-10" d="M256.17,187.72l-7.68-33.92-13.11-6s-32.89,32-32,32.38-27.85,58.18-27.85,58.18l74-14.13Z"/><polygon class="cls-9" points="244.49 234.6 247.05 247.4 248.61 271.55 236.29 271.55 176.26 245.1 167.33 217.67 182.88 228.12 244.53 222.05 244.49 234.6"/><polygon class="cls-2" points="245.62 240.25 247.05 247.4 247.58 255.67 220.37 253.24 245.62 240.25"/><polygon class="cls-11" points="218.25 233 208.01 226.12 199.69 240.12 209.45 258.28 220.37 253.24 218.25 233"/><polygon class="cls-7" points="233.77 232.84 228.71 230.57 208.01 226.12 220.37 253.24 237.45 251.24 233.77 232.84"/><polygon class="cls-8" points="247.05 232.2 237.34 225.53 228.71 230.57 237.45 251.24 247.05 247.4 247.05 232.2"/><polygon class="cls-9" points="268.64 219.72 272.81 206.44 256.49 156.68 248.49 153.8 244.33 225.48 268.64 219.72"/><polygon class="cls-10" points="158.89 197.02 155.85 224.68 157.29 250.52 183.69 244.36 182.88 228.12 179.23 210.25 158.89 197.02"/><path class="cls-12" d="M164.21,173.57c-.72.26-4.84-15-4.84-15l-5.94,3.1,2.42,63.06,27,3.44Z"/><path class="cls-13" d="M209.45,169l-26.56,59.12-20.32-56.88s17.57-21.36,17.44-20.16S209.45,169,209.45,169Z"/><polygon class="cls-2" points="180.01 170.28 176.49 177.48 170.73 199.72 182.88 228.12 194.89 202.76 188.17 177.48 180.01 170.28"/><path class="cls-3" d="M173.23,190.05l-2.5,9.67,19.61-14.07-1.45-5.44-15.66,9.84Zm.09,15.73h0l18.52-14.47,1.87,7L175.6,211.1l-2.28-5.32Zm5.21,12.16h0l2.25,5.27,6-3.39,4.82-10.19C188.27,211.87,182.35,215.58,178.53,217.94Z"/><path class="cls-14" d="M171.85,162.44l4.64,15h11.68l6.88-18.24s-19-5.76-18.88-6.56S171.85,162.44,171.85,162.44Z"/><path class="cls-15" d="M168.49,161.64l.31,11,14.09,55.52c-7.34-6.78-11.12-14-18-21.4l-5.52-48.2Z"/><polygon class="cls-15" points="199.04 163.64 196 174.2 182.88 228.12 210.09 203.32 235.69 147.16 199.04 163.64"/><polygon class="cls-3" points="214.72 263.24 225.6 288.44 226.69 379.64 207.78 387.81 170.74 264.01 214.72 263.24"/><polygon class="cls-16" points="113.28 269.88 101.28 273.88 149.31 383.68 207.78 387.81 202.88 306.32 198.88 276.28 113.28 269.88"/><polygon class="cls-2" points="195.82 301 202.89 306.53 225.86 310.09 237.41 304.46 202.72 297.52 195.82 301"/><polygon class="cls-2" points="107.63 284.92 93.75 295.44 114.53 304.15 202.88 306.32 202.72 297.52 107.63 284.92"/><polygon class="cls-14" points="193.28 251.64 199.69 240.12 236.29 271.55 237.41 304.46 202.72 297.52 181.18 289.5 193.28 251.64"/><polygon class="cls-8" points="188.32 163.16 181.04 160.36 168.81 172.6 159.37 158.52 171.93 147.82 182.72 152.6 188.32 163.16"/><polygon class="cls-8" points="193.76 145.4 181.04 160.36 196 174.2 235.69 147.16 227.36 138.28 193.76 145.4"/><polygon class="cls-11" points="224.24 96.22 227.13 102.62 227.36 138.28 215.13 144.52 172.83 144.38 181.04 115.4 182.65 43.4 197.69 32.52 214 57.8 224.24 96.22"/><polygon class="cls-6" points="183.1 126.71 188.45 134.58 217.04 131.4 215.13 144.52 181.04 160.36 174.53 151.68 157.69 126.6 183.1 126.71"/><polygon class="cls-6" points="219.13 90.44 212.43 91.86 227.13 102.62 227.3 92.36 219.13 90.44"/><polygon class="cls-17" points="204.72 47.56 206 60.04 207.76 78.44 220.88 82.04 227 66.28 226 29.64 204.72 47.56"/><polygon class="cls-18" points="176.09 6.06 198.16 7.74 207.66 10.38 226 29.64 206 59.99 193.44 41.24 171.28 25.89 176.09 6.06"/><polygon class="cls-17" points="146.65 20.51 118.48 24.88 113.45 37.13 116.81 61.08 146.65 20.51"/><polygon class="cls-18" points="140.09 44.36 122.41 34.7 118.48 24.88 132.46 10.79 164.56 6.78 174.62 23.45 140.09 44.36"/><polygon class="cls-19" points="132.46 10.79 176.19 0.76 198.16 7.74 174.62 23.45 132.46 10.79"/><polygon class="cls-7" points="116.81 61.08 130.46 120.74 152.63 139.19 188.45 134.58 203.04 113.35 193.44 41.24 174.62 23.45 145.28 33.4 122.41 35.96 116.81 61.08"/><path class="cls-11" d="M134,69.28l-7.32,2,12.51,9.77,9,10.38L153.42,90l10.52,7.08,9.65-21.7,8.63-12.67s-11.72.56-11.85,0-8.74,6.73-8.74,6.73L156.4,75,153,76.93l-1.35-1.61-5.44-3.62-4.84-2.12Z"/><polygon class="cls-7" points="210.13 67.03 212.43 91.86 227.3 92.36 227 66.28 210.13 67.03"/><polygon class="cls-6" points="215.97 72.34 222.01 71.94 216.17 86.08 215.97 72.34"/><polygon class="cls-16" points="106.81 239.88 199.69 240.12 202.72 297.52 93.75 295.44 106.81 239.88"/><polygon class="cls-10" points="272.81 206.44 282.57 234.92 247.05 247.4 237.52 225.92 272.81 206.44"/><polygon class="cls-10" points="137.7 207.88 107.88 209.64 106.98 166.44 131.3 165 137.7 207.88"/><polygon class="cls-6" points="151.96 92.29 146.72 98.46 155.88 103 163.94 97.06 151.96 92.29"/><polygon class="cls-18" points="146.18 71.7 145.32 66.28 126.23 68.21 126.67 71.28 146.18 71.7"/><polygon class="cls-18" points="161.63 69.41 161.03 64.24 181.9 59.43 182.22 62.69 161.63 69.41"/><path class="cls-5" d="M141.16,74.76a3.54,3.54,0,1,1-3.31,3.75A3.52,3.52,0,0,1,141.16,74.76Z"/><path class="cls-5" d="M171.33,70.08A3.54,3.54,0,1,1,168,73.83,3.54,3.54,0,0,1,171.33,70.08Z"/><polygon class="cls-20" points="151.62 75.32 146.72 98.46 163.94 97.06 156.4 75.02 151.62 75.32"/><polygon class="cls-11" points="144.92 99.62 140.67 108.33 141.46 115.89 137.99 107.14 144.92 99.62"/><polygon class="cls-11" points="169.97 96.89 180.3 105.2 179.22 114.65 184.22 104.54 169.97 96.89"/><polygon class="cls-6" points="142.93 111.32 177.64 107.67 167.67 118.2 153.9 119.69 142.93 111.32"/><polygon class="cls-21" points="148.12 112.78 172.36 110.11 169.01 113.4 155.19 116.27 151.95 115.58 148.12 112.78"/><polygon class="cls-4" points="169.01 113.4 166.43 115.93 154.21 117.22 151.95 115.58 169.01 113.4"/><polygon class="cls-11" points="176.95 76.14 183.81 77.94 179.8 78.54 176.95 76.14"/><polygon class="cls-11" points="175.11 79.65 182.13 81.67 177.66 82.12 175.11 79.65"/><polygon class="cls-11" points="135.85 82.12 128.61 85.35 133.19 85.27 135.85 82.12"/><polygon class="cls-11" points="137.8 84.26 132.81 89.43 136.6 88.12 137.8 84.26"/><polygon class="cls-11" points="131.43 54.2 150.18 53.96 173.05 44.83 150.4 56.16 131.43 54.2"/><polygon class="cls-11" points="134.42 49.39 148.3 50.26 168.18 39.78 146.5 47.27 134.42 49.39"/><polygon class="cls-11" points="156.11 125.74 161.73 122.44 169.91 124.09 156.11 125.74"/><polygon class="cls-10" points="225.67 197.06 232.97 197.06 232.97 206.12 218.24 206.12 218.24 201.87 225.67 197.06"/><rect class="cls-22" x="224.68" y="196.32" width="8.3" height="1.39"/><rect class="cls-22" x="224.68" y="199.08" width="8.3" height="1.39"/><rect class="cls-22" x="218.24" y="201.91" width="14.74" height="1.39"/><rect class="cls-22" x="218.24" y="204.72" width="14.74" height="1.39"/><rect class="cls-23" x="218.24" y="196.29" width="7.44" height="5.62"/></g><g id="Layer_2" data-name="Layer 2"><polygon class="cls-14" points="157.21 354.55 152.36 355.49 149.48 359.98 151.99 359.65 152.98 357.66 158.02 356.6 157.21 354.55"/><path class="cls-3" d="M161.81,349.88c-.36,0-1.34,1.78-1.34,1.78l-4.84,2.87,1.17,3.07s9.36-2.13,9.89-2.11S161.81,349.88,161.81,349.88Z"/><polygon class="cls-14" points="164.79 357.79 164.02 358.21 160.16 364.08 168.9 370.34 177.01 363.94 171.99 358.2 164.79 357.79"/><path class="cls-3" d="M163.47,355.46l.55,2.75,4,2.55,4-2.56.7-3.17s-9.2-.25-9.06-.38S163.47,355.46,163.47,355.46Z"/><polygon class="cls-14" points="179.03 355.21 184.33 356.63 187.8 361.64 185.01 361.03 183.79 358.84 178.3 357.25 179.03 355.21"/><path class="cls-3" d="M173.91,350c.37,0,1.51,1.92,1.51,1.92l5.31,3.37-1.06,3.07s-9.87-3-10.4-3.06S173.91,350,173.91,350Z"/><polygon class="cls-3" points="175.39 341.28 178.24 341.3 180.38 337.08 177.99 333.77 184.15 326.42 194.4 321.28 189.08 333.04 188.1 341.91 175.42 351.96 174.66 347.39 175.39 341.28"/><polygon class="cls-3" points="159.77 340.92 157.06 340.8 154.81 336.63 156.86 333.49 150.72 326.31 141.33 321.46 146.65 332.52 148.02 340.95 160.47 351.66 160.84 346.95 159.77 340.92"/><polygon class="cls-24" points="164.57 336.07 162.51 337.25 160.58 340.26 173.14 341.45 174.16 339.3 172.67 337.36 169.96 335.11 164.57 336.07"/><polygon class="cls-24" points="164.18 330.35 163.89 329.33 166.33 328.22 171.8 330.69 171.26 331.47 172.67 337.36 169.78 336.4 167.74 337.15 165.97 336.49 162.51 337.25 165.78 333.49 164.24 331.32 164.18 330.35"/><polygon class="cls-14" points="159.56 338.98 158.86 344.34 160.47 351.66 168.09 358.25 175.42 351.96 176.72 344.82 175.33 339.01 171.01 340.08 167.43 338.15 163.38 340.01 159.56 338.98"/><path class="cls-24" d="M162.29,353.24l2.07,1.79L164,343.66l-2-.06.3,9.64Zm4.67,4,1.13,1,.92-.79-.42-13.68-2.05,0,.42,13.54Zm4.54-1.95,2-1.73-.29-9.68-2.08-.06Z"/><polygon class="cls-14" points="159.56 338.98 158.86 344.34 176.71 344.84 176.72 344.82 175.33 339.01 171.01 340.08 167.43 338.15 163.38 340.01 159.56 338.98"/><polygon class="cls-25" points="163.89 329.33 162.08 329.9 162.19 331.96 165.85 331.41 163.89 329.33"/><path class="cls-14" d="M166.55,311.93a2.89,2.89,0,0,1,3,2.68,2.78,2.78,0,0,1-2.87,2.76,2.9,2.9,0,0,1-3-2.68,2.76,2.76,0,0,1,2.84-2.76ZM153,318.18a2,2,0,0,1,2,1.83,1.84,1.84,0,0,1-1.9,1.86,2,2,0,0,1-2-1.83,1.84,1.84,0,0,1,1.89-1.86ZM181,318a2,2,0,0,0-2.05,1.92,2.08,2.08,0,0,0,2.16,1.91,2,2,0,0,0,2.06-1.93A2.07,2.07,0,0,0,181,318Zm-6.28-3.41a2.38,2.38,0,0,0-2.46,2.35,2.51,2.51,0,0,0,2.6,2.31,2.38,2.38,0,0,0,2.48-2.35,2.49,2.49,0,0,0-2.62-2.31Zm-15.95.2a2.44,2.44,0,0,1,2.52,2.26,2.3,2.3,0,0,1-2.37,2.3,2.42,2.42,0,0,1-2.5-2.25A2.3,2.3,0,0,1,158.74,314.75Z"/><polygon class="cls-14" points="143.97 348.1 145.21 354.92 150.87 356.79 148.94 351.65 143.97 348.1"/><polygon class="cls-14" points="192.29 347.95 191.97 355.23 185.93 357.11 187.25 351.72 192.29 347.95"/></g></svg>