<svg id="Layer_1" data-name="Layer 1" xmlns="http://www.w3.org/2000/svg" viewBox="0 0 400 400"><defs><style>.cls-1,.cls-25{fill:#2b2b2b;}.cls-1{fill-opacity:0.1;}.cls-2{fill:#412b23;}.cls-3{fill:#51362a;}.cls-4{fill:#72cacb;}.cls-5{fill:#c3c3c3;}.cls-6{fill:#9ca0a1;}.cls-7{fill:#165e60;}.cls-8{fill:#27788b;}.cls-9{fill:#5ebfd8;}.cls-10{fill:#8bdfdb;}.cls-11{fill:#cfae95;}.cls-12{fill:#318ea5;}.cls-13{fill:#73cee4;}.cls-14{fill:#369395;}.cls-15{fill:#1c7678;}.cls-16{fill:#3a9fb9;}.cls-17{fill:#50a8a9;}.cls-18{fill:#a8836c;}.cls-19{fill:#848585;}.cls-20{fill:#cdcdcc;}.cls-21{fill:#dcdcdb;}.cls-22{fill:#eed2c1;}.cls-23{fill:#4f5253;}.cls-24{fill:#474747;}.cls-26{fill:#a2a2a2;}.cls-27{fill:#f6e5db;}</style></defs><title>sentinels_ISTJ_famous_fictional_thorin_oakenshield_the_hobbit</title><g id="Layer_1-2" data-name="Layer_1"><polygon class="cls-1" points="111.37 368.96 229.27 400.19 293.91 384.46 155.19 362.91 111.37 368.96"/><polygon class="cls-2" points="265.34 131.95 287.13 139.45 312.8 163.66 319.09 204.58 296.57 196.59 282.05 177.22 265.34 131.95"/><polygon class="cls-3" points="161.48 124.2 145.26 171.65 150.1 192.71 162.93 186.66 184.97 176.98 164.39 160.51 161.48 124.2"/><polygon class="cls-4" points="310.86 234.6 319.09 204.58 307.95 203.85 302.87 210.39 310.86 234.6"/><polygon class="cls-5" points="98.05 340.64 121.53 332.4 122.5 315.22 128.07 335.8 104.83 344.75 98.05 340.64"/><polygon class="cls-6" points="98.05 340.64 103.86 341.61 108.46 349.84 111.37 368.96 103.86 367.03 98.05 340.64"/><polygon class="cls-7" points="187.87 185.45 174.07 220.07 177.7 245.73 190.78 254.93 213.05 256.39 236.53 241.13 231.93 193.2 187.87 185.45"/><polygon class="cls-8" points="191.99 260.74 212.32 260.02 224.67 256.39 204.58 199.73 183.27 249.61 191.99 260.74"/><polygon class="cls-9" points="231.93 193.2 242.1 160.75 279.63 171.65 299.24 193.68 294.64 209.9 289.07 232.66 243.07 258.56 234.6 246.94 234.84 237.26 231.93 193.2"/><polygon class="cls-9" points="240.16 251.06 243.07 258.56 258.81 262.44 261.71 256.39 263.16 249.36 255.66 246.22 240.16 251.06"/><polygon class="cls-10" points="257.6 233.15 255.66 246.22 261.71 256.39 273.33 246.22 267.28 235.56 257.6 233.15"/><polygon class="cls-9" points="263.89 226.61 257.6 233.15 271.39 244.28 276 242.83 278.42 235.08 281.08 230.72 263.89 226.61"/><polygon class="cls-9" points="306.74 318.85 283.5 329.26 267.28 319.82 263.16 297.54 262.2 277.21 267.76 261.95 282.05 261.95 306.74 318.85"/><polygon class="cls-10" points="284.95 226.12 271.64 223.94 278.42 235.08 284.47 239.68 293.19 239.2 293.43 229.03 284.95 226.12"/><polygon class="cls-8" points="222.49 326.35 209.66 308.68 219.59 296.57 261.71 287.38 262.2 316.67 247.67 328.29 222.49 326.35"/><polygon class="cls-11" points="301.66 261.47 292.7 240.16 302.87 210.39 321.27 252.75 301.66 261.47"/><polygon class="cls-12" points="222.49 326.35 238.71 357.58 255.66 358.8 266.55 349.84 263.65 328.29 264.38 321.27 262.2 316.67 222.49 326.35"/><polygon class="cls-9" points="266.55 349.84 265.83 344.03 234.35 345 235.32 351.29 266.55 349.84"/><polygon class="cls-13" points="232.42 345.48 235.32 351.29 263.89 328.29 254.94 327.08 232.42 345.48"/><polygon class="cls-9" points="227.09 335.31 229.51 340.15 263.65 328.29 263.16 323.45 227.09 335.31"/><polygon class="cls-8" points="278.42 235.08 304.32 242.34 302.87 269.7 271.88 274.06 262.2 267.52 261.71 256.39 278.42 235.08"/><polygon class="cls-14" points="268.01 256.63 280.11 241.86 298.75 246.7 297.3 265.59 274.3 269.22 268.01 256.63"/><polygon class="cls-15" points="234.84 371.38 238.23 356.86 266.55 349.84 274.79 371.38 268.49 375.74 240.65 375.98 234.84 371.38"/><polygon class="cls-7" points="235.32 381.07 275.03 381.55 274.79 371.38 234.84 371.38 235.32 381.07"/><polygon class="cls-9" points="270.91 262.68 276 253.97 282.53 255.9 283.99 247.91 298.75 246.7 270.91 262.68"/><polygon class="cls-16" points="282.53 262.44 282.53 255.9 290.52 259.53 298.75 246.7 270.91 262.68 282.53 262.44"/><polygon class="cls-14" points="250.57 257.36 265.34 280.84 271.88 274.06 261.71 256.39 250.57 257.36"/><polygon class="cls-7" points="185.45 302.39 194.89 310.62 209.66 308.68 222.73 302.63 206.51 271.64 191.75 276.72 185.45 302.39"/><polygon class="cls-4" points="257.6 312.55 258.32 299.96 261.71 292.94 267.76 294.4 264.62 304.56 257.6 312.55"/><polygon class="cls-17" points="274.54 304.56 267.76 294.4 257.6 312.55 261.71 316.67 265.34 318.85 269.46 315.7 274.54 304.56"/><polygon class="cls-4" points="263.65 328.29 262.2 316.67 269.46 315.7 263.65 328.29"/><polygon class="cls-17" points="283.5 329.26 263.65 328.29 269.46 315.7 283.5 329.26"/><polygon class="cls-9" points="201.91 278.66 218.62 313.76 258.32 299.96 257.6 293.43 253.48 279.38 227.82 288.34 214.75 271.15 206.51 271.64 201.91 278.66"/><polygon class="cls-15" points="244.04 266.56 233.39 261.47 214.75 271.15 224.19 294.88 252.03 282.77 256.14 280.35 244.04 266.56"/><polygon class="cls-10" points="213.05 256.39 211.35 263.41 214.75 271.15 244.04 266.56 250.09 264.62 250.57 257.36 239.92 250.82 228.79 248.88 213.05 256.39"/><polygon class="cls-12" points="234.84 237.26 213.05 256.39 240.16 251.06 234.84 237.26"/><polygon class="cls-14" points="212.56 256.87 212.56 270.67 199.49 277.21 189.81 274.06 189.32 270.67 187.14 261.95 190.78 254.93 200.7 248.64 212.56 256.87"/><polygon class="cls-10" points="200.22 255.18 194.65 258.56 193.68 267.04 199.73 271.4 205.54 267.04 205.54 259.05 200.22 255.18"/><polygon class="cls-9" points="197.56 261.23 199.98 259.53 201.91 261.23 201.91 265.1 199.49 267.28 197.31 265.1 197.56 261.23"/><polygon class="cls-10" points="175.77 251.3 190.78 254.93 189.32 270.67 181.82 271.64 173.1 260.02 172.62 251.78 175.77 251.3"/><polygon class="cls-17" points="258.32 299.96 252.03 282.77 257.11 280.35 265.34 280.84 267.76 294.4 258.32 299.96"/><polygon class="cls-12" points="179.16 240.16 190.78 254.93 175.77 251.3 174.56 244.77 179.16 240.16"/><polygon class="cls-18" points="192.23 174.07 192.71 183.03 204.58 199.73 222.73 190.05 225.4 176.74 192.23 174.07"/><polygon class="cls-11" points="244.04 266.56 250.57 257.36 265.34 280.84 252.03 282.77 244.04 266.56"/><polygon class="cls-8" points="172.38 177.94 174.07 189.57 190.53 194.17 204.58 199.73 194.41 177.46 172.38 177.94"/><polygon class="cls-8" points="204.58 199.73 231.93 193.2 237.02 182.79 237.5 177.46 225.4 178.19 204.58 199.73"/><polygon class="cls-15" points="231.93 193.2 242.34 184.24 237.5 177.46 231.93 180.12 231.93 193.2"/><polygon class="cls-11" points="143.32 204.82 128.56 213.29 116.94 218.86 131.94 243.31 158.33 238.71 160.27 233.63 152.28 204.82 143.32 204.82"/><polygon class="cls-9" points="148.89 188.6 172.38 177.94 190.53 194.17 179.16 240.16 173.1 260.02 162.45 244.77 157.85 222.49 149.86 210.87 148.89 188.6"/><polygon class="cls-9" points="157.85 198.77 148.89 188.6 143.32 204.82 147.2 210.39 153.01 207.24 157.85 198.77"/><polygon class="cls-10" points="154.46 210.87 157.85 198.77 147.2 210.39 150.59 214.02 154.46 210.87"/><polygon class="cls-4" points="150.34 224.91 147.2 210.39 154.46 210.87 155.91 218.13 150.34 224.91"/><polygon class="cls-10" points="165.35 217.17 154.46 210.87 150.34 224.91 155.91 228.06 160.75 226.61 165.35 217.17"/><polygon class="cls-9" points="167.29 242.59 169.96 232.9 165.35 217.17 155.91 228.06 153.49 239.44 164.63 247.67 167.29 242.59"/><polygon class="cls-10" points="171.89 245.97 167.29 241.62 153.49 239.44 159.79 254.93 171.89 245.97"/><polygon class="cls-8" points="166.57 291.98 160.03 312.07 187.87 323.69 204.09 322.24 209.66 308.68 166.57 291.98"/><polygon class="cls-12" points="160.03 312.07 174.07 348.87 187.87 354.44 203.37 349.11 204.09 322.24 160.03 312.07"/><polygon class="cls-9" points="203.37 349.11 203.37 343.54 174.8 337.73 171.65 342.82 203.37 349.11"/><polygon class="cls-13" points="169.71 337.97 171.65 342.82 203.85 334.58 200.94 329.26 169.71 337.97"/><polygon class="cls-9" points="163.42 321.27 165.84 328.05 203.85 334.58 203.85 329.74 163.42 321.27"/><polygon class="cls-18" points="77.23 263.89 76.75 250.82 84.25 251.3 84.25 260.26 86.43 263.89 77.23 263.89"/><polygon class="cls-8" points="90.3 231.45 95.14 229.03 101.92 231.45 119.11 219.83 119.84 212.81 126.38 208.45 135.09 226.61 131.94 243.31 100.47 249.85 90.79 240.16 90.3 231.45"/><polygon class="cls-14" points="94.9 229.03 103.14 226.85 105.07 222.49 115 220.8 119.84 212.81 125.65 225.4 124.68 237.74 102.65 241.86 94.9 229.03"/><polygon class="cls-9" points="95.14 229.03 119.84 212.81 116.94 223.46 105.8 223.46 104.1 229.51 95.14 229.03"/><polygon class="cls-14" points="76.02 238.23 76.75 250.82 93.94 237.5 90.3 231.45 76.02 238.23"/><polygon class="cls-6" points="86.67 261.23 104.1 324.18 111.37 339.19 118.39 339.67 95.39 254.93 89.34 250.33 86.67 261.23"/><polygon class="cls-19" points="83.77 259.77 105.8 337.97 111.37 339.19 110.16 328.29 102.89 310.37 98.54 285.92 88.61 262.2 87.4 254.69 83.77 259.77"/><polygon class="cls-20" points="103.86 341.61 125.17 334.83 122.5 315.22 136.54 324.9 132.67 358.31 111.37 368.96 103.86 341.61"/><polygon class="cls-5" points="111.37 368.96 115 360.98 133.64 351.05 139.94 353.23 144.29 363.64 140.9 373.56 132.67 362.18 111.37 368.96"/><polygon class="cls-21" points="122.5 315.22 130.25 324.18 153.49 340.15 164.15 335.31 145.99 320.06 122.5 315.22"/><polygon class="cls-20" points="164.15 335.31 155.43 336.04 142.11 363.64 140.9 373.56 155.19 362.91 164.15 335.31"/><polygon class="cls-6" points="110.64 345.24 115 360.98 135.33 354.19 142.11 363.64 149.86 357.83 155.43 336.04 142.84 325.87 130.25 324.18 131.7 338.7 110.64 345.24"/><polygon class="cls-5" points="133.16 346.2 138 335.8 148.89 341.12 143.08 351.05 133.16 346.2"/><polygon class="cls-5" points="115.97 352.02 119.11 347.17 124.2 349.11 121.53 353.95 115.97 352.02"/><polygon class="cls-15" points="173.1 260.02 162.93 284.71 181.82 303.6 201.91 278.66 189.32 270.67 173.1 260.02"/><polygon class="cls-9" points="162.93 284.71 156.88 299.48 185.69 312.55 201.91 278.66 189.32 270.67 179.64 298.03 162.93 284.71"/><polygon class="cls-11" points="92 253.24 83.77 259.77 80.38 255.42 76.75 250.82 93.94 237.5 92 253.24"/><polygon class="cls-22" points="100.47 249.85 88.61 262.2 83.77 259.77 93.94 237.5 100.47 249.85"/><polygon class="cls-10" points="284.95 226.12 294.64 222.01 302.87 210.39 298.75 201.91 293.67 199.73 284.95 226.12"/><polygon class="cls-9" points="299.24 193.68 293.67 199.73 302.87 210.39 304.08 203.61 299.24 193.68"/><polygon class="cls-10" points="319.09 204.58 299.24 193.68 302.87 210.39 319.09 204.58"/><polygon class="cls-4" points="293.19 239.2 302.87 210.39 284.95 226.12 293.19 239.2"/><polygon class="cls-2" points="152.77 74.08 161.48 124.2 170.2 106.04 164.39 76.26 162.93 71.9 152.77 74.08"/><polygon class="cls-22" points="164.39 76.26 162.93 99.5 166.57 104.59 162.93 106.04 160.75 142.36 232.66 147.44 235.56 76.99 164.39 76.26"/><polygon class="cls-11" points="162.93 106.04 173.1 114.76 178.19 135.82 186.18 138.72 194.16 136.55 208.69 116.21 223.22 110.4 208.69 106.04 198.52 111.13 189.81 112.58 186.18 116.94 184 111.85 179.64 109.67 171.65 104.59 162.93 106.04"/><polygon class="cls-2" points="160.75 142.36 158.58 175.04 197.07 183.27 231.93 180.12 237.02 172.86 237.02 151.07 232.66 147.44 212.32 136.55 168.02 135.82 160.75 142.36"/><polygon class="cls-2" points="183.27 83.53 164.39 76.26 167.29 68.27 187.63 50.12 191.26 68.27 183.27 83.53"/><polygon class="cls-3" points="252.27 52.29 217.41 74.08 183.27 83.53 185.45 65.37 187.63 50.12 252.27 52.29"/><polygon class="cls-2" points="235.56 76.99 247.91 69.72 252.27 52.29 211.6 72.63 203.61 80.62 235.56 76.99"/><polygon class="cls-2" points="234.84 97.33 235.56 76.99 253 69 266.8 74.08 259.53 84.25 234.84 97.33"/><polygon class="cls-3" points="266.8 74.08 252.27 52.29 235.56 76.99 266.8 74.08"/><polygon class="cls-3" points="234.84 97.33 258.08 100.23 285.68 88.61 266.8 74.08 234.84 97.33"/><polygon class="cls-3" points="282.77 127.1 253 109.67 255.18 99.5 285.68 88.61 282.77 127.1"/><polygon class="cls-2" points="264.62 140.18 279.87 136.55 282.77 127.1 269.7 111.13 261.71 127.1 264.62 140.18"/><polygon class="cls-3" points="250.09 139.45 241.38 135.82 240.65 127.1 243.55 111.85 253 109.67 256.63 129.28 250.09 139.45"/><polygon class="cls-2" points="233.39 139.45 236.29 127.83 240.65 127.1 250.82 131.22 239.2 145.26 233.39 139.45"/><polygon class="cls-11" points="234.84 97.33 243.55 111.85 240.65 127.1 233.39 139.45 234.84 97.33"/><polygon class="cls-2" points="253 109.67 284.95 88.61 285.68 88.61 255.9 93.69 246.46 106.04 253 109.67"/><polygon class="cls-23" points="255.9 93.69 234.84 97.33 240.65 127.1 253 109.67 255.9 93.69"/><polygon class="cls-22" points="250.82 131.22 253 109.67 269.7 111.13 265.34 131.95 256.87 134.85 250.82 131.22"/><polygon class="cls-18" points="256.63 114.03 255.18 124.2 266.07 114.76 256.63 114.03"/><polygon class="cls-3" points="232.66 164.15 232.66 147.44 233.39 139.45 250.82 131.22 243.55 156.16 232.66 164.15"/><polygon class="cls-2" points="231.93 180.12 232.66 164.15 250.82 131.22 255.9 156.64 248.64 166.32 246.46 174.07 231.93 180.12"/><polygon class="cls-3" points="187.63 50.12 152.77 74.08 164.39 76.26 187.63 50.12"/><polygon class="cls-24" points="197.8 106.04 223.22 103.14 223.22 110.4 198.52 111.13 197.8 106.04"/><polygon class="cls-24" points="181.09 104.59 179.64 109.67 162.93 106.04 162.93 99.5 181.09 104.59"/><polygon class="cls-18" points="185.45 140.9 178.19 135.82 184.97 133.4 194.16 136.3 185.45 140.9"/><path class="cls-25" d="M208.69,114a3.63,3.63,0,1,1-3.63,3.63A3.63,3.63,0,0,1,208.69,114Z"/><path class="cls-25" d="M172.38,111.85a3.63,3.63,0,1,1-3.64,3.63A3.64,3.64,0,0,1,172.38,111.85Z"/><polygon class="cls-22" points="173.1 146.71 202.16 147.44 202.16 167.05 192.71 154.7 182.54 154.7 173.83 165.6 173.1 146.71"/><polygon class="cls-18" points="176.73 149.62 176.73 151.8 199.25 152.52 199.25 149.62 176.73 149.62"/><polygon class="cls-3" points="264.62 209.18 258.08 190.29 258.81 186.66 267.52 186.66 268.25 200.46 264.62 209.18"/><polygon class="cls-2" points="271.88 207.72 267.52 211.36 264.62 209.18 267.52 186.66 271.88 207.72"/><polygon class="cls-26" points="264.13 217.89 264.62 209.18 271.88 207.72 271.88 217.17 267.76 220.8 264.13 217.89"/><polygon class="cls-2" points="263.89 226.61 264.13 217.89 271.88 217.17 278.42 235.08 263.89 226.61"/><polygon class="cls-2" points="273.57 176.25 248.64 166.32 250.82 131.22 265.34 131.95 275.75 163.66 273.57 176.25"/><polygon class="cls-3" points="299.24 193.68 273.57 176.25 265.34 131.95 299.24 193.68"/><polygon class="cls-3" points="282.77 127.1 312.8 163.66 265.34 131.95 282.77 127.1"/><polygon class="cls-2" points="258.08 190.29 267.52 186.66 253 177.22 231.93 180.12 258.08 190.29"/><polygon class="cls-3" points="267.52 186.66 231.93 180.12 248.64 166.32 260.26 178.67 267.52 186.66"/><polygon class="cls-23" points="252.27 52.29 203.61 80.62 183.27 83.53 252.27 52.29"/><polygon class="cls-27" points="184 111.85 178.19 135.82 194.16 136.3 189.81 112.58 184 111.85"/><polygon class="cls-1" points="271.88 274.06 286.41 272.12 289.8 279.63 265.34 280.84 271.88 274.06"/><path class="cls-13" d="M165.36,217.17l4.11-7,4.6-.72,1,17.91,2.18-9.68,3.39,1.21.48,13.8-8,27.36-6-18.4Zm130.25,76-2.91,3.14,1.7,10.41-4.12-5.08-2.18,2.66,5.33,20.58,13.31-6Zm-62.47-82.56,6.78-6.54,4.36,2.18-1.21,6.3,8.47-9.45,3.88,1.94-5.33,26.39,6-3.63,1.46,5.32-1.94,13.08-15.49,4.84-5.33-13.8Zm39-22.52,5.33,1.94,7-2.42-5.08,8,4.35,2.42,15.5-4.36-18.89-12.83ZM160,183.51l1.94,6.06,6.05.24v-5.57l3.87,2.42,9-1.21-8.47-7.51Z"/><polygon class="cls-15" points="210.39 257.36 211.11 269.7 199.49 277.21 201.91 278.66 214.75 271.15 213.05 256.39 209.9 255.18 210.39 257.36"/><polygon class="cls-17" points="210.39 257.36 213.05 256.39 203.12 247.43 200.7 248.64 210.39 257.36"/><polygon class="cls-9" points="159.79 254.93 167.05 241.62 173.1 260.02 159.79 254.93"/><polygon class="cls-15" points="155.19 362.91 174.07 348.87 203.37 349.11 203.37 362.18 199.25 365.57 161.48 366.06 155.19 362.91"/><polygon class="cls-7" points="155.43 372.11 203.37 372.35 203.37 362.18 155.19 362.91 155.43 372.11"/></g></svg>