<svg id="Layer_1" data-name="Layer 1" xmlns="http://www.w3.org/2000/svg" viewBox="0 0 400 400"><defs><style>.cls-1{fill:#1c7678;}.cls-2{fill:#165e60;}.cls-10,.cls-17,.cls-23,.cls-25,.cls-3{fill:#2b2b2b;}.cls-3{fill-opacity:0.1;}.cls-4{fill:#318ea5;}.cls-5{fill:#27788b;}.cls-6{fill:#50a8a9;}.cls-7{fill:#f4c9b2;}.cls-8{fill:#c1907d;}.cls-9{fill:#fce3d4;}.cls-11{fill:#3a9fb9;}.cls-12{fill:#369395;}.cls-13{fill:#72cacb;}.cls-14{fill:#73cee4;}.cls-15{fill:#5ebfd8;}.cls-16{fill:#cdcdcc;}.cls-17{fill-opacity:0.2;}.cls-18{fill:#8bdfdb;}.cls-19{fill:none;}.cls-20{fill:#a2a2a2;}.cls-21{fill:#8e8e8e;}.cls-22{fill:#848585;}.cls-23{opacity:0.1;}.cls-24{fill:#4f5253;}.cls-25{fill-opacity:0.15;}.cls-26{fill:#ffefe7;}</style></defs><title>sentinels_ISTJ_famous_fictional_stannis_baratheon_game_of_thrones</title><g id="Layer_1-2" data-name="Layer_1"><polygon class="cls-1" points="186.56 222.72 182.61 234.58 198.55 231.82 196.44 218.77 186.56 222.72"/><polygon class="cls-2" points="174.44 190.19 166.41 193.87 182.61 234.58 194.73 222.59 174.44 190.19"/><polygon class="cls-3" points="249.27 369.22 164.43 384.5 113.58 374.49 62.86 387.93 113.58 400.05 164.83 388.45 249.27 400.18 338.98 387.4 249.27 369.22"/><polygon class="cls-4" points="234.52 359.34 234.25 369.09 220.02 370.27 209.35 362.11 203.42 342.08 221.34 343.93 234.52 359.34"/><polygon class="cls-4" points="252.56 356.44 257.44 366.59 265.87 373.7 279.96 368.43 282.2 341.95 257.7 343 252.56 356.44"/><polygon class="cls-5" points="249.14 349.19 252.56 356.44 282.2 341.95 260.07 342.87 249.14 349.19"/><polygon class="cls-6" points="193.28 251.05 196.18 270.94 225.03 343 234.78 352.36 300.25 338 292.48 317.05 240.05 249.34 206.59 248.28 193.28 251.05"/><polygon class="cls-7" points="262.31 13.79 279.44 20.24 285.89 39.87 277.33 50.94 284.18 98.23 269.16 133.8 252.04 146.05 242.29 137.62 244.4 130.11 250.98 42.51 262.31 13.79"/><polygon class="cls-8" points="215.15 130.11 233.33 127.08 257.31 129.98 251.38 141.18 250.32 151.19 246.24 159.36 238.99 165.16 214.76 145.4 215.15 130.11"/><polygon class="cls-9" points="257.57 8.65 241.1 4.83 213.44 3.12 189.46 14.18 176.68 43.03 179.71 113.78 210.01 130.11 239.92 126.29 251.51 108.24 254.94 46.06 269.56 12.34 257.57 8.65"/><polygon class="cls-8" points="201.98 96.65 195.92 90.86 208.43 90.86 201.98 96.65"/><polygon class="cls-7" points="201.19 59.9 200.79 71.36 197.37 80.05 190.25 62.93 182.22 52.39 188.8 51.33 199.21 55.15 201.19 59.9"/><polygon class="cls-7" points="211.46 54.76 207.64 59.9 204.35 73.07 208.3 85.06 222.53 65.3 239.39 53.84 228.06 52.25 211.46 54.76"/><path class="cls-10" d="M220.81,62.52a3.5,3.5,0,0,1,3.57,3.54,3.7,3.7,0,0,1-3.73,3.53,3.49,3.49,0,0,1-3.57-3.53A3.7,3.7,0,0,1,220.81,62.52Z"/><polygon class="cls-5" points="242.03 159.62 251.38 141.18 269.16 133.8 270.48 146.19 262.84 152.77 242.03 159.62"/><polygon class="cls-5" points="230.56 156.59 225.29 141.31 215.02 136.57 213.04 144.34 219.1 155.54 230.56 156.59"/><polygon class="cls-11" points="237.41 199.41 228.59 243.94 207.9 185.57 213.04 144.34 235.83 160.41 237.41 199.41"/><polygon class="cls-6" points="270.48 146.19 293.67 153.3 290.64 163.84 259.15 206.13 244.79 207.05 241.63 204.68 259.41 155.67 270.48 146.19"/><polygon class="cls-12" points="291.82 214.69 246.11 204.15 246.11 204.28 225.69 244.46 243.47 246.7 280.89 248.02 285.89 245.52 291.82 214.69"/><polygon class="cls-13" points="213.04 144.34 199.74 148.56 195.92 156.99 193.68 190.71 195.92 199.15 207.9 206.92 222.4 203.49 213.04 144.34"/><polygon class="cls-12" points="228.72 243.67 230.56 224.7 222.13 202.17 195.92 199.15 193.68 242.49 211.73 245.52 228.72 243.67"/><polygon class="cls-5" points="193.68 242.49 193.28 251.05 221.74 252.5 229.77 251.31 236.76 252.5 260.2 256.19 286.82 253.55 285.89 245.52 236.89 243.67 229.38 245.52 221.87 243.41 193.68 242.49"/><polygon class="cls-13" points="293.67 153.3 308.68 200.72 280.23 226.02 266.66 231.82 243.6 220.49 257.83 202.31 293.67 153.3"/><polygon class="cls-2" points="266.66 231.82 268.9 240.64 261.79 253.03 248.35 230.1 255.07 226.15 266.66 231.82"/><polygon class="cls-12" points="308.68 200.72 266.66 231.82 261.79 253.03 308.68 200.72"/><polygon class="cls-5" points="222.13 202.17 232.01 202.97 238.07 201.65 246.11 204.28 228.72 243.67 222.13 202.17"/><polygon class="cls-11" points="206.85 226.15 266.66 231.82 257.83 202.31 246.11 204.15 205.27 209.16 203.42 217.59 206.85 226.15"/><polygon class="cls-4" points="235.83 160.41 232.01 202.97 245.71 204.15 270.48 146.19 235.83 160.41"/><polygon class="cls-14" points="226.35 168.45 235.18 167.4 243.74 168.45 244 165.16 235.44 163.84 226.61 165.16 226.35 168.45"/><polygon class="cls-14" points="225.69 177.8 234.25 177.01 242.95 177.8 243.21 174.38 234.65 173.19 225.95 174.38 225.69 177.8"/><polygon class="cls-14" points="224.9 187.29 233.46 186.23 242.16 187.29 242.55 183.86 233.73 182.68 225.16 183.86 224.9 187.29"/><polygon class="cls-14" points="223.98 197.69 232.54 196.38 241.37 197.69 241.63 194.14 232.94 192.69 224.37 194.14 223.98 197.69"/><polygon class="cls-4" points="233.46 284.12 236.76 252.5 221.74 250.13 220.95 287.28 234.91 300.58 236.49 317.05 236.23 325.48 241.63 326.67 248.74 325.48 249.01 313.89 234.91 300.58 233.46 284.12"/><polygon class="cls-15" points="221.87 243.41 221.87 245.91 234.25 246.31 234.25 250.13 221.74 250.13 221.74 252.5 236.76 252.5 236.89 243.67 221.87 243.41"/><polygon class="cls-5" points="220.95 287.28 233.46 284.12 249.01 313.89 236.49 317.05 220.95 287.28"/><polygon class="cls-15" points="236.29 325.47 248.7 325.47 248.63 328.3 236.22 328.3 236.29 325.47"/><polygon class="cls-5" points="279.96 368.43 284.31 389.11 266.4 391.35 252.96 389.11 257.44 366.59 279.96 368.43"/><polygon class="cls-11" points="252.83 395.04 284.05 395.17 284.31 389.11 252.96 389.11 252.83 395.04"/><polygon class="cls-11" points="186.83 387.66 233.73 387.66 233.86 381.73 211.86 377.78 186.96 381.73 186.83 387.66"/><polygon class="cls-5" points="234.25 369.09 233.86 381.73 186.96 381.73 209.35 362.11 234.25 369.09"/><polygon class="cls-13" points="183.66 335.49 234.78 352.36 193.28 251.05 183.66 335.49"/><polygon class="cls-12" points="236.76 252.5 300.25 338 286.82 253.55 236.76 252.5"/><polygon class="cls-5" points="234.52 360.13 234.78 352.36 203.42 342.08 234.52 360.13"/><path class="cls-16" d="M187.75,122.47l1.45,7.64Z"/><polygon class="cls-9" points="189.2 130.11 240.31 130.11 254.94 119.44 251.51 108.24 230.56 115.36 230.96 102.58 208.43 90.86 201.98 96.65 195.92 90.86 186.17 104.82 186.83 115.23 179.71 113.78 189.2 130.11"/><polygon class="cls-17" points="220.95 116.02 227.53 130.11 223.32 130.11 219.89 124.84 220.95 116.02"/><polygon class="cls-7" points="227.53 72.02 237.41 72.81 237.55 70.3 227.93 71.23 227.53 72.02"/><polygon class="cls-7" points="187.35 72.02 179.98 72.02 181.16 70.3 187.49 71.23 187.35 72.02"/><polygon class="cls-7" points="193.15 43.03 204.74 48.43 220.29 42.11 205.01 45.93 193.15 43.03"/><polygon class="cls-18" points="146.65 169.63 153.76 178.86 145.86 201.38 111.6 211 146.65 169.63"/><polygon class="cls-13" points="112 117.33 124.12 110.35 134.4 108.77 140.85 131.56 153.76 153.43 124.91 130.9 112.79 123.92 112 117.33"/><polygon class="cls-18" points="123.33 120.76 153.76 153.43 136.11 193.48 124.91 130.9 123.33 120.76"/><polygon class="cls-6" points="134.4 108.77 120.03 90.59 120.83 105.74 111.47 117.99 134.4 108.77"/><polygon class="cls-18" points="116.74 122.6 106.6 111.41 104.62 104.03 100.01 117.73 97.11 129.19 97.9 139.6 111.08 155.01 120.17 141.44 116.74 122.6"/><polygon class="cls-6" points="91.18 204.55 96.85 171.22 111.08 155.01 120.17 141.44 104.49 126.95 116.74 122.6 124.91 130.9 146.65 169.63 137.16 190.98 131.76 204.55 111.6 211 91.18 204.55"/><polygon class="cls-6" points="100.01 117.73 83.41 150.27 76.83 152.38 70.63 163.05 80.78 173.06 92.11 160.54 97.9 139.6 104.49 126.95 100.01 117.73"/><polygon class="cls-18" points="83.41 150.27 83.02 138.28 87.76 119.71 97.9 139.6 83.41 150.27"/><polygon class="cls-13" points="80.78 173.06 79.59 183.07 91.18 204.55 111.08 155.01 97.9 139.6 80.78 173.06"/><polygon class="cls-18" points="73.27 181.23 76.96 196.38 91.18 204.55 80.78 173.06 73.27 181.23"/><polygon class="cls-15" points="77.61 232.87 98.17 232.87 113.97 236.69 126.88 232.87 149.81 232.87 149.81 225.75 77.61 225.75 77.61 232.87"/><polygon class="cls-15" points="113.71 193.87 67.34 193.87 81.83 225.75 113.71 225.75 145.59 225.75 160.08 193.87 113.71 193.87"/><polygon class="cls-15" points="117.27 235.77 108.44 234.85 97.9 237.61 89.6 387.53 113.71 393.73 124.38 372.12 117.27 235.77"/><polygon class="cls-14" points="161.14 186.63 114.9 186.63 66.28 186.63 61.02 193.87 114.9 193.87 166.41 193.87 161.14 186.63"/><polygon class="cls-11" points="98.17 196.38 113.71 225.75 81.83 225.75 98.17 196.38"/><polygon class="cls-4" points="113.71 225.75 129.65 196.38 143.75 204.02 145.59 225.75 113.71 225.75"/><polygon class="cls-11" points="129.65 196.38 142.83 195.59 158.9 196.38 145.59 225.75 129.65 196.38"/><polygon class="cls-13" points="83.41 150.27 73.66 138.28 70.63 163.05 83.41 150.27"/><polygon class="cls-13" points="121.22 186.63 139.14 186.63 146.65 169.63 131.37 158.31 124.91 130.9 120.17 141.44 125.04 170.82 121.22 186.63"/><polygon class="cls-11" points="112.53 237.61 113.71 393.73 137.95 388.32 127.15 237.61 120.56 232.87 112.53 237.61"/><polygon class="cls-9" points="277.99 58.58 294.59 63.32 287.61 90.06 271.14 85.32 277.99 58.58"/><polygon class="cls-8" points="278.38 73.33 289.19 65.03 281.28 63.06 278.38 73.33"/><line class="cls-19" x1="298.8" y1="46.2" x2="269.29" y2="162.13"/><polygon class="cls-9" points="205.27 209.16 195.92 199.15 196.31 216.01 198.42 223.65 206.85 226.15 205.27 209.16"/><polygon class="cls-20" points="273.51 8.65 245.19 -0.18 230.3 3.51 232.54 6.54 259.28 10.76 259.28 10.76 273.38 12.87 273.51 8.65"/><polygon class="cls-21" points="273.25 24.46 288 31.18 290.5 23.8 273.51 8.65 259.28 10.76 273.25 24.46"/><polygon class="cls-22" points="277.07 37.37 284.84 36.45 295.91 42.64 296.17 56.73 286.82 58.31 268.9 48.43 277.07 37.37"/><polygon class="cls-20" points="189.46 14.18 209.09 8.52 212.12 4.17 209.22 2.19 189.46 14.18"/><polygon class="cls-7" points="264.16 83.48 240.31 130.11 257.31 129.98 271.14 85.32 268.11 81.5 264.16 83.48"/><polygon class="cls-23" points="189.2 130.11 240.31 130.11 251.51 108.24 230.56 115.36 230.96 102.58 208.43 90.86 201.98 96.65 195.92 90.86 186.17 104.82 186.83 115.23 179.71 113.78 189.2 130.11"/><polygon class="cls-23" points="264.16 83.48 240.31 130.11 257.31 129.98 271.14 85.32 268.11 81.5 264.16 83.48"/><polygon class="cls-24" points="270.74 56.34 264.16 83.48 271.14 85.32 277.99 58.58 294.59 63.32 296.17 56.73 268.9 48.43 270.74 56.34"/><polygon class="cls-20" points="273.25 24.46 290.5 23.8 295.91 42.64 277.07 37.37 273.25 24.46"/><polygon class="cls-8" points="271.14 85.32 284.18 98.23 287.61 90.06 271.14 85.32"/><polygon class="cls-7" points="195.92 199.15 198.42 223.65 194.73 222.59 191.04 210.47 195.92 199.15"/><polygon class="cls-8" points="222.53 106.53 195.13 106.53 195.13 103.5 222.79 103.5 222.53 106.53"/><polygon class="cls-9" points="200 148.56 215.02 136.57 205.67 108.38 189.2 130.11 200 148.56"/><polygon class="cls-7" points="205.67 108.38 220.95 116.02 223.32 130.11 215.02 136.57 205.67 108.38"/><polygon class="cls-4" points="127.15 237.61 126.88 232.87 114.24 232.87 98.17 232.87 97.9 237.61 127.15 237.61"/><polygon class="cls-16" points="209.22 2.19 208.96 12.47 220.16 12.34 232.54 6.54 245.19 -0.18 209.22 2.19"/><path class="cls-10" d="M190.34,61.78a3.49,3.49,0,0,1,3.57,3.53,3.7,3.7,0,0,1-3.73,3.53,3.49,3.49,0,0,1-3.57-3.53A3.7,3.7,0,0,1,190.34,61.78Z"/><polygon class="cls-3" points="205.53 146.71 195.92 199.15 199.74 148.56 205.53 146.71"/><path class="cls-25" d="M288.27,232.87l-19.63,12,22-24ZM236.76,252.5,249,313.89l-15.55-29.77Z"/><polygon class="cls-26" points="201.19 59.9 207.64 59.9 208.43 90.86 195.92 90.86 201.19 59.9"/><polygon class="cls-24" points="211.46 54.76 239.39 53.84 227.93 48.83 211.46 54.76"/><polygon class="cls-24" points="199.21 55.15 188.8 48.7 182.22 52.39 199.21 55.15"/><polygon class="cls-11" points="200 148.56 194.73 222.59 166.41 193.87 189.2 130.11 200 148.56"/><polygon class="cls-4" points="158.9 196.38 160.08 193.87 113.71 193.87 67.34 193.87 68.52 196.38 114.9 196.38 158.9 196.38"/></g></svg>