<svg id="Layer_1" data-name="Layer 1" xmlns="http://www.w3.org/2000/svg" viewBox="0 0 400 400"><defs><style>.cls-1{fill:#369395;}.cls-2{fill:#165e60;}.cls-24,.cls-3{fill:#2b2b2b;}.cls-3{fill-opacity:0.1;}.cls-4{fill:#f4c9b2;}.cls-5{fill:#c1907d;}.cls-6{fill:#fce3d4;}.cls-7{fill:#50a8a9;}.cls-8{fill:#3a9fb9;}.cls-9{fill:#318ea5;}.cls-10{fill:#5ebfd8;}.cls-11{fill:#27788b;}.cls-12{fill:#4f5253;}.cls-13{fill:#6f7173;}.cls-14{fill:#1c7678;}.cls-15{fill:#cdcdcc;}.cls-16{fill:#dcdcdb;}.cls-17{fill:#ebebea;}.cls-18{fill:#8bdfdb;}.cls-19{fill:#8e8e8e;}.cls-20{fill:#737373;}.cls-21{fill:#848585;}.cls-22{fill:#a2a2a2;}.cls-23{fill:#ffefe7;}</style></defs><title>sentinels_ISTJ_famous_fictional_inspector_lestrade_sherlock_holmes</title><g id="Layer_1-2" data-name="Layer_1"><polygon class="cls-1" points="134.14 190.98 120.47 172.4 146.98 160.65 156 187.98 134.14 190.98"/><polygon class="cls-2" points="110.64 307.68 90.41 312.6 121.02 331.18 131.13 315.87 110.64 307.68"/><polygon class="cls-2" points="223.78 311.5 229.52 315.33 250.01 312.32 231.97 273.51 224.32 284.17 223.78 311.5"/><polygon class="cls-3" points="82.76 383.38 165.84 398.95 256.84 383.65 276.79 379.82 186.88 366.98 82.76 383.38"/><polygon class="cls-2" points="165.84 321.61 170.21 324.07 184.97 321.88 192.35 316.15 179.23 302.48 165.84 321.61"/><polygon class="cls-4" points="249.47 278.16 260.67 279.8 262.31 293.74 243.45 297.84 237.99 289.09 249.47 278.16"/><polygon class="cls-5" points="253.02 272.97 256.57 281.99 238.53 289.91 228.42 273.24 253.02 272.97"/><polygon class="cls-6" points="242.09 261.76 248.37 264.5 262.58 273.79 257.66 289.09 251.65 288.55 253.02 278.7 231.97 273.51 230.61 267.23 242.09 261.76"/><polygon class="cls-7" points="234.16 246.73 243.18 251.38 248.37 264.5 230.88 270.78 221.32 256.02 234.16 246.73"/><path class="cls-8" d="M221.32,227.88l7.38-14.49,14.48,38-15.3,6s-5.47-9.84-6-9.84S221.32,227.88,221.32,227.88Z"/><polygon class="cls-8" points="309.04 169.12 300.57 153.54 284.44 148.9 282.53 157.37 292.92 177.32 301.94 180.32 309.04 169.12"/><polygon class="cls-9" points="297.84 181.42 295.92 174.31 307.68 168.03 317.24 183.6 313.41 197.27 308.49 195.35 297.84 181.42"/><polygon class="cls-10" points="283.08 204.37 292.37 226.78 296.47 204.1 283.08 204.37"/><polygon class="cls-8" points="292.64 202.46 289.64 210.66 292.37 226.78 268.87 218.58 265.04 212.3 267.5 199.73 292.64 202.46"/><polygon class="cls-11" points="276.52 178.96 295.92 174.31 313.41 197.27 289.64 210.66 272.97 202.46 266.68 193.99 267.5 181.96 277.07 178.96 276.52 178.96"/><polygon class="cls-8" points="253.02 165.29 249.74 154.09 275.7 165.84 260.4 175.95 253.02 165.29"/><polygon class="cls-9" points="248.65 169.39 258.21 164.2 284.44 148.9 295.92 174.31 271.06 185.52 265.04 190.98 258.76 186.88 248.65 169.39"/><polygon class="cls-4" points="234.71 193.72 228.97 189.07 246.73 175.13 249.47 179.5 244 192.08 234.71 193.72"/><polygon class="cls-10" points="243.73 177.32 251.65 190.16 265.04 188.52 258.21 164.2 249.74 154.09 243.73 177.32"/><polygon class="cls-12" points="245.09 372.44 256.84 375.72 256.84 383.65 204.1 383.38 204.37 374.63 245.09 372.44"/><polygon class="cls-13" points="212.84 348.94 204.37 360.15 204.37 374.63 256.84 375.72 229.24 355.5 212.84 348.94"/><polygon class="cls-9" points="208.2 277.07 187.97 289.64 179.23 310.95 204.37 360.15 216.67 357.69 219.95 344.02 208.2 277.07"/><polygon class="cls-12" points="124.3 372.17 107.08 379.55 107.08 388.02 147.8 388.29 148.07 380.92 124.3 372.17"/><polygon class="cls-13" points="133.32 352.77 115.56 357.14 107.08 379.55 148.07 380.92 142.06 364.25 133.32 352.77"/><polygon class="cls-9" points="115.56 357.14 130.86 361.24 136.87 358.23 148.07 312.05 123.48 319.7 115.56 357.14"/><polygon class="cls-8" points="203.01 277.89 216.67 357.69 229.24 355.5 229.79 281.99 226.24 263.4 203.01 277.89"/><polygon class="cls-8" points="194.53 265.04 200.27 280.89 142.06 364.25 130.86 361.24 141.52 323.53 140.15 276.25 174.59 258.76 194.53 265.04"/><polygon class="cls-11" points="156.55 269.96 189.62 295.92 226.51 270.24 220.22 245.91 177.59 243.45 156.55 269.96"/><polygon class="cls-14" points="220.22 245.91 212.84 256.3 250.01 312.32 229.52 247.82 220.22 245.91"/><polygon class="cls-12" points="185.24 238.81 196.18 251.93 203.01 260.94 212.84 256.3 217.76 247.01 216.94 208.2 184.7 225.96 185.24 238.81"/><polygon class="cls-1" points="203.55 194.53 212.84 256.3 229.52 247.82 228.69 213.39 203.55 194.53"/><polygon class="cls-13" points="185.52 207.93 194.81 227.33 196.18 251.93 189.07 262.31 171.58 253.84 163.38 231.43 184.97 206.83 185.52 207.93"/><polygon class="cls-14" points="158.46 233.07 175.95 256.02 156.55 326.81 90.41 312.6 132.5 236.35 158.46 233.07"/><polygon class="cls-1" points="145.34 205.74 129.22 217.76 132.5 236.35 176.22 255.75 182.78 231.97 179.5 218.31 145.34 205.74"/><polygon class="cls-15" points="181.14 156 188.25 201.09 207.93 200 211.21 168.57 181.14 156"/><polygon class="cls-12" points="212.57 180.6 204.37 175.95 192.35 197 200 203.83 207.93 200 212.57 180.6"/><path class="cls-16" d="M189.62,165.29l2.73,31.7s-8.75,4.92-7.38,5.74-21-23.5-21-23.5l11.2-15.85Z"/><polygon class="cls-13" points="160.37 180.6 168.3 176.77 192.35 197 189.07 209.56 156 187.98 160.37 180.6"/><polygon class="cls-1" points="209.56 186.06 213.94 160.65 228.97 171.58 228.97 189.07 228.69 192.35 212.57 192.62 209.56 186.06"/><polygon class="cls-17" points="204.37 175.95 189.34 165.57 195.35 155.73 205.74 151.63 211.48 164.47 204.37 175.95"/><polygon class="cls-18" points="203.01 200.27 205.74 151.63 213.94 160.65 218.86 191.25 214.76 197 203.01 200.27"/><polygon class="cls-4" points="244 198.09 251.65 190.16 271.06 185.52 272.97 202.46 265.04 212.3 244 198.09"/><polygon class="cls-6" points="227.6 198.91 228.97 189.07 251.65 190.16 265.31 212.3 241.27 208.47 227.6 198.91"/><polygon class="cls-7" points="214.21 206.83 218.86 191.25 228.97 189.07 241.27 208.47 228.69 213.39 214.21 206.83"/><polygon class="cls-8" points="184.42 205.74 191.25 197 218.86 191.25 228.69 213.39 182.78 231.97 184.42 205.74"/><polygon class="cls-17" points="163.93 179.23 154.36 149.99 158.73 145.62 188.79 161.47 189.34 165.57 163.93 179.23"/><polygon class="cls-18" points="146.98 160.65 154.36 149.99 177.04 193.44 178.14 224.87 153.27 201.09 146.98 160.65"/><polygon class="cls-4" points="171.85 149.99 189.62 165.84 205.74 151.63 223.5 106.81 214.48 56.25 201.09 42.04 192.62 52.15 171.85 149.99"/><polygon class="cls-5" points="183.33 120.2 171.85 149.99 196.45 148.9 189.62 165.84 155.46 149.72 183.33 120.2"/><polygon class="cls-5" points="220.22 93.42 214.76 96.7 223.5 106.81 226.24 99.43 220.22 93.42"/><polygon class="cls-19" points="222.14 51.88 237.17 42.04 232.79 75.66 218.58 83.31 210.38 82.76 210.93 65 210.93 58.16 222.14 51.88"/><polygon class="cls-20" points="213.94 39.31 237.17 42.04 226.51 51.88 210.93 65.54 201.09 46.14 213.94 39.31"/><polygon class="cls-19" points="196.18 12.53 212.57 14.71 237.17 42.04 201.91 46.96 197.81 46.96 180.05 22.36 196.18 12.53"/><polygon class="cls-21" points="120.2 30.84 121.57 13.35 174.31 1.05 212.57 14.71 185.52 24 182.78 28.65 124.3 43.68 120.2 30.84"/><polygon class="cls-22" points="185.52 24 135.78 51.06 129.76 42.31 123.21 31.93 121.57 13.35 185.52 24"/><polygon class="cls-19" points="114.73 40.95 107.63 38.22 121.57 13.35 129.76 42.31 120.75 44.77 114.73 40.95"/><polygon class="cls-20" points="128.67 47.78 119.93 39.58 107.63 38.22 112.55 58.44 128.67 47.78"/><polygon class="cls-6" points="112.55 58.44 116.92 121.84 139.06 149.72 171.85 149.99 201.64 124.3 201.91 46.96 185.52 24 129.76 42.31 119.93 39.58 112.55 58.44"/><polygon class="cls-4" points="133.59 73.74 140.97 75.38 146.98 83.03 149.72 86.59 151.63 83.03 158.19 74.29 174.04 71.01 184.15 72.38 171.85 84.13 157.09 104.08 141.79 102.44 131.95 84.13 119.65 74.29 133.59 73.74"/><polygon class="cls-5" points="146.44 100.52 138.78 104.62 148.62 110.36 156.82 104.35 146.44 100.52"/><polygon class="cls-6" points="217.49 73.2 214.76 96.7 226.24 99.43 232.79 75.66 217.49 73.2"/><polygon class="cls-5" points="221.32 79.75 220.77 88.5 227.33 80.3 221.32 79.75"/><polygon class="cls-14" points="120.47 172.4 192.35 197 182.78 231.97 129.22 217.76 120.47 172.4"/><polygon class="cls-4" points="147.26 149.72 151.63 142.06 154.36 149.99 147.26 149.72"/><polygon class="cls-20" points="158.19 74.29 173.49 69.64 184.15 72.38 158.19 74.29"/><polygon class="cls-20" points="140.97 75.38 128.67 71.01 119.65 74.29 140.97 75.38"/><polygon class="cls-23" points="146.98 83.03 138.78 104.62 156.82 104.35 151.63 83.03 146.98 83.03"/><polygon class="cls-5" points="137.69 122.66 147.8 120.47 167.48 122.66 167.21 124.57 148.62 123.21 137.96 124.3 137.69 122.66"/><polygon class="cls-4" points="161.47 105.99 170.49 114.73 167.21 106.81 161.47 105.99"/><polygon class="cls-4" points="137.42 107.63 131.95 114.73 131.95 108.72 137.42 107.63"/><polygon class="cls-4" points="148.62 117.47 145.89 113.37 148.35 110.09 150.81 113.1 148.62 117.47"/><path class="cls-24" d="M171.59,86.31a4,4,0,0,0,3.81-4.1,4,4,0,0,0-3.81-3.82,4.05,4.05,0,0,0-4.11,3.82A4.1,4.1,0,0,0,171.59,86.31Z"/><polygon class="cls-10" points="306.31 169.12 300.57 153.54 310.68 167.48 317.24 183.6 306.31 169.12"/><path class="cls-3" d="M121,331.18l20.5-7.65-18-3.83Zm8.2-113.42,37.71,19.41,15.85-5.2Z"/></g><path class="cls-24" d="M131.59,87.31a4,4,0,0,0,3.81-4.1,4,4,0,0,0-3.81-3.82,4.05,4.05,0,0,0-4.11,3.82A4.1,4.1,0,0,0,131.59,87.31Z"/></svg>