<svg id="Layer_1" data-name="Layer 1" xmlns="http://www.w3.org/2000/svg" viewBox="0 0 400 400"><defs><style>.cls-1,.cls-27{fill:#2b2b2b;}.cls-1{fill-opacity:0.1;}.cls-2{fill:#27788b;}.cls-3{fill:#318ea5;}.cls-4{fill:#916d5a;}.cls-5{fill:#165e60;}.cls-6{fill:#369395;}.cls-7{fill:#50a8a9;}.cls-8{fill:#3a9fb9;}.cls-9{fill:#8bdfdb;}.cls-10{fill:#1c7678;}.cls-11{fill:#c3c3c3;}.cls-12{fill:#ffefe7;}.cls-13{fill:#6f7173;}.cls-14{fill:#8e8e8e;}.cls-15{fill:#4f5253;}.cls-16{fill:#72cacb;}.cls-17{fill:#f4c9b2;}.cls-18{fill:#fce3d4;}.cls-19{fill:#c1907d;}.cls-20{fill:#8c675a;}.cls-21{fill:#7c574a;}.cls-22{fill:#8e6359;}.cls-23{fill:#bf8e7c;}.cls-24{fill:#af8272;}.cls-25{fill:#8e6355;}.cls-26{fill:#997064;}.cls-28{fill:#a3796c;}.cls-29{fill:#66433b;}.cls-30{fill:#cdcdcc;}.cls-31{fill:#a2a2a2;}</style></defs><title>sentinels_ISTJ_famous_fictional_eddard_stark_game_of_thrones</title><g id="Layer_1-2" data-name="Layer_1"><polygon class="cls-1" points="104.49 374.9 120.52 379.61 199.65 400.7 257.69 383.44 281.57 375.25 198.43 367.59 104.49 374.9"/><path class="cls-2" d="M133.77,367.41c-.53.35-13.25,6.28-13.25,6.28v5.92l46-.17.17-6.28-12.37-5.23Z"/><polygon class="cls-3" points="157.12 349.81 142.83 354.86 120.52 373.69 168.8 373.16 166.88 355.04 157.12 349.81"/><polygon class="cls-4" points="155.38 143.79 157.65 159.82 182.92 144.66 174.9 137.51 155.38 143.79"/><polygon class="cls-2" points="232.42 372.29 219.69 377.17 219.87 384.14 257.69 383.44 257.69 377 232.42 372.29"/><polygon class="cls-5" points="118.78 354.51 247.06 356.26 266.93 356.95 269.02 332.55 253.16 278 233.81 254.81 139.17 259 131.15 313.2 118.78 354.51"/><polygon class="cls-6" points="143.7 317.04 142.83 354.86 166.88 355.21 178.74 320.18 166.54 315.12 143.7 317.04"/><polygon class="cls-7" points="144.05 309.02 143.7 317.04 173.33 322.1 175.6 289.33 171.59 276.78 144.05 309.02"/><polygon class="cls-3" points="238 343.88 226.67 356.08 219.69 377.17 257.69 377 251.94 356.43 238 343.88"/><polygon class="cls-6" points="224.23 313.2 208.19 321.92 226.67 356.08 251.94 356.43 247.06 315.65 224.23 313.2"/><polygon class="cls-7" points="191.28 290.72 208.19 321.92 247.06 315.65 245.49 302.57 218.13 295.95 191.28 290.72"/><polygon class="cls-7" points="148.93 248.19 151.37 272.77 179.96 285.84 190.59 285.67 254.38 258.3 215.86 241.92 148.93 248.19"/><polygon class="cls-8" points="151.89 253.6 155.73 247.5 172.11 252.2 160.78 290.72 153.29 303.1 138.13 289.68 141.78 274.34 151.89 253.6"/><polygon class="cls-8" points="204.01 245.75 182.05 252.55 206.97 297 237.13 293.86 246.01 284.97 233.12 257.95 224.4 249.41 204.01 245.75"/><polygon class="cls-3" points="151.2 241.22 150.5 250.63 178.91 254.47 233.12 249.24 235.03 238.43 222.83 231.63 157.82 236.17 151.2 241.22"/><polygon class="cls-3" points="189.02 253.6 213.6 288.11 243.05 279.92 245.49 302.57 208.19 311.11 191.28 290.72 183.09 269.46 189.02 253.6"/><polygon class="cls-3" points="133.07 307.11 161.48 312.33 172.46 282.36 168.63 253.07 150.33 289.33 143.35 287.24 133.07 307.11"/><polygon class="cls-6" points="175.25 233.38 158 235.12 150.67 233.2 149.98 225.19 160.96 209.32 174.03 210.37 175.25 233.38"/><path class="cls-6" d="M193.55,138.56l-21.79,76.52,53.86,15.34s21.79-56.3,21.44-55.26S193.55,138.56,193.55,138.56Z"/><path class="cls-6" d="M214.81,227.28l10.81,3.14s10.28-26.32,16.56-42.53l-16.73-8.2-23.36-10.63Z"/><polygon class="cls-5" points="212.2 158.43 202.09 169.06 233.64 191.02 249.85 178.3 212.2 158.43"/><polygon class="cls-9" points="183.62 183.18 202.09 169.06 208.19 152.68 200.87 143.79 187.63 151.11 181.18 158.95 172.11 149.19 166.36 170.63 183.62 183.18"/><polygon class="cls-6" points="164.44 172.37 169.85 167.84 179.26 174.29 177.52 182.13 164.79 196.08 161.13 190.5 164.44 172.37"/><path class="cls-10" d="M155.21,167.84l8.19-1.92,4.53,3.14h0L145.45,190.5l-1.92-13.42c.7-3.31,1.22-5.93,1.39-7.15l6.45-2.09Z"/><polygon class="cls-7" points="138.82 169.76 132.2 183.18 130.98 211.94 144.23 216.12 148.23 207.93 146.49 177.6 138.82 169.76"/><polygon class="cls-3" points="148.41 167.32 126.8 144.84 126.62 178.65 146.84 182.13 148.41 167.32"/><polygon class="cls-8" points="176.3 148.67 169.85 167.84 146.84 182.13 126.8 144.84 137.78 138.74 172.64 136.99 176.3 148.67"/><path class="cls-3" d="M175.77,149.72l-5.92,18.12L150.33,146.4l6.62-2.78c5.05-1.05,10.63-2.27,10.46-2.79C167.23,140.13,173.16,146.75,175.77,149.72Z"/><path class="cls-11" d="M183.44,235.82l4.71,3.14,8.36,134.38-14.81,5.4s-5.58-42-5.58-43.57-1-91.86-1-91.86l3.66-2.26Z"/><polygon class="cls-12" points="178.74 241.05 174.03 235.99 168.98 239.3 166.71 373.16 181.7 378.74 178.74 241.05"/><polygon class="cls-13" points="178.56 176.91 174.38 174.47 169.85 167.84 176.82 165.4 187.45 167.84 182.4 174.29 178.56 176.91"/><polygon class="cls-14" points="169.85 167.84 178.74 161.74 187.45 167.84 169.85 167.84"/><polygon class="cls-15" points="179.43 188.58 172.98 185.97 174.38 174.47 182.4 174.29 184.14 187.89 179.43 188.58"/><polygon class="cls-16" points="162.53 193.81 130.98 211.94 137.6 243.14 160.09 213.51 162.53 193.81"/><polygon class="cls-17" points="168.1 189.63 173.68 180.22 189.02 184.92 192.5 192.77 188.67 200.78 188.67 212.29 171.59 211.07 168.1 189.63"/><polygon class="cls-18" points="170.19 209.67 173.68 201.83 173.68 180.22 158.69 195.9 154.68 217.17 165.84 214.21 170.19 209.67"/><polygon class="cls-17" points="186.23 211.76 173.68 201.83 161.48 215.43 165.84 233.2 178.39 229.72 186.23 211.76"/><polygon class="cls-18" points="196.86 215.25 191.98 211.59 173.68 201.83 178.39 229.72 191.46 232.16 196.86 215.25"/><polygon class="cls-7" points="234.68 204.27 223.01 208.28 200 210.72 198.6 216.99 205.4 228.5 212.2 234.42 235.03 238.43 234.68 204.27"/><polygon class="cls-16" points="200 210.72 212.2 234.42 198.43 233.9 191.46 230.76 191.98 211.59 200 210.72"/><polygon class="cls-7" points="257.87 180.91 239.04 174.29 223.01 208.28 235.03 238.43 259.78 210.72 257.87 180.91"/><polygon class="cls-10" points="251.42 165.93 202.09 169.06 224.4 249.41 271.81 324.19 304.93 342.66 269.89 172.2 251.42 165.93"/><polygon class="cls-5" points="304.93 342.66 304.93 342.66 275.47 173.94 260.65 169.06 239.04 174.29 304.93 342.66"/><polygon class="cls-3" points="242.88 152.85 276.52 130.72 275.47 173.94 239.04 174.29 242.88 152.85"/><polygon class="cls-8" points="201.57 145.01 202.09 169.06 239.04 174.29 276.52 130.72 252.46 117.99 215.69 129.5 201.57 145.01"/><polygon class="cls-3" points="211.68 139.08 201.74 154.77 202.09 169.06 233.12 145.53 233.29 124.09 211.68 139.08"/><polygon class="cls-19" points="164.62 141.52 178.74 161.74 201.74 154.77 219.17 140.65 183.97 112.42 164.62 141.52"/><path class="cls-20" d="M231.9,47.4l10.45,14.47,23.19,30.85-2.27,22.49S220.92,60.83,219.7,61C218.48,61.35,231.9,47.4,231.9,47.4Z"/><polygon class="cls-21" points="225.27 50.89 233.29 56.99 263.27 115.2 253.33 130.37 210.28 51.59 225.27 50.89"/><polygon class="cls-22" points="203.31 120.96 219.17 140.65 234.16 127.93 223.88 85.05 205.06 106.84 203.31 120.96"/><polygon class="cls-17" points="203.31 105.97 209.94 112.59 222.83 92.89 213.6 37.64 188.15 33.11 203.31 105.97"/><polygon class="cls-21" points="206.45 36.42 198.96 36.77 217.6 77.38 214.99 45.49 206.45 36.42"/><polygon class="cls-23" points="221.61 47.93 223.18 56.82 253.33 130.37 233.12 145.53 209.59 41.65 221.61 47.93"/><polygon class="cls-20" points="192.85 26.66 235.03 40.43 230.68 21.78 209.76 3.13 192.85 26.66"/><polygon class="cls-24" points="194.25 24.4 198.96 36.77 223.18 56.82 242.35 61.87 235.03 40.43 207.49 18.82 194.25 24.4"/><polygon class="cls-24" points="166.88 19.52 150.67 20.04 151.2 48.97 195.82 45.14 198.96 36.77 166.88 19.52"/><polygon class="cls-23" points="153.46 16.03 153.99 29.63 198.96 36.77 207.49 18.82 180.31 3.66 159.74 9.76 153.46 16.03"/><polygon class="cls-25" points="161.83 3.83 171.24 -0.7 209.76 3.13 207.49 18.82 160.61 11.85 161.83 3.83"/><polygon class="cls-26" points="144.4 17.08 134.64 14.81 171.24 -0.7 160.61 11.85 144.4 17.08"/><polygon class="cls-25" points="137.95 35.73 124.88 34.68 134.64 14.81 160.61 11.85 153.99 29.63 137.95 35.73"/><polygon class="cls-23" points="134.99 58.73 122.09 49.84 124.88 34.68 153.99 29.63 152.59 45.49 134.99 58.73"/><polygon class="cls-18" points="122.09 49.84 139 137.86 145.62 147.62 208.19 136.12 210.63 117.3 198.96 36.77 152.59 45.49 122.09 49.84"/><polygon class="cls-17" points="139.35 69.37 148.93 71.98 151.02 75.64 157.47 79.13 160.44 82.09 163.92 78.25 171.94 72.15 174.73 68.15 184.31 62.05 194.77 65.53 179.61 78.78 171.41 104.22 163.4 100.39 156.43 101.96 146.14 85.75 129.76 74.07 139.35 69.37"/><path class="cls-27" d="M179.61,75.47a3.31,3.31,0,1,1-3.31,3.31A3.31,3.31,0,0,1,179.61,75.47Z"/><polygon class="cls-28" points="136.73 125.31 134.29 140.48 146.14 150.06 219.17 140.65 209.94 112.59 197.04 120.78 186.41 108.06 171.41 104.22 164.27 107.71 156.25 106.84 147.71 114.51 143.53 127.23 136.73 125.31"/><polygon class="cls-22" points="161.48 102.13 156.25 106.84 165.66 110.33 171.41 104.22 161.48 102.13"/><path class="cls-29" d="M168.63,67.62,184.49,61l10.28,4.53-10.8.18-12,6.44Z"/><polygon class="cls-29" points="152.07 70.41 139 67.97 129.76 74.07 138.82 72.5 151.02 75.64 152.07 70.41"/><polygon class="cls-12" points="157.47 79.13 157.12 87.67 156.25 106.84 171.41 104.22 163.92 78.25 157.47 79.13"/><polygon class="cls-18" points="156.08 135.42 153.81 119.04 165.66 110.33 182.75 114.68 186.41 131.07 170.19 131.07 156.08 135.42"/><polygon class="cls-19" points="158.17 120.78 176.82 117.65 178.91 119.56 159.56 123.22 158.17 120.78"/><polygon class="cls-10" points="95.07 340.05 128.37 316.34 155.03 251.33 169.85 167.84 143.35 178.13 133.77 200.96 126.45 236.69 95.07 340.05"/><polygon class="cls-5" points="144.4 177.78 126.62 178.65 126.45 236.69 144.4 177.78"/><polygon class="cls-14" points="207.32 239.48 212.2 234.42 178.39 230.94 146.66 236.17 151.2 241.22 157.47 237.56 178.74 241.05 201.74 235.82 207.32 239.48"/><polygon class="cls-30" points="181.18 354.34 166.71 373.16 182.4 390.24 196.51 373.34 181.18 354.34"/><polygon class="cls-31" points="146.66 236.17 178.39 233.2 212.2 234.42 178.04 228.5 146.66 236.17"/><polygon class="cls-5" points="115.29 373.69 95.07 340.05 155.03 251.33 115.29 373.69"/><polygon class="cls-5" points="304.93 342.66 224.4 249.41 273.9 374.56 304.93 342.66"/><path class="cls-27" d="M145.1,80.69A3.32,3.32,0,1,1,141.79,84,3.32,3.32,0,0,1,145.1,80.69Z"/><polygon class="cls-17" points="134.12 91.33 136.21 87.49 140.56 87.49 134.12 91.33"/><polygon class="cls-17" points="188.84 78.95 197.38 79.82 193.2 77.21 188.84 78.95"/><polygon class="cls-17" points="152.07 61 158.87 60.65 179.43 51.94 152.07 61"/><polygon class="cls-19" points="189.02 184.92 188.67 200.78 191.81 200.26 196.17 187.19 189.02 184.92"/></g></svg>