<svg id="illustration_layer_copy_3" data-name="illustration_layer copy 3" xmlns="http://www.w3.org/2000/svg" viewBox="0 0 400 400"><defs><style>.cls-1,.cls-14,.cls-20{fill:#2b2b2b;}.cls-1{opacity:0.1;}.cls-2{fill:#f4c9b2;}.cls-3{fill:#1c7678;}.cls-4{fill:#369395;}.cls-5{fill:#c1907d;}.cls-6{fill:#165e60;}.cls-7{fill:#318ea5;}.cls-8{fill:#3a9fb9;}.cls-9{fill:#27788b;}.cls-10{fill:#ebebea;}.cls-11{fill:#fce3d4;}.cls-12{fill:#ffefe7;}.cls-13{fill:#6f7173;}.cls-15{fill:#cdcdcc;}.cls-16{fill:#8e8e8e;}.cls-17{fill:#c3c3c3;}.cls-18{fill:#a2a2a2;}.cls-19{fill:#50a8a9;}.cls-20{opacity:0.2;}.cls-21{fill:#fff;}.cls-22{fill:#dcdcdb;}.cls-23{fill:#4f5253;}.cls-24{fill:#848585;}.cls-25{fill:#5ebfd8;}</style></defs><title>sentinels_ISTJ_famous_real_anthony_hopkins</title><polygon class="cls-1" points="76.96 383.47 230.06 369.02 324.29 386.9 213.96 400 76.96 383.47"/><polygon class="cls-2" points="103.79 135.66 91.29 141.8 90.77 148.35 105.94 147.72 103.79 135.66"/><polygon class="cls-3" points="161.83 164.24 128.25 198.07 157.84 225.22 161.83 198.03 161.83 164.24"/><polygon class="cls-4" points="157.84 225.22 120.69 176.66 107.82 179.15 100.07 189.85 125.85 233.92 157.84 225.22"/><polygon class="cls-5" points="120.69 176.66 104.35 156.79 92.22 169.18 100.07 189.85 120.69 176.66"/><polygon class="cls-2" points="83.31 171.58 84.04 156.79 95.55 145.41 94.68 171.24 83.31 171.58"/><polygon class="cls-6" points="229.05 384.84 229.05 391.55 272.38 391.55 272.38 384.84 248.13 382.26 229.05 384.84"/><polygon class="cls-6" points="157.07 378.56 157.07 384.75 189.83 384.75 201.18 378.56 201.18 384.75 213.96 384.75 213.82 378.56 188.8 374.43 157.07 378.56"/><polygon class="cls-3" points="238.72 367.3 229.05 384.84 272.38 384.84 271.35 371.43 253.55 365.24 238.72 367.3"/><polygon class="cls-3" points="186.39 357.92 157.07 378.56 213.82 378.56 213.96 369.79 203.25 357.92 186.39 357.92"/><polygon class="cls-7" points="154.72 268.24 173.05 319.73 201.56 349.92 221.03 332.52 234.18 295 154.72 268.24"/><polygon class="cls-8" points="210.81 306.93 221.03 332.52 253.12 342.79 273.4 332.52 276.49 273.4 227.48 289.39 210.81 306.93"/><polygon class="cls-9" points="154.72 268.24 210.81 306.93 276.49 273.4 200.85 252.75 154.72 268.24"/><polygon class="cls-6" points="311.07 218.17 276.49 264.1 264.62 224.89 278.17 204.26 289.38 203.2 311.07 218.17"/><polygon class="cls-3" points="279.58 152.12 311.07 218.17 278.17 204.26 272.88 179.46 279.58 152.12"/><polygon class="cls-10" points="247.6 138.19 231.6 265.65 212.52 273.4 200.85 264.1 188.78 270.31 174.02 201.13 192.57 152.29 247.6 138.19"/><polygon class="cls-11" points="132.39 28.65 122.76 54.6 139.44 147.99 179.66 141.69 199.31 153.18 198.78 177.36 208.55 180.7 247.92 139.09 262.19 63.95 236.72 61.45 214.13 17.71 202.44 7.9 132.39 28.65"/><polygon class="cls-2" points="214.13 17.71 225.42 133.54 179.66 141.69 191.33 151.58 191.88 163.46 192.23 175.59 207.36 183.59 250.23 140.16 257.46 102.76 257.4 95.62 260.39 88.13 263.22 64.97 242.46 58.67 233.94 26.43 214.13 17.71"/><polygon class="cls-2" points="194.47 61.45 175.85 94.25 135.54 72.29 194.47 61.45"/><polygon class="cls-12" points="169.86 65.98 169.86 80.35 175.85 94.25 161.53 96.61 161.53 81.3 156.08 68.51 169.86 65.98"/><polygon class="cls-5" points="175.85 94.25 169.73 103.79 161.53 96.61 175.85 94.25"/><polygon class="cls-5" points="260.39 88.13 246.59 87.44 257.46 102.76 260.39 88.13"/><polygon class="cls-5" points="250.2 81.3 251.31 70.21 258.96 71.04 250.2 81.3"/><polygon class="cls-5" points="150.55 111.76 171.96 112.88 196.69 103.01 198.78 107.32 172.51 117.74 150.55 116.07 150.55 111.76"/><polygon class="cls-2" points="185.93 94.53 198.78 107.32 194.47 93.7 185.93 94.53"/><polygon class="cls-2" points="150.55 116.07 156.08 100.13 149.16 105.79 150.55 116.07"/><polygon class="cls-2" points="195.44 73.27 201.42 69.1 207.26 71.88 195.44 73.27"/><polygon class="cls-2" points="139.57 82.72 133.6 81.3 129.29 84.8 139.57 82.72"/><polygon class="cls-5" points="177.61 141.69 239.5 130.66 199.06 166.69 193.54 165.41 185.49 150.09 177.61 141.69"/><polygon class="cls-13" points="194.47 61.45 187.94 57.98 170.01 59.72 169.86 65.98 194.47 61.45"/><polygon class="cls-13" points="156.08 68.51 153.33 62.98 138.46 67.71 135.54 72.29 156.08 68.51"/><circle class="cls-14" cx="186.37" cy="73.86" r="4.21"/><circle class="cls-14" cx="147.09" cy="80.89" r="4.21"/><polygon class="cls-15" points="132.39 28.65 174.28 1.6 169.86 16.79 162.04 20.86 132.39 28.65"/><polygon class="cls-16" points="264.33 52.37 263.22 64.97 245.8 64.23 243.95 79.43 235.79 80.17 228.75 62.38 245.14 52.37 264.33 52.37"/><polygon class="cls-17" points="199.12 11.35 234.68 4.19 247.36 24.03 239.5 28.65 233.94 26.43 199.12 11.35"/><polygon class="cls-18" points="233.94 26.43 228.75 62.38 264.33 52.37 247.36 24.03 233.94 26.43"/><polygon class="cls-18" points="174.28 1.6 162.04 20.86 234.68 4.19 174.28 1.6"/><polygon class="cls-4" points="250.23 140.16 239.42 183.59 214.06 212.51 210.81 285.27 276.49 273.4 279.58 152.12 250.23 140.16"/><polygon class="cls-4" points="185.49 150.09 161.83 164.24 154.72 268.24 190.43 282.69 191.53 213.03 185.69 175.07 185.49 150.09"/><polygon class="cls-19" points="250.23 140.16 257.23 188.23 214.06 212.51 250.23 140.16"/><polygon class="cls-19" points="185.49 150.09 167.49 193.91 191.53 213.03 192.23 175.59 185.49 150.09"/><polygon class="cls-19" points="229.8 240.37 259.46 264.88 264.62 258.94 234.18 233.92 229.8 240.37"/><polygon class="cls-19" points="155.91 249.4 175.19 234.95 179.83 241.14 155.22 260.38 155.91 249.4"/><polygon class="cls-20" points="207.36 183.59 170.81 184.77 192.23 175.59 207.36 183.59"/><polygon class="cls-20" points="207.36 183.59 226.47 193.11 244.12 180.45 207.36 183.59"/><polygon class="cls-21" points="192.23 175.59 191.53 162.18 185.49 150.09 170.81 184.77 192.23 175.59"/><polygon class="cls-21" points="250.23 140.16 244.12 180.45 207.36 183.59 250.23 140.16"/><polygon class="cls-20" points="207.36 183.59 201.43 218.19 200.85 264.1 206.5 218.19 207.36 183.59"/><polygon class="cls-22" points="185.49 150.09 199.06 166.69 207.36 183.59 192.23 175.59 185.49 150.09"/><polygon class="cls-9" points="221.03 332.52 173.05 319.73 173.05 319.73 186.39 357.92 213.96 369.79 221.03 332.52 221.03 332.52"/><polygon class="cls-7" points="221.03 332.52 238.72 367.3 271.35 371.43 273.4 332.52 221.03 332.52"/><polygon class="cls-13" points="37.46 131.45 44.62 120.18 56.54 127.79 69.76 127.52 87.63 108.6 94.68 116.69 91.15 119.33 79.49 131.81 72.8 138.83 63.14 136.21 56.96 131.68 47.95 130.94 40.95 142.18 37.57 138.61 37.46 131.45"/><polygon class="cls-23" points="44.62 120.18 47.95 130.94 63.14 136.21 72.27 137.56 69.76 127.52 44.62 120.18"/><polygon class="cls-23" points="87.63 108.6 91.15 119.33 101.47 124.84 102.07 119.54 99.32 114.8 87.63 108.6"/><rect class="cls-24" x="79.96" y="157.98" width="1.79" height="15.88" transform="matrix(0.97, -0.26, 0.26, 0.97, -40.35, 26.72)"/><rect class="cls-24" x="85.3" y="156.55" width="1.79" height="15.88" transform="translate(-55.53 44.5) rotate(-22.09)"/><rect class="cls-24" x="74.63" y="159.42" width="1.79" height="15.88" transform="translate(-29.12 16.49) rotate(-10.46)"/><path class="cls-8" d="M95.55,145.41l-16.06-13.6L71.32,134l-8.18,2.2L56.08,156l1.71,12.31,16.68,28.4,12.8-3.45,12.8-3.44.25-34.1Zm-26.77,4,7.55.26L83,145.55l1.72,6.39-7.81-.18-6.41,4Zm17.31,36.71-4.28-2.47,2.47-4.28,4.28,2.46Zm6.13-16.9-19.55,5.26-3.26-12.08L89,157.09Z"/><path class="cls-7" d="M56.08,156l-12-4.29-5.57,4.07-1.09,9.44,37.07,31.49Zm2,20.91L54.75,175l1.91-3.31L60,173.63Z"/><path class="cls-7" d="M109.94,135.15l-6.15.51-8.24,9.75,4.52,44.44L116.33,144ZM104,165l-3.31-1.9,1.9-3.31,3.32,1.9Z"/><polygon class="cls-25" points="37.46 131.45 44.06 151.74 37.4 165.25 30.98 141.39 37.46 131.45"/><polygon class="cls-25" points="99.32 114.8 109.91 120.14 116.33 144.01 103.79 135.66 99.32 114.8"/><polygon class="cls-2" points="120.69 176.66 114.35 149.59 103.32 150.26 110.29 161.03 106.67 171.24 110.12 183.42 120.69 176.66"/><polygon class="cls-11" points="114.35 149.59 110.29 161.03 96.28 152.67 95.55 145.41 114.35 149.59"/><polygon class="cls-2" points="144.56 55.06 159.82 50.06 182.07 48.11 159.82 53.67 144.56 55.06"/></svg>