<svg id="Layer_1" data-name="Layer 1" xmlns="http://www.w3.org/2000/svg" viewBox="0 0 400 400"><defs><style>.cls-1{fill:#cc9262;}.cls-2{fill:#7c4e25;}.cls-3{fill:#9b6534;}.cls-4{fill:#af7546;}.cls-5{fill:#f4c9b2;}.cls-6{fill:#ebebea;}.cls-7{fill:#369395;}.cls-8{fill:#50a8a9;}.cls-20,.cls-23,.cls-9{fill:#2b2b2b;}.cls-9{fill-opacity:0.1;}.cls-10{fill:#72cacb;}.cls-11{fill:#fce3d4;}.cls-12{fill:#c1907d;}.cls-13{fill:#4f5253;}.cls-14{fill:#6f7173;}.cls-15{fill:#3a9fb9;}.cls-16{fill:#5ebfd8;}.cls-17{fill:#73cee4;}.cls-18{fill:#318ea5;}.cls-19{fill:#27788b;}.cls-20{fill-opacity:0.15;}.cls-21{fill:#cdcdcc;}.cls-22{fill:#474747;}.cls-24{fill:#8bdfdb;}.cls-25{fill:#1c7678;}.cls-26{fill:#dcdcdb;}.cls-27{fill:#165e60;}.cls-28{fill:#ffefe7;}</style></defs><title>sentinels_ISTJ_famous_fictional_hermione_granger_harry_potter</title><g id="Layer_1-2" data-name="Layer_1"><polygon class="cls-1" points="184.73 181.02 175.63 164.78 179.27 154.12 188.11 158.15 194.48 166.86 194.35 172.97 184.73 181.02"/><polygon class="cls-2" points="213.45 148.79 190.71 172.06 195.91 139.96 207.86 119.03 215.53 138.4 213.45 148.79"/><polygon class="cls-1" points="308.58 100.32 297.54 80.43 278.69 90.57 289.09 111.1 299.23 116.69 308.58 100.32"/><polygon class="cls-3" points="270.38 100.71 270.76 117.86 279.34 130.47 289.61 133.98 306.77 128.78 284.67 93.3 276.87 89.66 270.38 100.71"/><polygon class="cls-4" points="253.61 142.29 258.29 128.91 272.58 114.87 283.24 115.78 280.25 132.81 267.65 149.31 257.25 148.4 253.61 142.29"/><polygon class="cls-1" points="275.57 156.46 292.99 139.96 299.23 116.69 283.24 115.78 266.87 146.97 271.02 155.03 275.57 156.46"/><polygon class="cls-5" points="274.27 92.78 250.75 140.74 238.01 148.79 221.38 149.7 218.91 120.59 237.75 98.24 238.92 45.86 262.58 85.89 274.27 92.78"/><polygon class="cls-4" points="284.02 164.91 276.35 161.79 275.57 156.46 299.23 116.69 307.81 130.08 284.02 164.91"/><polygon class="cls-2" points="254.78 142.29 250.75 145.54 250.75 140.74 270.38 100.71 272.58 114.87 265.83 125.4 254.78 142.29"/><polygon class="cls-6" points="221.38 149.7 225.93 158.02 240.09 159.32 254.78 142.29 253.48 135.28 221.38 149.7"/><polygon class="cls-7" points="180.05 316.32 194.61 245.75 206.69 243.28 224.76 245.36 221.12 275.25 204.87 329.57 192.4 327.11 180.05 316.32"/><polygon class="cls-8" points="255.95 326.07 242.17 333.99 229.18 327.89 204.87 329.57 216.18 250.17 230.35 241.85 247.37 240.68 258.94 276.94 255.95 326.07"/><polygon class="cls-9" points="123.39 377.53 187.98 361.55 306.12 377.92 234.38 400.15 123.39 377.53"/><polygon class="cls-10" points="289.09 315.41 255.95 326.07 244.25 245.75 263.75 267.19 276.1 268.1 289.09 315.41"/><polygon class="cls-8" points="244.25 245.75 250.75 237.95 268.04 242.11 273.75 259.65 276.1 268.1 258.03 274.08 244.25 245.75"/><polygon class="cls-11" points="187.98 361.55 175.37 363.89 171.86 354.79 180.05 316.32 191.23 324.64 200.58 337.76 187.98 361.55"/><polygon class="cls-12" points="180.05 316.32 204.87 329.57 200.58 337.76 180.05 316.32"/><polygon class="cls-13" points="181.87 382.47 180.05 376.1 184.21 370.38 190.19 371.55 188.76 382.47 181.87 382.47"/><polygon class="cls-14" points="147.17 382.47 161.99 368.04 171.73 367.65 169 358.56 172.38 352.97 187.98 361.55 190.19 371.55 175.37 382.34 147.17 382.47"/><polygon class="cls-11" points="161.99 368.04 172.12 375.06 181.61 365.57 169 358.56 161.99 368.04"/><polygon class="cls-11" points="231 336.46 237.63 364.14 246.07 368.69 254.52 367 255.95 326.07 238.79 329.31 231 336.46"/><polygon class="cls-12" points="228.92 328.01 231 336.46 255.95 326.07 228.92 328.01"/><polygon class="cls-13" points="259.2 381.95 257.12 375.84 252.18 380.13 252.7 394.56 259.2 381.95"/><polygon class="cls-14" points="227.88 394.56 234.89 379.35 242.82 375.19 236.72 369.6 237.63 364.14 254.52 367 257.12 375.84 252.7 394.56 227.88 394.56"/><polygon class="cls-11" points="249.58 386.5 234.89 379.35 236.72 369.6 252.7 371.81 249.58 386.5"/><polygon class="cls-6" points="204.35 152.56 215.53 138.4 221.38 149.7 212.15 156.2 204.35 152.56"/><polygon class="cls-12" points="207.86 125.53 221.38 149.7 245.42 125.53 228.14 125.53 217.61 121.89 207.86 125.53"/><polygon class="cls-15" points="184.73 180.76 204.35 152.56 212.54 160.36 213.45 175.44 218.39 182.19 211.11 189.86 201.1 194.02 184.73 180.76"/><polygon class="cls-16" points="164.06 228.33 171.47 222.87 180.7 224.17 182.65 214.3 190.45 208.19 202.14 215.21 195.65 232.62 184.73 230.54 184.73 241.85 177.45 247.83 176.28 246.27 164.71 242.11 164.06 228.33"/><polygon class="cls-16" points="268.94 187.78 223.85 195.71 211.11 189.86 213.45 175.44 225.8 161.4 235.15 158.02 254.78 142.29 266.87 146.97 275.18 170.89 268.94 187.78"/><polygon class="cls-17" points="308.07 190.12 273.37 153.73 266.87 146.97 268.94 187.78 279.08 203.12 297.02 205.72 308.07 190.12"/><polygon class="cls-15" points="265.83 230.67 266.61 221.31 268.94 187.78 211.11 189.86 206.31 201.43 216.05 242.11 238.53 239.25 265.83 230.67"/><polygon class="cls-18" points="265.83 230.67 266.87 216.77 243.21 216.77 243.86 237.69 265.83 230.67"/><polygon class="cls-18" points="268.04 242.11 216.18 250.17 211.89 243.93 215.79 236 265.83 230.67 268.04 242.11"/><polygon class="cls-19" points="268.04 242.11 244.25 245.75 244.25 245.75 243.86 233.01 265.83 230.67 268.04 242.11"/><polygon class="cls-7" points="306.25 202.21 260.11 210.53 262.45 230.93 273.75 259.65 312.1 247.83 306.25 202.21"/><polygon class="cls-20" points="278.82 207.15 271.81 208.45 277 239.12 278.82 207.15"/><polygon class="cls-18" points="184.73 180.76 190.45 208.19 195.65 232.62 205.39 241.33 215.79 236 211.11 189.86 184.73 180.76"/><polygon class="cls-21" points="204.48 152.43 215.53 150.61 229.44 154.64 235.15 158.02 223.46 167.64 210.46 167.9 204.48 152.43"/><polygon class="cls-19" points="194.61 245.75 195.65 232.62 215.79 236 216.18 250.17 194.61 245.75"/><polygon class="cls-22" points="213.19 151 216.05 159.71 217.87 164.39 223.07 160.62 229.44 154.64 221.38 149.7 213.19 151"/><polygon class="cls-23" points="210.46 167.9 216.05 159.71 223.07 160.62 223.59 167.64 213.45 175.44 210.46 167.9"/><polygon class="cls-24" points="234.12 177.13 241.52 177.13 241 188.69 240.61 198.18 250.36 188.43 241 188.69 232.43 188.95 234.12 177.13"/><polygon class="cls-25" points="241.52 177.13 250.1 177.39 250.36 188.43 241 188.69 232.43 188.95 240.61 198.18 241 188.69 241.52 177.13"/><polygon class="cls-16" points="277 239.12 277.52 231.58 284.41 226.12 278.17 219.62 279.08 203.12 308.07 190.12 304.17 217.55 300.66 225.08 302.35 231.84 301.18 239.12 277 239.12"/><polygon class="cls-25" points="229.96 194.8 240.61 198.18 252.7 194.54 250.62 201.69 239.71 204.29 229.18 199.61 229.96 194.8"/><polygon class="cls-26" points="244.64 216.25 257.77 211.44 272.58 258.74 260.89 262.25 244.64 216.25"/><polygon class="cls-11" points="277 239.12 274.66 251.07 277.91 258.61 285.58 260.44 297.93 252.25 294.68 239.12 277 239.12"/><polygon class="cls-5" points="271.68 252.12 277 239.12 277.91 258.61 273.75 259.65 271.68 252.12"/><polygon class="cls-12" points="297.93 252.25 286.1 264.07 273.75 259.65 297.93 252.25"/><polygon class="cls-21" points="248.67 214.69 263.62 261.34 268.43 260.04 254 212.6 248.67 214.69"/><polygon class="cls-18" points="278.17 219.62 304.17 217.55 302.35 231.84 277.52 231.58 278.17 219.62"/><polygon class="cls-17" points="303.52 223.26 303 226.77 277.78 226.77 277.91 224.17 303.52 223.26"/><polygon class="cls-12" points="168.61 251.34 176.28 246.27 172.12 240.03 166.53 247.44 168.61 251.34"/><polygon class="cls-18" points="171.86 222.35 174.72 220.27 177.97 222.35 177.32 218.45 182.65 214.3 195.65 232.62 190.71 236.78 188.11 236.78 188.37 238.86 184.73 241.85 171.86 222.35"/><polygon class="cls-17" points="174.72 220.27 177.32 218.45 190.71 236.78 188.37 238.86 174.72 220.27"/><polygon class="cls-5" points="170.56 255.1 172.12 240.03 152.89 241.33 150.81 249.78 152.24 254.84 170.56 255.1"/><polygon class="cls-27" points="87.91 272.39 151.72 243.28 154.58 245.36 150.81 249.78 88.81 274.99 87.91 272.39"/><polygon class="cls-11" points="157.57 249.52 150.81 249.78 152.89 237.04 164.06 228.33 172.12 240.03 160.03 240.94 157.57 249.52"/><polygon class="cls-4" points="190.71 172.06 179.27 154.12 181.61 141.65 189.54 122.28 207.86 125.53 190.71 172.06"/><polygon class="cls-1" points="174.72 138.66 179.27 154.12 191.62 125.4 197.47 120.59 186.03 116.69 174.72 138.66"/><polygon class="cls-10" points="260.11 210.53 273.75 259.65 260.37 264.59 243.21 216.77 244.64 216.25 261.41 261.34 271.02 258.09 257.77 211.44 260.11 210.53"/><polygon class="cls-11" points="169.91 35.85 171.73 65.88 176.8 102.01 191.62 125.4 228.14 125.53 244.12 101.1 245.42 73.15 246.98 58.47 237.5 30.14 213.06 18.83 193.57 37.28 169.91 35.85"/><polygon class="cls-5" points="177.84 63.15 188.89 71.2 196.56 88.62 200.85 90.57 204.87 88.62 220.6 70.94 237.5 63.67 228.79 59.25 212.8 65.88 204.09 69.64 201.1 71.98 199.16 69.38 194.87 65.75 184.34 59.25 177.84 63.15"/><polygon class="cls-3" points="195.39 42.48 173.68 40.79 179.4 23.25 203.83 17.53 217.35 17.01 216.05 24.94 195.39 42.48"/><polygon class="cls-4" points="233.21 35.33 203.83 17.53 187.33 21.82 185.38 6.35 212.02 3.36 232.04 10.51 244.64 24.55 242.69 34.55 233.21 35.33"/><polygon class="cls-1" points="236.46 -0.15 212.02 3.36 241.91 24.94 250.49 23.51 251.27 13.63 236.46 -0.15"/><polygon class="cls-3" points="236.07 54.44 233.21 35.33 241.91 24.94 256.73 39.23 264.92 61.2 256.99 65.88 241.52 57.69 236.07 54.44"/><polygon class="cls-4" points="277.39 62.76 269.73 66.66 259.46 64.45 241.91 24.94 251.27 13.63 269.86 30.52 277.39 62.76"/><polygon class="cls-3" points="263.23 12.85 251.27 13.63 277.39 62.76 286.36 62.89 286.88 54.18 278.56 27.15 263.23 12.85"/><polygon class="cls-1" points="274.66 12.07 263.23 12.85 286.88 54.18 291.82 39.49 274.66 12.07"/><polygon class="cls-1" points="302.61 69.13 286.88 54.18 277.39 62.76 284.41 74.97 297.54 80.43 302.61 69.13"/><polygon class="cls-3" points="284.67 93.3 278.69 90.57 275.31 81.73 272.58 70.03 277.39 62.76 297.54 80.43 284.67 93.3"/><polygon class="cls-2" points="270.38 100.71 284.67 93.3 275.57 78.61 269.21 94.86 270.38 100.71"/><polygon class="cls-1" points="241.52 57.69 245.29 73.15 263.23 85.11 255.95 64.19 241.52 57.69"/><polygon class="cls-2" points="277.39 62.76 241.52 57.69 258.29 73.41 276.35 70.69 277.39 62.76"/><polygon class="cls-3" points="245.29 73.15 256.99 90.57 259.59 86.28 257.9 79.26 245.29 73.15"/><polygon class="cls-12" points="256.99 90.57 270.38 100.71 274.27 92.78 266.22 87.71 256.99 90.57"/><polygon class="cls-1" points="159.39 40.01 185.38 6.35 203.83 17.53 173.68 40.79 169.39 47.68 159.39 40.01"/><polygon class="cls-4" points="167.44 63.41 159.39 40.01 168.48 40.53 173.68 40.79 174.85 67.69 169.13 72.37 167.44 63.41"/><polygon class="cls-1" points="161.21 72.37 167.44 63.41 174.85 67.69 176.8 102.01 161.21 72.37"/><polygon class="cls-28" points="199.16 69.38 196.56 88.62 204.87 88.62 204.09 69.64 199.16 69.38"/><polygon class="cls-12" points="200.85 92.91 196.56 88.62 204.87 88.62 200.85 92.91"/><polygon class="cls-2" points="177.84 63.15 183.69 57.69 196.29 61.98 194.87 65.75 183.69 61.46 177.84 63.15"/><polygon class="cls-2" points="211.37 61.46 212.8 65.88 229.31 61.2 237.5 63.67 229.57 57.17 211.37 61.46"/><path class="cls-23" d="M188.89,68.21a4,4,0,1,1-4,3.9A3.94,3.94,0,0,1,188.89,68.21Z"/><path class="cls-23" d="M220.08,68a4,4,0,1,1-4,4A4,4,0,0,1,220.08,68Z"/><polygon class="cls-7" points="188.63 102.4 201.36 108.63 219.56 102.66 201.1 102.79 188.63 102.4"/><polygon class="cls-25" points="201.1 101.88 203.83 99.8 219.56 102.66 201.1 104.34 188.63 102.4 198.12 99.8 201.1 101.88"/><polygon class="cls-11" points="258.68 67.95 256.99 90.57 274.27 92.78 276.35 70.69 258.68 67.95"/><polygon class="cls-12" points="261.54 83.42 262.58 73.67 271.81 74.58 261.54 83.42"/></g></svg>