<svg id="illustration_layer_copy_3" data-name="illustration_layer copy 3" xmlns="http://www.w3.org/2000/svg" viewBox="0 0 400 400"><defs><style>.cls-1,.cls-15,.cls-19{fill:#2b2b2b;}.cls-1{opacity:0.1;}.cls-2{fill:#505354;}.cls-3{fill:#a77e62;}.cls-4{fill:#474747;}.cls-5{fill:#c09c84;}.cls-6{fill:#835940;}.cls-7{fill:#369496;}.cls-8{fill:#2b2c2b;}.cls-9{fill:#4f5253;}.cls-10{fill:#27788c;}.cls-11{fill:#3aa0ba;}.cls-12{fill:#73cfe5;}.cls-13{fill:#6f7173;}.cls-14{fill:#c9ad9b;}.cls-16{fill:#fff;}.cls-17{fill:#318fa6;}.cls-18{fill:#5ec0d9;}.cls-19{opacity:0.2;}.cls-20{fill:#1c7678;}</style></defs><title>sentinels_ISTJ_famous_real_condoleezza_rice</title><polygon class="cls-1" points="128.56 383.3 201.11 370.74 273.41 384.43 197.51 400 128.56 383.3"/><polygon class="cls-2" points="216.19 364.12 219.71 373.29 216.32 391.49 212.75 391.49 210.39 382.39 209.37 373.29 216.19 364.12"/><polygon class="cls-3" points="177.86 320.37 191.33 360.71 178.76 370.76 178.57 376.57 192.94 382.39 209.37 362.75 200.6 323.97 177.86 320.37"/><polygon class="cls-4" points="178.76 370.76 190.9 379.22 192.94 382.39 164.21 382.39 178.76 370.76"/><polygon class="cls-5" points="228.43 328.02 210.39 382.39 197.51 384.35 190.9 379.22 203.95 361.05 198.88 323.71 228.43 328.02"/><polygon class="cls-6" points="177.86 320.37 192.43 325.77 199.71 330.53 228.43 328.02 200.6 319.09 177.86 320.37"/><polygon class="cls-6" points="177.86 320.37 200.6 337.81 199.71 330.53 198.88 323.71 200.6 319.09 177.86 320.37"/><polygon class="cls-7" points="247.75 270.94 224.75 313.74 177.86 320.37 158.21 267.54 194.46 263.74 247.75 270.94"/><polygon class="cls-8" points="144.69 155.82 163.63 160 181.27 162.24 178.74 120.64 140.65 126.34 144.69 155.82"/><polygon class="cls-9" points="123.34 83.74 144.69 155.82 145.97 127.06 154.64 100.69 142.86 76.8 123.34 83.74"/><polygon class="cls-10" points="251.3 157.51 264.63 209.1 246.73 236.25 235.29 222.98 232.48 196.88 251.3 157.51"/><polygon class="cls-10" points="163.63 160 133.44 203.01 143.3 230.47 166.51 227.06 163.63 160"/><polygon class="cls-11" points="251.3 157.51 235.29 222.98 186.67 222.98 153.95 208.02 163.63 160 180.51 152.46 251.3 157.51"/><polygon class="cls-12" points="180.51 152.46 163.63 179.45 174.81 184.21 168.2 195.78 192.5 215.11 224.75 199.52 217.84 187.72 232.48 179.45 221.98 141.13 180.51 152.46"/><polygon class="cls-8" points="271.27 94.17 226.02 130.27 237.07 86.95 252.79 73.25 271.27 94.17"/><polygon class="cls-8" points="140.65 24.05 123.34 83.74 142.78 82.38 146.61 35 140.65 24.05"/><polygon class="cls-13" points="178.74 0.88 254.12 19.33 276.33 73.25 229.08 47.38 178.74 0.88"/><polygon class="cls-5" points="143.49 35.44 136.03 99.61 145.97 127.06 175.52 131.28 187.17 175.55 203.16 177.33 248.26 84.64 226.6 61.46 174.39 24.05 143.49 35.44"/><polygon class="cls-3" points="217.28 55.17 204.93 134.54 180.51 152.46 178.5 168.46 182.56 183.39 194.28 188.38 207.77 185.53 213.45 172.23 229.88 135.35 233.54 119.12 236.27 104.46 243.47 95.86 245.09 83.74 226.6 61.46 217.28 55.17"/><polygon class="cls-3" points="194.28 69.65 172.61 90.33 144.56 63.95 153.79 61.45 161.96 66.09 173.68 67.16 184.33 63.95 194.28 69.65"/><polygon class="cls-14" points="173.68 67.16 172.61 90.33 157.34 88.91 161.96 66.09 173.68 67.16"/><polygon class="cls-6" points="172.61 90.33 164.27 96.93 157.34 88.91 172.61 90.33"/><polygon class="cls-6" points="175.52 131.28 218.78 135.97 180.51 152.46 175.52 131.28"/><polygon class="cls-6" points="166.75 32.14 227.75 48.59 248.26 84.64 243.47 95.86 231.49 84.37 213.45 78.4 192.15 58.43 166.75 32.14"/><polygon class="cls-6" points="229.08 100.86 233.54 119.12 239.18 105.91 236.27 99.97 229.08 100.86"/><polygon class="cls-9" points="194.28 69.65 187.88 62.52 175.99 62.52 173.68 67.16 185.4 65.02 194.28 69.65"/><polygon class="cls-9" points="161.96 66.09 159.12 61.28 148.82 59.49 144.56 63.95 152.72 62.52 161.96 66.09"/><ellipse class="cls-15" cx="184.8" cy="74.31" rx="3.53" ry="3.55"/><ellipse class="cls-15" cx="151.11" cy="70.77" rx="3.53" ry="3.55"/><polygon class="cls-6" points="188.42 103.16 164.09 98.17 145.8 99.81 156.28 113.32 172.61 115.11 188.42 103.16"/><polygon class="cls-16" points="151.84 101.02 163.56 104.06 181.67 103.52 172.79 111.18 156.1 109.4 151.84 101.02"/><polygon class="cls-3" points="172.61 90.33 182.07 91.4 188.42 103.16 172.61 90.33"/><polygon class="cls-3" points="157.34 88.91 151.11 88.01 145.8 99.81 157.34 88.91"/><polygon class="cls-3" points="200.49 99.78 190.55 113.68 200.49 106.97 200.49 99.78"/><polygon class="cls-9" points="166.75 32.14 143.49 35.44 140.65 24.05 176.61 11.31 166.75 32.14"/><polygon class="cls-8" points="166.75 32.14 178.74 0.88 197.38 46.31 166.75 32.14"/><polygon class="cls-8" points="223.49 69.71 229.08 90.43 236.27 74.83 223.49 69.71"/><polygon class="cls-9" points="178.74 0.88 192.15 58.43 271.27 94.17 276.33 73.25 178.74 0.88"/><polygon class="cls-9" points="271.27 94.17 251.3 157.51 213.45 172.23 237.07 124.38 271.27 94.17"/><polygon class="cls-13" points="271.27 94.17 213.45 172.23 233.54 119.12 271.27 94.17"/><polygon class="cls-16" points="243.47 95.86 231.92 91.59 229.08 100.86 239.18 105.91 243.47 95.86"/><polygon class="cls-13" points="182.56 183.39 207.77 185.53 192.5 215.11 182.56 183.39"/><polygon class="cls-17" points="153.95 208.02 163.63 236.25 232.48 236.25 236.32 218.94 192.5 215.11 153.95 208.02"/><polygon class="cls-18" points="163.63 236.25 160.45 254.58 158.21 267.54 184.3 286.93 192.43 274 199.38 287.95 247.75 270.94 240.71 254.95 232.48 236.25 163.63 236.25"/><polygon class="cls-19" points="163.63 236.25 160.45 254.58 186.67 267.2 207.34 258.01 240.71 254.95 232.48 236.25 163.63 236.25"/><polygon class="cls-18" points="264.63 209.1 210.94 228.09 209.03 235.65 212.75 245.77 254.79 240.03 264.63 209.1"/><polygon class="cls-18" points="133.44 203.01 135.79 234.94 162.18 244.63 170.75 237.78 168.2 228.42 133.44 203.01"/><polygon class="cls-6" points="184.64 252.57 195.65 252.57 210.39 239.99 187.51 239.31 184.64 252.57"/><polygon class="cls-5" points="168.2 228.42 178.97 224.54 186.67 222.98 192.6 240.33 184.64 252.57 162.18 244.63 168.2 228.42"/><polygon class="cls-5" points="212.75 245.77 192.6 240.33 186.67 233.36 186.67 222.98 210.94 228.09 212.75 245.77"/><polygon class="cls-14" points="168.2 228.42 180.66 231.92 186.67 222.98 178.97 221.48 168.2 228.42"/><polygon class="cls-3" points="186.67 222.98 172.78 238.63 187.41 248.31 192.6 240.33 186.67 222.98"/><polygon class="cls-20" points="247.75 270.94 177.86 320.37 228.43 328.02 247.75 270.94"/><polygon class="cls-13" points="190.9 379.22 210.39 382.39 207.85 391.49 182.09 391.49 190.9 379.22"/><polygon class="cls-16" points="183.32 165.49 178.5 168.46 179.97 173.86 185.81 172.96 183.32 165.49"/><polygon class="cls-16" points="191.35 170.03 185.81 172.96 189.66 178.62 195.53 174.25 191.35 170.03"/><polygon class="cls-16" points="200.06 169.5 195.53 174.25 201.68 178.23 205.91 171.96 200.06 169.5"/><polygon class="cls-16" points="208.03 166.07 205.91 171.96 212.44 174.59 215.07 168.43 208.03 166.07"/></svg>