<svg id="Layer_1" data-name="Layer 1" xmlns="http://www.w3.org/2000/svg" viewBox="0 0 400 400"><defs><style>.cls-1{opacity:0.1;}.cls-2{fill:#2b2b2b;}.cls-3{fill:#916d5a;}.cls-4{fill:#755445;}.cls-5{fill:#848585;}.cls-6{fill:#737373;}.cls-7{fill:#6f7173;}.cls-8{fill:#98796a;}.cls-9{fill:#51362a;}.cls-10{fill:#474747;}.cls-11{fill:#4f5253;}.cls-12{fill:#594165;}.cls-13{fill:#785d87;}.cls-14{fill:#ececeb;}.cls-15{fill:#cececd;}.cls-16{fill:#a587b9;}.cls-17{fill:#8f759f;}.cls-18{fill:#8f8f8f;}.cls-19{fill:#858686;}.cls-20{fill:#a3a3a3;}.cls-21{fill:#c4c4c4;}.cls-22{fill:#543042;}.cls-23{fill:#95637c;}.cls-24{fill:#734d60;}.cls-25{fill:none;}.cls-26{fill:#4e5253;}.cls-27{fill:#868686;}.cls-28{fill:#6f7072;}.cls-29{fill:#858786;}.cls-30{fill:#707171;}.cls-31{fill:#707173;}</style></defs><title>analysts_INTP_famous_real_stanley_crouch</title><g class="cls-1"><polygon class="cls-2" points="83 386.66 212.4 371.44 344 391.84 212.08 400 83 386.66"/></g><polygon class="cls-3" points="102.24 43.88 107.87 67.24 113.72 76.09 113.1 84.96 120.36 110.01 208.79 97.03 224.38 70.46 201.41 9.26 183.36 1.2 118.54 15.7 102.24 43.88"/><polygon class="cls-4" points="181.72 101.06 186.64 100.25 183.36 95.42 167.77 88.18 176.79 97.03 181.72 101.06"/><polygon class="cls-4" points="133.31 108.31 138.23 107.5 138.23 103.48 139.05 95.42 132.49 105.89 133.31 108.31"/><polygon class="cls-5" points="185 138.91 212.07 127.64 213.72 126.03 215.36 101.86 209.57 93.81 154.64 97.84 120.36 110.01 129.2 139.96 141.51 138.1 185 138.91"/><polygon class="cls-6" points="183.36 95.42 175.97 96.23 176.79 97.03 185.82 107.5 183.36 95.42"/><polygon class="cls-6" points="138.23 103.48 132.49 105.89 139.05 117.97 138.23 103.48"/><polygon class="cls-4" points="129.2 84.95 143.24 93.41 162 88.18 177.61 77.71 155.85 71.58 140.26 75.61 129.2 84.95"/><polygon class="cls-3" points="230.95 14.89 221.92 21.34 199.77 18.11 183.36 1.21 230.95 14.89"/><polygon class="cls-4" points="237.51 130.05 232.6 43.88 230.95 14.89 199.77 18.11 209.57 93.81 216.18 93.81 213.14 125.72 186.64 158.24 237.51 130.05"/><polygon class="cls-7" points="218.04 49.52 209.57 93.81 213.14 125.72 218.87 123.61 229.35 73.19 218.04 49.52"/><polygon class="cls-8" points="142.64 67.56 143.24 93.41 162 88.18 152.18 65.22 142.64 67.56"/><polygon class="cls-9" points="154.64 97.84 143.24 93.41 162 88.18 154.64 97.84"/><polygon class="cls-10" points="139.05 58.38 142.64 67.56 142.81 74.95 129.21 84.96 113.1 84.96 107.87 67.24 139.05 58.38"/><polygon class="cls-3" points="120.18 70.46 135.77 69.65 137.41 74.49 127.56 82.54 115.25 81.73 120.18 70.46"/><polygon class="cls-4" points="111.15 71.27 134.95 64.02 135.77 69.65 125.1 72.88 115.25 81.73 111.15 71.27"/><polygon class="cls-10" points="151.36 55.16 152.18 65.22 155.03 71.89 177.61 77.71 197.31 62.41 193.21 45.5 151.36 55.16"/><polygon class="cls-3" points="158.74 64.02 159.56 68.04 176.79 72.88 192.38 60.8 172.69 56.77 158.74 64.02"/><polygon class="cls-4" points="157.1 58.38 158.74 64.02 173.51 60.8 192.38 60.8 189.92 50.33 157.1 58.38"/><path class="cls-2" d="M172.69,57.13a4.48,4.48,0,1,1-4.56,4.47,4.51,4.51,0,0,1,4.56-4.47"/><path class="cls-2" d="M125.1,68.62a4.26,4.26,0,1,1-4.33,4.26,4.3,4.3,0,0,1,4.33-4.26"/><polygon class="cls-11" points="111.15 55.96 116.9 51.94 134.95 51.13 133.31 56.77 117.72 55.96 113.61 59.19 111.15 55.96"/><polygon class="cls-11" points="153.82 47.11 157.92 51.94 176.79 43.88 184.18 44.69 185 39.05 175.97 37.44 153.82 47.11"/><polygon class="cls-4" points="135.77 46.3 147.25 48.72 161.21 39.05 145.61 44.69 135.77 46.3"/><polygon class="cls-4" points="130.03 36.64 148.9 38.25 174.33 23.75 148.07 34.22 130.03 36.64"/><polygon class="cls-10" points="139.05 63.21 153 59.99 155.46 61.6 153.82 64.82 140.69 68.04 138.23 66.43 139.05 63.21"/><polygon class="cls-3" points="217.82 49.52 232.88 48.7 234.23 70.54 219.46 71.26 217.82 49.52"/><polygon class="cls-10" points="193.21 45.49 232.65 44.69 232.89 49.03 218.08 49.52 194.03 49.52 191.56 47.91 193.21 45.49"/><polygon class="cls-9" points="223.08 64.66 221.73 53.43 229.13 53.41 223.08 64.66"/><polygon class="cls-9" points="234.81 82.75 219.46 71.26 234.23 70.54 234.81 82.75"/><polygon class="cls-12" points="255.25 138.92 293.68 222.84 287.42 277.88 279.6 301.19 208.39 289.53 192.75 278.53 164.58 226.73 168.49 181.4 237.51 130.05 255.25 138.92"/><polygon class="cls-12" points="100.42 192.41 91.03 238 121.88 247.63 127.03 237.09 132.5 214.43 142.67 179.46 135.63 151.62 100.42 192.41"/><polygon class="cls-13" points="162.54 148.04 153.58 145.88 135.63 151.62 122.33 209.25 134.85 286.94 187.27 287.59 195.09 277.88 178.66 190.47 162.54 148.04"/><polygon class="cls-14" points="160.67 162.63 183.36 154.21 184.06 149.32 157.91 144.42 153.58 145.88 160.67 162.63"/><polygon class="cls-14" points="211.52 161.98 190.4 161.33 183.36 154.21 237.51 130.05 211.52 161.98"/><polygon class="cls-15" points="191.18 179.46 171.62 179.46 160.67 162.63 183.36 154.21 211.52 161.98 191.18 179.46"/><polygon class="cls-11" points="180.23 162.63 175.53 157.45 183.36 154.21 192.75 156.8 185.71 162.63 191.18 179.46 178.66 190.47 171.62 179.46 180.23 162.63"/><polygon class="cls-16" points="237.51 130.05 235.78 162.63 178.66 190.47 237.51 130.05"/><polygon class="cls-16" points="153.58 145.88 144.24 169.1 178.66 190.47 153.58 145.88"/><polygon class="cls-17" points="293.68 222.84 291.33 156.8 255.25 138.92 238.91 207.3 258.47 222.19 293.68 222.84"/><polygon class="cls-9" points="183.36 154.21 196.65 148.28 218.87 123.61 213.14 125.72 189.1 130.05 185 127.64 178.44 131.66 151.36 136.49 141.51 138.1 183.36 154.21"/><polygon class="cls-13" points="207.61 235.15 238.91 207.3 293.68 222.84 235.78 259.1 218.56 249.39 207.61 235.15"/><polygon class="cls-18" points="175.53 240.97 114.51 187.88 105.9 183.35 100.42 192.41 145.02 232.74 153.63 233.2 160.67 246.15 174.88 259.78 182.19 259.1 184.13 251.5 175.53 240.97"/><polygon class="cls-19" points="155.98 226.27 148.93 224.97 145.02 232.74 150.5 237.27 154.41 229.51 155.98 226.27"/><polygon class="cls-7" points="161.45 229.51 154.41 229.51 150.5 237.27 155.98 242.45 159.89 234.04 161.45 229.51"/><polygon class="cls-19" points="167.71 235.33 159.89 234.04 155.98 242.45 162.24 247.63 166.15 239.87 167.71 235.33"/><polygon class="cls-20" points="104.33 186.58 148.93 224.97 160.67 229.97 164.58 238.38 180.48 251.73 184.13 251.5 185.71 244.21 185.71 240.97 182.58 241.62 173.19 234.5 159.88 228.02 158.32 221.73 149.18 214.14 135.77 209.75 128.8 197.19 109.81 181.41 104.33 186.58"/><polygon class="cls-7" points="148.93 224.97 154.41 229.51 161.45 229.51 163.8 226.27 158.32 221.73 148.93 224.97"/><polygon class="cls-19" points="154.41 229.51 159.89 234.04 167.71 234.04 169.28 230.8 163.8 226.27 154.41 229.51"/><polygon class="cls-7" points="159.89 234.04 166.15 239.87 175.14 235.98 169.28 230.8 159.89 234.04"/><polygon class="cls-4" points="118.9 199.08 128.84 197.15 138.88 201.58 142.67 208.6 149.18 214.14 135.25 231.12 113.72 222.19 118.9 199.08"/><polygon class="cls-3" points="108.88 216.86 118.9 199.08 135.25 231.12 126.25 233.58 108.88 216.86"/><polygon class="cls-3" points="128.84 197.15 136.66 194.56 148.93 204.42 142.67 208.6 128.84 197.15"/><polygon class="cls-21" points="101.21 174.28 109.81 181.4 100.42 192.41 91.03 176.22 98.08 171.69 101.21 174.28"/><polygon class="cls-18" points="109.03 157.45 101.21 174.28 91.03 176.22 100.03 155.13 107.46 153.56 109.03 157.45"/><polygon class="cls-21" points="112.08 135.07 100.03 155.13 112.08 161.38 120.69 140.9 119.12 135.07 112.08 135.07"/><polygon class="cls-18" points="123.82 129.25 112.08 135.07 120.69 140.9 126.17 130.54 123.82 129.25"/><polygon class="cls-15" points="207.61 235.15 202.14 239.68 206.05 252.63 220.91 255.87 229.52 264.28 235.78 259.1 207.61 235.15"/><polygon class="cls-4" points="185.71 244.21 188.05 240.97 202.14 239.68 223.13 258.03 204.42 270.05 186.49 255.22 185.71 244.21"/><polygon class="cls-22" points="154.41 283.7 158.32 296.66 208.39 305.07 246.73 300.54 282.72 290.18 287.42 277.88 195.09 277.88 154.41 283.7"/><polygon class="cls-23" points="134.85 286.94 119.98 316.08 150.5 352.99 182.58 333.56 208.39 305.07 154.41 283.7 134.85 286.94"/><polygon class="cls-24" points="143.46 361.4 119.98 316.08 182.58 333.56 185.71 371.12 163.8 375.65 143.46 361.4"/><polygon class="cls-13" points="112.62 380.18 143.46 361.4 185.71 371.12 185.71 380.18 152.84 381.48 112.62 380.18"/><polygon class="cls-23" points="224.83 335.5 208.39 305.07 287.42 277.88 285.85 319.32 267.86 345.22 224.83 335.5"/><polygon class="cls-24" points="262.38 366.58 224.83 335.5 285.85 319.32 299.94 365.94 294.46 376.3 262.38 366.58"/><polygon class="cls-13" points="253.77 385.36 262.38 366.58 299.94 365.94 304.63 385.36 296.02 388.6 253.77 385.36"/><rect class="cls-12" x="253.77" y="385.36" width="50.86" height="6.48"/><rect class="cls-12" x="112.62" y="380.18" width="73.08" height="6.48"/><polygon class="cls-9" points="182.58 241.62 188.05 239.03 202.14 239.68 185.71 244.21 182.58 241.62"/><polygon class="cls-9" points="142.33 114.75 160.38 114.75 180.08 109.11 180.9 104.28 159.56 110.72 141.51 111.53 142.33 114.75"/><polygon class="cls-6" points="139.87 123.61 151.36 136.49 141.51 138.1 139.87 123.61"/><polygon class="cls-6" points="178.44 131.66 186.64 113.95 189.1 130.05 178.44 131.66"/><polygon class="cls-3" points="174.88 259.78 185.71 244.21 204.42 270.05 185 269.5 174.88 259.78"/><line class="cls-25" x1="230.95" y1="14.89" x2="237.51" y2="130.05"/><polygon class="cls-26" points="126.25 233.58 133.39 261.05 123.5 288.33 117.83 260.67 126.25 233.58"/><polygon class="cls-27" points="134.33 244.21 136.83 259.78 133.39 277.88 123.5 288.33 130.66 260.96 126.25 233.58 134.33 244.21"/><polygon class="cls-20" points="150.5 245.33 149.79 259.1 141 267.25 136.83 259.78 134.33 244.21 150.5 245.33"/><polygon class="cls-18" points="168.5 264.28 170.67 267.25 169.78 271.15 156.34 271.05 149.79 259.1 150.5 245.33 168.5 264.28"/><polygon class="cls-20" points="174.88 259.78 185 269.5 177.67 273 169.78 271.15 168.5 264.28 174.88 259.78"/><polygon class="cls-28" points="204.42 270.05 195.09 277.88 185 269.5 204.42 270.05"/><polygon class="cls-29" points="171.66 281.24 195.09 277.88 185 269.5 169.78 271.15 171.66 281.24"/><polygon class="cls-30" points="149.79 259.1 169.78 271.15 171.66 281.24 149.18 271 149.79 259.1"/><polygon class="cls-27" points="136.83 259.78 149.79 259.1 149.18 271 133.39 277.88 136.83 259.78"/><polygon class="cls-31" points="130.66 260.96 136.83 259.78 133.39 277.88 123.5 288.33 130.66 260.96"/></svg>