<svg id="illustration_layer_copy" data-name="illustration_layer copy" xmlns="http://www.w3.org/2000/svg" viewBox="0 0 400 400"><defs><style>.cls-1,.cls-23,.cls-9{fill:#2b2b2b;}.cls-1,.cls-10,.cls-11,.cls-12,.cls-13,.cls-14,.cls-16,.cls-17,.cls-18,.cls-19,.cls-2,.cls-20,.cls-21,.cls-22,.cls-3,.cls-4,.cls-5,.cls-6,.cls-7,.cls-8,.cls-9{fill-rule:evenodd;}.cls-1{opacity:0.1;}.cls-2{fill:#594165;}.cls-3{fill:#565655;}.cls-4{fill:#95637c;}.cls-5{fill:#785d87;}.cls-6{fill:#a587b9;}.cls-7{fill:#565656;}.cls-8{fill:#444;}.cls-9{opacity:0.2;}.cls-10{fill:#f4f4f4;}.cls-11{fill:#fce3d4;}.cls-12{fill:#f4c9b2;}.cls-13{fill:#ffefe7;}.cls-14,.cls-15{fill:#c1907d;}.cls-16{fill:#707070;}.cls-17{fill:#d8d8d8;}.cls-18{fill:#fff;}.cls-19{fill:#8f759f;}.cls-20{fill:#d0a0b7;}.cls-21{fill:#b2879c;}.cls-22{fill:#734d60;}</style></defs><title>analysts_INTP_famous_real_rene_descartes</title><polygon class="cls-1" points="77.73 385.27 158.48 365.59 310.52 385.61 177.97 400 77.73 385.27"/><polygon class="cls-2" points="172.67 319.86 209.97 325.82 205.94 303.34 177.06 305.46 172.67 319.86"/><polygon class="cls-2" points="158.4 366.4 158.4 385.33 140.88 385.33 144.28 373.3 158.4 366.4"/><polygon class="cls-2" points="235.7 329.8 281.4 338.16 259.22 267.75 244.65 277.21 235.7 329.8"/><polygon class="cls-3" points="140.88 312.41 138.55 333.67 149.37 347.95 170.92 340.18 184.6 312.41 159.12 305.46 140.88 312.41"/><polygon class="cls-4" points="170.92 340.18 158.4 366.4 132.59 381 135.6 353 138.55 333.67 170.92 340.18"/><polygon class="cls-3" points="204.82 312.41 207.81 343.17 226.16 351.45 241.34 343.36 252.34 312.41 226.16 308.4 204.82 312.41"/><polygon class="cls-4" points="207.81 343.17 241.34 343.36 234.59 365.57 218.47 380.19 209.58 363.47 207.81 343.17"/><polygon class="cls-5" points="158.4 366.4 140.88 385.33 99.77 385.33 119.03 368.47 132.59 367.39 137.58 372.19 158.4 366.4"/><polygon class="cls-5" points="234.59 365.57 219.9 373.4 209.58 363.47 196.79 391.56 236.16 391.56 234.59 365.57"/><polygon class="cls-6" points="228.49 357.7 226.43 379.22 211.24 378.83 215.51 356.36 228.49 357.7"/><polygon class="cls-6" points="137.58 372.19 145.86 358.52 135.6 353 119.03 368.47 137.58 372.19"/><polygon class="cls-5" points="122.79 231.37 121.46 303.18 99.31 292.7 103.47 231.37 122.79 231.37"/><polygon class="cls-2" points="114.51 236.29 155.72 231.37 140.88 312.41 121.46 303.18 114.51 236.29"/><polygon class="cls-2" points="137.97 155.55 88.34 206.29 148.25 232.5 137.97 155.55"/><polygon class="cls-2" points="290.39 162.35 312.34 231.37 266.66 221.63 269.26 187.59 290.39 162.35"/><polygon class="cls-7" points="139.91 50.61 118.94 108.42 130.16 126.73 149.72 140.2 145.97 99.63 139.91 50.61"/><polygon class="cls-8" points="118.94 108.42 131.7 163.33 143 155.55 149.72 140.2 118.94 108.42"/><polygon class="cls-5" points="153.95 137.31 137.97 155.55 140.88 312.41 161.04 312.41 182.86 302.94 204.82 312.41 252.34 312.41 256.27 270.39 272.81 191.14 290.39 162.35 245.63 137.31 153.95 137.31"/><polygon class="cls-9" points="220.49 292.67 252.34 312.41 256.27 270.39 220.49 292.67"/><polygon class="cls-6" points="159.12 153.87 161.04 312.41 204.82 312.41 205.94 157.91 181.35 137.31 159.12 153.87"/><polygon class="cls-10" points="181.35 140.2 175.04 157.91 137.97 175.17 137.97 155.55 149.72 140.2 164.79 133.76 181.35 140.2"/><polygon class="cls-10" points="244.65 178.52 187.81 157.91 181.35 140.2 215.87 132.53 248.43 140.2 249.77 157.91 244.65 178.52"/><polygon class="cls-5" points="176.23 180.78 181.35 174.97 186.48 180.78 181.35 186.11 176.23 180.78"/><polygon class="cls-5" points="176.23 216.31 181.35 210.49 186.48 216.31 181.35 221.63 176.23 216.31"/><polygon class="cls-5" points="176.23 251.83 181.35 246.01 186.48 251.83 181.35 257.15 176.23 251.83"/><polygon class="cls-5" points="176.23 287.35 181.35 281.53 186.48 287.35 181.35 292.67 176.23 287.35"/><polygon class="cls-11" points="139.91 50.61 139.91 109.39 149.72 140.2 214.86 140.2 229.91 46.89 172.07 18.85 139.91 50.61"/><polygon class="cls-12" points="223.74 44.11 218.39 110.17 206.18 140.2 248.43 140.2 229.91 46.89 223.74 44.11"/><polygon class="cls-12" points="200.99 71.23 175.43 99.63 145.97 71.23 156.37 66.27 165.47 69.88 176.3 70.33 189.3 66.27 200.99 71.23"/><polygon class="cls-13" points="176.3 70.33 173.81 79.34 175.43 99.63 163.74 99.63 166.9 79.34 165.47 69.88 176.3 70.33"/><polygon class="cls-14" points="175.43 99.63 169.58 105.71 163.74 99.63 175.43 99.63"/><rect class="cls-15" x="152.92" y="113.51" width="39.09" height="3.5"/><polygon class="cls-7" points="169.61 23.06 181.28 48.47 222.84 53.88 242.91 42.16 252.44 17.92 180.8 0 169.61 23.06"/><polygon class="cls-16" points="238.02 37.18 252.44 17.92 276.55 90.87 303.05 139.2 290.39 162.35 263.7 137.16 238.02 37.18"/><polygon class="cls-8" points="222.84 53.88 238.02 37.18 290.39 162.35 266.95 156.76 248.43 140.2 222.84 53.88"/><polygon class="cls-7" points="276.55 90.87 290.39 162.35 305.52 138 276.55 90.87"/><polygon class="cls-7" points="290.39 162.35 244.65 178.52 248.43 140.2 290.39 162.35"/><polygon class="cls-16" points="139.91 50.61 163.52 49.6 180.8 0 152.25 19.4 139.91 50.61"/><polygon class="cls-7" points="165.47 69.88 165.47 66.27 156.15 61.43 145.27 68.36 145.97 71.23 156.37 67.63 165.47 69.88"/><polygon class="cls-7" points="176.3 70.33 176.3 66.27 190.76 61.43 200.99 68.02 200.99 71.23 189.3 67.63 176.3 70.33"/><polygon class="cls-7" points="169.61 119.35 164.17 125.89 169.61 134.11 175 125.89 169.61 119.35"/><polygon class="cls-4" points="194.86 213.43 261.59 188.17 286.37 273.75 220.49 292.67 194.86 213.43"/><polygon class="cls-17" points="259.22 191.72 260.72 186.11 270.44 180.98 300.06 271.59 290.39 286.58 259.22 191.72"/><polygon class="cls-18" points="194.86 213.43 211.24 200.01 270.44 180.98 259.22 191.72 194.86 213.43"/><polygon class="cls-5" points="282.62 218.25 279.64 243.2 281.4 338.16 312.34 231.37 282.62 218.25"/><polygon class="cls-19" points="88.34 206.29 109.45 210.49 109.45 223.39 106.57 236.29 99.31 292.7 88.34 206.29"/><polygon class="cls-18" points="106.57 236.29 114.51 236.29 121.1 223.39 121.1 212.3 109.45 210.49 106.57 236.29"/><polygon class="cls-20" points="139.16 212.3 139.91 153.02 124.08 130.54 126.83 169.33 139.16 212.3"/><polygon class="cls-21" points="124.08 130.54 118.94 175.17 139.16 212.3 124.08 130.54"/><polygon class="cls-20" points="143.5 236.29 146.84 261.61 140.19 274.94 139.16 243.79 140.93 228.04 143.5 236.29"/><polygon class="cls-11" points="121.1 212.3 139.16 212.3 140.93 228.04 139.16 243.79 114.51 236.29 121.1 212.3"/><polygon class="cls-12" points="139.16 212.3 150.99 223.39 139.16 243.79 139.16 212.3"/><polygon class="cls-18" points="215.2 221.85 216.18 220.21 228.65 227.26 228 228.58 215.2 221.85"/><polygon class="cls-18" points="218.15 229.72 223.57 217.75 226.36 218.41 219.3 231.53 218.15 229.72"/><polygon class="cls-18" points="228.82 216.6 235.87 220.37 235.38 221.85 227.67 218.57 228.82 216.6"/><polygon class="cls-18" points="237.84 214.96 235.21 229.4 232.59 228.9 235.95 214.59 237.84 214.96"/><polygon class="cls-18" points="240.01 213.73 248.38 210.78 246.29 220.5 251.08 218.78 251.94 221.36 242.35 223.08 245.3 214.84 240.38 215.58 240.01 213.73"/><polygon class="cls-22" points="212.36 267.75 238.07 270.77 255.12 282.7 250.01 252.7 212.36 267.75"/><polygon class="cls-18" points="250.09 256.95 238.63 260.8 232.62 249.26 232.62 235.22 253.91 248.01 250.09 256.95"/><polygon class="cls-19" points="282.62 218.25 232.62 235.22 281.4 338.16 282.62 218.25"/><polygon class="cls-12" points="232.62 235.22 214.23 235.22 203.8 241.17 205.3 245.85 217.53 242.15 232.62 235.22"/><polygon class="cls-11" points="232.62 235.22 205.3 245.85 210.73 256.95 220.49 266.42 238.63 260.8 232.62 235.22"/><polygon class="cls-12" points="205.3 245.85 199.28 250.82 212.36 267.75 220.49 266.42 205.3 245.85"/><polygon class="cls-12" points="175.43 99.63 184.91 101.11 192.01 113.51 175.43 99.63"/><polygon class="cls-12" points="163.74 99.63 156.06 103 152.92 113.51 163.74 99.63"/><polygon class="cls-7" points="169.58 105.71 171.12 110.64 192.01 113.51 169.58 105.71"/><polygon class="cls-7" points="168.84 110.45 169.58 105.71 152.92 113.51 168.84 110.45"/><polygon class="cls-12" points="189.13 83.91 202 91.14 192.87 91.88 189.13 83.91"/><polygon class="cls-12" points="157.13 81.98 153.98 90.96 147.01 91.88 157.13 81.98"/><ellipse class="cls-23" cx="188.67" cy="79.47" rx="4.18" ry="4.35"/><ellipse class="cls-23" cx="154.3" cy="79.47" rx="4.18" ry="4.35"/></svg>