<svg xmlns="http://www.w3.org/2000/svg" viewBox="0 0 400 400"><path fill="#9776A1" d="M253.988 272.074l14.684 9.129-6.33 2.346-4.791-3.013z"/><path fill="#33302D" d="M97.277 393.128l102.187-14.378 91.091 13.32-91.091 7.68z" opacity=".102"/><path fill="#7D6A5B" d="M116.063 34.416l3.306 8.596-.22 23.367-7.937-1.324-2.645-9.258 2.866-22.702z"/><path fill="#4F3D2F" d="M107.245 117.075l24.248-4.851 4.187-22.922-18.956-2.204-5.953 2.645-1.103 13.667z"/><path fill="#48372B" d="M118.488 61.749l-7.054 18.295-9.7-4.188 6.833-20.059z"/><path fill="#7D6A5B" d="M114.078 84.011l-1.101 10.361-2.426 7.054-2.424-3.969-6.393-21.601h8.817z"/><path fill="#685444" d="M112.977 94.372l-2.426 19.177-.659 7.936-5.953 1.101 4.187-25.13z"/><path fill="#48372B" d="M110.551 75.856l2.426 18.516 3.525-1.103 19.178-3.966-14.329-16.093zM110.551 113.549l4.189 13.446 11.683 13.224 27.662-7.283-17.524-20.269-6.832-3.086z"/><path fill="#4F3D2F" d="M122.896 60.424l-4.408 1.325-7.937 14.107 7.275 5.068 9.036-15.648z"/><path fill="#7D6A5B" d="M110.551 113.549l7.494 9.478 8.817 11.243-1.984 2.643-8.154.44-12.785-14.767z"/><path fill="#685444" d="M126.862 134.27l15.725 16.186-6.9 10.16-18.963-23.263z"/><path fill="#4F3D2F" d="M126.862 134.27l15.725 16.186 5.216 6.075 5.511-7.052.771-16.543z"/><path fill="#302317" d="M154.085 132.936l-5.402 16.32 7.717 2.648 31.52-12.344-33.725-11.903z"/><path fill="#F3D8D4" d="M150.448 164.906l14.99-19.397 34.826-24.687-3.525-83.321 13.222-19.616 14.328 26.009 9.043 102.496-3.746-.217-24.252 50.033-34.605 4.851z"/><path fill="#D4ABA5" d="M198.721 81.807l-1.102-25.569.88-.881 25.353 4.627 2.421 5.511-24.244-3.086.442 6.172-2.868 13.008z"/><path fill="#FEF3F1" d="M117.825 32.213l.663 29.756 6.39 25.569 4.85 22.044 24.357 23.354 5.401-.871 38.133-5.879 8.918-19.185-4.508-44.592-1.103-12.344-2.204-18.075-42.985-23.365z"/><path fill="#D4ABA5" d="M165.658 76.298l5.071 7.052h5.068l3.307 2.203 19.617-3.746 3.968-13.667-5.732-8.817zM127.082 79.824L125.1 83.57l5.509 6.834 16.753-1.323 9.259-8.597-.221-2.865zM152.871 7.302l-32.18 22.926 1.322 21.603 42.322-32.845z"/><path fill="#F3D8D4" d="M156.621 76.298l4.407-.223-4.187 18.297 5.511 1.543 6.613-2.866 6.832-9.699-10.138-7.052 22.703-3.748-1.766-12.566-16.311-4.847-7.272 10.802z"/><path fill="#D4ABA5" d="M206.537 124.812l-47.051 7.252 20.262 27.821z"/><path fill="#6A594D" d="M131.27 53.374l15.618-.663 2.677 4.848-16.311-.659-9.532 3.524zM187.039 45.438l-18.075 4.302-1.829 5.238 20.087-6.061 8.194.5z"/><path fill="#FEF9F9" d="M155.297 65.275l1.103 12.344.441 16.753 12.123-1.323-3.306-16.751-1.544-12.345z"/><path fill="#D4ABA5" d="M163.454 97.897l-6.614-3.525 12.124-1.324z"/><path fill="#5C3F62" d="M142.587 150.456l-38.648 49.681 30.324 13.363 8.324-9.96 5.055-19.29z"/><path fill="#5C3242" d="M179.748 232.548l-15.357-23.886 9.29-19.15 23.697-.568 2.086 23.888z"/><path fill="#5C3F62" d="M174.628 250.371l5.119-25.975 17.631-35.452 27.302-33.367 28.629-2.277-5.877 27.114 2.275 25.403-8.154 32.229-21.041 7.013z"/><path fill="#D8AAC0" d="M197.378 188.944l25.599-43.604 7.578-5.121 22.754 13.081-42.09 34.315-12.514 8.912z"/><path fill="#B78DA2" d="M238.639 151.25l-15.662-5.911 7.578-5.121 11.377 6.637z"/><path fill="#BA8CA1" d="M211.219 187.615l-31.471 36.781 17.63-35.452z"/><path fill="#705178" d="M179.557 260.605l-9.099-7.011 9.29-9.292 57.606-6.081 6.664 4.185-8.151 11.567-25.027 12.32z"/><path fill="#AF8DBE" d="M142.587 242.787l15.499-6.447 21.662 7.962-.191 16.303-11.184 7.964-25.786-10.802z"/><path fill="#7E5A87" d="M142.587 150.456v92.331l37.16 1.515v-19.906l-6.066-34.884-17.823-31.092z"/><path fill="#D8AAC0" d="M173.681 189.512l-5.71-45.798-25.384 6.742 20.287 36.781 7.773 5.687z"/><path fill="#BA8CA1" d="M173.681 189.512l-10.807-2.275 16.873 37.159z"/><path fill="#CECCCB" d="M149.055 203.884l2.972 39.288 27.721 1.13 2.896-40.418-13.374-2.843z"/><path fill="#BAB8B7" d="M152.027 243.172l6.083.315.048-39.603h-9.103z"/><path fill="#E5E4E4" d="M155.62 198.576l.946 5.308h26.078l.411-5.308z"/><path fill="#D1CECD" d="M148.654 198.576l.401 5.308h9.103v-5.308z"/><path fill="#FEF3F1" d="M158.134 207.902l-15.547 7.205-2.699 7.014 2.699 11.365 15.547 2.854 3.033-15.736z"/><path fill="#F3D8D4" d="M174.701 215.83l-16.567-7.928v28.438l16.063-4.756z"/><path fill="#5C3242" d="M142.587 257.767l22.988 26.216 24.978 6.927 25.801-10.307 12.308-17.149 7.205-9.481-56.31 6.632z"/><path fill="#663B4C" d="M140.597 321.466l1.99-63.699 47.966 33.143-16.695 35.216-2.642 18.091-12.893 27.486-6.636-18.768z"/><path fill="#5C3242" d="M173.858 326.126l2.65 47.711-14.786 3.376-16.782-9.884-4.343-45.863z"/><path fill="#5F4D3E" d="M227.154 14.579v13.445l-9.914 11.242-14.552-6.836-33.943-19.615.219-5.733 21.161-4.187z"/><path fill="#5C3242" d="M176.637 387.098l-.001 5.15h-56.913l-.001-5.15 31.779-3.408z"/><path fill="#A1647C" d="M119.722 387.098l25.218-19.769 31.568 6.508.129 13.261z"/><path fill="#5C3242" d="M273.498 355.822l3.205 4.031-39.279 30.898-2.869-3.5 16.33-21.61z"/><path fill="#A1647C" d="M234.555 387.251l1.871-26.669 27.959-15.36 9.113 10.6z"/><path fill="#663B4C" d="M212.168 331.322l-21.615-40.412 38.109-27.456 7.205-9.481 4.545 60.666 2.449 36.654z"/><path fill="#5C3242" d="M212.168 331.322l-1.707-3.409 32.416-8.91 21.508 26.219-27.959 15.36z"/><path fill="#7E5A87" d="M257.551 280.536l-25.162 6.615-1.52.57 19.399 13.43 29.328-1.106-3.244-18.199z"/><path fill="#9776A1" d="M253.309 153.3l13.857 62.375-16.898 5.311-10.973-3.985z"/><path fill="#F3D8D4" d="M234.664 264.214l10.99 11.562 5.504-10.424 11.184-34.887-5.688-9.479-18.578 10.242z"/><path fill="#705178" d="M262.236 230.84l4.93-15.165-27.871 1.326-1.324 14.602z"/><path fill="#D4ABA5" d="M227.459 273.695l7.205-9.48-1.518 16.112-3.414 2.085-2.656-2.465z"/><path fill="#9776A1" d="M222.148 287.721l4.928-7.774 6.447-4.171-.377 4.551 3.79 3.793-4.547 3.031-3.412 1.707-3.223 2.463z"/><path fill="#5C3F62" d="M208.117 357.3l-46.479 23.95-11.341-5.936.378-26.923 50.05-19.338 25.402-27.681 24.141-.221 26.084-19.305 26.371 7.145v42.148l-29.225 24.683-15.895-6.295-10.464 14.973z"/><path fill="#AF8DBE" d="M213.43 296.634l17.439-8.913 19.399 13.43-18.262 2.496-18.77-1.326z"/><path fill="#7E5A87" d="M222.148 296.823v-9.102l6.829 1.137.757 10.238z"/><path fill="#9776A1" d="M191.056 324.502l22.374-27.868 18.576 7.013-25.971 28.06-16.115-.761z"/><path fill="#AF8DBE" d="M142.513 342.875l48.545-18.373 14.977 7.205-50.052 19.526-8.151.952z"/><path fill="#9776A1" d="M143.737 377.57l-1.224-34.695 13.47 8.358 5.655 30.017z"/><path fill="#5C3F62" d="M163.013 55.577l-8.377 1.101-5.43 4.187 2.763 1.866 14.648-2.083 3.306-2.649zM221.869 56.901l-20.943-6.836-4.409 5.732 5.29 3.526 19.617 1.764z"/><path fill="#685444" d="M237.514 32.871l-7.494-.44 4.193 15.433 12.777.217z"/><path fill="#7D6A5B" d="M246.99 48.081l4.633 18.737-17.412 5.732 2.205-28.657z"/><path fill="#4F3D2F" d="M251.623 66.819L245.23 82.91l-14.546 5.509 6.83-21.6z"/><path fill="#685444" d="M245.23 82.91l13.223 24.024-17.851 1.105-6.391-24.689z"/><path fill="#4F3D2F" d="M258.453 106.934l-9.031 20.724-22.703 7.052 15.867-30.859z"/><path fill="#685444" d="M249.422 127.657l-28.217 32.622 1.768-18.958 8.15-11.461z"/><path fill="#6A594D" d="M209.961 35.296l7.057-4.627 6.168-9.701 6.834 3.75 1.103 10.361 5.293 8.814 1.098 22.926-12.346 4.848z"/><path fill="#7D6A5B" d="M237.514 66.819l-3.301 16.531-2.649 4.85-5.511 5.069-4.184-7.493 8.151-18.957z"/><path fill="#4F3D2F" d="M234.213 83.35l8.373 20.5-15.209 8.157-.223-25.57z"/><path fill="#685444" d="M242.586 103.851l-11.463 26.009-21.82 15.209 20.717-38.793zM217.018 30.669l13.002 36.15-4.852 4.849-2.863-3.967-12.563-17.636-5.07-16.089z"/><path fill="#978375" d="M230.02 66.819l-2.866 19.618-3.968 5.51-5.946.881 5.065-25.128z"/><path fill="#685444" d="M227.154 86.437l2.866 19.839-7.934 7.934-4.41-4.409-.436-16.973z"/><path fill="#4F3D2F" d="M217.676 109.799l-7.934 16.755-7.054 29.977 3.849 16.812 11.139-30.036-1.104-9.038 13.448-27.994z"/><path fill="#7D6A5B" d="M216.572 134.27l-10.035 39.073 14.668-13.064 9.918-30.419z"/><path fill="#685444" d="M133.254 28.685l-1.982-20.501-19.839 24.91 5.291 4.628zM150.228 3.335l5.069 7.715 15.209-.883 19.619-7.272L158.385.25z"/><path fill="#4F3D2F" d="M118.488 61.969l12.784-25.568 2.867-18.516-6.836 8.374-10.578 11.462zM170.506 10.168l-20.278-6.831-9.918 8.376 4.408 8.814 19.617-1.541 4.41-3.527z"/><path fill="#6A594D" d="M131.272 8.184l18.956-4.849-5.51 17.192L131.272 36.4l-3.97-10.142z"/><path fill="#7D6A5B" d="M227.154 14.579l10.36 18.293-6.391 2.207-7.937-14.111z"/><path fill="#6A594D" d="M164.335 18.986l6.171-8.817 46.512 20.5-7.276 19.396-10.578-14.545z"/><path fill="#7E5A87" d="M122.896 61.749l31.74-5.071 1.764 20.941-11.682 8.817-14.109.884-5.509-3.75z"/><path fill="#F3D8D4" d="M149.565 63.073l-21.599 3.306.66 5.509 7.274 3.968 14.329-4.409z"/><path fill="#FEF3F1" d="M128.626 71.888l1.102 9.037 3.526 1.985 9.479-1.103 7.715-5.951-.219-4.409-8.377-2.425z"/><path fill="#33302D" d="M138.448 66.652c2.4-.318 4.602 1.356 4.923 3.742.318 2.384-1.367 4.571-3.765 4.891-2.398.316-4.602-1.357-4.92-3.74-.321-2.384 1.365-4.576 3.762-4.893"/><path fill="#7E5A87" d="M200.926 50.065l-37.913 5.512 2.645 20.721 14.326 4.407 16.755-3.527 5.949-9.038-.881-8.817z"/><path fill="#F3D8D4" d="M168.744 59.103l24.468-3.086 1.1 6.615-4.188 3.964-6.612 1.545-14.107-3.527z"/><path fill="#FEF3F1" d="M194.091 61.969l1.325 7.276-2.648 3.523-12.343 2.648-10.139-3.306-.881-7.496 17.192-4.63z"/><path fill="#33302D" d="M177.615 60.879c-2.448.314-4.169 2.5-3.842 4.874.327 2.373 2.576 4.042 5.025 3.728 2.448-.317 4.168-2.5 3.84-4.874-.327-2.376-2.575-4.045-5.023-3.728"/><path fill="#F3D8D4" d="M238.232 292.81l16.055-3.952 3.264-8.322-26.682 7.185zM167.707 114.666l-9.634 4.818 21.782-3.35z"/><path fill="#FEF3F1" d="M230.869 287.721l3.795-23.507 16.494 1.138 6.393 15.184z"/><path fill="#4F3D2F" d="M240.961 137.438l.971 9.417-3.293 4.395-17.434 9.029z"/><path fill="#978375" d="M209.742 126.554l6.83 7.716 13.448-27.995-12.344 3.526z"/><path fill="#F3D8D4" d="M152.049 102.355l-1.286 10.583-3.121-5.831zM181.138 96.75l4.357 10.812 1.706-6.374z"/><path fill="#5C3242" d="M149.347 107.562l2.702 1.051 13.608.744 17.744-6.016 2.094-1.591-6.186 1.295-11.808.445-2.063 2.083-2.756-1.347-9.419 2.837z"/><path fill="#7B4C60" d="M166.759 111.783l-14.71-3.17 13.608-.797 17.744-4.475z"/><path fill="none" d="M108.462 200.697l36.21 14.41"/><path fill="#F3D8D4" d="M124.31 208.243l-7.29 7.441 2.844 16.681 22.723 1.121v-18.379z"/><path fill="#705178" d="M103.939 200.137l6.636 31.093 9.289 1.135 4.446-24.122z"/><path fill="none" d="M175.338 198.232l-2.283 5.308M148.654 198.576l3.373 44.596M182.951 199.823l-3.373 44.596"/><path fill="#D4ABA5" d="M142.587 215.107l6.698-8.19.371 4.914z"/></svg>