<svg id="Layer_1" data-name="Layer 1" xmlns="http://www.w3.org/2000/svg" viewBox="0 0 400 400"><defs><style>.cls-1{fill:#5f5044;}.cls-2{fill:#734d61;}.cls-3{opacity:0.1;}.cls-23,.cls-4{fill:#2b2b2b;}.cls-5{fill:#d0ae95;}.cls-6{fill:#a8836c;}.cls-7{fill:#eed2c1;}.cls-8{fill:#46382d;}.cls-9{fill:#33231b;}.cls-10{fill:#737474;}.cls-11{fill:#7d7f81;}.cls-12{fill:#535453;}.cls-13{fill:#8f8f8f;}.cls-14{fill:#a587b8;}.cls-15{fill:#8f759f;}.cls-16{fill:#795d88;}.cls-17{fill:#594265;}.cls-18{fill:#543042;}.cls-19{fill:#95637c;}.cls-20{fill:#b2879c;}.cls-21{fill:#cecdcc;}.cls-22{fill:#484748;}.cls-23{opacity:0.2;}.cls-24{fill:#3a2d23;}.cls-25{fill:#f6e5db;}</style></defs><title>analysts_INTP_famous_fictional_marshall_flinkman_alias</title><polygon class="cls-1" points="132.58 40.13 138.27 13.03 150.76 21.45 139.13 27.76 143.25 40.93 139.6 59.39 132.58 40.13"/><polygon class="cls-2" points="239.71 290.2 239.11 271 247.03 247.85 261.02 251.05 265.89 274.78 239.71 290.2"/><g class="cls-3"><polygon class="cls-4" points="115.19 387.61 194.47 373.84 281.15 386.81 195.99 400.25 115.19 387.61"/></g><polygon class="cls-5" points="229.69 148.88 239.98 115.77 243.12 105.64 235.44 51.84 214.05 44.2 188.78 141.26 207.51 172.61 229.69 148.88"/><polygon class="cls-6" points="239.98 115.77 243.12 105.64 228.94 101.24 239.98 115.77"/><polygon class="cls-7" points="139.13 27.76 140.37 111.26 155.08 140.76 189.8 140.76 213.84 122.9 213.85 109.81 214.05 44.2 203.48 25.55 178.3 38.08 139.13 27.76"/><polygon class="cls-1" points="138.26 13.03 172.19 20.02 217.31 10.16 166.44 0.25 138.26 13.03"/><polygon class="cls-8" points="178.3 38.08 139.13 27.76 138.26 13.03 217.31 10.16 214.75 22.7 203.48 25.55 178.3 38.08"/><polygon class="cls-1" points="254.35 16.95 217.31 10.16 203.48 25.55 214.05 44.2 243.84 37.97 254.35 16.95"/><polygon class="cls-8" points="255.73 53.73 254.35 16.95 219.84 33.13 221.69 54.26 227.22 61.54 247.95 66.37 255.73 53.73"/><polygon class="cls-9" points="221.69 97.55 226.1 78.67 227.22 61.54 221.69 54.26 255.73 53.73 250.69 79.03 230.61 97.81 221.69 97.55"/><polygon class="cls-7" points="232.96 75.12 231.75 82.95 243.12 105.64 250.69 79.03 232.96 75.12"/><polygon class="cls-10" points="236.63 104.94 235.04 109.26 213.84 115.82 213.85 110.6 233.01 106.6 233.27 104.58 236.11 103.65 236.63 104.94"/><polygon class="cls-11" points="238.71 73.71 231.75 82.95 233.27 104.58 243.12 105.64 250.06 102.63 254.35 82.6 251.03 76.52 238.71 73.71"/><polygon class="cls-12" points="206.56 110.7 213.85 108.77 215.61 113.13 213.82 117.5 206.29 119.14 205.02 115.4 206.56 110.7"/><polygon class="cls-13" points="203.6 119.73 201.9 115.46 203.19 111.58 206.56 110.7 207.88 115.21 206.29 119.14 203.6 119.73"/><polygon class="cls-6" points="172.22 140.76 173.61 150.69 188.48 172.88 207.51 172.61 217.89 140.76 172.22 140.76"/><polygon class="cls-14" points="173.61 150.69 185.77 161.46 180.44 178.72 174.5 183.31 170.25 177.29 173.61 150.69"/><polygon class="cls-15" points="198.6 172.73 192.02 176.59 188.78 172.86 185.77 161.46 174.44 181.16 155.08 245.65 159.26 250.87 190.92 270.31 225.25 246.96 233.61 156.18 202.55 162.43 198.6 172.73"/><polygon class="cls-16" points="217.41 252.3 228.16 251.05 228.16 215.36 210.25 215.19 217.41 252.3"/><polygon class="cls-16" points="163.31 218.21 155.08 245.65 159.26 250.87 159.4 250.96 175.38 215.92 163.31 218.21"/><path class="cls-17" d="M172.87,180.43l-3.58,17.88.2,53.51h6.59l-.7-35.9Zm19.2,70.6-.46-60.15.48-11.35-3.32-6.67-3-11.4-.2,90.84,6.5-1.25Zm-29-31.91-7.95,26.53,4.18,5.22,4.3.95-.81-17.41.28-15.27Zm39.73,33.39,6.68-.42,1.89-80.86-8.79-8.8.22,90.08Z"/><path class="cls-18" d="M169.39,217.06l.06,11.85,5.93-13Zm-9.94,33.8,3.8-8.35-.48-8.11.28-15.28-8,26.53,4.17,5.22h.18Z"/><path class="cls-16" d="M171.38,191.32l-2.17,7.21,60.58-1,.69-7.51-38.89.83-20.22.42Zm-5.44,18.14-2,6.71,64.28-1.35.57-6.27-62.84.9ZM160.39,228l-1.93,6.46,68-.42.62-6.76Z"/><polygon class="cls-17" points="213.9 234.08 212.62 227.4 227.07 227.24 226.45 234.01 213.9 234.08"/><polygon class="cls-17" points="166.96 234.38 169.94 227.86 160.39 227.96 158.44 234.42 166.96 234.38"/><path class="cls-14" d="M171.38,191.32l-2.09,7v.22l4.85-.08-.5-7.18-2.26,0Zm14.24,7,6-.11-.06-7.28-5.94.13Zm17-.28,8-.14.18-7.39-8.23.18ZM169.33,209.4l0,6.64,6-.13-.47-6.6-5.56.08Zm.1,18.46,0,6.49,6.26,0-.13-6.53-6.18.07Zm22.5,6.36,0-6.6-6.38.08,0,6.56Zm-.15-18.65,0-6.49-6.15.09,0,6.53Zm-29,18.83.12-6.47-2.49,0-1.94,6.46Zm47-.3.16-6.68-7.22.07v6.65Zm.47-18.91.16-6.38-7.73.12,0,6.42,7.57-.16Z"/><path class="cls-15" d="M169.45,228.92l.49-1h-.49Zm-6.68,5.49.12-6.46-2.5,0-1.93,6.46Z"/><polygon class="cls-19" points="146.45 171.24 173.61 150.69 171.07 180.42 175.38 215.92 155.08 245.65 138.88 229.97 146.45 171.24"/><polygon class="cls-18" points="173.61 150.69 160.23 173.75 168.99 179.59 159.8 189.61 175.38 215.92 173.61 150.69"/><polygon class="cls-2" points="119.96 235.21 146.45 171.24 147.84 227.49 138.29 242.14 119.96 235.21"/><polygon class="cls-19" points="262.89 164.35 233.61 156.18 210.25 215.19 229.14 258.22 269.16 220.71 262.89 164.35"/><polygon class="cls-19" points="154.72 328.16 148.56 275.98 155.08 267.56 180.75 273.43 193.82 298.53 188.59 337.34 172.46 355 154.72 328.16"/><polygon class="cls-19" points="201.44 336.84 193.82 298.53 204.78 273.09 229.14 258.22 240.49 276.93 237.05 335.16 219.84 351.19 201.44 336.84"/><polygon class="cls-19" points="225.96 251.05 229.14 258.22 258.14 229.16 251.44 184.81 242.86 187.31 225.96 251.05"/><polygon class="cls-14" points="211.15 179 202.55 162.43 229.69 148.88 233.61 156.18 211.15 179"/><polygon class="cls-18" points="238.68 177.29 233.61 156.18 210.25 215.19 233.27 194.61 228.46 181.05 238.68 177.29"/><polygon class="cls-2" points="242.86 187.31 262.89 164.35 284.81 231.96 260.81 233.45 246.75 223.3 242.86 187.31"/><polygon class="cls-20" points="234.26 248.07 246.75 223.3 284.81 231.96 248.06 269.34 234.26 248.07"/><polygon class="cls-21" points="229.14 258.22 234.26 248.07 248.06 269.34 240.49 276.93 229.14 258.22"/><polygon class="cls-2" points="193.82 298.53 148.56 275.98 156.79 257.92 192.06 251.03 229.14 258.22 240.49 276.93 193.82 298.53"/><polygon class="cls-18" points="188.78 172.86 198.6 172.73 191.61 190.88 188.78 172.86"/><polygon class="cls-20" points="159.98 251.22 147.84 227.49 119.96 235.21 143.66 269.11 159.98 251.22"/><polygon class="cls-2" points="158.22 362.2 173 377.36 184.92 370.05 188.59 337.34 154.72 328.16 158.22 362.2"/><polygon class="cls-2" points="201.44 336.84 207.7 370.12 226.45 376.55 234.98 370.05 237.05 335.16 201.44 336.84"/><rect class="cls-2" x="193.82" y="298.53"/><polygon class="cls-22" points="134.69 383.12 158.22 362.2 184.92 370.05 184.92 383.12 134.69 383.12"/><polygon class="cls-22" points="207.7 370.12 200.79 388.69 236.82 388.69 234.98 370.05 207.7 370.12"/><rect class="cls-4" x="200.79" y="388.69" width="36.03" height="3.71"/><rect class="cls-4" x="134.69" y="383.12" width="50.23" height="3.71"/><polygon class="cls-23" points="232.93 99.74 233.26 104.41 233.58 104.61 243.12 105.64 250.06 102.63 238.71 73.71 232.93 99.74"/><polygon class="cls-12" points="238.71 73.71 232.6 75.12 228.94 101.24 233.27 104.58 238.71 73.71"/><polygon class="cls-5" points="179.05 94.14 187.37 106.05 187.94 99.03 179.05 94.14"/><polygon class="cls-5" points="157.96 95.04 152.98 105.22 152.18 99.14 157.96 95.04"/><polygon class="cls-5" points="203.48 25.55 219.84 33.13 227.07 48.85 221.69 54.26 227.22 61.54 214 61.54 203.48 25.55"/><polygon class="cls-7" points="214 61.54 219.84 33.13 203.48 25.55 214 61.54 214 61.54"/><polygon class="cls-24" points="163.63 72.25 163.63 68.82 154.37 65.94 144.78 70.16 145.22 72.58 154.62 69.91 163.63 72.25"/><polygon class="cls-24" points="172.57 69.37 172.57 72.58 182.74 69.91 193.76 72.25 197.34 69.37 182.33 65.82 172.57 69.37"/><polygon class="cls-5" points="193.76 72.25 173.1 94.02 170.98 87.64 172.57 72.58 182.74 69.91 193.76 72.25"/><path class="cls-4" d="M191.19,77.52a3.82,3.82,0,1,1-3.82-3.9A3.86,3.86,0,0,1,191.19,77.52Z"/><polygon class="cls-5" points="163.63 72.25 161.22 87.51 145.22 72.58 154.79 69.37 163.63 72.25"/><polygon class="cls-25" points="163.63 72.25 160.34 94.02 173.1 94.02 170.98 87.64 172.57 72.58 163.63 72.25"/><path class="cls-4" d="M156.79,77.52a3.82,3.82,0,1,1-3.81-3.9A3.85,3.85,0,0,1,156.79,77.52Z"/><polygon class="cls-6" points="160.34 94.02 165.97 101.91 173.1 94.02 160.34 94.02"/><polygon class="cls-6" points="155.8 107.47 166.72 108.77 183.87 106.88 184.17 109.73 166.72 111.81 155.8 110.3 155.8 107.47"/><polygon class="cls-5" points="143.29 97.96 147.96 102.8 146.46 112.39 143.29 97.96"/><polygon class="cls-5" points="200.69 96.87 195.56 115.21 192.6 105.22 200.69 96.87"/><polygon class="cls-14" points="229.14 258.22 162.31 258.22 159.81 250.87 225.96 251.05 229.14 258.22"/><polygon class="cls-21" points="163.56 258.22 159.81 250.87 143.66 269.11 148.56 275.98 163.56 258.22"/><rect class="cls-19" x="184.65" y="250.96" width="14.62" height="7.26"/></svg>