<svg id="Layer_1" data-name="Layer 1" xmlns="http://www.w3.org/2000/svg" viewBox="0 0 400 400"><defs><style>.cls-1{fill:#734d61;}.cls-2{fill:#543042;}.cls-10,.cls-3{fill:#2b2b2b;}.cls-3{opacity:0.1;}.cls-4{fill:#795d88;}.cls-5{fill:#484749;}.cls-6{fill:#f4cab2;}.cls-7{fill:#fbe3d4;}.cls-8{fill:#594265;}.cls-9{fill:#c18f7c;}.cls-11{fill:#b2879c;}.cls-12{fill:none;}.cls-13{fill:#fff0e8;}.cls-14{fill:#484748;}</style></defs><title>analysts_INTP_famous_fictional_neo_the_matrix</title><polygon class="cls-1" points="173.53 167.26 196.07 161.7 207.31 159.96 216.8 167.95 225.53 201.63 219.46 262.73 173.91 246.41 173.53 207.88 158.73 191.21 173.53 167.26"/><polygon class="cls-2" points="185.3 353.35 239.57 354.39 227.43 282.52 214.52 282.52 198.96 281.13 185.3 353.35"/><polygon class="cls-3" points="131.09 389.76 215.42 377.17 296.09 391.61 211.11 400 131.09 389.76"/><polygon class="cls-4" points="176.19 357.52 176.95 372.45 192.51 376.26 203.51 375 177.33 338.77 176.19 357.52"/><polygon class="cls-4" points="176.19 357.52 176.57 363.07 203.52 374.86 213 295.72 228.19 276.62 224.01 270.02 203.9 267.59 177.33 338.77 176.19 357.52"/><polygon class="cls-5" points="154.71 385.13 176.72 368.01 203.52 374.86 203.14 385.13 183.42 386.33 154.71 385.13"/><polygon class="cls-4" points="231.34 373.33 245.65 348.84 257.97 363.65 258.17 370.71 247.55 375.57 231.34 373.33"/><polygon class="cls-4" points="231.34 373.33 226.97 354.15 213 295.72 223.25 283.22 245.65 348.84 257.79 357.17 257.97 363.65 231.34 373.33"/><polygon class="cls-5" points="226.97 388.83 231.34 373.33 258.17 370.71 263.85 388.83 245.41 390 226.97 388.83"/><polygon class="cls-6" points="260.27 111.84 249.55 142.95 231.59 154.76 211.7 152.18 240.43 27.34 255.89 53.85 260.27 111.84"/><polygon class="cls-7" points="163.6 39.12 166.98 42.8 164.73 66.37 168.34 106.28 181.84 134.27 222.48 134.5 231.85 106.14 236.36 63.42 240.1 60.11 239.74 27.34 192.1 21.07 176.35 32.12 163.6 39.12"/><polygon class="cls-6" points="172.56 74.47 172.56 81.47 183.61 98.76 188.43 96.41 194.29 98.76 211.23 81.47 222.65 73 199.45 68.95 195.03 69.69 186.93 70.42 184.34 70.79 172.56 74.47"/><polygon class="cls-8" points="183.78 275.23 213 295.72 249.82 271.41 233.5 242.6 211.11 248.85 183.78 275.23"/><polygon class="cls-7" points="252.69 75.58 249.07 97.83 264.11 102.3 271.84 80.73 252.69 75.58"/><polygon class="cls-9" points="254.9 90.86 257.11 80.92 264.84 83.13 254.9 90.86"/><polygon class="cls-9" points="249.07 97.83 260.27 111.84 264.11 102.3 249.07 97.83"/><polygon class="cls-9" points="226.97 151.16 237.66 134.27 196.42 134.27 199.89 150.59 215.17 159.97 226.97 151.16"/><polygon class="cls-2" points="196.07 161.7 199.89 150.59 215.17 155.45 218.64 163.09 226.97 181.49 214.13 173.16 196.07 161.7"/><polygon class="cls-1" points="251.28 155.45 237.39 168.3 214.13 173.16 215.17 155.45 249.55 142.95 251.28 155.45"/><polygon class="cls-2" points="272.22 159.62 251.28 155.45 213.39 173.16 211.11 248.85 257.41 265.86 278.29 238.08 282.08 219.34 277.15 199.2 272.22 159.62"/><polygon class="cls-2" points="173.53 167.26 141.24 182.53 135 194.68 140.2 210.65 173.53 207.88 173.53 167.26"/><polygon class="cls-1" points="112.43 174.54 141.24 182.53 140.2 210.65 94.03 189.47 98.19 176.63 112.43 174.54"/><polygon class="cls-6" points="90.55 147.81 89.16 167.6 102.01 171.42 107.91 168.99 112.08 159.62 104.44 144.34 90.55 147.81"/><polygon class="cls-9" points="89.16 167.6 98.89 166.91 105.83 166.21 112.43 174.54 94.02 189.47 89.16 167.6"/><polygon class="cls-7" points="104.09 156.15 114.86 160.66 112.43 174.54 101.32 183.57 98.19 176.63 105.83 166.22 102.01 161.01 104.09 156.15"/><polygon class="cls-1" points="264.93 215.17 264.58 217.25 284.36 229.75 300.34 228.36 272.22 159.62 264.93 215.17"/><polygon class="cls-2" points="257.41 265.86 264.58 217.25 300.34 228.36 257.41 265.86"/><polygon class="cls-1" points="257.41 265.86 261.21 238.08 211.11 248.85 232.74 264.81 257.41 265.86"/><polygon class="cls-2" points="173.53 268.98 173.91 242.25 211.11 248.85 203.9 258.22 195.16 265.51 173.53 268.98"/><polygon class="cls-1" points="146.2 353.7 173.53 268.98 211.11 248.85 195.55 359.95 146.2 353.7"/><polygon class="cls-2" points="286.25 353.7 257.41 265.86 211.11 248.85 236.92 359.95 286.25 353.7"/><polygon class="cls-9" points="188.43 103.57 183.61 98.76 194.29 98.76 188.43 103.57"/><polygon class="cls-9" points="180.38 110.27 204.4 110.27 204.73 112.76 180.21 112.76 180.38 110.27"/><polygon class="cls-10" points="196.41 64.9 194.09 68.21 194.09 78.16 196.8 81.1 221.99 79.63 224.69 76.68 224.69 67.11 221.99 63.79 196.41 64.9"/><polygon class="cls-10" points="186.64 69.32 186.25 78.16 183.54 81.47 166.06 81.1 162.62 77.79 162.62 68.21 164.76 66 184.31 65.27 186.64 69.32"/><path class="cls-1" d="M220.22,191.21c1.46,0,2.65,1.56,2.65,3.47s-1.19,3.47-2.65,3.47-2.66-1.55-2.66-3.47,1.19-3.47,2.66-3.47"/><path class="cls-1" d="M219.46,214.13c1.46,0,2.65,1.55,2.65,3.47s-1.19,3.47-2.65,3.47-2.66-1.56-2.66-3.47,1.19-3.47,2.66-3.47"/><polygon class="cls-4" points="36.37 127.67 36.37 131.84 43.66 131.84 45.74 129.76 43.66 127.33 36.37 127.67"/><polygon class="cls-11" points="47.48 128.72 43.66 127.33 43.66 131.84 47.48 130.8 47.48 128.72"/><polygon class="cls-4" points="68.66 139.83 68.66 144.34 75.95 144.34 78.03 141.91 75.95 139.83 68.66 139.83"/><polygon class="cls-11" points="79.77 141.22 75.95 139.83 75.95 144.34 79.77 142.95 79.77 141.22"/><polygon class="cls-4" points="49.22 161.01 49.22 165.52 56.5 165.52 58.24 163.09 56.5 161.01 49.22 161.01"/><polygon class="cls-11" points="60.32 162.4 56.5 161.01 56.5 165.52 59.98 164.13 60.32 162.4"/><polygon class="cls-4" points="72.48 173.85 72.48 178.02 79.77 178.02 81.85 175.94 79.77 173.5 72.48 173.85"/><polygon class="cls-11" points="83.58 175.24 79.77 173.5 79.77 178.02 83.58 176.98 83.58 175.24"/><polygon class="cls-4" points="46.78 186.7 46.78 191.21 54.08 191.21 55.81 188.78 54.08 186.7 46.78 186.7"/><polygon class="cls-11" points="57.89 188.09 54.08 186.7 54.08 191.21 57.89 189.82 57.89 188.09"/><rect class="cls-10" x="226.97" y="388.83" width="36.88" height="3.7"/><rect class="cls-10" x="154.71" y="385.13" width="48.43" height="3.7"/><line class="cls-12" x1="213" y1="295.72" x2="231.34" y2="373.33"/><polygon class="cls-13" points="186.55 71.46 183.61 98.76 194.29 98.76 193.86 71.03 186.55 71.46"/><polygon class="cls-10" points="185.45 69.32 196.87 68.21 198.34 70.05 195.17 71.39 185.45 71.53 184.34 70.79 185.45 69.32"/><polygon class="cls-10" points="232.99 41.33 214.97 29.47 193.84 39.86 185.81 25.96 166.07 37.76 164.76 66 162.62 40.6 163.6 23.98 184.34 15.59 208.26 0.04 224.69 13.12 264.84 13.12 280.24 48.17 271.84 80.73 252.69 75.58 250.34 90.04 244.22 87.42 246.11 73.17 235.99 66.95 237.42 52.01 232.99 41.33"/><polygon class="cls-14" points="280.24 48.17 237.42 52.01 232.99 41.33 280.24 48.17"/><polygon class="cls-10" points="264.84 13.12 221.34 23.49 211.7 32.54 232.99 41.33 280.24 48.17 264.84 13.12"/><polygon class="cls-14" points="226.29 4.21 194.09 22.75 193.84 39.86 211.7 32.54 221.34 23.49 264.84 13.12 226.29 4.21"/><polygon class="cls-10" points="193.84 39.86 184.34 32.54 179.39 27.34 183.61 10.49 208.26 0.04 226.29 4.21 194.09 22.75 193.84 39.86"/><polygon class="cls-14" points="183.61 10.49 163.6 23.98 166.98 42.8 184.34 32.54 179.39 27.34 183.61 10.49"/><polygon class="cls-10" points="163.6 23.98 160.23 39.86 164.76 66 166.98 42.8 163.6 23.98"/></svg>