<svg id="illustration_layer_copy_2" data-name="illustration_layer copy 2" xmlns="http://www.w3.org/2000/svg" viewBox="0 0 400 400"><defs><style>.cls-1,.cls-18,.cls-19,.cls-23{fill:#2b2b2b;}.cls-1,.cls-10,.cls-11,.cls-12,.cls-13,.cls-14,.cls-15,.cls-16,.cls-17,.cls-18,.cls-2,.cls-20,.cls-21,.cls-22,.cls-23,.cls-25,.cls-26,.cls-27,.cls-3,.cls-4,.cls-5,.cls-6,.cls-7,.cls-8,.cls-9{fill-rule:evenodd;}.cls-1{opacity:0.1;}.cls-2{fill:#594165;}.cls-3{fill:#785d87;}.cls-4{fill:#bcbcbc;}.cls-5{fill:#444;}.cls-6{fill:#565656;}.cls-7{fill:#95637c;}.cls-8{fill:#c1907d;}.cls-9{fill:#f4c9b2;}.cls-10{fill:#a587b9;}.cls-11{fill:#8f759f;}.cls-12{fill:#543042;}.cls-13{fill:#734d60;}.cls-14{fill:#7a7a7a;}.cls-15{fill:#8c8c8c;}.cls-16{fill:#fce3d4;}.cls-17{fill:#ffefe7;}.cls-20{fill:#9e9e9e;}.cls-21{fill:#fcfcfc;}.cls-22{fill:#e0e0e0;}.cls-23{opacity:0.2;}.cls-24{fill:none;stroke:#fff;stroke-miterlimit:10;}.cls-25{fill:#aa4943;}.cls-26{fill:#c16053;}.cls-27{fill:#d06b5a;}</style></defs><title>analysts_INTP_famous_real_isaac_newton</title><polygon class="cls-1" points="76.56 387.56 214.5 371.96 311.66 390.8 204.59 400 76.56 387.56"/><polygon class="cls-2" points="73.71 157.22 74.39 146.69 59.89 140.21 64.81 150.34 68.56 157.73 73.71 157.22"/><polygon class="cls-3" points="73.71 157.22 59.89 140.21 62.16 151.92 68.56 157.73 73.71 157.22"/><polygon class="cls-3" points="76.67 157.73 79.12 144.46 79.12 141.25 76.39 138.5 71.88 156.9 76.67 157.73"/><polygon class="cls-3" points="228.94 335.63 230.95 342.16 244.24 348.64 260.81 337.23 263.25 320.92 243.86 313.74 228.94 335.63"/><polygon class="cls-2" points="226.47 327.33 228.94 335.63 263.25 320.92 243.86 313.74 226.47 327.33"/><polygon class="cls-3" points="199.18 320.26 191 336.7 175.67 338.23 163.71 330.09 186.7 295.6 199.18 320.26"/><polygon class="cls-2" points="204.59 309.61 199.18 320.26 163.71 330.09 164.7 318.44 186.7 295.6 204.59 309.61"/><polygon class="cls-4" points="230.95 342.16 237.51 363.82 241.88 376.17 256.46 366.16 260.81 337.23 230.95 342.16"/><polygon class="cls-4" points="191 336.7 163.71 330.09 161.46 359.06 169.52 362.89 180.31 360.24 191 336.7"/><polygon class="cls-5" points="256.46 366.16 261.12 373.91 258.47 392.1 255.75 392.1 250.1 375.12 256.46 366.16"/><polygon class="cls-5" points="180.31 360.24 183.46 366.2 179.63 384.89 169.42 384.89 168.59 379.56 167.75 369.74 180.31 360.24"/><polygon class="cls-6" points="256.46 366.16 255.75 392.1 223.94 392.1 237.51 363.82 242.93 373.91 256.46 366.16"/><polygon class="cls-6" points="180.31 360.24 168.59 379.56 157.31 384.89 126.05 384.89 162.28 360.24 180.31 360.24"/><polygon class="cls-7" points="244.21 379.13 236.91 378.85 236.24 360.13 251.66 359.72 250.1 369.8 244.21 379.13"/><polygon class="cls-7" points="154.93 371.7 169.07 360.24 170.69 352.92 162.19 350.7 148.98 369.08 154.93 371.7"/><polygon class="cls-8" points="76.39 138.5 93.42 136.63 79.67 125.86 76.39 138.5"/><polygon class="cls-9" points="71.88 119.34 71.5 137.23 76.39 138.5 81.84 126.11 71.88 119.34"/><polygon class="cls-10" points="208.24 228.25 178.51 309.61 204.59 309.61 215.31 279.61 208.24 228.25"/><polygon class="cls-11" points="208.24 228.25 204.59 309.61 230.64 309.61 208.24 228.25"/><polygon class="cls-12" points="160.61 162.01 133.45 170.01 119.39 178.86 114.03 200.83 165.51 196.81 168.7 180.5 160.61 162.01"/><polygon class="cls-13" points="281.05 170.18 297.33 174.59 271.51 222.46 282.62 275.27 294.33 315.78 226.47 327.33 208.24 228.25 182.95 309.31 167.52 310.33 160.46 170.18 182.96 170.18 281.05 170.18"/><polygon class="cls-7" points="244.41 172.63 232.17 220.43 228.86 291.93 226.47 327.33 213.94 329.07 208.24 228.25 192.01 257.02 179.3 170.62 182.96 170.18 244.41 172.63"/><polygon class="cls-14" points="149.47 144.54 148.5 165.57 179.55 154.74 195.62 141.55 167.85 134.34 149.47 144.54"/><polygon class="cls-4" points="151.14 66.38 141.29 102.78 157.63 110.07 165.79 102.78 165.79 64 158.66 61.63 151.14 66.38"/><polygon class="cls-15" points="141.29 102.78 149.47 144.54 166.62 139.44 165.79 118.86 162.35 103.41 141.29 102.78"/><polygon class="cls-4" points="188.43 38.11 183.38 28.89 184.55 13.01 219.89 0 260.51 13.71 212.24 27.08 188.43 38.11"/><polygon class="cls-16" points="164.76 34.81 165.79 64 162.35 103.41 166.62 139.44 195.62 141.55 215.14 164.76 246.79 141.02 254.18 61.37 237.82 41.85 188.43 38.11 164.76 34.81"/><polygon class="cls-9" points="237.82 41.85 226.75 143.84 195.62 141.55 215.8 161.59 225.96 163.06 249.96 142.08 256.29 59.26 237.82 41.85"/><polygon class="cls-9" points="216.9 68.58 195.62 102.78 173.65 65.06 183.38 65.06 189.82 66.38 198.77 67.1 207.84 66.38 216.9 68.58"/><polygon class="cls-17" points="198.77 67.1 195.62 102.78 184.55 101.72 189.82 66.38 198.77 67.1"/><polygon class="cls-8" points="195.62 102.78 189.16 108.45 184.55 101.72 195.62 102.78"/><polygon class="cls-8" points="195.62 141.55 226.75 143.84 237.82 150.34 215.14 171.09 195.62 141.55"/><polygon class="cls-8" points="175.68 112.71 189.29 115.52 207.82 114.82 207.82 118.52 189.69 119.57 175.05 116.14 175.68 112.71"/><path class="cls-18" d="M212.24,78.18a3.83,3.83,0,1,1-3.82-4A3.92,3.92,0,0,1,212.24,78.18Z"/><ellipse class="cls-19" cx="179.55" cy="75.68" rx="3.82" ry="4.02"/><polygon class="cls-15" points="251.8 29.23 269.08 32.35 286.36 44.75 284.78 71.92 264.02 50.64 251.8 29.23"/><polygon class="cls-15" points="188.43 38.11 167.85 40.55 158.66 40.55 149.47 33.41 165.2 21.45 184.55 13.01 188.43 38.11"/><polygon class="cls-15" points="188.43 38.11 217.31 48.18 234.4 39.74 251.8 29.23 227.8 28.89 208.86 21.45 188.43 38.11"/><polygon class="cls-20" points="208.86 21.45 260.51 13.71 286.36 44.75 251.8 29.23 224.54 32.49 208.86 21.45"/><polygon class="cls-14" points="217.31 48.18 224.54 32.49 251.8 29.23 237.82 41.85 217.31 48.18"/><polygon class="cls-15" points="216.9 68.58 216.9 65.06 199.71 62.42 198.77 67.1 216.9 68.58"/><polygon class="cls-15" points="173.65 65.06 174.39 61.63 189.43 61.63 189.82 66.38 173.65 65.06"/><polygon class="cls-20" points="251.8 29.23 284.78 71.92 265.12 68.58 249.69 60.58 237.82 41.85 251.8 29.23"/><polygon class="cls-20" points="149.47 33.41 151.14 66.38 165.79 64 167.85 40.55 149.47 33.41"/><polygon class="cls-4" points="249.69 60.58 241.87 84.58 269.08 94.25 291.45 94.25 284.78 71.92 249.69 60.58"/><polygon class="cls-4" points="184.55 13.01 158.96 15.83 149.47 33.41 184.55 13.01"/><polygon class="cls-20" points="241.87 84.58 245.23 108.45 262.36 125.81 285.83 121.71 291.45 94.25 241.87 84.58"/><polygon class="cls-14" points="245.23 108.45 285.83 121.71 289.89 141.81 249.96 142.08 245.23 108.45"/><polygon class="cls-21" points="189.91 182.84 199.18 203.41 207.05 222.26 224.59 195.02 233.51 176.4 238.7 168.27 249.96 142.08 215.14 167.92 195.62 141.55 189.82 162.47 189.91 182.84"/><polygon class="cls-22" points="215.14 167.92 220.12 152.89 249.96 142.08 242.52 162.01 215.14 167.92"/><polygon class="cls-22" points="215.14 167.92 193 158.15 195.62 141.55 215.14 167.92"/><polygon class="cls-22" points="215.31 168.14 224.59 195.02 208.24 228.25 204.24 216.58 199.18 203.41 215.31 168.14"/><polygon class="cls-12" points="208.24 228.25 143.1 311.35 180.94 324.8 208.24 228.25"/><polygon class="cls-13" points="133.45 170.01 111.99 147.53 97.43 146.51 114.03 200.83 133.45 170.01"/><polygon class="cls-20" points="148.5 165.57 177.14 166.34 193 158.15 195.62 141.55 148.5 165.57"/><polygon class="cls-4" points="193 158.15 189.91 182.84 148.5 165.57 193 158.15"/><polygon class="cls-20" points="249.96 142.08 242.98 156.65 267.72 180.19 297.33 174.59 289.89 141.81 249.96 142.08"/><polygon class="cls-4" points="297.33 174.59 242.98 156.65 233.51 176.4 264.44 186.27 297.33 174.59"/><polygon class="cls-11" points="204.24 216.58 228.86 291.93 282.62 275.27 261.21 193.96 204.24 216.58"/><polygon class="cls-3" points="221.59 269.69 234.34 273.12 246.78 268.1 279.64 265.25 245.03 245.95 221.59 269.69"/><polygon class="cls-21" points="204.24 216.58 210.03 204.49 264.44 186.27 262.91 196.32 259.25 198.61 204.24 216.58"/><polygon class="cls-4" points="264.44 186.27 287.64 264.12 282.62 275.27 259.25 198.61 264.44 186.27"/><polygon class="cls-23" points="281.7 244.18 284.26 252.79 279.64 265.25 274.09 247.15 281.7 244.18"/><line class="cls-24" x1="217.1" y1="226.35" x2="252.18" y2="214.94"/><line class="cls-24" x1="226.64" y1="230.04" x2="245.79" y2="223.91"/><polygon class="cls-7" points="133.45 170.01 98.7 185.51 94.36 144.46 100.76 138.28 111.99 135.61 133.45 170.01"/><polygon class="cls-13" points="106.68 138.28 116.58 153.32 122.57 174.59 111.31 157.22 106.68 138.28"/><polygon class="cls-13" points="100.76 141.25 106.68 159.45 108.07 181.33 100.76 160.56 100.76 141.25"/><polygon class="cls-9" points="90.27 133.56 76.39 138.5 79.12 144.46 94.36 144.46 90.27 133.56"/><polygon class="cls-16" points="111.99 135.61 85.42 119.86 71.88 119.34 88.23 134.59 94.36 144.46 111.99 135.61"/><polygon class="cls-25" points="94.92 171.63 82.34 191.18 59.89 189.49 71.88 180.01 94.92 171.63"/><polygon class="cls-26" points="94.92 171.63 76.39 168.14 50.07 168.42 59.89 189.49 94.92 171.63"/><polygon class="cls-25" points="94.92 171.63 50.07 168.42 64.47 160.17 88.49 155.37 94.92 171.63"/><polygon class="cls-27" points="88.49 155.37 50.07 168.42 62.16 151.92 74.94 156.41 88.49 155.37"/><polygon class="cls-9" points="189.82 141.13 193 136.12 189.82 132.23 186.94 136.68 189.82 141.13"/><polygon class="cls-9" points="195.62 102.78 203.98 104.11 207.84 112.37 195.62 102.78"/><polygon class="cls-9" points="184.55 101.72 177.95 102.78 175.73 110.07 184.55 101.72"/><polygon class="cls-12" points="297.33 174.59 299.61 237.1 273.19 233.83 267.66 197.3 297.33 174.59"/><polygon class="cls-13" points="299.61 237.1 268.9 249.24 263.67 239.72 267.16 224.56 271.41 222.11 299.61 237.1"/><polygon class="cls-7" points="267.16 224.56 236.9 243.59 233.57 254.17 241.88 260.54 279.64 265.25 267.16 224.56"/><polygon class="cls-13" points="238.32 248.45 251.45 239.99 271.14 236.41 254.77 245.61 238.32 248.45"/><polygon class="cls-13" points="240.54 255.97 256.53 251.23 276.17 253.47 256.6 257.1 240.54 255.97"/><polygon class="cls-9" points="236.9 243.59 223.39 240.17 212.78 242.72 213.74 245.95 223.91 251.23 236.9 243.59"/><polygon class="cls-16" points="236.9 243.59 213.74 245.95 214.01 259.97 221.59 269.69 241.88 260.54 236.9 243.59"/><polygon class="cls-9" points="221.59 269.69 215.48 266.6 209.5 250.53 213.74 245.95 221.59 269.69"/></svg>