<svg id="Layer_1" data-name="Layer 1" xmlns="http://www.w3.org/2000/svg" viewBox="0 0 400 400"><defs><style>.cls-1,.cls-2{fill:#2b2b2b;}.cls-1,.cls-10,.cls-11,.cls-12,.cls-13,.cls-14,.cls-15,.cls-2,.cls-3,.cls-4,.cls-5,.cls-6,.cls-7,.cls-8,.cls-9{fill-rule:evenodd;}.cls-1{opacity:0.1;}.cls-3{fill:#594165;}.cls-4{fill:#c1907d;}.cls-5{fill:#f4c9b2;}.cls-6{fill:#785d87;}.cls-7{fill:#734d60;}.cls-8{fill:#95637c;}.cls-9{fill:#543042;}.cls-10{fill:#8f759f;}.cls-11{fill:#fce3d4;}.cls-12{fill:#e0e3e6;}.cls-13{fill:#d6d6d9;}.cls-14{fill:#d6d6d6;}.cls-15{fill:#ffefe7;}</style></defs><title>analysts_INTP_famous_fictional_aemon_targaryen_game_of_thrones</title><polygon class="cls-1" points="99.19 387.91 216.23 378.01 290.73 385.96 257.66 400.38 99.19 387.91"/><path class="cls-2" d="M261.45,390l-.27,6.38H223.26v-6.47s26.52-4.4,26.46-5c0-.09,6.89,4,11.72,5.07"/><polygon class="cls-2" points="144.86 371.59 111.32 382.79 111.35 387.94 166.68 387.73 166.62 381.93 144.86 371.59"/><polygon class="cls-3" points="258.41 364.82 261.45 389.97 223.27 389.89 227.66 375.46 234.64 361.99 246.83 359.94 258.41 364.82"/><polygon class="cls-3" points="142.19 359.38 141.06 362.88 111.32 382.79 166.62 381.93 166.64 377.74 164.91 363.88 163.53 358.86 142.19 359.38"/><polygon class="cls-4" points="117.02 252.26 115.78 267.49 120.36 279.31 128.59 287.97 133.44 286.43 131.94 249.45 117.02 252.26"/><polygon class="cls-5" points="122.26 245.22 117.02 252.26 115.78 267.49 128.31 274.88 130.13 255.51 127.71 240.98 122.26 245.22"/><path class="cls-6" d="M113.18,168.94l-5.48,87.93,28.48-2S134.37,169.55,135,172s-15.74-5.45-15.74-5.45l-6.66,3Z"/><polygon class="cls-7" points="236.91 100.37 269.11 109.67 264.97 121.69 267.54 151.99 251.19 176.21 216.69 181.05 196.11 165.91 236.91 100.37"/><polygon class="cls-5" points="233.22 131.01 235.53 112.92 226.59 40.48 199.46 33.92 191.4 149.27 194.83 169.48 233.22 131.01"/><polygon class="cls-4" points="206.4 149.39 192.67 149.47 161.4 144.11 151.31 148.97 168.26 167.13 184 174.39 200.55 165.19 206.4 149.39"/><polygon class="cls-8" points="287.03 161.2 264.97 121.69 251.19 176.21 274.2 185.89 287.03 161.2"/><polygon class="cls-6" points="182.79 206.48 168.26 179.84 168.26 167.13 200.55 165.19 197.32 181.66 182.79 206.48"/><polygon class="cls-7" points="106.11 118.99 98.69 123.06 104.7 151.99 125.29 176.81 156.76 176.21 168.26 167.13 161.6 148.79 106.11 118.99"/><polygon class="cls-8" points="182.19 196.18 225.16 195.58 251.19 176.21 200.55 165.19 182.19 196.18"/><polygon class="cls-8" points="168.27 167.13 125.29 176.81 156.76 204.66 182.19 196.18 174.32 179.84 168.27 167.13"/><polygon class="cls-8" points="98.69 123.06 101.68 161.68 125.29 176.81 98.69 123.06"/><polygon class="cls-7" points="125.29 176.81 130.73 360.23 180.91 375.12 180.97 366.67 191.78 366.11 188.85 301.52 182.19 196.18 145.87 184.08 142.84 187.71 138 181.05 125.29 176.81"/><polygon class="cls-7" points="206.4 380.2 188.85 301.51 182.19 196.18 251.19 176.21 276.62 190.73 268.88 283.8 268.28 364.23 206.4 380.2"/><polygon class="cls-7" points="280.25 245.22 282.67 276.09 268.88 283.8 253.62 249.45 280.25 245.22"/><polygon class="cls-9" points="180.97 366.67 206.4 380.2 182.19 196.18 181.03 358.29 180.97 366.67"/><polygon class="cls-6" points="251.19 176.21 253.62 249.45 271.77 249.45 280.86 253.69 293.19 249.45 302.53 249.45 287.03 161.2 251.19 176.21"/><polygon class="cls-5" points="268.28 271.62 265.71 254.9 267.52 249.45 293.19 249.45 296.12 264.02 279.65 269.43 268.28 271.62"/><polygon class="cls-4" points="268.88 283.8 268.28 271.62 296.12 264.02 282.5 281.02 268.88 283.8"/><polygon class="cls-4" points="268.28 271.62 259.21 262.06 267.52 249.45 268.28 271.62"/><path class="cls-6" d="M140.42,202.84l3.63,13.93,6.66.6,8.47-4.84-5.44-15.14-13.32,4.85Zm-1.82-6.66,14.53-5.44,6.05,1.81,5.45,16.95L164,218,153.13,224l-11.5-1.82-5.45-18.16,3-7.87Z"/><polygon class="cls-3" points="138 181.05 142.84 201.63 150.1 199.81 145.87 184.08 138 181.05"/><path class="cls-3" d="M162.21,233.72l7.87-9.09,17.56,9.69,1.21,8.47.6,4.24-22.4-1.81-4.84-12.11Zm-8.47,3,4.84-8.47,5.45-5.45,7.26-3,28.45,13.32.61,7.87-10.29,15.74-28.45-4.85Z"/><polygon class="cls-10" points="151.31 217.37 158.58 228.27 162.21 233.72 167.05 227.66 163.42 222.21 158.58 213.13 151.31 217.37"/><path class="cls-6" d="M211.85,229.48l1.21,12.71h7.87l6.66-9.08-.61-4.24-4.24-3Zm-6-4.24,2.42,20.58,14.53,2.42,14.52-18.16-11.5-11.5-19.37,6Z"/><polygon class="cls-10" points="188.24 243.4 213.06 237.95 211.85 229.48 187.03 234.92 188.24 243.4"/><path class="cls-3" d="M236.66,204.05l-4.23,8.48,4.23,2.42,7.27-2.42,2.42-6.05-5.45-3Zm-8.46,9.08,11.5,10.3,12.7-10.3-.6-12.1-7.87-2.42-9.68.6-5.45,14.53Z"/><polygon class="cls-10" points="222.74 225.85 232.43 212.53 236.66 214.95 232.43 225.85 226.98 228.87 222.74 225.85"/><polygon class="cls-3" points="240.9 179.23 240.9 188.92 244.54 191.34 251.8 190.73 259.06 186.5 257.86 173.18 251.19 176.21 251.8 185.29 246.96 185.89 245.75 177.42 240.9 179.23"/><polygon class="cls-10" points="240.9 203.45 243.93 198 244.54 191.34 246.96 185.89 251.8 185.29 251.8 190.73 252.4 200.42 246.35 206.48 240.9 203.45"/><polygon class="cls-11" points="100.91 35.24 100.29 80.09 106.11 118.99 119.49 147.86 192.67 149.47 203.61 108.89 199.47 33.92 196.02 28.55 182.24 5.68 126.09 11.69 100.91 35.24"/><polygon class="cls-12" points="187.01 1.38 166.89 10.54 153.32 5.82 123.59 9.74 115.59 21.51 116.66 25.38 127.24 33.05 157.86 14.32 175.67 11.61 185.17 34.05 199.46 33.92 203.79 14.49 187.01 1.38"/><polygon class="cls-13" points="123.59 9.74 100.91 35.24 116.66 25.38 123.59 9.74"/><polygon class="cls-13" points="127.05 33.06 159.34 26.34 187.01 1.38 153.32 5.82 127.05 33.06"/><polygon class="cls-14" points="220.41 7.71 187.01 1.38 199.47 33.92 225.08 46.87 245.77 28.1 220.41 7.71"/><polygon class="cls-12" points="211.39 76.82 199.46 33.92 245.77 28.1 241.9 60.55 219.5 77.97 211.39 76.82"/><polygon class="cls-11" points="217.44 60.06 216.89 100.1 236.91 100.37 241.9 60.55 217.44 60.06"/><polygon class="cls-4" points="222.95 86.5 223.9 67.04 235.79 67.56 222.95 86.5"/><polygon class="cls-5" points="141.76 103.72 134.47 101.13 121.9 78.55 108.99 69.95 115.33 62.11 128.72 61.3 137.16 62.67 142.97 65.2 147.63 60.98 155.23 59.57 172.32 58.96 183.91 64.73 168.96 76.27 150.09 100.43 141.76 103.72"/><polygon class="cls-4" points="216.89 100.1 235.53 112.92 236.91 100.37 216.89 100.1"/><polygon class="cls-15" points="137.23 61.2 132.97 72.11 134.47 101.13 150.09 100.43 145.66 70.52 147.71 59.5 137.23 61.2"/><polygon class="cls-4" points="143.79 107.53 134.47 101.13 150.09 100.43 143.79 107.53"/><polygon class="cls-12" points="156.34 52.21 155.23 59.57 183.91 64.73 183.69 54.34 156.34 52.21"/><polygon class="cls-12" points="126.93 55.45 128.72 61.3 108.99 69.95 106.72 61.78 126.93 55.45"/><polygon class="cls-4" points="128.13 123.81 130.57 119.48 160.33 118.02 165.29 122.72 162.99 124.09 159.48 120.2 131.2 121.74 129.53 125.36 128.13 123.81"/><path class="cls-2" d="M124.23,70a4.53,4.53,0,1,1-4.75,4.29A4.53,4.53,0,0,1,124.23,70"/><path class="cls-2" d="M163.38,69.35a4.53,4.53,0,1,1-4.75,4.29,4.53,4.53,0,0,1,4.75-4.29"/><polygon class="cls-5" points="105.83 47.88 135.2 46.66 178.48 40.37 135.23 50.85 105.83 47.88"/><polygon class="cls-5" points="102.75 42.47 134.59 40.64 176.86 36.66 134.94 44.21 102.75 42.47"/><polygon class="cls-5" points="103.61 80.11 113.62 76.14 103.05 76.24 103.61 80.11"/><polygon class="cls-5" points="175.07 79.72 167.32 83.72 161.05 81.42 167.87 90.35 175.07 79.72"/><polygon class="cls-5" points="114.27 88.17 121.95 88.05 127.91 82.83 122.91 93.35 114.27 88.17"/><polygon class="cls-5" points="106.23 86.97 114.42 79.98 104.45 83.49 106.23 86.97"/><polygon class="cls-5" points="188.81 73.24 178.1 72.12 188.3 69.37 188.81 73.24"/><polygon class="cls-5" points="188.14 80.55 178.37 76.03 188.91 76.72 188.14 80.55"/><polygon class="cls-5" points="116.18 126.28 121.02 109.28 134.47 101.13 116.18 126.28"/><polygon class="cls-5" points="174.23 123.06 150.09 100.43 167.52 105.19 174.23 123.06"/></svg>