<svg id="Layer_1" data-name="Layer 1" xmlns="http://www.w3.org/2000/svg" viewBox="0 0 400 400"><defs><style>.cls-1{fill:none;}.cls-2{fill:#f4c9b2;}.cls-3{fill:#33231b;}.cls-4{fill:#7f5d4e;}.cls-27,.cls-5{fill:#2b2b2b;}.cls-5{fill-opacity:0.1;}.cls-6{fill:#594165;}.cls-7{fill:#785d87;}.cls-8{fill:#d7d7d7;}.cls-9{fill:#afafaf;}.cls-10{fill:#95637c;}.cls-11{fill:#d0a0b7;}.cls-12{fill:#fce3d4;}.cls-13{fill:#543042;}.cls-14{fill:#eaeceb;}.cls-15{fill:#58585a;}.cls-16{fill:#3f4143;}.cls-17{fill:#8f759f;}.cls-18{fill:#393939;}.cls-19{fill:#c1907d;}.cls-20{fill:#b2879c;}.cls-21{fill:#c2c1c2;}.cls-22{fill:#a587b9;}.cls-23{fill:#dddddc;}.cls-24{fill:#593e35;}.cls-25{fill:#98796a;}.cls-26{fill:#ffefe7;}</style></defs><title>analysts_INTP_famous_real_blaise_pascal</title><g id="Layer_1-2" data-name="Layer_1"><rect class="cls-1" x="0.5" y="0.5" width="399" height="399"/><g id="_869291376" data-name=" 869291376"><polygon class="cls-2" points="146.18 189.13 148.15 182.72 153.58 164.44 142.22 160.99 129.88 170.37 129.38 191.11 146.18 189.13"/><polygon class="cls-3" points="188.64 143.7 168.39 140.25 176.3 162.96 201.98 153.09 188.64 143.7"/><polygon class="cls-4" points="208.89 144.69 179.75 126.92 172.84 128.89 168.39 140.25 186.17 147.66 194.07 150.13 208.89 144.69"/><polygon class="cls-3" points="274.56 163.95 297.77 150.13 312.59 116.55 290.86 111.61 259.75 135.31 274.56 163.95"/><polygon class="cls-5" points="324.94 380.24 228.15 368.88 124.94 378.76 224.69 399.01 324.94 380.24"/><polygon class="cls-6" points="242.96 380.24 235.56 384.19 235.56 388.64 275.56 388.14 275.56 384.19 242.96 380.24"/><polygon class="cls-6" points="198.02 366.42 167.9 379.25 167.9 383.7 215.31 383.2 215.31 379.25 198.02 366.42"/><path class="cls-6" d="M166.42,326.91H302.71s-83.95-47.41-82-47.9-53.83,47.9-53.83,47.9Z"/><polygon class="cls-7" points="215.31 379.25 214.32 359.5 200 353.08 193.58 359.5 167.9 379.25 215.31 379.25"/><polygon class="cls-7" points="251.36 356.05 242.47 360 235.56 384.19 275.56 384.19 262.71 360 251.36 356.05"/><polygon class="cls-8" points="188.64 305.18 186.17 319.01 193.58 359.5 214.32 359.5 221.73 327.4 222.71 317.03 219.26 296.79 197.04 292.84 188.64 305.18"/><polygon class="cls-9" points="188.64 305.18 190.62 326.42 201.98 327.4 221.73 327.4 223.7 317.03 219.75 300.25 192.1 301.73 188.64 305.18"/><polygon class="cls-8" points="236.05 310.12 238.52 318.51 234.56 327.4 242.47 360 262.71 360 271.11 314.07 236.05 310.12"/><polygon class="cls-9" points="236.05 310.12 232.59 317.53 234.56 327.4 243.95 327.4 270.12 325.43 271.11 318.02 264.19 314.07 236.05 310.12"/><polygon class="cls-10" points="77.04 151.61 66.67 159.01 68.64 173.33 129.38 191.11 129.38 170.37 77.04 151.61"/><polygon class="cls-11" points="159.01 120.5 160 107.66 106.18 96.3 98.27 116.05 66.67 159.01 124.44 175.8 150.62 146.67 159.01 120.5"/><polygon class="cls-10" points="160 107.66 151.61 130.87 124.44 175.8 129.38 191.11 163.46 125.93 160 107.66"/><polygon class="cls-12" points="153.58 164.44 149.63 152.59 134.81 159.01 136.79 166.91 153.58 164.44"/><polygon class="cls-13" points="188.64 158.03 176.3 162.96 152.59 196.54 169.88 218.76 188.15 206.91 189.63 161.98 188.64 158.03"/><polygon class="cls-14" points="150.62 199.5 134.81 202.47 129.38 191.11 148.15 182.72 155.56 192.59 150.62 199.5"/><path class="cls-15" d="M223.7,317l4-23.21,5.93-12.34-5.93-4.94,8.89-20.24s-43.95-7.91-45.43-7.41-2.47,67.16-2.47,67.16Z"/><polygon class="cls-7" points="260.74 210.37 274.56 232.59 297.77 222.22 286.91 202.96 260.74 210.37"/><polygon class="cls-15" points="229.63 257.78 227.65 293.82 232.59 317.53 244.94 317.53 274.56 308.64 260.25 259.26 229.63 257.78"/><polygon class="cls-16" points="175.8 276.54 227.65 293.82 274.56 272.59 261.23 255.8 193.09 253.33 175.8 276.54"/><polygon class="cls-17" points="250.86 272.1 243.45 286.42 243.95 327.4 307.16 327.4 299.75 288.39 266.67 264.69 250.86 272.1"/><polygon class="cls-7" points="248.89 273.58 243.45 280.49 243.45 286.42 280.49 287.9 285.92 277.53 280 273.58 248.89 273.58"/><polygon class="cls-18" points="189.63 243.95 184.2 257.78 247.41 258.27 250.86 240.49 241.97 245.43 187.65 241.48 189.63 243.95"/><polygon class="cls-14" points="253.82 279.5 247.41 283.95 243.45 280.49 241.48 224.69 244.44 220.74 247.41 220.74 258.27 240.99 253.82 279.5"/><polygon class="cls-19" points="286.42 285.43 280.49 287.9 272.59 280.49 288.88 278.02 286.42 285.43"/><polygon class="cls-11" points="249.88 217.28 245.93 222.22 246.42 251.85 284.94 282.47 307.65 276.05 318.02 280.99 331.85 249.88 329.88 219.26 277.04 221.73 249.88 217.28"/><polygon class="cls-20" points="246.42 251.85 247.41 283.95 284.94 282.47 307.65 276.05 313.58 280.99 333.33 280.49 331.36 249.38 246.42 251.85"/><polygon class="cls-20" points="301.73 220.25 277.04 221.73 280.49 250.86 295.8 257.78 301.73 220.25"/><polygon class="cls-20" points="280.49 250.86 280.99 256.79 273.08 270.62 279.5 272.1 275.56 276.54 275.06 282.47 284.94 282.47 303.7 271.11 302.71 249.88 280.49 250.86"/><polygon class="cls-2" points="292.34 263.21 288.39 260.74 273.08 270.62 275.56 276.54 293.82 272.1 292.34 263.21"/><polygon class="cls-2" points="308.14 275.06 313.58 280.99 299.75 288.39 280.49 287.9 284.94 282.47 308.14 275.06"/><polygon class="cls-12" points="303.7 254.81 311.11 261.73 313.58 280.99 284.94 282.47 288.39 260.74 303.7 254.81"/><polygon class="cls-14" points="296.29 239.5 288.88 247.9 288.39 260.74 311.11 261.73 314.07 249.88 296.29 239.5"/><polygon class="cls-13" points="293.33 215.8 289.88 220.74 288.88 247.9 314.07 249.88 321.97 219.75 293.33 215.8"/><polygon class="cls-21" points="191.11 221.73 190.62 245.43 241.97 245.43 241.48 224.69 249.88 185.68 193.58 183.21 191.11 221.73"/><polygon class="cls-17" points="184.2 179.75 179.75 186.17 166.42 326.91 201.98 327.4 197.04 232.59 197.04 232.59 195.56 200.99 184.2 179.75"/><path class="cls-17" d="M246.42,185.68c-1.48-.49-5.43,14.82-5.43,14.82l.49,23.7,4.45-2.47,31.11-1,4.44-15.31-5.92-22.22-10.87,3-8.89-7.41,2.47-7.4-11.85,13.83Z"/><polygon class="cls-7" points="281.48 206.42 289.38 193.09 297.77 150.13 283.95 143.7 258.27 172.35 255.8 179.26 264.69 187.16 281.48 206.42"/><polygon class="cls-22" points="176.3 162.96 179.75 186.17 195.56 202.47 205.43 163.95 193.09 150.13 176.3 162.96"/><polygon class="cls-23" points="202.96 169.38 213.83 185.19 240.99 200.99 269.06 148.15 259.75 135.31 240 145.68 202.96 169.38"/><polygon class="cls-14" points="219.15 128.4 220.25 162.47 213.83 185.19 195.56 202.47 193.09 150.13 200 145.19 219.15 128.4"/><polygon class="cls-22" points="259.75 135.31 283.95 143.7 264.69 187.16 240.99 200.99 259.75 135.31"/><polygon class="cls-6" points="297.77 150.13 321.97 219.75 289.88 220.74 281.48 206.42 297.77 150.13"/><polygon class="cls-7" points="148.64 233.08 175.8 214.81 155.56 192.59 134.81 202.47 148.64 233.08"/><polygon class="cls-10" points="110.13 100.75 152.59 110.62 147.16 125.93 103.71 116.05 110.13 100.75"/><path class="cls-10" d="M89.38,158.52l-13.82-4L82,145.68l13.33,3.46L89.38,158h0Zm11.37-37h0L112.59,124l-4.44,6.42-12.34-3,4.44-5.93h.5Zm15.3,3.46h0l-4,6.42,12.34,3,4-6.42-12.35-3Zm15.8,3.46h0l12.35,3-3.95,6.42-12.84-3,4-6.41h.49Zm3.46,17.78h0l3.95-6.43-12.84-3-4,6.42,12.84,3Zm-16.3-4h0l-12.34-3,4-5.93,12.34,3L119,142.72h0Zm-15.8-3.95h0l4-5.92-12.34-3-4.44,5.93,12.83,3ZM117,152.1h0l4.44-6.91,12.84,3.45-4.44,6.92L123,167.41,110.12,164l7.41-11.36h0Zm-4-1h0l4.44-6.91-12.34-3-4.44,6.91,12.34,3Zm-15.8-4h0l4.44-6.91-12.84-3.46L84,143.7l13.34,3.46Zm8.89,15.31h0l5.92-9.38-12.35-3L93.83,159Z"/><path class="cls-10" d="M253.82,263.7l15.81,11.36.49-20.25-16.3,8.89Zm12.35-3.95h0l.5,10.37-7.91-6.42,6.92-3.95Z"/><path class="cls-10" d="M271.6,247.9H253.33v-8.4l3.95-3h5.93l2.47,5.93h6.42v4.44h0Zm-9.87-4.45h0l-2-3.45h-2l-1.48,3.45Z"/><polygon class="cls-19" points="200.85 137.78 220.25 162.47 243.13 148.15 251.35 135.31 228.38 131.92 200.85 137.78"/><polygon class="cls-2" points="259.75 135.31 284.94 87.41 240.99 23.21 231.6 141.73 245.93 140.25 243.13 148.15 259.75 135.31"/><polygon class="cls-24" points="256.3 73.58 266.67 92.35 286.91 97.29 302.71 82.47 286.91 60.25 272.1 56.79 256.3 73.58"/><polygon class="cls-4" points="264.19 28.65 285.92 28.65 286.91 60.25 276.54 64.69 256.3 73.58 247.51 49.48 264.19 28.65"/><polygon class="cls-24" points="226.17 8.89 264.19 1.98 285.92 28.65 247.51 49.48 226.17 8.89"/><polygon class="cls-12" points="162.96 63.62 161.29 75.06 171.97 101.73 174.18 121.48 177.12 131.92 200 144.69 231.6 141.73 252.65 122.96 247.51 49.48 229.63 11.36 190.13 22.72 170.37 35.56 162.96 63.62"/><polygon class="cls-4" points="175.8 33.09 162.96 23.21 197.53 0.99 264.19 1.98 253.82 20.75 238.52 33.58 202.96 22.23 175.8 33.09"/><polygon class="cls-25" points="202.96 22.23 253.82 20.75 247.51 49.48 202.96 22.23"/><polygon class="cls-25" points="164.44 64.63 160.5 75.06 150.62 70.13 162.96 23.21 202.96 22.23 177.78 38.03 164.44 64.63"/><polygon class="cls-2" points="191 69.46 197.09 79.32 201.32 81.67 203.67 78.85 208.36 66.65 217.75 58.67 235.58 63.36 223.37 78.38 210.24 102.31 202.26 95.28 191.46 104.19 183.01 82.6 170.81 75.1 181.61 64.77 191 69.46"/><polygon class="cls-19" points="199.91 101.85 191.46 104.19 204.13 110.76 210.24 102.31 199.91 101.85"/><polygon class="cls-26" points="197.09 79.32 195.22 87.77 191.46 104.19 200.85 106.07 210.24 102.31 203.67 87.3 203.67 78.85 197.09 79.32"/><polygon class="cls-24" points="206.48 63.83 217.28 56.79 236.05 61.02 235.58 63.36 218.68 61.48 208.36 66.65 206.48 63.83"/><polygon class="cls-24" points="192.87 66.18 181.14 63.36 170.34 72.75 170.81 75.1 180.67 67.58 191 69.46 192.87 66.18"/><polygon class="cls-19" points="194.75 117.8 198.5 120.62 214.46 118.27 220.09 112.64 221.5 114.05 215.87 120.62 198.03 122.96 193.34 119.68 194.75 117.8"/><path class="cls-27" d="M184.42,79.32a4.23,4.23,0,1,1-4.22,4.22A4.22,4.22,0,0,1,184.42,79.32Z"/><path class="cls-27" d="M223.37,74.15a4.23,4.23,0,1,1-4.22,4.23A4.23,4.23,0,0,1,223.37,74.15Z"/><polygon class="cls-24" points="164.44 117.04 172.35 130.15 177.12 131.92 174.64 118.55 170.7 112.1 164.44 117.04"/><polygon class="cls-4" points="171.97 101.73 164.44 117.04 174.64 118.55 171.97 101.73"/><polygon class="cls-24" points="150.62 70.13 171.97 101.73 165.25 63.02 150.62 70.13"/><polygon class="cls-4" points="301.73 100.25 302.71 82.47 266.67 92.35 261.23 116.05 290.37 115.06 301.73 100.25"/><polygon class="cls-24" points="259.75 135.31 261.23 116.05 301.73 100.25 312.59 116.55 259.75 135.31"/></g></g></svg>