<svg id="Layer_1" data-name="Layer 1" xmlns="http://www.w3.org/2000/svg" viewBox="0 0 400 400"><defs><style>.cls-1,.cls-21{fill:#0c0c0e;}.cls-1,.cls-10,.cls-11,.cls-12,.cls-13,.cls-14,.cls-15,.cls-16,.cls-17,.cls-18,.cls-19,.cls-2,.cls-20,.cls-21,.cls-22,.cls-3,.cls-4,.cls-5,.cls-6,.cls-7,.cls-8,.cls-9{fill-rule:evenodd;}.cls-1{opacity:0.1;}.cls-2{fill:#8f759f;}.cls-3{fill:#f4cab2;}.cls-4{fill:#a587b8;}.cls-24,.cls-5{fill:#8f7d73;}.cls-26,.cls-6{fill:#5f4f45;}.cls-25,.cls-7{fill:#73665c;}.cls-8{fill:#fbe3d4;}.cls-9{fill:#c18f7c;}.cls-10,.cls-23{fill:#45382e;}.cls-11{fill:#543042;}.cls-12{fill:#95637c;}.cls-13{fill:#795d88;}.cls-14{fill:#594265;}.cls-15{fill:#b2879c;}.cls-16{fill:#d1a0b8;}.cls-17{fill:#fff0e8;}.cls-18{fill:#484748;}.cls-19{fill:#707073;}.cls-20{fill:#734d61;}.cls-21{opacity:0.2;}.cls-22{fill:#2b2b2b;}.cls-27{fill:none;}</style></defs><title>analysts_INTP_famous_fictional_chloe_obrian_24</title><polygon class="cls-1" points="245.6 388.2 161.36 376.4 70.01 386.5 156.51 400 245.6 388.2"/><polygon class="cls-2" points="203.82 359.36 209.9 371.25 207.87 392.4 205.76 392.4 203.19 375.89 203.82 359.36"/><polygon class="cls-3" points="203.82 359.36 195.15 356.25 186.48 359.43 186.48 379.25 200.76 379.25 203.82 359.36"/><polygon class="cls-4" points="203.82 359.36 198.75 375.82 189.55 375.85 186.48 359.43 186.49 359.42 186.48 359.42 179.07 392.4 205.76 392.4 203.82 359.36"/><polygon class="cls-5" points="115.94 118.83 126.27 154.94 84.8 103.52 106.68 54.71 115.94 118.83"/><polygon class="cls-6" points="115.94 118.83 142.71 133.25 126.27 154.94 115.94 118.83"/><polygon class="cls-3" points="109.69 370.05 116.26 373.75 126.27 371.67 140.22 352.18 131.1 348 122.76 352.16 109.69 370.05"/><polygon class="cls-2" points="143.36 383 137.2 383 137.2 370.34 140.22 352.18 146.28 369.1 143.36 383"/><path class="cls-7" d="M194.68,134.69l22.91-51.23,6.16,9.8-8.63,45.56Zm24.94,20.42h0v0Z"/><polygon class="cls-3" points="165.95 165.95 185.84 132.09 178.01 131.98 194.64 46.96 209.02 69.82 205.14 87.43 213.43 97.9 190.24 143.75 165.95 165.95"/><polygon class="cls-8" points="185.84 132.09 194.64 46.96 140.53 22.25 106.68 54.71 115.94 118.83 129.13 133.77 185.84 132.09"/><polygon class="cls-9" points="142.71 133.25 165.95 165.95 191.74 131.93 142.71 133.25"/><polygon class="cls-9" points="194.64 46.96 140.53 22.25 106.68 54.71 110.67 85.78 141.65 32.44 194.64 46.96"/><polygon class="cls-10" points="126.27 154.94 142.71 133.25 150.69 144.49 126.27 154.94"/><polygon class="cls-3" points="146.77 67.89 145.27 71.03 147.75 93.64 160.06 74.75 180.91 63.06 167.56 61.63 146.77 67.89"/><polygon class="cls-3" points="114.17 65.03 127.98 73.88 134.69 93.72 138.87 71.08 137.73 68.2 137.46 67.97 125.65 62.69 114.17 65.03"/><polygon class="cls-9" points="114.17 65.03 119.55 70.49 123.34 63.97 114.17 65.03"/><polygon class="cls-7" points="136.7 62.69 125.04 61.04 114.17 65.02 123.34 63.97 137.46 67.97 137.73 68.2 136.7 62.69"/><polygon class="cls-9" points="147.75 93.64 134.69 93.71 140.38 100.81 147.75 93.64"/><polygon class="cls-7" points="149.06 62.69 146.77 67.89 165.36 62.29 180.91 63.06 165.49 59.1 149.06 62.69"/><polygon class="cls-11" points="162.1 109.49 146.98 105.58 140.12 107.43 133.91 105.87 129.67 110.38 162.1 109.49"/><polygon class="cls-12" points="129.67 110.38 140.57 116.3 162.1 109.49 129.67 110.38"/><path class="cls-2" d="M149.09,280.93l9.31-63.29h0l-.11-.82-.3-2.06c-1.91-13.4-3.79-26.76-5.69-40.17l-26-19.64-5.34,37.92h0L132,204.73l4.74,31.49,17.5,7.07Z"/><polygon class="cls-13" points="158.4 217.64 158.4 217.64 158.29 216.82 157.99 214.76 155.86 199.76 155.84 199.76 120.94 192.87 120.94 192.87 121.48 194.36 136.75 236.22 154.25 243.29 158.4 217.64"/><path class="cls-13" d="M158.4,217.64h0l-.11-.82-.3-2.06c-1.91-13.4-3.79-26.76-5.69-40.17l-12-9.07,1.13,31.39,2.94,42.38,9.89,4Z"/><polygon class="cls-14" points="158.29 216.82 157.99 214.76 155.86 199.76 155.84 199.76 141.42 196.91 144.36 239.29 154.25 243.29 158.4 217.64 158.29 216.82"/><polygon class="cls-14" points="120.94 192.87 126.27 154.95 90.38 177.29 88.72 196.8 88.64 208.96 120.94 192.87"/><polygon class="cls-4" points="152.31 174.59 126.27 154.95 148.41 145.27 152.31 174.59"/><path class="cls-2" d="M199.94,234.51l-3.26-18.16,12.13-17.63,10.81-43.6-18.51,9.79L180.9,176.52l-12.78,41.12L174.78,242Z"/><polygon class="cls-13" points="199.94 234.51 208.81 198.72 208.81 198.72 173.68 199.76 168.12 217.64 174.78 242 199.94 234.51"/><path class="cls-13" d="M196.68,167.46l-15.78,9.06-12.78,41.12L174.78,242l12.05-3.59-.12-39Z"/><polygon class="cls-14" points="186.71 199.38 186.71 199.38 173.68 199.76 168.12 217.64 174.78 242 186.83 238.41 186.71 199.38"/><polygon class="cls-4" points="180.9 176.52 201.11 164.91 219.62 155.12 196.69 150.93 180.9 176.52"/><polygon class="cls-11" points="174.78 242 168.12 217.64 174.17 198.18 155.52 197.4 158.4 217.64 154.25 243.28 163.75 246.22 174.78 242 174.78 242"/><polygon class="cls-11" points="174.78 242 168.12 217.64 183.79 167.25 171.34 169.1 160.66 168.89 150.89 164.62 158.4 217.64 154.53 243.27 174.78 242"/><polygon class="cls-3" points="95.31 157.48 91.17 187.36 63.05 203.15 83 151.41 95.31 157.48"/><polygon class="cls-3" points="109.48 120.91 95.49 116.77 74.13 125.53 95.07 127.68 109.48 120.91"/><polygon class="cls-8" points="95.31 157.48 95.07 127.68 74.13 125.53 83 151.41 95.31 157.48"/><polygon class="cls-13" points="114.23 123.22 110.35 125.79 107.31 121.97 113.75 118.83 114.23 123.22"/><polygon class="cls-12" points="336.94 169.55 330.73 166.45 242.65 169.47 239.25 231.75 305.35 229.7 327.7 229.01 331.43 224.41 336.94 169.55"/><polygon class="cls-15" points="336.95 169.55 330.73 166.45 242.65 169.47 247.03 172.94 336.95 169.55"/><polygon class="cls-3" points="248.52 231.47 270.02 238.77 273.69 230.7 248.52 231.47"/><polygon class="cls-11" points="331.44 224.41 239.53 226.82 239.25 231.75 327.7 229.01 331.44 224.41"/><polygon class="cls-11" points="278.88 225.79 271.96 225.96 272.14 230.73 272.14 230.73 278.13 230.55 278.88 225.79"/><polygon class="cls-16" points="240.31 212.64 218.08 213.35 239.53 226.82 239.25 231.75 240.31 212.64"/><polygon class="cls-12" points="222.85 216.35 239.62 225.23 239.25 231.75 218.7 219.64 222.85 216.35"/><polygon class="cls-14" points="219.62 155.12 240.87 202.09 218.7 219.64 208.6 199.59 219.62 155.12"/><polygon class="cls-13" points="240.31 212.64 240.87 202.09 222.85 216.35 240.31 212.64"/><polygon class="cls-3" points="167.67 169.03 190.4 145.98 183.79 167.25 171.34 169.1 167.67 169.03"/><polygon class="cls-9" points="148.41 145.27 164.66 168.97 160.66 168.89 150.89 164.62 148.41 145.27"/><polygon class="cls-11" points="242.65 169.47 247.03 172.94 244 226.7 239.53 226.82 242.65 169.47"/><polygon class="cls-4" points="171.34 169.1 171.65 177.99 160.38 177.89 160.66 168.89 171.34 169.1"/><polygon class="cls-2" points="190.24 143.75 165.95 165.95 150.69 144.49 148.41 145.27 164.66 168.97 167.67 169.03 190.4 145.98 190.24 143.75"/><polygon class="cls-17" points="147.75 93.64 145.27 71.03 138.87 71.08 134.69 93.71 147.75 93.64"/><polygon class="cls-9" points="292.43 238.17 302.63 225.16 275.9 225.86 270.02 238.77 292.43 238.17"/><polygon class="cls-8" points="302.63 225.16 301.54 210.93 279.85 216.18 275.9 225.86 302.63 225.16"/><polygon class="cls-5" points="99.45 31.96 84.8 103.52 163.75 0 140.53 22.25 99.45 31.96"/><polygon class="cls-18" points="194.64 46.97 194.64 46.96 219.32 26.4 194.64 46.97"/><polygon class="cls-6" points="232.21 66.99 194.64 46.97 209.02 69.82 215.93 74.75 221.12 73.38 232.21 66.99"/><polygon class="cls-7" points="232.21 66.99 194.64 46.97 219.32 26.4 232.21 66.99"/><path class="cls-19" d="M99.45,32,84.8,103.52Z"/><polygon class="cls-6" points="112.58 137.97 101.64 156.2 126.27 154.94 112.58 137.97"/><polygon class="cls-5" points="163.75 0 140.53 22.25 194.64 46.96 219.32 26.4 163.75 0"/><polygon class="cls-7" points="99.45 31.96 145.17 24.37 163.75 0 99.45 31.96"/><polygon class="cls-6" points="84.8 103.52 111.97 102.68 109.54 71.08 84.8 103.52"/><polygon class="cls-7" points="206.47 81.38 209.02 69.82 194.64 46.96 206.47 81.38"/><polygon class="cls-8" points="215.93 89.9 205.14 87.43 209.02 69.82 221.12 73.38 221.6 82.08 215.93 89.9"/><polygon class="cls-9" points="209.69 82.23 211.57 73.88 217.4 75.63 209.69 82.23"/><polygon class="cls-9" points="213.43 97.9 205.14 87.43 215.93 89.9 213.43 97.9"/><polygon class="cls-13" points="208.99 96.17 208.82 85.93 212.49 86.61 208.99 96.17"/><polygon class="cls-4" points="203.36 96.48 209.65 92.07 213.43 97.9 207.62 102.73 203.36 96.48"/><path class="cls-15" d="M263.46,196.67l1.08-12.41,1.82,2.29-.71,8.14Zm-1.27,15.81,15.92-.6-1.72-2-12.36.47Zm1.11-13.94L262.23,211l2.23-2.45.71-8.14Zm1.46-15.81,15.92-.6-2.08,2.16-12.37.46Z"/><path class="cls-15" d="M289.43,198.56l2.69-.1L291,211.4l-2.69.1ZM283.65,182l17.15-.64-2.28,2.68-5.17.19-1.08,12.53-2.7.11,1.09-12.54-5.45.21Z"/><path class="cls-15" d="M302.84,196.3l-1.12,13,2.34-2.57.74-8.54Zm16.62-.62-1.12,13-1.91-2.41.73-8.54Zm.17-2,1.13-13-2.34,2.57-.74,8.54Zm-18.09,17.21,16.7-.63-1.8-2.11-13,.48ZM303,194.35l1.13-13,1.91,2.41-.73,8.54Z"/><polygon class="cls-4" points="95.07 127.68 109.48 120.92 111.92 124.75 111.33 127.05 99.59 134.36 96.16 134.26 95.07 127.68"/><polygon class="cls-13" points="95.07 127.68 97.95 132.01 111.92 124.75 112.05 128.61 99.59 134.36 95.12 134.34 95.07 127.68"/><polygon class="cls-4" points="95.12 134.34 97.95 132.01 99.59 134.36 95.12 134.34"/><polygon class="cls-14" points="130.76 259.66 150.58 280.21 168.92 295.17 190.33 284.34 218.24 262.57 203.26 251.32 199.94 234.51 174.78 242 154.25 243.29 136.75 236.22 138.26 251.32 130.76 259.66"/><polygon class="cls-20" points="130.76 259.66 150.58 280.21 168.92 295.17 190.33 284.34 218.24 262.57 174.78 259.66 138.26 251.32 130.76 259.66"/><polygon class="cls-4" points="136.75 236.21 154.25 243.29 161.36 263.22 130.76 259.66 136.75 236.21"/><polygon class="cls-21" points="144.36 239.29 154.25 243.29 161.36 263.22 146.08 263.35 146.03 263.34 144.36 239.29"/><polygon class="cls-4" points="199.94 234.51 174.78 242 170.25 263.36 218.24 262.57 199.94 234.51"/><polygon class="cls-21" points="186.83 238.41 174.78 242 170.25 263.36 186.88 264.56 186.91 264.56 186.83 238.41"/><polygon class="cls-4" points="158.18 254.29 172.26 253.91 170.25 263.36 161.36 263.22 158.18 254.29"/><polygon class="cls-13" points="146.06 261.44 158.18 254.29 161.36 263.22 146.06 273.9 146.06 261.44"/><polygon class="cls-13" points="170.25 263.36 186.91 275.39 186.91 263.09 172.26 253.91 170.25 263.36"/><polygon class="cls-11" points="155.84 199.76 173.68 199.76 168.12 217.64 174.78 242 154.25 243.29 158.4 217.64 158.4 217.64 155.84 199.76"/><polygon class="cls-2" points="68.74 188.41 91.17 187.36 88.64 208.96 63.05 203.15 68.74 188.41"/><polygon class="cls-14" points="152.31 174.59 155.53 197.4 155.86 199.76 173.68 199.76 174.17 198.18 180.9 176.52 183.79 167.25 171.34 169.1 171.65 177.99 160.38 177.89 160.66 168.89 150.99 164.66 152.31 174.59"/><polygon class="cls-12" points="130.76 259.66 126.27 310.05 137.2 326.33 154.81 323.2 168.92 295.17 130.76 259.66"/><polygon class="cls-12" points="168.92 295.17 176.65 323.38 195.15 335.33 209.9 318.52 218.24 262.57 168.92 295.17"/><polygon class="cls-20" points="126.5 310.05 122.75 352.16 140.22 352.18 154.81 323.2 126.5 310.05"/><polygon class="cls-20" points="176.65 323.38 186.48 359.43 203.82 359.36 208.02 331.17 209.9 318.52 176.65 323.38"/><polygon class="cls-9" points="95.31 157.48 106.94 130.97 95.12 134.34 95.31 157.48"/><path class="cls-22" d="M164.06,73.88a4,4,0,1,1-4-4A4,4,0,0,1,164.06,73.88Z"/><path class="cls-22" d="M132,73.88a4,4,0,1,1-4-4A4,4,0,0,1,132,73.88Z"/><polygon class="cls-7" points="232.21 66.99 234.79 87.68 247.03 108.37 215.67 137.97 196.69 167.46 188.79 163.73 190.24 143.75 213.43 97.9 224.19 82.37 232.21 66.99"/><polygon class="cls-23" points="231.86 104.83 190.24 143.75 213.43 97.9 221.12 73.38 231.86 104.83"/><polygon class="cls-24" points="190.24 143.75 215.67 137.97 196.69 167.46 186.83 167.46 190.24 143.75"/><polygon class="cls-24" points="247.03 108.37 231.86 104.83 221.12 73.38 232.21 66.99 247.03 108.37"/><polygon class="cls-25" points="215.13 138.82 220.19 156.39 196.69 167.46 215.13 138.82"/><polygon class="cls-26" points="190.24 143.75 196.69 167.46 180.9 176.52 190.24 143.75"/><polygon class="cls-3" points="158.43 102.17 167.22 114.13 168.12 107.98 158.43 102.17"/><polygon class="cls-3" points="129.84 103.52 125.72 113.68 123.98 107.99 129.84 103.52"/><polygon class="cls-4" points="109.69 370.05 100.24 383 123.89 383 144.36 363.75 140.22 352.18 122.34 370.33 109.69 370.05"/><line class="cls-27" x1="122.76" y1="352.16" x2="100.24" y2="383"/></svg>