<svg id="Layer_1" data-name="Layer 1" xmlns="http://www.w3.org/2000/svg" viewBox="0 0 400 400"><defs><style>.cls-1{fill:#d1a0b8;}.cls-1,.cls-11,.cls-12,.cls-13,.cls-14,.cls-15,.cls-16,.cls-17,.cls-18,.cls-19,.cls-20,.cls-21{fill-rule:evenodd;}.cls-2,.cls-20{fill:#d0ae95;}.cls-19,.cls-3{fill:#eed2c1;}.cls-11,.cls-12,.cls-4{fill:#2b2b2b;}.cls-5{fill:#a8836c;}.cls-6{fill:#f6e5db;}.cls-7{fill:#8a6651;}.cls-8{fill:#724f41;}.cls-9{fill:#8e6c57;}.cls-10{fill:#7f5e4c;}.cls-11{opacity:0.1;}.cls-13,.cls-22{fill:#4f5353;}.cls-14{fill:#594265;}.cls-15{fill:#795d88;}.cls-16{fill:#b2879c;}.cls-17,.cls-24{fill:#474748;}.cls-18{fill:#95637c;}.cls-21{fill:#6f7273;}.cls-23{fill:#737474;}</style></defs><title>analysts_INTP_famous_fictional_Jack_Ryan</title><polygon class="cls-1" points="179.48 193.28 181.75 211.34 161.4 232.38 141.14 219.96 137.54 200.91 147.25 193 179.48 193.28"/><polygon class="cls-2" points="186.53 142.89 191.99 147.22 193.88 179.9 239.24 166.01 252.59 63.76 228.5 29.14 186.53 142.89"/><polygon class="cls-3" points="186.53 142.89 216.23 138.76 230.58 119.42 228.5 29.14 144.22 40.3 154.34 50.17 153.17 74.43 169.83 127.42 186.53 142.89"/><polygon class="cls-2" points="202.67 100.49 205.99 75.43 216.66 67.16 192.56 73.47 193.17 78.75 202.67 100.49"/><polygon class="cls-2" points="178.97 102.75 183.79 79.94 181.2 74.43 159.61 74.44 172.54 78.47 178.97 102.75"/><circle class="cls-4" cx="172.54" cy="78.47" r="3.32"/><circle class="cls-4" cx="205.99" cy="75.43" r="3.32"/><polygon class="cls-5" points="178.97 102.75 202.67 100.49 189.97 106.96 178.97 102.75"/><polygon class="cls-6" points="178.97 102.75 183.79 79.94 193.17 78.75 202.67 100.49 178.97 102.75"/><polygon class="cls-7" points="192.56 73.47 190.82 68.13 216.66 63.76 216.66 67.16 192.56 73.47"/><polygon class="cls-7" points="181.2 74.43 179.74 69.39 159.61 71.2 159.61 74.44 181.2 74.43"/><polygon class="cls-5" points="178.19 119.9 189.67 116.02 207.96 115.05 178.19 119.9"/><polygon class="cls-2" points="178.19 119.9 193.07 124.11 209.83 114.74 178.19 119.9"/><polygon class="cls-5" points="186.53 142.89 211.39 160.55 234.54 135.68 216.23 138.76 186.53 142.89"/><polygon class="cls-3" points="252.59 63.76 241.19 60.93 239.25 92.48 248.44 95.6 252.59 63.76"/><polygon class="cls-5" points="239.25 92.48 246.95 106.96 248.44 95.6 239.25 92.48"/><polygon class="cls-5" points="243.84 70.64 248.44 72.11 245.92 81.79 243.84 70.64"/><polygon class="cls-5" points="207.96 35.93 216.66 19.43 238.69 15.3 250.59 27.2 207.96 35.93"/><polygon class="cls-8" points="169.23 10.21 186.52 0.5 219.52 2.68 169.23 10.21"/><polygon class="cls-9" points="207.96 35.93 220.63 54.49 252.59 47.09 250.59 27.2 207.96 35.93"/><polygon class="cls-9" points="165.09 44.91 147.14 34.96 194.01 17.25 200.11 35.93 185.31 47.09 165.09 44.91"/><polygon class="cls-5" points="147.14 34.96 139.61 34.96 169.23 10.21 194.01 17.25 147.14 34.96"/><polygon class="cls-10" points="200.11 35.93 207.96 35.93 216.66 19.43 198.66 4.14 194.01 17.25 200.11 35.93"/><polygon class="cls-9" points="216.66 19.43 198.66 4.14 219.52 2.68 238.69 15.3 216.66 19.43"/><polygon class="cls-9" points="194.01 17.25 169.23 10.21 198.66 4.14 194.01 17.25"/><polygon class="cls-8" points="139.61 34.96 149.52 54.49 153.17 74.43 156.58 40.19 147.14 34.96 139.61 34.96"/><polygon class="cls-8" points="231.28 81.79 229.38 67.16 220.63 54.49 252.59 47.09 252.59 63.76 241.19 60.93 239.91 81.79 231.28 81.79"/><polygon class="cls-11" points="100.21 386.14 233.09 400.5 333.18 393.47 234.13 373.45 100.21 386.14"/><path class="cls-12" d="M150.26,374.66c-2.29.63-19,4.77-19,4.77l.35,6.67,61.63-1.87-.42-6.88-23-5.4Z"/><polygon class="cls-13" points="168.39 346.33 159.62 359.35 131.41 375.6 131.26 379.43 192.82 377.35 190.89 360.08 168.39 346.33"/><polygon class="cls-14" points="175.27 293.82 158.23 311.51 159.62 359.35 190.89 360.08 195.06 328.89 175.27 293.82"/><polygon class="cls-15" points="178.94 258.26 158.23 311.51 195.06 328.89 221.75 291.81 214.13 262.98 178.94 258.26"/><polygon class="cls-1" points="193.75 172.31 163.15 156.94 151.2 185.65 185.94 202.87 197.61 189.91 193.75 172.31"/><polygon class="cls-12" points="272.69 375.97 249.97 386.89 249.79 394.05 295.14 394.05 294.66 386.89 272.69 375.97"/><polygon class="cls-13" points="267.06 350.84 257.69 368.38 249.97 386.89 294.66 386.89 286.64 362.59 267.06 350.84"/><polygon class="cls-14" points="229.76 306.62 233.26 333.14 257.69 368.38 286.64 362.59 274.32 320.91 229.76 306.62"/><polygon class="cls-15" points="231.63 264.86 221.75 291.81 233.26 333.14 274.32 320.91 270.03 261.31 231.63 264.86"/><polygon class="cls-14" points="191 256.98 179.62 250.76 178.94 258.26 221.75 291.81 270.03 261.31 269.12 248.6 236.52 231.77 191 256.98"/><polygon class="cls-1" points="212.03 251.31 179.62 250.76 179.91 247.71 216.45 224.47 230.24 246.09 212.03 251.31"/><polygon class="cls-16" points="266.94 220.47 269.19 244.79 269.12 248.6 210.2 251.69 210.47 246.77 216.45 224.47 218.7 223.5 249.75 212.03 266.52 212.97 266.94 220.47"/><polygon class="cls-17" points="255.01 209.64 262.83 217.86 263.24 245.05 269.19 244.79 277.89 187.94 254.65 188.59 255.01 209.64"/><path class="cls-13" d="M244.44,218.44l18.39-.58-.32-13.11s-10.74-17.42-12.39-16.26L228.45,203.7Z"/><polygon class="cls-18" points="268.23 182.86 244.49 194.74 245.53 205.16 263.03 204.74 277.89 187.94 268.23 182.86"/><polygon class="cls-17" points="210.47 246.77 250.02 245.41 252.41 185.57 210.35 200 203.54 215 210.47 246.77"/><polygon class="cls-13" points="194.69 205.36 172.71 209.33 179.91 247.71 210.47 246.77 212.4 216.49 210.35 200 194.69 205.36"/><polygon class="cls-18" points="141.14 219.96 128 212.23 129.08 210.38 138.27 201.93 151.36 207.31 141.14 219.96"/><polygon class="cls-17" points="72.64 164.43 64.63 172.28 65.77 180.19 88.45 178.59 97.25 165.61 72.64 164.43"/><polygon class="cls-18" points="206.3 167.83 224.5 161.76 243.1 140.33 251.7 141.27 229.59 172.44 207.38 176.83 206.3 167.83"/><polygon class="cls-13" points="99.04 178.33 88.45 178.59 87.27 170.15 64.63 172.28 63.58 162.24 129.04 156.47 131.91 164.36 133.6 170.6 114.26 180.01 99.04 178.33"/><polygon class="cls-17" points="112.23 200.09 102.33 186.79 99.04 178.33 99.37 173.79 121.04 171.71 133.6 170.6 135.66 178.27 143.71 186.52 130.26 201.02 119.58 201.37 112.23 200.09"/><polygon class="cls-19" points="110.32 198.65 103.93 196.89 102.33 186.79 120.54 184.85 121.69 191.48 110.32 198.65"/><polygon class="cls-19" points="139.34 164.25 121.23 164.52 121.04 171.71 135.66 178.27 139.34 164.25"/><polygon class="cls-20" points="147.22 194.37 151.73 185.34 135.66 178.27 139.99 195.78 147.22 194.37"/><polygon class="cls-20" points="132.82 202.34 127.91 220.27 105.87 209.06 103.93 196.89 121.28 189.13 132.82 202.34"/><polygon class="cls-19" points="175.79 195.32 151.73 185.34 121.28 189.13 127.91 220.27 151.36 207.31 175.79 195.32"/><polygon class="cls-16" points="186.66 149.01 189.78 182.88 208.03 181.27 206.3 167.83 195.13 161.52 191.99 147.22 186.66 149.01"/><polygon class="cls-17" points="228.45 167.47 207.38 176.83 209.2 190.71 253.24 166.48 270.52 146.27 251.7 141.27 228.45 167.47"/><polygon class="cls-13" points="163.15 156.94 170.44 188.36 209.2 190.71 207.38 176.83 190.04 168.07 186.66 149.01 163.15 156.94"/><polygon class="cls-18" points="216.78 190.44 208.03 181.27 151.73 185.34 150.78 207.32 212.4 216.49 216.78 190.44"/><polygon class="cls-1" points="270.52 146.27 208.03 181.27 212.4 216.49 277.89 187.94 270.52 146.27"/><polygon class="cls-19" points="108.23 177.2 118.62 176.21 120.28 182.4 109.27 183.86 108.23 177.2"/><polygon class="cls-17" points="103.58 161.78 117.79 160.68 117.79 163.05 104 163.8 103.58 161.78"/><polygon class="cls-17" points="103.82 164.87 118.02 163.77 118.03 166.14 104.24 166.89 103.82 164.87"/><polygon class="cls-17" points="104.06 167.83 118.26 166.73 118.26 169.1 104.47 169.85 104.06 167.83"/><polygon class="cls-17" points="179.62 250.76 168.07 252.89 163.15 280.32 169.09 283.58 178.94 258.26 179.62 250.76"/><polygon class="cls-21" points="179.62 250.76 269.12 248.6 270.03 261.31 178.94 258.26 179.62 250.76"/><polygon class="cls-4" points="151.73 185.34 164.76 184.4 163.15 209.16 150.08 208.02 151.73 185.34"/><polygon class="cls-22" points="147.69 187.66 167.49 185.43 164.69 205.4 146.99 203.4 147.69 187.66"/><polygon class="cls-23" points="152.36 191.29 151.43 199.42 161.55 201 162.28 189.85 152.36 191.29"/><polygon class="cls-24" points="146.99 203.4 149 206.15 165.81 207.37 164.69 205.4 146.99 203.4"/><polygon class="cls-4" points="164.69 205.4 167.49 185.43 169.36 188.64 165.81 207.37 164.69 205.4"/></svg>