<svg id="arnold" xmlns="http://www.w3.org/2000/svg" viewBox="0 0 400 400"><defs><style>.cls-1{fill:#d0af96;}.cls-2{fill:#efd3c2;}.cls-3{fill:#4f5253;}.cls-4{fill:#a9846c;}.cls-5{fill:#474747;}.cls-18,.cls-6{fill:#709d53;}.cls-7{fill:#446125;}.cls-19,.cls-8{fill:#5a753d;}.cls-13,.cls-9{fill:#2b2b2b;}.cls-10{fill:#f7e6dc;}.cls-11{fill:#ececeb;}.cls-12{fill:#734d60;}.cls-13{opacity:0.1;}.cls-14{fill:#dddddc;}.cls-14,.cls-15,.cls-18,.cls-19{fill-rule:evenodd;}.cls-15{fill:#fff;}.cls-16{fill:#543042;}.cls-17{fill:#96637c;}</style></defs><title>analysts_INTP_famous_fictional_bruce_banner</title><polygon class="cls-1" points="183.36 152.16 151.02 150.68 173.64 168.3 186.6 168.3 183.36 152.16"/><polygon class="cls-2" points="165.81 33.45 147.57 53.28 147.21 125.34 168.29 145.45 192.71 148.63 190.01 162.87 235.24 144.13 246.36 82.95 240.7 69.45 231 43.02 200.17 29.07 165.81 33.45"/><polygon class="cls-3" points="165.81 33.45 166.52 17.26 165.23 7.32 154.82 16.06 149.78 21.26 148.43 22.81 146 30.62 143.34 33.36 146.46 37.29 145.44 43.73 146.95 44.31 147.21 48.16 147.57 53.28 150.84 49.73 153.17 47.19 155.82 44.31 158.57 41.31 168.31 43.73 165.81 33.45"/><polygon class="cls-1" points="231 59.81 225.87 123.73 192.71 150.64 161.88 159.81 186.6 168.3 200.26 199.33 233.44 148.88 242.55 114.97 242.55 106.47 246.62 101.53 253.73 78.07 248.14 65.31 246.59 44.31 231 59.81"/><polygon class="cls-4" points="225.87 123.73 186.6 168.3 183.36 152.16 182.95 147.36 192.71 148.63 225.87 123.73"/><polygon class="cls-4" points="246.62 101.53 233.64 97.97 242.55 114.97 246.62 101.53"/><polygon class="cls-4" points="241.38 82.2 238.99 92.78 248.94 83.89 241.38 82.2"/><polygon class="cls-5" points="165.23 7.32 192.5 1.88 191.76 16.42 181.52 37.29 177.76 39.37 175.06 42.73 171 40.13 168.31 43.73 164.41 27.66 165.23 7.32"/><polygon class="cls-3" points="181.52 37.29 183.53 21.13 192.5 1.88 213.5 0 212.21 12.57 205.25 35.26 207.8 38.85 196.12 36.04 191.84 38.85 186.6 37.71 181.52 37.29"/><polygon class="cls-5" points="213.5 0 219.07 2.89 222.4 4.61 227.26 7.14 231.53 9.36 234.22 10.75 236.4 11.88 241.17 14.36 220.16 40.05 216.5 42.3 210.08 42.06 205.25 35.26 213.5 0"/><polygon class="cls-3" points="220.16 40.05 241.17 14.36 252.64 27.66 250.6 36.97 229.43 49.3 227.19 49.3 223.21 47.86 221.63 42.9 220.16 40.05"/><polygon class="cls-5" points="252.64 27.66 229.43 49.3 229.4 55.82 231 59.81 259.2 53.11 252.64 27.66"/><polygon class="cls-3" points="231 59.81 259.2 53.11 256.89 69.06 240.39 69.73 231 66.52 231 59.81"/><polygon class="cls-5" points="256.89 69.06 231 66.52 228.84 87.49 233.64 97.97 238.99 73.76 253.73 78.07 256.89 69.06"/><path class="cls-6" d="M323.63,108.67l-23.77,5.27.58,3.41,1.68,25.82-6.54.33-20.9-4-15.9,6L239,153.35l-37.61,46.83L149.6,148.06l-36.25.14-5.7-10.08-4.24-21.63L80.94,112.9l-8.16,40.45,9.39,29.73,16.21,10.57,37.77,7.19,17.75,8.59,15.84,5.82c4.35-1.29-10.53-6.85-6.1-6.87,23.05-.08,46-3.12,69.08-2.25,15.91.6,4.54-2.54,19.68,2.56l30.27-6.85L295.58,192l11.34-2L327.6,176l11.73-32.53Z"/><polygon class="cls-7" points="299.86 113.94 302.12 143.17 312.35 111.17 299.86 113.94"/><polygon class="cls-8" points="274.68 139.48 305.09 160.1 302.12 143.17 274.68 139.48"/><polygon class="cls-8" points="339.33 143.5 306.92 189.92 330.62 176.7 339.33 143.5"/><polygon class="cls-8" points="269.93 165.88 292.9 164.12 281.92 172.32 269.93 165.88"/><path class="cls-1" d="M232.72,206.13c5.59.21,11.22.62,16.82,1.26l9.24-61.87-25.73,55.32-52.71,3L195.78,207C208.08,206.32,220.38,205.66,232.72,206.13Z"/><polygon class="cls-7" points="306.92 189.92 255.51 183.08 282.67 201.84 306.92 189.92"/><polygon class="cls-7" points="149.87 207.95 152.06 194.13 145.54 184.74 98.39 193.65 149.87 207.95"/><polygon class="cls-1" points="180.34 203.86 149.87 207.95 145.54 184.74 180.34 203.86"/><polygon class="cls-8" points="136.16 166.72 100.94 165.58 120.56 173.68 136.16 166.72"/><polygon class="cls-8" points="98.39 193.65 72.78 153.35 80.49 186.42 98.39 193.65"/><polygon class="cls-7" points="92.22 112.08 96.25 161.27 113.35 148.2 103.41 116.49 92.22 112.08"/><polygon class="cls-1" points="180.34 203.86 185.1 189.77 186.6 168.3 179.78 187.92 180.34 203.86"/><polygon class="cls-1" points="208.15 189.77 211.29 187.59 214.81 190.78 209.91 193.65 208.15 189.77"/><polygon class="cls-1" points="156.39 181.22 159.89 178.96 161.88 183.08 158.5 185.07 156.39 181.22"/><polygon class="cls-1" points="145.54 184.74 141.34 145.15 142.19 168.73 145.54 184.74"/><polygon class="cls-1" points="171 96.79 180.12 75.39 176.06 74.48 158.64 66.52 153.17 73.64 166.24 75.84 171 96.79"/><polygon class="cls-1" points="196.12 98.9 205.25 79.32 221.38 77.85 218.57 69.08 195.13 76.02 190.22 76.31 196.12 98.9"/><circle class="cls-9" cx="165.81" cy="77" r="3.93"/><circle class="cls-9" cx="205.25" cy="79.32" r="3.93"/><polygon class="cls-5" points="195.13 76.02 195.13 69.73 219.56 66.52 225.03 77 221.38 77.85 217.12 72.18 195.13 76.02"/><polygon class="cls-5" points="176.06 74.48 176.06 68.73 157.24 63.67 151.77 71.53 153.17 73.64 158.22 69.73 176.06 74.48"/><polygon class="cls-4" points="171 96.79 196.12 98.9 180.54 103.34 171 96.79"/><polygon class="cls-10" points="171 96.79 180.12 75.39 190.22 76.31 196.12 98.9 171 96.79"/><polygon class="cls-4" points="167.49 104.11 164.23 113.25 161.75 122.59 160.83 129.03 203.66 132.63 202.45 125.59 199.8 114.62 196.65 105.01 180.28 109.85 167.49 104.11"/><polygon class="cls-11" points="168.88 107.03 166.78 113.58 163.71 123.13 163.12 127.45 201.41 130.42 200.58 125.92 197.51 114.65 195.69 108.36 180.24 111.77 168.88 107.03"/><polygon class="cls-9" points="166.78 113.58 197.51 114.65 200.58 125.92 163.71 123.13 166.78 113.58"/><polygon class="cls-12" points="171.46 119.25 163.71 123.13 200.58 125.92 197.64 119.93 171.46 119.25"/><polygon class="cls-13" points="111.54 385.84 201.06 373.2 298.76 388.88 202.88 400 111.54 385.84"/><polygon class="cls-5" points="150.99 281.65 157.75 321.73 175.58 346.87 193.49 337.92 199.65 293.31 183.66 271.17 150.99 281.65"/><polygon class="cls-5" points="199.65 293.31 230.6 252.53 252.4 295.62 251.27 333.02 235.71 348.41 215.52 335.61 199.65 293.31"/><polygon class="cls-9" points="199.65 293.31 178.67 284.97 180.02 259.73 189.57 244.81 210.55 284.28 199.65 293.31"/><polygon class="cls-14" points="183.36 152.16 197.24 161.28 201.44 192.72 209.01 163.43 233.44 148.88 238.68 260.6 185.52 257.39 168.31 247.26 171.59 186.57 183.36 152.16"/><polygon class="cls-15" points="173.47 179.7 197.24 161.28 183.36 152.16 173.47 179.7"/><polygon class="cls-15" points="230.8 180.53 209.01 163.43 233.44 148.88 230.8 180.53"/><polygon class="cls-12" points="183.36 152.16 146.89 147.1 150.99 281.65 174.95 297.5 189.05 263.54 190.53 235.46 173.47 190.28 183.36 152.16"/><polygon class="cls-16" points="233.44 148.88 258.78 145.52 252.4 295.62 210.55 300.2 189.05 263.54 190.53 235.46 226.94 192.43 233.44 148.88"/><polygon class="cls-17" points="183.36 152.16 157.65 179.48 166.16 188.59 157.65 199.04 190.53 235.46 175.49 189.26 183.36 152.16"/><polygon class="cls-17" points="233.44 148.88 244.97 189.94 234.7 195 237.81 214.89 190.53 235.46 224.92 191.41 233.44 148.88"/><polygon class="cls-12" points="198.79 240.01 194.4 243.21 197.8 249.62 202.83 244.81 198.79 240.01"/><polygon class="cls-9" points="215.52 335.61 251.27 333.02 252.4 369.66 235.71 370.16 226.04 365.95 215.52 335.61"/><polygon class="cls-9" points="193.49 337.92 157.75 321.73 164.77 358.87 174.48 369.99 188.16 369.99 193.49 337.92"/><polygon class="cls-12" points="226.04 365.95 218.54 385.84 256.81 385.84 252.4 369.66 226.04 365.95"/><polygon class="cls-12" points="164.77 358.87 154.25 365.95 142.13 379.94 165.91 381.46 188.16 379.43 188.16 369.99 164.77 358.87"/><polygon class="cls-17" points="218.54 385.84 239.25 374.38 256.81 385.84 237.67 388.88 218.54 385.84"/><polygon class="cls-17" points="134.22 379.43 154.25 365.95 160.68 380.45 134.22 379.43"/><rect class="cls-16" x="218.54" y="385.84" width="38.26" height="6.07"/><rect class="cls-16" x="134.22" y="379.43" width="53.94" height="6.07"/><polygon class="cls-17" points="146.89 147.1 113.35 148.2 120.1 162.87 113.35 174.91 135.37 180.53 136.16 189.49 132.46 203.86 140.17 218.65 149.84 214.39 146.89 147.1"/><polygon class="cls-17" points="258.78 145.52 274.68 139.48 301.61 153.35 276.82 168.22 288.48 176.12 274.39 188.61 292.9 197.13 276.9 210.08 255.97 211.63 258.78 145.52"/><polygon class="cls-17" points="81.46 207.39 76.32 222.3 89.54 232.5 91.62 213.06 81.46 207.39"/><polygon class="cls-17" points="306.92 232.5 319.35 215.98 323.13 240.01 306.92 232.5"/><polygon class="cls-17" points="307.15 207.39 325.18 193.65 311.76 210.14 307.15 207.39"/><polygon class="cls-17" points="68.78 165.93 53.47 164.7 53.47 179.7 68.78 165.93"/><polygon class="cls-17" points="130.11 142.26 134.22 130.01 145.54 143.5 130.11 142.26"/><polygon class="cls-17" points="283.68 232.5 270.94 240.01 292.9 249.62 283.68 232.5"/><polygon class="cls-18" points="90.5 95.61 110.4 106.18 117.03 85.82 111.38 80.29 97.63 94.17 90.5 95.61"/><polygon class="cls-19" points="103.41 116.49 80.94 112.9 75.67 75.69 89.5 68.87 93.52 82.68 110.4 106.17 103.41 116.49"/><polygon class="cls-18" points="93.52 82.68 104.9 61.42 88.47 63.67 75.67 75.69 93.52 82.68"/><polygon class="cls-18" points="312.77 93.06 292.88 103.62 286.24 83.27 291.89 77.73 305.64 91.62 312.77 93.06"/><polygon class="cls-19" points="299.86 113.94 323.63 108.67 327.6 73.13 313.78 66.31 309.75 80.13 292.87 103.62 299.86 113.94"/><polygon class="cls-18" points="309.75 80.13 298.38 58.87 315.02 55.82 327.6 73.13 309.75 80.13"/></svg>