<svg id="Layer_1" data-name="Layer 1" xmlns="http://www.w3.org/2000/svg" viewBox="0 0 400 400"><defs><style>.cls-1{fill:#2c2b2b;fill-opacity:0.1;}.cls-2{fill:#543042;}.cls-3{fill:#734d60;}.cls-4{fill:#8f759f;}.cls-5{fill:#785d87;}.cls-6{fill:#a587b9;}.cls-18,.cls-7{fill:#2b2b2b;}.cls-7{opacity:0.1;}.cls-8{fill:#3d3d3d;}.cls-9{fill:#5e5d5e;}.cls-10{fill:#4f5253;}.cls-11{fill:#484748;}.cls-12{fill:#95637c;}.cls-13{fill:#f4c9b2;}.cls-14{fill:#c1907d;}.cls-15{fill:#fce3d4;}.cls-16{fill:#ffefe7;}.cls-17{fill:#82624d;}</style></defs><title>analysts_INTP_famous_fictional_lord_varys_game_of_thrones</title><g id="Layer_1-2" data-name="Layer_1"><g id="_897666768" data-name=" 897666768"><polygon class="cls-1" points="109.7 379.18 225.85 398.97 291.12 382.36 209.25 374.11 109.7 379.18"/><polygon class="cls-2" points="230.57 376.47 222.79 384.13 223.15 388.37 258.13 387.9 258.02 383.66 230.57 376.47"/><path class="cls-2" d="M149.05,370.46c-.35,0-18.49,6.36-18.49,6.36V381l51.59.7v-4.59l-32.75-5.89-.47-.59Z"/><path class="cls-3" d="M161.89,350.55l-5.42,5.89-25.91,20.27,51.59.11-.35-18.38s-20.15-7.65-19.91-8Z"/><polygon class="cls-4" points="188.16 326.05 182.98 332.76 181.8 358.57 156.47 356.44 140.8 321.1 188.16 326.05"/><polygon class="cls-5" points="140.8 321.1 182.51 342.19 182.98 332.76 145.16 317.8 140.8 321.1"/><polygon class="cls-3" points="237.05 347.96 228.68 361.27 222.79 384.13 258.02 383.66 253.42 358.33 237.05 347.96"/><polygon class="cls-4" points="229.87 303.43 221.97 331.94 228.68 361.27 253.42 358.33 260.73 332.53 229.87 303.43"/><polygon class="cls-5" points="260.73 332.53 221.97 331.94 255.66 303.79 264.26 320.51 260.73 332.53"/><path class="cls-6" d="M146.93,178.44l-8.6-21.67-8.48,3.53-21,81s65.5-16,67.74-15.67-29.57-47.12-29.57-47.12Z"/><path class="cls-3" d="M175,321.93l-5.07-.12-3.65,6.36L140.8,321.1l-21.08-47.83.7-19s31.34,19.67,30.63,20c.12,0,9.07,4.83,14.49,7.65l14.26,2.71-5,37.35Z"/><polygon class="cls-7" points="119.72 273.27 164.36 301.43 137.74 262.56 120.42 254.31 119.72 273.27"/><polygon class="cls-8" points="201.35 313.8 182.98 332.76 166.37 328.17 164.36 301.43 189.34 285.41 201.35 313.8"/><path class="cls-3" d="M212.19,265.85c-.23-2,70.33-8.48,70.33-8.48l-18.26,63.15-42.17,11.42-39,.83,1.54-36.88Z"/><polygon class="cls-7" points="278.28 272.1 186.98 295.31 247.3 250.07 282.52 257.37 278.28 272.1"/><polygon class="cls-6" points="139.63 227.69 108.88 241.35 159.89 277.16 160.71 234.16 139.63 227.69"/><polygon class="cls-4" points="133.74 259.61 108.88 241.35 137.39 204.01 163.89 200.47 151.05 266.68 133.74 259.61"/><polygon class="cls-5" points="155.29 278.57 145.16 282.11 108.88 241.35 144.22 258.91 155.29 278.57"/><polygon class="cls-9" points="171.2 289.53 169.9 291.77 144.22 258.91 156.59 206.48 182.27 195.88 171.2 289.53"/><polygon class="cls-10" points="169.9 291.77 164.36 301.43 145.16 282.11 144.22 258.91 161.89 265.73 169.9 291.77"/><polygon class="cls-10" points="202.18 217.67 198.06 207.66 183.68 201.18 174.38 207.66 161.89 265.73 182.27 280.58 192.17 270.56 202.18 217.67"/><polygon class="cls-11" points="161.89 265.73 164.36 301.43 184.51 295.89 192.17 270.56 185.8 266.56 161.89 265.73"/><polygon class="cls-5" points="205.95 248.89 185.8 266.56 184.51 295.89 282.52 257.37 205.95 248.89"/><polygon class="cls-4" points="213.25 203.06 198.06 207.66 185.8 266.56 282.52 257.37 255.19 208.48 213.25 203.06"/><polygon class="cls-6" points="248.36 158.65 263.44 149.58 274.86 155.94 282.52 257.37 236.34 208.25 248.36 158.65"/><path class="cls-12" d="M243.88,143.69l7.42-.94,12,6.83-27.1,58.79-38.28-.59s27.57-50.66,26.39-50.78,19.55-13.19,19.55-13.19Z"/><polygon class="cls-12" points="150.82 151.94 138.33 156.77 137.39 204.01 166.13 207.66 171.31 160.66 150.82 151.94"/><polygon class="cls-10" points="161.3 147.82 150.82 151.94 166.13 207.66 198.88 195.64 161.3 147.82"/><polygon class="cls-13" points="218.91 28.48 234.1 25.65 244.35 35.55 244.59 65.59 231.98 82.67 244.83 106.23 245.06 134.74 228.45 163.84 187.22 145.93 218.91 28.48"/><path class="cls-14" d="M183.09,200.94l-23.67-57.48s27.56-19.91,27.33-19S203,143.69,203,143.69l19.21-.12L214.9,176.2Z"/><polygon class="cls-14" points="234.69 76.66 226.92 94.33 244.83 106.23 244.83 94.45 234.69 76.66"/><polygon class="cls-15" points="145.87 5.86 116.42 42.73 120.19 122.49 136.21 144.28 203 143.69 216.32 120.01 215.72 47.56 234.1 25.65 209.95 1.03 145.87 5.86"/><polygon class="cls-15" points="226.92 65.47 244.59 65.59 244.83 94.45 226.92 94.33 226.92 65.47"/><polygon class="cls-11" points="166.13 207.66 245.06 134.74 251.42 142.75 198.06 207.66 166.13 207.66"/><polygon class="cls-14" points="239.76 70.77 232.22 71.13 231.98 84.56 239.76 70.77"/><polygon class="cls-13" points="133.97 55.22 150.23 59.82 155.88 69.48 159.18 75.01 163.54 69.36 171.31 59.34 192.05 54.4 201 62.53 178.62 71.48 164.6 95.86 158.71 87.5 151.05 95.98 142.69 71.13 130.08 60.05 133.97 55.22"/><polygon class="cls-14" points="156.59 92.09 151.05 95.98 158.24 100.46 164.6 95.86 156.59 92.09"/><polygon class="cls-16" points="155.88 69.48 151.05 95.98 164.6 95.86 163.54 69.36 155.88 69.48"/><path class="cls-17" d="M151.05,54.75l-16.73-1.88-5.65,5.89,1.41,1.41,4.83-3.06,15.32,2.71S150.82,54.75,151.05,54.75Z"/><polygon class="cls-17" points="171.08 54.63 192.75 52.75 202.41 60.64 201 62.53 192.28 57.46 171.31 59.58 171.08 54.63"/><polygon class="cls-14" points="143.87 111.3 177.44 110.71 175.09 114.59 145.52 114.95 143.87 111.3"/><path class="cls-18" d="M140.22,64.65a4.12,4.12,0,1,1-4.13,4.12A4.12,4.12,0,0,1,140.22,64.65Z"/><path class="cls-18" d="M180.86,65a4.13,4.13,0,1,1-4.13,4.12A4.13,4.13,0,0,1,180.86,65Z"/><polygon class="cls-13" points="139.15 39.55 161.42 39.55 184.51 38.61 160.24 36.02 139.15 39.55"/><polygon class="cls-13" points="143.98 31.42 161.06 32.02 180.03 30.95 159.77 29.07 143.98 31.42"/><polygon class="cls-13" points="172.14 99.4 192.17 118.84 184.63 103.29 172.14 99.4"/><polygon class="cls-13" points="144.93 99.63 131.14 121.66 134.91 105.05 144.93 99.63"/></g></g></svg>