<svg id="Layer_1" data-name="Layer 1" xmlns="http://www.w3.org/2000/svg" viewBox="0 0 400 400"><defs><style>.cls-1{fill:#46382d;}.cls-2{fill:none;}.cls-3{fill:#5e5044;}.cls-24,.cls-4{fill:#2b2b2b;}.cls-4{fill-opacity:0.1;}.cls-5{fill:#594165;}.cls-6{fill:#543042;}.cls-7{fill:#785d87;}.cls-8{fill:#734d60;}.cls-9{fill:#95637c;}.cls-10{fill:#d0a0b7;}.cls-11{fill:#b2879c;}.cls-12{fill:#494848;}.cls-13{fill:#ececeb;}.cls-14{fill:#474747;}.cls-15{fill:#2a2b2a;}.cls-16{fill:#cececd;}.cls-17{fill:#756555;}.cls-18{fill:#8f759f;}.cls-19{fill:#f4c9b2;}.cls-20{fill:#fce3d4;}.cls-21{fill:#ffefe7;}.cls-22{fill:#c1907d;}.cls-23{fill:#4d4137;}.cls-25{fill:#45372c;}</style></defs><title>analysts_INTP_famous_real_ellen_page</title><polygon class="cls-1" points="167.5 120.14 157.13 130.99 159.93 157.41 206.21 168.9 217.16 120.14 167.5 120.14"/><g id="Layer_1-2" data-name="Layer_1"><rect class="cls-2" x="152" y="152" width="96" height="96"/></g><polygon class="cls-3" points="273.13 136.96 262.2 181.28 251 174.22 240.35 139.48 273.13 136.96"/><polygon class="cls-4" points="262.2 384.65 214.85 375.4 137.24 386.89 221.01 399.5 262.2 384.65"/><polygon class="cls-5" points="187.95 370.92 169.18 384.93 169.18 388.01 199.72 388.01 207 372.04 196.64 367.28 187.95 370.92"/><polygon id="XMLID_3_0" data-name="XMLID 3  0" class="cls-6" points="169.18 384.93 169.18 388.01 199.72 388.01 201.12 384.93 169.18 384.93"/><polygon class="cls-7" points="208.12 362.79 216.25 371.2 221.86 390.53 221.86 393.9 194.96 393.9 194.96 390.53 201.68 372.32 208.12 362.79"/><polygon class="cls-5" points="221.86 390.53 221.86 393.9 194.96 393.9 194.96 390.53 221.86 390.53"/><polygon class="cls-6" points="188.09 276 190.5 288.5 180 334 187.95 370.92 195.8 371.76 201.68 372.32 217.65 333.65 201.68 294.99 188.09 276"/><polygon class="cls-8" points="170.58 294.99 170.86 296.11 171.42 295.55 180 334 202.85 338.45 217.65 333.65 201.68 294.99 170.58 294.99"/><polygon class="cls-6" points="172.54 294.99 171.7 296.11 201.68 305.07 201.68 294.99 172.54 294.99"/><polygon class="cls-8" points="200.88 290.69 200.88 338.07 201.68 372.32 216.25 371.2 223 342.5 215.49 296.55 200.88 290.69"/><polygon class="cls-9" points="200.75 294.83 200.88 338.07 223 342.5 233.9 298.63 233.9 298.63 200.75 294.83"/><polygon class="cls-8" points="200.75 297.44 200.78 304.81 233.9 298.63 233.06 298.35 206.16 295.55 200.75 297.44"/><polygon class="cls-10" points="194.12 375.4 192.44 377.64 189.35 376.8 191.31 379.05 189.07 381.57 192.44 380.73 194.68 382.97 194.39 380.17 196.64 379.33 194.39 377.93 194.12 375.4"/><polygon class="cls-11" points="168.34 235.31 143.12 295.27 254.91 299.47 238.95 235.31 168.34 235.31"/><polygon class="cls-12" points="168.34 235.31 168.34 226.62 238.1 226.62 238.95 235.31 168.34 235.31"/><polygon class="cls-13" points="237.54 149.29 207 141.72 170.58 163.85 168.34 185.99 168.34 226.62 238.1 226.62 237.54 149.29"/><polygon class="cls-14" points="203.36 185.71 203.08 167.78 200 164.98 196.64 167.78 190.47 192.72 187.67 203.93 193.84 213.73 203.64 206.72 203.36 185.71"/><polygon class="cls-15" points="187.67 156.01 196.64 167.78 203.08 167.78 210.37 156.01 206.72 149.29 187.67 149.29 187.67 156.01"/><polygon class="cls-16" points="200.28 149.29 215.13 168.9 237.54 149.29 212.89 141.72 200.28 149.29"/><polygon class="cls-17" points="169.74 0.5 138.64 16.47 122.11 48.13 135.56 46.73 161.89 18.15 177.86 13.11 169.74 0.5"/><polygon class="cls-7" points="250.15 150.97 277.89 208.13 260.8 212.05 249.31 208.13 241.47 190.75 239.23 175.62 250.15 150.97"/><polygon class="cls-5" points="235.87 145.36 227.74 149.56 215.13 168.9 213.45 235.31 210.37 276.77 241.19 280.42 248.75 273.97 272.57 272.29 258.28 252.68 245.67 233.34 241.47 190.75 250.15 150.97 235.87 145.36"/><polygon class="cls-18" points="249.31 208.13 241.47 226.62 245.95 242.31 258.28 252.68 277.89 208.13 249.31 208.13"/><polygon class="cls-16" points="177.58 159.09 177.86 170.58 200.28 149.29 185.99 146.2 177.58 159.09"/><polygon class="cls-18" points="159.93 157.41 139.48 198.6 147.88 215.97 160.21 218.5 168.34 198.6 159.93 157.41"/><polygon class="cls-7" points="139.48 198.6 144.52 242.59 160.21 218.5 154.89 208.13 139.48 198.6"/><polygon class="cls-5" points="159.93 157.41 154.89 208.13 136.4 269.49 152.37 272.85 155.17 277.34 173.66 277.61 177.86 170.58 177.58 152.65 159.93 157.41"/><polygon class="cls-7" points="159.93 157.41 177.86 170.58 185.99 146.2 159.93 157.41"/><polygon class="cls-7" points="241.47 226.62 233.9 228.58 252.11 258.28 258.28 252.68 241.47 226.62"/><polygon class="cls-19" points="177.3 83.44 188.23 134.44 185.99 146.2 200.56 149.29 220.17 143.96 231.66 122.67 217.93 58.22 193.84 49.53 177.3 83.44"/><polygon class="cls-3" points="134.71 86.24 122.11 48.13 136.12 36.93 145.08 57.94 134.71 86.24"/><polygon class="cls-3" points="169.74 0.5 224.09 1.62 228.3 23.48 192.71 27.4 174.5 28.8 161.89 18.15 169.74 0.5"/><polygon class="cls-20" points="136.12 36.93 133.87 105.01 149.84 130.51 192.71 133.31 207.85 113.42 212.33 55.7 192.71 27.4 178.7 19.83 161.89 18.15 147.04 24.04 136.12 36.93"/><polygon id="XMLID_31_1" data-name="XMLID 31  1" class="cls-19" points="138.08 61.58 150.68 73.07 159.65 94.09 165.26 95.77 170.3 94.09 184.87 74.19 204.2 63.83 189.63 58.78 176.18 63.83 169.18 69.71 166.66 73.63 162.73 69.71 159.37 63.27 146.2 57.66 138.08 61.58"/><polygon class="cls-1" points="138.08 61.58 145.36 59.62 159.37 63.27 159.37 58.5 145.08 56.54 138.08 61.58"/><polygon class="cls-1" points="176.18 58.78 176.18 63.83 190.75 61.3 204.2 63.83 191.59 57.38 176.18 58.78"/><polygon class="cls-21" points="162.73 69.71 159.65 94.09 170.3 94.09 169.18 69.71 162.73 69.71"/><polygon class="cls-22" points="159.65 94.09 165.26 98.01 170.3 94.09 159.65 94.09"/><polygon class="cls-9" points="152.93 108.1 166.66 105.58 182.07 109.22 165.53 112.58 152.93 108.1"/><polygon class="cls-11" points="152.93 108.1 166.1 115.66 182.07 109.22 166.1 110.34 152.93 108.1"/><polygon id="XMLID_33_2" data-name="XMLID 33  2" class="cls-23" points="224.09 1.62 262.76 45.05 242.31 53.74 212.33 55.7 192.71 27.4 224.09 1.62"/><polygon class="cls-1" points="212.33 55.7 235.59 93.81 256.04 91.56 262.76 45.05 212.33 55.7"/><polygon class="cls-3" points="212.33 55.7 225.22 120.14 245.67 132.47 273.13 136.96 256.04 91.56 212.33 55.7"/><polygon class="cls-1" points="225.22 120.14 215.13 168.9 273.13 136.96 225.22 120.14"/><polygon class="cls-9" points="173.66 277.61 148.16 282.94 152.37 272.85 173.66 277.61"/><polygon class="cls-9" points="251.55 285.18 210.37 276.77 248.75 273.97 251.55 285.18"/><polygon class="cls-22" points="177.58 132.19 185.99 146.2 200.28 149.29 209.38 134.88 192.71 133.31 177.58 132.19"/><path class="cls-24" d="M150.68,69.15a4.21,4.21,0,1,1-4.2,4.2A4.2,4.2,0,0,1,150.68,69.15Z"/><path class="cls-24" d="M182.07,70a4.2,4.2,0,1,1-4.21,4.2A4.2,4.2,0,0,1,182.07,70Z"/><polygon class="cls-25" points="192.71 27.4 175.62 22.36 161.89 18.15 177.86 13.11 192.71 27.4"/><polygon class="cls-23" points="161.89 18.15 136.12 36.93 145.08 21.52 161.89 18.15"/></svg>