<svg id="Layer_1" data-name="Layer 1" xmlns="http://www.w3.org/2000/svg" viewBox="0 0 400 400"><defs><style>.cls-1,.cls-29{fill:#c18f7c;}.cls-1,.cls-10,.cls-11,.cls-12,.cls-13,.cls-14,.cls-15,.cls-16,.cls-17,.cls-18,.cls-19,.cls-2,.cls-20,.cls-21,.cls-22,.cls-23,.cls-24,.cls-25,.cls-26,.cls-27,.cls-3,.cls-4,.cls-5,.cls-6,.cls-7,.cls-8,.cls-9{fill-rule:evenodd;}.cls-2{fill:#2c2b2b;opacity:0.1;}.cls-3,.cls-30{fill:#2b2b2b;}.cls-4{fill:#41403f;}.cls-5{fill:#4b4948;}.cls-6{fill:#5b5959;}.cls-28,.cls-7{fill:#f4cab2;}.cls-8{fill:#fbe3d4;}.cls-9{fill:#eaeceb;}.cls-10{fill:#594265;}.cls-11{fill:#484749;}.cls-12{fill:#734d61;}.cls-13{fill:#95637c;}.cls-14{fill:#543042;}.cls-15{fill:#35785e;}.cls-16{fill:#d1a0b8;}.cls-17{fill:#3f8e6f;}.cls-18{fill:#795d88;}.cls-19{fill:#8f759f;}.cls-20{fill:#2f2519;}.cls-21{fill:#dddddc;}.cls-22{fill:#a587b8;}.cls-23{fill:#ebebea;opacity:0.16;}.cls-24,.cls-32{fill:#45382d;}.cls-25{fill:#5a4a3e;}.cls-26{fill:#35291b;}.cls-27{fill:#eceded;}.cls-31{fill:#fff0e8;}</style></defs><title>analysts_INTP_famous_fictional_alexander_mahone_prison_break</title><polygon class="cls-1" points="118.27 150.39 124.99 148.63 143.02 133.18 131.33 111.34 109.87 122.41 108.11 129.83 118.27 150.39"/><polygon class="cls-2" points="103.41 380.67 205.32 400 303.67 381.99 198.6 375.59 103.41 380.67"/><polygon class="cls-3" points="221.59 382.35 215.56 384.7 215.74 390.55 254.3 389.94 254.35 384.94 221.59 382.35"/><polygon class="cls-3" points="154.04 374.39 137.37 376.82 137.55 381.99 189.27 381.88 189.36 376.77 154.04 374.39"/><polygon class="cls-4" points="272.73 298.73 286.17 294.15 286.26 278.96 269.33 281.02 272.73 298.73"/><polygon class="cls-1" points="271.7 261.08 266.38 258.84 264.31 277.08 282.21 269.29 271.7 261.08"/><polygon class="cls-5" points="258.85 275.48 268.49 326.41 274.08 324.72 275.72 304.51 277.9 302.82 276.65 293.05 277.52 274.05 258.85 275.48"/><path class="cls-4" d="M270.6,264.82l-11.75,10.66,7.58,3.32s8-3.53,11.09-4.75c.12-.63.27-1,.43-.95.93.17-3.28-5.58-5.21-8.16Z"/><polygon class="cls-6" points="269.97 295.25 276.65 293.05 272.68 273.43 266.43 278.8 269.97 295.25"/><polygon class="cls-7" points="286.95 269.56 300.75 274.64 294.82 281.88 286.23 284.3 281.31 281.28 279.92 269.15 286.95 269.56"/><polygon class="cls-8" points="266.38 258.84 276.65 293.05 281.56 291.23 281.31 281.28 300.75 274.64 289.66 256.51 272.2 253.97 266.38 258.84"/><polygon class="cls-9" points="272.52 234.03 264.31 249.95 266.38 258.84 289.66 256.51 288.54 244.6 272.52 234.03"/><polygon class="cls-10" points="269.57 199.75 286.23 211.15 288.54 244.6 264.31 249.95 259.08 227.5 269.57 199.75"/><polygon class="cls-10" points="245.81 170.69 254.12 157.52 286.23 211.15 259.08 227.5 249.66 220.12 245.81 170.69"/><polygon class="cls-11" points="228.64 352.57 223.29 363.55 215.56 384.7 254.35 384.94 246.99 363.55 228.64 352.57"/><polygon class="cls-11" points="174.74 351.18 164.57 355.98 137.37 376.82 189.36 376.77 189.77 363.55 174.74 351.18"/><path class="cls-12" d="M165.48,309.29l9,50.07,15.28,4.19L202,297.45s-33.38-28.57-32.22-29.26C169.94,268.07,165.48,309.29,165.48,309.29Z"/><polygon class="cls-13" points="168.74 264.92 157.76 269.75 164.57 355.98 174.49 359.36 175.44 280.18 187.91 274.42 187.44 279.11 168.74 264.92"/><polygon class="cls-13" points="221.55 251.81 201.96 297.45 223.29 363.55 232.71 363.55 236.69 304.19 221.55 251.81"/><path class="cls-12" d="M206.05,269.75C205.73,272,222,288,222,288l10.73,75.51H247l1.16-86.39Z"/><polygon class="cls-14" points="201.96 297.45 221.98 288.04 246.94 267.74 179.68 231.48 185.69 253.16 182.55 249.02 182.55 249.02 167.04 247.91 158.61 258.15 157.76 269.75 201.96 297.45"/><polygon class="cls-12" points="129.86 115.17 133.06 105.21 149.34 97.29 152.64 101.71 155.43 117.55 146.72 120.58 129.86 115.17"/><polygon class="cls-15" points="148.36 104.2 157.94 98.57 161.56 114.69 158.18 122.97 156 123.92 148.36 104.2"/><polygon class="cls-16" points="150.49 101.13 141.5 105.6 149.04 116.73 154.28 113.72 162.29 102.17 150.49 101.13"/><polygon class="cls-17" points="158.68 102.61 149.81 107.93 154.56 120.19 160.28 117.83 162.32 112.82 158.68 102.61"/><polygon class="cls-13" points="134.02 108.61 144.94 117.72 146.72 120.58 128.51 137.74 114.63 122.12 134.02 108.61"/><polygon class="cls-10" points="166.83 161.55 161.74 200.31 131.67 200.9 112.47 175.02 161.49 155.53 166.83 161.55"/><path class="cls-10" d="M238.55,211.15l11.11,9-1.51,57.05L222,288l-27.44-21.59S184,213.56,185,213,238.55,211.15,238.55,211.15Z"/><polygon class="cls-18" points="173.69 206.2 160.07 211.83 157.76 269.75 175.38 280.79 194.54 266.45 194.12 224.81 173.69 206.2"/><polygon class="cls-18" points="198.05 198.34 194.12 224.81 249.66 220.12 254.12 157.52 240.88 151.05 198.05 198.34"/><polygon class="cls-19" points="178.97 174.88 176.92 150.87 161.49 155.53 160.07 211.83 194.12 224.81 178.97 174.88"/><polygon class="cls-20" points="248.79 86.81 254.32 100.34 256.82 119.39 238.03 135.13 241.92 84.98 248.79 86.81"/><polygon class="cls-21" points="181.4 160.67 183.36 191.06 197.65 207.35 219.91 188.46 225.68 162.06 199.76 153.44 181.4 160.67"/><polygon class="cls-11" points="200.57 171.59 195.57 176.44 186.5 200.85 194.12 224.81 209.19 200.9 204.14 177.14 200.57 171.59"/><polygon class="cls-22" points="181.82 149.67 176.92 150.87 170.92 186.42 194.12 224.81 185.87 170.47 181.82 149.67"/><polygon class="cls-23" points="181.82 149.67 176.92 150.87 170.92 186.42 194.12 224.81 185.87 170.47 181.82 149.67"/><polygon class="cls-22" points="170.92 186.42 194.12 224.81 189.33 193.25 170.92 186.42"/><polygon class="cls-22" points="220.79 165.6 216.18 174.68 194.12 224.81 235.45 193.35 240.88 151.05 220.79 165.6"/><polygon class="cls-23" points="220.79 165.6 216.18 174.68 194.12 224.81 235.45 193.35 240.88 151.05 220.79 165.6"/><polygon class="cls-22" points="207.71 193.93 194.12 224.81 235.45 193.35 207.71 193.93"/><polygon class="cls-3" points="214.56 165.34 204.14 177.14 195.57 176.44 189.72 162.56 202.05 155.6 214.56 165.34"/><polygon class="cls-1" points="181.86 136.13 184.61 147.04 190.05 159.51 199.92 160.44 225.44 158.98 227.09 133.59 181.86 136.13"/><polygon class="cls-7" points="242.37 96.31 243.86 108.26 236.4 142.63 216.27 160.09 224.26 140.91 200.61 140.71 201.49 50.19 227.74 41.1 238.58 79.15 242.37 96.31"/><polygon class="cls-1" points="241.72 95.28 245.16 100.68 243.86 108.26 229.65 96.97 241.72 95.28"/><polygon class="cls-20" points="230.16 75.35 226.05 77.8 225.37 87.3 236.17 90.61 235.88 79.14 230.16 75.35"/><polygon class="cls-8" points="234.75 74.22 231.95 78.8 229.65 96.97 245.16 100.68 247.83 81.97 234.75 74.22"/><polygon class="cls-1" points="237.42 83.81 236.27 91.59 243.22 88.34 237.42 83.81"/><polygon class="cls-24" points="234.95 62.75 227.22 65.26 226.05 77.8 254.32 100.34 254.88 79.37 234.95 62.75"/><polygon class="cls-25" points="245.06 29.2 255.04 34.81 260.2 58.74 234.01 51.12 224.91 30.61 245.06 29.2"/><polygon class="cls-20" points="232.4 42.76 241.89 46.89 260.2 58.74 254.88 79.37 227.22 65.26 217.51 49.46 232.4 42.76"/><polygon class="cls-24" points="225.25 26.35 241.89 46.89 217.51 49.46 199.66 34.12 204.94 23.16 225.25 26.35"/><polygon class="cls-20" points="223.49 13.4 235.76 17.54 255.04 34.81 205.62 30.75 223.49 13.4"/><polygon class="cls-26" points="201.89 7.1 228.44 5.06 235.76 17.54 205.62 30.75 181.96 16.33 201.89 7.1"/><polygon class="cls-25" points="163.63 30.56 150.91 13.47 186.67 0 228.44 5.06 193.5 17.39 163.63 30.56"/><polygon class="cls-24" points="142.15 36.87 133.78 39.47 144.52 67.42 159.79 52.33 142.15 36.87"/><polygon class="cls-25" points="162.02 23.02 150.91 13.47 133.78 39.47 157.37 52.04 163.63 30.56 162.02 23.02"/><polygon class="cls-24" points="202.93 37.74 205.62 30.75 193.5 17.39 150.91 13.47 154.49 34.34 202.93 37.74"/><polygon class="cls-8" points="144.52 67.42 149.04 116.73 166.75 140.7 200.61 140.71 215.74 115.5 217.51 49.46 205.62 30.75 154.49 34.34 144.52 67.42"/><polygon class="cls-27" points="199.92 160.44 236.4 142.63 240.88 151.05 216.18 174.68 199.92 160.44"/><polygon class="cls-9" points="183.76 143.67 199.92 160.44 185.87 170.47 176.92 150.87 183.76 143.67"/><polygon class="cls-18" points="126.28 159.2 131.67 200.9 96.33 193.43 103.63 151.25 116.23 145.35 126.28 159.2"/><polygon class="cls-9" points="124.99 148.63 126.28 159.2 103.63 151.25 108.11 129.83 124.99 148.63"/><polygon class="cls-8" points="129.84 131.44 144.94 117.72 134.02 104.5 109.87 122.41 129.84 131.44"/><polygon class="cls-19" points="189.08 237.58 194.11 232.84 199.44 237.9 194.23 242.19 189.08 237.58"/><polygon class="cls-19" points="189.2 254.62 194.44 249.97 199.49 254.83 194.46 259.85 189.2 254.62"/><polygon class="cls-4" points="270.96 307.53 274.08 324.72 278.79 323.42 275.72 304.51 270.96 307.53"/><polygon class="cls-28" points="160.46 68.23 150.15 70.7 161.86 80.24 172.05 99.85 179.38 95.94 185.71 99.9 199.93 80.37 211.01 69.35 199.92 66.77 188.45 70.04 182.08 74.13 180.55 79.77 176.99 74.11 172.15 70.01 160.46 68.23"/><polygon class="cls-29" points="178.89 97.38 172.05 99.85 178.86 106 185.71 99.9 178.89 97.38"/><path class="cls-30" d="M202.52,77.93a3.72,3.72,0,1,1-3.7-3.74A3.74,3.74,0,0,1,202.52,77.93Z"/><path class="cls-30" d="M165.34,78.86a3.72,3.72,0,1,1-3.7-3.74A3.73,3.73,0,0,1,165.34,78.86Z"/><polygon class="cls-31" points="176.99 74.11 175.91 92.15 172.05 99.85 185.71 99.9 182.39 92.66 182.08 74.13 176.99 74.11"/><polygon class="cls-29" points="166.45 117.36 194.46 117.46 192.65 119.39 168.14 119.3 166.45 117.36"/><polygon class="cls-28" points="180.38 126.15 172.01 130.09 188.66 130.15 180.38 126.15"/><polygon class="cls-32" points="187.89 67.86 201.34 65.47 211.01 69.35 200.21 69.12 188.45 70.04 187.89 67.86"/><polygon class="cls-32" points="173.16 68.07 159.74 66.38 150.15 70.7 159.73 69.94 172.15 70.01 173.16 68.07"/></svg>