<svg id="Layer_1" data-name="Layer 1" xmlns="http://www.w3.org/2000/svg" viewBox="0 0 400 400"><defs><style>.cls-1{fill:#8e7e73;}.cls-2{fill:#5e5044;}.cls-3{fill:#8b6651;}.cls-4{fill:#c3987b;}.cls-5{fill:#dfbda5;}.cls-22,.cls-6{fill:#2b2b2b;}.cls-6{fill-opacity:0.1;}.cls-7{fill:#27788c;}.cls-8{fill:#3aa0ba;}.cls-9{fill:#856400;}.cls-10{fill:#755800;}.cls-11{fill:#b58b00;}.cls-12{fill:#ccad14;}.cls-13{fill:#318fa6;}.cls-14{fill:#165e60;}.cls-15{fill:#ececeb;}.cls-16{fill:#e5c828;}.cls-17{fill:#f4d75d;}.cls-18{fill:#74665b;}.cls-19{fill:#474747;}.cls-20{fill:#e8cab6;}.cls-21{fill:#9e7700;}.cls-23{fill:#bf8f00;}</style></defs><title>explorers_ISFP_famous_real_jessica_alba</title><g id="Layer_1-2" data-name="Layer_1"><polygon class="cls-1" points="143.31 50 134.24 50.44 124.5 63.49 133.02 132.19 147.62 125.11 151.16 106.53 143.31 50"/><polygon class="cls-2" points="133.02 132.19 167.31 162.39 175.16 169.69 187.33 164.16 183.68 139.38 180.25 129.87 146.07 109.07 133.02 132.19"/><polygon class="cls-2" points="215.1 128.98 217.87 147.34 223.95 161.17 233.91 156.97 241.32 137.83 233.57 111.17 215.1 128.98"/><polygon class="cls-3" points="214.1 228.21 206.69 230.31 203.6 236.73 212.78 242.81 218.31 237.28 214.1 228.21"/><polygon class="cls-4" points="232.25 179.54 249.06 162.5 261.34 219.69 249.17 224 236.12 213.61 229.92 201.33 232.25 179.54"/><polygon class="cls-5" points="186.45 153.98 167.31 162.39 170.3 176.66 180.14 186.73 229.92 201.33 249.06 162.5 217.98 147.23 197.62 156.08 186.45 153.98"/><polygon class="cls-4" points="186.89 178.65 180.14 186.73 187.33 188.83 186.89 178.65"/><polygon class="cls-6" points="196.29 398.79 121.62 382.97 196.29 368.15 264.77 382.08 196.29 398.79"/><polygon class="cls-4" points="119.97 210.29 139.99 190.04 155.36 181.53 156.14 205.53 147.07 212.5 132.57 215.49 119.97 210.29"/><polygon class="cls-7" points="250.06 323.68 253.82 298.56 266.32 290.71 280.04 298.9 263.55 326.22 254.92 328.54 250.06 323.68"/><polygon class="cls-8" points="280.04 298.9 266.87 298.79 256.69 271.57 263.55 250.66 280.04 298.9"/><polygon class="cls-9" points="200.94 369.14 190.76 385.18 222.07 385.18 213.66 371.35 200.94 369.14"/><polygon class="cls-9" points="170.3 367.37 183.02 368.26 190.76 385.18 162.33 385.18 170.3 367.37"/><polygon class="cls-10" points="165.43 353.1 158.46 368.26 162.33 385.18 168.53 365.49 165.43 353.1"/><polygon class="cls-10" points="214.55 343.7 213.33 360.95 222.07 385.18 225.5 360.18 214.55 343.7"/><polygon class="cls-4" points="172.4 348.9 165.43 353.1 162.33 385.18 183.02 368.26 179.37 352.55 172.4 348.9"/><polygon class="cls-4" points="206.14 344.36 202.49 351.88 200.94 369.14 222.07 385.18 214.55 343.7 206.14 344.36"/><polygon class="cls-5" points="152.93 310.73 165.43 353.1 180.59 357.64 181.25 327.88 177.27 314.94 164.21 305.09 152.93 310.73"/><polygon class="cls-4" points="152.93 310.73 181.25 327.88 170.08 306.09 152.93 310.73"/><polygon class="cls-5" points="203.04 308.19 214.55 343.7 202.16 355.76 167.86 309.96 182.47 302.77 203.04 308.19"/><polygon class="cls-11" points="167.86 309.96 203.04 308.19 216.54 277.66 216.1 249.78 212.78 242.81 194.3 246.68 167.64 303.65 167.86 309.96"/><polygon class="cls-12" points="206.69 230.31 198.51 228.87 161.56 237.61 155.81 242.81 142.75 276.66 152.93 310.73 167.86 309.96 206.69 230.31"/><polygon class="cls-6" points="142.75 276.66 210.01 271.13 216.54 277.66 203.04 308.19 152.93 310.73 142.75 276.66"/><polygon class="cls-8" points="237.34 298.56 230.25 287.39 215.54 240.04 214.1 228.21 236.12 213.61 240.1 226.66 240.65 286.06 237.34 298.56"/><polygon class="cls-13" points="261.34 219.69 236.12 213.61 237.34 298.56 252.82 290.05 266.87 298.79 261.34 219.69"/><polygon class="cls-14" points="251.94 287.61 246.41 291.6 243.42 298.34 261.89 298.68 260.12 294.58 251.94 287.61"/><polygon class="cls-15" points="250.06 323.68 263.55 326.22 259.46 333.08 248.84 330.98 250.06 323.68"/><polygon class="cls-15" points="252.05 289.16 243.42 298.34 237.34 298.56 252.16 283.08 266.87 298.79 261.89 298.68 252.05 289.16"/><polygon class="cls-5" points="166.21 253.1 155.81 242.81 148.84 251.22 147.95 263.27 160.78 261.84 166.21 253.1"/><polygon class="cls-5" points="119.97 210.29 147.07 212.5 155.81 242.81 150.61 250.44 145.74 250.66 119.97 210.29"/><polygon class="cls-4" points="147.95 263.27 145.74 250.66 155.81 242.81 147.95 263.27"/><polygon class="cls-16" points="150.61 189.16 155.81 242.81 179.15 237.06 194.75 238.72 206.69 230.31 214.33 202.43 209.01 184.4 180.14 186.73 161.78 183.96 150.61 189.16"/><polygon class="cls-5" points="196.96 250.33 200.94 244.36 193.42 233.52 179.15 237.06 180.59 247.01 196.96 250.33"/><polygon class="cls-5" points="188.33 227.1 187.11 231.09 193.42 233.52 202.49 233.3 206.69 230.31 188.33 227.1"/><polygon class="cls-4" points="206.69 230.31 193.42 233.52 196.96 250.33 212.78 242.81 206.69 230.31"/><polygon class="cls-12" points="209.01 184.4 229.92 201.33 206.69 230.31 209.01 184.4"/><polygon class="cls-16" points="139.99 190.04 150.61 189.16 163.55 177.1 167.31 162.39 139.99 190.04"/><polygon class="cls-17" points="180.14 186.73 150.61 189.16 167.31 162.39 180.14 186.73"/><polygon class="cls-4" points="213.77 100.11 187.78 129.31 187.33 164.16 217.98 147.23 229.92 119.69 225.94 107.3 213.77 100.11"/><polygon class="cls-3" points="224.83 101.55 214.66 108.63 229.92 119.69 233.57 111.17 224.83 101.55"/><polygon class="cls-3" points="182.8 133.74 191.54 137.17 209.35 136.28 187.33 164.16 176.16 137.83 182.8 133.74"/><polygon class="cls-18" points="147.4 14.38 124.5 63.49 138.88 53.43 157.58 47.45 163 36.39 167.75 15.59 147.4 14.38"/><polygon class="cls-1" points="204.15 1.21 147.4 14.38 163 36.39 169.41 47.67 196.96 67.03 209.79 61.94 213.88 24.11 204.15 1.21"/><polygon class="cls-18" points="243.09 29.53 204.15 1.21 209.79 61.94 232.13 53.76 243.09 29.53"/><polygon class="cls-18" points="278.93 127.98 253.93 109.73 233.57 111.17 234.02 171.57 278.93 127.98"/><polygon class="cls-1" points="243.09 29.53 209.79 61.94 202.82 86.83 214.66 108.63 278.93 127.98 243.09 29.53"/><polygon class="cls-5" points="138.66 53.2 144.41 112.06 170.08 138.16 191.54 137.17 214.66 108.63 209.79 61.94 163 36.39 138.66 53.2"/><polygon class="cls-13" points="214.1 228.21 224.72 260.18 229.04 266.15 228.71 272.46 237.34 298.56 210.01 271.13 214.1 228.21"/><polygon class="cls-15" points="236.67 250.89 246.74 258.08 250.17 267.04 242.09 274.34 237 273.68 235.12 271.57 232.69 273.01 228.71 272.46 226.27 265.05 226.6 263.5 225.39 262.17 224.72 260.18 236.67 250.89"/><polygon class="cls-19" points="233.91 255.64 234.24 260.29 246.74 258.08 237 273.68 232.69 273.01 231.14 264.6 226.27 265.05 225.39 262.17 230.48 261.06 229.37 256.64 233.91 255.64"/><polygon class="cls-15" points="234.13 263.83 235.56 269.03 239.55 263.5 234.13 263.83"/><polygon class="cls-4" points="149.61 71.57 144.63 76.66 156.14 81.3 169.97 99.56 170.96 89.16 169.63 81.63 165.21 75.88 149.61 71.57"/><polygon class="cls-2" points="149.83 70.68 144.63 76.66 151.38 73.23 165.21 75.88 162.33 71.68 149.83 70.68"/><polygon class="cls-4" points="180.36 73.78 175.28 81.19 173.28 88.49 178.04 101.55 190.76 80.53 203.48 71.79 194.19 68.14 180.36 73.78"/><polygon class="cls-2" points="182.91 69.58 180.36 73.78 196.29 70.24 203.48 71.79 196.85 67.14 182.91 69.58"/><polygon class="cls-3" points="170.08 102.1 173.06 98.45 178.04 101.55 174.83 105.97 170.08 102.1"/><polygon class="cls-20" points="169.63 81.63 175.28 81.19 178.04 101.55 170.08 102.1 169.63 81.63"/><polygon class="cls-21" points="166.76 113.94 174.5 109.73 187.33 112.39 175.16 114.6 166.76 113.94"/><path class="cls-4" d="M189.66,124.56a1.55,1.55,0,1,1-1.55,1.54A1.55,1.55,0,0,1,189.66,124.56Z"/><path class="cls-22" d="M158.51,80A3.81,3.81,0,1,1,154.84,84,3.8,3.8,0,0,1,158.51,80Z"/><path class="cls-22" d="M187.87,77.6a3.86,3.86,0,1,1-3.72,4A3.86,3.86,0,0,1,187.87,77.6Z"/><polygon class="cls-23" points="173.17 119.47 164.44 112.83 175.61 114.6 189.77 111.06 180.03 119.25 173.17 119.47"/></g></svg>