<svg xmlns="http://www.w3.org/2000/svg" viewBox="0 0 400 400"><defs><style>.a,.s{fill:#2b2b2b;}.a{opacity:0.1;}.b{fill:#755924;}.c{fill:#efd3c2;}.d{fill:#d1af96;}.e{fill:#a9846c;}.f{fill:#74665b;}.g{fill:#ccae2d;}.h{fill:#e4c823;}.i{fill:#f4d75c;}.j{fill:#47392e;}.k{fill:#846528;}.l{fill:#474748;}.m{fill:#dddddc;}.n{fill:#bd902d;}.o{fill:#ac923b;}.p{fill:#5f5145;}.q{fill:#8f7f74;}.r{fill:#f7e6dc;}</style></defs><title>explorers_ISFP_famous_fictional_thea_queen_arrow</title><polygon class="a" points="99.5 386 187.28 376.16 278.75 383.98 187.28 400 99.5 386"/><polygon class="b" points="232.99 363.33 238.25 374.17 236.46 392.32 232.99 392.32 229.96 377.83 232.99 363.33"/><polygon class="b" points="166.49 360 170.85 368.67 164.62 386 160.88 386 156.67 373.33 166.49 360"/><polygon class="c" points="207.67 195 220 162.67 194.23 151.6 172.77 151.6 165.2 153.64 157.67 180 207.67 195"/><polygon class="d" points="191.4 57.22 227.33 72.67 212.46 124.33 194.23 151.6 178.5 160.08 178.5 129.33 191.4 57.22"/><polygon class="c" points="157.5 29 134.5 29 117 48 117 90.25 140 129.33 178.5 129.33 191.4 98.72 191.4 57.22 157.5 29"/><polygon class="e" points="160 129.33 178.5 160.08 198.33 129.33 160 129.33"/><polygon class="f" points="103.33 63 107.21 46.5 120.86 16.5 145.33 0 214.33 9 249.67 45.67 244.67 76 244.67 101.5 249.67 124.33 220 162.67 194.23 151.6 212.46 124.33 220 112.61 215.29 103.22 200 60.92 191.4 57.22 157.5 29 134.5 29 117 48 117 75 117 90.25 103.33 63"/><polygon class="d" points="220 162.67 235.33 183.67 233.65 218.33 223.94 246.7 211.97 226.63 207.67 195 220 162.67"/><polygon class="g" points="142 195 157.39 225 211.97 226.63 207.67 195 142 195"/><polygon class="h" points="157.67 180 165.2 153.64 157.67 155.67 142 195 207.67 195 157.67 180"/><polygon class="i" points="148.95 177.54 157.67 180 165.2 153.64 157.67 155.67 148.95 177.54"/><polygon class="d" points="170.43 183.83 176.26 178.5 177.67 186 170.43 183.83"/><polygon class="d" points="146.06 202.92 142 195 157.67 155.67 145.17 159.21 124.33 214.33 146.06 202.92"/><polygon class="c" points="210.27 65.35 206.01 88.99 218.38 92.13 224.35 71.4 210.27 65.35"/><polygon class="e" points="206.01 88.99 215.29 103.22 218.38 92.13 206.01 88.99"/><polygon class="e" points="220.47 72.99 213.26 84.24 214.62 71.49 220.47 72.99"/><polygon class="j" points="207.08 83.08 200 60.92 210.27 65.35 207.08 83.08"/><polygon class="k" points="148.95 360 123.67 386 151 386 166.49 360 148.95 360"/><polygon class="h" points="232.99 294.98 211.97 226.63 157.07 224.39 142 262.67 145.02 305 177.97 305 232.99 294.98"/><polygon class="c" points="166.49 360 177.97 305 145.02 305 148.95 360 166.49 360"/><polygon class="c" points="216.32 363.33 232.99 363.33 232.99 294.98 199.65 303.57 216.32 363.33"/><polygon class="g" points="142 262.67 211.97 226.63 145.08 302.57 142 262.67"/><polygon class="d" points="145.02 305 176.23 313.31 177.97 305 145.02 305"/><polygon class="d" points="202.02 313.31 232.99 298.75 232.99 294.98 199.65 303.57 202.02 313.31"/><polygon class="c" points="162.75 235.5 146.06 202.92 124.33 214.33 150.22 241.79 162.75 235.5"/><polygon class="d" points="162.75 235.5 178 248 182.17 265.17 161.5 261.78 150.22 241.79 162.75 235.5"/><polygon class="c" points="182.17 265.17 178 248 161.5 261.78 173.72 270.05 182.17 265.17"/><polygon class="c" points="217.33 266 231.5 262.67 233.65 218.33 211.97 226.63 217.33 266"/><polygon class="l" points="169 305 212.47 292.53 225 291.83 232.99 286.64 255.25 280.25 253.5 289 176.99 309.71 169 305"/><polygon class="m" points="126.78 299.96 128.06 297.37 286 252.17 286.46 253.61 126.78 299.96"/><polygon class="n" points="154.18 308.72 157.84 305.41 161.5 306.88 161.5 309.39 156.25 310.92 154.18 308.72"/><polygon class="n" points="260.94 278.44 264.13 275.46 268.25 276.11 268.25 278.62 263.01 280.63 260.94 278.44"/><polygon class="k" points="253.5 289 255.25 277.04 283.83 262.67 286 252.17 300.5 248.67 299.33 254.5 291.33 256.17 288.33 269.67 253.5 289"/><polygon class="k" points="176.99 309.71 169 301.25 135.44 305.14 128.06 297.37 113.9 302.04 117.97 306.38 125.64 303.58 135.31 313.46 176.99 309.71"/><polygon class="d" points="217.33 266 212.47 292.53 226 291.33 235.33 285.96 231.5 262.67 217.33 266"/><polygon class="c" points="212.47 292.53 218.69 305.47 223.74 303.1 223.75 298.25 232.99 294.98 235.33 285.96 212.47 292.53"/><polygon class="k" points="232.99 335 232.99 340.67 246.69 346.88 242.06 332.88 235.75 332.13 232.99 335"/><polygon class="g" points="232.99 335 183.94 273.91 187.06 271.41 235.75 332.13 232.99 335"/><polygon class="k" points="173.72 270.05 184.33 274.17 187.5 272.11 186.5 260 179.31 253.38 182.17 265.17 173.72 270.05"/><polygon class="o" points="246.69 346.88 234.47 333.46 235.75 332.13 242.06 332.88 246.69 346.88"/><polygon class="f" points="103.56 62.01 117 75 107.21 46.5 103.56 62.01"/><polygon class="j" points="134.5 29 107.21 46.5 117 75 117 48 134.5 29"/><polygon class="f" points="244.67 76 216.25 55.33 249.67 45.67 244.67 76"/><polygon class="p" points="244.67 101.5 215.29 103.22 212.46 124.33 249.67 124.33 244.67 101.5"/><polygon class="p" points="232.66 146.31 194.23 151.6 220 162.67 232.66 146.31"/><polygon class="j" points="242.67 133.37 241.48 160.13 235.33 183.67 220 162.67 242.67 133.37"/><polygon class="q" points="214.33 9 184 29 213.26 52 249.67 45.67 214.33 9"/><polygon class="f" points="184 29 157.5 29 145.33 0 214.33 9 184 29"/><polygon class="q" points="134.5 29 120.86 16.5 107.21 46.5 134.5 29"/><polygon class="p" points="213.26 52 191.4 57.22 227.33 72.67 244.67 76 213.26 52"/><polygon class="p" points="120.86 16.5 134.5 29 157.5 29 145.33 0 120.86 16.5"/><polygon class="p" points="157.5 29 184 29 191.4 57.22 157.5 29"/><polygon class="r" points="144.19 69.51 150.56 69.51 152.63 91.58 141.96 91.58 144.19 69.51"/><polygon class="e" points="141.96 91.58 147.64 96.42 152.63 91.58 141.96 91.58"/><polygon class="d" points="150.56 69.51 153.71 63.55 169.33 60.92 179.5 62.58 162.75 73.67 152.63 91.58 150.56 69.51"/><polygon class="d" points="142.61 85.13 134.5 73.67 121.63 63.74 128.33 61.76 141.01 63.15 144.19 69.51 142.61 85.13"/><polygon class="j" points="153.71 63.55 154.71 61.41 169.71 59.05 179.5 62.58 169.33 60.92 153.71 63.55"/><polygon class="j" points="141.01 63.15 140.47 61.41 128.46 59.84 121.63 63.74 128.33 61.76 141.01 63.15"/><path class="s" d="M166.77,73.67a3.57,3.57,0,1,1-3.56-3.57A3.56,3.56,0,0,1,166.77,73.67Z"/><path class="s" d="M138.06,73.67a3.56,3.56,0,1,1-3.56-3.57A3.56,3.56,0,0,1,138.06,73.67Z"/><polygon class="n" points="137.42 105.12 149.22 110.1 163.21 104.48 137.42 105.12"/><polygon class="g" points="253.5 289 256.15 291.56 264.15 287.26 264.27 283.02 253.5 289"/><polygon class="d" points="145.44 312.55 175.44 317.09 176.23 313.31 164.72 310.81 145.44 312.55"/><polygon class="g" points="176.99 309.71 176.23 313.31 167.19 314.25 164.72 310.81 176.99 309.71"/><polygon class="p" points="241.48 160.13 232.66 146.31 242.67 133.37 241.48 160.13"/><polygon class="b" points="165.17 153.73 176.99 166.82 202.92 155.67 194.23 151.6 178.5 160.08 173.4 151.6 165.17 153.73"/><polygon class="n" points="176.99 166.82 171.83 173.3 176.26 178.5 181 173.3 176.99 166.82"/><path class="b" d="M160.05,103.65,152,101.5l-3.22,1.35-3-1.16-5.27,2.17h0c-.49.2-5-1-5-1l2,2.27,25.79-.64,3.37-2.14Z"/><polygon class="d" points="171.83 99.75 187.75 90.25 176.92 102.32 171.83 99.75"/><polygon class="k" points="216.32 363.33 207.67 392.32 232.99 392.32 232.99 363.33 216.32 363.33"/><polygon class="f" points="112.53 81.33 108.1 111.54 131.32 130.68 124.05 162.67 163.79 182.72 173.4 151.6 160 129.33 140 129.33 112.53 81.33"/><polygon class="q" points="108.1 111.54 120.86 95.88 112.53 81.33 108.1 111.54"/><polygon class="p" points="140 129.33 108.1 111.54 120.86 95.88 140 129.33"/><polygon class="j" points="131.32 130.68 140 129.33 108.1 111.54 131.32 130.68"/><polygon class="j" points="173.4 151.6 154.18 142.5 160 129.33 173.4 151.6"/><polygon class="q" points="154.18 142.5 124.05 162.67 131.32 130.68 154.18 142.5"/><polygon class="p" points="131.32 130.68 154.18 142.5 160 129.33 140 129.33 131.32 130.68"/><polygon class="p" points="154.18 142.5 163.79 182.72 173.4 151.6 154.18 142.5"/><polygon class="f" points="124.05 162.67 163.79 182.72 154.18 142.5 124.05 162.67"/><polygon class="p" points="163.79 182.72 157.07 189.73 143.29 194.46 150.22 183.67 140.69 171.06 163.79 182.72"/><polygon class="f" points="140.69 171.06 157.07 189.73 142 195 140.69 171.06"/><polygon class="d" points="164 98.72 167.96 104.48 170.33 102.67 164 98.72"/><polygon class="d" points="137.56 99.21 134.02 105.33 132.52 103.52 137.56 99.21"/></svg>