<svg id="Layer_1" data-name="Layer 1" xmlns="http://www.w3.org/2000/svg" xmlns:xlink="http://www.w3.org/1999/xlink" viewBox="0 0 400 400"><defs><style>.cls-1{fill:none;}.cls-2{fill:#d0ab91;}.cls-3{fill:#836528;}.cls-13,.cls-24,.cls-4{fill:#2b2b2b;}.cls-4{opacity:0.2;}.cls-26,.cls-5{fill:#f0bc67;}.cls-25,.cls-6{fill:#e1a940;}.cls-7{fill:#b38b2e;}.cls-8{fill:#9c782c;}.cls-9{fill:#cbad2d;}.cls-10,.cls-23{fill:#8c7c2f;}.cls-11{fill:#b28b71;}.cls-12{fill:#82624e;}.cls-14,.cls-27{fill:#474748;}.cls-15{fill:#d6bba9;}.cls-16{fill:#755924;}.cls-17{fill:#9c792c;}.cls-18{fill:#f1bc68;}.cls-19{fill:#bb8f2d;}.cls-20{fill:#ab913c;}.cls-21{fill:#6f7273;}.cls-22{clip-path:url(#clip-path);}.cls-23{opacity:0.5;}.cls-24,.cls-25,.cls-26,.cls-27{fill-rule:evenodd;}</style><clipPath id="clip-path"><polygon class="cls-1" points="179.01 140.69 163.66 141.96 140.66 180.92 153.49 222.06 211.94 222.06 247.31 151.2 217.38 143.22 202.51 179.39 169.01 176.82 179.01 140.69"/></clipPath></defs><title>explorers_ISFP_famous_real_frida_kahlo</title><polygon class="cls-2" points="144.47 157.92 129.72 161.3 122.16 215.84 131.4 221.19 145.84 208.3 149.28 200.24 153.91 193.13 144.47 157.92"/><polygon class="cls-2" points="234.43 154.14 249.18 157.52 256.18 214.25 247.51 217.41 235.06 204.52 229.62 196.45 225 189.34 234.43 154.14"/><polygon class="cls-2" points="176 143.9 179.01 140.69 217.38 143.22 230.47 153.31 207.72 180.04 181.89 182.75 169.01 176.82 169.7 169.44 176 143.9"/><polygon class="cls-3" points="172.72 164.72 231.37 165.59 225 189.34 153.06 202.34 127.78 158.67 163.66 141.96 172.72 164.72"/><polygon class="cls-3" points="228.53 146.29 247.31 151.2 258.03 172.05 229.62 196.45 215.43 184.59 223.94 149.84 228.53 146.29"/><polygon class="cls-4" points="90.16 378.77 197.36 340.74 282.01 360.81 319.37 371.33 241.26 400 202.29 400 139.6 399.37 90.16 378.77"/><polygon class="cls-5" points="127.78 312.43 104.94 379.96 152.22 394.34 178.48 361 156.38 320.23 127.78 312.43"/><polygon class="cls-6" points="189.41 390.15 152.22 394.34 155.41 332.33 156.38 320.23 187.82 319.71 193.22 351.65 189.41 390.15"/><polygon class="cls-5" points="234.2 398.67 189.41 390.15 187.82 319.71 224.83 312.6 242.94 355.18 234.2 398.67"/><polyline class="cls-6" points="266.58 301.68 224.83 312.6 230.51 335.16 234.2 398.67 301.37 371.58"/><polygon class="cls-7" points="155.81 213.83 166.92 214.25 174.47 271.02 154.7 346.13 123.11 326.23 155.81 213.83"/><polygon class="cls-6" points="157.02 312.43 179.21 271.96 155.41 332.33 127.78 312.43 132.07 296.79 157.02 312.43"/><polygon class="cls-8" points="154.7 346.13 166.92 214.25 184.86 214.94 217.91 270.71 216.35 274.6 188.44 344.2 154.7 346.13"/><polygon class="cls-5" points="188.08 330.53 155.41 332.33 157.02 312.43 187.82 312.43 217.91 270.71 188.08 330.53"/><polygon class="cls-7" points="188.44 344.2 184.86 214.94 212.69 216.28 228.16 264.83 230.51 353.39 188.44 344.2"/><polygon class="cls-6" points="230.24 335.16 187.81 330.52 187.55 312.43 224.56 312.59 225.75 271.37 230.24 335.16"/><polygon class="cls-8" points="230.51 353.39 212.69 216.28 226.18 216.78 274.68 317.76 230.51 353.39"/><polygon class="cls-5" points="266.58 301.68 228.14 335.16 224.83 312.6 259.28 285.69 266.58 301.68"/><polygon class="cls-5" points="154.99 95.01 155.47 106.41 151.76 106.41 151.76 95.49 154.99 95.01"/><path class="cls-9" d="M148.58,124.93l2,.67-2,3.85,2.37.76,1.41-2.82,1.09-.3.64,3.24s3.92-.53,3.87-.76-1.51-3.89-1.51-3.89l.75-.81,1.29,1.55,2.58-2.72-4.93-9.21-7.19-1-2.69,4.62.62,3.57-2.29,4.23,2.13,2Zm1.2-2.64.1-4.92,4.56.25.88,2.37-1.38,2.57Z"/><path class="cls-10" d="M146.93,110.31l3.63,5.72,4.91-.65,4-4.59-.72-4.26-2.26-2.74-6.28.32L148,106.44Zm3.3-1.09,1.41-2.53,2.74.88,1.29,2-3.5,2.53Z"/><polygon class="cls-11" points="217.38 143.22 186.09 160.03 206.78 92.11 219.93 68.96 228.93 99.83 217.38 143.22"/><polygon class="cls-12" points="174.21 126.58 186.09 161.52 217.1 121.71 174.21 126.58"/><polygon class="cls-13" points="152.82 63.95 151.2 89.15 151.65 101.1 140.96 80.06 145.97 57.1 152.82 63.95"/><polygon class="cls-2" points="182.39 47.37 152.64 54.22 150.3 92.01 154.65 121.14 174.59 139.34 198.21 139.39 217.17 122.18 220.16 96.04 216.77 51.56 182.39 47.37"/><polygon class="cls-12" points="193.29 101.99 173.28 101.99 183.28 108.3 193.29 101.99"/><polygon class="cls-14" points="180.12 49.71 181.31 28.8 151.56 39.25 145.97 57.1 152.04 63.95 154.54 54.22 180.12 49.71"/><polygon class="cls-15" points="193.29 101.99 186.98 94.6 187.54 82.03 178.21 82.21 179.41 94.42 173.28 101.99 193.29 101.99"/><polygon class="cls-13" points="178.21 82.21 177.85 77.65 162.01 73.91 154.44 78.83 154.94 81.62 161.78 78.06 178.21 82.21"/><polygon class="cls-13" points="187.54 82.03 204.29 77.11 212.58 79.37 213.35 77.52 202.89 73.6 187.43 76.9 187.54 82.03"/><polygon class="cls-16" points="198.72 118 187.26 113.46 183.77 115.18 180.29 113.46 168.93 118.36 198.72 118"/><polygon class="cls-8" points="198.72 118 190.08 124.06 177.46 124.06 168.93 118.36 198.72 118"/><polygon class="cls-11" points="173.28 101.99 166.61 85.95 154.94 81.62 161.78 78.06 178.21 82.21 179.41 94.42 173.28 101.99"/><polygon class="cls-11" points="193.29 101.99 186.98 94.6 187.54 82.03 204.29 77.11 212.58 79.37 200.19 84.82 193.29 101.99"/><circle class="cls-13" cx="200.19" cy="84.82" r="3.2"/><circle class="cls-13" cx="166.61" cy="85.95" r="3.2"/><polygon class="cls-14" points="182.21 49.71 183.11 28.8 203.3 30.42 219.35 43.76 215.25 52.95 182.21 49.71"/><polygon class="cls-13" points="220.16 96.04 228.73 80.18 228.93 99.83 236.12 80.18 229.27 59.26 219.35 43.76 215.25 52.95 220.16 96.04"/><polygon class="cls-2" points="222.45 78.63 220.16 96.04 228.93 99.83 233.69 81.62 222.45 78.63"/><polygon class="cls-16" points="145.97 57.1 150.3 35.21 181.31 24.79 203.38 27.4 221.27 40.95 230.06 61.69 219.35 43.76 203.3 30.42 181.31 28.8 151.56 39.25 145.97 57.1"/><polygon class="cls-14" points="234.65 75.69 241.19 67.69 231.38 59.11 230.06 61.69 234.65 75.69"/><polygon class="cls-13" points="241.19 67.69 243.79 57.1 230.06 51.3 231.38 59.11 241.19 67.69"/><polygon class="cls-14" points="243.79 57.1 243.79 46.37 230.77 48.54 230.06 51.3 243.79 57.1"/><polygon class="cls-13" points="243.79 46.37 238.58 35.21 220.39 37 222.56 43.98 231.37 61.88 243.79 46.37"/><polygon class="cls-14" points="220.35 37.98 223.21 25.98 236.12 29.7 238.58 35.21 220.35 37.98"/><polygon class="cls-14" points="142.51 72.96 137.32 62.33 137.32 54.36 145.97 57.1 142.51 72.96"/><polygon class="cls-13" points="145.97 57.1 137.32 54.36 138.7 46.37 147.66 48.54 145.97 57.1"/><polygon class="cls-14" points="147.66 48.54 149.53 39.12 139.31 37.51 138.7 46.37 147.66 48.54"/><polygon class="cls-13" points="149.53 39.12 150.3 35.21 143.45 24.1 137.71 32.68 139.31 37.51 149.53 39.12"/><polygon class="cls-14" points="150.3 35.21 159.55 32.1 156.16 17.29 147.36 18.13 143.45 24.1 150.3 35.21"/><polygon class="cls-13" points="156.16 17.29 158.84 15.14 163.98 15.45 163.98 30.61 159.55 32.1 156.16 17.29"/><polygon class="cls-13" points="180.12 49.71 182.21 49.71 183.11 28.8 182.28 28.7 181.11 32.29 180.12 49.71"/><polygon class="cls-16" points="210.62 21.38 218.59 20.75 222.17 16.56 224.78 21.68 219.44 26.39 215 28.25 210.81 24.67 209.83 22.25 210.62 21.38"/><polygon class="cls-7" points="210.62 21.38 218.59 20.75 222.17 16.56 222.74 12.35 209.61 13.08 210.62 21.38"/><polygon class="cls-5" points="209.61 13.08 221.03 12.45 222.92 10.23 222.29 7.33 211.89 6.65 206.88 11.31 209.61 13.08"/><polygon class="cls-5" points="222.74 12.35 224.12 11.26 223.86 15.24 226.14 16.19 227.3 20.12 224.78 21.68 222.17 16.56 222.74 12.35"/><polygon class="cls-16" points="165.06 24.7 169.9 17.41 168.7 11.49 174.87 12.7 175.33 20.48 173.94 25.56 168.03 26.76 165.28 25.97 165.06 24.7"/><polygon class="cls-7" points="165.06 24.7 169.9 17.41 168.7 11.49 165.46 8.16 157.23 19.97 165.06 24.7"/><polygon class="cls-5" points="157.23 19.97 164.38 9.7 163.75 6.58 160.83 5.17 153.23 13.66 153.86 21.13 157.23 19.97"/><polygon class="cls-5" points="165.46 8.16 165.45 6.23 168.7 9.15 171.06 7.82 175.23 9.47 174.87 12.7 168.7 11.49 165.46 8.16"/><polygon class="cls-16" points="187.68 27.44 186.71 32.5 188.71 35.43 185.08 36.18 183.06 32.07 182.66 28.99 185.6 27 187.27 26.8 187.68 27.44"/><polygon class="cls-7" points="187.68 27.44 186.71 32.5 188.71 35.43 191.22 36.5 193 28.23 187.68 27.44"/><polygon class="cls-5" points="193 28.23 191.46 35.42 192.51 36.97 194.42 37.08 196.61 30.73 194.56 26.83 193 28.23"/><polygon class="cls-5" points="191.22 36.5 191.67 37.55 189.24 36.71 188.26 37.96 185.63 38.02 185.08 36.18 188.71 35.43 191.22 36.5"/><polygon class="cls-16" points="160.32 26.44 156.33 23.19 152.8 23.55 153.86 20.01 158.43 20.18 161.33 21.29 161.69 24.82 161.08 26.38 160.32 26.44"/><polygon class="cls-7" points="160.32 26.44 156.33 23.19 152.8 23.55 150.66 25.26 157.1 30.75 160.32 26.44"/><polygon class="cls-5" points="157.1 30.75 151.5 25.98 149.63 26.17 148.64 27.8 153.18 32.73 157.59 32.79 157.1 30.75"/><polygon class="cls-5" points="150.66 25.26 149.53 25.16 151.42 23.42 150.78 21.96 151.99 19.61 153.86 20.01 152.8 23.55 150.66 25.26"/><polygon class="cls-17" points="192.84 7.94 190.37 7.63 188.88 13.56 194.5 22.29 200.34 24.89 207.71 21.74 210.43 17.68 211.65 14.04 211.22 10.2 208.96 4.61 205.6 3.33 201.12 1.01 196.18 2.87 192.84 7.94"/><polygon class="cls-18" points="197.16 15.22 198.39 16.22 202.23 15.98 203.35 14.08 202.2 14.26 201.98 15.06 199.06 15.7 197.16 15.22"/><polygon class="cls-18" points="200.39 14.35 199.72 13.16 200.03 12.51 202.25 11.02 201.97 12.17 202.52 12.7 202.61 10.42 198.83 12.55 199.16 14.34 200.39 14.35"/><polygon class="cls-18" points="204.81 13.89 205.19 13.41 204.96 11 201.96 7.76 197.48 8.57 194.28 12.46 194.83 15.07 195.24 12.76 197.81 9.07 201.37 8.62 204.28 11.21 204.81 13.89"/><polygon class="cls-18" points="200.29 18.56 200.21 17.61 197.26 16.68 196.3 14.62 196.51 11.68 195.72 14.24 196.18 16.39 197.65 18.04 200.29 18.56"/><polygon class="cls-18" points="196.08 20.03 196.32 19.53 194.59 18.72 193.28 14.98 192.88 10.58 197.93 4.23 196.39 3.96 193.19 8 192.23 10.04 192.54 15.02 193.95 19.02 196.08 20.03"/><polygon class="cls-18" points="197.22 6.63 201.27 6.49 206.19 8.47 207.51 11.79 206.37 15.5 199.86 20.83 205.38 19.52 208.88 15.15 208.69 8.73 205.42 5.87 200.6 5.26 197.22 6.63"/><polygon class="cls-18" points="198.45 4.02 202.64 3.6 205.46 4.63 208.61 4.79 210.55 10.18 211.22 10.2 210.43 4.39 205.6 3.33 203.44 2.31 199.3 2.63 198.45 4.02"/><polygon class="cls-18" points="200.29 18.56 203.39 17.21 204.43 14.05 203.72 11.93 203.88 13.93 202.79 16.63 200.21 17.61 200.29 18.56"/><polygon class="cls-18" points="194.5 22.29 195.67 21.55 201.02 22.81 206.78 21.62 211.65 14.04 210.9 18.68 209.26 21.35 200.74 25.42 197.48 24.91 194.5 22.29"/><polygon class="cls-19" points="202 10.77 199.23 10.35 197.6 11.37 197 13.06 198.53 14.84 200.88 14.72 203.35 14.08 202.68 11.67 201.83 13.85 200.4 13.98 199.7 12.36 202 10.77"/><polygon class="cls-19" points="197.16 15.22 196.3 14.62 196.51 11.68 197.81 9.07 201.37 8.62 204.28 11.21 204.43 14.05 203.72 11.93 200.98 9.65 198.29 9.91 197.06 11.56 196.74 14.49 197.16 15.22"/><polygon class="cls-19" points="196.32 19.53 194.83 15.07 194.28 12.46 194.65 9.57 196.61 6.95 198.45 4.02 197.93 4.23 192.88 10.58 193.28 14.98 194.59 18.72 196.32 19.53"/><polygon class="cls-19" points="194.5 22.29 189.12 13.74 190.3 7.52 193.19 8 192.23 10.04 192.54 15.02 193.95 19.02 194.5 22.29"/><polygon class="cls-19" points="195.67 21.55 200.79 22.25 205.38 19.52 206.78 21.62 201.02 22.81 195.67 21.55"/><polygon class="cls-19" points="205.38 19.52 209.85 15.67 209.41 8.81 206.06 5.2 200.6 5.26 205.65 6.07 208.62 9.04 208.88 15.15 205.38 19.52"/><polygon class="cls-19" points="199.86 20.83 199.85 19.49 203.39 17.21 206.57 12.29 206.19 8.47 207.51 11.79 206.37 15.5 199.86 20.83"/><polygon class="cls-16" points="199.86 20.83 196.46 19.22 194.83 15.07 196.18 16.39 197.65 18.04 200.29 18.56 203.39 17.21 199.85 19.49 199.86 20.83"/><polygon class="cls-16" points="203.39 17.21 204.81 13.89 205.19 13.41 204.96 11 201.96 7.76 201.27 6.49 206.19 8.47 206.57 12.29 203.39 17.21"/><polygon class="cls-16" points="197 13.06 198.53 14.84 200.88 14.72 202.2 14.26 201.98 15.06 199.06 15.7 197.16 15.22 196.74 14.49 197 13.06"/><polygon class="cls-16" points="200.4 13.98 201.83 13.85 202.52 12.7 201.97 12.17 201.45 13.36 200.4 13.98"/><polygon class="cls-16" points="202.23 15.98 202.79 16.63 203.88 13.93 203.72 11.93 202.73 11.11 202.68 11.67 203.35 14.08 202.23 15.98"/><polygon class="cls-16" points="197 13.06 197.6 11.37 199.23 10.35 202 10.77 200.98 9.65 198.29 9.91 197.06 11.56 197 13.06"/><polygon class="cls-16" points="197.22 6.63 200.6 5.26 206.06 5.2 205.46 4.63 202.64 3.6 198.45 4.02 196.81 6.63 197.22 6.63"/><polygon class="cls-20" points="188.21 27.87 188.18 22.84 193.75 18.9 196.25 20.11 199.83 18.78 201.92 20.75 203.19 19.46 207.66 21.98 188.21 27.87"/><polygon class="cls-10" points="187.84 26.42 207.66 21.98 204.24 26.67 201.6 26.42 200.35 28.43 196.84 27.72 193.25 31.08 187.92 28.56 187.84 26.42"/><polygon class="cls-17" points="194.7 13.53 196.86 15.09 193.72 20.79 183 23.52 176.56 21.31 173.09 13.5 173.92 8.37 175.6 4.64 178.73 1.95 184.55 1.24 188.1 0.68 194.73 0.56 195.78 7.15 194.7 13.53"/><polygon class="cls-18" points="186.06 16.08 184.37 15.96 181.55 12.99 182.05 10.69 182.81 11.67 182.41 12.46 184.23 15.07 186.06 16.08"/><polygon class="cls-18" points="184.16 13.05 185.55 12.61 185.78 11.88 185.13 9.1 184.51 10.21 183.7 10.22 185.28 8.38 186.68 12.78 185.13 13.94 184.16 13.05"/><polygon class="cls-18" points="181.05 9.49 181.1 8.84 183.03 7.13 187.72 6.78 190.63 10.66 190.3 16.01 187.98 17.65 189.34 15.55 190 10.81 187.56 7.88 183.4 7.78 181.05 9.49"/><polygon class="cls-18" points="181.19 16.41 181.94 15.73 184.91 17.14 187.16 16.24 189.13 13.79 187.89 16.36 185.96 17.7 183.63 17.92 181.19 16.41"/><polygon class="cls-18" points="183.4 20.61 183.58 20.05 185.52 20.67 189.25 18.71 192.75 15.56 193.42 6.94 194.82 7.85 194.39 13.32 193.66 15.62 189.8 19.27 185.79 21.37 183.4 20.61"/><polygon class="cls-18" points="192.24 9.33 189.18 6.28 183.91 4.26 180.47 5.89 178.67 9.62 179.87 18.49 176.52 13.46 176.96 7.52 181.77 2.65 186.4 2.78 190.6 5.81 192.24 9.33"/><polygon class="cls-18" points="193.17 6.4 190.21 3.04 187.27 1.79 184 1.3 179.27 2.43 178.73 1.95 183.56 0 188.1 0.68 190.53 1.45 193.52 4.71 193.17 6.4"/><polygon class="cls-18" points="181.19 16.41 179.74 13.11 181.23 9.89 183.32 8.76 181.75 10.19 180.63 13.09 181.94 15.73 181.19 16.41"/><polygon class="cls-18" points="183 23.52 182.62 22.09 177.53 19.2 173.9 14.09 175.6 4.64 172.82 8.81 172.16 12.07 175.86 21.43 178.77 23.4 183 23.52"/><polygon class="cls-19" points="185.51 9.09 187.98 10.78 188.5 12.75 187.75 14.51 185.26 14.79 183.51 12.98 182.05 10.69 184.32 9.3 183.41 11.62 184.43 12.76 186.15 12 185.51 9.09"/><polygon class="cls-19" points="186.06 16.08 187.16 16.24 189.13 13.79 190 10.81 187.56 7.88 183.4 7.78 181.23 9.89 183.32 8.76 187.11 8.96 189.02 11.11 188.79 13.3 186.91 15.81 186.06 16.08"/><polygon class="cls-19" points="183.58 20.05 187.98 17.65 190.3 16.01 192.1 13.49 192.48 10.02 193.17 6.4 193.42 6.94 192.75 15.56 189.25 18.71 185.52 20.67 183.58 20.05"/><polygon class="cls-19" points="183 23.52 193.4 20.76 196.99 15.05 194.39 13.32 193.66 15.62 189.8 19.27 185.79 21.37 183 23.52"/><polygon class="cls-19" points="182.62 22.09 178.12 18.93 176.52 13.46 173.9 14.09 177.53 19.2 182.62 22.09"/><polygon class="cls-19" points="176.52 13.46 175.82 7.22 181.15 2.19 186.38 1.8 190.6 5.81 186.07 2.77 181.6 2.94 176.96 7.52 176.52 13.46"/><polygon class="cls-19" points="179.87 18.49 180.85 17.46 179.74 13.11 180.84 6.96 183.91 4.26 180.47 5.89 178.67 9.62 179.87 18.49"/><polygon class="cls-16" points="179.87 18.49 183.69 19.7 187.98 17.65 185.96 17.7 183.63 17.92 181.19 16.41 179.74 13.11 180.85 17.46 179.87 18.49"/><polygon class="cls-16" points="179.74 13.11 181.05 9.49 181.1 8.84 183.03 7.13 187.72 6.78 189.18 6.28 183.91 4.26 180.84 6.96 179.74 13.11"/><polygon class="cls-16" points="187.75 14.51 185.26 14.79 183.51 12.98 182.81 11.67 182.41 12.46 184.23 15.07 186.06 16.08 186.91 15.81 187.75 14.51"/><polygon class="cls-16" points="184.43 12.76 183.41 11.62 183.7 10.22 184.51 10.21 184.05 11.52 184.43 12.76"/><polygon class="cls-16" points="181.55 12.99 180.63 13.09 181.75 10.19 183.32 8.76 184.69 8.83 184.32 9.3 182.05 10.69 181.55 12.99"/><polygon class="cls-16" points="187.75 14.51 188.5 12.75 187.98 10.78 185.51 9.09 187.11 8.96 189.02 11.11 188.79 13.3 187.75 14.51"/><polygon class="cls-16" points="192.24 9.33 190.6 5.81 186.38 1.8 187.27 1.79 190.21 3.04 193.17 6.4 192.56 9.63 192.24 9.33"/><polygon class="cls-17" points="221.87 38.35 223.65 41.02 217.67 46.14 204.38 44.68 198.03 39.45 197.42 29.15 200.53 23.69 204.02 20.19 208.7 18.47 216.44 17.86 219.85 21 227.4 23.68 225.79 31.58 221.87 38.35"/><polygon class="cls-18" points="211 37.56 209.14 36.71 207.21 32.16 208.75 29.77 209.2 31.19 208.41 31.92 209.36 35.65 211 37.56"/><polygon class="cls-18" points="210.14 33.33 211.9 33.42 212.47 32.7 212.91 29.27 211.74 30.26 210.82 29.93 213.39 28.52 213.11 34.1 210.85 34.74 210.14 33.33"/><polygon class="cls-18" points="208.13 27.98 208.47 27.27 211.38 26.15 216.82 27.74 218.47 33.37 215.84 39.29 212.51 40.16 214.94 38.35 217.7 33.27 216.18 28.91 211.51 27.04 208.13 27.98"/><polygon class="cls-18" points="205.35 35.87 206.49 35.42 209.26 38.27 212.18 38.21 215.45 36.28 212.96 38.65 210.21 39.36 207.47 38.61 205.35 35.87"/><polygon class="cls-18" points="206.07 41.56 206.51 41.01 208.44 42.53 213.5 41.9 218.8 39.82 223.21 30.35 224.41 31.97 221.6 37.97 219.79 40.27 213.89 42.76 208.46 43.44 206.07 41.56"/><polygon class="cls-18" points="220.86 32.55 218.69 27.8 213.59 23.27 209 23.66 205.38 27.11 202.98 37.66 201.32 30.56 204.33 24.01 211.84 20.55 217.02 22.66 220.49 27.87 220.86 32.55"/><polygon class="cls-18" points="223.16 29.63 221.24 24.57 218.43 21.91 216.44 18.36 209.1 19.24 208.7 18.47 215.84 16.04 219.85 21 222.26 22.9 224.27 27.86 223.16 29.63"/><polygon class="cls-18" points="205.35 35.87 205.12 31.52 208.16 28.51 211.01 28.11 208.62 29.07 206.13 31.87 206.49 35.42 205.35 35.87"/><polygon class="cls-18" points="204.38 44.68 204.57 42.91 200.03 37.48 198.09 30.15 204.02 20.19 199.1 23.72 196.97 27.14 197.19 39.3 199.65 42.75 204.38 44.68"/><polygon class="cls-19" points="213.34 29.42 215.42 32.38 215.18 34.83 213.58 36.5 210.65 35.76 209.43 32.98 208.75 29.77 211.91 29.16 209.89 31.39 210.57 33.11 212.83 32.98 213.34 29.42"/><polygon class="cls-19" points="211 37.56 212.18 38.21 215.45 36.28 217.7 33.27 216.18 28.91 211.51 27.04 208.16 28.51 211.01 28.11 215.22 29.96 216.47 33.2 215.27 35.57 212.08 37.62 211 37.56"/><polygon class="cls-19" points="206.51 41.01 212.51 40.16 215.84 39.29 218.94 37.2 220.84 33.43 223.16 29.63 223.21 30.35 218.8 39.82 213.5 41.9 208.44 42.53 206.51 41.01"/><polygon class="cls-19" points="204.38 44.68 217.32 45.98 223.81 41.03 221.6 37.97 219.79 40.27 213.89 42.76 208.46 43.44 204.38 44.68"/><polygon class="cls-19" points="204.57 42.91 200.81 37.42 201.32 30.56 198.09 30.15 200.03 37.48 204.57 42.91"/><polygon class="cls-19" points="201.32 30.56 203.18 23.19 211.34 19.76 217.43 21.54 220.49 27.87 216.66 22.51 211.53 20.81 204.33 24.01 201.32 30.56"/><polygon class="cls-19" points="202.98 37.66 204.53 36.91 205.12 31.52 208.96 25.03 213.59 23.27 209 23.66 205.38 27.11 202.98 37.66"/><polygon class="cls-16" points="202.98 37.66 206.79 40.66 212.51 40.16 210.21 39.36 207.47 38.61 205.35 35.87 205.12 31.52 204.53 36.91 202.98 37.66"/><polygon class="cls-16" points="205.12 31.52 208.13 27.98 208.47 27.27 211.38 26.15 216.82 27.74 218.69 27.8 213.59 23.27 208.96 25.03 205.12 31.52"/><polygon class="cls-16" points="213.58 36.5 210.65 35.76 209.43 32.98 209.2 31.19 208.41 31.92 209.36 35.65 211 37.56 212.08 37.62 213.58 36.5"/><polygon class="cls-16" points="210.57 33.11 209.89 31.39 210.82 29.93 211.74 30.26 210.67 31.55 210.57 33.11"/><polygon class="cls-16" points="207.21 32.16 206.13 31.87 208.62 29.07 211.01 28.11 212.53 28.78 211.91 29.16 208.75 29.77 207.21 32.16"/><polygon class="cls-16" points="213.58 36.5 215.18 34.83 215.42 32.38 213.34 29.42 215.22 29.96 216.47 33.2 215.27 35.57 213.58 36.5"/><polygon class="cls-16" points="220.86 32.55 220.49 27.87 217.43 21.54 218.43 21.91 221.24 24.57 223.16 29.63 221.09 33.02 220.86 32.55"/><polygon class="cls-18" points="162.93 40.14 162.47 37.97 161.66 38.4 154.4 25.61 160.2 18.82 160.59 19.56 162 16.05 166.66 15.33 167.17 14.43 173.6 11.9 179.13 11.18 179.42 13.05 183.24 11.05 191.76 17.82 186.38 28.42 179.15 33.77 176.45 37.36 162.93 40.14"/><polygon class="cls-16" points="166.16 25.15 169.47 25.71 174.75 27.97 177.85 28.07 174.64 30.56 170.28 32.24 167.13 29.07 166.16 25.15"/><polygon class="cls-16" points="168.65 22.89 167.99 19.98 168.8 17.15 170.54 17.32 168.57 19.96 169.5 22.85 168.65 22.89"/><polygon class="cls-16" points="175.17 20.8 174.73 16.73 176.27 16.77 177.57 17.94 177.28 19.69 175.17 20.8"/><polygon class="cls-16" points="169.62 21.82 169.31 19.57 171.03 17.87 173.87 18.31 173.22 19.68 171.81 18.6 170.63 18.88 171.2 20.35 170.15 20.18 170.94 21.61 169.62 21.82"/><polygon class="cls-16" points="174.32 26.46 178.12 21.06 178.84 17.75 181.47 20.11 181.97 24.59 178.16 27.82 174.32 26.46"/><polygon class="cls-16" points="172.62 25.87 173.7 26.13 177.32 20.84 177.28 19.69 175.22 23.05 172.62 25.87"/><polygon class="cls-16" points="177.64 14.4 182.84 12.29 187.56 19.53 185.76 23 182.89 25.35 184.68 19.71 177.64 14.4"/><polygon class="cls-17" points="167.13 29.07 161.22 23 164.77 17.89 162.77 22.19 166.16 25.15 167.13 29.07"/><polygon class="cls-17" points="167.15 23.59 172.62 25.87 175.22 23.05 167.24 23.14 167.15 23.59"/><polygon class="cls-17" points="168.65 22.89 166.91 20.83 166.49 17.72 173.6 11.9 177.64 14.4 179.95 16.15 178.62 17.19 176.82 15.98 171.56 16.06 170.54 17.32 168.8 17.15 167.99 19.98 168.65 22.89"/><polygon class="cls-17" points="186.44 32.13 194.12 17.34 184.5 27.96 174.75 35.8 182.59 31.25 186.44 32.13"/><polygon class="cls-17" points="162.39 36.97 159.57 23.45 160.59 19.56 157.22 25.34 162.39 36.97"/><polygon class="cls-17" points="164.91 36.17 160.35 24.94 169.85 35.63 164.91 36.17"/><polygon class="cls-17" points="183.32 11.43 194.12 17.34 184.5 27.96 190.76 18.9 183.32 11.43"/><polygon class="cls-17" points="162 16.05 166.66 15.33 165.17 18.04 162 16.05"/><polygon class="cls-19" points="162.93 40.14 164.91 36.17 169.85 35.63 174.75 35.8 181.28 32.01 179.14 40 162.93 40.14"/><polygon class="cls-19" points="159.57 23.45 160.35 24.94 169.85 35.63 168.56 33.18 170.28 32.24 161.22 23 164.77 17.89 159.57 23.45"/><polygon class="cls-19" points="166.49 17.72 165.17 18.04 163.37 21.88 167.15 23.59 167.24 23.14 168.65 22.89 166.91 20.83 166.49 17.72"/><polygon class="cls-17" points="170.94 21.61 172.17 22.67 175.17 20.8 174.73 16.73 174.47 19.76 173.03 21.24 170.94 21.61"/><polygon class="cls-19" points="170.94 21.61 172.17 22.67 169.5 22.85 168.57 19.96 169.31 19.57 169.62 21.82 170.94 21.61"/><polygon class="cls-16" points="171.67 20.48 171.53 19.66 172.49 20.05 171.67 20.48"/><polygon class="cls-10" points="222.45 41.89 223.65 41.02 231.62 46.81 230.88 49.66 233.03 53.09 231.42 55.67 233.03 56.71 231.37 61.88 222.45 41.89"/><polygon class="cls-20" points="221.89 42.06 231.37 61.88 225.78 59.33 225.48 56.53 223.13 55.67 223.13 51.88 218.89 48.87 220.37 42.81 221.89 42.06"/><polygon class="cls-12" points="225.68 85.81 228.85 86.96 225.68 92.01 225.68 85.81"/><polygon class="cls-12" points="220.16 96.04 228.93 99.83 219.12 105.15 220.16 96.04"/><polygon class="cls-13" points="178.39 82.21 178.21 77.72 178.47 77.81 178.72 82.21 178.39 82.21"/><polygon class="cls-13" points="179.06 82.19 179.06 77.81 179.32 77.72 179.41 82.21 179.06 82.19"/><polygon class="cls-21" points="179.88 82.21 179.78 78.06 180.22 78.17 180.22 82.17 179.88 82.21"/><polygon class="cls-13" points="187.27 82.03 186.98 77.44 186.59 77.72 186.93 82.03 187.27 82.03"/><polygon class="cls-13" points="186.59 82.03 186.25 77.81 185.8 77.81 186.09 82.03 186.59 82.03"/><polygon class="cls-21" points="185.68 82.06 185.36 78.06 184.84 78.06 185.46 82.07 185.68 82.06"/><polygon class="cls-21" points="181.03 82.07 181.13 78.41 181.46 78.41 181.46 82.15 181.03 82.07"/><polygon class="cls-21" points="184.43 82.03 183.98 78.48 184.29 78.34 184.84 82.07 184.43 82.03"/><polygon class="cls-3" points="237.5 240.35 235.06 204.52 258.03 172.05 246.35 154.21 155.81 213.83 155.63 207.52 153.06 202.34 140.66 180.92 144.12 209.84 149.79 238.72 237.5 240.35"/><polygon class="cls-2" points="212.77 246.91 201.99 255.97 203.01 273.53 217.29 275.18 224.66 265.76 212.77 246.91"/><polygon class="cls-15" points="220.44 237.57 216.24 233.4 201.99 255.97 224.66 265.76 227.42 247.22 220.44 237.57"/><polygon class="cls-11" points="235.06 204.52 216.24 233.4 227.42 247.22 256.18 214.25 235.06 204.52"/><polygon class="cls-5" points="179.01 140.69 163.66 141.96 140.66 180.92 153.49 222.06 211.94 222.06 247.31 151.2 217.38 143.22 202.51 179.39 169.01 176.82 179.01 140.69"/><g class="cls-22"><rect class="cls-23" x="140.02" y="186.33" width="117.85" height="1.79" transform="translate(-73.94 174.37) rotate(-40.56)"/><rect class="cls-23" x="143.57" y="189.73" width="117.85" height="1.79" transform="translate(-75.3 177.49) rotate(-40.56)"/><rect class="cls-23" x="147.11" y="193.12" width="117.85" height="1.79" transform="translate(-76.65 180.61) rotate(-40.56)"/><rect class="cls-23" x="150.65" y="196.51" width="117.85" height="1.79" transform="translate(-78.01 183.73) rotate(-40.56)"/><rect class="cls-23" x="115.79" y="199.7" width="117.85" height="1.79" transform="translate(183.35 466.46) rotate(-140.81)"/><rect class="cls-23" x="112.32" y="203.17" width="117.85" height="1.79" transform="translate(175 470.44) rotate(-140.81)"/><rect class="cls-23" x="108.86" y="206.65" width="117.85" height="1.79" transform="translate(166.66 474.42) rotate(-140.81)"/><rect class="cls-23" x="105.4" y="210.12" width="117.85" height="1.79" transform="translate(158.32 478.4) rotate(-140.81)"/><rect class="cls-23" x="176.73" y="155.38" width="117.85" height="1.79" transform="translate(207.57 437.64) rotate(-117.85)"/><rect class="cls-23" x="172.19" y="157.23" width="117.85" height="1.79" transform="translate(199.26 436.33) rotate(-117.85)"/><rect class="cls-23" x="167.64" y="159.08" width="117.85" height="1.79" transform="translate(190.96 435.03) rotate(-117.85)"/><rect class="cls-23" x="163.1" y="160.93" width="117.85" height="1.79" transform="translate(182.66 433.73) rotate(-117.85)"/><rect class="cls-23" x="94.84" y="156.01" width="117.85" height="1.79" transform="translate(-65.11 137.98) rotate(-40.64)"/><rect class="cls-23" x="98.38" y="159.4" width="117.85" height="1.79" transform="translate(-66.46 141.11) rotate(-40.64)"/><rect class="cls-23" x="101.93" y="162.78" width="117.85" height="1.79" transform="translate(-67.81 144.24) rotate(-40.64)"/><rect class="cls-23" x="105.48" y="166.17" width="117.85" height="1.79" transform="translate(-69.16 147.37) rotate(-40.64)"/></g><polygon class="cls-5" points="226.72 94.89 227.2 106.29 223.5 106.29 223.5 95.37 226.72 94.89"/><path class="cls-9" d="M220.31,124.81l2,.67-2,3.85,2.37.76,1.41-2.82,1.09-.3.64,3.24s3.92-.53,3.87-.76-1.5-3.89-1.5-3.89l.74-.81,1.29,1.56,2.58-2.73-4.93-9.21-7.18-1L218,118l.62,3.57-2.29,4.22,2.13,2Zm1.21-2.64.09-4.92,4.57.25.87,2.37-1.38,2.57Z"/><path class="cls-10" d="M218.66,110.19l3.63,5.72,4.91-.64,4-4.59-.73-4.27-2.25-2.74L222,104l-2.26,2.34Zm3.31-1.08,1.41-2.54,2.73.88,1.29,2L223.9,112Z"/><polygon class="cls-24" points="145.82 213.74 163.59 266.53 168.75 265.25 172.69 262.18 147.67 213.74 145.82 213.74"/><polygon class="cls-25" points="172.83 282.25 171.36 288.32 180.21 293.88 180.34 288.04 176.59 285.12 174.94 282.07 172.83 282.25"/><polygon class="cls-26" points="178.7 273 176.59 285.12 167.51 278.19 173.07 274.73 178.7 273"/><polygon class="cls-27" points="163.59 266.53 167.51 278.19 178.7 273 172.69 262.18 163.59 266.53"/><polygon class="cls-2" points="167.34 252.11 173.35 261.41 159.62 275.94 149.4 267.06 167.34 252.11"/><polygon class="cls-15" points="142.8 241.34 149.79 238.72 167.34 252.11 149.4 267.06 139.29 247.03 142.8 241.34"/><polygon class="cls-11" points="144.12 209.84 149.79 238.72 139.29 247.03 122.16 215.84 144.12 209.84"/></svg>