<svg id="Layer_1" data-name="Layer 1" xmlns="http://www.w3.org/2000/svg" viewBox="0 0 400 400"><defs><style>.cls-1,.cls-22,.cls-9{fill:#2b2b2b;}.cls-1{fill-opacity:0.15;}.cls-2{fill:#ebebea;}.cls-3{fill:#474747;}.cls-4{fill:#4f5253;}.cls-5{fill:#9d7700;}.cls-6{fill:#755800;}.cls-7{fill:#dcdcdb;}.cls-8{fill:#e4c728;}.cls-10{fill:#b48a00;}.cls-11{fill:#846400;}.cls-12{fill:#cdcdcc;}.cls-13{fill:#cbac14;}.cls-14{fill:#eed2c1;}.cls-15{fill:#c3c3c3;}.cls-16{fill:#a8836c;}.cls-17{fill:#cfae95;}.cls-18{fill:#f6e5db;}.cls-19{fill:#fff;}.cls-20{fill:#8c7c2f;}.cls-21{fill:#ab913c;}.cls-22{fill-opacity:0.1;}</style></defs><title>explorers_ISFP_famous_real_michael_jackson</title><g id="Layer_1-2" data-name="Layer_1"><polygon class="cls-1" points="120.33 380.98 202.95 398.68 278.03 375.73 195.41 360.98 120.33 380.98"/><polygon class="cls-2" points="169.18 334.09 181.31 330.16 186.89 335.4 180.99 360.32 165.9 362.29 165.9 346.55 169.18 334.09"/><polygon class="cls-3" points="186.89 335.4 178.36 356.39 165.9 362.29 165.9 369.17 161.64 373.76 165.25 375.73 180.99 375.73 193.77 348.85 194.43 342.62 186.89 335.4"/><polygon class="cls-4" points="161.64 373.76 161.64 378.35 180 378.35 198.03 346.22 194.43 342.62 176.39 373.76 161.64 373.76"/><polygon class="cls-5" points="244.92 246.56 266.56 221.31 269.83 251.8 244.92 246.56"/><polygon class="cls-5" points="146.23 256.06 187.87 248.85 146.89 310.81 118.69 307.21 135.09 280.32 138.03 269.83 146.23 256.06"/><polygon class="cls-6" points="118.69 307.21 165.9 346.55 180.33 331.8 179.34 327.21 156.4 306.23 147.54 304.59 118.69 307.21"/><polygon class="cls-7" points="106.89 131.15 96.4 139.67 89.19 150.82 96.73 158.03 110.5 133.44 106.89 131.15"/><polygon class="cls-8" points="112.46 183.61 140.99 171.48 146.89 177.05 148.2 198.03 143.28 203.94 121.97 208.19 109.84 210.82 112.46 183.61"/><polygon class="cls-3" points="245.9 72.14 220.33 55.74 211.15 63.94 211.15 83.28 225.57 79.35 245.9 72.14"/><polygon class="cls-3" points="236.06 101.97 245.9 72.14 224.92 83.28 204.26 106.23 222.62 106.56 236.06 101.97"/><polygon class="cls-9" points="212.46 80 208.52 89.19 210.16 103.94 245.9 72.14 212.46 80"/><polygon class="cls-9" points="236.06 101.97 210.16 103.94 203.61 119.67 206.56 143.61 221.64 134.76 232.46 114.1 236.06 101.97"/><polygon class="cls-3" points="240.98 133.77 243.28 128.2 243.28 113.12 236.06 101.97 206.56 143.61 216.72 144.26 240.98 133.77"/><polygon class="cls-9" points="252.46 110.5 236.06 101.97 243.28 128.2 252.46 110.5"/><polygon class="cls-7" points="327.86 100.66 308.19 104.92 306.88 120 329.83 105.25 327.86 100.66"/><polygon class="cls-2" points="210.82 342.94 221.64 334.09 227.21 339.67 220.66 366.22 204.92 368.19 204.92 351.8 210.82 342.94"/><polygon class="cls-10" points="197.05 245.57 218.03 242.29 231.8 262.62 197.05 299.67 173.12 309.5 147.54 304.59 180 253.77 197.05 245.57"/><polygon class="cls-11" points="197.05 299.67 221.64 334.09 204.92 351.8 147.54 304.59 197.05 299.67"/><polygon class="cls-3" points="227.21 339.67 218.03 361.96 204.92 368.19 204.92 375.4 200.66 380.65 204.26 382.29 220.98 382.62 234.1 354.09 235.41 347.86 227.21 339.67"/><polygon class="cls-7" points="159.67 163.28 178.36 165.57 206.56 143.61 209.51 148.2 198.69 236.06 189.84 247.87 174.43 252.78 160.33 249.51 157.05 240.98 156.4 167.54 159.67 163.28"/><polygon class="cls-6" points="177.38 250.49 148.85 258.36 171.15 267.21 208.85 249.18 177.38 250.49"/><polygon class="cls-12" points="148.85 258.36 208.85 249.18 207.54 240.65 189.84 238.36 160.33 239.67 149.18 251.15 148.85 258.36"/><polygon class="cls-13" points="140.99 171.48 143.28 203.94 152.46 215.41 160 200.66 159.67 163.28 140.99 171.48"/><polygon class="cls-8" points="143.28 203.94 160 200.66 160.33 240 152.79 247.54 146.23 244.59 143.28 203.94"/><polygon class="cls-13" points="233.44 167.21 225.57 180.66 206.88 192.13 198.36 189.51 206.56 143.61 232.78 132.46 240.65 147.87 233.44 167.21"/><polygon class="cls-8" points="233.44 167.21 198.36 189.51 189.84 238.36 205.25 240.33 234.43 225.9 233.44 167.21"/><polygon class="cls-14" points="294.75 127.87 290.81 116.07 278.36 113.12 264.26 119.02 261.96 131.48 271.8 142.63 294.75 127.87"/><polygon class="cls-8" points="232.78 132.46 233.44 167.21 251.47 155.41 252.78 139.02 243.28 128.2 232.78 132.46"/><polygon class="cls-5" points="271.8 142.63 264.26 119.02 243.28 128.2 251.47 155.41 271.8 142.63"/><polygon class="cls-15" points="278.36 113.12 294.75 127.87 306.88 120 302.29 107.87 288.19 108.86 278.36 113.12"/><polygon class="cls-12" points="292.46 85.58 288.19 108.86 306.88 120 314.42 99.02 308.52 82.95 292.46 85.58"/><polygon class="cls-7" points="323.27 75.74 314.42 99.02 292.46 85.58 309.18 71.81 323.27 75.74"/><polygon class="cls-14" points="82.63 169.84 88.86 164.92 101.97 166.23 112.46 183.61 105.25 191.48 90.17 193.44 82.63 169.84"/><polygon class="cls-5" points="127.22 207.21 112.46 183.61 90.17 193.44 96.4 213.44 127.22 207.21"/><polygon class="cls-15" points="101.97 166.23 96.73 158.03 83.61 150.17 79.02 158.36 82.63 169.84 101.97 166.23"/><polygon class="cls-12" points="79.02 158.36 96.73 158.03 96.4 139.67 86.89 129.84 70.17 130.82 79.02 158.36"/><polygon class="cls-16" points="181.97 175.74 148.2 156.72 150.82 152.46 188.53 147.87 193.77 151.81 181.97 175.74"/><polygon class="cls-17" points="206.56 143.61 181.97 175.74 188.85 151.15 176.39 153.12 181.64 138.69 175.41 83.28 181.97 80.33 203.28 98.69 209.51 111.15 206.56 143.61"/><polygon class="cls-14" points="115.41 116.4 118.69 141.97 132.79 158.36 176.39 153.12 184.59 133.44 181.31 104.27 174.1 104.92 121.97 109.18 115.41 116.4"/><polygon class="cls-17" points="115.41 116.4 136.4 117.71 138.69 110.82 115.41 116.4"/><polygon class="cls-17" points="147.54 110.17 151.48 119.35 174.75 110.17 147.54 110.17"/><polygon class="cls-9" points="181.31 104.27 174.75 110.17 150.17 112.79 141.97 109.18 136.72 114.1 115.41 116.4 128.2 107.54 173.44 86.23 179.34 87.55 181.31 104.27"/><polygon class="cls-16" points="136.4 120.99 143.61 118.36 151.48 119.35 144.92 125.91 136.4 120.99"/><polygon class="cls-18" points="141.97 104.59 136.72 114.1 136.4 120.99 151.48 119.35 149.84 112.79 141.97 104.59"/><polygon class="cls-16" points="135.41 135.41 170.16 122.3 150.82 140.99 135.41 135.41"/><polygon class="cls-19" points="143.28 135.41 161.31 127.54 150.49 137.05 143.28 135.41"/><polygon class="cls-9" points="198.03 99.35 179.34 87.55 183.28 62.3 198.36 50.17 201.64 56.73 202.29 87.87 198.03 99.35"/><polygon class="cls-3" points="224.26 42.96 212.13 54.76 196.07 58.37 201.97 33.12 224.26 42.96"/><polygon class="cls-3" points="212.46 76.73 216.72 63.94 214.43 56.07 196.07 55.09 212.46 76.73"/><polygon class="cls-9" points="224.26 42.96 196.07 58.37 197.38 83.28 204.92 85.25 212.79 80 224.26 42.96"/><polygon class="cls-16" points="198.03 104.92 209.51 111.15 210.16 103.94 205.57 101.31 198.03 104.92"/><polygon class="cls-14" points="197.38 83.28 198.03 104.92 210.16 103.94 212.46 80 197.38 83.28"/><polygon class="cls-16" points="202.29 87.87 202.62 97.71 207.87 86.23 202.29 87.87"/><polygon class="cls-13" points="109.84 65.58 97.05 84.59 102.3 122.3 109.84 112.46 124.92 87.55 121.31 74.43 109.84 65.58"/><polygon class="cls-20" points="122.3 84.27 102.3 122.3 179.34 87.55 177.71 77.71 167.54 60.99 162.62 51.48 126.23 75.74 122.3 84.27"/><polygon class="cls-21" points="99.02 48.86 122.3 84.27 161.97 60.01 162.62 51.48 145.58 28.53 140.66 22.3 123.28 29.19 109.51 38.7 99.02 48.86"/><polygon class="cls-21" points="181.31 21.97 164.92 47.55 161.97 60.01 179.34 87.55 220.98 15.09 194.75 15.74 181.31 21.97"/><polygon class="cls-13" points="173.77 11.81 175.74 25.58 183.94 25.58 220.98 15.09 191.8 2.3 173.77 11.81"/><polygon class="cls-20" points="138.03 26.57 153.44 12.14 168.85 5.25 183.94 25.58 161.97 60.01 138.03 26.57"/><polygon class="cls-13" points="113.77 23.29 99.02 48.86 138.03 26.57 152.46 9.19 152.46 1.32 113.77 23.29"/><polygon class="cls-21" points="168.85 5.25 152.46 1.32 138.03 26.57 168.85 5.25"/><polygon class="cls-7" points="70.17 130.82 96.4 139.67 102.3 122.3 92.79 118.36 70.17 130.82"/><polygon class="cls-10" points="128.2 250.16 135.09 280.32 160.33 239.67 128.2 250.16"/><polygon class="cls-10" points="247.21 271.47 189.84 238.36 234.43 216.39 266.56 221.31 247.21 271.47"/><path class="cls-22" d="M141,171.48l41,4.26-22.3-12.46ZM204.92,351.8l22.29-12.13-5.57-5.58Zm-39-5.25,20.66-9.83-6.23-4.92ZM116.4,75.41h0L155.08,50.5l23.61-32.13,5.25,7.21L162,60,122.3,84.27l-5.9-8.86Zm92.45,173.77h0l23,13.44-13.44,14.1Z"/><polygon class="cls-4" points="200.66 380.65 200.66 385.89 220.33 385.89 239.67 352.13 235.41 347.86 216.39 380.65 200.66 380.65"/></g></svg>