<svg id="Layer_1" data-name="Layer 1" xmlns="http://www.w3.org/2000/svg" viewBox="0 0 400 400"><defs><style>.cls-1,.cls-4,.cls-5{fill:#2b2b2b;}.cls-1{fill-opacity:0.1;}.cls-2{fill:#fce3d4;}.cls-3{fill:#f4c9b2;}.cls-5{opacity:0.1;}.cls-6{fill:#848585;}.cls-7{fill:#737373;}.cls-8{fill:#4f5253;}.cls-9{fill:#a2a2a2;}.cls-10{fill:#f3d65d;}.cls-11{fill:#9d7700;}.cls-12{fill:#9ca0a1;}.cls-13{fill:#cbac14;}.cls-14{fill:#c1907d;}.cls-15{fill:#b48a00;}.cls-16{fill:#be8e00;}.cls-17{fill:#e4c728;}.cls-18{fill:#c3c3c3;}.cls-19{fill:#dcdcdb;}.cls-20{fill:#ebebea;}.cls-21{fill:#8e8e8e;}.cls-22{fill:#6f7173;}.cls-23{fill:#ffefe7;}.cls-24{fill:#cfaa91;}</style></defs><title>explorers_ISFP_famous_fictional_jesse_pinkman_breaking_bad</title><g id="Layer_1-2" data-name="Layer_1"><polygon class="cls-1" points="112.89 375.63 237.59 358.55 340.67 374.03 232.8 399.58 112.89 375.63"/><polygon class="cls-2" points="158.47 49.31 155.28 109.15 165.6 144.04 239.93 145.64 260.69 51.65 218.43 39.24 158.47 49.31"/><polygon class="cls-3" points="237.59 55.58 228.87 125.12 235.14 128.56 243.86 115.78 250.37 69.46 237.59 55.58"/><polygon class="cls-3" points="161.67 84.21 173.59 88.88 182.43 105.95 187.22 108.29 192.75 105.95 206.39 90.47 221.62 88.14 215.23 82.73 197.54 85.8 191.15 88.88 187.96 93.54 186.36 88.88 182.43 84.21 168.79 80.4 161.67 84.21"/><path class="cls-4" d="M204.67,88.75a2.94,2.94,0,0,1,3.07,3,3.07,3.07,0,0,1-6.14,0A2.94,2.94,0,0,1,204.67,88.75Z"/><polygon class="cls-2" points="162.4 133.1 165.6 144.04 192.01 144.78 207.99 155.71 228.01 146.86 232.44 129.54 228.87 125.12 216.83 133.96 207.25 116.03 186.36 109.88 168.79 116.03 162.4 133.1"/><polygon class="cls-3" points="239.93 116.52 228.87 125.12 226.41 145.64 233.54 145.64 239.44 134.46 239.93 116.52"/><polygon class="cls-5" points="162.4 133.1 165.6 144.04 192.01 144.78 207.99 155.71 228.01 146.86 226.41 145.64 228.87 125.12 216.83 133.96 207.25 116.03 186.36 109.88 168.79 116.03 162.4 133.1"/><polygon class="cls-5" points="239.93 116.52 228.87 125.12 226.41 145.64 233.54 145.64 239.44 134.46 239.93 116.52"/><polygon class="cls-6" points="237.59 55.58 157.61 52.39 164 28.31 186.36 22.9 227.15 21.43 237.59 55.58"/><polygon class="cls-7" points="153.68 32.24 171.99 36.17 186.36 22.9 187.22 16.76 172.85 8.16 154.42 18.23 153.68 32.24"/><polygon class="cls-8" points="145.7 34.57 157.61 52.39 171.99 36.17 162.4 26.09 154.42 18.23 145.7 34.57"/><polygon class="cls-8" points="184.76 8.16 183.17 26.09 228.01 26.83 227.15 9.76 209.58 5.09 184.76 8.16"/><polygon class="cls-9" points="208.85 0.42 184.76 8.16 227.15 9.76 228.75 6.68 208.85 0.42"/><polygon class="cls-7" points="208.85 26.09 219.16 8.89 228.01 18.23 227.15 29.9 225.55 36.91 215.97 43.17 208.85 26.09"/><polygon class="cls-10" points="283.18 58.65 257.5 26.83 246.32 46.98 252.71 60.99 276.79 81.14 283.18 58.65"/><polygon class="cls-8" points="237.59 55.58 215.97 43.17 227.15 29.9 237.59 29.9 242.39 36.91 245.58 42.31 237.59 55.58"/><polygon class="cls-6" points="258.36 39.24 247.18 47.72 245.58 53.98 237.59 55.58 242.39 36.91 249.51 28.31 257.5 26.83 258.36 39.24"/><polygon class="cls-11" points="235.14 2.02 219.16 8.89 227.15 29.9 242.39 36.91 257.5 26.83 256.76 12.09 235.14 2.02"/><polygon class="cls-10" points="236.73 8.16 249.51 14.42 251.11 24.5 241.53 30.64 231.21 26.83 228.01 12.83 236.73 8.16"/><polygon class="cls-12" points="247.18 47.72 276.79 81.14 279.98 88.88 272.73 93.54 254.3 79.54 250.37 69.46 237.59 55.58 247.18 47.72"/><polygon class="cls-10" points="215.23 166.52 227.64 164.56 256.76 146.37 272.73 93.54 255.16 74.99 233.54 145.64 218.67 152.27 215.23 166.52"/><polygon class="cls-8" points="299.88 87.4 276.79 81.14 272.73 93.54 296.69 98.21 299.88 87.4"/><polygon class="cls-13" points="233.54 145.64 250.37 69.46 255.16 74.99 239.93 145.64 235.14 147.11 233.54 145.64"/><polygon class="cls-11" points="178.62 153.5 124.07 165.05 125.67 192.94 153.31 195.89 177.64 201.41 182.06 197.85 184.52 157.68 178.62 153.5"/><polygon class="cls-14" points="192.01 144.78 194.35 150.18 192.01 164.19 202.46 178.44 229.73 152.39 233.54 145.64 192.01 144.78"/><polygon class="cls-15" points="178.62 153.5 194.35 150.18 203.19 172.79 223.22 297 195.94 290.73 177.64 258.91 177.64 204.61 178.62 153.5"/><polygon class="cls-11" points="210.44 219.35 208.6 254.37 177.64 251.91 177.64 225.49 210.44 219.35"/><polygon class="cls-16" points="176.04 312.48 177.64 258.91 216.83 290.73 223.22 297 210.44 326.48 203.81 328.82 179.85 320.34 176.04 312.48"/><polygon class="cls-15" points="175.43 346.88 176.04 312.48 210.44 326.48 199.39 350.56 186.98 353.76 175.43 346.88"/><polygon class="cls-13" points="239.19 154.85 269.54 165.78 275.93 206.94 272.73 258.91 254.3 293.8 223.22 297 208.6 254.37 200.98 208.91 203.19 172.79 212.41 165.91 220.76 163.82 239.19 154.85"/><polygon class="cls-16" points="233.54 328.82 223.22 297 272.73 258.91 270.27 314.07 264.75 322.67 240.54 331.77 233.54 328.82"/><polygon class="cls-15" points="243.49 359.41 233.54 328.82 270.27 314.07 267.69 358.43 254.79 366.04 243.49 359.41"/><polygon class="cls-16" points="208.6 254.37 203.19 238.76 203.19 220.09 275.93 206.94 240.79 257.31 208.6 254.37"/><polygon class="cls-17" points="246.32 167.26 239.19 154.85 256.76 146.37 278.38 165.05 262.53 177.82 246.32 167.26"/><polygon class="cls-10" points="210.44 208.42 246.32 167.26 278.38 165.05 275.93 206.94 232.8 243.43 212.04 230.16 210.44 208.42"/><polygon class="cls-17" points="156.88 210.75 210.44 208.42 232.8 243.43 153.68 232.5 151.22 220.09 156.88 210.75"/><polygon class="cls-9" points="78.49 217.02 113.63 215.17 135.75 217.51 138.69 205.35 153.31 195.89 124.07 181.26 78.49 217.02"/><polygon class="cls-18" points="59.33 171.93 78.49 217.02 120.88 199.94 132.06 168.12 119.28 144.04 92.13 151.04 59.33 171.93"/><polygon class="cls-19" points="153.31 195.89 120.88 199.94 102.33 154.85 123.21 144.78 148.89 147.97 153.31 195.89"/><polygon class="cls-19" points="82.55 143.3 59.33 171.93 104.05 154.11 112.89 133.1 98.52 134.7 82.55 143.3"/><polygon class="cls-3" points="76.9 123.89 82.55 143.3 98.52 142.44 98.52 124.63 86.11 115.29 76.9 123.89"/><polygon class="cls-2" points="112.89 133.1 97.29 142.56 86.11 115.29 92.13 108.29 101.71 112.96 108.1 112.22 112.89 133.1"/><polygon class="cls-20" points="148.89 147.97 112.89 133.1 97.29 142.56 102.33 154.85 148.89 147.97"/><polygon class="cls-20" points="78.49 103.62 83.28 108.29 86.11 115.29 101.71 112.96 97.66 102.88 98.52 95.14 88.08 98.95 78.49 103.62"/><polygon class="cls-18" points="75.3 101.28 78.49 105.95 81.69 104.48 96.06 98.21 100.12 96.61 95.33 89.73 81.69 93.54 75.3 101.28"/><polygon class="cls-12" points="75.3 106.81 75.3 101.28 78.49 102.88 81.69 104.48 83.28 108.29 75.3 106.81"/><polygon class="cls-19" points="97.66 102.88 104.05 94.4 95.33 89.73 96.06 98.21 97.66 102.88"/><polygon class="cls-19" points="66.58 60.99 61.78 70.32 68.17 76.47 76.16 74.99 78.49 63.32 66.58 60.99"/><polygon class="cls-19" points="86.48 68.73 84.14 74.13 88.08 78.06 94.46 72.66 91.27 68.73 86.48 68.73"/><polygon class="cls-21" points="148.89 367.03 160.07 358.55 167.07 357.69 175.18 346.88 199.39 350.56 199.39 366.17 176.17 371.69 148.89 367.03"/><polygon class="cls-22" points="148.89 375.63 148.89 367.03 199.39 366.17 199.39 374.77 148.89 375.63"/><polygon class="cls-10" points="169.65 363.1 160.07 358.55 175.18 346.88 169.65 363.1"/><polygon class="cls-21" points="243.49 359.41 236 381.77 253.69 383.86 272 381.03 267.69 358.43 258.36 358.79 255.04 363.59 252.58 359.04 243.49 359.41"/><polygon class="cls-10" points="247.91 373.29 261.55 373.29 258.36 358.79 252.58 359.04 247.91 373.29"/><polygon class="cls-22" points="236 390.37 236 381.77 272 381.03 272.73 389.51 236 390.37"/><polygon class="cls-23" points="186.36 88.88 182.43 105.95 192.75 105.95 191.15 88.88 186.36 88.88"/><polygon class="cls-14" points="186.36 109.88 182.43 105.95 192.75 105.95 186.36 109.88"/><polygon class="cls-14" points="172.85 119.22 204.79 120.7 204.79 123.03 172.85 120.7 172.85 119.22"/><polygon class="cls-24" points="197.54 81.14 197.54 85.8 215.97 85.8 221.62 88.14 217.57 81.14 197.54 81.14"/><polygon class="cls-24" points="183.17 81.14 182.43 84.21 166.46 82.73 161.67 84.21 165.6 78.8 183.17 81.14"/><polygon class="cls-3" points="190.42 77.33 187.22 81.14 188.82 85.07 184.76 81.14 190.42 77.33"/><polygon class="cls-3" points="193.61 78.06 191.15 81.14 192.01 85.07 194.35 81.14 193.61 78.06"/><path class="cls-4" d="M173.71,86.42a2.89,2.89,0,1,1,0,5.77,2.89,2.89,0,1,1,0-5.77Z"/><polygon class="cls-3" points="130.46 222.42 153.68 232.5 156.88 210.75 132.67 209.15 124.07 214.68 130.46 222.42"/><polygon class="cls-2" points="113.63 215.17 130.46 222.42 132.55 209.28 114.37 209.65 113.63 215.17"/><polygon class="cls-2" points="138.69 205.35 132.55 209.28 155.28 223.16 156.88 210.75 138.69 205.35"/><polygon class="cls-15" points="239.93 145.64 220.76 163.82 203.19 172.79 233.54 145.64 239.93 145.64"/></g></svg>