<svg id="Layer_1" data-name="Layer 1" xmlns="http://www.w3.org/2000/svg" viewBox="0 0 400 400"><defs><style>.cls-1{fill:#e4c728;}.cls-2{fill:#9ca0a1;}.cls-3{fill:#8e8e8e;}.cls-4{fill:#ebebea;}.cls-5{fill:#c3c3c3;}.cls-6{fill:#dcdcdb;}.cls-7{fill:#f3d65d;}.cls-8{fill:#cdcdcc;}.cls-9{fill:#fce3d4;}.cls-10,.cls-17,.cls-18{fill:#2b2b2b;}.cls-10{opacity:0.1;}.cls-11{fill:#f4c9b2;}.cls-12{fill:#66483a;}.cls-13{fill:#412b23;}.cls-14{fill:#51362a;}.cls-15{fill:#c1907d;}.cls-16{fill:#ffefe7;}.cls-18{fill-opacity:0.1;}.cls-19{fill:#474747;}.cls-20{fill:#4f5253;}.cls-21{fill:#b48a00;}.cls-22{fill:#755800;}.cls-23{fill:#a2a2a2;}.cls-24{fill:#9d7700;}.cls-25{fill:#846400;}</style></defs><title>explorers_ISFP_famous_fictional_hugo_reyes_lost</title><g id="Layer_1-2" data-name="Layer_1"><polygon class="cls-1" points="88.91 156.56 92.81 148.76 103.56 142.76 106.8 160.75 97.56 177.69 88.91 156.56"/><polygon class="cls-2" points="45.52 345.82 82.15 332.41 213.84 275.89 267.7 304.81 346.59 358.77 291.4 360 141.62 357.43 45.04 353.91 45.52 345.82"/><polygon class="cls-3" points="45.04 353.91 23.06 350.87 47.99 329.84 82.15 332.41 45.04 353.91"/><polygon class="cls-3" points="346.59 358.77 248.39 323.27 219.36 301.67 255.81 307.57 320.99 341.16 346.59 358.77"/><polygon class="cls-4" points="70.35 270.65 21.73 302.24 30.96 311.38 15.16 327.18 51.98 325.84 78.25 296.92 82.15 277.22 70.35 270.65"/><polygon class="cls-5" points="80.82 286.45 82.15 277.22 76.92 274.65 69.02 279.88 75.58 289.11 80.82 286.45"/><polygon class="cls-6" points="15.16 327.18 11.16 341.64 23.06 350.87 82.15 332.41 88.72 310.05 78.25 296.92 42.76 310.05 15.16 327.18"/><polygon class="cls-5" points="21.73 302.24 16.49 321.94 15.16 327.18 42.76 310.05 42.76 299.58 21.73 302.24"/><polygon class="cls-5" points="367.52 286.55 388.84 309 376.94 330.98 351.63 353.15 335.55 346.3 367.52 286.55"/><polygon class="cls-4" points="244.58 242.01 273.41 252.48 325.75 251.15 342.31 278.07 367.52 286.55 373.42 313 361.62 326.89 275.79 314.33 228.12 267.13 230.5 246.2 244.58 242.01"/><polygon class="cls-6" points="361.62 326.89 351.63 353.15 219.36 301.67 219.08 280.26 228.02 275.13 228.12 267.13 255.43 278.65 361.62 326.89"/><polygon class="cls-1" points="332.5 288.35 324.61 294.92 325.18 299.11 332.03 305.67 342.21 308.72 351.92 306.53 351.92 306.53 354.58 298.92 351.82 291.78 343.26 287.59 332.5 288.35"/><polygon class="cls-4" points="333.27 291.21 341.54 289.97 347.73 292.44 352.01 298.53 351.54 301.1 346.78 305.57 336.21 305 332.79 301.77 330.03 294.63 333.27 291.21"/><polygon class="cls-7" points="335.93 291.59 341.26 291.21 346.21 293.49 349.44 298.06 348.68 301.87 345.73 304.05 340.31 304.43 335.36 302.24 333.93 295.3 335.93 291.59"/><polygon class="cls-4" points="336.69 294.44 342.4 292.73 345.73 296.06 347.63 300.44 345.92 302.72 340.78 301.87 337.36 298.53 336.69 294.44"/><polygon class="cls-1" points="340.4 296.44 343.16 295.58 345.54 297.39 343.83 299.68 342.31 300.72 339.93 299.01 338.88 297.49 340.4 296.44"/><polygon class="cls-1" points="341.35 283.21 342.88 282.17 343.92 283.69 343.54 286.26 342.21 286.07 340.88 285.88 339.83 284.36 341.35 283.21"/><polygon class="cls-1" points="347.82 284.45 350.39 284.83 351.73 285.12 349.92 287.5 348.68 287.21 347.35 287.02 347.63 285.69 347.82 284.45"/><polygon class="cls-1" points="353.82 288.16 355.15 288.35 356.2 289.88 356.01 291.21 354.48 292.25 353.34 290.73 352.3 289.21 353.82 288.16"/><polygon class="cls-1" points="320.89 301.01 322.13 301.2 323.46 301.39 322.99 304.05 321.75 303.77 320.42 303.58 320.61 302.24 320.89 301.01"/><polygon class="cls-1" points="326.7 305.96 327.94 306.24 328.98 307.76 328.79 309 327.46 308.81 326.22 308.62 325.18 307.1 326.7 305.96"/><polygon class="cls-1" points="333.93 309.95 335.45 308.9 336.6 310.43 336.31 311.76 334.79 312.81 333.74 311.28 333.74 311.28 333.93 309.95"/><polygon class="cls-1" points="341.73 311.38 344.49 310.52 345.64 312.05 344.11 313.09 343.83 314.42 341.45 312.62 341.45 312.62 341.73 311.38"/><polygon class="cls-6" points="246.01 248.96 254.57 253.15 250.67 260.47 242.01 256.28 246.01 248.96"/><polygon class="cls-6" points="260.85 255.62 269.7 258.47 265.51 267.13 255.62 262.66 260.85 255.62"/><polygon class="cls-5" points="278.26 262.66 284.74 263.9 288.64 264.56 281.88 272.65 273.22 268.46 278.26 262.66"/><polygon class="cls-5" points="293.39 268.08 302.15 270.94 296.73 279.31 288.07 275.13 293.39 268.08"/><polygon class="cls-5" points="308.43 273.41 316.99 277.6 311.48 285.97 302.91 281.79 308.43 273.41"/><polygon class="cls-6" points="354.39 194.81 273.41 252.48 326.13 271.23 374.56 231.73 386.84 215.27 361.14 209.37 354.39 194.81"/><polygon class="cls-8" points="326.13 271.23 342.31 278.07 374.56 231.73 360.29 229.26 326.13 271.23"/><polygon class="cls-5" points="45.04 353.91 136.39 363.05 151.9 369.05 171.31 364.57 213.18 366.47 225.74 371.61 237.92 365.14 346.59 358.77 246.39 339.36 209.94 328.51 182.16 339.74 171.79 339.36 107.75 339.36 45.04 353.91"/><polygon class="cls-9" points="130.5 31.69 121.86 42.59 122.59 106.89 212.04 103.08 218.22 98.14 213.08 23.72 160.27 24.2 130.5 31.69"/><polygon class="cls-9" points="122.4 92.33 122.69 118.31 137.44 124.11 199.29 120.78 218.79 102.06 217.94 94.14 209.09 88.62 208.52 88.62 208.9 88.91 204.71 95.95 195.86 101.56 188.72 89.48 144.1 91.38 135.15 104.13 122.4 92.33"/><polygon class="cls-10" points="122.4 92.33 122.69 118.31 137.44 124.11 199.29 120.78 217.21 99.52 217.94 94.14 209.09 88.62 208.52 88.62 208.9 88.91 204.71 95.95 195.86 101.56 188.72 89.48 144.1 91.38 135.15 104.13 122.4 92.33"/><polygon class="cls-11" points="155.32 62.74 146.47 57.88 135.06 55.13 126.21 59.5 140.48 67.69 152.85 84.24 159.51 86.91 166.17 83.86 184.35 66.35 198.53 60.74 187.87 54.84 175.31 56.46 164.27 62.64 159.8 66.07 155.32 62.74"/><polygon class="cls-12" points="157.04 33.05 131.58 31.75 121.73 31.24 129.73 16.87 150.19 9.54 159.23 14.49 157.04 33.05"/><polygon class="cls-13" points="192.91 1.74 182.35 20.68 157.04 33.05 150.19 9.54 192.91 1.74"/><polygon class="cls-12" points="206.86 27.28 208.04 15.92 192.91 1.74 157.04 33.05 206.86 27.28"/><polygon class="cls-12" points="212.17 61.69 206.2 27.35 218.03 28.29 225.64 39.81 218.6 51.7 212.17 61.69"/><polygon class="cls-14" points="237.63 24.01 230.21 39.33 221.08 40.38 206.2 27.35 198.43 14.68 218.7 16.3 237.63 24.01"/><polygon class="cls-13" points="244.39 19.44 241.06 30.86 232.88 27.25 216.03 21.15 198.43 14.68 192.91 1.74 244.39 19.44"/><polygon class="cls-14" points="204.71 95.95 212.17 61.69 221.08 40.38 225.93 55.7 225.17 70.92 220.98 80.72 204.71 95.95"/><polygon class="cls-12" points="237.06 73.58 230.78 77.39 221.74 70.83 221.08 40.38 232.88 27.25 242.39 57.98 237.06 73.58"/><polygon class="cls-14" points="245.15 68.35 242.87 74.25 234.3 71.11 238.21 57.98 232.88 27.25 244.39 19.44 247.81 58.55 245.15 68.35"/><polygon class="cls-12" points="219.84 100.23 210.56 100.69 204.71 95.95 221.74 70.83 237.06 85.77 241.44 102.7 229.07 107.08 219.84 100.23"/><polygon class="cls-14" points="258 99.75 245.34 104.7 237.54 100.61 228.69 83.86 221.74 70.83 234.3 71.11 247.44 82.53 258 99.75"/><polygon class="cls-12" points="263.52 102.42 255.62 103.18 252.38 97.09 234.3 71.11 245.15 68.35 263.52 102.42"/><polygon class="cls-14" points="245.91 119.45 245.34 104.7 252.38 97.09 263.52 102.42 258.38 112.79 245.91 119.45"/><polygon class="cls-12" points="222.98 116.31 241.35 121.16 248.29 115.36 252.38 97.09 237.54 100.61 229.07 107.08 222.98 116.31"/><polygon class="cls-14" points="220.7 100.13 218.79 109.93 226.98 114.12 237.54 100.61 220.7 100.13"/><polygon class="cls-13" points="205.84 125.59 203.47 120.02 206.24 112.47 204.71 95.95 220.7 100.13 226.98 114.12 221.55 124.11 205.84 125.59"/><polygon class="cls-13" points="112.98 27.82 117.55 35.43 130.5 31.69 137.34 19.35 150.19 9.54 131.63 8.31 112.98 27.82"/><polygon class="cls-12" points="111.93 44.37 112.98 27.82 130.5 31.69 121.86 44.37 112.31 51.79 111.93 44.37"/><polygon class="cls-13" points="102.61 54.17 111.93 44.37 121.86 44.37 119.07 57.31 105.84 61.69 102.61 54.17"/><polygon class="cls-12" points="100.7 73.58 102.61 54.17 110.03 59.22 116.12 67.78 114.98 81.86 108.79 78.82 100.7 73.58"/><polygon class="cls-12" points="122.02 60.26 117.74 65.12 110.03 59.22 122.21 43.86 122.02 60.26"/><polygon class="cls-13" points="122.21 75.01 118.4 78.72 110.98 76.44 110.03 59.22 122.02 60.26 122.21 75.01"/><polygon class="cls-12" points="122.4 92.33 112.89 82.63 110.98 76.44 122.21 74.82 122.4 92.33"/><polygon class="cls-13" points="108.32 89 100.7 73.58 110.98 76.44 122.4 92.33 110.51 95.66 108.32 89"/><polygon class="cls-12" points="97.19 102.89 108.32 89 122.4 92.33 118.5 103.37 110.13 114.6 103.27 110.98 97.19 102.89"/><polygon class="cls-13" points="122.59 106.89 118.02 111.46 108.51 108.89 122.4 92.33 122.59 106.89"/><polygon class="cls-12" points="110.98 124.11 108.7 117.74 108.51 108.89 122.59 106.89 122.69 118.31 119.73 123.16 110.98 124.11"/><polygon class="cls-13" points="98.71 124.21 109.94 126.49 112.12 121.64 110.13 114.6 108.51 108.89 97.19 102.89 98.71 124.21"/><polygon class="cls-7" points="137.44 124.11 128.11 135.91 122.31 132.68 113.93 131.53 112.98 137.53 103.56 142.76 99.18 168.07 88.24 190.15 98.9 210.99 114.12 216.22 250.86 219.94 260.19 153.71 256.76 131.82 237.35 125.16 205.84 125.59 137.44 124.11"/><polygon class="cls-15" points="150.76 137.15 137.44 124.11 199.29 120.78 199.38 127.25 188.34 136.67 150.76 137.15"/><polygon class="cls-11" points="205.84 125.59 188.34 136.67 199.29 120.78 206.24 112.47 205.84 125.59"/><polygon class="cls-15" points="146.09 99.56 146 102.04 162.37 104.13 183.97 98.14 184.16 94.9 161.89 101.47 146.09 99.56"/><polygon class="cls-16" points="155.32 62.74 152.85 84.24 166.17 83.86 164.27 62.64 155.32 62.74"/><polygon class="cls-15" points="159.8 89.86 152.85 84.24 166.17 83.86 159.8 89.86"/><polygon class="cls-13" points="175.97 51.7 175.31 56.46 198.53 60.74 196.81 51.41 175.97 51.7"/><polygon class="cls-13" points="145.43 51.79 146.47 57.88 126.21 59.5 127.35 52.27 145.43 51.79"/><path class="cls-17" d="M185.11,63.4a4,4,0,1,1-3.9,4A4,4,0,0,1,185.11,63.4Z"/><polygon class="cls-18" points="81.2 385.89 203.57 375.32 318.04 383.89 201.57 398.26 81.2 385.89"/><path class="cls-17" d="M139.15,64.45a4,4,0,1,1-3.9,4A4,4,0,0,1,139.15,64.45Z"/><polygon class="cls-1" points="97.09 292.92 82.91 231.35 79.11 201.95 102.04 206.9 243.15 208.9 243.53 239.35 226.98 243.63 233.64 262.66 221.93 292.63 97.09 292.92"/><polygon class="cls-19" points="172.26 320.13 127.73 324.04 97.09 292.92 213.37 288.16 233.64 262.66 254.1 260.85 264.94 283.02 230.21 316.33 172.26 320.13"/><polygon class="cls-20" points="107.75 339.36 97.09 292.92 172.26 320.13 171.79 339.36 154.47 345.92 118.21 339.36 107.75 339.36"/><polygon class="cls-20" points="181.97 339.36 189.01 339.36 228.69 344.21 246.39 339.36 264.94 283.02 172.26 320.13 181.97 339.36"/><polygon class="cls-9" points="136.39 363.05 126.49 350.11 142.38 341.45 171.69 344.11 171.31 364.57 136.39 363.05"/><polygon class="cls-15" points="126.49 350.11 118.21 339.36 171.79 339.36 171.69 344.11 126.49 350.11"/><polygon class="cls-6" points="136.39 363.05 130.49 355.34 171.5 353.53 171.31 364.57 136.39 363.05"/><polygon class="cls-21" points="118.21 378.18 127.35 370.56 142.57 363.33 171.31 364.57 171.5 378.27 143.53 383.13 118.21 378.18"/><polygon class="cls-22" points="118.12 385.31 118.21 378.18 171.5 378.27 171.22 385.6 118.12 385.31"/><polygon class="cls-7" points="127.35 370.56 133.72 373.04 142.57 363.33 136.39 363.05 127.35 370.56"/><polygon class="cls-9" points="213.18 366.47 197.76 349.35 219.17 343.54 244.58 344.97 237.92 365.14 213.18 366.47"/><polygon class="cls-15" points="197.76 349.35 189.01 339.36 246.39 339.36 244.58 344.97 197.76 349.35"/><polygon class="cls-6" points="213.18 366.47 202.24 354.3 241.73 353.53 237.92 365.14 213.18 366.47"/><polygon class="cls-21" points="206.23 382.84 213.18 366.47 222.41 366 227.55 371.71 230.12 365.62 237.92 365.14 248 382.56 206.23 382.84"/><polygon class="cls-22" points="206.23 391.69 206.23 382.84 248 382.56 248 390.65 206.23 391.69"/><polygon class="cls-7" points="222.41 366 222.22 377.8 232.78 377.04 230.12 365.62 222.41 366"/><polygon class="cls-1" points="308.43 210.23 282.64 171.12 270.08 137.15 256.76 131.82 234.11 117.64 256.76 131.82 243.15 208.9 273.6 223.55 308.43 210.23"/><polygon class="cls-9" points="264.94 283.02 308.43 210.23 243.15 208.9 238.21 236.97 220.6 231.26 233.64 262.66 264.94 283.02"/><polygon class="cls-12" points="256.76 131.82 262.75 129.92 259.52 120.02 263.52 102.42 248.29 115.36 243.53 123.64 248.86 133.34 256.76 131.82"/><polygon class="cls-6" points="83.96 113.93 89.1 158.27 64.83 166.65 43.23 129.35 83.96 113.93"/><path class="cls-23" d="M59.6,134.2l-2.86.57-2.85,7.71.57,2.19L59,143.33l.57,3,2.85-.67Zm-3,7.33,1.42-3.33.58,2.85Z"/><path class="cls-23" d="M70.64,132.3l-3.72-1.62,2.29-2L68,125.25l-5.71.48-.66,4.76,3.52,1h0l-2.67,2.29,1.72,5,6-1.72ZM64,129.06l.29-2,1.81-.09.47,1.61Zm1.91,7.14-.48-2.38,2.86-.57v2.47Z"/><polygon class="cls-23" points="74.92 135.06 73.02 135.15 71.59 136.86 73.02 137.05 72.73 144.48 75.11 144.48 74.92 135.06"/><polygon class="cls-23" points="77.2 135.15 76.82 139.53 79.68 140.48 79.58 142.57 76.53 142.29 76.73 144.67 81.67 144.76 82.53 139.05 79.11 138.39 78.91 136.77 82.25 136.86 82.05 134.77 77.2 135.15"/><polygon class="cls-14" points="233.45 136.29 225.74 126.68 226.98 114.12 248.29 115.36 248.86 133.34 233.45 136.29"/><polygon class="cls-12" points="216.7 139.43 207.38 141.05 205.84 125.59 226.98 114.12 233.45 136.29 216.7 139.43"/><polygon class="cls-24" points="194.15 208.14 205.84 125.59 216.7 139.43 216.32 208.52 209.28 218.6 194.15 208.14"/><polygon class="cls-25" points="233.64 262.66 194.15 208.14 216.32 208.52 238.21 236.97 233.64 262.66"/><polygon class="cls-25" points="87.57 251.62 120.97 207.18 118.59 194.15 102.04 206.9 82.91 231.35 87.57 251.62"/><polygon class="cls-24" points="122.5 132.39 102.04 206.9 120.97 207.18 137.44 124.11 126.59 127.54 122.5 132.39"/><polygon class="cls-13" points="112.12 121.64 113.93 131.53 122.5 132.39 127.92 129.44 137.44 124.11 122.69 118.31 112.12 121.64"/><polygon class="cls-12" points="98.71 124.21 112.6 137.81 122.5 132.39 112.12 121.64 98.71 124.21"/><polygon class="cls-11" points="57.88 169.12 55.98 226.12 82.91 231.35 102.04 206.9 92.33 177.02 57.88 169.12"/><polygon class="cls-9" points="78.34 147.71 57.88 169.12 71.4 196.43 95.95 187.3 78.34 147.71"/><polygon class="cls-11" points="92.81 148.76 78.34 147.71 95.95 187.3 99.18 168.07 92.81 148.76"/><polygon class="cls-25" points="282.64 171.12 284.36 126.68 259.52 120.02 256.76 131.82 282.64 171.12"/><polygon class="cls-1" points="325.37 286.92 326.89 285.78 327.94 287.31 327.56 289.97 326.22 289.68 324.89 289.49 323.85 287.97 325.37 286.92"/><polygon class="cls-1" points="320.7 291.87 321.94 292.06 323.27 292.35 322.8 294.92 321.47 294.63 320.23 294.44 320.42 293.11 320.7 291.87"/><polygon class="cls-1" points="332.6 283.12 333.84 283.4 335.17 283.6 334.69 286.16 333.36 285.97 332.12 285.69 332.31 284.45 332.6 283.12"/><polygon class="cls-1" points="349.25 310.24 352.01 309.38 353.15 310.9 351.63 311.95 351.35 313.28 349.06 311.48 349.06 311.48 349.25 310.24"/><polygon class="cls-1" points="355.63 305.67 357.15 304.53 358.2 306.05 358.01 307.38 356.48 308.43 355.34 306.91 355.34 306.91 355.63 305.67"/><polygon class="cls-1" points="357.81 296.63 359.05 296.82 360.38 297.11 359.91 299.68 358.58 299.39 357.34 299.2 357.53 297.87 357.81 296.63"/><path class="cls-18" d="M71.4,196.43l27.5.76-3.24-9.8Zm185.36-64.61,25.88,39.3,1.72-44.44Z"/></g></svg>