<svg xmlns="http://www.w3.org/2000/svg" viewBox="0 0 400 400"><defs><style>.a,.t{fill:#2b2b2b;}.a{opacity:0.1;}.b{fill:#efd3c2;}.c{fill:#e4c823;}.d{fill:#f4d75c;}.e{fill:#f2bd67;}.f{fill:#d1af96;}.g{fill:#ccae2d;}.h{fill:#ac923b;}.i{fill:#e2a940;}.j{fill:#b38c2e;}.k{fill:#bd902d;}.l{fill:#755924;}.m{fill:#9d782c;}.n{fill:#a9846c;}.o{fill:#51362a;}.p{fill:#fcf1b9;}.q{fill:#d8c987;}.r{fill:#a09161;}.s{fill:#fff;}.u{fill:#846528;}</style></defs><title>explorers_ISFP_famous_real_britney_spears</title><polygon class="a" points="90.13 392.31 171.72 374.92 238.77 390.48 165.85 400 90.13 392.31"/><polygon class="b" points="155.06 159.93 149.45 162.18 128.5 187.04 139.23 226.55 133.47 242.51 151.92 245.26 154.8 249.71 157.55 245.26 182.93 242.51 183.84 231.39 204.38 194.63 208.29 171.45 199.94 163.58 196.98 158.17 155.06 159.93"/><polygon class="c" points="140.11 173.76 157.55 188.35 140.11 204.4 131.56 198.29 128.5 187.04 140.11 173.76"/><polygon class="c" points="157.55 188.35 191.56 173.76 204.38 194.63 198.8 204.62 182.53 207.97 157.55 188.35"/><polygon class="d" points="157.55 188.35 192.52 215.86 187.96 224.02 157.55 200.91 136.99 218.31 134.71 209.88 157.55 188.35"/><polygon class="e" points="150.41 195.07 157.55 200.91 165.54 194.63 157.55 188.35 150.41 195.07"/><polygon class="e" points="157.55 200.91 154.41 206.19 156.89 211.64 160.03 206.19 157.55 200.91"/><polygon class="f" points="157.55 188.35 159.38 175.96 153.06 184.59 157.55 188.35"/><polygon class="g" points="195.08 163.58 191.56 173.76 194.98 179.32 201.75 170 195.08 163.58"/><polygon class="f" points="150.22 162.18 111.76 161.14 92.66 177.01 128.5 187.04 139.65 174.28 150.22 162.18"/><polygon class="f" points="45.82 125.29 73.03 137.59 80.1 123.36 45.82 125.29"/><polygon class="b" points="80.1 123.36 73.03 137.59 92.66 177.01 111.76 161.14 80.1 123.36"/><polygon class="g" points="128.5 187.04 157.55 188.35 131.56 198.29 128.5 187.04"/><polygon class="h" points="157.55 188.35 140.29 204.62 131.56 198.29 157.55 188.35"/><polygon class="g" points="204.38 194.63 157.55 188.35 198.8 204.62 204.38 194.63"/><polygon class="h" points="198.8 204.62 182.59 208.05 157.55 188.35 198.8 204.62"/><polygon class="e" points="120 115.21 45.82 125.29 32.21 132.62 33.52 148.19 50.4 161.14 43.73 193.97 28.68 201.96 24.23 198.29 34.31 188.35 33 170.03 15.86 159.83 11.15 123.36 38.23 86.96 76.43 93.5 106.73 78.26 105.79 99.64 120 115.21"/><polygon class="i" points="120 115.21 105.79 99.64 106.73 78.26 76.43 93.5 80.1 123.36 120 115.21"/><polygon class="e" points="233.23 130.44 278.43 128.69 313.49 123.46 342.01 130.44 344.37 149.62 328.41 170.29 311.4 172.91 290.47 170.29 276.07 192.53 286.28 203.26 308.26 200.38 318.73 188.35 351.69 188.35 388.85 153.55 379.95 94.68 320.82 74.79 278.43 90.84 232.49 81.71 233.77 92.24 242.97 104.15 233.23 130.44"/><polygon class="i" points="38.23 86.96 45.82 125.29 32.21 132.62 11.15 123.36 38.23 86.96"/><polygon class="i" points="15.86 159.83 33.52 148.19 50.4 161.14 33 170.03 15.86 159.83"/><polygon class="i" points="34.31 188.35 43.73 193.97 28.68 201.96 24.23 198.29 34.31 188.35"/><polygon class="i" points="278.43 90.84 293.52 126.44 313.58 122.94 315.72 109.85 320.82 74.79 278.43 90.84"/><polygon class="i" points="342.01 130.44 379.95 94.68 388.85 153.55 344.37 149.62 342.01 130.44"/><polygon class="i" points="328.41 170.29 351.69 188.35 318.73 188.35 311.4 172.91 328.41 170.29"/><polygon class="i" points="290.47 170.29 301.11 184.51 286.28 203.26 276.07 192.53 290.47 170.29"/><polygon class="j" points="318.73 188.35 301.11 184.51 286.28 203.26 308.26 200.38 318.73 188.35"/><polygon class="k" points="318.73 188.35 344.27 182.59 351.69 188.35 318.73 188.35"/><polygon class="i" points="388.85 153.55 344.27 182.59 351.69 188.35 388.85 153.55"/><polygon class="k" points="344.37 149.62 358.85 114.57 342.01 130.44 344.37 149.62"/><polygon class="i" points="315.72 109.85 358.85 114.57 342.01 130.44 313.58 122.94 315.72 109.85"/><polygon class="j" points="192.52 249.71 182.93 242.51 157.55 245.26 154.8 249.71 151.92 245.26 134.71 244.67 126.67 250.36 126.67 269.33 156.5 270.25 189.23 290.03 195.92 284.11 192.52 249.71"/><polygon class="k" points="285.99 108.67 302.63 108.67 293.52 126.44 285.99 108.67"/><polygon class="i" points="242.97 104.15 285.99 108.67 293.52 126.44 278.43 128.69 231.2 130.44 242.97 104.15"/><polygon class="k" points="105.79 99.64 78.19 107.85 80.1 123.36 121.14 120.29 121.14 112.61 105.79 99.64"/><polygon class="i" points="54.28 111.42 78.19 107.85 80.1 123.36 62.96 124.37 54.28 111.42"/><polygon class="k" points="43.12 113.34 32.21 132.62 45.82 125.29 43.12 113.34"/><polygon class="k" points="15.86 159.83 39.02 166.96 33 170.03 15.86 159.83"/><polygon class="i" points="34.31 188.35 39.02 166.96 33 170.03 34.31 188.35"/><polygon class="i" points="123.4 241.2 129.29 240.29 133.47 242.51 126.67 250.36 123.4 241.2"/><polygon class="l" points="126.67 250.36 154.8 249.71 156.5 270.25 126.67 250.36"/><polygon class="m" points="192.52 249.71 154.8 249.71 156.5 270.25 192.52 249.71"/><polygon class="i" points="182.93 242.51 192.52 249.71 194.35 239.63 188.64 239.63 182.93 242.51"/><polygon class="e" points="183.84 231.39 182.93 242.51 194.35 239.63 183.84 231.39"/><polygon class="e" points="123.4 241.2 139.23 226.55 133.47 242.51 123.4 241.2"/><polygon class="m" points="122.09 272.08 156.5 270.25 126.67 250.36 122.09 272.08"/><polygon class="f" points="156.5 270.25 133.94 313.21 122.09 272.08 156.5 270.25"/><polygon class="n" points="135.61 318.64 147.03 323.42 153.4 340.98 148.75 343.08 143.55 340.21 135.61 318.64"/><polygon class="f" points="165.86 310.3 144.2 329.42 153.4 340.98 172.24 328.5 165.86 310.3"/><polygon class="o" points="141.06 390.09 151.97 383.2 162.17 376.53 168.45 379.03 166.62 392.37 162.43 392.37 162.43 383.81 155.02 392.37 140.98 392.37 141.06 390.09"/><polygon class="o" points="169.84 387.25 177.43 377.67 179.61 366.53 188.86 366.53 192.43 380.17 189.29 381.84 184.85 373.88 183.19 384.87 169.5 390.47 169.84 387.25"/><polygon class="d" points="126.67 250.36 111.76 321.01 94.75 295.1 126.67 250.36"/><polygon class="g" points="126.67 250.36 101.88 305.96 94.75 295.1 126.67 250.36"/><polygon class="d" points="192.52 249.71 221.13 301.38 199.94 326.24 192.52 249.71"/><polygon class="g" points="192.52 249.71 212.04 312.05 221.13 301.38 192.52 249.71"/><polygon class="f" points="154.8 227.07 154.8 235.45 157.55 231.26 154.8 227.07"/><polygon class="b" points="45.82 125.29 43.12 113.34 54.28 111.42 62.96 124.33 45.82 125.29"/><polygon class="l" points="296.23 190.69 302.5 191.92 308.18 186.05 301.11 184.51 296.23 190.69"/><polygon class="b" points="247.73 162.36 261.16 183.12 288.24 139.68 278.43 128.69 247.73 162.36"/><polygon class="f" points="225.4 161.83 205.62 173.23 204.38 194.63 261.16 183.12 247.73 162.36 225.4 161.83"/><polygon class="b" points="315.72 109.85 302.63 108.67 293.08 126.6 313.49 123.46 315.72 109.85"/><polygon class="f" points="293.08 126.6 278.43 128.69 288.24 139.68 313.49 123.46 293.08 126.6"/><polygon class="b" points="156.5 270.25 189.23 290.03 144.2 329.42 135.61 318.64 133.94 313.21 156.5 270.25"/><polygon class="m" points="126.67 250.36 133.47 242.51 151.92 245.26 154.8 249.71 126.67 250.36"/><polygon class="i" points="150.41 195.07 165.54 194.64 157.55 200.91 150.41 195.07"/><polygon class="i" points="154.41 206.19 160.03 206.19 156.89 211.64 154.41 206.19"/><polygon class="b" points="118.48 49.27 121.14 112.61 143.12 142.87 172.68 142.87 194.77 118.71 199.96 49.27 153.35 31.46 118.48 49.27"/><polygon class="f" points="161.3 167.88 196.98 158.17 226.97 82.28 199.96 49.27 194.77 118.71 172.68 142.87 161.3 167.88"/><polygon class="n" points="148.8 142.87 161.3 167.88 185.56 142.87 148.8 142.87"/><polygon class="p" points="155.16 161.14 147.2 165.3 140.11 173.76 132.14 182.88 127.2 169.52 137.24 156.9 121.14 142.87 121.14 112.61 143.12 142.87 148.8 142.87 155.16 161.14"/><polygon class="p" points="121.14 112.61 105.79 99.64 106.73 78.26 105.79 32.59 145.2 3.41 157.33 10.42 175.71 0 231.8 28.04 239.21 89.16 253.31 105.24 231.04 151.21 229.71 169.59 210.38 189.49 205.62 173.23 189.88 160.1 194.13 142.87 214.5 99.24 227.39 76.93 199.96 49.27 153.35 31.46 118.48 49.27 121.14 112.61"/><polygon class="q" points="105.79 32.59 118.48 49.27 120 85.27 106.73 78.26 105.79 32.59"/><polygon class="q" points="120 85.27 105.79 99.64 121.14 112.61 120 85.27"/><polygon class="q" points="148.8 142.87 137.24 156.9 121.14 142.87 148.8 142.87"/><polygon class="q" points="127.2 169.52 147.2 165.3 157.55 159.82 147.39 155.38 137.24 156.9 127.2 169.52"/><polygon class="q" points="196.98 158.17 205.62 173.23 189.88 160.1 196.98 158.17"/><polygon class="r" points="157.55 159.82 137.24 156.9 148.8 142.87 157.55 159.82"/><polygon class="q" points="231.04 151.21 196.98 158.17 205.62 173.23 229.71 169.59 231.04 151.21"/><polygon class="q" points="253.31 105.24 194.13 142.87 231.04 151.21 253.31 105.24"/><polygon class="q" points="239.21 89.16 227.39 76.93 231.8 28.04 239.21 89.16"/><polygon class="q" points="199.96 49.27 231.8 28.04 175.71 0 157.33 10.42 153.35 31.46 199.96 49.27"/><polygon class="q" points="199.96 49.27 203.83 90.33 207.19 91.57 210.05 76.93 227.39 76.93 199.96 49.27"/><polygon class="r" points="166.28 70.15 168.51 67.38 180.64 65.44 191.03 70.61 180.45 68.03 166.28 70.15"/><polygon class="r" points="144.53 69.78 143.07 66.93 131.96 64.31 124.75 68.16 131.67 67.04 144.53 69.78"/><polygon class="b" points="152.38 76.54 158.17 76.54 157.17 90.08 161.78 99 148.38 98.93 152.83 90.33 152.38 76.54"/><polygon class="n" points="148.38 98.86 155.17 103.94 161.78 99 148.38 98.86"/><polygon class="f" points="166.28 70.15 158.17 76.54 157.17 90.08 161.78 99 175.58 77.88 191.03 70.61 180.45 68.03 166.28 70.15"/><polygon class="f" points="144.53 69.78 152.38 76.54 152.83 90.33 148.38 98.93 137.25 79.08 124.75 68.16 131.67 67.04 144.53 69.78"/><polygon class="s" points="142.32 112.25 155.52 110.93 165.8 112.2 174.42 112.63 167.6 119.64 147.8 119.64 142.32 112.25"/><polygon class="g" points="142.32 112.25 149.09 118.34 166.41 118.41 172.84 112.53 174.98 112.93 167.06 122.2 147.81 122.2 139.29 110.93 142.32 112.25"/><polygon class="f" points="161.78 99 175.58 108.58 172.42 101.75 161.78 99"/><polygon class="f" points="147.75 99.78 139.29 107.42 141.58 100.92 147.75 99.78"/><polygon class="n" points="205.69 99.24 210.14 108.58 214.5 101.75 214.5 99.24 205.69 99.24"/><polygon class="q" points="222.34 99.23 214.5 99.24 214.5 99.24 210.14 108.58 210.14 108.58 222.34 99.23"/><polygon class="g" points="147.2 165.3 143.99 177.01 140.11 173.76 147.2 165.3"/><path class="t" d="M179.73,77.44a4.15,4.15,0,1,1-4.15-4.14A4.14,4.14,0,0,1,179.73,77.44Z"/><path class="t" d="M143.63,77.11A4.14,4.14,0,1,1,139.49,73,4.14,4.14,0,0,1,143.63,77.11Z"/><polygon class="m" points="139.29 110.93 142.32 112.25 172.58 112.92 174.98 112.93 175.95 111.64 172.15 111.9 164.84 110.17 149.27 109.8 143.91 111.17 139.29 110.93"/><polygon class="u" points="182.32 356.99 172.24 328.5 153.4 340.98 166.18 356.16 172.29 364.72 169.84 387.25 180.31 382.25 182.27 370.55 188.86 366.53 182.32 356.99"/><polygon class="l" points="143.55 340.21 154.67 371.46 141.06 390.09 152.97 390.09 162 379.3 168.45 379.03 166.18 370.55 166.18 356.16 153.4 340.98 143.55 340.21"/><polygon class="l" points="143.55 340.21 154.67 371.46 141.06 390.09 152.97 390.09 162 379.3 168.45 379.03 166.18 370.55 166.18 356.16 153.4 340.98 143.55 340.21"/><polygon class="b" points="227.39 76.93 210.05 76.93 205.69 99.24 222.34 99.23 227.39 76.93"/><polygon class="n" points="211.56 92.67 215 80.42 223.25 80.42 211.56 92.67"/></svg>