<svg id="Layer_1" data-name="Layer 1" xmlns="http://www.w3.org/2000/svg" viewBox="0 0 400 400"><defs><style>.cls-1{fill:#9ca0a1;}.cls-2{fill:#8e8e8e;}.cls-3{fill:#ebebea;}.cls-4{fill:#c3c3c3;}.cls-5{fill:#dcdcdb;}.cls-6{fill:#cbac14;}.cls-7{fill:#e4c728;}.cls-8{fill:#cdcdcc;}.cls-9{fill:#66483a;}.cls-10{fill:#eed2c1;}.cls-11{fill:#cfae95;}.cls-12{fill:#573a2f;}.cls-13,.cls-25{fill:#2b2b2b;}.cls-13{fill-opacity:0.15;}.cls-14{fill:#98796a;}.cls-15{fill:#82624d;}.cls-16{fill:#6f7173;}.cls-17{fill:#4f5253;}.cls-18{fill:#9d7700;}.cls-19{fill:#846400;}.cls-20{fill:#755800;}.cls-21{fill:#a8836c;}.cls-22{fill:#e1a842;}.cls-23{fill:#51362a;}.cls-24{fill:#f6e5db;}.cls-26{fill:#f3d65d;}.cls-27{fill:#f1bc68;}.cls-28{fill:#bb8e2d;}</style></defs><title>explorers_ISFP_famous_fictional_kate_austen_lost</title><g id="Layer_1-2" data-name="Layer_1"><g id="_382930680" data-name=" 382930680"><polygon class="cls-1" points="87.89 343.58 67.38 341.33 90.42 321.94 121.89 324.19 135.09 316.61 161.79 301.15 177.52 272.21 227.26 298.9 300.03 348.36 249.17 349.76 110.93 347.23 87.89 343.58"/><polygon class="cls-2" points="87.89 343.58 67.38 341.33 90.42 321.94 121.89 324.19 87.89 343.58"/><polygon class="cls-2" points="238.21 304.81 300.03 348.36 221.64 310.14 238.21 304.81"/><polygon class="cls-3" points="110.93 267.43 65.97 296.38 74.68 304.81 60.07 319.42 94.07 318.29 118.24 291.6 120.2 282.05 117.11 270.81 110.93 267.43"/><polygon class="cls-4" points="120.2 282.05 121.89 273.34 117.11 270.81 109.81 275.86 115.71 284.29 120.2 282.05"/><polygon class="cls-5" points="60.07 319.42 56.42 332.62 67.38 341.33 121.89 324.19 127.79 303.68 118.24 291.6 85.36 303.68 60.07 319.42"/><polygon class="cls-4" points="66.25 296.38 61.2 314.64 60.07 319.42 85.36 303.68 85.36 293.85 66.25 296.38"/><polygon class="cls-4" points="320.54 266.03 343.58 283.17 336.27 304.81 316.89 328.97 301.15 325.6 320.54 266.03"/><polygon class="cls-3" points="201.97 245.52 221.07 248.61 240.46 247.77 276.99 240.74 296.38 262.38 320.54 266.03 330.38 289.07 321.66 303.68 301.43 304.24 191.57 275.3 189.6 251.42 201.97 245.52"/><path class="cls-6" d="M284,278.39l3.66,8.71L300,290.76l8.71-2.81,2.53-5.62-3.09-7.59-8.43-3.65-8.15-.28L284,278.39Zm7.87-4.49,8.15-.56,7.31,3.37,1.4,5.05-1.69,3.94-7,2L290.48,284l-2.53-5.9Z"/><path class="cls-7" d="M293.29,275.3l-1.41,5.34,8.15,7,5.34-3.38.28-5.62L300,273.34l-6.74,2Zm2.24,2,4.22-1.41,3.37,3.38-.28,4.21-2.25,1.12L295,279.8Z"/><polygon class="cls-6" points="298.91 278.11 298.06 279.52 299.19 281.48 301.43 280.64 300.87 278.39 298.91 278.11"/><polygon class="cls-7" points="299.19 292.16 297.78 294.41 299.75 297.22 302.84 296.09 302.28 292.72 299.19 292.16"/><polygon class="cls-7" points="287.38 288.51 284.3 288.79 283.17 291.04 285.42 293.57 287.95 291.6 287.38 288.51"/><polygon class="cls-7" points="283.73 282.33 281.77 280.92 278.68 282.61 279.52 284.86 282.33 285.14 283.73 282.33"/><polygon class="cls-7" points="293.57 291.32 291.04 292.72 291.04 295.25 294.13 296.66 295.53 293.85 293.57 291.32"/><polygon class="cls-7" points="300.31 269.12 301.15 266.87 299.75 264.91 296.66 266.03 297.22 269.4 300.31 269.12"/><polygon class="cls-7" points="311.83 275.02 314.92 274.74 315.76 272.49 313.8 269.96 310.99 271.93 311.83 275.02"/><polygon class="cls-7" points="305.93 270.53 308.46 269.4 308.46 266.87 305.37 265.47 303.96 268.28 305.93 270.53"/><polygon class="cls-7" points="290.19 269.68 291.32 267.43 289.63 265.19 286.54 266.31 287.38 269.68 290.19 269.68"/><polygon class="cls-7" points="282.89 276.43 284.01 274.46 282.33 272.21 279.52 273.34 280.08 276.71 282.89 276.43"/><polygon class="cls-7" points="317.17 283.73 318.29 281.48 316.61 279.52 313.52 280.36 314.36 284.01 317.17 283.73"/><polygon class="cls-7" points="306.21 291.6 305.09 293.85 307.06 296.66 309.86 295.53 309.3 292.16 306.21 291.6"/><polygon class="cls-7" points="312.11 292.16 315.2 291.88 316.33 289.63 314.08 287.1 311.55 289.07 312.11 292.16"/><polygon class="cls-5" points="321.66 303.68 316.89 328.97 188.48 303.68 184.83 284.29 192.13 278.11 191.01 270.81 217.7 276.99 321.66 303.68"/><polygon class="cls-5" points="204.22 251.42 212.64 253.95 210.4 261.25 201.97 258.73 204.22 251.42"/><polygon class="cls-4" points="257.32 261.81 265.75 263.22 262.1 271.65 253.67 269.12 257.32 261.81"/><polygon class="cls-4" points="271.65 264.34 280.36 266.87 276.71 275.3 268 272.77 271.65 264.34"/><polygon class="cls-5" points="293.85 184.83 243.27 236.25 239.34 248.33 251.7 253.39 280.64 258.73 318.29 215.17 326.72 198.31 302.28 196.91 293.85 184.83"/><polygon class="cls-8" points="280.64 258.73 296.38 262.38 318.29 215.17 304.81 215.17 280.64 258.73"/><polygon class="cls-4" points="87.89 343.58 142.12 356.22 162.35 358.47 202.81 359.6 221.92 359.6 300.03 348.36 170.22 319.98 87.89 343.58"/></g><polygon class="cls-9" points="141.56 121.57 139.03 124.94 136.5 140.71 149.99 153.92 160.94 154.76 172.46 146.61 141.56 121.57"/><polygon class="cls-10" points="144.65 200.84 131.44 205.62 124.7 252.54 129.19 255.63 136.5 252.54 150.55 228.1 144.65 200.84"/><polygon class="cls-10" points="136.22 278.11 132.85 278.95 121.89 273.34 124.7 252.54 132 252.54 136.5 252.54 136.22 278.11"/><polygon class="cls-11" points="121.89 273.34 133.13 273.34 136.22 278.11 134.53 287.95 121.89 273.34"/><polygon class="cls-11" points="136.78 271.65 133.13 273.34 124.7 252.54 136.5 252.54 136.78 271.65"/><polygon class="cls-5" points="166.85 303.4 167.69 316.89 185.39 309.58 187.36 303.4 180.05 275.3 172.75 275.58 166.85 303.4"/><polygon class="cls-3" points="169.09 292.72 180.33 291.32 183.14 286.82 180.05 275.3 172.75 275.58 169.09 292.72"/><polygon class="cls-12" points="172.46 146.61 143.1 124.82 159.54 119.61 172.46 146.61"/><polygon class="cls-11" points="149.99 153.92 153.64 157.29 154.76 170.22 142.12 186.79 147.18 212.08 131.44 205.62 137.62 186.79 149.99 153.92"/><polygon class="cls-10" points="149.99 153.92 150.83 170.22 154.76 170.22 165.16 152.51 163.47 149.42 149.99 153.92"/><polygon class="cls-13" points="93.79 386.29 175.56 399.5 256.19 384.32 230.35 379.83 174.15 369.71 110.65 382.64 93.79 386.29"/><polygon class="cls-10" points="222.2 208.71 227.54 244.4 230.63 247.49 238.49 248.89 242.43 246.64 245.52 203.09 237.09 195.78 222.2 208.71"/><polygon class="cls-14" points="241.02 197.75 245.52 203.09 263.22 172.75 253.1 171.34 238.78 176.68 237.93 183.7 241.02 197.75"/><polygon class="cls-9" points="232.03 157.85 237.93 183.7 263.22 172.75 251.42 159.26 235.97 151.11 232.03 157.85"/><polygon class="cls-14" points="259.29 156.73 263.22 172.75 235.97 151.39 247.21 149.99 259.29 156.73"/><polygon class="cls-9" points="266.03 128.35 259.29 156.73 235.97 151.39 240.74 144.65 258.44 130.32 266.03 128.35"/><polygon class="cls-15" points="240.46 121.33 233.44 128.63 235.97 151.39 266.03 128.35 258.44 121.33 249.17 119.08 240.46 121.33"/><polygon class="cls-14" points="254.23 105.87 266.03 128.35 240.46 121.33 230.63 117.67 223.88 105.09 222.76 98.35 234.56 98.63 247.21 103.13 254.23 105.87"/><polygon class="cls-12" points="201.69 140.43 205.34 144.09 223.32 138.47 233.44 128.63 240.46 121.33 222.76 98.35 214.61 104.81 201.69 140.43"/><polygon class="cls-9" points="240.46 121.33 235.97 151.39 230.63 152.51 210.68 141.84 208.15 135.37 240.46 121.33"/><polygon class="cls-10" points="165.16 152.51 153.92 172.75 189.6 171.9 213.77 143.8 214.61 139.31 208.43 135.37 172.46 146.61 165.16 152.51"/><polygon class="cls-9" points="229.78 89.92 222.76 98.35 254.23 105.87 258.44 86.27 250.86 82.33 229.78 89.92"/><polygon class="cls-15" points="225.57 79.25 221.07 92.17 222.76 98.35 258.44 86.27 250.58 79.81 237.37 74.75 230.35 75.87 225.57 79.25"/><polygon class="cls-14" points="236.25 53.05 231.19 59.86 230.35 69.13 230.35 75.87 258.44 86.27 236.25 53.05"/><polygon class="cls-9" points="198.31 35.91 206.18 30.85 216.86 34.5 231.75 45.74 236.25 53.05 230.35 75.87 218.26 69.69 206.74 55.92 198.31 35.91"/><polygon class="cls-15" points="208.43 23.26 206.18 30.85 236.25 53.05 224.44 19.33 216.02 19.05 208.43 23.26"/><polygon class="cls-14" points="194.38 0.79 191.29 8.37 197.19 27.48 206.18 30.85 224.44 19.33 194.38 0.79"/><polygon class="cls-15" points="186.79 3.6 169.37 19.33 166.28 28.51 175.56 33.29 195.79 34.22 206.18 30.85 194.38 0.79 186.79 3.6"/><polygon class="cls-15" points="118.52 22.42 128.07 25.23 150.55 29.64 166.28 28.51 167.69 17.93 161.51 3.03 157.01 0.5 118.52 22.42"/><polygon class="cls-14" points="122.17 38.63 124.56 40.72 161.51 33.85 166.28 28.51 118.52 22.42 122.17 38.63"/><polygon class="cls-15" points="112.33 65.48 119.92 64.07 130.32 42 124.56 40.72 118.52 22.42 112.33 65.48"/><polygon class="cls-14" points="126.36 83.69 115.43 85.71 105.87 77.84 126.67 36.66 130.32 42 126.95 78.96 126.36 83.69"/><polygon class="cls-15" points="118.24 103.5 105.87 77.84 126.36 83.69 124.98 93.95 118.24 103.5"/><polygon class="cls-9" points="139.03 124.94 124.7 118.95 118.24 103.5 126.36 83.69 128.35 84.58 143.1 124.82 139.03 124.94"/><polygon class="cls-14" points="123.01 128.88 118.24 103.5 143.1 124.82 135.38 129.16 130.6 131.41 123.01 128.88"/><polygon class="cls-15" points="149.99 153.92 123.01 128.88 143.1 124.82 149.99 153.92"/><polygon class="cls-16" points="117.95 374.21 129.19 370.84 155.32 370.55 163.47 374.21 164.04 382.64 118.52 382.64 117.95 374.21"/><polygon class="cls-16" points="196.07 379.83 202.53 376.45 223.88 376.74 230.35 379.83 230.35 389.1 196.07 389.1 196.07 379.83"/><polygon class="cls-17" points="202.81 359.6 196.07 379.83 230.35 379.83 221.92 359.6 216.86 356.79 207.03 356.79 202.81 359.6"/><polygon class="cls-17" points="142.12 356.22 117.95 374.21 163.47 374.21 162.35 358.47 158.13 353.98 148.02 352.85 142.12 356.22"/><polygon class="cls-18" points="132 263.22 137.62 314.64 143.24 318.29 164.88 321.38 170.22 319.98 177.8 283.73 173.31 278.95 140.99 263.22 132 263.22"/><polygon class="cls-18" points="206.46 262.66 177.52 278.11 176.4 283.73 188.76 319.14 196.35 321.94 214.33 318.29 221.64 315.48 221.07 259.85 206.46 262.66"/><polygon class="cls-19" points="137.62 314.64 170.22 319.98 162.35 358.47 142.12 356.22 137.62 314.64"/><polygon class="cls-19" points="188.76 319.14 221.64 315.48 221.92 359.6 202.81 359.6 188.76 319.14"/><polygon class="cls-20" points="132 263.22 177.24 286.26 221.07 259.85 210.96 256.2 139.03 258.16 132 263.22"/><polygon class="cls-6" points="132 263.22 221.07 259.85 199.72 228.66 194.66 229.78 141.84 253.67 132 263.22"/><polygon class="cls-7" points="145.77 228.1 132 263.22 199.72 228.66 195.22 226.13 150.55 225.85 145.77 228.1"/><polygon class="cls-6" points="137.62 186.79 145.77 228.1 199.72 228.38 219.39 193.82 211.52 182.3 147.18 182.86 137.62 186.79"/><polygon class="cls-7" points="150.83 170.22 137.62 186.79 212.64 185.11 210.96 171.62 205.34 168.53 198.31 165.72 189.6 169.09 160.38 169.94 157.01 167.41 150.83 170.22"/><polygon class="cls-11" points="225.01 273.62 221.35 272.77 227.82 249.73 230.06 251.7 231.47 261.25 229.78 265.75 225.01 273.62"/><polygon class="cls-11" points="227.54 269.68 227.54 287.1 239.62 282.61 244.68 265.75 241.59 264.62 232.88 267.15 227.54 269.68"/><polygon class="cls-10" points="227.82 249.73 227.54 269.68 244.68 265.75 243.55 257.6 236.25 251.7 227.82 249.73"/><polygon class="cls-21" points="243.55 257.6 227.82 249.73 236.53 248.89 242.71 251.98 243.55 257.6"/><polygon class="cls-22" points="221.07 248.61 251.98 253.39 252.82 248.05 221.64 243.55 221.07 248.61"/><polygon class="cls-11" points="205.34 168.53 222.2 208.71 245.52 203.09 235.97 151.39 228.66 151.67 209.27 160.94 205.34 168.53"/><polygon class="cls-10" points="216.3 143.52 221.64 143.24 235.97 151.39 205.34 168.53 201.41 166 216.3 143.52"/><polygon class="cls-21" points="157.85 124.38 178.93 155.88 196.35 143.8 201.97 135.09 203.37 120.83 193.26 120.76 162.91 119.61 157.85 124.38"/><polygon class="cls-11" points="178.5 123.78 198.03 125.35 196.35 143.8 208.43 135.37 222.76 98.35 216.58 93.29 205.9 48.55 198.31 35.91 192.7 43.97 176.54 116.34 178.5 123.78"/><polygon class="cls-10" points="143.1 124.82 178.5 123.78 195.93 105.38 198.03 39.84 166.28 28.51 124.56 40.72 127.2 100.12 143.1 124.82"/><polygon class="cls-21" points="152.23 90.58 145.77 92.82 152.8 98.72 159.26 92.26 152.23 90.58"/><polygon class="cls-21" points="209.83 97.23 218.26 110.71 222.76 98.35 216.58 93.29 209.83 97.23"/><polygon class="cls-12" points="206.18 30.85 201.97 39.56 201.41 49.11 210.96 90.2 217.42 78.96 230.35 75.87 206.18 30.85"/><polygon class="cls-10" points="213.49 73.06 209.83 97.23 222.76 98.35 230.35 75.87 213.49 73.06"/><polygon class="cls-21" points="217.42 78.96 215.45 88.52 224.16 80.37 217.42 78.96"/><polygon class="cls-11" points="136.22 62.95 128.35 65.48 139.87 72.5 145.77 92.82 151.11 81.49 150.27 73.91 148.02 66.88 136.22 62.95"/><polygon class="cls-11" points="172.18 62.1 159.26 66.88 155.89 73.63 154.48 79.81 159.26 92.26 169.65 71.94 181.18 64.07 172.18 62.1"/><polygon class="cls-23" points="128.35 65.48 136.22 64.35 148.02 66.88 147.18 63.51 135.66 61.82 128.35 65.48"/><polygon class="cls-23" points="160.94 63.23 159.26 66.88 171.9 63.23 181.18 64.07 172.46 60.7 160.94 63.23"/><polygon class="cls-24" points="150.27 73.91 155.89 73.63 159.26 92.26 145.77 92.82 150.27 73.91"/><polygon class="cls-11" points="142.4 106.03 154.76 112.21 171.9 104.62 153.64 106.03 142.4 106.03"/><polygon class="cls-21" points="142.4 106.03 153.64 106.87 171.9 104.62 153.64 102.38 142.4 106.03"/><path class="cls-25" d="M139.31,70.25a3.38,3.38,0,1,1-3.37,3.37A3.37,3.37,0,0,1,139.31,70.25Z"/><path class="cls-25" d="M170.22,70a3.66,3.66,0,1,1-3.66,3.65A3.66,3.66,0,0,1,170.22,70Z"/><polygon class="cls-26" points="163.47 149.42 150.83 170.22 160.38 169.94 172.46 146.61 163.47 149.42"/><polygon class="cls-26" points="221.64 143.24 205.34 168.53 189.6 169.09 214.61 139.31 221.64 143.24"/><polygon class="cls-6" points="199.72 228.38 212.36 185.11 217.42 197.47 199.72 228.38"/><path class="cls-22" d="M257,277.27a13.58,13.58,0,1,1-19.39,12.36A13.73,13.73,0,0,1,245,277.55l1.4-6.18h9.27l1.41,5.9-3.93,3.65c-.57,0-1.41-.28-2-.28a8.85,8.85,0,1,0,9,9,9,9,0,0,0-7-8.71Z"/><path class="cls-27" d="M250.86,253.1a2.6,2.6,0,0,1,2.81,2.53,2.85,2.85,0,0,1-1.69,2.53l-.84-1.4c.56-.28.84-.56.84-1.13s-.56-.84-1.12-.84a.74.74,0,0,0-.84.84,1,1,0,0,0,1.12,1.13l-1.12,1.4v1.69l.84,1.4c.56,0,1.12.28,1.12.85a1.18,1.18,0,0,1-1.12,1.12l.56.56h0l.56.84a2.84,2.84,0,0,0,1.69-2.52,2.45,2.45,0,0,0-1.69-2.25l-1.12,1.4a.74.74,0,0,0-.84.85c0,.56.27,1.12.84,1.12v.28l-.84,1.12v1.69l.84,1.41s-.84,0-.84,1.12a.74.74,0,0,0,.84.84c.56,0,1.12-.28,1.12-.84s0-.84-1.12-1.12v-.85h.56l.56-.56h0a2.86,2.86,0,0,1,1.69,2.53,2.6,2.6,0,0,1-2.81,2.53,2.52,2.52,0,0,1-2.53-2.53,2.46,2.46,0,0,1,1.69-2.53v-1.69a2.45,2.45,0,0,1-1.69-2.52,2.13,2.13,0,0,1,1.69-2.25v-1.69a2.45,2.45,0,0,1-1.69-2.53A2.52,2.52,0,0,1,250.86,253.1Z"/><polygon class="cls-28" points="250.02 273.62 250.02 277.27 251.98 277.55 251.98 273.62 250.02 273.62"/><polygon class="cls-14" points="166.28 28.51 195.5 45.65 202.25 39.28 206.18 30.85 166.28 28.51"/><polygon class="cls-15" points="189.89 81.77 195.5 45.65 206.18 30.85 201.69 77.56 196.35 84.86 189.89 81.77"/><polygon class="cls-15" points="202.25 121.11 208.43 102.56 201.97 89.08 200.28 90.2 200 100.6 201.97 106.78 202.25 121.11"/><polygon class="cls-14" points="201.97 106.78 189.89 81.77 201.69 77.56 201.97 106.78"/><polygon class="cls-14" points="157.01 0.5 166.28 28.51 194.38 0.79 157.01 0.5"/><path class="cls-27" d="M250.86,256.76,250,257v3.65l.84.56,1.12-.56v-2.53l.28-1.12Zm0,6.46-.84.28v2.81l-.29.84,1.13.57,1.68-.29-.56-1.12V263.5Z"/></g></svg>