<svg xmlns="http://www.w3.org/2000/svg" viewBox="0 0 400 400"><defs><style>.a,.m{fill:#2b2b2b;}.a{opacity:0.1;}.b{fill:#9c782c;}.c{fill:#836528;}.d{fill:#755924;}.e{fill:#b38b2e;}.f{fill:#f4cab2;}.g{fill:#c18f7c;}.h{fill:#f0bc67;}.i{fill:#e1a940;}.j{fill:#ba8e2d;}.k{fill:#fbe3d4;}.l{fill:#fff0e8;}.n{fill:#bc8f2d;}.o{fill:none;stroke:#755924;stroke-miterlimit:10;}.p{fill:#ab913c;}.q{fill:#8c7c2f;}.r{fill:#cbad2d;}</style></defs><title>explorers_ISFP_famous_fictional_edith_crawley_downton_abbey</title><polygon class="a" points="120.63 392.6 209.82 376.28 272.68 393.63 200.66 400 120.63 392.6"/><polygon class="b" points="155.16 392.97 155.16 389.12 166.81 381.12 183.32 384.91 183.32 392.6 155.16 392.97"/><polygon class="c" points="183.32 384.91 202.31 362.5 207.06 368.69 206.66 378.28 183.32 392.6 183.32 384.91"/><polygon class="d" points="206.66 378.28 203.92 383.86 205.29 389.23 199.01 389.23 200.62 383.75 199.53 382.15 206.66 378.28"/><polygon class="e" points="177.01 372.13 179.02 370.33 194.4 374.94 190.69 378.28 177.01 372.13"/><polygon class="f" points="166.81 381.12 177.01 372.13 190.69 378.28 183.32 384.91 166.81 381.12"/><polygon class="f" points="179.02 370.33 184.53 363.87 202.31 362.5 194.4 374.94 179.02 370.33"/><polygon class="g" points="184.53 363.87 172.29 335.52 198.54 333.1 202.31 362.5 184.53 363.87"/><polygon class="c" points="215.19 384.36 215.92 393.97 222.26 396.44 241.59 385.78 235.91 374.31 228.39 383.75 215.19 384.36"/><polygon class="d" points="225.71 361.77 233.56 366.82 235.91 374.31 233.1 377.84 233.13 374.31 227.28 371.56 228.39 366.75 225.71 361.77"/><polygon class="b" points="212.79 372.91 213.45 375.28 227.28 371.56 228.39 366.75 212.79 372.91"/><polygon class="d" points="235.91 374.31 241.29 378.91 239.28 381.12 235.91 374.31"/><polygon class="f" points="215.19 384.36 213.45 375.28 227.28 371.56 233.13 374.31 233.1 377.84 228.39 383.75 215.19 384.36"/><polygon class="f" points="212.79 372.91 206.86 358.37 221.42 354.43 225.71 361.77 228.39 366.75 212.79 372.91"/><polygon class="g" points="206.86 358.37 190.72 330.26 215.89 325.83 221.42 354.43 206.86 358.37"/><polygon class="d" points="167.74 326.49 166.6 326.11 166.8 324.84 161.88 324.84 164.18 348.26 168.04 348.26 167.74 326.49"/><polygon class="c" points="167.74 326.49 168.04 348.26 174.69 349.1 176.69 329.47 167.74 326.49"/><polygon class="d" points="176.69 329.47 174.69 349.1 188.03 348.12 186.22 331.06 176.69 329.47"/><polygon class="c" points="186.22 331.06 188.03 348.12 197.82 348.76 198.06 331.48 186.22 331.06"/><polygon class="d" points="198.06 331.48 197.82 348.76 200.96 348.41 203.5 331.48 198.06 331.48"/><polygon class="b" points="203.5 331.48 200.96 348.41 215.18 347.95 213.77 331.48 203.5 331.48"/><polygon class="d" points="213.77 331.48 215.18 347.95 224.34 348.41 222.83 331.48 213.77 331.48"/><polygon class="c" points="222.83 331.48 222.18 348.41 232.55 348.41 232.19 331.48 222.83 331.48"/><polygon class="d" points="231.71 331.48 232.55 348.41 241.55 344.84 237.33 329.24 231.71 331.48"/><polygon class="c" points="157.29 325.78 155.36 348.26 164.18 348.26 162.51 325.23 157.29 325.78"/><polygon class="d" points="157.29 325.78 155.36 348.26 152.16 347.8 152.52 326.28 157.29 325.78"/><polygon class="b" points="152.52 326.28 152.16 347.8 146.23 346.26 148.41 326.28 152.52 326.28"/><polygon class="d" points="148.41 326.28 146.23 346.26 144.41 346.26 144.41 326.28 148.41 326.28"/><polygon class="c" points="137.81 326.28 135.36 341.95 144.41 346.26 144.41 326.28 137.81 326.28"/><polygon class="b" points="163.63 328.22 178.29 331.44 183.61 287.96 163.63 328.22"/><polygon class="c" points="178.29 331.44 189.32 332.41 195.52 263.95 183.61 287.96 178.29 331.44"/><polygon class="b" points="189.32 332.41 200.72 332.41 206.32 263.95 195.52 263.95 189.32 332.41"/><polygon class="c" points="200.72 332.41 215.18 332.41 212.86 263.95 206.32 263.95 200.72 332.41"/><polygon class="b" points="215.18 332.41 221.19 332.41 220.17 263.95 212.86 263.95 215.18 332.41"/><polygon class="e" points="221.19 332.41 231.71 332.41 226.45 263.95 220.17 263.95 221.19 332.41"/><polygon class="b" points="231.71 332.41 240.3 330.15 229.83 263.95 226.45 263.95 231.71 332.41"/><polygon class="b" points="163.63 328.22 149.21 279.24 152.52 328.99 163.63 328.22"/><polygon class="c" points="152.52 328.99 149.21 279.24 146.17 268.92 144.41 328.99 152.52 328.99"/><polygon class="b" points="144.41 328.99 146.17 268.92 144.95 264.76 137.81 328.99 144.41 328.99"/><polygon class="h" points="163.63 328.22 144.95 264.76 195.52 263.95 163.63 328.22"/><polygon class="i" points="144.95 264.76 157.13 210.44 221.58 212.32 229.83 263.95 195.52 263.95 144.95 264.76"/><polygon class="j" points="221.58 212.32 226.77 195.5 224.76 185.67 155.51 187.12 157.13 210.44 221.58 212.32"/><polygon class="h" points="224.76 185.67 222.52 153.3 229.83 147.82 221.94 146.85 197.71 167.6 170.01 168.28 172.59 154.26 164.34 155.07 155.51 187.12 224.76 185.67"/><polygon class="k" points="248.77 185.67 241.43 153.78 229.83 147.82 222.52 153.3 224.76 185.67 248.77 185.67"/><polygon class="k" points="155.51 187.12 154.02 160.79 164.34 155.07 155.51 187.12"/><polygon class="k" points="172.59 154.26 170.01 168.28 202.43 168.28 221.94 146.85 206.97 138.91 183.44 149.67 172.59 154.26"/><polygon class="f" points="218.63 22.48 246.75 42.26 231.93 107.73 221.94 146.85 190.05 167.15 169.67 139.91 199.71 109.22 218.63 22.48"/><polygon class="g" points="169.67 139.91 188.34 165.12 213.61 120.83 169.67 139.91"/><polygon class="k" points="169.67 139.91 190.72 138.91 213.61 122.83 226.63 20.48 148.61 41.87 140.32 63.66 149.93 120.2 169.67 139.91"/><polygon class="k" points="220.41 103.94 221.62 88.47 233.71 101.91 231.93 107.73 220.41 103.94"/><polygon class="g" points="231.93 107.73 229.48 117.61 220.41 103.94 231.93 107.73"/><polygon class="g" points="164.82 102.23 182.08 101.23 173.46 107.63 164.82 102.23"/><polygon class="f" points="182.08 101.23 188.88 78.39 205.03 70.95 193.56 66.61 178.54 73.18 174.75 77.91 171.83 89.08 182.08 101.23"/><polygon class="f" points="164.82 102.23 156.81 80.57 143.45 73.99 150.17 69.68 162.8 72.18 168.42 77.41 173.88 86.97 170.26 98.62 164.82 102.23"/><polygon class="l" points="164.82 102.23 168.44 90.4 168.42 77.41 174.75 77.91 175.73 91.53 182.08 101.23 164.82 102.23"/><polygon class="e" points="162.97 116.21 172.4 122.25 183.75 121.25 194.12 112.19 162.97 116.21"/><polygon class="d" points="162.97 116.21 171.22 112.83 175.78 113.67 180.94 111.86 194.12 112.19 176.45 116.66 162.97 116.21"/><polygon class="d" points="178.54 73.18 177.52 68.95 194.4 65.03 205.03 70.95 193.8 68.3 178.54 73.18"/><polygon class="d" points="162.8 72.18 161.11 68.32 149.31 68.11 143.45 73.99 149.69 71.37 162.8 72.18"/><circle class="m" cx="156.81" cy="79.57" r="3.99"/><circle class="m" cx="188.88" cy="78.39" r="3.99"/><polygon class="b" points="148.77 49.62 157.13 50.41 170.94 49.59 185.59 45.9 198.72 43.12 203.12 39.86 204.1 41.91 199.27 44.74 185.59 48.08 170.94 51.62 157.32 52.91 148.77 51.46 148.77 49.62"/><circle class="n" cx="157.32" cy="51.62" r="2.51"/><circle class="n" cx="170.94" cy="50.41" r="2.51"/><circle class="n" cx="185.59" cy="46.6" r="2.51"/><circle class="n" cx="198.72" cy="43.91" r="2.51"/><polyline class="o" points="173.71 151.02 171.01 160.09 168.75 171.93 166.27 185.2 164.97 196.08 162.96 208.9 161.87 221.15 161.16 229.14 160.45 237.15 159.04 253.09 159.32 259.78 159.97 271.05 164.1 279.3 174.6 272.35 181.52 262.56 188.26 252.12 193.11 242.56 197.71 231.81 199.01 221.67 199.83 212.7 202.54 199.32 203.95 189.83 205.83 179.28 210.87 167.6 218.32 157.01 222.69 147.82"/><circle class="b" cx="165.06" cy="279.38" r="2.51"/><circle class="b" cx="173.49" cy="272.25" r="2.51"/><circle class="b" cx="181.52" cy="262.56" r="2.51"/><circle class="b" cx="188.26" cy="252.12" r="2.51"/><circle class="b" cx="193.11" cy="242.56" r="2.51"/><circle class="b" cx="197.71" cy="231.81" r="2.51"/><circle class="b" cx="199.01" cy="221.67" r="2.51"/><circle class="b" cx="200.05" cy="210.21" r="2.51"/><circle class="b" cx="202.43" cy="200.55" r="2.51"/><circle class="b" cx="203.95" cy="189.83" r="2.51"/><circle class="b" cx="205.83" cy="179.28" r="2.51"/><circle class="b" cx="210.86" cy="167.6" r="2.51"/><circle class="b" cx="218.32" cy="157.01" r="2.51"/><circle class="b" cx="222.69" cy="147.19" r="2.51"/><circle class="b" cx="173.68" cy="151.43" r="2.51"/><circle class="b" cx="171.01" cy="160.09" r="2.51"/><circle class="b" cx="168.68" cy="172.76" r="2.51"/><circle class="b" cx="166.27" cy="185.2" r="2.51"/><circle class="b" cx="164.97" cy="196.08" r="2.51"/><circle class="b" cx="162.96" cy="208.9" r="2.51"/><circle class="b" cx="162.09" cy="218.65" r="2.51"/><circle class="b" cx="161.16" cy="229.14" r="2.51"/><circle class="b" cx="160.23" cy="239.65" r="2.51"/><circle class="b" cx="159.26" cy="250.6" r="2.51"/><circle class="b" cx="159.32" cy="259.78" r="2.51"/><circle class="b" cx="159.96" cy="271.05" r="2.51"/><polygon class="b" points="175.37 152.25 176.74 157.1 180.87 161.69 187.76 165.38 195.97 161.69 202.29 156.82 209.6 152.25 216.66 148.77 221.94 146.85 221.94 145.5 216.19 147.94 209.18 151.12 201.75 155.62 195.3 160.67 187.76 164.08 181.33 160.6 177.65 156.82 176.8 151.84 175.37 152.25"/><circle class="n" cx="180.87" cy="161.11" r="1.75"/><circle class="n" cx="177.12" cy="156.82" r="1.75"/><circle class="n" cx="176.16" cy="151.84" r="1.75"/><circle class="n" cx="187.76" cy="164.72" r="1.75"/><circle class="n" cx="195.3" cy="161.05" r="1.75"/><circle class="n" cx="201.75" cy="155.62" r="1.75"/><circle class="n" cx="209.18" cy="151.45" r="1.75"/><circle class="n" cx="216.19" cy="147.94" r="1.75"/><circle class="n" cx="221.94" cy="145.97" r="1.75"/><polygon class="i" points="252.94 209.47 248.77 185.67 224.76 185.67 230.56 211.48 252.94 209.47"/><polygon class="e" points="169.67 217.2 252.94 209.47 250.77 233.86 179.7 227.35 169.67 217.2"/><polygon class="e" points="142.61 217.2 157.13 210.44 153.48 228.44 137.9 231.46 142.61 217.2"/><polygon class="b" points="128.84 233.27 141.99 221.19 151.79 239.19 133.31 241.73 128.84 233.27"/><polygon class="c" points="151.79 223.6 146.52 229.5 151.79 239.19 161.46 244.12 167.74 235.93 151.79 223.6"/><polygon class="n" points="141.99 221.19 142.61 217.2 131.13 220.34 128.84 233.27 141.99 221.19"/><polygon class="d" points="142.61 217.2 149.93 225.69 146.52 229.5 141.99 221.19 142.61 217.2"/><polygon class="b" points="151.79 223.6 169.67 217.2 179.7 227.35 167.74 235.93 151.79 223.6"/><polygon class="p" points="149.26 58.1 153.45 45.95 147.53 13.67 139.71 30.99 149.26 58.1"/><polygon class="q" points="233.71 101.91 231.93 107.73 227.06 127.36 245.55 124.86 233.71 101.91"/><polygon class="r" points="187.87 30.57 197.48 6.56 217.36 25.97 204.65 45.9 187.87 30.57"/><polygon class="r" points="163.83 37.78 164.52 8.26 147.53 13.67 153.45 45.95 163.83 37.78"/><polygon class="p" points="142.69 65.11 145 92.17 127.39 70.18 127.39 43.77 139.71 30.99 142.69 65.11"/><polygon class="p" points="232.37 102.09 254.12 99.21 263.42 100.56 245.55 124.86 231.93 107.73 232.37 102.09"/><polygon class="r" points="209.56 54.3 244.33 24.71 237.9 51.36 217.19 61.29 209.56 54.3"/><polygon class="r" points="222.03 70.83 240.33 77.39 255.55 51.08 254.12 99.21 232.37 102.09 221.52 90.22 222.03 70.83"/><polygon class="r" points="139.71 30.99 149.26 58.1 143.09 69.74 127.39 43.77 139.71 30.99"/><polygon class="r" points="127.39 70.18 124.91 86.65 148.03 110.65 145 92.17 127.39 70.18"/><polygon class="p" points="163.83 37.78 187.87 30.57 197.48 6.56 200.54 0.53 183.43 0 164.52 8.26 163.83 37.78"/><polygon class="q" points="197.48 6.56 200.54 0.53 210.05 0.53 244.33 24.71 235.76 34.95 217.36 25.97 197.48 6.56"/><polygon class="p" points="217.36 25.97 204.65 45.9 209.56 54.3 235.76 34.95 217.36 25.97"/><polygon class="p" points="217.19 61.29 222.03 70.83 240.33 77.39 255.55 51.08 237.9 51.36 217.19 61.29"/><polygon class="p" points="235.76 34.95 237.9 51.36 246.32 41.91 244.33 24.71 235.76 34.95"/><polygon class="q" points="237.9 51.36 240.33 77.39 255.55 51.08 246.32 41.91 237.9 51.36"/><polygon class="p" points="240.33 77.39 254.12 99.21 255.38 81.11 255.55 51.08 240.33 77.39"/><polygon class="q" points="254.12 99.21 263.42 100.56 255.38 81.11 254.12 99.21"/><polygon class="q" points="240.33 77.39 232.37 102.09 254.12 99.21 240.33 77.39"/><polygon class="p" points="129.88 90.42 130.84 111.03 149.93 120.2 148.03 110.65 129.88 90.42"/></svg>