<svg xmlns="http://www.w3.org/2000/svg" viewBox="0 0 400 400"><defs><style>.cls-1{fill:#cbac14;}.cls-2{fill:#f4c9b2;}.cls-3{fill:#f3d65d;}.cls-4{fill:#922320;}.cls-5{fill:#4f5253;}.cls-6{fill:#731b18;}.cls-7{fill:#e4c728;}.cls-8{fill:#6f7173;}.cls-9{fill:#9d7700;}.cls-10{fill:#fce3d4;}.cls-11{fill:#ebebea;}.cls-12{fill:#cdcdcc;}.cls-13{fill:#b48a00;}.cls-14{fill:#474747;}.cls-15{fill:#2b2b2b;fill-opacity:0.1;}.cls-16{fill:#755800;}.cls-17{fill:#fff7ae;}.cls-18{fill:#f5eda6;}.cls-19{fill:#f6e095;}.cls-20{fill:#c1907d;}.cls-21{fill:#dbbf82;}.cls-22{fill:#ffefe7;}.cls-23{fill:#be8e00;}</style></defs><title>explorers_ISFP_famous_fictional_beatrix_kiddo_kill_bill</title><g id="Layer_1" data-name="Layer 1"><polygon class="cls-1" points="125.47 178.85 157.37 186.96 164.68 189.28 165.72 200.77 150.52 210.86 129.18 199.15 125.47 178.85"/><polygon class="cls-2" points="123.49 173.74 129.18 174.32 131.73 180.47 127.09 189.52 123.49 173.74"/><polygon class="cls-3" points="178.6 158.89 166.76 185.22 165.72 200.77 187.76 202.63 202.49 196.71 205.86 158.66 190.66 154.13 186.14 155.87 178.6 158.89"/><polygon class="cls-4" points="207.37 183.72 211.08 173.74 215.72 161.44 205.86 158.66 201.22 167.94 191.36 170.95 193.56 177.34 188.57 180.12 189.73 182.79 188.57 186.74 193.33 190.1 197.51 184.64 207.37 183.72"/><polygon class="cls-5" points="195.42 197.64 197.97 199.15 202.61 196.71 208.88 190.33 207.37 183.72 207.83 173.63 200.17 184.53 195.42 197.64"/><polygon class="cls-6" points="207.37 183.72 214.68 176.75 216.19 169.8 214.68 164.23 215.72 161.44 209.11 159.59 200.17 184.53 207.37 183.72"/><polygon class="cls-7" points="202.49 196.71 236.14 185.11 245.19 173.27 232.08 158.78 214.68 164.23 215.72 170.61 215.02 175.01 209.34 178.38 207.37 183.72 202.49 196.71"/><polygon class="cls-7" points="202.61 196.71 212.01 212.25 202.96 224.32 150.52 210.86 149.02 202.63 182.43 198.8 190.78 201.46 202.61 196.71"/><polygon class="cls-8" points="202.96 224.32 209.46 228.84 203.19 235.34 187.3 237.89 171.4 223.97 151.57 216.9 150.52 210.86 202.96 224.32"/><polygon class="cls-3" points="258.18 166.08 245.19 173.27 202.49 196.71 202.96 224.32 209.92 226.41 264.9 183.14 258.18 166.08"/><polygon class="cls-5" points="202.96 224.32 203.19 235.34 228.71 229.66 261.77 202.63 268.97 192.53 264.9 183.14 202.96 224.32"/><polygon class="cls-4" points="179.41 202.28 182.43 198.8 202.61 196.71 193.44 202.63 192.75 206.69 198.2 208.54 197.97 216.55 190.43 211.44 189.73 206.22 184.98 207.5 179.41 202.28"/><polygon class="cls-4" points="185.21 180.12 182.43 186.16 179.29 182.79 185.21 180.12"/><polygon class="cls-7" points="178.6 158.89 157.37 186.96 165.72 200.77 170.94 184.18 178.6 158.89"/><polygon class="cls-9" points="117.46 158.19 123.49 173.74 122.68 184.76 131.26 194.16 146.46 233.83 135.67 238.24 131.73 227.34 134.05 216.43 124.42 207.62 107.48 162.37 117.46 158.19"/><polygon class="cls-10" points="123.49 173.74 111.66 173.63 113.05 187.89 121.52 200.31 131.26 194.16 123.49 173.74"/><polygon class="cls-2" points="104.12 182.09 111.66 173.63 121.52 200.31 111.08 201.23 104.12 182.09"/><polygon class="cls-2" points="124.42 207.62 132.54 197.41 142.28 209.59 142.87 224.44 131.73 227.34 124.42 207.62"/><polygon class="cls-10" points="149.02 202.63 132.54 197.41 137.3 210.17 142.87 224.44 151.57 216.9 149.02 202.63"/><polygon class="cls-11" points="117.46 158.19 60.03 21.42 57.37 42.53 107.48 162.37 117.46 158.19"/><polygon class="cls-12" points="57.95 38.13 57.37 42.53 107.48 162.37 110.61 161.09 57.95 38.13"/><polygon class="cls-1" points="245.76 236.15 256.44 200.77 203.19 235.34 199.01 241.6 203.19 248.34 224.3 252.97 235.79 245.9 245.76 236.15"/><polygon class="cls-8" points="245.53 245.2 268.97 192.53 256.44 200.77 235.79 245.9 240.55 251.35 245.53 245.2"/><polygon class="cls-13" points="171.4 223.97 177.78 246.36 191.36 254.6 197.16 247.87 200.87 242.76 196.46 233.02 171.4 223.97"/><polygon class="cls-5" points="201.22 251.93 203.19 248.34 203.19 235.34 196.46 233.02 197.16 247.87 201.22 251.93"/><polygon class="cls-3" points="235.67 257.38 240.89 249.49 236.02 245.9 203.19 248.34 203.54 260.4 224.19 267.01 235.67 257.38"/><polygon class="cls-7" points="203.54 260.4 203.19 248.34 177.78 246.36 177.78 256.8 191.71 268.06 203.54 260.4"/><polygon class="cls-5" points="244.95 256.34 245.53 245.2 236.02 245.9 235.67 257.38 242.05 262.37 244.95 256.34"/><polygon class="cls-3" points="177.78 256.8 144.61 312.25 177.78 317.59 202.26 293.69 177.78 256.8"/><polygon class="cls-1" points="155.51 294.04 144.61 312.25 165.72 328.15 177.78 317.59 193.56 308.2 155.51 294.04"/><polygon class="cls-13" points="151.57 300.54 148.2 306.22 187.88 315.39 190.31 312.37 151.57 300.54"/><polygon class="cls-14" points="182.31 321.19 185.09 318.75 204.35 295.09 201.91 291.72 199.83 288.59 177.78 317.59 182.31 321.19"/><polygon class="cls-3" points="240.31 272.35 255.97 323.04 231.38 334.3 204.35 295.09 240.31 272.35"/><polygon class="cls-15" points="115.49 378.27 224.54 365.96 344.95 380.7 286.02 399.49 115.49 378.27"/><polygon class="cls-1" points="259.81 301.12 255.97 323.04 254.81 334.53 231.38 334.3 221.17 319.56 259.81 301.12"/><polygon class="cls-13" points="261.89 307.62 264.21 314.11 228.37 330.12 228.37 330.12 225.12 325.36 261.89 307.62"/><polygon class="cls-8" points="248.55 267.13 265.72 318.75 264.9 327.45 255.97 323.04 255.97 323.04 240.31 272.35 240.43 264.58 248.55 267.13"/><polygon class="cls-13" points="169.78 270.26 204.23 295.2 248.55 267.13 235.67 257.38 203.54 260.4 177.78 256.8 169.78 270.26"/><polygon class="cls-14" points="240.31 272.35 245.07 269.33 248.55 267.13 244.95 256.34 235.67 257.38 240.31 272.35"/><polygon class="cls-7" points="157.48 354.25 144.61 312.25 163.51 315.15 177.78 317.59 181.38 340.68 177.44 358.43 164.79 365.04 157.48 354.25"/><polygon class="cls-8" points="177.78 317.59 185.09 318.75 185.21 360.05 181.26 364 177.44 358.43 177.78 317.59"/><polygon class="cls-13" points="136.49 372.81 157.48 354.25 185.21 360.05 185.21 372.58 154.47 376.75 136.49 372.81"/><polygon class="cls-16" points="185.21 372.58 185.21 379.31 136.72 379.31 136.49 372.81 185.21 372.58"/><polygon class="cls-7" points="261.89 367.01 231.38 334.3 255.97 323.04 264.9 327.45 283.47 369.45 278.6 380.35 261.89 367.01"/><polygon class="cls-14" points="255.97 323.04 265.72 318.75 292.4 370.49 287.88 376.75 282.08 367.24 255.97 323.04"/><polygon class="cls-13" points="256.32 386.62 261.89 367.01 292.4 370.49 296.81 386.96 277.44 392.19 256.32 386.62"/><polygon class="cls-16" points="296.81 386.96 296.81 394.15 256.32 394.15 256.32 386.62 296.81 386.96"/><polygon class="cls-5" points="165.72 200.77 131.26 194.16 132.54 197.41 149.02 202.63 165.72 200.77"/><polygon class="cls-10" points="166.88 38.13 163.98 89.4 178.83 128.26 228.48 128.26 234.39 91.49 244.84 46.02 228.13 16.09 174.88 17.13 166.88 38.13"/><polygon class="cls-17" points="166.42 25.71 166.19 50.89 182.54 27.45 184.05 21.42 187.53 16.89 187.41 13.65 166.42 25.71"/><polygon class="cls-2" points="244.84 46.02 242.05 130.93 235.32 151.93 217.57 153.79 218.5 128.26 234.39 91.49 244.84 46.02"/><polygon class="cls-18" points="190.54 4.72 197.97 6.8 201.57 16.55 188.57 22.58 184.05 21.42 166.42 26.3 190.54 4.72"/><polygon class="cls-17" points="203.88 2.16 190.54 4.72 201.57 16.55 208.18 10.86 203.88 2.16"/><polygon class="cls-18" points="228.13 16.09 221.41 7.04 203.88 2.16 201.57 16.55 213.05 16.43 226.05 20.03 228.13 16.09"/><polygon class="cls-17" points="249.48 7.15 203.88 2.16 228.13 16.09 240.78 16.09 249.48 7.15"/><polygon class="cls-18" points="244.84 46.02 255.97 27.11 249.48 7.15 228.13 16.09 244.84 46.02"/><polygon class="cls-19" points="270.82 36.27 260.96 50.19 244.84 46.02 249.48 7.15 270.82 36.27"/><polygon class="cls-18" points="245.19 173.27 253.31 112.49 244.84 46.02 242.17 57.38 234.39 161.33 245.19 173.27"/><polygon class="cls-19" points="292.52 147.18 245.19 173.27 244.84 46.02 276.39 99.5 292.52 147.18"/><polygon class="cls-18" points="270.82 36.27 292.52 147.18 244.84 46.02 270.82 36.27"/><polygon class="cls-18" points="166.42 25.71 143.79 131.28 164.1 89.29 166.53 44.62 166.42 25.71"/><polygon class="cls-19" points="164.91 164.46 143.79 131.28 163.98 89.4 178.83 128.26 164.91 164.46"/><polygon class="cls-18" points="186.14 155.87 164.91 164.46 178.83 128.26 186.14 155.87"/><polygon class="cls-19" points="210.15 128.26 186.14 155.87 178.83 128.26 210.15 128.26"/><polygon class="cls-20" points="233.23 128.38 225.93 128.26 187.76 128.26 194.72 152.63 217.57 153.79 233.23 128.38"/><polygon class="cls-2" points="194.84 92.88 188.92 89.87 179.53 70.26 168.62 59.47 176.51 57.73 190.54 62.14 193.1 67.01 195.77 70.72 198.32 67.01 204 63.65 220.94 58.66 230.45 61.68 216.07 71.31 200.41 89.98 194.84 92.88"/><polygon class="cls-21" points="168.62 59.59 175.58 54.6 190.54 62.14 168.62 59.59"/><polygon class="cls-21" points="230.45 61.68 221.63 56.34 204 63.65 230.45 61.68"/><polygon class="cls-22" points="193.1 67.01 192.63 79.19 188.92 89.87 194.84 92.88 200.41 89.98 197.97 79.66 198.32 67.01 193.1 67.01"/><polygon class="cls-20" points="194.84 96.01 188.92 89.87 195.07 91.84 200.41 89.98 194.84 96.01"/><polygon class="cls-9" points="182.08 105.64 195.07 101.47 210.04 105.88 196.11 108.78 182.08 105.64"/><polygon class="cls-23" points="194.95 110.63 182.08 105.64 210.04 105.88 194.95 110.63"/><polygon class="cls-3" points="236.02 143.58 219.32 150.54 214.68 164.23 234.39 161.33 236.02 143.58"/><polygon class="cls-7" points="192.28 143.92 186.14 155.87 214.68 164.23 223.84 156.57 219.32 150.54 192.28 143.92"/><polygon class="cls-4" points="214.68 164.23 209.34 178.38 215.14 178.27 219.43 170.61 214.68 164.23"/><polygon class="cls-19" points="242.17 57.38 221.06 43.58 211.31 16.43 228.13 16.09 244.84 46.02 242.17 57.38"/><polygon class="cls-19" points="201.57 16.55 184.05 21.42 166.19 50.89 201.57 16.55"/><polygon class="cls-21" points="189.15 28.5 213.4 22 211.31 16.43 201.57 16.55 189.15 28.5"/><path class="cls-14" d="M180.34,65.62a4.06,4.06,0,1,1-4.06,4.06A4.06,4.06,0,0,1,180.34,65.62Z"/><path class="cls-14" d="M216.07,67.59A4.06,4.06,0,1,1,212,71.65,4.06,4.06,0,0,1,216.07,67.59Z"/></g></svg>