<svg id="Layer_1" data-name="Layer 1" xmlns="http://www.w3.org/2000/svg" viewBox="0 0 400 400"><defs><style>.cls-1,.cls-15{fill:#a09160;}.cls-1{stroke:#5ebfd8;stroke-width:1.69px;}.cls-2{fill:#c1b274;}.cls-3{fill:#e2d086;}.cls-17,.cls-4{fill:#2b2b2b;}.cls-4{fill-opacity:0.1;}.cls-5{fill:#f4c9b2;}.cls-6{fill:#fce3d4;}.cls-7{fill:#b48a00;}.cls-8{fill:#e4c728;}.cls-9{fill:#cbac14;}.cls-10{fill:#f3d65d;}.cls-11{fill:#be8e00;}.cls-12{fill:#846400;}.cls-13{fill:#c1907d;}.cls-14{fill:#fff7ae;}.cls-16{fill:#ffefe7;}.cls-18{fill:#fff;}.cls-19{fill:#848585;}.cls-20{fill:#cdcdcc;}.cls-21{fill:#a2a2a2;}</style></defs><title>explorers_ISFP_famous_real_joss_stone</title><g id="Layer_1-2" data-name="Layer_1"><polygon class="cls-1" points="157.11 167.28 155.84 153.3 169.5 141.38 178.56 149.8 177.28 161.4 157.11 167.28"/><polygon class="cls-2" points="128.83 144.4 157.11 167.28 169.5 141.38 161.72 138.52 137.25 140.59 128.83 144.4"/><polygon class="cls-3" points="134.87 114.7 124.7 112.63 126.45 131.69 128.83 144.4 147.58 142.81 145.99 128.84 134.87 114.7"/><polygon class="cls-4" points="183.48 399.04 106.91 382.84 183.48 370.77 261.16 383.79 183.48 399.04"/><polygon class="cls-2" points="124.7 112.63 135.82 119.14 119.46 44.33 107.71 61.48 102.15 79.59 124.7 112.63"/><polygon class="cls-2" points="210.48 140.11 218.43 125.5 241.46 154.89 237.49 161.24 223.51 161.24 212.39 149.49 210.48 140.11"/><polygon class="cls-3" points="252.58 188.72 277.84 134.08 252.74 135.82 237.49 161.24 244.16 180.94 252.58 188.72"/><polygon class="cls-5" points="142.02 219.06 150.28 213.5 156.95 202.38 159.18 177.92 157.11 167.28 133.76 195.55 128.36 213.03 142.02 219.06"/><polygon class="cls-6" points="175.54 156.31 173 157.59 170.77 160.13 167.59 160.92 157.11 167.28 161.4 188.56 179.67 205.88 226.85 178.56 237.49 161.24 219.38 152.66 217 154.41 214.93 150.6 212.39 149.49 175.54 156.31"/><polygon class="cls-7" points="160.6 334.71 161.4 317.55 195.87 323.75 200 333.91 160.6 334.71"/><polygon class="cls-5" points="231.13 377.44 237.49 373.79 245.59 386.81 224.78 386.81 231.13 377.44"/><polygon class="cls-6" points="236.22 347.57 225.26 346.46 224.31 357.58 231.13 377.44 245.59 386.81 247.81 351.55 236.22 347.57"/><polygon class="cls-5" points="229.86 331.85 236.22 347.57 224.31 357.58 189.04 324.7 205.08 321.2 229.86 331.85"/><polygon class="cls-6" points="138.37 359.96 119.78 375.69 132.17 381.41 157.43 381.41 155.04 366.48 148.21 358.38 138.37 359.96"/><polygon class="cls-5" points="114.06 368.54 132.17 381.41 117.08 381.25 114.06 368.54"/><polygon class="cls-5" points="139.16 335.02 139.64 355.68 145.83 359.81 155.36 361.87 167.91 321.05 151.23 319.14 139.16 335.02"/><polygon class="cls-8" points="148.06 297.85 138.05 292.77 139.16 335.02 167.91 321.05 157.11 307.38 148.06 297.85"/><polygon class="cls-9" points="159.33 290.07 138.05 292.77 167.91 321.05 229.86 331.85 219.22 305.32 208.42 303.41 159.33 290.07"/><polygon class="cls-8" points="150.6 282.92 138.05 292.77 219.22 305.32 230.82 269.1 217.95 265.29 150.6 282.92"/><polygon class="cls-10" points="162.67 250.2 138.05 292.77 230.82 269.1 212.39 233.68 202.54 233.36 166.64 245.27 162.67 250.2"/><polygon class="cls-8" points="150.28 213.5 162.67 250.2 181.89 243.84 186.34 232.56 179.35 217 156.31 205.88 150.28 213.5"/><polygon class="cls-9" points="230.5 201.59 204.45 201.59 179.51 219.22 179.67 222.72 181.89 243.84 212.39 233.68 230.5 201.59"/><polygon class="cls-5" points="249.24 217.16 230.5 201.59 229.71 181.89 237.49 161.24 260.52 193.65 262.43 210.17 249.24 217.16"/><polygon class="cls-10" points="157.11 167.28 150.28 213.5 179.67 220.49 230.5 201.59 237.49 161.24 179.03 201.59 157.11 167.28"/><polygon class="cls-4" points="179.03 201.59 179.51 216.84 182.84 219.38 230.5 201.59 237.49 161.24 179.03 201.59"/><polygon class="cls-11" points="168.87 167.12 173 157.59 167.59 160.92 165.05 166.16 165.85 169.5 168.87 167.12"/><polygon class="cls-12" points="163.15 171.41 165.85 169.5 168.07 172.36 164.89 174.58 163.15 171.41"/><polygon class="cls-7" points="162.99 176.33 164.89 174.58 166.96 176.65 167.59 194.44 165.69 195.71 163.62 194.76 162.99 176.33"/><polygon class="cls-12" points="163.15 198.73 165.69 195.71 169.02 197.94 166.16 200.79 163.15 198.73"/><polygon class="cls-11" points="165.37 204.77 166.16 200.79 169.5 203.02 176.65 215.73 176.49 219.54 173 218.43 165.37 204.77"/><polygon class="cls-12" points="179.51 216.84 176.49 219.54 179.67 222.72 182.84 219.38 179.51 216.84"/><polygon class="cls-11" points="183.8 214.77 182.84 219.38 187.29 217.63 200.79 203.34 201.11 198.89 197.14 200.48 183.8 214.77"/><polygon class="cls-12" points="198.73 193.96 201.11 198.89 205.56 196.03 203.34 192.22 198.73 193.96"/><polygon class="cls-7" points="202.38 188.56 203.34 192.22 207.15 190.63 213.82 173 212.55 169.5 209.37 171.25 202.38 188.56"/><polygon class="cls-12" points="210.8 165.53 212.55 169.5 216.36 167.75 214.3 163.94 210.8 165.53"/><polygon class="cls-11" points="214.93 150.6 212.71 160.13 214.3 163.94 217.32 160.76 219.38 152.66 214.93 150.6"/><polygon class="cls-8" points="139.64 355.68 138.37 359.96 148.53 362.51 150.44 362.51 149.64 358.21 139.64 355.68"/><polygon class="cls-6" points="276.41 216.52 249.24 217.16 274.18 165.05 285.46 165.85 285.94 176.81 276.41 216.52"/><polygon class="cls-5" points="297.06 148.69 291.66 151.55 281.33 168.23 285.94 176.81 302.94 170.61 304.52 152.98 297.06 148.69"/><polygon class="cls-6" points="316.76 138.68 297.06 148.69 302.94 170.61 316.12 156 316.76 138.68"/><polygon class="cls-6" points="275.77 161.56 279.74 166.96 283.71 169.18 290.55 162.83 292.93 137.09 288.16 135.66 275.77 161.56"/><polygon class="cls-9" points="281.01 171.88 285.14 180.3 288.64 178.87 283.88 169.18 281.17 169.34 281.01 171.88"/><polygon class="cls-6" points="122.64 164.42 142.02 219.06 115.01 219.06 109.93 174.58 114.06 165.05 122.64 164.42"/><polygon class="cls-5" points="191.26 66.88 191.74 103.1 171.09 140.27 192.69 143.13 179.67 161.4 179.35 167.28 212.39 149.49 219.06 130.58 222.56 97.54 191.26 66.88"/><polygon class="cls-13" points="211.28 95 207.31 99.92 220.33 107.55 220.49 98.49 211.28 95"/><polygon class="cls-6" points="206.67 86.58 207.31 99.92 216.36 100.56 206.67 86.58"/><polygon class="cls-7" points="173 157.59 181.1 178.24 214.93 150.6 212.39 149.49 181.89 174.43 179.35 167.28 180.3 160.6 175.38 156.16 173 157.59"/><path class="cls-8" d="M173.31,188.09l1.27-6.2,6.52-3.65,6.51,4-1,6.19-7.47,4.29Zm2.54-1,.64-3.81,4.45-2.22,3.81,2.22-.64,4.13-4.76,2.22Z"/><polygon class="cls-13" points="173.63 137.09 169.5 141.38 179.35 167.28 198.73 139 181.25 140.27 173.63 137.09"/><polygon class="cls-6" points="120.26 49.88 115.97 56.56 124.7 112.63 138.52 131.06 140.27 138.52 147.58 142.81 181.25 140.27 198.25 106.12 196.03 76.41 182.37 49.09 142.5 34.95 120.26 49.88"/><polygon class="cls-3" points="161.4 0.96 161.08 21.77 143.77 42.74 102.15 79.59 118.98 24.95 161.4 0.96"/><polygon class="cls-14" points="206.67 14.62 161.4 0.96 143.77 42.74 183.8 51.95 207.47 25.26 206.67 14.62"/><polygon class="cls-3" points="228.43 51.31 206.67 14.62 183.8 51.95 196.19 78.32 220.02 70.38 228.43 51.31"/><polygon class="cls-5" points="123.43 79.43 129.95 74.98 143.29 77.84 146.47 82.93 149.96 93.89 147.42 101.99 134.87 84.99 123.43 79.43"/><polygon class="cls-5" points="155.52 75.78 151.55 82.29 149.96 93.89 155.68 103.74 164.89 82.93 180.3 72.76 169.66 69.27 155.52 75.78"/><polygon class="cls-15" points="141.54 74.98 143.29 77.84 129.79 76.1 123.43 79.43 128.99 74.03 141.54 74.98"/><polygon class="cls-15" points="157.11 72.12 155.52 75.78 170.29 70.54 180.3 72.76 170.14 67.99 157.11 72.12"/><polygon class="cls-13" points="152.66 109.14 155.68 103.74 150.28 100.4 147.58 104.85 152.66 109.14"/><polygon class="cls-16" points="146.47 82.93 147.58 104.85 155.68 103.74 151.55 82.29 146.47 82.93"/><path class="cls-17" d="M135.19,81.81a3.82,3.82,0,1,1-3.81,3.82A3.82,3.82,0,0,1,135.19,81.81Z"/><path class="cls-17" d="M166.8,78A3.82,3.82,0,1,1,163,81.81,3.81,3.81,0,0,1,166.8,78Z"/><polygon class="cls-9" points="148.53 362.51 149.64 358.21 157.11 362.98 155.2 366.64 148.53 362.51"/><polygon class="cls-8" points="275.77 161.56 274.18 165.05 281.01 171.88 283.88 169.18 275.77 161.56"/><polygon class="cls-8" points="142.97 116.28 151.87 125.5 162.67 124.07 172.68 112.31 154.25 114.7 142.97 116.28"/><polygon class="cls-18" points="146.78 115.65 152.66 122 161.08 120.89 168.23 112.63 154.25 114.7 146.78 115.65"/><polygon class="cls-9" points="153.62 112.95 142.97 116.28 148.69 116.28 155.04 116.28 172.68 112.31 153.62 112.95"/><polygon class="cls-5" points="187.61 106.12 181.41 111.04 181.25 118.83 187.61 106.12"/><polygon class="cls-14" points="216.36 100.56 196.19 78.32 228.43 51.31 253.38 71.33 236.38 91.03 216.36 100.56"/><polygon class="cls-3" points="254.65 102.78 253.38 71.33 216.36 100.56 219.06 130.58 243.84 121.53 254.65 102.78"/><polygon class="cls-14" points="237.49 161.24 219.06 130.58 254.65 102.78 277.84 134.08 237.49 161.24"/><polygon class="cls-13" points="104.37 169.02 109.93 174.58 116.44 169.82 113.74 158.54 104.37 169.02"/><polygon class="cls-19" points="90.55 164.74 117.87 145.04 121.69 134.39 131.85 144.08 137.25 158.22 122.96 158.22 96.11 173.95 88.96 170.61 90.55 164.74"/><polygon class="cls-6" points="112.47 164.42 95.95 160.76 106.59 141.22 110.72 142.5 119.3 152.03 112.47 164.42"/><polygon class="cls-20" points="90.55 164.74 96.11 173.95 89.44 178.08 83.24 169.82 90.55 164.74"/><polygon class="cls-5" points="123.28 146.63 110.72 142.5 108.98 148.06 115.49 151.07 112.47 164.42 116.44 169.82 122.8 164.89 123.28 146.63"/><polygon class="cls-21" points="138.52 131.06 125.97 131.69 131.85 144.08 141.86 155.04 147.58 142.81 138.52 131.06"/><polygon class="cls-20" points="125.97 131.69 121.69 134.39 137.25 158.22 141.86 155.04 125.97 131.69"/></g></svg>