<svg id="Layer_1" data-name="Layer 1" xmlns="http://www.w3.org/2000/svg" viewBox="0 0 400 400"><defs><style>.cls-1{fill:#f4c9b2;}.cls-2{fill:#fce3d4;}.cls-3{fill:#9ca0a1;}.cls-4{fill:#8e8e8e;}.cls-5{fill:#ebebea;}.cls-6{fill:#c3c3c3;}.cls-7{fill:#dcdcdb;}.cls-8{fill:#cbac14;}.cls-9{fill:#e4c728;}.cls-10{fill:#cdcdcc;}.cls-11{fill:#9d7700;}.cls-12,.cls-27{fill:#2b2b2b;}.cls-12,.cls-28{fill-opacity:0.15;}.cls-13{fill:#c1907d;}.cls-14{fill:#aa925b;}.cls-15{fill:#ecdcb6;}.cls-16{fill:#be8e00;}.cls-17{fill:#755800;}.cls-18{fill:#846400;}.cls-19{fill:#bb8e2d;}.cls-20{fill:#8c7c2f;}.cls-21{fill:#f1bc68;}.cls-22{fill:#e1a842;}.cls-23{fill:#f9efd7;}.cls-24{fill:#bea77c;}.cls-25{fill:#b48a00;}.cls-26{fill:#ffefe7;}.cls-28{fill:#4f5253;}</style></defs><title>explorers_ISFP_famous_fictional_claire_littleton_lost</title><g id="Layer_1-2" data-name="Layer_1"><polygon class="cls-1" points="149.47 178.44 142.56 191.57 139.45 191.78 132.53 189.03 143.61 162.63 149.47 178.44"/><polygon class="cls-2" points="132.53 189.03 118.49 221.98 121.95 222.27 134.65 221.14 136.84 219.79 147.99 211.12 140.65 189.38 132.53 189.03"/><g id="_487486096" data-name=" 487486096"><polygon class="cls-3" points="88.43 338.5 67.96 336.03 90.83 316.76 122.23 319.16 162.03 296.3 177.7 267.29 227.1 293.82 299.51 343.3 248.84 344.49 111.36 342.1 88.43 338.5"/><polygon class="cls-4" points="88.43 338.5 67.96 336.03 90.83 316.76 122.23 319.16 88.43 338.5"/><polygon class="cls-4" points="237.97 299.89 299.51 343.3 216.87 304.27 237.97 299.89"/><polygon class="cls-5" points="111.36 262.49 66.76 291.43 75.16 299.89 60.69 314.36 94.5 313.16 118.56 286.63 120.47 277.24 117.5 265.95 111.36 262.49"/><polygon class="cls-6" points="120.47 277.24 122.23 268.56 117.5 265.95 110.16 270.96 116.16 279.36 120.47 277.24"/><polygon class="cls-7" points="60.69 314.36 57.09 327.63 67.96 336.03 122.23 319.16 128.23 298.69 118.56 286.63 86.03 298.69 60.69 314.36"/><polygon class="cls-6" points="66.76 291.43 61.89 309.49 60.69 314.36 86.03 298.69 86.03 289.02 66.76 291.43"/><polygon class="cls-6" points="319.97 261.29 342.91 278.16 335.64 299.89 316.37 324.03 300.7 320.36 319.97 261.29"/><polygon class="cls-5" points="201.76 240.75 229.5 245.63 276.57 235.96 295.83 257.69 319.97 261.29 329.64 284.23 321.17 298.69 300.99 299.26 191.67 270.39 189.77 246.82 201.76 240.75"/><path class="cls-8" d="M283.63,273.64l3.59,8.54,12.29,3.67,8.67-2.68,2.54-5.65-3.1-7.62-8.47-3.74-7.9-.28-7.62,7.76Zm7.69-4.73,8-.56,7.34,3.53,1.63,5.15-1.91,3.81-6.77,1.83-9.67-3.6-2.54-5.85Z"/><path class="cls-9" d="M292.66,270.54l-1.27,5.29,8.26,6.84,5.29-3.38.21-5.44-5.79-5.5-6.7,2.19Zm2.4,1.83,4.3-1.48,3.18,3.46-.07,4.09L300,279.71l-5.44-4.66Z"/><polygon class="cls-8" points="298.31 273.22 297.46 274.7 298.8 276.61 300.85 275.83 300.42 273.5 298.31 273.22"/><polygon class="cls-9" points="298.52 287.26 297.39 289.52 299.29 292.27 302.26 291.21 301.69 287.75 298.52 287.26"/><polygon class="cls-9" points="286.87 283.66 283.91 283.8 282.78 286.06 284.97 288.53 287.58 286.63 286.87 283.66"/><polygon class="cls-9" points="283.27 277.59 281.37 275.9 278.19 277.73 279.25 279.99 281.86 280.35 283.27 277.59"/><polygon class="cls-9" points="293.08 286.48 290.47 287.75 290.47 290.3 293.58 291.64 295.06 288.81 293.08 286.48"/><polygon class="cls-9" points="299.72 264.4 300.63 262.21 299.08 260.02 296.12 261.08 296.75 264.54 299.72 264.4"/><polygon class="cls-9" points="311.22 270.04 314.18 269.9 315.24 267.57 313.13 265.17 310.51 267.08 311.22 270.04"/><polygon class="cls-9" points="305.36 265.81 307.98 264.54 307.98 262 304.87 260.73 303.39 263.48 305.36 265.81"/><polygon class="cls-9" points="289.77 264.89 290.75 262.63 289.2 260.52 286.24 261.5 286.8 264.96 289.77 264.89"/><polygon class="cls-9" points="282.57 271.74 283.48 269.48 282 267.36 278.97 268.42 279.6 271.81 282.57 271.74"/><polygon class="cls-9" points="316.65 278.93 317.57 276.68 316.02 274.56 313.06 275.55 313.69 279 316.65 278.93"/><polygon class="cls-9" points="305.64 286.77 304.44 289.02 306.42 291.78 309.38 290.72 308.75 287.26 305.64 286.77"/><polygon class="cls-9" points="311.57 287.19 314.54 287.05 315.59 284.65 313.48 282.32 310.87 284.23 311.57 287.19"/><polygon class="cls-7" points="321.17 298.69 316.37 324.03 188.5 298.69 184.9 279.36 192.17 273.36 190.97 266.09 217.5 272.16 321.17 298.69"/><polygon class="cls-7" points="204.23 246.82 212.63 249.22 210.23 256.49 201.76 254.02 204.23 246.82"/><polygon class="cls-6" points="234.65 252.82 244.53 255.29 240.37 262.49 231.62 261.15 234.65 252.82"/><polygon class="cls-6" points="250.03 256.49 258.5 257.69 254.83 266.09 246.44 263.69 250.03 256.49"/><polygon class="cls-6" points="264.5 258.89 272.97 261.29 269.3 269.76 260.9 267.29 264.5 258.89"/><polygon class="cls-7" points="293.44 180.49 229.5 245.63 280.17 254.02 317.57 210.62 325.97 193.75 301.9 192.56 293.44 180.49"/><polygon class="cls-10" points="280.17 254.02 295.83 257.69 317.57 210.62 304.3 210.62 280.17 254.02"/><polygon class="cls-6" points="88.43 338.5 148.98 353.1 188.22 353.81 299.51 343.3 172.41 316.62 88.43 338.5"/></g><polygon class="cls-11" points="146.44 206.53 152.65 203.42 204.31 205.26 212.63 209.49 216.16 226.64 217.01 233.84 211.36 242.38 166.13 254.16 132.96 235.74 128.44 228.62 136.84 219.79 146.44 206.53"/><polygon class="cls-12" points="106.35 385.85 173.82 399.75 240.44 385.64 175.51 373.64 123.92 382.53 106.35 385.85"/><polygon class="cls-1" points="223.08 204.06 225.9 208.44 241.28 212.67 248.62 210.34 241.92 169.9 237.54 164.82 219.48 159.67 215.03 181.55 223.08 204.06"/><polygon class="cls-13" points="241.92 169.9 223.15 163.9 225.97 159.67 236.63 155.79 239.87 158.54 241.92 169.9"/><polygon class="cls-14" points="214.4 104.63 217.71 101.94 223.29 110.27 222.87 150.35 220.25 151.84 201.55 143.3 214.4 104.63"/><polygon class="cls-14" points="153.49 137.02 154.34 144.43 161.19 149.44 175.94 147.96 175.23 139.63 169.94 128.83 157.8 129.25 153.49 137.02"/><polygon class="cls-2" points="174.66 145.13 164.57 148.31 163.16 150.35 161.19 149.44 149.33 153.18 147.99 157.13 153.56 182.82 209.53 179.99 221.95 161.5 224.84 155.58 222.87 149.65 219.12 147.96 219.12 147.96 216.73 148.17 216.09 146.61 205.29 141.67 181.51 151.27 174.66 145.13"/><polygon class="cls-15" points="161.12 161.79 155.68 178.3 151.73 174.42 148.34 158.82 150.53 152.82 161.12 161.79"/><polygon class="cls-15" points="205.72 159.81 208.04 177.38 214.47 172.65 220.11 155.29 219.12 147.96 211.78 152.26 205.72 159.81"/><polygon class="cls-16" points="155.68 178.3 153.56 180.56 149.33 180.91 146.08 178.44 143.61 162.63 149.89 162.42 154.2 170.89 155.68 178.3"/><polygon class="cls-16" points="209.53 179.99 207.9 177.67 211.72 167.57 218.49 160.52 223.29 163.34 219.76 177.1 216.87 179.92 209.53 179.99"/><polygon class="cls-17" points="123.92 377.52 134.51 375.83 163.59 375.69 167.25 377.52 167.25 382.53 123.92 382.53 123.92 377.52"/><polygon class="cls-17" points="184.26 385.36 189.34 383.52 210.38 383.59 214.96 385.36 214.75 391.07 184.12 391.07 184.26 385.36"/><polygon class="cls-2" points="151.16 361.57 138.39 369.05 137.4 371.52 134.09 371.59 123.92 377.52 139.45 377.52 141.5 375.9 145.59 377.52 167.25 377.52 167.25 364.11 164.36 361.15 156.6 360.16 151.16 361.57"/><polygon class="cls-2" points="194.78 365.24 190.61 367.43 188.92 372.23 189.34 375.48 187.16 377.1 184.26 385.36 214.96 385.36 210.66 376.53 207.97 374.7 208.12 371.38 206 367.15 202.54 365.31 194.78 365.24"/><polygon class="cls-2" points="175.87 289.24 182.71 325.09 189.06 328.76 205.22 328.9 213.34 325.23 217.78 298.98 213.62 292.56 181.09 284.86 175.87 289.24"/><polygon class="cls-2" points="137.9 287.47 144.11 323.96 147.92 327.77 166.48 328.62 171.49 324.81 173.89 302.51 169.37 295.24 144.74 285.07 137.9 287.47"/><polygon class="cls-13" points="203.32 295.8 217.78 298.98 219.19 290.79 210.59 289.38 203.32 295.8"/><polygon class="cls-13" points="174.1 302.57 153.14 293.89 165.99 286.42 175.51 289.24 174.1 302.57"/><polygon class="cls-18" points="134.58 267.78 128.58 283.52 153.14 293.89 157.3 290.08 159.14 278.02 155.89 274.14 153.71 269.97 143.82 266.37 134.58 267.78"/><polygon class="cls-11" points="161.61 271.66 155.82 274 153.14 293.89 175.51 289.24 181.02 284.86 181.37 277.66 161.61 271.66"/><polygon class="cls-17" points="205.22 270.75 209.81 290.01 203.32 295.8 175.51 289.24 176.43 280.56 181.09 273.78 202.82 263.62 205.22 270.75"/><polygon class="cls-17" points="235.78 276.81 223.71 256.28 216.51 258.47 215.46 262.77 215.31 268.63 219.48 278.23 223.78 281.97 235.78 276.81"/><polygon class="cls-18" points="226.53 288.39 203.32 295.8 205.22 270.75 208.89 262.84 215.46 262.77 226.53 288.39"/><polygon class="cls-17" points="125.19 257.41 134.58 267.78 176.43 280.56 178.97 276.89 170.01 254.09 164.85 250.92 152.58 249.29 133.95 253.18 125.19 257.41"/><polygon class="cls-18" points="164.85 250.92 176.43 280.56 205.22 270.75 212.63 250.64 215.74 239.7 212.56 238.36 164.85 250.92"/><polygon class="cls-1" points="184.26 266.51 181.86 255.01 198.24 253.03 203.39 255.29 206.63 264.11 205.22 270.75 184.26 266.51"/><polygon class="cls-1" points="210.09 246.4 193.01 243.51 191.25 246.26 204.02 252.26 210.23 249.29 210.09 246.4"/><polygon class="cls-2" points="205.22 270.75 198.24 253.03 210.09 246.4 216.09 246.9 223.78 251.91 223.71 256.28 205.22 270.75"/><polygon class="cls-2" points="223.08 204.06 212.56 238.36 213.9 241.96 226.46 247.88 229.5 245.63 248.62 210.34 223.08 204.06"/><polygon class="cls-19" points="220.68 241.81 212.56 238.36 210.09 246.4 216.51 251.06 220.53 250.28 222.65 245.63 220.68 241.81"/><polygon class="cls-20" points="220.68 241.81 216.51 251.06 223.71 256.28 229.5 245.63 220.68 241.81"/><polygon class="cls-18" points="212.63 209.49 211.22 201.31 201.34 186.2 147.85 186.27 138.75 189.31 146.44 206.53 162.25 205.61 170.29 203.92 180.73 204.69 212.63 209.49"/><polygon class="cls-11" points="146.08 178.44 138.75 189.31 167.89 195.17 200.56 190.37 207.34 192.77 217.22 183.17 219.76 177.1 155.68 178.3 146.08 178.44"/><polygon class="cls-17" points="212.63 209.49 218 184.02 219.76 177.1 200.56 190.37 212.63 209.49"/><polygon class="cls-6" points="161.19 149.44 168.6 186.98 171.77 188.6 164.57 148.31 161.19 149.44"/><polygon class="cls-6" points="219.12 147.96 175.16 186.7 171.77 188.6 171.42 186.84 216.09 146.61 219.12 147.96"/><path class="cls-21" d="M161,187.33l20.12-.91-5.72,6.14-.85.91-6.35.29-1-.85Zm8,2.54,2.19,2.9,2.19-3.11Z"/><polygon class="cls-21" points="181.02 209.14 174.52 209.99 171.49 205.19 168.88 209.99 162.88 209.35 166.13 204.13 176.57 203.63 181.02 209.14"/><path class="cls-22" d="M161.89,193.19l18.63-.92.21,12.42-18.48.92Zm3.53,4.09,3.81-.14.21,3.74-4,.07Zm7.48-.35,3.6-.14.28,3.88-3.6.07Z"/><polygon class="cls-23" points="130.35 152.26 154.2 170.89 150.53 152.82 146.29 150.35 135.43 149.65 130.35 152.26"/><polygon class="cls-15" points="136.27 133.06 130.35 153.18 142.56 151.27 154.76 144.78 145.38 134.62 136.27 133.06"/><polygon class="cls-24" points="130.35 152.26 150.53 152.82 154.76 144.5 130.35 152.26"/><polygon class="cls-23" points="136.84 112.18 133.31 117.4 133.81 125.37 136.27 133.06 154.76 144.78 152.15 131.94 142.56 116.83 136.84 112.18"/><polygon class="cls-24" points="154.76 144.78 136.84 112.18 144.67 114.15 159.07 125.94 160.9 131.79 154.76 144.78"/><polygon class="cls-15" points="120.75 110.34 126.47 107.59 132.11 108.36 136.84 112.18 136.27 133.06 120.75 110.34"/><polygon class="cls-23" points="125.76 86.77 120.75 110.34 136.84 112.18 135.22 100.53 128.23 85.08 125.76 86.77"/><polygon class="cls-24" points="133.24 56 128.58 54.38 125.83 59.04 124.63 74.56 125.76 86.77 136.84 112.18 140.16 106.67 133.24 56"/><polygon class="cls-15" points="115.6 59.74 125.76 86.77 128.58 54.38 123.01 53.88 115.6 59.74"/><polygon class="cls-23" points="239.87 158.54 211.72 167.57 219.12 147.96 226.04 147.74 233.87 150.85 239.87 158.54"/><polygon class="cls-15" points="237.12 125.87 223.08 130.31 219.12 148.52 239.87 158.54 237.12 125.87"/><polygon class="cls-23" points="217.15 103.78 219.12 148.52 237.12 125.87 235.92 116.62 223.01 104.48 217.15 103.78"/><polygon class="cls-15" points="245.87 107.38 237.19 99.9 226.82 100.74 217.15 103.78 237.12 125.87 245.87 107.38"/><polygon class="cls-23" points="228.72 82.68 222.58 95.38 217.15 103.78 245.87 107.38 236.27 85.64 228.72 82.68"/><polygon class="cls-15" points="227.88 69.41 223.78 73.64 216.65 97.36 217.15 103.78 236.27 85.64 237.62 72.94 234.86 68.63 227.88 69.41"/><polygon class="cls-23" points="240.01 54.87 236.27 85.64 227.88 69.41 232.04 59.6 235.57 55.79 240.01 54.87"/><polygon class="cls-13" points="168.03 131.37 174.66 145.41 180.88 157.98 197.25 147.04 201.84 139.56 206.14 119.8 184.05 125.94 171.84 126.29 168.03 131.37"/><polygon class="cls-1" points="201.13 104.06 178.41 126.15 179.04 130.81 201.84 125.44 197.25 147.04 205.29 141.67 217.43 102.86 218.63 97 215.53 91.15 211.5 64.19 205.43 55.37 202.82 59.6 201.13 104.06"/><polygon class="cls-24" points="212.91 94.46 205.43 55.37 210.66 54.17 225.83 63.13 227.88 69.41 226.53 73.71 218.7 75.48 218.14 87.83 212.91 94.46"/><polygon class="cls-13" points="212.91 94.46 217.15 103.78 220.39 93.4 219.62 90.93 215.53 91.15 212.91 94.46"/><polygon class="cls-2" points="214.47 73.78 212.91 94.46 220.39 93.4 226.53 73.71 214.47 73.78"/><polygon class="cls-13" points="218 78.23 222.16 78.09 217.36 85.92 218 78.23"/><polygon class="cls-2" points="130.28 66.3 136.84 112.18 160.9 131.79 179.04 130.81 205.29 105.26 205.43 55.37 205.29 48.59 175.58 27.49 168.95 29.47 152.22 23.26 146.08 42.31 132.04 58.61 130.28 66.3"/><polygon class="cls-13" points="147.78 46.33 134.37 47.32 128.58 54.38 130.28 66.3 147.78 46.33"/><polygon class="cls-13" points="177.21 33.7 196.47 49.79 190.54 29.4 177.21 33.7"/><polygon class="cls-9" points="152.79 108.51 165.28 114.36 179.96 107.38 164.08 108.93 152.79 108.51"/><polygon class="cls-25" points="152.79 108.51 164.01 109.92 179.96 107.38 164.36 106.04 152.79 108.51"/><polygon class="cls-13" points="156.18 95.87 163.44 101.24 169.94 95.24 162.67 92.98 156.18 95.87"/><polygon class="cls-1" points="144.32 65.95 136.63 69.2 147.99 76.89 156.18 95.87 162.67 76.75 157.52 69.9 144.32 65.95"/><polygon class="cls-1" points="169.3 69.76 163.59 76.82 169.94 95.24 178.55 76.61 193.37 67.22 180.1 65.25 169.3 69.76"/><polygon class="cls-26" points="160.76 76.89 156.18 95.87 169.94 95.24 165.35 76.61 169.3 69.76 157.52 69.9 160.76 76.89"/><polygon class="cls-14" points="136.63 69.2 144.53 64.75 155.68 66.38 157.52 69.9 144.67 67.43 136.63 69.2"/><polygon class="cls-14" points="171.49 65.67 169.3 69.76 182.07 66.44 193.37 67.22 182 63.62 171.49 65.67"/><path class="cls-27" d="M147.54,74.74A3.36,3.36,0,0,1,151,77.92a3.32,3.32,0,0,1-3.42,3.23A3.35,3.35,0,0,1,144.12,78,3.32,3.32,0,0,1,147.54,74.74Z"/><path class="cls-27" d="M179.64,74.1a3.41,3.41,0,0,1,3.56,3.15,3.28,3.28,0,0,1-3.36,3.26,3.39,3.39,0,0,1-3.55-3.15A3.27,3.27,0,0,1,179.64,74.1Z"/><polygon class="cls-15" points="128.79 22.27 115.6 59.74 130.42 48.03 152.22 23.26 155.33 19.8 150.67 13.8 139.45 16.62 128.79 22.27"/><polygon class="cls-23" points="158.08 2.51 128.79 22.27 155.33 19.8 160.62 13.23 163.37 7.87 158.08 2.51"/><polygon class="cls-15" points="178.05 8.15 158.08 2.51 155.33 19.8 159.07 28.27 167.96 34.27 175.72 20.71 179.04 11.26 178.05 8.15"/><polygon class="cls-23" points="188.71 0.25 178.05 8.15 167.96 34.27 184.97 22.97 188.99 8.65 188.71 0.25"/><polygon class="cls-24" points="152.22 23.26 152.79 28.83 167.96 34.27 155.33 19.8 152.22 23.26"/><polygon class="cls-24" points="188.71 32.99 167.96 34.27 183.28 21.42 187.86 22.97 191.18 28.13 188.71 32.99"/><polygon class="cls-15" points="188.71 0.25 183.28 21.42 187.86 22.97 212.42 20.5 213.41 12.25 188.71 0.25"/><polygon class="cls-23" points="196.47 49.79 183.28 21.42 213.41 12.25 214.4 18.46 204.73 39.91 196.47 49.79"/><polygon class="cls-15" points="226.11 30.67 221.24 38.64 206 48.52 196.47 49.79 213.41 12.25 226.11 30.67"/><polygon class="cls-23" points="227.88 69.41 196.47 49.79 226.11 30.67 232.67 42.73 231.62 63.13 227.88 69.41"/><polygon class="cls-15" points="240.01 54.87 226.11 30.67 227.88 69.41 240.01 54.87"/><polygon class="cls-23" points="115.6 59.74 128.58 54.38 147.78 46.33 155.33 19.8 115.6 59.74"/><polygon class="cls-8" points="187.16 377.1 191.67 381.26 195.98 381.26 196.19 378.58 188.92 372.23 187.16 377.1"/><polygon class="cls-16" points="208.12 371.38 191.67 381.26 196.33 385.36 210.66 376.53 208.12 371.38"/><polygon class="cls-16" points="134.09 371.59 139.45 377.52 145.59 377.52 138.39 369.05 134.09 371.59"/><polygon class="cls-28" points="216.16 226.64 212.56 238.36 193.01 243.51 212.63 209.49 216.16 226.64"/><polygon class="cls-18" points="125.19 257.41 164.85 250.92 147.43 240.26 142.06 240.75 140.3 244.28 123.22 244.57 125.19 257.41"/><polygon class="cls-2" points="144.74 224.31 129.78 223.18 127.31 227.49 134.23 229.25 144.6 228.05 144.74 224.31"/><polygon class="cls-1" points="129.78 223.18 134.23 229.25 134.3 239.91 123.5 246.75 115.46 228.05 121.74 223.18 129.78 223.18"/><polygon class="cls-1" points="144.11 323.96 171.49 324.81 167.25 364.11 150.53 362 144.11 323.96"/><polygon class="cls-1" points="182.71 325.09 213.34 325.23 206 367.15 190.75 367.36 182.71 325.09"/><polygon class="cls-2" points="147.43 240.26 134.23 229.25 123.5 246.75 142.06 249.79 147.43 240.26"/><polygon class="cls-21" points="113.41 223.61 128.09 218.88 131.33 220.78 129.78 223.18 115.46 228.05 113.41 223.61"/><polygon class="cls-22" points="128.09 218.88 129.78 223.18 135.85 223.68 136.84 219.79 128.09 218.88"/></g></svg>