<svg id="Layer_1" data-name="Layer 1" xmlns="http://www.w3.org/2000/svg" viewBox="0 0 400 400"><defs><style>.cls-1{fill:#9d7700;}.cls-2{fill:#a1915f;}.cls-3{fill:#f4c9b2;}.cls-20,.cls-4{fill:#2b2b2b;}.cls-4{fill-opacity:0.1;}.cls-5{fill:#c2b476;}.cls-6{fill:#e4c728;}.cls-7{fill:#fce3d4;}.cls-8{fill:#be8e00;}.cls-9{fill:#cbac14;}.cls-10{fill:#e1cf83;}.cls-11{fill:#fdf7af;}.cls-12{fill:#fff;}.cls-13{fill:#f3d65d;}.cls-14{fill:#846400;}.cls-15{fill:#cdcdcc;}.cls-16{fill:#ebebea;}.cls-17{fill:#f1bc68;}.cls-18{fill:#c1907d;}.cls-19{fill:#e1a842;}.cls-21{fill:#ffefe7;}.cls-22{fill:#bb8e2d;}.cls-23{fill:#a2a2a2;}</style></defs><title>explorers_ISFP_famous_fictional_eowyn_lord_of_the_rings</title><g id="Layer_1-2" data-name="Layer_1"><polygon class="cls-1" points="262.56 243.66 271.6 245.67 266.25 267.42 249.85 260.06 243.49 273.1 237.81 272.44 237.81 265.41 245.17 255.71 262.56 243.66"/><polygon class="cls-2" points="187.62 133.59 170.56 145.97 154.5 150.32 148.14 128.24 178.25 106.82 187.62 133.59"/><polygon class="cls-3" points="261.23 263.4 266.25 267.42 262.9 280.46 255.54 272.1 261.23 263.4"/><path class="cls-4" d="M195.65,399.57l-100-22.08S206,367.12,203,367.12c-3.34,0,101.38,10.37,101.38,10.37Z"/><path class="cls-5" d="M246.17,137.27c0,1,20.08,5.35,20.08,5.35l-24.09,44.83-2.68-40.81Z"/><polygon class="cls-6" points="142.45 210.21 156.17 250.35 169.22 230.61 170.56 213.55 170.22 208.53 151.15 200.84 142.45 210.21"/><polygon class="cls-7" points="167.21 236.97 164.54 227.27 154.16 234.29 156.17 251.36 167.21 236.97"/><polygon class="cls-8" points="168.22 177.08 148.81 187.12 142.45 210.21 170.22 208.53 168.22 177.08"/><polygon class="cls-8" points="228.77 374.14 239.14 388.19 272.27 374.14 250.52 305.56 247.84 282.81 239.48 270.76 230.78 243.33 215.06 237.31 228.77 374.14"/><polygon class="cls-9" points="208.7 376.49 219.07 387.53 239.14 388.19 222.42 238.31 208.36 241.65 208.7 376.49"/><polygon class="cls-8" points="177.25 365.44 199.33 391.88 219.07 387.53 213.72 241.65 193.31 245.67 177.25 365.44"/><polygon class="cls-9" points="171.56 369.79 178.92 387.53 199.33 391.88 201.67 247.34 184.61 242.66 171.56 369.79"/><polygon class="cls-8" points="150.48 362.77 155.84 387.86 178.92 387.53 183.6 252.36 181.26 232.96 162.86 240.31 150.48 362.77"/><polygon class="cls-9" points="160.52 245 156.17 250.35 130.41 374.14 155.84 387.86 168.88 243.33 160.52 245"/><polygon class="cls-6" points="170.56 213.55 164.54 227.27 160.52 238.98 168.22 251.02 182.94 258.72 230.78 243.33 222.75 227.6 170.56 213.55"/><polygon class="cls-3" points="258.21 272.1 250.85 274.44 239.48 270.76 247.51 259.72 258.21 272.1"/><polygon class="cls-7" points="253.19 252.03 247.51 259.72 250.85 274.44 258.21 272.1 266.25 267.42 262.23 251.02 253.19 252.03"/><polygon class="cls-9" points="245.84 198.16 239.14 217.56 237.81 265.41 271.6 245.67 259.22 198.5 245.84 198.16"/><polygon class="cls-9" points="239.81 191.13 222.75 227.6 164.54 227.27 148.81 187.12 174.24 173.74 233.46 174.07 239.81 191.13"/><polygon class="cls-8" points="224.42 174.41 228.44 187.45 239.14 217.56 259.22 198.5 245.5 144.29 224.42 174.41"/><polygon class="cls-6" points="159.52 155.67 148.81 187.12 228.44 187.45 245.5 144.29 159.52 155.67"/><polygon class="cls-5" points="214.05 172.4 214.05 184.44 222.42 187.45 225.43 178.09 228.1 162.7 219.4 163.37 214.05 172.4"/><polygon class="cls-10" points="170.22 179.76 170.89 184.44 170.22 209.53 156.84 182.77 170.22 179.76"/><path class="cls-11" d="M161.19,178.76c-.67.33-12.38,8.36-12.38,8.36l21.41,22.42-8.7-22.42Z"/><polygon class="cls-2" points="228.1 152.99 220.07 169.72 225.43 178.09 266.25 142.62 251.19 139.28 242.49 142.29 228.1 152.99"/><polygon class="cls-7" points="153.83 136.93 165.2 158.68 190.3 170.39 224.76 156.34 226.1 133.92 203.35 122.21 164.2 134.93 153.83 136.93"/><path class="cls-12" d="M160.86,149.65l8.36,4.68,15.72,6.36,4.35,6.36,8.7-6.36L222.08,154l7.36-3.35s-5,11.38-6.69,11.38c-1.34-.34-13.38,7.36-13.38,7.36l-38.48,1.67Z"/><path class="cls-13" d="M165.87,144l10.38,23.09,32.11-.34,15.39-14.05,4,3-3,.67-4.69,10-2.34,7.69-48.18-.33-11.71-21.08s-7-5.69-5.68-6S165.87,144,165.87,144Z"/><path class="cls-11" d="M214.05,184.44s-5.69,5-5.69,4,5.69,22.41,5.69,22.41l8.37-23.42Z"/><polygon class="cls-5" points="210.71 175.74 202.34 187.45 214.05 210.87 214.05 184.44 210.71 175.74"/><polygon class="cls-11" points="219.4 163.37 208.36 166.71 202.34 187.45 214.05 184.44 220.07 169.72 219.4 163.37"/><polygon class="cls-11" points="169.89 159.69 178.92 167.04 170.89 184.44 161.52 187.12 159.85 160.35 169.89 159.69"/><polygon class="cls-10" points="160.19 165.04 155.17 168.38 148.81 187.12 161.52 187.12 167.88 164.7 160.19 165.04"/><polygon class="cls-11" points="206.69 119.87 220.07 134.93 242.49 142.29 238.48 119.2 206.69 119.87"/><polygon class="cls-10" points="224.09 113.51 220.07 134.93 238.48 119.2 224.09 113.51"/><polygon class="cls-14" points="250.52 285.48 244.16 286.15 239.48 270.76 256.54 274.44 268.59 286.49 253.87 289.83 250.52 285.48"/><path class="cls-3" d="M156.17,250.35c.34-.67,8.37-23.08,8.37-23.08l8.69,14.38-5,9.37Z"/><polygon class="cls-15" points="256.88 282.81 252.53 285.15 226.77 332.32 215.72 356.08 218.4 364.44 260.56 288.16 256.88 282.81"/><polygon class="cls-16" points="242.49 279.8 249.18 279.13 249.52 283.48 217.4 355.41 213.72 360.09 209.37 359.42 242.49 279.8"/><polygon class="cls-16" points="217.73 354.07 218.4 364.44 205.02 380.83 209.37 359.42 217.73 354.07"/><polygon class="cls-8" points="239.48 270.76 268.59 286.49 258.21 272.1 239.48 270.76"/><polygon class="cls-17" points="171.9 141.28 176.91 141.62 180.93 149.98 187.29 152.99 188.63 155.34 185.28 156 177.58 153.33 172.56 145.97 171.9 141.28"/><polygon class="cls-17" points="223.75 137.94 207.69 150.99 197.99 154.33 196.32 156.34 198.33 157.34 213.05 154.33 223.09 147.31 223.75 137.94"/><polygon class="cls-5" points="229.78 134.26 217.73 134.93 208.36 166.71 220.07 169.72 242.49 142.29 229.78 134.26"/><polygon class="cls-5" points="228.1 141.95 242.49 142.29 266.25 142.62 250.52 122.88 232.79 113.51 225.43 136.26 228.1 141.95"/><polygon class="cls-10" points="235.8 81.73 252.53 96.12 250.19 122.55 234.46 119.2 229.78 102.47 235.8 81.73"/><polygon class="cls-2" points="188.29 133.59 172.56 145.97 158.18 150.32 152.16 128.24 179.59 106.82 188.29 133.59"/><polygon class="cls-11" points="149.81 137.94 146.13 142.29 136.43 146.97 139.44 109.17 148.14 99.8 157.51 104.48 149.81 137.94"/><polygon class="cls-5" points="171.23 128.9 159.85 139.61 146.13 142.29 150.82 112.51 164.87 103.14 171.23 128.9"/><polygon class="cls-11" points="205.35 120.2 217.73 134.93 242.49 142.29 234.46 119.2 205.35 120.2"/><polygon class="cls-3" points="193.98 139.61 193.31 149.65 217.73 134.93 224.42 117.86 213.72 103.48 193.64 127.9 193.98 139.61"/><polygon class="cls-18" points="174.24 126.23 193.31 149.65 211.38 128.9 201.34 128.9 196.99 126.23 174.24 126.23"/><polygon class="cls-5" points="127.4 92.44 139.44 113.18 150.82 112.51 149.81 93.77 134.76 80.73 127.4 92.44"/><polygon class="cls-2" points="133.42 66.34 134.76 80.73 150.82 112.51 158.85 99.13 146.13 58.98 133.42 66.34"/><path class="cls-7" d="M228.77,112.18l-5.68,3.68-21.75,13H171.23l-20.41-16.39-8-55.87s18.4-37.14,17.06-36.81c-1.34,0,30.11-9,30.11-9L217.4,29.87,230.78,83.4Z"/><path class="cls-3" d="M159.18,59.31,154.5,62l-6.36,3L164.2,75.71l11.71,10.7,11,5.36L201.34,75l15.39-10.37-5.35-5.36L198,58.64l-10,4.69-5,8.7L181.6,74.7,179.26,72l-4-9.71s-12-3.68-12-4.34C162.86,57.31,159.18,59.31,159.18,59.31Z"/><polygon class="cls-2" points="175.24 62.33 166.54 56.64 152.16 59.31 152.16 62.33 165.54 59.98 175.24 62.33"/><polygon class="cls-2" points="187.96 63.33 197.99 56.64 211.04 57.64 211.38 60.99 198.66 59.65 187.96 63.33"/><polygon class="cls-11" points="151.49 45.93 154.5 61.99 138.44 87.08 127.4 92.44 130.74 43.92 151.49 45.93"/><polygon class="cls-2" points="223.75 72.36 221.41 116.86 224.76 120.88 234.46 119.2 237.47 101.47 223.75 72.36"/><polygon class="cls-10" points="221.41 116.86 217.73 134.93 234.46 119.2 221.41 116.86"/><polygon class="cls-11" points="219.74 45.26 210.71 60.99 237.47 101.47 252.53 96.12 244.16 40.24 219.74 45.26"/><polygon class="cls-5" points="204.68 10.47 221.41 8.46 244.16 40.24 210.71 60.99 204.68 27.86 204.68 10.47"/><polygon class="cls-10" points="181.26 3.44 187.29 0.43 221.41 8.46 204.68 27.86 183.27 15.82 181.26 3.44"/><polygon class="cls-11" points="158.85 23.18 162.86 24.52 183.27 15.82 187.29 0.43 156.84 7.12 158.85 23.18"/><polygon class="cls-5" points="162.86 24.52 154.5 61.99 130.74 43.92 156.84 7.12 162.86 24.52"/><polygon class="cls-19" points="175.91 104.81 171.23 108.16 176.58 111.84 187.62 111.17 193.64 107.16 186.28 104.15 175.91 104.81"/><polygon class="cls-18" points="178.59 87.42 174.57 91.77 180.59 96.79 186.95 91.77 178.59 87.42"/><path class="cls-20" d="M166.21,69a4,4,0,1,1-4,4A4,4,0,0,1,166.21,69Z"/><path class="cls-20" d="M199.33,69a3.68,3.68,0,1,1-3.68,3.68A3.68,3.68,0,0,1,199.33,69Z"/><polygon class="cls-21" points="179.26 72.03 174.57 91.77 186.95 91.77 182.94 72.03 179.26 72.03"/><polygon class="cls-22" points="167.55 109.17 177.58 102.14 185.28 101.8 195.99 107.83 186.95 105.82 176.91 106.15 167.55 109.17"/><polygon class="cls-22" points="185.28 156 187.29 152.99 192.97 152.66 198.66 154.33 198.33 157.34 191.64 160.02 185.28 156"/><polygon class="cls-2" points="136.43 146.97 155.17 168.38 152.83 144.29 147.14 136.93 136.43 146.97"/><path class="cls-5" d="M157.84,149.65c.67-.34,2-10,2-10L172.56,146l6.36,21.08-11-2.35S157.84,149.31,157.84,149.65Z"/><polygon class="cls-11" points="147.14 136.93 155.17 168.38 167.88 164.7 159.85 139.61 147.14 136.93"/><polygon class="cls-23" points="249.18 279.13 256.88 282.81 226.43 335.33 249.18 279.13"/></g></svg>