<svg id="Layer_1" data-name="Layer 1" xmlns="http://www.w3.org/2000/svg" viewBox="0 0 400 400"><defs><style>.cls-1{fill:#51362a;}.cls-15,.cls-17,.cls-2{fill:#2b2b2b;}.cls-2{fill-opacity:0.15;}.cls-3{fill:#9d7700;}.cls-4{fill:#b48a00;}.cls-5{fill:#f4c9b2;}.cls-6{fill:#c3c3c3;}.cls-7{fill:#846400;}.cls-8{fill:#fce3d4;}.cls-9{fill:#dcdcdb;}.cls-10{fill:#f3d65d;}.cls-11{fill:#e4c728;}.cls-12{fill:#be8e00;}.cls-13{fill:#66483a;}.cls-14{fill:#c1907d;}.cls-15{fill-opacity:0.1;}.cls-16{fill:#ffefe7;}</style></defs><title>explorers_ISFP_famous_fictional_remy_hadley_house_m_d</title><g id="Layer_1-2" data-name="Layer_1"><polygon class="cls-1" points="166.27 150.02 140.14 138.55 146.5 110.9 184.1 124.31 185.21 146.29 166.27 150.02"/><polygon class="cls-2" points="109.31 385.73 200.55 371.22 291.66 385.73 200.41 400.25 109.31 385.73"/><polygon class="cls-3" points="172.35 370.11 170.83 376.33 175.81 385.04 180.51 366.38 176.5 366.38 172.35 370.11"/><polygon class="cls-4" points="134.61 383.38 162.54 385.04 180.51 366.38 176.91 355.18 160.46 374.12 149.26 370.94 134.61 383.38"/><polygon class="cls-5" points="157.97 354.49 149.26 370.94 162.54 385.04 176.91 355.18 171.94 351.31 164.47 351.31 157.97 354.49"/><polygon class="cls-4" points="222.81 356.84 218.25 373.01 226.27 388.08 256.27 386.98 245.76 370.94 232.07 377.16 222.81 356.84"/><polygon class="cls-5" points="226.27 353.66 222.81 356.84 226.27 388.08 245.76 370.94 241.61 356.01 238.43 353.66 226.27 353.66"/><polygon class="cls-6" points="123.41 211.13 137.24 210.44 154.24 186.25 153.13 156.8 123.41 211.13"/><polygon class="cls-6" points="117.05 278.59 139.73 220.67 155.35 216.38 165.85 247.35 142.35 293.8 117.05 278.59"/><polygon class="cls-7" points="183 280.67 157.7 290.2 147.05 258.96 148.57 247.76 169.17 238.36 212.58 248.73 225.99 261.87 206.36 288.68 183 280.67"/><polygon class="cls-7" points="241.61 356.01 222.81 356.84 203.73 320.48 218.11 298.78 233.46 301.68 241.61 356.01"/><polygon class="cls-3" points="231.66 290.9 233.46 301.68 203.73 320.48 183 280.67 217.7 259.38 229.17 268.92 231.66 290.9"/><polygon class="cls-8" points="183.82 140.9 166.68 156.8 175.67 193.85 220.87 166.34 227.1 149.61 221.7 139.52 183.82 140.9"/><polygon class="cls-9" points="148.71 191.64 153.13 156.8 183.82 140.9 172.07 161.91 167.79 177.67 154.24 198.69 148.71 191.64"/><polygon class="cls-6" points="231.66 290.9 212.58 248.73 199.03 235.88 198.06 217.35 224.06 229.93 234.42 212.65 270.5 271.26 231.66 290.9"/><polygon class="cls-6" points="236.22 161.22 222.67 171.31 217.28 188.04 217.28 203.94 214.52 216.94 225.3 235.04 252.39 169.93 236.22 161.22"/><polygon class="cls-9" points="218.11 161.91 199.17 183.62 202.77 201.04 213.55 197.44 217.28 188.04 236.22 161.22 218.11 161.91"/><polygon class="cls-10" points="154.93 193.02 172.07 161.91 183 177.81 218.11 161.91 211.06 179.89 177.6 207.53 154.93 193.02"/><polygon class="cls-9" points="175.67 217.76 168.89 225.64 151.34 227.44 123.41 211.13 141.11 197.72 154.24 198.69 175.67 217.76"/><polygon class="cls-11" points="148.57 247.76 212.58 248.73 202.77 227.17 194.75 210.71 175.67 217.76 151.34 227.44 148.57 247.76"/><polygon class="cls-7" points="176.91 355.18 157.97 354.49 147.33 313.02 161.29 306.79 179.95 318.13 176.91 355.18"/><polygon class="cls-3" points="147.05 258.96 142.35 293.8 147.33 313.02 179.95 318.41 183 280.67 147.05 258.96"/><polygon class="cls-9" points="217.28 203.94 213.82 196.89 202.77 201.04 180.23 197.44 170.55 204.36 175.67 217.76 225.3 235.04 217.28 203.94"/><polygon class="cls-8" points="236.91 191.22 217.28 188.04 213.55 197.44 217.28 203.94 232.49 203.94 236.91 191.22"/><polygon class="cls-5" points="202.77 201.04 217.28 188.04 217.28 195.23 217.28 203.94 202.77 201.04"/><polygon class="cls-12" points="182.31 182.24 196.54 181.54 208.99 185.14 202.77 201.04 180.23 197.44 182.31 182.24"/><polygon class="cls-11" points="186.59 187.35 185.62 188.73 187.42 188.73 184.79 195.23 187.42 195.92 190.88 186.38 186.59 187.35"/><polygon class="cls-11" points="193.78 187.35 192.81 188.73 198.62 188.87 197.1 190.81 193.92 190.81 193.64 192.19 196.54 192.33 196.41 194.95 191.43 193.99 190.19 195.92 199.17 197.58 199.17 193.02 201.94 188.73 199.17 186.52 193.78 187.35"/><polygon class="cls-7" points="183 177.81 182.31 182.24 208.99 185.14 211.06 179.89 183 177.81"/><polygon class="cls-13" points="127.97 87.81 140.14 138.55 147.05 118.92 136.96 85.33 132.4 81.73 127.97 87.81"/><polygon class="cls-1" points="220.87 140.35 239.81 116.02 246.17 93.21 244.24 62.79 232.76 61.83 222.67 75.51 214.65 101.08 220.87 140.35"/><polygon class="cls-5" points="220.87 140.35 190.19 162.05 191.01 48.14 195.16 44.82 199.17 48.41 222.26 88.23 220.87 140.35"/><polygon class="cls-14" points="222.53 79.66 222.04 95.05 209.4 80.35 217.28 76.48 222.53 79.66"/><polygon class="cls-1" points="108.34 64.17 139.03 101.22 136.96 85.33 123.97 67.77 118.85 58.37 108.34 64.17"/><polygon class="cls-13" points="126.18 17.73 108.34 64.17 123.97 67.77 140.83 51.73 145.12 28.51 155.9 22.29 140.56 18.69 126.18 17.73"/><polygon class="cls-13" points="176.5 -0.25 150.23 9.15 142.35 17.73 145.12 28.51 150.92 45.65 165.85 47.45 183 24.08 176.5 -0.25"/><polygon class="cls-8" points="209.4 80.35 208.99 57.95 223.36 57.12 222.53 79.66 209.4 80.35"/><polygon class="cls-14" points="219.04 64.38 222.67 69.41 215.4 75.37 215.09 64.38 219.04 64.38"/><polygon class="cls-11" points="222.53 79.66 218.03 85.76 212.66 80.35 217.5 75.51 222.53 79.66"/><polygon class="cls-1" points="222.67 14.13 176.5 -0.25 165.85 47.45 179.26 53.94 191.01 48.14 199.17 48.41 219.91 39.43 222.67 14.13"/><polygon class="cls-14" points="190.19 162.05 211.75 117.81 193.64 125.69 184.1 124.31 180.37 130.67 190.19 162.05"/><polygon class="cls-1" points="276.73 143.11 251.43 178.23 236.22 142.15 242.44 87.12 276.73 143.11"/><polygon class="cls-13" points="218.11 161.91 220.87 140.35 246.17 93.21 251.43 178.23 218.11 161.91"/><polygon class="cls-1" points="209.4 80.35 199.17 48.41 210.78 54.91 209.4 80.35"/><polygon class="cls-1" points="126.18 17.73 145.12 28.51 150.23 9.15 126.18 17.73"/><polygon class="cls-5" points="141.11 197.72 148.71 191.64 154.93 193.02 160.46 201.04 153.13 204.63 141.11 197.72"/><polygon class="cls-8" points="175.67 217.76 153.13 204.63 154.93 193.02 180.23 197.44 175.67 217.76"/><path class="cls-15" d="M217.42,259.51l-14.65-32.34-27.1-9.41-25.16,10.1,34.15,5.39Zm23.64-35.94L225.3,235l9.26-22.11Zm-23.78-19.63L202.77,201l16.31,9.81,13.41-6.91Z"/><polygon class="cls-8" points="191.01 48.14 207.19 104.54 193.64 125.69 171.52 133.99 147.05 118.92 123.97 67.77 145.12 28.51 165.85 47.45 191.01 48.14"/><polygon class="cls-5" points="144.43 107.31 151.48 116.71 147.88 107.03 144.43 107.31"/><polygon class="cls-5" points="199.17 85.46 194.75 89.2 197.79 101.64 199.17 85.46"/><polygon class="cls-11" points="161.01 111.73 175.12 112.7 187.14 102.47 161.01 111.73"/><polygon class="cls-4" points="171.38 104.68 161.01 111.73 173.32 108.69 187.14 102.47 171.38 104.68"/><polygon class="cls-14" points="166.96 93.21 162.95 96.39 169.45 100.12 172.07 92.93 166.96 93.21"/><path class="cls-5" d="M132.67,78.69l4.43-6.36,13.55-.28,6.22,2.35,5.8,10.37-1,7.33s-14-11.06-14.24-11.61S132.67,78.69,132.67,78.69Z"/><polygon class="cls-5" points="162.26 72.47 164.19 81.73 172.07 92.93 177.19 71.64 185.9 58.37 177.88 57.81 164.61 67.35 162.26 72.47"/><polygon class="cls-16" points="156.87 74.4 162.26 72.47 172.07 92.93 162.95 96.39 156.87 74.4"/><polygon class="cls-1" points="136.13 71.09 132.68 78.69 138.07 73.58 150.65 72.06 148.02 70.4 136.13 71.09"/><polygon class="cls-1" points="166.41 63.62 164.61 67.35 177.47 59.48 185.9 58.37 176.91 56.57 166.41 63.62"/><path class="cls-17" d="M145.47,77.74a3.84,3.84,0,1,1-2.27,4.93A3.84,3.84,0,0,1,145.47,77.74Z"/><path class="cls-17" d="M175.37,66.65a3.84,3.84,0,1,1-2.26,4.94A3.84,3.84,0,0,1,175.37,66.65Z"/><polygon class="cls-13" points="244.24 62.79 222.67 14.13 199.17 48.41 222.67 75.51 244.24 62.79"/></g></svg>