<svg id="Layer_1" data-name="Layer 1" xmlns="http://www.w3.org/2000/svg" viewBox="0 0 400 400"><defs><style>.cls-1,.cls-23{fill:#f4cab2;}.cls-1,.cls-10,.cls-11,.cls-12,.cls-13,.cls-14,.cls-15,.cls-16,.cls-17,.cls-18,.cls-19,.cls-2,.cls-21,.cls-25,.cls-4,.cls-5,.cls-6,.cls-7,.cls-8,.cls-9{fill-rule:evenodd;}.cls-2{fill:#fbe3d4;}.cls-3{opacity:0.1;}.cls-4,.cls-9{fill:#2b2b2b;}.cls-5{fill:#c18f7c;}.cls-6{fill:#92d5d5;}.cls-7{fill:#c1b170;}.cls-8{fill:#9d8d55;}.cls-9{opacity:0.3;}.cls-10{fill:#e1ce7f;}.cls-11{fill:#5ebfd8;}.cls-12{fill:#50a8a9;}.cls-13{fill:#72cbcb;}.cls-14{fill:#318ea5;}.cls-15{fill:#369395;}.cls-16{fill:#185e60;}.cls-17{fill:#fff0e8;}.cls-18{fill:#ebebea;}.cls-19,.cls-22{fill:#1d7678;}.cls-20{opacity:0.15;}.cls-21{fill:#33231b;}.cls-24{fill:none;}.cls-25{fill:#74cee4;}</style></defs><title>sentinels_ISFJ_famous_fictional_pam_beesly_the_office</title><polygon class="cls-1" points="129.15 173.16 113.51 190.1 116.66 193.99 128.94 188.02 131.62 184.88 135.55 177.51 129.15 173.16"/><polygon class="cls-2" points="243.34 286.3 235.49 365.86 229.77 377.97 220.5 366.35 203.56 306.72 243.34 286.3"/><g class="cls-3"><polygon class="cls-4" points="115.08 390.37 193.54 381.43 268.6 390.66 191.93 399.09 115.08 390.37"/></g><polygon class="cls-5" points="171.61 294.18 191.01 303.98 193.02 302.99 194.69 290.32 171.61 294.18"/><polygon class="cls-6" points="149.87 228.19 148.01 221.41 155.18 202.87 159.6 206.51 168.06 234.05 165.26 237.19 157.2 235.61 149.87 228.19"/><polygon class="cls-7" points="175.96 147.44 171.56 149.84 167.1 169.79 182.11 165.67 185.07 154.24 184.29 148.64 175.96 147.44"/><polygon class="cls-8" points="269.91 150.67 231.3 158.45 228.56 161.7 221.86 157.68 218.08 154.71 224.48 147.61 239.1 137.7 246.96 136.37 268.33 145.48 269.91 150.67"/><polygon class="cls-7" points="269.75 132.04 269.91 150.67 243.34 139.19 237.52 133.3 236.03 122.85 239.03 114.75 267.08 126.07 269.75 132.04"/><polygon class="cls-8" points="218.08 154.71 243.34 139.19 239.03 114.75 234.85 116.95 217.95 148.86 218.08 154.71"/><polygon class="cls-9" points="218.08 154.71 243.34 139.19 239.03 114.75 234.85 116.95 217.95 148.86 218.08 154.71"/><polygon class="cls-8" points="286.02 122.26 269.75 132.04 239.03 114.75 277.53 116.13 286.02 122.26"/><polygon class="cls-7" points="277.53 108.27 286.02 122.26 239.03 114.75 269.99 106.54 277.53 108.27"/><polygon class="cls-8" points="286.49 87.36 277.53 108.27 239.03 114.75 275.17 87.12 286.49 87.36"/><polygon class="cls-8" points="251.32 85.06 239.88 107.24 239.03 114.75 286.49 87.36 278.24 82.09 259.53 79.42 255.96 82.47 251.32 85.06"/><polygon class="cls-7" points="261.91 67.45 267.78 67.08 286.49 87.36 255.96 82.47 255.88 74.53 261.91 67.45"/><polygon class="cls-8" points="236.42 53.09 219.27 55.75 243.11 77.93 255.96 82.47 267.78 67.08 268.6 51.42 259.02 49.24 236.42 53.09"/><polygon class="cls-7" points="254.12 29.65 246.26 29.65 217.95 41.5 219.27 55.75 268.6 51.42 254.12 29.65"/><polygon class="cls-7" points="195.87 33.44 195.24 38.78 219.27 55.75 254.12 29.65 221.02 3.42 210.28 10.02 195.87 33.44"/><polygon class="cls-10" points="205.39 8.62 221.02 3.42 195.87 33.44 194.69 25.66 198.49 13.28 205.39 8.62"/><polygon class="cls-8" points="183.52 -0.91 205.39 8.62 195.87 33.44 184.62 25.03 179.28 11.08 183.52 -0.91"/><polygon class="cls-7" points="142.6 34.76 183.52 -0.91 195.87 33.44 191.54 39.18 158.22 52.7 152.56 50.02 147.68 47.98 144.13 42.53 142.6 34.76"/><polygon class="cls-10" points="124.5 83.82 142.6 34.75 152.56 50.02 154.52 55.53 145.87 65.75 124.5 83.82"/><polygon class="cls-8" points="124.5 83.82 145.24 64.97 148.17 69.98 146.97 83.98 144.38 86.67 140.53 90.11 129.52 88.85 124.5 83.82"/><polygon class="cls-7" points="139.12 103.16 124.5 83.82 144.86 86.16 148.07 91.06 149.85 100.32 147.9 103.06 145.56 105.83 140.61 106.07 139.12 103.16"/><polygon class="cls-7" points="131.33 118.72 139.12 103.16 147.9 103.07 150.35 105.67 151.45 114.16 150.21 115.89 147.52 118.72 131.33 118.72"/><polygon class="cls-8" points="146.57 95.66 139.11 103.16 150.21 115.89 153 110.69 151.31 99.99 146.57 95.66"/><polygon class="cls-8" points="154.52 132.04 131.33 118.72 145.43 118.72 152.2 118.29 156.83 126.13 154.52 132.04"/><polygon class="cls-7" points="148.11 147.17 155.18 124.9 162.99 130.71 165.55 137.77 168.67 139.79 155.9 146.07 148.11 147.17"/><polygon class="cls-8" points="185.07 154.24 170.46 154.74 148.11 147.17 163.83 141.53 170.13 140.56 186.08 150.63 185.07 154.24"/><polygon class="cls-8" points="186.08 150.63 185.07 154.24 163.83 141.53 162.99 130.71 181.31 139 186.08 150.63"/><polygon class="cls-9" points="186.08 150.63 185.07 154.24 163.83 141.53 162.99 130.71 181.31 139 186.08 150.63"/><polygon class="cls-11" points="142.14 177.29 135.55 177.51 131.62 179.53 129.15 186.15 132.54 190.84 137.37 198.4 143.56 198.5 145.43 195.75 143.24 193.76 140.8 193.82 136.35 187.58 139.22 181.98 142.44 181.72 144.47 179.27 142.14 177.29"/><polygon class="cls-12" points="220.45 187.27 189.53 188.07 186.44 191.71 188.18 197.86 212.2 224.04 219.72 222.1 226.29 199.22 220.45 187.27"/><polygon class="cls-6" points="224.32 186.75 218 191.24 215.27 217.87 217.15 226.71 224.74 234.37 234.72 235.52 261.31 178.84 250.11 178.04 224.32 186.75"/><polygon class="cls-13" points="159.66 175.51 186.84 154.6 185.5 161.89 193.01 159.95 200.93 162.91 218.08 154.71 227.5 159.5 231.3 158.45 261.31 178.84 218 191.24 186.44 191.71 181.07 191.71 170.58 186.59 169.8 182.83 166.04 177.73 159.66 175.51"/><polygon class="cls-14" points="220.5 366.35 210.89 387.99 235.6 393.33 238.84 387.99 235.49 365.86 226.25 369.57 220.5 366.35"/><polygon class="cls-15" points="165.26 237.19 155.93 263.63 203.56 273.45 247.42 263.63 234.72 235.52 220.93 233.03 174.09 232.92 165.26 237.19"/><polygon class="cls-12" points="155.18 202.87 165.26 237.19 200.1 237.18 202.14 231.21 184.56 199.56 172.89 196.6 157.99 197.74 155.18 202.87"/><polygon class="cls-13" points="234.72 235.52 202.16 241.02 183.55 209.87 185.33 205.19 191.66 199.48 195.72 198.94 234.72 235.52"/><polygon class="cls-16" points="178.71 207.36 182.62 210.72 184.81 208.71 185.18 206.23 182.41 204.23 178.71 207.36"/><polygon class="cls-6" points="183.55 209.87 195.72 198.94 187.98 191.69 183.35 193.3 180.67 199.79 181.36 206.52 183.55 209.87"/><polygon class="cls-13" points="120.31 213.46 139.07 244.3 165.26 237.19 132.03 206.52 129.51 206.99 121.91 210.86 120.31 213.46"/><polygon class="cls-6" points="120.31 213.46 132.03 206.52 129 203.56 127.46 201.78 118.74 202.58 115.27 205.19 120.31 213.46"/><polygon class="cls-16" points="177.74 230.68 181.08 234.24 184.99 231.2 181.44 227.78 177.74 230.68"/><polygon class="cls-16" points="188.97 162.51 191.37 165.67 196.36 162.67 195.53 160.89 193.01 159.95 190.38 160.63 188.97 162.51"/><polygon class="cls-16" points="183.16 183.69 185.56 186.86 189.89 184.4 187.21 181.14 183.16 183.69"/><polygon class="cls-1" points="219.27 55.75 217.96 65.22 208.14 122.36 189.98 140.56 193.01 159.95 204.22 158.43 214.76 156.92 218.08 154.71 239.03 114.75 237.11 103.33 242.48 80.42 219.27 55.75"/><polygon class="cls-5" points="178.18 139.79 183.09 134.18 193.01 139.79 212.39 139.79 202.14 158.99 199.44 162.32 192.3 161.63 187.97 161.06 185.07 154.24 178.18 139.79"/><polygon class="cls-8" points="219.27 55.75 235.84 93.67 242.99 84.27 251.32 85.06 255.96 82.47 219.27 55.75"/><polygon class="cls-9" points="219.27 55.75 235.84 93.67 242.99 84.27 251.32 85.06 255.96 82.47 219.27 55.75"/><polygon class="cls-5" points="242.44 101.33 236.5 101.2 233.71 103.21 239.03 114.75 244.87 103.61 242.44 101.33"/><polygon class="cls-2" points="238.9 79.87 255.96 82.47 244.87 103.61 233.71 103.22 238.9 79.87"/><polygon class="cls-5" points="242.67 86.18 240.12 96.53 248.76 87.02 242.67 86.18"/><polygon class="cls-7" points="229.27 173.06 218.08 154.71 231.3 158.45 229.27 173.06"/><polygon class="cls-2" points="145.24 64.97 145.43 118.72 168.67 139.79 193.01 139.79 216.23 119.5 219.27 55.75 195.87 33.44 176.92 42.56 149.84 60.01 145.24 64.97"/><polygon class="cls-5" points="152.56 50.02 145.24 64.97 195.87 33.44 152.56 50.02"/><polygon class="cls-1" points="177.39 94.66 179.51 98.58 189.1 81.03 204.94 71.81 194.66 68.02 180.88 71.98 179.27 73.59 175.44 78.38 177.39 94.66"/><polygon class="cls-1" points="170.99 78.38 168.56 95.36 167.51 93.1 161.84 81.17 148.65 72.87 155.72 69.36 165.28 71.7 167.26 73.28 170.99 78.38"/><polygon class="cls-8" points="204.94 71.81 195.02 68.19 179.84 70.4 179.27 73.59 195.45 70.52 204.94 71.81"/><polygon class="cls-8" points="167.26 73.28 166.97 70.19 155.12 69.36 148.65 72.87 155.37 71.68 167.26 73.28"/><polygon class="cls-5" points="172.84 104.79 179.51 98.58 166.17 98.79 172.84 104.79"/><polygon class="cls-17" points="179.51 98.58 166.17 98.79 170.99 78.38 175.44 78.38 179.51 98.58"/><polygon class="cls-13" points="173.22 117.73 188.84 110.53 172.58 112.89 163.33 111.55 173.22 117.73"/><polygon class="cls-18" points="155.34 156.36 152.52 161.82 155.88 167.06 155.07 172.41 158.43 166.6 155.34 156.36"/><polygon class="cls-19" points="188.84 110.53 177 110.13 172.4 111.66 168.99 110.53 163.33 111.55 172.83 113.56 188.84 110.53"/><g class="cls-20"><path class="cls-21" d="M181,237.18l-4.42,27.71h4.23l3.84-27.72.39-6,1.25-16.82-2.69-4.51-.93.85-1.13,16.36-.05.7L185,231.2l-3.91,3-.13,2.94m73.51-63-.79,6.85-18.95,54.49v29.25l6.64.18-1-16.1-5.64-13.33,12-25.56,10.51-30,.47-3.63ZM148,221.41l13.65,16.76,3.6-1-5.41-34.31h-4.67l1.83,6.25-5.66,15.26,3.09,2.85,4.5-11.54,2.05,7-2.68,8.11,3,2.8,1.4-5,2.51,8.55S148,221.33,148,221.41m-19.28-12.94,3.3-1.95,25.42,32.79-4.15,1.12Zm-6,3.55,3.43-2,22.31,31.75-5.15,1.4Zm-4.69-2.27,10.69-6.5-13.47,1.94Zm69.4-3.41,19.34,33.9L204.72,265h4.57l2-25.5-21.06-35.65Zm5.45-4.87,2.81-2.53-3.86-3.62L188,191.69l-3.34-1.63.92-3.2,4.33-2.46-2.68-3.26,4.16-15.47,5-3-6.47,21.73L188,191.69l-5.56,12.54,9.43-8.91.52-3.7,7.16-26.37,3.26,2.65-6.2,23.66-.88,7.38,25.19,38.91L219.55,265h-5s1-19.59,1.63-26.33Zm14.75,8.67L226,237c-.28,5.42-1.18,28-1.18,28h4.83l1.3-28.85-15.57-18.83,2.66-26.1,5.41-27.82,3.14,5.15-4,21.38-7.16,27.39-3.72-3.49,2.26-22.55L221.28,160l-3.2-5.24-8.24,36.65Zm37-26.54,1.83-14.82,3.9,2.65-1.3,10.91-16,51.7-3-2.82Zm-9.2,2.64,3.38-22.66,4.09,2.78-2.59,18.48-13,43.74-3.48-3.26Zm-8.35,2.39,4.18-30.18,3.64,2.48-3.64,26.5-10.44,35.09-2.61-2.45ZM169,201.93l-4.61.31.83,34.94-9.33,26.45,6.22.09,7.08-26.57Zm9.79,1.23-1.36,34-4.89,27.7h-4.52l5.67-27.69,0-35.57Zm11.47,18,3.77,6.32-.65,9.69L190,264.93h-4.73l4.07-27.74Zm7.54,12.68-.2,3.33-2.76,27.76h5L202.16,241Zm3.29-42.36,4.92-20.94L212,160.23l-6.74,31.2-1.85,14.71-3.68-3.45Zm-34-21.7,5.24-4-3.08,9.49-4.35.12Zm7.12,15.2,7.25-26.25L177.2,162l-7.4,20.81ZM189,162.51l-5.13,3.24-5.63,21.18,3.57,1.74,1.38-5Z"/></g><path class="cls-4" d="M192.92,81a3.82,3.82,0,1,1-3.82-3.82A3.82,3.82,0,0,1,192.92,81Z"/><path class="cls-4" d="M165.21,81a3.82,3.82,0,1,1-3.82-3.82A3.82,3.82,0,0,1,165.21,81Z"/><polygon class="cls-2" points="157.77 306.72 162.84 362.78 175.45 375.8 177.7 364.85 192.18 306.72 157.77 306.72"/><rect class="cls-22" x="210.89" y="387.99" width="27.95" height="5.33"/><rect class="cls-22" x="141.31" y="382.66" width="36.17" height="5.33"/><polygon class="cls-14" points="177.7 364.85 177.47 382.66 141.31 382.66 147.64 376.81 177.7 364.85"/><polygon class="cls-1" points="217.3 381.79 233.39 381.79 235.49 365.86 220.5 366.35 217.3 381.79"/><polygon class="cls-23" points="147.64 376.81 164.79 377.18 177.7 364.85 162.84 362.78 147.64 376.81"/><polygon class="cls-6" points="178.59 169.16 192.3 161.63 185.07 154.24 178.59 169.16"/><polygon class="cls-6" points="206.04 170.54 192.3 161.63 218.08 154.71 206.04 170.54"/><polygon class="cls-5" points="157.77 306.72 189.57 317.17 192.18 306.72 157.77 306.72"/><polygon class="cls-5" points="241.55 306.72 206.47 317.27 203.56 306.72 241.55 306.72"/><polygon class="cls-14" points="155.93 263.63 157.77 306.72 241.55 306.72 247.42 263.63 155.93 263.63"/><g class="cls-20"><polygon class="cls-21" points="247.42 263.63 155.93 263.63 241.55 306.72 247.42 263.63"/></g><polygon class="cls-12" points="236.55 103.31 240.71 99.6 244.87 103.61 241.36 110.31 236.55 103.31"/><polygon class="cls-1" points="128.94 188.02 131.62 179.53 140.82 185.31 141.12 189.77 132.05 190.87 128.94 188.02"/><polygon class="cls-2" points="113.51 190.1 115.27 205.19 134.43 202.43 131.62 179.53 113.51 190.1"/><polygon class="cls-23" points="163.37 101.87 157.42 104.79 157.42 110.89 163.37 101.87"/><polygon class="cls-23" points="183.92 101.69 195.28 110.89 192.84 104.79 183.92 101.69"/><line class="cls-24" x1="181.36" y1="206.52" x2="202.16" y2="241.02"/><polygon class="cls-25" points="142.06 175.97 143.87 203.12 160.98 202.87 163.32 193.99 167.52 186.81 169.8 182.83 169.26 175.25 142.06 175.97"/><polygon class="cls-2" points="169.68 181.14 167.52 186.81 169.52 196.86 173.69 201.61 181.36 206.52 187.98 191.69 169.68 181.14"/><polygon class="cls-1" points="156.79 187.9 169.68 181.14 173.69 201.61 160.98 202.87 156.79 187.9"/></svg>