<svg id="Layer_1" data-name="Layer 1" xmlns="http://www.w3.org/2000/svg" viewBox="0 0 400 400"><defs><style>.cls-1{fill:#28788b;}.cls-1,.cls-10,.cls-11,.cls-12,.cls-13,.cls-14,.cls-15,.cls-16,.cls-17,.cls-18,.cls-19,.cls-2,.cls-20,.cls-21,.cls-22,.cls-23,.cls-24,.cls-25,.cls-26,.cls-27,.cls-28,.cls-3,.cls-4,.cls-5,.cls-6,.cls-7,.cls-8,.cls-9{fill-rule:evenodd;}.cls-2,.cls-28{fill:#2b2b2b;}.cls-2{opacity:0.1;}.cls-3{fill:#474748;}.cls-4{fill:#4f5353;}.cls-5{fill:#318ea5;}.cls-6{fill:#1d7678;}.cls-7{fill:#3a9fb9;}.cls-8{fill:#185e60;}.cls-9{fill:#369395;}.cls-10{fill:#50a8a9;}.cls-11{fill:#92d5d5;}.cls-12{fill:#72cbcb;}.cls-13{fill:#9b9fa0;}.cls-14{fill:#cecdcc;}.cls-15{fill:#fbe3d4;}.cls-16{fill:#f4cab2;}.cls-17{fill:#6f7273;}.cls-18{fill:#737474;}.cls-19{fill:#5ebfd8;}.cls-20{fill:#c18f7c;}.cls-21{fill:#674837;}.cls-22{fill:#412b23;}.cls-23{fill:#825941;}.cls-24{fill:#51362a;}.cls-25{fill:#66493b;}.cls-26{fill:#fff0e8;}.cls-27{fill:#fff;}</style></defs><title>sentinels_ISFJ_famous_real_anne_hathaway</title><path class="cls-1" d="M218.23,145.16l31.59,7.52s-38.27,9.08-38.27,7.85S218.23,145.16,218.23,145.16Z"/><polygon class="cls-2" points="111.81 377.42 204.36 400 288.19 378.76 207.56 369.87 111.81 377.42"/><polygon class="cls-3" points="210.35 380.86 198.93 389.12 198.91 393.93 231.69 393.34 231.69 389.14 210.35 380.86"/><polygon class="cls-3" points="155.77 380.67 150.87 384.63 150.94 388.96 188.91 388.12 188.91 383.46 186.54 365.31 155.77 380.67"/><polygon class="cls-4" points="169.37 344.87 166.34 348.29 169.34 363.14 150.87 384.63 188.91 383.46 189.12 347.99 187.02 345.08 169.37 344.87"/><polygon class="cls-3" points="168.47 336.25 164.78 342.39 166.34 348.29 189.12 347.99 189.43 342.28 168.47 336.25"/><polygon class="cls-5" points="154.37 306.39 164.78 342.39 189.43 342.28 193.06 289.04 179.42 282.78 178.93 287.29 163.77 277.19 154.37 306.39"/><polygon class="cls-6" points="162.21 294.01 167.4 301.1 154.37 306.39 152.88 300.63 162.21 294.01"/><polygon class="cls-4" points="213.54 363.84 208.12 367.74 198.93 389.12 231.69 389.14 226.48 368.48 213.54 363.84"/><polygon class="cls-4" points="203.81 342.81 202.4 347.24 208.12 367.74 216.17 349.4 210.8 343.25 203.81 342.81"/><polygon class="cls-3" points="202.92 332.3 200.24 340.57 202.4 347.24 216.67 347.04 220.47 332.41 202.92 332.3"/><polygon class="cls-7" points="191.94 275.84 182.55 289.7 200.24 340.57 220.47 339.77 213.63 284.33 191.94 275.84"/><polygon class="cls-6" points="213.9 293.66 201.22 303.56 210.33 309.88 222 314.23 213.9 293.66"/><path class="cls-1" d="M158,283.89l24.59,5.81,40-16.32L209.4,250.06s-53.68,6.54-53,7.67S158,283.89,158,283.89Z"/><path class="cls-8" d="M232.18,281.88l5.53-1.57v6.21l1.54,18.81-19.45.41C219.16,306.75,232.18,281.88,232.18,281.88Z"/><polygon class="cls-6" points="258.99 292.9 255.54 295.8 225.37 303.63 215.3 313.73 247.85 316.17 269.78 300.05 258.99 292.9"/><polygon class="cls-6" points="251.63 283.28 251.57 288.76 255.54 295.8 269.78 300.05 264.06 285.34 254.53 273.22 251.63 283.28"/><polygon class="cls-8" points="209.04 258.51 200.32 265.22 201.22 303.56 214.77 303.32 236.62 275.18 236.26 271.54 235.59 256.39 209.04 258.51"/><polygon class="cls-9" points="219.49 315.07 225.98 312.9 269.78 300.05 277.39 347.27 227.65 369.87 219.49 315.07"/><polygon class="cls-10" points="221.47 303.21 210.33 309.88 208.12 367.74 227.65 369.87 225.98 312.9 221.47 303.21"/><polygon class="cls-11" points="244.42 271.21 236.26 271.54 210.33 309.88 225.98 312.9 237.71 286.52 244.98 278.81 244.42 271.21"/><polygon class="cls-12" points="243.37 271.25 236.26 271.54 237.74 286.49 244.98 278.81 244.54 272.92 243.37 271.25"/><polygon class="cls-8" points="162.15 255.83 166.12 264.21 167.4 301.1 143.04 300.32 147.96 264.3 162.15 255.83"/><polygon class="cls-12" points="162.6 249.01 166.12 264.21 181.16 262.07 200.32 265.22 212.34 219.84 164.06 220.81 162.6 249.01"/><path class="cls-13" d="M164.47,257.11l1.65,7.11,34.2,1,1.9-7.17C191.8,257.77,171.16,257.21,164.47,257.11Z"/><path class="cls-14" d="M174.05,264.45l14.77.43-.94-7.21-13.78-.36C174.1,259.35,174.08,262,174.05,264.45Z"/><path class="cls-11" d="M159.24,220.85c-.1-.68,11.8,3.57,11.8,3.57l28.39.67,22.75-22-1.35-15.2L152,193.13Z"/><path class="cls-12" d="M223.35,197.54c-.9.67-46.84,14.2-46.84,14.2l-8.71-4.48-4.63,7.33-6.44-16,1.45-11.74,67.85.9Z"/><polygon class="cls-6" points="248.22 215.03 235.59 256.39 200.32 265.22 222.4 208.1 245.09 203.75 248.22 215.03"/><path class="cls-8" d="M208.37,241.47c1,.38-8.05,23.75-8.05,23.75l39.51-48.3,4.87-7.31-17.33-7.93Z"/><polygon class="cls-15" points="255.6 255.67 245.16 261.41 236.26 271.54 242.63 276.68 247.94 282.33 264.06 285.34 263.25 265.87 255.6 255.67"/><polygon class="cls-16" points="242.63 276.68 237.71 286.52 251.57 288.76 264.06 285.34 242.63 276.68"/><polygon class="cls-6" points="253.08 210.23 247.64 227.58 245.16 261.41 263.25 265.87 270.74 222.3 253.08 210.23"/><polygon class="cls-8" points="252.41 174.24 260.68 174.57 270.74 222.3 247.64 227.58 232.03 206.25 228.94 183.18 252.41 174.24"/><polygon class="cls-6" points="239.83 216.92 235.59 211.12 242.02 194.3 251.29 190.89 239.83 216.92"/><polygon class="cls-10" points="210.83 216.49 199.43 225.09 200.32 265.22 223.01 227.33 210.83 216.49"/><polygon class="cls-6" points="133.14 222.41 130.24 227.08 135.32 242.06 158.07 235.15 149.35 218.05 133.14 222.41"/><polygon class="cls-17" points="161.98 219.73 170.69 227.25 166.12 264.21 153.21 264.28 142.59 261.76 138.72 226.39 161.98 219.73"/><polygon class="cls-18" points="162.78 220.14 171.04 224.42 170.69 227.25 138.72 226.39 138.4 223.42 158.37 220.29 162.78 220.14"/><polygon class="cls-3" points="147.06 239.74 158.52 237.28 153.21 264.28 142.87 264.33 147.06 239.74"/><polygon class="cls-3" points="158.07 210.9 163.17 214.59 171.04 224.42 138.4 223.42 143.43 208.33 158.07 210.9"/><polygon class="cls-8" points="146.22 176.25 144.37 175.38 130.24 227.08 138.4 223.42 147.38 214.59 157.23 185.97 146.22 176.25"/><polygon class="cls-9" points="158.74 191 163.17 214.59 147.38 214.59 140.72 188.73 154.07 187.9 158.74 191"/><polygon class="cls-5" points="231.17 183.63 236.37 189.83 260.68 174.57 251.8 169.04 231.17 183.63"/><polygon class="cls-9" points="220.78 189.1 219.5 193.73 213.98 200.55 199.43 225.09 223.01 227.33 251.29 190.89 236.37 189.83 220.78 189.1"/><polygon class="cls-1" points="225.99 182.65 236.37 189.83 213.98 200.55 217.06 195.38 225.99 182.65"/><polygon class="cls-19" points="157.23 185.97 153.18 187.96 144.37 175.38 150.04 159.31 157.51 167.75 157.23 185.97"/><polygon class="cls-7" points="180.76 197.04 176.46 207.04 153.18 187.96 154.4 173.51 180.26 176.81 180.76 197.04"/><polygon class="cls-5" points="236.93 173.06 236.37 189.83 176.46 207.04 174.89 185.47 234.47 167.59 236.93 173.06"/><polygon class="cls-1" points="219.44 159.31 249.82 152.69 251.8 169.04 236.37 189.83 228.66 172.28 219.44 159.31"/><polygon class="cls-19" points="228.66 172.28 249.82 152.69 226.47 153.1 188.94 140.23 204.53 160.49 228.66 172.28"/><polygon class="cls-7" points="164.5 168.81 174.89 185.47 228.66 172.28 189.14 152.97 164.5 168.81"/><polygon class="cls-5" points="181.02 155.94 182.7 167.09 174.89 185.47 154.4 173.51 150.04 159.31 173.24 151.12 181.02 155.94"/><polygon class="cls-20" points="165.72 139.19 182.54 167.61 206.4 160.38 219.72 142.82 196.31 136.72 165.72 139.19"/><path class="cls-16" d="M233.6,114.85l1.41,3.5-8.54,34.75-20.07,7.28,6.71-15.93-17.37-.25s-9-101.23-8.35-97.63S222,29.64,222,29.64Z"/><polygon class="cls-21" points="227.55 84.32 219.87 84.32 220.51 70.19 231.65 56.86 227.55 84.32"/><polygon class="cls-20" points="235.92 95.5 238.67 103.74 235.01 118.35 225.41 103.74 235.92 95.5"/><polygon class="cls-21" points="246.19 61.34 254.89 68.18 238.67 103.74 236.03 61.13 246.19 61.34"/><polygon class="cls-15" points="235.62 66.73 225.63 76.26 225.41 103.74 238.67 103.74 243 77.45 235.62 66.73"/><polygon class="cls-22" points="239.35 35.44 254.89 34.81 254.89 68.18 243 77.45 225.63 76.26 232.51 41.03 239.35 35.44"/><polygon class="cls-23" points="227.12 17.61 237.9 21.76 254.89 34.81 233.96 54.09 209.72 26.73 227.12 17.61"/><polygon class="cls-24" points="217.18 30.05 215.03 45.62 221.23 54.44 220.51 70.19 233.96 54.09 224.79 35.34 219.87 25.28 217.18 30.05"/><polygon class="cls-23" points="205.36 1.45 223.87 1.7 237.9 21.76 224.76 35.46 215.03 45.62 187.96 14.3 205.36 1.45"/><path class="cls-21" d="M237.9,21.76l-13.14,13.7L215,45.62,194.35,21.69l3.24-3.09Z"/><polygon class="cls-21" points="153.97 20.1 119.26 33.26 157.29 0 223.87 1.7 197.59 18.6 153.97 20.1"/><path class="cls-22" d="M175.73,24.66l21.86-6.06-41.13-5.75-37.2,20.41,7.85,5.82,8.48-1.83s5.06,7.61,8.66,12.6Z"/><path class="cls-25" d="M119.26,33.26l10.49,28.19,14.5-11.6c-3.6-5-8.66-12.6-8.66-12.6Z"/><polygon class="cls-23" points="196.56 48.65 215.03 45.62 197.59 18.6 166.3 19.02 156.98 28.34 136.05 40.15 149.1 57.15 196.56 48.65"/><polygon class="cls-15" points="135.59 37.25 129.75 61.45 133.93 118.35 158.87 143.94 195.74 144.21 213.14 118.78 215.03 45.62 182.05 27.93 141.85 42.85 156.98 28.34 135.59 37.25"/><polygon class="cls-16" points="167.4 71.81 164.39 75.55 161.81 71.81 155.38 65.49 141.73 56.87 133.93 60.62 145.95 76.45 158.42 99.65 166.15 91.96 170.76 99.88 184 76.69 205.26 57.77 192 54.92 176.33 65.07 167.4 71.81"/><polygon class="cls-10" points="151.49 113.15 145.32 111.49 159.83 128.07 178.48 128.07 197.85 110.45 184.02 115.02 151.49 113.15"/><polygon class="cls-6" points="145.32 111.49 151.23 114.39 163.97 116.77 188.63 115.63 189.43 115.18 197.85 110.45 187.91 112.42 165.42 109.42 152.8 111.67 145.32 111.49"/><polygon class="cls-20" points="162.16 97.19 158.42 99.65 164.85 104.18 170.76 99.88 162.16 97.19"/><polygon class="cls-4" points="173.51 61.12 192.21 53.1 205.68 56.01 205.26 57.77 192.52 56.21 176.33 65.07 173.51 61.12"/><polygon class="cls-4" points="157.35 61.24 155.38 65.49 139.73 58.55 133.93 60.62 133.21 59.27 139.63 55.44 157.35 61.24"/><polygon class="cls-26" points="161.81 71.81 158.42 99.65 170.76 99.88 167.4 71.81 161.81 71.81"/><polygon class="cls-27" points="151.23 114.39 166 113.98 186.8 115.39 188.63 115.63 176.02 123.48 162.3 123.39 151.23 114.39"/><polygon class="cls-20" points="231.16 82.02 238.36 82.38 230.65 95.94 231.16 82.02"/><polygon class="cls-11" points="231.35 100.35 231.05 109.8 236.12 107.91 236.32 101.18 231.35 100.35"/><polygon class="cls-15" points="150.47 260.42 142.87 264.33 138.14 243.98 139.45 233.01 158.52 237.28 150.47 260.42"/><polygon class="cls-16" points="139.45 233.01 135.32 242.06 142.87 264.33 139.45 233.01"/><polygon class="cls-11" points="256.38 309.71 249.67 311.83 247.33 317.42 247.88 322.23 250.79 321.67 253.59 343.36 251.18 344.42 252.6 352.09 265.31 346.02 264.11 339.35 261.3 340.34 256.38 309.71"/><path class="cls-28" d="M148.11,81.35a4.9,4.9,0,1,0-4.9-4.9A4.92,4.92,0,0,0,148.11,81.35Z"/><path class="cls-28" d="M185.08,81a4.92,4.92,0,1,0-4.92-4.92A4.93,4.93,0,0,0,185.08,81Z"/><polygon class="cls-16" points="201.48 108.05 200.54 119.92 205.87 111.86 201.48 108.05"/><polygon class="cls-16" points="143.79 109.22 144.73 121.09 139.4 113.03 143.79 109.22"/><polygon class="cls-6" points="251.29 190.89 251.8 180.15 236.37 189.83 251.29 190.89"/></svg>