<svg id="Layer_1" data-name="Layer 1" xmlns="http://www.w3.org/2000/svg" viewBox="0 0 400 400"><defs><style>.cls-1{opacity:0.1;}.cls-2{fill:#2b2b2b;}.cls-10,.cls-11,.cls-12,.cls-13,.cls-14,.cls-15,.cls-16,.cls-17,.cls-18,.cls-19,.cls-2,.cls-20,.cls-21,.cls-22,.cls-24,.cls-3,.cls-4,.cls-5,.cls-6,.cls-7,.cls-8,.cls-9{fill-rule:evenodd;}.cls-3{fill:#bf9c83;}.cls-4{fill:#369496;}.cls-5{fill:#185e60;}.cls-6{fill:#835941;}.cls-7{fill:#308fa6;}.cls-8{fill:#3aa0ba;}.cls-9{fill:#28788c;}.cls-10{fill:#74cfe4;}.cls-11{fill:#1d7678;}.cls-12,.cls-23{fill:#a77e62;}.cls-13{fill:#4fa9aa;}.cls-14{fill:#72cbcc;}.cls-15{fill:#94d5d5;}.cls-16{fill:#35291b;}.cls-17{fill:#605044;}.cls-18{fill:#74665b;}.cls-19{fill:#46382d;}.cls-20{fill:#554537;}.cls-21{fill:#8e7e73;}.cls-22{fill:#c9ad9c;}.cls-24{fill:#fff;}</style></defs><title>sentinels_ISFJ_famous_real_halle_berry</title><g class="cls-1"><polygon class="cls-2" points="109.53 389.14 200.35 377.37 278.86 392.32 197.86 400 109.53 389.14"/></g><polygon class="cls-3" points="232.64 359.7 229.78 366.47 226.84 374.21 228.04 377.69 225.24 378.45 221.73 387.67 252.62 388.68 250.41 378.35 248.06 377.29 248.52 374.2 244.78 366.04 232.64 359.7"/><polygon class="cls-4" points="226.84 374.21 225.24 378.45 233.99 388.03 242.5 388.28 250.41 378.35 248.52 374.2 238.6 381.62 226.84 374.21"/><polygon class="cls-5" points="273.2 279.11 275.51 293.12 279.05 304.19 288.62 295.92 283.51 288.08 273.2 279.11"/><polygon class="cls-3" points="168.82 357.58 161.06 360.95 142.75 373.58 143.3 375.93 139.71 375.69 127.32 384.24 173.76 382.6 175.24 365.86 168.82 357.58"/><path class="cls-4" d="M142.75,373.58l-3,2.11,7.71,7.84L163,383c-4.88-2.31-15.1-7-20.29-9.4"/><polygon class="cls-3" points="226.38 302.25 215.02 315.85 222.11 340.18 236.13 356.18 247.05 340.95 248.87 320.83 226.38 302.25"/><path class="cls-6" d="M248.87,320.83l1.62-12.26L248,304.91c-14,4.54-32.29,13.21-32.29,13.21Z"/><polygon class="cls-3" points="186.71 301.44 176.2 306.48 169.75 329.69 173.34 353.33 192.83 342.04 210.49 318.12 186.71 301.44"/><polygon class="cls-6" points="210.49 318.12 197.2 310.72 176.2 306.48 206.49 323.53 210.49 318.12"/><polygon class="cls-7" points="206 278.88 184.31 277.31 176.2 306.48 210.49 318.12 214.31 313.73 206 278.88"/><polygon class="cls-8" points="212.96 290.48 210.4 301.93 215.68 318.12 250.49 308.57 254.03 272.98 212.96 290.48"/><polygon class="cls-9" points="247.64 257.44 210.86 255.83 196.94 255.15 189.44 258.42 184.31 277.31 210.4 301.93 254.03 272.98 247.64 257.44"/><polygon class="cls-10" points="205.8 245.34 191.44 250.37 189.44 258.42 247.64 257.44 244.95 250.86 205.8 245.34"/><polygon class="cls-11" points="263.91 321.76 274.48 341.06 300.55 318.32 293.17 304.45 264.93 303.93 263.91 321.76"/><polygon class="cls-7" points="270.86 318.53 267.49 309.16 269.81 302.28 288.62 295.92 294.9 307.7 270.86 318.53"/><polygon class="cls-4" points="266.12 274.54 259.39 277.43 250.96 332.39 274.48 341.06 268.43 290.76 267.24 278.83 266.12 274.54"/><polygon class="cls-3" points="267.24 268.08 263.87 275.75 267.24 278.83 272.26 288.47 283.51 288.08 283.11 265.01 275.37 261.63 267.24 268.08"/><polygon class="cls-12" points="267.24 278.83 268.71 293.12 275.51 293.12 283.51 288.08 267.24 278.83"/><polygon class="cls-12" points="261.95 214.18 258.24 235.9 267.24 268.08 283.11 265.01 280.78 229.01 261.95 214.18"/><polygon class="cls-3" points="250.02 181.14 259.26 176.44 265.36 181.14 280.78 229.01 258.24 235.9 251.59 216.84 250.02 181.14"/><polygon class="cls-12" points="124.56 214.44 132.05 202.46 119.61 197.42 115.9 200.7 123.98 209.92 124.56 214.44"/><polygon class="cls-3" points="137.81 212.78 134.45 218.77 111.45 222.83 107.79 213.89 116.61 211.98 132.05 202.46 137.81 212.78"/><polygon class="cls-12" points="167.1 229.25 161.19 232.58 134.29 218.69 132.05 202.46 174.84 211.65 167.1 229.25"/><polygon class="cls-3" points="190.73 212.63 175.25 199.34 161.19 232.58 177.9 241.57 197.25 215.18 190.73 212.63"/><polygon class="cls-4" points="185.3 191.81 175.25 199.34 191.44 250.37 244.95 250.86 251.59 216.84 185.3 191.81"/><path class="cls-13" d="M202.64,168.75l-1.79-1.92-9.56,1.56-16,31,76.34,17.5,7.67-40.4s-18.6-12.82-17.26-12.5-39.36,4.81-39.36,4.81"/><path class="cls-14" d="M246.78,167.69S229,181.32,217.35,190.51c-5.54,4.38-9.69,7.75-9.87,8.17-.53,1.3.42-9.14.42-9.14l31.68-29.25,2.33,3.73Z"/><polygon class="cls-15" points="200.85 166.83 196.07 167.61 207.39 198.8 208.52 191.53 200.85 166.83"/><polygon class="cls-12" points="256.13 112.5 262.45 117.59 242 163.94 227.6 175.81 208.52 191.53 204.27 177.84 223.11 79.35 252.32 68.04 252.63 105.77 256.13 112.5"/><polygon class="cls-6" points="196.57 153.88 200.85 166.83 204.27 177.84 234.2 153.88 196.57 153.88"/><path class="cls-6" d="M249.8,113.58,257.41,129l5-11.41s-11.44-6.3-10.95-6.74Z"/><polygon class="cls-16" points="262.29 70.33 272.93 86.34 270.57 96.38 252.63 105.77 246.45 103.5 242.81 75.77 262.29 70.33"/><polygon class="cls-17" points="259.99 48.41 278.57 62.25 272.93 86.34 242.81 75.77 232.84 64.61 259.99 48.41"/><polygon class="cls-18" points="242.26 28.95 256.92 30.42 278.57 62.25 239.58 65.79 225.39 44 242.26 28.95"/><polygon class="cls-19" points="215.5 17.17 206.39 0 256.92 30.42 231.87 34.67 215.5 17.17"/><polygon class="cls-20" points="229.99 22.9 237.15 25.68 256.92 30.42 231.78 39.74 203.75 33.69 229.99 22.9"/><polygon class="cls-17" points="193.86 22.08 201.33 15.43 206.39 0 231.32 30.53 211.71 33.9 193.86 22.08"/><polygon class="cls-19" points="243.66 7.36 245.77 25.98 228.21 33.02 243.66 7.36"/><path class="cls-18" d="M211.54,33.79c.53-.45,32.12-26.43,32.12-26.43L233.9,30.17Z"/><polygon class="cls-19" points="259.25 18.15 256.92 30.42 234.93 43.34 240.64 30.4 259.25 18.15"/><polygon class="cls-19" points="182 15.78 179.72 4.91 201.79 14.01 211.71 33.9 182 15.78"/><polygon class="cls-19" points="186.53 23.55 155.35 24.7 186.53 60.35 208.01 45.8 186.53 23.55"/><polygon class="cls-21" points="190.39 24.65 179.72 4.91 174.43 24.19 190.84 47.64 190.39 24.65"/><polygon class="cls-21" points="183.13 58.55 182.46 50.42 175.67 36.92 155.35 24.7 163.32 47 164.59 59.41 183.13 58.55"/><polygon class="cls-17" points="195.72 54.12 190.84 47.64 175.67 36.92 154.5 51.27 167.01 56.09 170.05 55.84 176.94 61.83 195.72 54.12"/><polygon class="cls-21" points="154.5 51.27 160.92 68.41 176.94 61.83 170.05 55.84 154.5 51.27"/><polygon class="cls-17" points="215.34 47.1 211.71 33.9 179.72 4.91 190.84 47.64 215.34 47.1"/><path class="cls-21" d="M191,57.25l-.12-9.61L211.71,33.9l16.82,2.6,6.4,6.84L229.1,49.7l-8,4.24,3.14,17.74,13.74.45L234.2,86.84Z"/><path class="cls-19" d="M234.93,43.34l7.89,32.43L238,72.13l-13.74-.45-3.14-17.74Z"/><polygon class="cls-3" points="160.92 68.41 162.07 126.48 182.19 153.88 211.32 153.88 232.45 133.01 242.81 75.77 221.08 53.94 190.84 47.64 170.05 55.84 160.92 68.41"/><polygon class="cls-11" points="187.2 136.13 198.7 136.13 209.79 127.37 177.08 126.96 187.2 136.13"/><polygon class="cls-6" points="191.82 110.85 185.76 113.63 190.95 118.7 195.67 113.56 191.82 110.85"/><polygon class="cls-22" points="188.82 94.38 189.28 101.25 185.76 113.63 195.67 113.56 193.44 101.58 194.82 94.38 188.82 94.38"/><path class="cls-5" d="M124.93,382.44l51.3-1.23-.08,5.65-50.88.65s-.13-5.08-.34-5.07"/><polygon class="cls-5" points="219.01 386.2 257.52 386.53 257.03 392.09 219.01 392.09 219.01 386.2"/><polygon class="cls-17" points="184.7 85.33 171.87 85.33 166.75 90.21 168.2 92.16 172.72 88.75 185.76 90.15 184.7 85.33"/><polygon class="cls-17" points="259.25 18.15 211.71 33.9 234.93 43.34 259.25 18.15"/><polygon class="cls-23" points="267.24 268.08 267.24 278.83 259.39 277.43 267.24 268.08"/><polygon class="cls-12" points="220.8 91.42 210.35 97.89 195.67 113.56 193.44 101.58 194.82 94.38 198.37 89.92 214.89 86.84 220.8 91.42"/><polygon class="cls-12" points="185.76 90.15 188.82 94.38 189.28 101.25 187.47 107.64 168.2 92.16 172.72 88.75 185.76 90.15"/><path class="cls-2" d="M212.09,95.2a3.91,3.91,0,1,1-3.91-3.91A3.91,3.91,0,0,1,212.09,95.2Z"/><path class="cls-2" d="M180.71,95.51a3.91,3.91,0,1,1-3.91-3.91A3.91,3.91,0,0,1,180.71,95.51Z"/><polygon class="cls-3" points="257.08 92.38 270.57 96.38 262.45 117.59 249.8 113.58 257.08 92.38"/><polygon class="cls-17" points="200 85.52 215.66 84.88 222.34 89.89 220.8 91.42 214.4 88.05 198.37 89.92 200 85.52"/><polygon class="cls-6" points="256.13 109.67 258.95 100 265.28 101.61 256.13 109.67"/><polygon class="cls-12" points="204.27 116.13 211.32 125.25 211.32 133.75 215.06 126.63 220.8 121.75 214.91 122.21 204.27 116.13"/><polygon class="cls-12" points="181.05 117.59 176.88 124.13 176.88 132.38 172.72 125.75 167.45 119.93 174.25 121.88 181.05 117.59"/><polygon class="cls-24" points="182.38 127.33 185.76 132 198.64 132 203.39 127.94 182.38 127.33"/><polygon class="cls-5" points="191.69 124.86 187.27 123.42 177.08 126.96 191.4 127.94 209.79 127.37 197.19 123.55 191.69 124.86"/><polygon class="cls-12" points="116.61 211.98 97.78 203.5 97.78 215.33 111.45 222.83 116.61 211.98"/><polygon class="cls-12" points="169.75 329.69 161.06 360.95 175.24 365.86 192.83 342.04 169.75 329.69"/><polygon class="cls-12" points="222.11 340.18 229.78 366.47 244.78 366.04 247.05 340.95 222.11 340.18"/><polygon class="cls-12" points="139.71 375.69 127.32 375.25 130.1 382.31 145.85 381.94 139.71 375.69"/><polygon class="cls-12" points="232.42 386.31 219.01 386.2 225.24 378.45 232.42 386.31"/><polygon class="cls-12" points="250.41 378.35 254.15 386.5 243.92 386.5 250.41 378.35"/></svg>