<svg id="Layer_2" data-name="Layer 2" xmlns="http://www.w3.org/2000/svg" viewBox="0 0 400 400"><defs><style>.cls-1,.cls-15{fill:#2b2b2b;}.cls-1{opacity:0.1;}.cls-2{fill:#f4cab2;}.cls-3{fill:#c18f7c;}.cls-4{fill:#fbe3d4;}.cls-5{fill:#28788b;}.cls-6{fill:#737474;}.cls-7{fill:#318ea5;}.cls-8{fill:#9b9fa0;}.cls-9{fill:#dcdcdb;}.cls-10{fill:#848585;}.cls-11{fill:#8b2c40;}.cls-12{fill:#c3c3c3;}.cls-13{fill:#3a9fb9;}.cls-14{fill:#ebebea;}.cls-16{fill:#4f5353;}.cls-17{fill:#8e8e8e;}.cls-18{fill:#fff0e8;}</style></defs><title>sentinels_ISFJ_famous_fictional_captain_america</title><polygon class="cls-1" points="100.46 391.7 174.77 400 259.09 400 293.64 391.19 197.19 372.98 100.46 391.7"/><polygon class="cls-2" points="248.42 46.28 239.47 26.04 209.79 28.04 192.94 116.25 172.97 127.69 174.16 132.23 171.41 141.47 211.01 148.73 220.62 132.39 229.96 104.69 229.52 88.83 241.37 69.6 248.42 46.28"/><polyline class="cls-3" points="203.78 134.32 166.53 127.09 163.76 136.55 173.82 148.73"/><polygon class="cls-4" points="239.47 26.04 204.59 0.57 153.14 3.99 129.21 34.03 132.82 102.98 153.42 135.47 186.19 135.71 214.5 107.98 223.93 36.88 239.47 26.04"/><polygon class="cls-3" points="229.96 104.69 220.2 89.91 229.52 88.83 233.94 92.87 229.96 104.69"/><polygon class="cls-4" points="225.78 66.73 220.2 89.91 233.94 92.87 241.37 69.6 225.78 66.73"/><polygon class="cls-3" points="229.23 73.13 227.34 82.28 234.83 73.76 229.23 73.13"/><polygon class="cls-5" points="186.57 273.08 143.79 245.08 234.26 241.88 186.57 273.08"/><polygon class="cls-6" points="143.79 245.08 143.79 232.27 166.31 231.47 166.31 244.49 143.79 245.08"/><polygon class="cls-7" points="229.92 171.93 214.67 199.15 139.79 196.75 142.12 179.14 229.92 171.93"/><polygon class="cls-8" points="166.31 244.49 166.31 231.47 171.75 230.47 171.75 234.99 169.03 236.43 169.03 239.31 171.75 239.96 171.75 244.31 166.31 244.49"/><polygon class="cls-9" points="171.75 230.47 184.17 230.51 184.17 243.91 171.75 244.31 171.75 239.96 169.03 239.31 169.03 236.43 171.75 234.99 171.75 230.47"/><polygon class="cls-10" points="184.17 230.51 184.17 243.91 234.26 241.88 232.74 228.43 184.17 230.51"/><polygon class="cls-11" points="143.79 232.27 139.79 196.75 140.7 189.89 155.41 193.06 157.05 231.87 143.79 232.27"/><polygon class="cls-12" points="157.05 231.87 155.41 193.06 167.4 188.58 169.03 217.4 180.25 216.92 180.25 187.14 197.46 191.14 195.96 230 203.22 229.73 204 198.67 209.22 195.63 214.67 199.15 214.67 229.2 157.05 231.87"/><polygon class="cls-11" points="169.03 222.4 167.4 188.58 171.75 182.5 180.25 187.14 180.25 221.92 169.03 222.4"/><polygon class="cls-11" points="195.96 230 194.73 190.51 207.26 186.02 217.5 190.66 209.22 195.63 204 198.67 203.22 229.73 195.96 230"/><polygon class="cls-13" points="229.92 171.93 142.12 179.14 147.79 160.08 160.93 144.39 168.28 151.28 190.17 150.48 220.62 138.47 229.92 171.93"/><polygon class="cls-5" points="220.62 138.47 220.62 132.39 190.17 140.71 170.35 140.71 163.76 136.55 160.93 137.67 160.93 144.39 168.28 151.28 190.17 150.48 220.62 138.47"/><polygon class="cls-8" points="240.68 142.59 220.62 138.47 229.92 171.93 214.67 199.15 241.47 172.73 240.68 142.59"/><polygon class="cls-8" points="160.93 144.39 144.38 146.73 133.19 181.06 139.79 196.75 142.12 179.14 160.93 144.39"/><polygon class="cls-7" points="240.68 142.59 257.94 150.24 241.47 172.73 240.68 142.59"/><polygon class="cls-5" points="257.94 150.24 280.9 207.02 229.07 184.95 241.47 172.73 257.94 150.24"/><polygon class="cls-7" points="133.19 181.06 115.25 193.63 128.83 212.6 140.16 213.88 141.22 209.5 139.79 196.75 133.19 181.06"/><polygon class="cls-13" points="115.25 193.63 118.54 166.57 129.19 152.32 144.38 146.73 133.19 181.06 115.25 193.63"/><polygon class="cls-5" points="140.16 213.88 131.77 232.68 128.82 229.89 116.95 226.9 103.82 224.85 115.25 193.63 128.83 212.6 140.16 213.88"/><polygon class="cls-13" points="131.77 232.68 123.12 243.99 121.46 248.17 120.73 258.4 110.02 257.04 108.36 265.3 114.75 273.82 98.68 270.65 93.71 262.3 94.35 251.64 102.04 243.82 103.46 238.97 103.82 224.85 115.67 222.82 128.57 226.07 131.77 232.68"/><polygon class="cls-5" points="124.35 230.86 118.91 239.99 123.12 243.99 121.46 248.17 117.01 246.08 119.36 250.33 108.78 248.17 104.17 244.17 102.04 243.82 103.46 238.97 109.85 238.97 112.35 227.5 124.35 230.86"/><polygon class="cls-2" points="110.02 257.04 108.36 265.3 114.75 273.82 126 268.64 120.73 258.4 110.02 257.04"/><polygon class="cls-5" points="120.73 258.4 119.36 250.33 108.78 248.17 110.02 257.04 120.73 258.4"/><polygon class="cls-4" points="120.73 258.4 121.25 267.94 113.15 266.86 110.02 257.04 120.73 258.4"/><polygon class="cls-5" points="114.75 273.82 108.36 265.3 93.71 262.3 98.68 270.65 114.75 273.82"/><polygon class="cls-5" points="144.04 325.79 145 340.92 149.64 344.16 179.66 340.92 183.42 336.83 184.73 300.22 143.81 298.77 144.04 325.79"/><polygon class="cls-14" points="178.94 160.72 175.24 154.64 170.01 161.69 160.53 163.8 166.31 167.61 164.13 175.93 173.71 170.01 183.9 173.82 181.78 165.29 189.35 160.28 178.94 160.72"/><polygon class="cls-7" points="143.79 245.08 143.81 298.77 184.73 300.22 186.57 273.08 143.79 245.08"/><polygon class="cls-13" points="143.81 298.77 158.61 299.46 168.43 310.78 164.18 325.31 144.04 325.79 143.81 298.77"/><polygon class="cls-15" points="160.59 381.76 137.96 386.34 130.12 375.14 126.3 376.82 129.57 390.18 160.59 389.19 163.15 385.83 166.96 389.19 182.37 389.19 184 380.83 160.59 381.76"/><polygon class="cls-16" points="184 380.83 184 377.42 142.14 371.98 139.54 374.3 135.45 372.66 130.12 375.14 137.96 386.34 184 380.83"/><polygon class="cls-17" points="163.15 385.83 184 377.42 179.38 355.93 179.66 340.92 149.64 344.16 154.23 362.66 151.5 366.1 142.14 371.98 150.24 373.38 163.15 385.83"/><polygon class="cls-7" points="186.57 273.08 234.26 241.88 239.35 302.98 220.72 301.18 209.22 295.89 199.64 297.09 197.19 300.22 186.57 273.08"/><polygon class="cls-13" points="197.19 300.22 199.64 297.09 209.22 295.89 220.72 301.18 223.17 323.39 202.48 324.35 197.19 300.22"/><polygon class="cls-5" points="220.72 301.18 239.35 302.98 239.35 308.86 248.91 339.24 242.87 343.08 212.01 346.47 205.48 342.6 202.48 324.35 223.17 323.39 220.72 301.18"/><polygon class="cls-17" points="212.01 346.47 220.72 361.33 220.72 376.75 228.56 374.67 234.26 374.67 246.21 379.19 241.63 369.74 242.87 343.08 212.01 346.47"/><polygon class="cls-16" points="214.58 392.31 220.72 376.75 228.56 374.67 234.26 374.67 246.21 379.19 251.37 392.31 214.58 392.31"/><polygon class="cls-15" points="214.58 392.31 214.58 396.28 252.02 396.28 251.37 392.31 248.83 392.31 246.21 386.12 221.52 386.12 218.1 392.31 214.58 392.31"/><polygon class="cls-3" points="158.38 85.28 182.25 85.28 170.46 91.83 158.38 85.28"/><polygon class="cls-4" points="213.85 72.16 137.47 72.16 135.47 44.42 213.85 44.42 213.85 72.16"/><polygon class="cls-2" points="138.02 63.46 154.67 59.34 162.05 80.71 170.9 56.57 180.51 81.22 189 59.47 207.33 62.01 212.42 54.6 189.66 41.55 153.95 41.55 135.58 48.16 135.47 60.08 138.02 63.46"/><polygon class="cls-2" points="158.38 85.28 131.78 85.28 135.47 74.16 166.88 66.9 158.38 85.28"/><polygon class="cls-2" points="182.25 85.28 175.41 69.73 222 72.16 208.47 86.41 182.25 85.28"/><polygon class="cls-3" points="137.87 59.33 160.96 55.43 179.2 57.36 206.33 55.91 202.52 48.28 148.4 49.27 135.47 53.14 137.87 59.33"/><polygon class="cls-18" points="182.25 85.28 179.44 78.9 175.41 69.73 164.87 67.47 161.05 78.68 158.38 85.28 182.25 85.28"/><polygon class="cls-3" points="154.69 102.5 163.53 98.15 167.86 99.6 172.33 98.15 184.46 102.78 154.69 102.5"/><polygon class="cls-2" points="154.69 102.5 164.6 108.3 175.59 108.3 186.1 102.8 154.69 102.5"/><path class="cls-7" d="M204.59.57,153.14,4,129.21,34l2.06,41.09,9.23,8.19,20.55-4.63,4.2-9h10.16l4,9.17,25.45,3.38,8.41-5.37,10.63-40L239.47,26ZM163.53,67.18l-15.85,7-5.79-1.43L138,63.46l1.21-8.7,14-2,10.29,5.38Zm34.62,5.55-13.05-1.2-8.16-5.07V57.18l6.52-3.63,17.35-1L207.33,62Z"/><polygon class="cls-13" points="129.21 34.03 159.85 19.73 197.42 21.54 223.93 36.88 239.47 26.04 204.59 0.57 153.14 3.99 129.21 34.03"/><polygon class="cls-5" points="136.54 79.8 140.19 104.69 154.69 120.86 169.58 119.17 183.46 122.28 208.47 105.4 213.3 76.91 223.93 36.88 220.2 89.91 216.2 108.4 186.19 135.71 153.42 135.47 132.82 102.98 131.27 75.13 136.54 79.8"/><polygon class="cls-2" points="160.05 116.55 170.33 112.41 182.25 117.2 169.65 115.3 160.05 116.55"/><polygon class="cls-5" points="223.93 36.88 248.42 46.28 241.37 69.6 225.78 66.73 220.2 89.91 223.93 36.88"/><polygon class="cls-7" points="223.93 36.88 239.47 26.04 248.42 46.28 223.93 36.88"/><circle class="cls-15" cx="151.64" cy="60.08" r="3.71"/><circle class="cls-15" cx="189.66" cy="60.29" r="3.71"/><path class="cls-4" d="M185.55,14.22H169.81l-4.32,6-7.6,20.41h10l.93-6.68h12.07l.47,7.49h9.07l-3.49-20.24Zm-15.64,13.2,1.93-7,8.17.39.83,6.6Z"/><polygon class="cls-5" points="216.2 108.4 232.16 98.15 233.94 92.87 228.2 91.83 217.92 100.47 216.2 108.4"/><path class="cls-11" d="M205.56,226.83c0,42.43,30.25,69.74,60.67,62.62C291,283.65,308,256,308,226.83S291,170,266.23,164.21C235.81,157.1,205.56,184.41,205.56,226.83Z"/><path class="cls-12" d="M220.48,226.83c0,32,22.28,53.81,45.75,49.47,20-3.69,34.09-25.63,34.09-49.47s-14.12-45.77-34.09-49.47C242.76,173,220.48,194.84,220.48,226.83Z"/><path class="cls-11" d="M234.3,226.83c0,22.33,15.19,38.37,31.93,36.11,14.87-2,25.77-18.08,25.77-36.11s-10.9-34.1-25.77-36.11C249.49,188.46,234.3,204.51,234.3,226.83Z"/><path class="cls-13" d="M247,226.83c0,13.47,8.95,23.63,19.26,22.75,9.57-.81,16.84-11,16.84-22.75s-7.27-21.93-16.84-22.75C255.92,203.21,247,213.36,247,226.83Z"/><polygon class="cls-9" points="266.23 204.08 260.85 217.42 248 219.3 257.42 230.42 255.25 245.93 266.23 238.15 276.37 244.48 274.5 230.2 282.27 220.2 271.4 217.79 266.23 204.08"/></svg>