<svg xmlns="http://www.w3.org/2000/svg" viewBox="0 0 400 400"><defs><style>.a{fill:#231f20;opacity:0.1;}.b{fill:#33231b;}.c{fill:#412b23;}.d{fill:#dfbda5;}.e{fill:#c2987a;}.f{fill:#1d7678;}.g{fill:#308fa6;}.h{fill:#28788c;}.i{fill:#4f5353;}.j{fill:#a3a3a3;}.k{fill:#369496;}.l{fill:#8b6651;}.m{fill:#4fa9aa;}.n{fill:#5ec0d9;}.o{fill:#3aa0ba;}.p{fill:#51362a;}.q{fill:#e9cbb7;}.r{fill:#185e60;}.s{fill:#fff;}.t{fill:none;}.u{fill:#2b2b2b;}</style></defs><title>sentinels_ISFJ_famous_real_selena_gomez</title><polygon class="a" points="123.73 389.45 197.27 378.91 281.8 390.65 198.14 400 123.73 389.45"/><polygon class="b" points="167.18 141.2 165.27 147.76 170.09 158.16 184.83 155.96 183.52 139.57 167.18 141.2"/><polygon class="c" points="156.54 130.84 156.54 150.94 170.09 158.16 167.18 141.2 156.54 130.84"/><polygon class="d" points="218.87 142.45 207.03 146.76 186.56 159.58 185.7 152.57 170.09 158.16 166.9 186.81 173.78 196.25 188.6 193.11 188.89 182.26 202.44 164.08 218.87 142.45"/><polygon class="d" points="311.9 191.18 317.97 197.78 310.99 210.91 291.23 210.37 288.35 197.03 311.9 191.18"/><polygon class="e" points="260.21 194.35 286.35 194.84 288.55 201.85 285.75 211.25 242.03 218.31 248.75 201.05 260.21 194.35"/><polygon class="d" points="223.38 169.49 242.03 218.31 260.21 194.35 248.85 154.5 233.28 152.6 223.38 169.49"/><polygon class="e" points="311.9 191.18 326.11 192.55 325.12 205.53 310.99 210.91 311.9 191.18"/><polygon class="e" points="291.95 202.67 299.43 200.06 305.09 184.74 300.48 178.9 292.92 194.97 291.95 202.67"/><rect class="f" x="239.01" y="390.66" width="18.51" height="2.04"/><polygon class="g" points="195.77 361.2 205.02 369.69 215.98 361.53 218.21 354.54 218.99 304.45 199.61 293.32 180.66 325.75 195.77 361.2"/><polygon class="h" points="195.77 361.2 199.61 293.32 167.65 318.43 181.05 363.8 195.77 361.2"/><polygon class="e" points="227.12 206.97 230.84 188.54 223.38 169.49 210.03 177.88 209.18 189.73 213.91 205.47 220.46 210.23 227.12 206.97"/><polygon class="i" points="107.28 138.93 111.6 127.29 117.4 124 128.78 124.62 141.65 142.65 137 153.93 131.43 157.09 119.27 157.09 107.28 138.93"/><polygon class="j" points="111.6 127.29 131.43 157.09 137 153.93 117.4 124 111.6 127.29"/><polygon class="d" points="170.09 158.16 124.76 188.2 137 208.91 154.44 202.1 170.09 158.16"/><polygon class="e" points="114.79 165.36 143.86 206.23 121.36 216.16 100.64 172.14 114.79 165.36"/><polygon class="k" points="107.28 138.93 103.05 144.7 93.41 155.82 84.79 159.19 73.89 167.83 79.57 175.84 119.27 157.09 107.28 138.93"/><polygon class="f" points="106.45 154.33 94.62 166.31 84.79 159.19 106.45 154.33"/><polygon class="d" points="84.79 159.19 92.79 162.92 106.45 154.33 104.13 143.23 84.79 159.19"/><polygon class="d" points="114.79 165.36 121.36 149.26 113.52 148.4 108.71 160.45 95.06 168.52 100.64 172.14 114.79 165.36"/><polygon class="e" points="217.15 47.02 241.78 65.15 232.47 108.42 218.87 143.23 186.56 161.24 194.24 138.51 217.15 47.02"/><polygon class="l" points="175.19 140.4 186.56 161.24 211.32 136.53 194.24 138.51 184.83 135.56 175.19 140.4"/><polygon class="d" points="135.72 60.9 135.1 77.53 143.27 117.93 167.18 141.2 194.24 138.51 210.99 118.38 214.25 81.56 217.15 47.02 167.32 25.79 142.97 40.79 135.72 60.9"/><polygon class="e" points="176.16 199.51 188.51 196.57 190.76 204.18 188 215.78 178.29 208.59 176.16 199.51"/><polygon class="k" points="172.39 194.34 188.69 189.92 190.76 192.55 188.51 196.57 176.26 199.65 172.39 197.85 172.39 194.34"/><polygon class="h" points="162.08 174.72 145.35 191.28 162.08 221.73 173.63 219.82 188.01 215.78 166.9 186.81 162.08 174.72"/><polygon class="h" points="200.02 174.72 188.89 182.26 188.01 215.78 203.37 216.57 219.37 208.73 214.45 192.87 216.64 189.32 212.36 185.79 210.03 177.88 200.02 174.72"/><polygon class="c" points="167.04 33.71 195.96 70.81 233.63 92.95 235.66 105.85 225.63 120.19 228.36 135.56 218.87 143.23 208.06 149.26 209.42 157.46 202.44 164.08 210.03 177.88 248.85 154.5 241.78 132.42 249.03 124.59 262.4 102.94 264.88 77.32 250.41 52.83 236.66 14.3 199.11 0 180.5 3.12 149 7.93 125.23 39.94 122.08 65.71 135.72 60.9 135.72 60.9 146.42 40.79 167.04 33.71"/><polygon class="h" points="164.07 225.35 185.57 216.91 226.03 212.16 223.61 223.87 194.61 231.55 169.57 235.36 164.07 225.35"/><polygon class="f" points="222.41 229.66 242.98 253.85 242.22 273.13 214.91 284.64 197.47 286.14 172.73 271 171.54 238.94 194.61 233.3 222.41 229.66"/><polygon class="e" points="162.44 275.43 151.77 318.43 180.66 325.75 199.61 293.32 197.47 286.14 179.96 276.32 162.44 275.43"/><polygon class="d" points="228.09 366.72 239.01 390.65 257.52 390.65 241.41 362.15 228.09 366.72"/><polygon class="d" points="181.05 363.8 166.5 385.66 148 385.66 165.56 363.86 172.39 361.24 181.05 363.8"/><polygon class="l" points="180.66 325.75 181.05 363.8 165.56 363.86 151.77 318.43 180.66 325.75"/><polygon class="f" points="181.05 363.8 168.09 382.49 155.77 376.01 153.43 378.91 165.92 385.66 148 385.66 148 388.16 166.5 388.16 175.35 376.94 176.21 388.16 178.95 388.16 182.89 373.22 181.05 363.8"/><polygon class="m" points="162.08 221.73 164.07 225.35 226.03 212.16 226.03 212.16 227.12 206.97 162.08 221.73"/><polygon class="m" points="223.61 223.87 169.57 235.36 171.54 238.94 222.41 229.66 223.61 223.87"/><polygon class="n" points="242.22 273.06 262.99 378.77 281.12 355.37 242.98 253.85 232.97 253.85 242.22 273.06"/><polygon class="o" points="222.41 229.66 202.59 233.13 242.22 273.06 242.98 253.85 222.41 229.66"/><polygon class="h" points="241.41 362.15 259.32 360.62 242.22 273.06 232.97 317.43 241.41 362.15"/><polygon class="e" points="180.63 192.06 179.58 177.57 175.19 193.54 180.63 192.06"/><polygon class="f" points="212.36 185.79 230.84 188.54 229.45 194.35 214.45 192.86 212.36 185.79"/><polygon class="h" points="215.98 361.53 208.64 323.6 228.09 366.72 215.98 361.53"/><polygon class="k" points="162.44 275.43 197.47 286.14 171.54 238.94 162.44 275.43"/><polygon class="o" points="145.35 191.28 166.9 186.81 170.09 158.16 145.35 191.28"/><polygon class="o" points="188.89 182.26 210.03 177.88 202.44 164.08 188.89 182.26"/><polygon class="d" points="197.47 286.14 208.99 324.75 240.47 317.43 242.22 273.13 197.47 286.14"/><polygon class="e" points="240.47 317.43 241.41 362.15 228.09 366.72 208.99 324.75 240.47 317.43"/><polygon class="c" points="167.04 33.71 199.11 0 236.66 14.3 180.9 51.5 167.04 33.71"/><polygon class="b" points="236.66 14.3 180.9 51.5 195.96 70.81 250.41 52.83 236.66 14.3"/><polygon class="b" points="199.11 0 167.04 33.71 146.42 40.79 149 7.93 199.11 0"/><polygon class="b" points="122.08 65.71 135.1 77.53 135.72 60.9 122.08 65.71"/><polygon class="p" points="125.23 39.94 135.72 60.9 146.42 40.79 149 7.93 125.23 39.94"/><polygon class="b" points="233.63 92.95 262.4 102.94 225.63 120.19 233.63 92.95"/><polygon class="b" points="225.63 120.19 218.87 143.23 248.85 154.5 248.85 154.5 225.63 120.19"/><polygon class="q" points="162.95 82.03 170.32 82.03 172.97 100.73 160.56 100.73 162.95 82.03"/><polygon class="l" points="160.56 100.73 166.39 105.16 172.97 100.73 160.56 100.73"/><polygon class="b" points="160.91 74.05 152.46 71.5 138.51 71.93 140.21 68.86 152.5 68.4 159.39 71.93 160.91 74.05"/><polygon class="e" points="160.91 74.05 162.95 82.03 161.31 94.89 138.51 71.93 152.46 71.5 160.91 74.05"/><polygon class="e" points="172.97 100.73 195.96 70.81 180.2 71.13 171.61 73.67 170.32 82.03 172.97 100.73"/><polygon class="b" points="171.61 73.67 172.28 72.05 180.35 67.73 193.56 67.73 195.96 70.81 180.2 71.13 171.61 73.67"/><polygon class="r" points="154.44 112.9 182.63 112.33 184.13 110.2 182.17 110.39 171.77 108.65 167.6 109.73 164.31 109.14 154.82 111.14 152.46 110.78 154.44 112.9"/><polygon class="k" points="154.44 112.9 162.16 122.36 175.81 121.8 182.63 112.33 154.44 112.9"/><polygon class="s" points="156.54 112.86 164.53 112.63 171.61 112.33 180.49 112.33 174.12 117.19 162.95 117.81 156.54 112.86"/><polygon class="p" points="195.96 70.81 214.25 81.56 264.88 77.32 250.41 52.83 195.96 70.81"/><polygon class="p" points="208.06 149.26 223.38 169.49 202.44 164.08 208.06 149.26"/><polygon class="p" points="225.63 120.19 249.03 124.59 248.85 154.5 225.63 120.19"/><polygon class="f" points="252.38 381.55 238.49 387.19 239.01 390.65 254.32 385.23 252.38 381.55"/><polygon class="e" points="254.32 385.23 247.8 387.17 239.01 390.65 257.52 390.65 254.32 385.23"/><polygon class="e" points="153.43 378.91 165.92 385.66 148 385.66 153.43 378.91"/><polygon class="l" points="224.41 97.39 232.32 97.39 229.84 105.85 224.41 97.39"/><line class="t" x1="186.56" y1="161.24" x2="218.87" y2="143.23"/><polygon class="b" points="223.38 86.93 222.41 92.95 218.43 84.27 223.38 86.93"/><path class="u" d="M187.09,84.27a3.91,3.91,0,1,1-3.9-4.14A4,4,0,0,1,187.09,84.27Z"/><path class="u" d="M155.46,85.39a3.91,3.91,0,1,1-3.9-4.14A4,4,0,0,1,155.46,85.39Z"/><polygon class="o" points="285.75 211.25 291.23 210.37 292.92 194.97 286.35 194.84 285.75 211.25"/><polygon class="d" points="104.13 143.23 98.39 138 84.79 159.19 104.13 143.23"/><polygon class="e" points="104.54 162.92 95.06 168.52 100.64 172.14 106.45 169.35 104.54 162.92"/><polygon class="o" points="103.15 177.49 118.45 170.5 114.79 165.36 100.64 172.14 103.15 177.49"/><polygon class="f" points="240.25 390.65 228.09 366.72 225.2 377.91 228.83 392.7 231.58 392.7 232.82 383.07 239.01 392.7 240.25 390.65"/></svg>