<svg id="Layer_1" data-name="Layer 1" xmlns="http://www.w3.org/2000/svg" viewBox="0 0 400 400"><defs><style>.cls-1,.cls-16,.cls-17,.cls-19{fill:#2b2b2b;}.cls-1,.cls-10,.cls-11,.cls-12,.cls-13,.cls-14,.cls-15,.cls-16,.cls-17,.cls-18,.cls-2,.cls-3,.cls-4,.cls-5,.cls-6,.cls-7,.cls-8,.cls-9{fill-rule:evenodd;}.cls-1{opacity:0.1;}.cls-2{fill:#674837;}.cls-3{fill:#836150;}.cls-4{fill:#8b6d5e;}.cls-5{fill:#ebebea;}.cls-6{fill:#5ebfd8;}.cls-7{fill:#318ea5;}.cls-8{fill:#28788b;}.cls-9{fill:#3a9fb9;}.cls-10{fill:#185e60;}.cls-11{fill:#1d7678;}.cls-12{fill:#cecdcc;}.cls-13{fill:#369395;}.cls-14{fill:#74cee4;}.cls-15{fill:#412b23;}.cls-16{opacity:0.3;}.cls-18{fill:#fff;}</style></defs><title>sentinels_ISFJ_famous_real_lance_reddick</title><polygon class="cls-1" points="103.95 388.37 206.08 402.58 305.47 388.87 205.77 382.43 103.95 388.37"/><polygon class="cls-2" points="144.45 275.89 139.28 280.14 148.3 294.06 157.32 300.06 158.83 289.15 156.94 278.87 144.45 275.89"/><path class="cls-3" d="M142.25,260.68l-3,19.46,17.67-.91,2-9.26s-4.57-7.51-3.35-7.43S142.25,260.68,142.25,260.68Z"/><polygon class="cls-4" points="150.99 256.83 146.65 261.92 152.95 286.97 157.08 286.56 156.76 268.69 166.11 259.97 150.99 256.83"/><polygon class="cls-5" points="151.67 240.97 144.38 249.68 142.25 260.68 156.69 264.72 165.81 256.54 160.64 242.97 151.67 240.97"/><polygon class="cls-6" points="153.65 220.11 149.69 222.04 144.38 249.68 167.78 253.83 168.69 224.68 163.37 217.4 153.65 220.11"/><polygon class="cls-7" points="178.43 169.65 160.94 158.44 149.69 222.04 172.49 223.47 178.43 169.65"/><polygon class="cls-8" points="232.06 382.43 222.95 386.58 223.1 393.15 260.53 393.08 260.53 386.58 232.06 382.43"/><polygon class="cls-9" points="231.46 354.43 229.03 369.72 222.95 386.58 260.53 386.58 254.41 370 231.46 354.43"/><polygon class="cls-8" points="155.32 374.15 136.32 382.15 136.32 389.29 167.63 389.15 171.58 384.86 174.31 389.15 184.04 388.86 184.04 382.72 155.32 374.15"/><polygon class="cls-9" points="166.41 351.86 158.66 359.86 136.32 382.15 184.04 382.72 182.82 365 166.41 351.86"/><polygon class="cls-10" points="170.82 311 157.75 324 158.66 359.86 182.82 365 192.33 333.72 170.82 311"/><path class="cls-11" d="M204.71,293l-12.38,40.75L157.75,324l-.86-48.12s41.82-6.09,42.65-5.17S204.71,293,204.71,293Z"/><polygon class="cls-10" points="220.21 307.29 216.6 330.51 229.03 369.72 254.41 370 254.71 320.86 220.21 307.29"/><polygon class="cls-11" points="197.57 273.86 204.71 292.97 216.6 330.51 254.71 320.86 255.77 288.01 244.38 265.72 224.92 252.22 197.57 273.86"/><polygon class="cls-10" points="171.88 243.86 156.69 264.72 156.88 275.89 204.71 292.97 250.76 283.01 217.47 242.44 171.88 243.86"/><polygon class="cls-9" points="208.66 239.58 194.5 255.93 186.63 271.9 156.69 264.72 160.94 207.01 160.94 158.44 177.81 149.15 208.66 239.58"/><path class="cls-7" d="M239.66,263l-7.29-1-23.71,11.54L194.5,255.93l-1-29.64s19-29.15,20.37-29,26.9-53,26.9-53L266,154.37,261,225Z"/><path class="cls-10" d="M256.23,263.72,257.4,274l-1.63,14-5-5s1.54-18.07.76-17.57S256.23,263.72,256.23,263.72Z"/><polygon class="cls-3" points="248.94 254.58 241.49 253.15 232.37 262.01 250.76 283.01 257.39 274.03 248.94 254.58"/><polygon class="cls-5" points="265.04 245.15 247.57 244.58 241.49 253.15 256.99 274.58 266.11 262.29 265.04 245.15"/><polygon class="cls-8" points="260.94 195.44 245.44 199.72 247.57 244.58 269 233.01 260.94 195.44"/><polygon class="cls-6" points="263.68 220.29 258.2 224.87 247.57 244.58 266.11 262.29 290.43 226.87 270.36 203.72 263.68 220.29"/><path class="cls-12" d="M177.51,163.44l6.68,44.85,30.4-6.43s5.31-41,6.08-40.28-38.92-.08-38.92-.08Z"/><polygon class="cls-11" points="198.33 171.15 193.77 177.01 186.32 196.01 188.75 213.58 193.46 226.29 209.88 203.29 207.02 193.67 201.89 193.31 204.62 185.57 202.13 177.15 198.33 171.15"/><path class="cls-13" d="M188.1,191.47,186.32,196l1,7.53L207,193.67l-2.4-8.1-16.52,5.9Zm.61,21.83,0,.28,4.71,12.71,12.59-17.63S193.88,212,188.71,213.3Z"/><polygon class="cls-14" points="183.43 154.01 185.1 172.01 193.46 226.29 169.15 190.58 177.81 149.15 183.43 154.01"/><polygon class="cls-14" points="218.69 164.87 215.2 174.01 193.46 226.29 236.17 190.29 240.73 144.29 218.69 164.87"/><path class="cls-10" d="M212.92,164l-10.79,13.14-8.36-.14-6.23-14.29s21.12-6.61,20.51-7.43S212.92,164,212.92,164Z"/><polygon class="cls-5" points="191.64 144.44 198.37 163.86 185.1 172.01 177.81 149.15 186.93 140.58 191.64 144.44"/><polygon class="cls-5" points="198.94 148.29 198.37 163.86 215.2 174.01 240.73 144.29 236.63 135.87 198.94 148.29"/><polygon class="cls-15" points="175.69 130.83 198.37 163.86 225.47 145.46 233.9 136.82 234.1 126.16 175.69 130.83"/><polygon class="cls-2" points="243.66 83.25 250.61 71.09 253.55 56.19 247.6 27.39 237.16 15.77 217.13 29.52 213.78 75.97 207.9 135.85 224.07 135.83 217.1 151.15 237.23 137.19 242.86 105.44 243.66 83.25"/><polygon class="cls-15" points="240.85 86.19 231.7 90.67 242.86 105.44 245.73 94.75 240.85 86.19"/><polygon class="cls-8" points="238.25 71.16 236.64 67.21 222.7 65.34 220.66 69.49 222.45 71.96 236.71 74.56 238.25 71.16"/><polygon class="cls-16" points="238.25 71.16 236.64 67.21 222.7 65.34 220.66 69.49 222.45 71.96 236.71 74.56 238.25 71.16"/><polygon class="cls-3" points="153.49 13.63 140.39 39.56 142.25 64.15 143.32 78.24 145.47 106.66 169.26 136.87 207.9 135.85 220.69 118.47 222.45 71.96 219.42 68.35 222.7 65.34 223.79 36.35 237.16 15.77 200 0 153.49 13.63"/><polygon class="cls-8" points="212.53 68.69 213.99 64.41 222.7 65.34 222.45 71.96 213.85 71.81 212.53 68.69"/><path class="cls-2" d="M177.36,82.18,170,91.67l-13-9.81-4.79-14.18-5.82-11,12.63-1.93,10,4.27.33,1.81,3.19,3.29,6.5,2.32,3.27-2.47,1.68-3.08L199.55,54l12.23,3.07s-8.43,10.82-8.42,10.23-6.28,15.44-6.28,15.44l-13.24,9.22Z"/><polygon class="cls-15" points="176.56 87.06 170.01 91.67 177.7 96.28 183.84 91.94 176.56 87.06"/><path class="cls-8" d="M170.11,72.36l2.49-8.27,9.77-.15,7.49,8.82S170.11,72.27,170.11,72.36Z"/><polygon class="cls-4" points="170.88 71.22 172.2 75.32 170.01 91.67 183.84 91.94 182.31 75.1 184.28 69.79 170.88 69.75 170.88 71.22"/><polygon class="cls-3" points="144.32 66.14 170.26 66.03 170.06 74.18 156.83 79.69 145.1 76.48 144.32 66.14"/><path class="cls-2" d="M149,65l-4.23,1.52,19,4.33s5.75,4,5.68,3.81,2-9.29,2-9.29Z"/><polygon class="cls-3" points="184.58 65.08 212.71 65.68 212.18 74.43 194.94 80.04 183.98 74.5 184.58 65.08"/><polygon class="cls-2" points="212.71 65.68 211.38 66.88 193.6 69.98 185.45 73.76 183.61 65.39 212.71 65.68"/><path class="cls-9" d="M142.25,64.15l30.35-.06-.4,11.23L157,81.86l-13.71-3.62-1.07-14.09Zm2.48,2.34.6,9.23,11.3,3.34,12.7-6,.4-6.48Z"/><path class="cls-9" d="M182.37,63.94l31.62.47L213.78,76l-16.7,6.75L182.31,75.1l.06-11.16Zm2.88,2.34.2,7.48L197,79.36l14.15-6,.2-6.48Z"/><polygon class="cls-17" points="146.42 56.65 159.05 53.65 168.36 55.55 169.41 60.8 158.85 56.39 146.42 56.65"/><polygon class="cls-17" points="186.53 55.72 199.55 52.78 211.78 57.05 199.88 55.85 184.05 60.86 186.53 55.72"/><polygon class="cls-15" points="159.52 103.97 202.02 103.83 187.59 118.47 174.02 118.4 159.52 103.97"/><polygon class="cls-18" points="166.47 106.58 195.34 106.44 186.65 114.59 174.62 114.39 166.47 106.58"/><polygon class="cls-2" points="214.25 100.16 207.9 103.37 209.24 112.59 214.25 100.16"/><polygon class="cls-2" points="150.5 101.63 156.45 103.5 157.12 111.52 150.5 101.63"/><polygon class="cls-3" points="236.64 67.21 250.61 71.09 245.73 94.75 231.7 90.67 236.64 67.21"/><polygon class="cls-15" points="239.72 73.3 245.53 75.17 237.38 85.19 239.72 73.3"/><polygon class="cls-9" points="266.11 154.01 290.43 226.87 258.2 224.87 245.44 199.72 266.11 154.01"/><path class="cls-19" d="M196.83,70.9a3.67,3.67,0,1,1-3.66-3.66A3.66,3.66,0,0,1,196.83,70.9Z"/><path class="cls-19" d="M163.44,70.9a3.66,3.66,0,1,1-3.66-3.66A3.66,3.66,0,0,1,163.44,70.9Z"/></svg>