<svg id="illustration_layer_copy_5" data-name="illustration_layer copy 5" xmlns="http://www.w3.org/2000/svg" viewBox="0 0 400 400"><defs><style>.cls-1,.cls-21{fill:#2b2b2b;}.cls-1{opacity:0.1;}.cls-2{fill:#1c7678;}.cls-3{fill:#165e60;}.cls-4{fill:#369395;}.cls-5{fill:#50a8a9;}.cls-6{fill:#318ea5;}.cls-7{fill:#27788b;}.cls-8{fill:#5ebfd8;}.cls-9{fill:#73cee4;}.cls-10{fill:#dcdcdb;}.cls-11{fill:#4f5253;}.cls-12{fill:#fff;}.cls-13{fill:#8bdfdb;}.cls-14{fill:#fce3d4;}.cls-15{fill:#f4c9b2;}.cls-16{fill:#c1907d;}.cls-17{fill:#46382d;}.cls-18{fill:#5f5044;}.cls-19{fill:#ffefe7;}.cls-20{fill:#35291b;}.cls-22{fill:#72cacb;}.cls-23{fill:#3a9fb9;}</style></defs><title>sentinels_ISFJ_famous_fictional_dr_watson_sherlock_holmes</title><polygon class="cls-1" points="111.62 386.8 212.77 371.43 301.51 387.43 206.56 400 111.62 386.8"/><polygon class="cls-2" points="170.34 175.81 138.35 225.67 167.62 232.84 173.01 205.13 170.34 175.81"/><polygon class="cls-3" points="265.9 258.32 277.81 285.55 252.39 296.61 244.64 290.66 255.98 269.9 265.9 258.32"/><polygon class="cls-2" points="207.24 308.59 195.71 335.27 176.64 333.39 163.33 323.87 164.74 287.91 196.24 283.83 207.24 308.59"/><polygon class="cls-2" points="207.24 308.59 221.06 338.82 238.72 343.43 255.42 335.27 252.09 292.7 241.12 263.1 207.24 308.59"/><polygon class="cls-3" points="189.64 293.7 207.24 308.59 241.12 272.96 207.24 260.27 186.46 280.76 189.64 293.7"/><polygon class="cls-2" points="266.64 177.04 289.68 248.93 254.98 244.65 266.64 177.04"/><polygon class="cls-4" points="127.28 54.29 143.68 38.98 152.14 40.16 153.05 58.56 127.28 54.29"/><polygon class="cls-5" points="149.24 54.59 159.05 7.73 212.77 0 216.58 34.42 212.77 70.11 149.24 54.59"/><polygon class="cls-6" points="262.38 150.09 257.63 154.69 83.13 197.11 81.09 193.22 81.19 188.83 95.9 185.42 113.51 183.45 129.38 177.65 256.09 148.11 262.38 150.09"/><polygon class="cls-7" points="71.18 184.9 71.45 195.51 75.92 205.12 83.13 197.11 81.19 188.83 71.18 184.9"/><polygon class="cls-8" points="75.92 205.12 64.91 197.06 71.18 184.9 75.92 205.12"/><polygon class="cls-9" points="257.63 154.69 288.44 147.24 286.97 140.95 256.09 148.11 257.63 154.69"/><polygon class="cls-10" points="234.82 162.37 230.43 190.28 209.17 237.75 196.75 191.16 192.68 162.88 210.45 171.56 234.82 162.37"/><polygon class="cls-11" points="201.11 182.01 207.24 190.19 200.26 202.29 209.17 218.27 221.62 204.21 212.28 190.36 219.76 182.16 209.53 175.31 201.11 182.01"/><polygon class="cls-12" points="209.53 175.31 227.12 193.44 234.82 182.05 238.53 164.96 210.17 172.61 189.42 163.66 192.62 180.24 196.4 190.78 209.53 175.31"/><polygon class="cls-2" points="212.77 0 259.32 18.54 261.37 73.42 212.77 64.28 212.77 0"/><polygon class="cls-13" points="152.14 40.16 212.77 48.36 218.04 54.59 214.53 63.22 201.97 62.79 173.25 62.24 149.24 54.59 152.14 40.16"/><polygon class="cls-5" points="212.77 48.36 245.79 52.82 212.77 64.28 212.77 48.36"/><polygon class="cls-3" points="201.97 62.79 245.79 52.82 278.94 72.25 261.37 93.73 255.51 79.31 201.97 62.79"/><polygon class="cls-14" points="156.56 61.53 147.56 66.06 143.68 95.5 152.46 149.06 186.42 152.6 194.03 164.07 209.53 175.31 235.9 159.96 253.59 96.67 225.65 66.06 217.19 67.31 156.56 61.53"/><polygon class="cls-15" points="225.65 66.06 208.95 154.88 209.53 175.31 238.53 164.96 261.37 93.73 225.65 66.06"/><polygon class="cls-15" points="203.7 83.43 175.59 109.04 149.24 79.02 203.7 83.43"/><polygon class="cls-16" points="147.56 66.06 224.28 73.71 230.21 76.94 253.59 84.75 256.39 75.41 225.65 66.06 148.95 55.47 147.56 66.06"/><polygon class="cls-16" points="253.59 118.01 241.46 115.51 248.96 132.45 253.59 118.01"/><polygon class="cls-16" points="246.15 110.21 249.66 97.85 256.39 99.03 246.15 110.21"/><polygon class="cls-17" points="225.65 66.06 230.21 76.94 243.51 89.23 261.37 93.73 261.37 73.42 225.65 66.06"/><polygon class="cls-18" points="239.71 111.69 246.15 91.67 261.37 93.73 230.21 76.94 235.9 90.49 230.78 110.21 239.71 111.69"/><polygon class="cls-19" points="177.66 81.32 175.59 109.04 166.37 108.3 171.2 80.8 177.66 81.32"/><polygon class="cls-18" points="203.7 83.43 202.09 80.05 184.23 76.95 177.66 81.32 203.7 83.43"/><polygon class="cls-18" points="171.2 80.8 168.42 75.78 153.34 76.22 149.24 79.02 171.2 80.8"/><polygon class="cls-18" points="166.37 108.3 153.05 120.07 156.56 123.02 170.47 119.05 188.33 125.81 194.62 123.31 175.59 109.04 166.37 108.3"/><polygon class="cls-20" points="175.59 109.04 170.18 115.07 166.37 108.3 175.59 109.04"/><ellipse class="cls-21" cx="188.76" cy="90.64" rx="3.8" ry="3.82"/><ellipse class="cls-21" cx="160.36" cy="87.99" rx="3.8" ry="3.82"/><polygon class="cls-16" points="186.42 152.6 227.02 156.72 209.53 175.31 189.42 163.66 186.42 152.6"/><polygon class="cls-16" points="156.56 123.02 188.33 125.81 188.33 129.93 156.56 127.14 156.56 123.02"/><polygon class="cls-22" points="127.28 54.29 172.01 68.48 201.97 62.79 149.24 54.59 127.28 54.29"/><polygon class="cls-8" points="200.26 202.29 209.17 214.18 213.75 255.33 209.17 272.52 204.62 283.75 191.29 275.32 200.26 202.29"/><polygon class="cls-23" points="209.17 214.18 221.62 204.21 241.12 272.96 215.78 283.75 209.17 272.52 209.17 214.18"/><polygon class="cls-4" points="238.53 164.96 223.66 202.07 209.17 237.75 207.24 243.15 209.17 249.66 241.12 272.96 257.33 255.1 259.55 240.73 266.64 177.04 245.87 170.03 241.67 168.93 238.53 164.96"/><polygon class="cls-4" points="189.42 163.66 186.42 171.56 170.34 175.81 166.45 257.29 168.46 262.73 165.9 267.16 164.74 287.91 189.64 293.7 209.17 249.66 209.17 237.75 196.24 194.87 189.42 163.66"/><polygon class="cls-2" points="227.61 226.13 253.87 228.17 254.63 218.9 245.87 218.69 231.9 216.99 227.61 226.13"/><polygon class="cls-2" points="166.45 257.29 186.59 262.05 184.39 270.9 165.9 267.16 166.45 257.29"/><polygon class="cls-22" points="211.72 243.79 214.51 239.19 218.24 243.79 214.13 247.49 211.72 243.79"/><polygon class="cls-5" points="289.68 248.93 258.35 283.98 249.74 282.83 241.12 272.96 259.55 240.73 289.68 248.93"/><polygon class="cls-14" points="241.12 272.96 258.35 283.98 252.39 296.61 241.12 272.96"/><polygon class="cls-3" points="221.06 338.82 255.42 335.27 258.35 370.74 244.88 372.44 233.56 367.67 221.06 338.82"/><polygon class="cls-3" points="195.71 335.27 163.33 323.87 161.91 360.47 173.78 367.09 185.38 365.24 195.71 335.27"/><polygon class="cls-23" points="233.56 367.67 227.52 386.22 241.17 387.43 262.24 386.22 258.35 370.74 233.56 367.67"/><rect class="cls-7" x="227.52" y="386.22" width="34.72" height="5.87"/><polygon class="cls-23" points="161.91 360.47 136.89 380.81 167.22 382.27 185.31 380.81 185.38 365.24 161.91 360.47"/><polygon class="cls-7" points="185.26 386.68 176.24 386.68 174.46 382.47 166.27 386.68 136.83 386.68 136.83 380.81 185.26 380.81 185.26 386.68"/><polygon class="cls-5" points="167.62 232.84 134.09 201.39 122.35 204.14 116.17 210.39 138.59 243.28 167.62 232.84"/><polygon class="cls-16" points="116.17 210.39 98.31 193.44 111.04 186.86 126.17 186.86 134.09 201.39 116.17 210.39"/><polygon class="cls-15" points="98.31 193.44 95.9 185.42 118.67 170.66 122.57 179.09 122.14 184.9 117.4 188.93 98.31 193.44"/><polygon class="cls-14" points="134.09 201.39 129.38 177.65 115.12 180.9 117.4 188.93 126.17 186.86 118.26 196.59 124.87 206.02 134.09 201.39"/><polygon class="cls-5" points="238.53 164.96 245.87 170.03 245.87 200.06 231.9 200.06 245.87 218.69 209.17 237.75 238.53 164.96"/><polygon class="cls-5" points="189.42 163.66 169.45 191.71 181.07 197.25 176.25 207.8 209.17 237.75 189.42 163.66"/></svg>