<svg id="illustration_layer_copy_3" data-name="illustration_layer copy 3" xmlns="http://www.w3.org/2000/svg" viewBox="0 0 400 400"><defs><style>.cls-1,.cls-14,.cls-8{fill:#2b2b2b;}.cls-1{opacity:0.1;}.cls-2{fill:#165e60;}.cls-3{fill:#1c7678;}.cls-4{fill:#369395;}.cls-5{fill:#50a8a9;}.cls-6{fill:#c1907d;}.cls-7{fill:#fff;}.cls-8{opacity:0.2;}.cls-9{fill:#6f7173;}.cls-10{fill:#4f5253;}.cls-11{fill:#fce3d4;}.cls-12{fill:#f4c9b2;}.cls-13{fill:#ffefe7;}.cls-15{fill:#848585;}.cls-16{fill:#9ca0a1;}.cls-17{fill:#dcdcdb;}.cls-18{fill:#474747;}.cls-19{fill:#318ea5;}.cls-20{fill:#27788b;}.cls-21{fill:#3a9fb9;}.cls-22{fill:#5ebfd8;}.cls-23{fill:#73cee4;}.cls-24{fill:#72cacb;}</style></defs><title>sentinels_ISFJ_famous_fictional_vito_corleone_the_godfather</title><polygon class="cls-1" points="117.54 381.2 197.76 367.77 292.59 382.88 198.5 400 117.54 381.2"/><polygon class="cls-2" points="173.29 359.97 141.93 380.18 168.95 382.2 202.01 380.18 204.05 364.01 173.29 359.97"/><polygon class="cls-2" points="202.01 386.25 191.3 386.25 186.88 383.21 177.87 386.25 141.93 386.25 141.93 380.18 202.01 380.18 202.01 386.25"/><polygon class="cls-3" points="202.01 366.03 191.3 386.25 217.13 389.28 236.34 386.25 234.3 372.77 219.98 366.75 202.01 366.03"/><rect class="cls-2" x="191.3" y="386.25" width="45.04" height="6.06"/><polygon class="cls-4" points="192.08 304.2 194.95 333.5 202.01 366.03 175.07 350.45 160.53 326.39 142.58 283.22 185.52 292.58 192.08 304.2"/><polygon class="cls-3" points="193.94 333.5 160.53 326.39 173.29 359.97 202.01 366.03 193.94 333.5"/><polygon class="cls-5" points="183.93 296.95 215.08 290.3 253.33 284.24 241.13 339.04 219.9 353.64 192.93 333.5 183.93 296.95"/><polygon class="cls-4" points="192.93 333.5 241.13 339.04 234.3 372.77 202.01 366.03 192.93 333.5"/><polygon class="cls-3" points="194.7 295.1 183.93 296.95 174.82 294.59 187.56 272.36 194.7 295.1"/><polygon class="cls-4" points="144.99 152.93 124.26 188.47 116.26 225.36 124.26 238.84 143.35 249.11 152.21 227.76 144.99 152.93"/><polygon class="cls-3" points="141.56 214.69 124.26 188.47 114.24 225.36 117.22 243.73 143.35 249.11 152.21 227.76 141.56 214.69"/><polygon class="cls-6" points="107.19 211.12 114.24 225.36 121.66 224.71 116.51 214.96 107.19 211.12"/><polygon class="cls-2" points="166.66 146.27 144.99 152.93 142.58 283.22 174.82 294.59 185.52 282.21 194.7 295.1 253.33 284.24 268.37 156.55 235.35 148.33 166.66 146.27"/><polygon class="cls-3" points="235.35 148.33 247.72 177.02 192.08 224.07 235.35 148.33"/><polygon class="cls-3" points="166.66 146.27 151.19 175.33 178.33 225.08 166.66 146.27"/><polygon class="cls-7" points="235.35 148.33 178.77 252.82 166.66 146.27 185.52 145.52 235.35 148.33"/><polygon class="cls-8" points="211.48 136.31 215.08 150.15 198.5 175.33 185.52 154.11 168.7 164.22 172.29 152.93 185.52 145.52 211.48 136.31"/><polygon class="cls-9" points="259.25 75.86 259.25 94.21 244.81 84.69 248.74 68.04 259.25 75.86"/><polygon class="cls-10" points="259.25 94.21 242.79 109.44 246.96 83.62 259.25 94.21"/><polygon class="cls-11" points="169.53 4.4 153.03 12.41 132.89 30.66 124.54 111.57 139.7 125.25 167.38 129.46 187.72 145.75 228.81 145.75 250.9 71.25 238.5 65.64 242.01 45.61 226.65 23.71 206.71 8.49 169.53 4.4"/><polygon class="cls-12" points="226.65 23.71 212.37 43.21 196 134.71 185.16 150.56 237.64 133.68 242.79 109.44 242.68 98.96 246.44 92.26 250.9 71.25 238.5 63.5 242.01 45.61 226.65 23.71"/><polygon class="cls-12" points="195.13 61.37 164.01 82.6 134.24 54.51 141.53 49.35 156.6 50.95 157.95 54.16 165.22 54.69 167.12 51.94 183.81 53.36 195.13 61.37"/><polygon class="cls-13" points="165.22 54.69 164.01 82.6 152.29 81.31 157.95 54.16 165.22 54.69"/><polygon class="cls-6" points="164.01 82.6 157.41 88.07 152.29 81.31 164.01 82.6"/><polygon class="cls-6" points="139.22 100.22 156.87 98.22 177.35 103.83 178.02 107.43 156.2 101.56 138.28 103.29 139.22 100.22"/><polygon class="cls-12" points="164.01 82.6 174.79 88.34 177.35 103.83 187.58 112.77 177.62 112.77 177.35 103.83 164.01 82.6"/><polygon class="cls-12" points="152.29 81.31 139.22 100.22 137.61 109.44 129.53 108.1 139.22 100.22 142.46 85.53 152.29 81.31"/><polygon class="cls-12" points="181.93 70.31 190.55 75.12 199.71 74.72 190.14 81.4 181.93 70.31"/><polygon class="cls-12" points="146.52 65.75 139.63 74.05 129.27 65.75 138.28 68.38 146.52 65.75"/><path class="cls-14" d="M176.66,59.75a4.57,4.57,0,0,0-.51,2.08,4.72,4.72,0,0,0,9.42.29Z"/><path class="cls-14" d="M139.78,58.21a4.5,4.5,0,0,0,.43,2.08,4.75,4.75,0,0,0,6.29,2.24,4.65,4.65,0,0,0,2.36-6Z"/><polygon class="cls-10" points="167.12 51.94 170.07 47.66 187.44 51.75 195.13 61.37 183.81 54.82 167.12 51.94"/><polygon class="cls-10" points="156.6 50.95 155.52 46.77 139.81 47.66 134.24 54.51 140.91 51.24 156.6 50.95"/><polygon class="cls-9" points="157.41 88.07 170.07 92.08 177.08 100.36 167.24 95.82 159.83 93.68 157.41 88.07"/><polygon class="cls-9" points="157.41 88.07 146.52 89.66 139.78 96.45 148.59 93.68 155.12 93.01 157.41 88.07"/><polygon class="cls-6" points="167.38 129.46 211.48 136.31 205.15 146.27 185.52 145.52 167.38 129.46"/><polygon class="cls-6" points="246.44 92.26 232.85 89.94 242.79 109.44 246.44 92.26"/><polygon class="cls-6" points="236.71 84.69 240.3 71.25 247.66 74.05 236.71 84.69"/><polygon class="cls-9" points="229.26 13.32 259.25 35.73 239.64 36 226.65 23.71 208.55 16.35 212.8 10.55 229.26 13.32"/><polygon class="cls-15" points="191.89 9.82 217.31 4.4 229.26 13.32 208.55 16.35 191.89 9.82"/><polygon class="cls-9" points="153.03 12.41 161.88 4.4 179.28 0.6 185.16 4.4 195.13 2.18 217.31 4.4 171.69 17.75 167.38 13.57 158.75 14.05 153.03 12.41"/><polygon class="cls-15" points="171.69 17.75 195.13 2.18 179.28 0.6 158.76 14.05 171.69 17.75"/><polygon class="cls-10" points="226.65 23.71 259.25 35.73 259.25 58.7 242.95 54.51 230.42 45.61 226.65 23.71"/><polygon class="cls-15" points="225.03 58.7 230.34 82.47 239.58 62.43 225.03 58.7"/><polygon class="cls-16" points="230.42 45.61 259.25 58.7 259.25 75.86 225.03 58.7 230.42 45.61"/><polygon class="cls-12" points="146.18 37.69 163.79 40.54 183.9 41.25 163.61 37.51 146.18 37.69"/><polygon class="cls-12" points="149.96 32.35 164.86 34.31 183.54 36.09 164.5 32.17 149.96 32.35"/><polygon class="cls-17" points="237.64 133.68 211.48 136.31 185.52 145.52 199.29 152.93 236.45 141.28 237.64 133.68"/><polygon class="cls-18" points="236.45 141.28 200.14 144.84 199.29 152.93 235.35 148.33 236.45 141.28"/><polygon class="cls-8" points="211.48 136.31 199.29 152.93 215.08 150.15 211.48 136.31"/><polygon class="cls-18" points="185.52 145.52 202.01 154.11 201.16 162.7 185.52 154.11 179.91 153.77 171.76 157.81 170.23 148.38 179.92 144.73 185.52 145.52"/><polygon class="cls-10" points="185.52 145.52 185.52 154.11 202.69 167.58 206.05 151.74 198.5 147.71 185.52 145.52"/><polygon class="cls-10" points="179.92 144.73 179.91 153.77 168.7 164.22 166.66 146.27 179.92 144.73"/><polygon class="cls-7" points="211.48 136.31 206.05 151.74 185.52 145.52 211.48 136.31"/><polygon class="cls-17" points="167.38 129.46 166.66 146.27 185.52 145.52 167.38 129.46"/><polygon class="cls-10" points="179.92 170.28 183.99 166.57 187.94 170.95 183.93 175.33 179.92 170.28"/><polygon class="cls-10" points="178.9 189.14 182.91 184.93 187.56 189.14 182.91 193.86 178.9 189.14"/><polygon class="cls-4" points="268.37 156.55 284.77 222.16 266.07 249.11 246.49 221.69 268.37 156.55"/><polygon class="cls-6" points="124.26 188.47 147.45 195.88 133.86 206.08 124.26 188.47"/><polygon class="cls-19" points="168.7 246.73 157.29 260.23 154.42 275.39 142.92 274.38 156.62 240.19 168.7 246.73"/><polygon class="cls-19" points="168.7 195.88 193.68 201.44 206.52 227.76 185.52 252.38 151.19 233.03 168.7 195.88"/><polygon class="cls-20" points="177.68 214.84 202.01 226.84 202.01 240.52 185.52 252.38 143.54 238.28 177.68 214.84"/><polygon class="cls-21" points="147.45 195.88 151.19 175.33 172.39 196.7 157.29 199.17 147.45 195.88"/><polygon class="cls-20" points="152.21 195.88 155.6 186.45 164.76 196.26 157.29 197.9 152.21 195.88"/><polygon class="cls-22" points="135.08 202.38 147.45 195.88 172.39 196.7 177.68 214.84 159.86 235.3 133.52 238.84 121.66 224.71 135.08 202.38"/><polygon class="cls-21" points="133.52 238.84 146.14 230.16 162.2 221.38 177.68 214.84 160.88 237.32 133.52 238.84"/><polygon class="cls-23" points="147.45 221.15 146.14 230.16 158.25 232.06 162.2 221.07 154.17 217.36 151.19 220.18 147.45 221.15"/><polygon class="cls-19" points="153.27 223.59 153.85 226.56 146.14 230.16 155.25 227.76 162.2 221.38 155.57 225.72 153.27 223.59"/><polygon class="cls-2" points="147.45 221.15 154.17 217.36 153.27 223.59 147.45 221.15"/><polygon class="cls-7" points="154.17 217.36 157.29 209.13 166.66 206.54 162.2 214.69 154.17 217.36"/><polygon class="cls-7" points="147.45 221.15 139.25 219.36 133.14 226.56 141.61 226.56 147.45 221.15"/><polygon class="cls-4" points="157.29 209.13 161.43 209.88 162.2 214.69 158.37 212.92 157.29 209.13"/><polygon class="cls-4" points="139.25 219.36 141.93 222.14 141.61 226.56 138.17 223.59 139.25 219.36"/><polygon class="cls-20" points="208.47 243.53 206.52 276.4 219.9 275.39 221.16 240.75 208.47 243.53"/><polygon class="cls-21" points="221.16 240.75 209.91 267.56 219.9 275.39 230.64 251.39 246.49 221.69 221.16 240.75"/><polygon class="cls-21" points="203.62 206.54 223.25 192.18 231.41 219.36 221.16 240.75 185.52 252.38 202.01 226.84 203.62 206.54"/><polygon class="cls-19" points="223.25 192.18 246.49 221.69 221.16 240.75 223.25 192.18"/><polygon class="cls-22" points="202.01 226.84 223.25 192.18 193.68 201.44 202.01 226.84"/><polygon class="cls-22" points="246.49 221.69 270.16 254.84 260.44 268.53 236.06 262.8 231.07 250.58 246.49 221.69"/><polygon class="cls-19" points="251.4 265.62 253.33 284.24 277.46 274.04 251.4 265.62"/><polygon class="cls-21" points="270.16 254.84 277.46 274.04 236.06 262.8 270.16 254.84"/><polygon class="cls-2" points="284.77 222.16 222 221.38 218.63 235.25 217.65 249.11 270.16 254.84 284.77 222.16"/><polygon class="cls-7" points="222 221.38 213.84 221.38 208.17 237.53 208.17 248.54 217.65 249.11 222 221.38"/><polygon class="cls-12" points="213.84 221.38 206.52 221.38 202.01 226.84 191.82 242.61 195.79 250.64 208.17 248.54 213.84 221.38"/><polygon class="cls-11" points="213.84 221.38 202.01 209.51 197.11 211.91 202.01 226.84 213.84 221.38"/><polygon class="cls-8" points="141.56 210.71 140.29 199.64 135.08 202.38 135.85 208.18 141.56 210.71"/><polygon class="cls-11" points="114.82 218.46 121.66 224.71 141.56 210.71 124.26 188.47 116.44 206.54 114.82 218.46"/><polygon class="cls-12" points="124.26 188.47 114.82 218.46 107.19 211.12 124.26 188.47"/><polygon class="cls-6" points="202.01 226.84 195.79 250.64 185.52 252.38 189.6 240.75 202.01 226.84"/><polygon class="cls-22" points="177.68 214.84 202.01 226.84 185.52 252.38 179.92 260.23 173.29 260.23 177.68 214.84"/><polygon class="cls-21" points="173.29 260.23 173.29 277.92 185.52 282.21 185.52 252.38 173.29 260.23"/><polygon class="cls-4" points="223.25 192.18 219.9 176.34 233.83 168.76 247.72 177.02 240.44 194.87 223.25 192.18"/><polygon class="cls-24" points="226.6 172.69 240.44 172.69 243.87 186.45 231.41 193.46 221.72 184.93 226.6 172.69"/><polygon class="cls-4" points="232.96 172.69 241.96 178.77 237.46 190.05 226.79 189.4 223.9 179.47 232.96 172.69"/><polygon class="cls-24" points="237.41 175.7 239.81 184.17 232.65 189.76 225.33 184.36 228.2 176.25 237.41 175.7"/><polygon class="cls-4" points="232.8 175.98 238.57 179.78 236.06 186.88 229.25 187.25 226.73 180.4 232.8 175.98"/></svg>