<svg xmlns="http://www.w3.org/2000/svg" viewBox="0 0 400 400"><defs><style>.a{fill:#51362a;}.b{fill:#805e4f;}.c{fill:#1d7678;}.d{fill:#66493b;}.ab,.e{fill:#231f20;}.e{opacity:0.1;}.f{fill:#d1af96;}.g{fill:#fff;}.h{fill:#dddddc;}.i{fill:#308fa6;}.j{fill:#ececeb;}.k{fill:#4fa9aa;}.l{fill:#72cbcc;}.m{fill:#369496;}.n{fill:#185e60;}.o{fill:#c4c4c4;}.p{fill:#efd3c2;}.q{fill:#a9846c;}.r{fill:#3aa0ba;}.s{fill:#94d5d5;}.t{fill:#99796a;}.u{fill:#8f8f8f;}.v{fill:#28788c;}.w{fill:#cfcfcd;}.x{fill:#a3a3a3;}.y{fill:#f7e6dc;}.z{fill:#74cfe4;}.aa{fill:#737474;}.ab{opacity:0.2;}.ac{fill:#4f5353;}.ad{fill:#2b2b2b;}</style></defs><title>sentinels_ISFJ_famous_fictional_will_turner_pirates_of_the_caribbean</title><polygon class="a" points="106.94 26.28 109.13 49.77 116.38 25.62 115.16 20.14 106.94 26.28"/><polygon class="b" points="230.29 121.62 238.65 134.62 233.9 138.18 212.96 134.45 222.65 123.83 230.29 121.62"/><polygon class="a" points="238.65 134.73 212.96 134.56 233.61 141.79 238.65 134.73"/><polygon class="c" points="227.74 94.02 235.66 108.97 227.9 119.74 218.79 116.83 227.74 94.02"/><polygon class="d" points="235.66 108.97 233.46 126.54 213.48 134.56 218.79 116.83 235.66 108.97"/><polygon class="e" points="98.02 383.27 201.3 367.92 289.51 385.99 197.65 400 98.02 383.27"/><polygon class="f" points="166.51 149.65 202.5 123.85 206.29 145.5 166.87 229.14 150.65 213.68 173.51 159.73 166.51 149.65"/><polygon class="g" points="205.2 145 186.69 158.43 192.22 165.82 155.94 251.85 191.17 251.85 178.59 213.68 205.2 145"/><polygon class="h" points="193.63 212.07 171.81 214.23 155.94 251.85 157.6 261.45 191.17 251.85 193.63 212.07"/><polygon class="h" points="153.5 264.18 162.99 283.63 201.6 283.63 195.98 264.18 153.5 264.18"/><polygon class="i" points="127.49 283.63 136.98 357.35 163.03 365.67 173.81 328.33 143.65 283.63 127.49 283.63"/><polygon class="j" points="168.21 152.09 173.81 158.61 155.94 211.76 167.17 225.24 155.94 251.85 125.38 251.85 168.21 152.09"/><polygon class="k" points="248.84 164.73 229.51 207.74 178.59 213.68 205.2 145 248.84 164.73"/><polygon class="c" points="200.93 281.46 224.53 320.62 274.53 292.67 256.02 282.26 231.72 231.3 236.14 217.06 228.4 207.74 178.59 213.68 200.93 281.46"/><polygon class="l" points="248.84 164.73 280.88 231.03 246.08 231.03 228.4 207.74 248.84 164.73"/><polygon class="m" points="280.88 231.03 266.8 257.88 240.89 244.45 246.08 231.03 280.88 231.03"/><polygon class="c" points="240.89 244.45 277.55 263.36 256.02 282.26 231.26 264.18 240.89 244.45"/><polygon class="n" points="231.72 231.3 201.43 247.74 215.28 266.37 231.26 264.18 240.89 244.45 231.72 231.3"/><polygon class="o" points="211.41 233.41 196.93 208.13 201.65 205.43 219.51 229.11 211.41 233.41"/><polygon class="f" points="195.15 20.14 215.4 37.39 220.65 64.78 227.74 94.02 213.43 134.73 157.99 128.51 195.15 20.14"/><polygon class="p" points="238.65 62.99 231.41 83.43 219.24 79.02 222.18 56.96 238.65 62.99"/><polygon class="q" points="226.41 62.99 233.17 65.83 224.57 75.47 226.41 62.99"/><polygon class="q" points="219.24 79.02 227.74 94.02 231.41 83.43 219.24 79.02"/><polygon class="k" points="168.21 152.09 140.45 156.78 127.88 206.1 125.38 251.85 148.58 209.66 168.21 152.09"/><polygon class="m" points="157.95 136.71 139 139.31 151.86 154.82 168.21 152.09 157.95 136.71"/><polygon class="o" points="196.93 208.13 192.21 205.43 191.71 200.7 196.93 197.31 201.65 200.02 201.65 205.43 196.93 208.13"/><polygon class="r" points="213.43 253.37 211.41 252.21 211.41 249.9 213.43 248.74 215.45 249.9 215.45 252.21 213.43 253.37"/><polygon class="s" points="211.87 160.09 211.48 163.86 207.98 165.42 204.88 163.2 205.27 159.42 208.76 157.87 211.87 160.09"/><polygon class="s" points="206.29 177.42 205.9 181.2 202.41 182.75 199.31 180.53 199.7 176.75 203.19 175.2 206.29 177.42"/><polygon class="r" points="219.51 261.45 217.48 260.3 217.48 257.98 219.51 256.82 221.53 257.98 221.53 260.3 219.51 261.45"/><polygon class="d" points="106.94 26.28 122.89 3.96 145.11 2.97 154.03 7.19 170.82 1.83 211.87 0 230.29 22.66 238.65 44.43 236.04 56.41 222.59 50.54 215.4 37.39 195.15 20.14 106.94 26.28"/><polygon class="t" points="135.38 24.3 161.01 22.51 170.82 1.83 145.11 2.97 135.38 24.3"/><polygon class="b" points="211.87 0 195.15 20.14 215.4 37.39 230.29 22.66 211.87 0"/><polygon class="u" points="208.83 228.91 216.04 224.51 217.67 226.68 210.08 231.09 208.83 228.91"/><polygon class="i" points="143.65 283.63 199.31 368.36 228.4 373.23 224.53 314.32 201.6 281.46 162.99 281.46 153.5 264.18 143.65 283.63"/><polygon class="m" points="140.45 156.78 99.31 227.16 127.88 206.1 140.45 156.78"/><polygon class="l" points="99.31 227.16 114.34 249.62 125.95 241.37 127.88 206.1 99.31 227.16"/><polygon class="n" points="125.38 264.18 108.29 253.88 125.95 241.37 130.19 259.14 125.38 264.18"/><polygon class="v" points="173.56 329.16 226.22 339.92 228.4 373.23 199.31 368.36 173.56 329.16"/><polygon class="r" points="173.56 329.16 132.38 321.62 127.49 283.63 143.65 283.63 173.56 329.16"/><polygon class="n" points="125.38 264.18 108.29 310.34 132.38 321.62 125.38 264.18"/><polygon class="w" points="148.58 209.66 155.94 211.76 167.19 225.19 155.94 251.85 125.38 251.85 148.58 209.66"/><polygon class="k" points="200.93 281.46 210.27 273.91 256.02 282.26 274.53 292.67 224.53 320.62 200.93 281.46"/><polygon class="p" points="231.26 264.18 215.28 266.37 221.53 278.52 233.22 285.88 256.02 282.26 231.26 264.18"/><polygon class="f" points="233.22 285.88 216.51 288.39 208.22 275.57 215.28 266.37 233.22 285.88"/><polygon class="m" points="140.45 156.78 201.43 247.74 213.26 241.37 151.86 154.82 140.45 156.78"/><polygon class="n" points="181.7 218.31 201.43 247.74 213.26 241.37 192.38 212.07 178.59 213.68 181.7 218.31"/><polygon class="s" points="156.81 185.51 163.17 166.88 175.82 186.4 168.01 201.52 156.81 185.51"/><polygon class="m" points="160.71 184.44 164.7 174.7 171.35 184.48 167.02 193.64 160.71 184.44"/><polygon class="o" points="195.92 206.78 184.84 223.01 194.73 246.91 201.43 247.74 211.24 242.45 207.73 236.6 198.06 238.08 190.65 222.49 198.88 211.29 195.92 206.78"/><polygon class="x" points="198.06 238.08 211.24 242.45 227.37 233.71 227.96 220.69 198.06 238.08"/><polygon class="c" points="125.38 251.85 148.58 209.66 127.88 206.1 125.38 251.85"/><polygon class="p" points="116.38 25.62 109.13 49.77 113.99 90.44 133.06 130.81 178.47 126.62 196.68 105.52 195.15 20.14 116.38 25.62"/><polygon class="y" points="144.23 63.41 149.93 62.69 151.62 80.4 155.65 87.38 142.94 88.38 144.87 80.77 144.23 63.41"/><polygon class="q" points="149.86 93.5 155.65 87.38 142.94 88.38 149.86 93.5"/><polygon class="q" points="137.78 102.81 164.7 100.28 164.47 102.86 138.74 105.48 137.78 102.81"/><polygon class="f" points="154.03 56.41 149.93 62.69 151.62 80.4 155.65 87.38 168.17 64.4 184.92 52.9 173.7 49.18 154.03 56.41"/><polygon class="f" points="140.5 57.83 144.23 63.41 144.87 80.77 115.99 56.41 122.66 54.4 140.5 57.83"/><polygon class="l" points="203.29 130.91 233.9 141.39 224.58 153.76 205.2 145 203.29 130.91"/><polygon class="q" points="152.74 129 173.51 159.73 195.92 125.01 152.74 129"/><rect class="z" x="144.71" y="251.85" width="25.78" height="12.33"/><rect class="i" x="125.38" y="251.85" width="19.33" height="12.33"/><polygon class="i" points="192.35 251.85 170.49 251.85 170.49 264.18 195.61 264.18 192.35 251.85"/><polygon class="aa" points="278.79 339.96 241.54 284.56 256.02 282.26 301.98 350.77 295.49 353.02 278.79 339.96"/><polygon class="ab" points="274.53 292.67 256.02 282.26 241.54 284.56 216.51 288.39 274.53 292.67"/><polygon class="ac" points="228.4 373.23 229.94 387.44 213.35 390.19 192.07 387.44 199.19 368.36 228.4 373.23"/><polygon class="ac" points="162.92 365.67 162.92 376.41 139.19 378.19 116.27 376.41 136.86 357.35 162.92 365.67"/><polygon class="ad" points="162.92 381.84 116.27 381.91 116.27 376.41 162.92 376.34 162.92 381.84"/><polygon class="a" points="195.15 20.14 204.59 48.45 212.6 52.85 212.96 91.86 217.72 91.86 222.18 56.96 238.65 62.99 238.65 44.43 230.29 33.77 230.29 22.66 195.15 20.14"/><polygon class="t" points="230.29 22.66 238.65 44.43 195.15 20.14 230.29 22.66"/><polygon class="d" points="167.43 99.08 165.37 96.52 153.37 92.77 150.24 94.9 146.8 93.15 136.49 99.58 135.93 101.9 148.01 98.5 150.34 99.6 152.28 97.86 167.43 99.08"/><rect class="ad" x="192.07" y="387.44" width="37.87" height="5.5"/><path class="ad" d="M170.17,63.74a4,4,0,1,1-4-4A4,4,0,0,1,170.17,63.74Z"/><path class="ad" d="M136.35,66.71a4,4,0,1,1-4-4A4,4,0,0,1,136.35,66.71Z"/><polygon class="v" points="127.75 283.63 157.6 304.31 200.93 281.46 162.99 281.46 153.5 264.18 127.75 283.63"/><polygon class="w" points="153.5 264.18 143.65 283.63 127.49 283.63 125.38 264.18 153.5 264.18"/><polygon class="f" points="176.85 110.02 176.85 93.5 193.63 77.43 176.85 110.02"/><polygon class="f" points="133.88 114.44 129.5 99.09 115.99 91.86 133.88 114.44"/><polygon class="d" points="155.06 53.91 176.85 48.15 184.92 52.9 174.85 52.95 154.03 56.41 155.06 53.91"/><polygon class="d" points="139.7 55.34 120.82 51.92 115.99 56.41 123.48 55.91 140.63 57.85 139.7 55.34"/><polygon class="d" points="148.55 107.52 151.95 107.14 154.06 122.8 161.55 128.18 144.23 129.78 149.3 123.06 148.55 107.52"/></svg>