<svg xmlns="http://www.w3.org/2000/svg" viewBox="0 0 400 400"><defs><style>.a{fill:#af764f;}.b{fill:#633e1f;}.c{fill:#7c4b25;}.d{fill:#935c35;}.e{fill:#010101;opacity:0.1;}.f{fill:#1d7678;}.g{fill:#f5cbb3;}.h{fill:#fde4d5;}.i{fill:#4fa9aa;}.j{fill:#369496;}.k{fill:#c1907c;}.l{fill:#185e60;}.m{fill:#5ec0d9;}.n{fill:#308fa6;}.o{fill:#28788c;}.p{fill:#3aa0ba;}.q{fill:#805229;}.r{fill:#2b2b2b;}.s{fill:#fff0e9;opacity:0.5;}</style></defs><title>sentinels_ISFJ_famous_fictional_catelyn_stark_game_of_thrones</title><polygon class="a" points="227.06 67.55 227.06 151.83 252.41 165.38 245.15 147.27 249.57 138.49 247.77 121.44 241.36 106.6 242.85 74.92 227.06 67.55"/><polygon class="b" points="252.41 165.38 249.57 138.49 249.57 138.49 227.06 132.09 227.06 151.83 252.41 165.38"/><polygon class="c" points="227.06 93.97 245.15 96.67 247.77 121.44 227.06 109.25 227.06 93.97"/><polygon class="d" points="242.85 74.92 245.15 96.67 227.06 93.97 227.06 67.55 242.85 74.92"/><polygon class="e" points="123.71 384.85 207.47 367.62 296.23 384.85 254.15 392.42 188.83 399.9 123.71 384.85"/><polygon class="f" points="162.47 213.22 160.04 161.03 132.54 219.58 154.69 228.34 162.47 213.22"/><polygon class="d" points="164.43 134.85 158.84 168.2 192.22 168.48 174.84 133.51 164.43 134.85"/><polygon class="f" points="169.5 245.81 149.49 311.06 184.48 349.08 253.16 385.18 254.15 391.32 278.24 381.35 235.76 233.16 169.5 245.81"/><polygon class="g" points="196.61 53.28 182.37 132.54 192.22 163.54 207.47 168.48 215.83 144.09 227.06 132.09 227.06 67.45 196.61 53.28 196.61 53.28"/><polygon class="h" points="196.62 110.88 182.37 132.54 152.98 136.33 132.78 118.6 111.94 59.16 143.06 28.36 196.61 53.28 196.62 110.88"/><polygon class="i" points="227.06 149.15 260.21 162.69 248.79 198.79 236.1 213.22 236.44 237.81 169.5 237.81 167.5 211.1 155.45 188.63 160.04 161.03 172.3 147.84 227.06 149.15"/><polygon class="j" points="236.44 237.81 248.78 198.79 155.45 188.63 169.5 237.81 236.44 237.81"/><polygon class="k" points="192.22 163.54 174.84 133.51 207.64 129.28 192.22 163.54"/><polygon class="a" points="113.16 48.19 103.77 41.03 117.03 21 156.32 0.1 205.09 7.07 237.81 48.63 252.41 60.77 242.85 74.92 143.06 28.36 113.16 48.19"/><polygon class="f" points="260.21 162.69 279.12 242.1 250.06 223.1 246.29 206.67 260.21 162.69"/><polygon class="i" points="279.12 242.1 241.18 311.08 218.01 247.46 211.2 232.04 250.06 223.1 279.12 242.1"/><polygon class="l" points="206.08 245.52 211.2 270.93 241.18 311.08 218.01 247.46 206.08 245.52"/><polygon class="i" points="162.8 230.95 158.13 229.7 132.54 219.58 126.02 243.5 149.49 311.06 169.5 245.72 162.8 230.95"/><polygon class="j" points="241.18 311.08 279.12 242.1 218.01 247.46 241.18 311.08"/><polygon class="l" points="149.49 287.49 149.49 311.06 174.84 267.64 180.03 243.5 161.59 247.35 149.49 287.49"/><polygon class="g" points="192.22 163.54 195.68 196.71 215.83 147.27 200.79 144.5 192.22 163.54"/><polygon class="j" points="161.59 247.35 126.02 243.5 149.49 311.06 161.59 247.35"/><polygon class="m" points="199.72 193.45 232.32 151.58 232.32 141.46 227.06 132.09 213.31 143.47 191.45 192.55 199.72 193.45"/><polygon class="m" points="191.45 192.55 199.72 193.45 192.22 163.54 178.98 140.66 172.09 146.14 173.75 159.58 191.45 192.55"/><polygon class="n" points="195.51 192.96 199.72 193.45 211.2 270.93 201.64 270.52 202.31 278.71 188.83 285.99 191.45 192.55 195.51 192.96"/><polygon class="o" points="202.31 278.71 199.72 193.45 188.83 285.99 202.31 278.71"/><polygon class="p" points="191.45 192.55 174.84 267.64 188.83 285.99 199.72 193.45 191.45 192.55"/><polygon class="m" points="191.45 192.55 211.2 270.93 199.72 193.45 191.45 192.55"/><polygon class="c" points="196.62 53.35 196.62 53.35 211.88 67.55 243.24 78.54 252.41 60.77 237.81 48.63 237.81 48.63 196.62 53.35"/><polygon class="h" points="161.59 247.35 184.48 242.9 183.31 224.22 162.8 230.95 161.59 247.35"/><polygon class="h" points="211.2 232.04 190.57 222 177.12 226.1 177.12 243 190.57 244.33 218.01 247.46 211.2 232.04"/><polygon class="g" points="177.12 244.33 190.57 244.33 190.57 243 190.57 222 177.12 226.1 177.12 244.33"/><polygon class="i" points="166.82 281.37 149.49 311.06 144.68 384.85 159.73 384.85 166.82 281.37"/><polygon class="j" points="188.83 285.99 188.83 399.9 159.49 388.36 166.82 281.37 174.84 267.64 188.83 285.99"/><polygon class="l" points="211.2 270.93 226.33 391.32 188.83 399.9 188.83 285.99 202.31 278.71 202.07 270.93 211.2 270.93"/><polygon class="i" points="241.18 311.08 254.15 391.32 226.33 391.32 211.2 270.93 241.18 311.08"/><polygon class="g" points="155.25 74.3 157.62 69.27 172.09 60.48 184.09 60.48 170.77 74.92 161.28 97.72 155.25 87.1 155.25 74.3"/><polygon class="q" points="157.62 69.27 168.37 63.97 172.09 60.48 184.09 60.48 171.9 58.41 159.65 64.82 157.62 69.27"/><polygon class="g" points="144.71 71.71 147.28 75.72 150.9 87.97 150.52 94.02 123.36 70.36 129.19 68.18 144.71 71.71"/><polygon class="h" points="211.88 67.55 211.88 92.58 227.06 93.97 227.06 72.87 211.88 67.55"/><polygon class="k" points="211.88 92.58 227.06 109.25 227.06 93.97 211.88 92.58"/><polygon class="k" points="215.83 84.85 215.83 72.22 223.06 74.18 215.83 84.85"/><polygon class="d" points="156.32 0.1 143.06 28.36 172.09 41.9 205.09 7.07 156.32 0.1"/><polygon class="c" points="117.03 21 143.06 28.36 156.32 0.1 117.03 21"/><polygon class="b" points="178.98 140.66 174.84 133.51 164.43 134.85 160.04 161.03 178.98 140.66"/><polygon class="n" points="149.84 115.2 157 117.48 165.17 115.9 175.23 110.06 149.84 115.2"/><polygon class="o" points="149.47 115.25 158.97 114.23 175.23 110.06 160.42 110.31 158.39 112.55 155.64 111.62 149.47 115.25"/><polygon class="o" points="232.32 151.58 196.6 181 199.72 193.45 232.32 151.58"/><polygon class="o" points="173.75 159.58 199.72 193.45 191.45 192.55 173.75 159.58"/><polygon class="c" points="237.81 48.63 195.34 44.49 178.59 35.05 143.06 28.36 196.62 53.35 237.81 48.63"/><polygon class="b" points="204.51 60.69 211.88 84.54 211.88 67.55 204.51 60.69"/><polygon class="l" points="240.22 179.38 239.63 178.36 235.15 177.33 229.61 176.82 231.26 177.84 221.24 180.33 223.15 181.59 223.15 181.59 218.7 183.65 221.71 189.54 228.64 193.08 236.75 184.9 239.46 187.01 241.61 184.13 240.3 184.13 236.84 182.08 241.44 182.7 241.99 183.47 244.74 181.46 245.04 180.26 240.22 179.38"/><polygon class="i" points="237.24 178.79 238.45 178.6 239.24 179.37 237.82 179.37 237.24 178.79"/><polygon class="i" points="235.02 178.99 233.24 178.6 229.5 179.37 232.26 180.93 234.58 180.93 232.26 180.59 230.71 179.52 233.12 178.99 235.02 178.99"/><path class="r" d="M174.63,74.81a3.93,3.93,0,1,1-3.93-4A4,4,0,0,1,174.63,74.81Z"/><path class="r" d="M140.1,80.85a3.93,3.93,0,1,1-3.93-4A4,4,0,0,1,140.1,80.85Z"/><polygon class="g" points="147.81 103.35 142.09 104.09 135.13 103.81 142.46 106.65 142.46 115.75 147.81 103.35"/><polygon class="g" points="164.96 99.22 180.31 109.25 178.54 102.42 185.06 95.66 175.63 99.54 164.96 99.22"/><polygon class="q" points="144.71 71.71 142 68.06 128.48 66.83 123.36 70.36 129.19 68.9 133.81 70.36 144.71 71.71"/><polygon class="b" points="143.06 28.36 125.02 36.52 113.16 48.19 117.03 73.68 123.36 47.85 143.06 28.36"/><polygon class="q" points="117.03 73.68 103.77 59.6 103.77 41.03 113.16 48.19 117.03 73.68"/><polygon class="d" points="113.16 48.19 115.06 60.69 103.77 59.6 103.77 41.03 113.16 48.19"/><polygon class="k" points="161.28 97.72 156.47 103.94 150.15 99.97 161.28 97.72"/><polygon class="s" points="147.28 75.72 155.25 74.3 155.65 87.35 161.28 97.72 150.15 99.97 150.9 87.97 147.28 75.72"/></svg>