<svg id="Layer_1" data-name="Layer 1" xmlns="http://www.w3.org/2000/svg" viewBox="0 0 400 400"><defs><style>.cls-1,.cls-18{fill:#2b2b2b;}.cls-1{fill-opacity:0.1;}.cls-2{fill:#318ea5;}.cls-3{fill:#f4c9b2;}.cls-4{fill:#3a9fb9;}.cls-5{fill:#50a8a9;}.cls-6{fill:#369395;}.cls-7{fill:#fce3d4;}.cls-8{fill:#5ebfd8;}.cls-9{fill:#8bdfdb;}.cls-10{fill:#72cacb;}.cls-11{fill:#51362a;}.cls-12{fill:#66483a;}.cls-13{fill:#82624d;}.cls-14{fill:#c1907d;}.cls-15{fill:#27788b;}.cls-16{fill:#1c7678;}.cls-17{fill:#73cee4;}.cls-19{fill:#ffefe7;}.cls-20{fill:#fff;}</style></defs><title>sentinels_ISFJ_famous_real_kate_middleton</title><g id="Layer_1-2" data-name="Layer_1"><polygon class="cls-1" points="156.96 390.25 213.85 399.85 265.57 387.84 209.6 377.5 156.96 390.25"/><polygon class="cls-2" points="97.12 103.22 119.65 104.88 148.84 96.38 149.76 90.29 143.11 76.62 132.4 76.25 97.12 103.22"/><polygon class="cls-3" points="272.22 282.19 268.71 283.67 267.05 270.56 275.91 272.96 272.22 282.19"/><polygon class="cls-4" points="279.24 255.6 302.88 260.77 296.6 278.13 292.72 282.19 292.35 289.77 289.95 296.23 280.72 296.23 266.86 288.29 277.39 260.58 279.24 255.6"/><polygon class="cls-5" points="267.97 226.04 277.39 260.58 274.25 268.89 267.05 270.56 250.61 237.86 251.53 232.14 264.46 224.38 267.97 226.04"/><polygon class="cls-6" points="243.04 222.9 239.71 214.78 246.55 184.49 254.12 175.99 267.97 226.04 250.61 237.86 243.04 222.9"/><polygon class="cls-7" points="289.58 266.31 277.39 260.58 267.05 270.56 281.09 281.27 286.63 280.53 289.58 266.31"/><polygon class="cls-3" points="296.6 278.13 289.58 266.31 281.09 281.27 292.35 289.77 296.6 278.13"/><polygon class="cls-2" points="281.45 301.03 266.86 288.29 289.95 296.23 281.45 301.03"/><polygon class="cls-8" points="140.34 32.66 141.63 57.22 148.47 57.78 201.48 36.54 204.99 30.63 199.08 23.42 173.96 17.33 140.34 32.66"/><polygon class="cls-9" points="179.13 0.15 169.52 19.36 204.99 30.63 209.23 22.31 207.39 15.66 179.13 0.15"/><polygon class="cls-9" points="229.74 2.37 207.39 15.66 209.23 22.31 215.52 26.19 221.06 27.48 237.87 16.77 229.74 2.37"/><polygon class="cls-10" points="207.39 15.66 204.99 30.63 209.23 32.29 215.52 26.19 207.39 15.66"/><polygon class="cls-11" points="229 164.35 229.92 171 231.58 173.96 246.73 177.47 254.12 175.99 259.85 152.35 260.95 118.18 254.86 106.72 248.39 108.94 229 164.35"/><polygon class="cls-12" points="263.54 116.88 254.86 112.08 254.12 175.99 281.64 143.11 263.54 116.88"/><polygon class="cls-13" points="251.16 98.23 254.86 112.08 281.64 143.11 255.23 89.73 251.16 98.23"/><polygon class="cls-11" points="191.87 160.66 178.21 180.05 192.06 181.71 202.22 179.5 196.31 163.98 191.87 160.66"/><polygon class="cls-14" points="192.98 157.89 191.87 160.66 197.78 175.62 195.75 180.97 202.59 198.34 207.39 194.27 226.6 153.82 192.98 157.89"/><polygon class="cls-3" points="226.97 67.94 221.06 70.71 220.69 132.4 200.19 156.59 203.88 159.36 221.79 157.7 204.62 192.24 226.04 178.57 229.92 171 250.49 123.43 249.13 114.11 226.97 67.94"/><polygon class="cls-12" points="232.51 71.08 224.2 72.18 241.74 111.71 245.62 95.09 255.23 89.73 250.79 81.61 232.51 71.08"/><polygon class="cls-5" points="174.88 221.98 180.24 216.99 182.27 186.15 178.21 180.05 160.29 205.36 161.21 210.34 169.34 221.06 174.88 221.98"/><polygon class="cls-6" points="135.17 198.15 159.55 239.34 174.88 221.98 146.25 189.47 138.86 190.95 135.17 198.15"/><polygon class="cls-2" points="186.52 387.84 207.02 387.84 214.59 384.52 215.15 379.35 208.31 373.62 198.34 373.62 186.52 387.84"/><polygon class="cls-7" points="200.37 353.49 197.97 357.18 198.34 373.62 215.15 379.35 213.67 364.57 208.31 352.75 200.37 353.49"/><polygon class="cls-2" points="219.39 364.94 208.31 352.75 215.15 379.35 219.58 373.25 219.39 364.94"/><polygon class="cls-4" points="202.03 392.83 230.11 395.6 224.94 384.89 215.15 379.35 202.03 392.83"/><polygon class="cls-7" points="219.39 364.94 215.15 379.35 230.11 395.6 233.62 377.13 231.58 367.34 224.94 361.99 219.39 364.94"/><polygon class="cls-4" points="237.87 378.42 231.58 367.34 230.11 395.6 237.87 378.42"/><polygon class="cls-3" points="214.22 330.4 219.39 364.94 231.58 367.34 239.53 328 235.65 324.12 217.92 326.71 214.22 330.4"/><polygon class="cls-3" points="166.2 317.84 197.97 357.18 208.31 352.75 201.66 329.11 197.04 324.68 171.56 315.25 166.2 317.84"/><polygon class="cls-14" points="201.66 329.11 166.2 317.84 171.56 315.25 196.86 319.13 199.81 322.46 201.66 329.11"/><polygon class="cls-14" points="216.99 321.54 213.48 324.31 214.22 330.4 239.53 328 235.65 324.12 216.99 321.54"/><polygon class="cls-15" points="178.39 277.39 166.2 317.84 239.53 328 248.02 286.63 242.11 282.56 187.07 275.91 178.39 277.39"/><polygon class="cls-6" points="207.2 250.98 195.75 249.5 186.15 251.72 181.53 266.86 187.81 273.33 202.22 274.99 204.8 272.77 207.2 250.98"/><polygon class="cls-16" points="234.91 257.44 231.03 254.3 207.2 250.98 205.54 253.93 202.22 274.99 237.13 279.24 242.3 274.07 234.91 257.44"/><polygon class="cls-10" points="181.53 266.86 242.3 274.07 248.02 286.63 178.39 277.39 181.53 266.86"/><polygon class="cls-6" points="174.88 221.98 181.16 225.67 197.6 226.6 202.03 213.3 200.19 209.42 201.29 204.62 192.06 181.71 187.25 178.02 178.21 180.05 174.88 221.98"/><polygon class="cls-5" points="197.6 226.6 237.87 228.63 242.48 225.12 254.12 175.99 244.88 174.14 200.19 209.42 196.68 222.16 197.6 226.6"/><polygon class="cls-5" points="174.88 221.98 196.68 222.16 198.71 223.09 207.2 250.98 205.54 253.93 186.15 251.72 174.88 221.98"/><polygon class="cls-6" points="196.68 222.16 243.04 222.9 234.91 257.44 205.54 253.93 196.68 222.16"/><polygon class="cls-10" points="187.25 178.02 196.12 199.45 202.59 198.34 204.62 192.24 197.78 175.62 187.25 178.02"/><polygon class="cls-9" points="196.12 199.45 229.92 171 244.88 174.14 200.19 209.42 196.12 199.45"/><polygon class="cls-12" points="165.09 64.06 165.64 69.41 152.53 94.72 148.84 96.38 138.49 79.39 140.16 68.49 155.67 60.36 165.09 64.06"/><polygon class="cls-11" points="201.11 58.88 197.41 63.32 170.45 66.09 165.09 64.06 166.75 55.56 209.23 32.29 218.84 33.03 214.41 48.91 201.11 58.88"/><polygon class="cls-12" points="255.41 67.2 248.58 69.97 217.36 64.98 201.11 58.88 218.84 33.03 228.26 34.32 252.46 56.3 255.41 67.2"/><polygon class="cls-13" points="224.2 72.18 218.84 74.77 201.48 64.43 201.11 58.88 255.41 67.2 255.23 89.73 224.2 72.18"/><polygon class="cls-14" points="248.58 108.02 241.74 111.71 250.49 123.43 250 117.84 254.86 112.08 248.58 108.02"/><polygon class="cls-7" points="224.2 72.18 225.12 136.65 203.88 159.36 180.97 161.58 157.33 143.85 148.84 96.38 165.09 64.06 201.11 58.88 224.2 72.18"/><polygon class="cls-2" points="271.11 2.92 268.16 63.69 255.41 67.2 218.84 33.03 221.06 27.48 271.11 2.92"/><polygon class="cls-7" points="240.45 91.02 241.74 111.71 254.86 112.08 255.23 89.73 240.45 91.02"/><polygon class="cls-14" points="245.62 95.09 245.81 103.95 250.98 94.53 245.62 95.09"/><polygon class="cls-17" points="141.63 57.22 97.12 103.22 271.11 2.92 141.63 57.22"/><polygon class="cls-3" points="172.85 125.75 163.24 132.77 170.82 131.29 172.85 125.75"/><polygon class="cls-3" points="200.74 122.06 205.35 127.04 214.59 125.56 200.74 122.06"/><polygon class="cls-14" points="177.84 120.76 182.64 118.18 189.29 119.28 185.41 125.93 177.84 120.76"/><polygon class="cls-3" points="162.13 92.87 174.14 94.35 178.39 102.11 179.87 109.49 177.84 120.76 167.68 104.88 156.04 98.04 162.13 92.87"/><polygon class="cls-3" points="188.36 91.95 184.67 101.37 184.85 109.13 189.29 119.28 195.75 100.08 208.87 89.18 200.74 87.14 188.36 91.95"/><path class="cls-18" d="M168,99.64a3.7,3.7,0,1,1-3.91,3.47A3.7,3.7,0,0,1,168,99.64Z"/><path class="cls-18" d="M196.86,96.65a3.7,3.7,0,1,1-3.91,3.47A3.69,3.69,0,0,1,196.86,96.65Z"/><polygon class="cls-11" points="156.04 98.04 161.95 94.35 174.14 94.35 172.85 91.21 161.58 91.95 156.04 98.04"/><polygon class="cls-11" points="188.92 88.81 188.36 91.95 201.29 87.88 208.87 89.18 200.74 85.48 188.92 88.81"/><polygon class="cls-19" points="178.39 102.11 184.67 101.37 189.29 119.28 177.84 120.76 178.39 102.11"/><polygon class="cls-5" points="181.9 140.71 170.82 131.29 186.89 130.92 205.35 127.04 195.94 139.05 181.9 140.71"/><polygon class="cls-20" points="183.38 137.2 175.62 131.47 200.19 128.52 193.91 136.09 183.38 137.2"/><polygon class="cls-16" points="170.82 131.29 187.44 132.03 205.35 127.04 170.82 131.29"/><polygon class="cls-10" points="249.71 105.62 244.88 111.8 251.62 115.22 254.86 112.08 249.71 105.62"/><polygon class="cls-1" points="169.52 19.36 196.68 34.14 204.99 30.63 169.52 19.36"/><polygon class="cls-5" points="250.49 123.43 244.88 111.8 254.86 112.08 250.49 123.43"/><polygon class="cls-3" points="139.79 175.8 140.89 193.54 135.17 198.15 123.72 183.38 124.83 177.28 139.79 175.8"/><polygon class="cls-7" points="131.84 160.84 139.79 175.8 123.72 183.38 121.31 167.86 131.84 160.84"/><polygon class="cls-7" points="144.77 167.86 141.45 167.86 137.75 186.7 140.89 193.54 146.25 189.47 144.77 167.86"/></g></svg>