<svg id="illustration_layer_copy_4" data-name="illustration_layer copy 4" xmlns="http://www.w3.org/2000/svg" viewBox="0 0 400 400"><defs><style>.cls-1{fill:#3a9fb9;}.cls-15,.cls-2,.cls-22{fill:#2b2b2b;}.cls-2{opacity:0.1;}.cls-3{fill:#f4c9b2;}.cls-4{fill:#fce3d4;}.cls-5{fill:#165e60;}.cls-6{fill:#27788b;}.cls-7{fill:#1c7678;}.cls-8{fill:#c3c3c3;}.cls-9{fill:#50a8a9;}.cls-10{fill:#a2a2a2;}.cls-11{fill:#9b6533;}.cls-12{fill:#7c4f24;}.cls-13{fill:#ffefe7;}.cls-14{fill:#c1907d;}.cls-16{fill:#af7546;}.cls-17{fill:#cc9262;}.cls-18{fill:#8e8e8e;}.cls-19{fill:#dcdcdb;}.cls-20{fill:#369395;}.cls-21{fill:#73cee4;}.cls-22{opacity:0.2;}.cls-23{fill:#5ebfd8;}.cls-24{fill:#318ea5;}.cls-25{fill:#bb8e2d;}.cls-26{fill:#e1a842;}.cls-27{fill:#f3d65d;}.cls-28{fill:#e7ef78;}</style></defs><title>sentinels_ISFJ_famous_fictional_triss_merigold_the_witcher</title><polygon class="cls-1" points="192.1 315.49 190.03 335.58 178.65 333.55 192.1 315.49"/><polygon class="cls-2" points="108.11 387.24 197.5 375.32 284.5 388.25 192.87 400 108.11 387.24"/><polygon class="cls-3" points="129.57 218.51 116.3 204.72 111.2 207.02 116.76 224.38 129.57 218.51"/><polygon class="cls-4" points="129.57 218.51 101.67 219.99 120.38 231.18 128.89 224.84 129.57 218.51"/><polygon class="cls-3" points="120.38 231.18 89.76 209.06 92.82 222.16 101.67 231.18 120.38 231.18"/><polygon class="cls-5" points="154.6 206.76 129.57 218.51 120.38 231.18 158.04 232.54 159.06 218.51 154.6 206.76"/><polygon class="cls-6" points="164.17 269.8 159.72 303.57 175.55 327.71 192.1 315.49 203.39 297.53 199.86 274.9 164.17 269.8"/><polygon class="cls-5" points="232.23 358.82 239.07 371.92 235.07 391.82 232.01 391.82 229.75 381.91 229.4 366.82 232.23 358.82"/><polygon class="cls-7" points="222.49 355.07 205.13 391.82 232.01 391.82 232.23 358.82 222.49 355.07"/><polygon class="cls-1" points="192.71 285.28 217.21 349.29 220.1 320.88 238.9 314.23 246.3 270.82 192.71 285.28"/><polygon class="cls-6" points="180.36 147.31 162 158.02 154.6 206.76 165.55 214.17 176.51 182.04 180.36 147.31"/><polygon class="cls-8" points="154.6 206.76 158.04 232.54 171.24 233.22 169.71 211.36 154.6 206.76"/><polyline class="cls-9" points="180.36 147.31 157.91 188.65 175.61 225.66 228.54 230.57 254.85 190.46 225.8 156.27 182.67 147.63"/><polygon class="cls-7" points="157.91 188.65 247.33 206 231.03 239.69 171.24 233.22 157.91 188.65"/><polygon class="cls-10" points="243.28 186.27 223.04 238.82 231.03 239.69 250.66 199.31 249.85 188.65 243.28 186.27"/><polygon class="cls-1" points="185.22 160.06 178.08 161.85 167.81 170.43 180.36 147.31 184.54 151.05 185.22 160.06"/><polygon class="cls-8" points="185.22 160.06 167.81 170.43 172.88 161.09 185.09 153.34 185.22 160.06"/><polygon class="cls-9" points="171.24 233.22 231.03 239.69 246.3 270.82 192.71 283.24 164.17 269.8 166.42 266.51 165.56 262.63 167.81 257.36 167.78 251.16 171.24 233.22"/><polygon class="cls-5" points="168.78 224.99 235.04 231.43 231.03 239.69 171.24 233.22 168.78 224.99"/><polygon class="cls-10" points="172.95 127.08 159.06 144.75 180.36 147.31 179.61 138.37 172.95 127.08"/><polygon class="cls-11" points="273.49 107.95 280.82 137.19 264.59 147.56 255.4 137.19 263.36 120.61 273.49 107.95"/><polygon class="cls-12" points="263.36 102.97 273.49 107.95 258.96 134.9 252.39 130.45 254.14 113.98 263.36 102.97"/><polygon class="cls-5" points="256.61 112.73 255.4 126.89 245.15 127.75 236.36 123 244.12 115.82 256.61 112.73"/><polygon class="cls-12" points="256.61 112.73 236.36 123 233.69 89.25 256.61 112.73"/><polygon class="cls-11" points="135.11 48.6 149.08 65.76 153.11 32.01 135.11 48.6"/><polygon class="cls-12" points="135.11 48.6 132.29 62.37 144.67 78.13 149.08 61.25 135.11 48.6"/><polygon class="cls-4" points="149.08 40.61 144.67 78.13 156.76 120.32 184.89 123.42 193.89 136.85 198.24 147.56 185.22 160.06 183.53 193.76 184.89 204.26 193.09 195.47 213.8 164.91 233.83 147.61 236.36 100.21 232.42 62.38 181.79 16.25 149.08 40.61"/><polygon class="cls-3" points="218.56 51.3 213.58 97.26 193.89 126.23 184.89 123.42 195.86 141.98 198.24 147.56 235.33 149.48 236.36 123 238.89 98.39 232.42 62.38 218.56 51.3"/><polygon class="cls-3" points="200.64 60.13 177.01 82.64 150.58 56.34 157.25 52.54 167.63 54.13 172.33 58.87 175.98 59.1 181.25 55.25 192.88 54.75 200.64 60.13"/><polygon class="cls-11" points="167.63 54.13 166.25 52.13 155.38 50.88 150.58 56.34 157.88 53.75 167.63 54.13"/><polygon class="cls-11" points="181.25 55.25 182.63 53.5 194.13 53.13 200.64 60.13 192.63 56 181.25 55.25"/><polygon class="cls-13" points="175.98 59.1 177.01 82.64 166.84 82 172.33 58.87 175.98 59.1"/><polygon class="cls-14" points="177.01 82.64 171.11 88.17 166.84 82 177.01 82.64"/><circle class="cls-15" cx="190.72" cy="66.99" r="3.76"/><circle class="cls-15" cx="159.13" cy="63.9" r="3.76"/><polygon class="cls-5" points="156.06 96.63 171.23 95.75 188.06 99.38 170.69 100.5 156.06 96.63"/><polygon class="cls-9" points="156.06 96.63 170.83 104.17 188.06 99.38 170.92 100 156.06 96.63"/><polygon class="cls-14" points="184.89 123.42 220.89 126.79 198.24 147.56 190.51 140.29 184.89 123.42"/><polygon class="cls-14" points="237.39 90.02 228.49 88.17 231.86 97.4 238.89 98.39 237.39 90.02"/><polygon class="cls-16" points="188.26 5.71 267.58 60.13 273.49 88.17 244.12 77.29 224.87 66.49 217.56 63.23 195.61 28.84 181.79 21.88 188.26 5.71"/><polygon class="cls-17" points="188.26 10.91 194.48 6.97 215.55 0.51 240.3 23.85 267.58 60.13 188.26 10.91"/><polygon class="cls-16" points="215.55 0.51 256.89 19.35 267.58 60.13 215.55 0.51"/><polygon class="cls-16" points="215.55 0.51 169.42 4.44 175.05 10.91 188.26 10.91 215.55 0.51"/><polygon class="cls-17" points="181.79 21.88 163.65 29.62 149.08 40.61 135.11 48.6 139.04 30.32 169.42 4.44 188.26 10.91 181.79 21.88"/><polygon class="cls-11" points="224.88 66.49 224.83 78.42 233.69 78.42 224.88 66.49"/><polygon class="cls-12" points="224.88 66.49 246.49 74.34 273.49 88.17 263.36 102.97 246.21 90.79 224.88 66.49"/><polygon class="cls-11" points="263.36 102.97 256.61 112.73 238.89 98.39 224.88 66.49 263.36 102.97"/><polygon class="cls-11" points="195.61 28.84 273.49 88.17 217.56 63.23 213.58 60.13 210.74 52.53 201.91 41.85 195.61 28.84"/><polygon class="cls-16" points="181.79 21.88 161.07 21.88 149.08 40.61 181.79 21.88"/><polygon class="cls-17" points="149.08 40.61 146.88 59.26 140.69 53.65 149.08 40.61"/><polygon class="cls-17" points="146.88 59.26 138.63 70.44 139 84.04 144.67 78.13 146.88 59.26"/><polygon class="cls-17" points="181.79 21.88 188.27 38.19 210.74 52.54 195.61 28.84 181.79 21.88"/><polygon class="cls-17" points="210.74 52.54 217.56 63.23 215.95 75.37 206.27 63.23 210.74 52.54"/><polygon class="cls-16" points="213.63 72.45 219.91 77.85 214.21 91.42 209.64 80.31 213.63 72.45"/><polygon class="cls-18" points="236.36 123 255.4 126.89 249.79 138.37 234.86 143.99 234.86 141.18 236.36 123"/><polygon class="cls-19" points="198.24 147.56 192.11 154.96 185.22 160.06 172.95 127.08 184.89 123.42 190.51 136.22 198.24 147.56"/><polygon class="cls-10" points="198.24 147.56 185.22 160.06 179.38 125.11 184.89 123.42 198.24 147.56"/><polygon class="cls-20" points="231.16 141.18 198.24 147.56 199 153.43 216.48 149.86 231.03 146.28 231.16 141.18"/><polygon class="cls-5" points="198.24 147.56 206.15 162.45 193.4 171.8 185.22 160.06 198.24 147.56"/><polygon class="cls-9" points="197.08 153.43 200.02 161.09 194.41 165.51 189.81 160.75 197.08 153.43"/><polygon class="cls-6" points="224.52 147.63 220.78 161.09 233.45 159.47 242.64 148.61 224.52 147.63"/><polygon class="cls-1" points="242.64 148.61 268.42 161.85 257.95 177.67 243.28 186.27 231.03 176.44 220.78 161.09 242.64 148.61"/><polygon class="cls-10" points="216.48 149.86 213.8 164.91 218.4 164.15 220.78 161.09 225.54 147.63 216.48 149.86"/><polygon class="cls-19" points="255.4 126.89 264.59 147.56 216.48 149.86 255.4 126.89"/><polygon class="cls-19" points="213.8 164.91 240.49 193.5 241.81 190.07 243.28 186.27 220.78 161.09 213.8 164.91"/><polygon class="cls-6" points="268.42 161.85 283.48 204.26 271.76 212.98 260.09 215.43 243.28 186.27 268.42 161.85"/><polygon class="cls-3" points="183.53 193.76 191.86 180.14 193.09 195.47 182.67 210.84 183.53 193.76"/><polygon class="cls-21" points="177.41 225.83 181.65 222.33 189.31 222.93 193.4 227.38 192.62 235.52 187.33 239.37 180.55 238.69 176.72 233.81 177.41 225.83"/><polygon class="cls-5" points="181.65 226.24 188.67 226.93 187.77 235.01 180.82 234.26 181.65 226.24"/><polygon class="cls-19" points="164.17 269.8 165.56 262.64 192.33 277.46 242.63 263.35 246.3 270.82 192.71 285.28 164.17 269.8"/><polygon class="cls-5" points="165.56 262.64 206.15 255.4 210.84 252.78 218.19 253.25 236.12 250.06 231.03 239.69 167.78 251.16 165.56 262.64"/><polygon class="cls-5" points="238.9 314.23 203.39 313.18 206.73 321.9 210.84 324.95 209.53 329.21 217.21 349.29 224.14 350.51 233.71 349.29 238.9 314.23"/><polygon class="cls-3" points="271.76 255.27 261.11 271.1 264.4 274.92 277.14 266.76 271.76 255.27"/><polygon class="cls-4" points="271.76 255.27 271.99 272.88 282.07 276.46 292.15 269.82 289.34 254 271.76 255.27"/><polygon class="cls-19" points="283.48 204.26 260.09 215.43 265.61 226.67 277.14 226.67 288.06 218.51 283.48 204.26"/><polygon class="cls-5" points="265.61 226.67 271.76 255.27 282.45 264.72 289.34 254 288.06 218.51 265.61 226.67"/><polygon class="cls-3" points="271.99 272.88 273.52 290.5 288.07 281.31 292.15 269.82 271.99 272.88"/><polygon class="cls-5" points="192.1 315.49 159.72 303.57 158.65 311.65 160.52 316.81 157.67 319.07 153.86 347.98 161.75 351.33 169.93 350.74 183.47 329.21 182.85 324.08 187.78 322.35 192.1 315.49"/><polygon class="cls-5" points="166.28 357.12 173.12 367.25 169.99 386.13 165.19 386.13 161.75 376.21 162.76 365.63 166.28 357.12"/><polygon class="cls-7" points="155.51 354.49 121.81 386.13 149.72 386.13 161.75 376.21 164.2 369.49 166.28 359.25 155.51 354.49"/><polygon class="cls-22" points="143.08 366.16 161.75 376.21 173.12 367.25 166.28 357.12 143.08 366.16"/><polygon class="cls-9" points="146.17 346.66 169.93 350.74 177.97 362.49 173.12 367.25 166.28 359.25 164.15 369.47 143.08 366.16 146.17 346.66"/><polygon class="cls-22" points="214.78 371.38 232.1 377.71 236.79 367.56 232.23 355.07 216.07 368.65 214.78 371.38"/><polygon class="cls-9" points="209.83 349.29 233.71 349.29 241.88 363.08 236.79 367.56 232.23 358.82 232.03 369.04 207.47 368.45 209.83 349.29"/><polygon class="cls-23" points="206.73 321.9 237.56 323.28 236.53 330.25 209.53 329.21 206.73 321.9"/><polygon class="cls-21" points="158.65 311.65 187.78 322.35 183.47 329.21 157.67 319.07 158.65 311.65"/><polygon class="cls-1" points="237.56 323.28 242.63 342.23 234.49 344.04 233.11 323.06 237.56 323.28"/><polygon class="cls-21" points="233.11 323.06 223.67 338.83 229.88 342.4 237.56 323.28 233.11 323.06"/><polygon class="cls-7" points="193.4 227.38 218.19 253.25 206.15 255.4 192.62 235.52 193.4 227.38"/><polygon class="cls-6" points="236.85 273.37 261.11 267.25 263.57 258.06 240.75 259.64 236.85 273.37"/><polygon class="cls-24" points="236.85 273.37 221.79 241.39 226.22 230.57 239.07 249.77 242.63 263.35 236.85 273.37"/><polygon class="cls-23" points="226.22 230.57 246.3 227.95 263.57 258.06 242.63 263.35 226.22 230.57"/><polygon class="cls-24" points="233.45 245.02 254.01 241.39 252.02 237.93 230.77 241.71 233.45 245.02"/><polygon class="cls-22" points="236.85 273.37 243.28 290.77 246.3 270.82 236.85 273.37"/><polygon class="cls-25" points="88.48 196.31 106.35 209.37 115.62 200.14 102.05 188.39 88.48 196.31"/><polygon class="cls-26" points="115.62 200.14 128.81 193.84 122.68 180.22 108.88 184.43 101.67 193.76 115.62 200.14"/><polygon class="cls-27" points="88.48 196.31 101.67 193.76 97.25 167.44 77.76 188.39 88.48 196.31"/><polygon class="cls-25" points="101.67 193.76 122.68 180.22 111.2 171.8 95.08 172.54 101.67 193.76"/><polygon class="cls-28" points="104.44 128.76 115.28 117.2 103.69 92.36 93.59 126.38 104.44 128.76"/><polygon class="cls-27" points="89.72 157.01 82.87 146.54 88.48 137.19 95.08 143.48 89.72 157.01"/><polygon class="cls-27" points="124.13 142.3 117.32 128.17 122.68 125.11 129.57 130.72 124.13 142.3"/><polygon class="cls-27" points="122.68 180.22 117.32 156.27 95.08 172.54 122.68 180.22"/><polygon class="cls-26" points="95.08 172.54 99.29 161.88 92.78 159.05 82.87 164.15 77.76 188.39 95.08 172.54"/><polygon class="cls-28" points="95.08 172.54 115.62 161.38 114.22 149.86 103.71 135.44 92.78 159.05 95.08 172.54"/><polygon class="cls-26" points="122.68 180.22 130.59 168.1 124.72 152.41 117.32 156.27 115.62 161.38 122.68 180.22"/><polygon class="cls-27" points="115.62 161.38 124.72 152.41 103.71 135.44 115.62 161.38"/><polygon class="cls-28" points="95.08 143.48 82.87 146.54 86.69 130.33 95.08 143.48"/><polygon class="cls-28" points="117.32 128.17 129.57 130.72 122.68 119.49 117.32 128.17"/><polygon class="cls-27" points="93.59 126.38 115.28 117.2 103.71 135.44 93.59 126.38"/></svg>