<svg id="Layer_1" data-name="Layer 1" xmlns="http://www.w3.org/2000/svg" viewBox="0 0 400 400"><defs><style>.cls-1{fill:#185e60;}.cls-1,.cls-10,.cls-11,.cls-12,.cls-13,.cls-14,.cls-15,.cls-16,.cls-17,.cls-18,.cls-19,.cls-2,.cls-20,.cls-21,.cls-22,.cls-23,.cls-24,.cls-25,.cls-3,.cls-4,.cls-5,.cls-6,.cls-7,.cls-8,.cls-9{fill-rule:evenodd;}.cls-2{fill:#ad7038;}.cls-3{fill:#f4cab2;}.cls-4{fill:#3a9fb9;}.cls-5{fill:#995e26;}.cls-25,.cls-6{fill:#2b2b2b;}.cls-6{opacity:0.1;}.cls-7{fill:#1d7678;}.cls-8{fill:#318ea5;}.cls-9{fill:#5ebfd8;}.cls-10{fill:#c18f7c;}.cls-11{fill:#fbe3d4;}.cls-12{fill:#d16b5a;}.cls-13{fill:#ab4943;}.cls-14{fill:#c26054;}.cls-15{fill:#50a8a9;}.cls-16{fill:#369395;}.cls-17{fill:#28788b;}.cls-18{fill:#72cbcb;}.cls-19{fill:#75451c;}.cls-20{fill:#74cee4;}.cls-21{fill:#92d5d5;}.cls-22{fill:#ca8d58;}.cls-23{fill:#fff0e8;}.cls-24{fill:#fff;}</style></defs><title>sentinels_ISFJ_famous_fictional_bree_van_de_kamp_desperate_housewives</title><polyline class="cls-1" points="104.9 113.97 103.32 106.01 119.89 99.08 113.84 108.18 104.9 113.97"/><polygon class="cls-2" points="204.89 144.18 198.08 141.09 178.21 143.9 193.11 156.14 204.89 144.18"/><polygon class="cls-3" points="116.37 153.5 130.49 151.52 126.29 126.43 106.44 150.6 116.37 153.5"/><polygon class="cls-4" points="201.22 159.83 195.32 154.95 145.46 176.56 142.9 180.48 158.66 198.72 179.88 195.8 186.91 192.92 201.22 159.83"/><polygon class="cls-5" points="202.66 152.73 196.88 149.5 176.64 109.78 202.04 121.24 202.66 152.73"/><polygon class="cls-6" points="141.28 387.69 223.68 400 304.36 387.81 221.99 377.13 141.28 387.69"/><polygon class="cls-7" points="200.56 376.29 188.99 381.13 188.95 387.22 221.3 387.89 233.14 379.24 232.15 373.16 200.56 376.29"/><polygon class="cls-4" points="219.41 369.87 206.38 371.63 188.99 381.13 210.38 381.58 232.36 382.18 232.36 370.94 219.41 369.87"/><polygon class="cls-4" points="220.66 357.81 220.06 363.33 206.38 371.63 230.26 372.48 233.06 369.73 234.87 361.41 220.66 357.81"/><polygon class="cls-8" points="233.94 381.73 221.3 387.89 221.38 394.05 256.87 393.8 257.96 388.09 233.94 381.73"/><polygon class="cls-9" points="239.36 367.87 228.93 371.49 221.3 387.89 257.96 388.09 250.07 372.55 239.36 367.87"/><path class="cls-9" d="M235.59,358.3c-.53-.26-2.57,4.58-2.57,4.58l-4.09,8.61,21.14,1.06L248,368.07l0-4.41Z"/><path class="cls-3" d="M218,323.77l-18.46-3.66,15.14,46.46,16.26.62,2.8-6.21s-3.3-34.18-4.29-34.16S218,323.77,218,323.77Z"/><path class="cls-10" d="M207.84,313.09l-8.27,7,33.31,13.72s0-17-.18-15.7S207.84,313.09,207.84,313.09Z"/><polygon class="cls-11" points="253.44 325.6 262.83 322.7 247.99 368.07 230.97 367.19 228.32 321.29 253.44 325.6"/><polygon class="cls-3" points="226.93 318.85 228.32 321.29 228.63 332.09 262.83 322.7 226.93 318.85"/><polygon class="cls-7" points="199.57 257.58 182.94 264.75 199.57 320.11 262.83 322.7 257.11 307.49 199.57 257.58"/><polygon class="cls-7" points="99.55 92.93 103.51 112.94 104.9 113.97 106.44 91.88 99.55 92.93"/><polygon class="cls-12" points="96.45 132.62 84.87 129.89 91.49 113.37 117.24 111.94 126.29 126.43 117.85 130.63 96.45 132.62"/><polygon class="cls-13" points="117.24 111.94 126.29 126.43 117.85 130.63 107.84 130.34 84.87 129.89 117.24 111.94"/><polygon class="cls-14" points="109.8 147.86 126.29 126.43 84.87 129.89 87.28 136.18 88.08 140.77 98.58 152.47 109.8 147.86"/><polygon class="cls-13" points="116.14 149.98 126.29 126.43 94.21 145.82 116.14 149.98"/><polygon class="cls-15" points="117.24 111.94 103.51 112.94 119.89 99.08 117.24 111.94"/><polygon class="cls-16" points="193.21 237.63 190.75 240.83 182.94 264.75 262.83 322.7 273.34 268.6 251.09 232 199.01 223.41 193.21 237.63"/><polygon class="cls-17" points="273.34 268.6 244.19 266.23 259.65 249.54 275.49 256.67 273.34 268.6"/><polygon class="cls-3" points="252.14 246.87 239.98 240.45 231.94 256.32 244.19 266.23 256.44 264.25 252.14 246.87"/><polygon class="cls-11" points="279.32 248.7 267.34 240.16 253.9 231.46 240.19 240.56 256.44 264.25 275.49 256.67 279.32 248.7"/><polygon class="cls-3" points="301.86 218.66 288.08 218.5 267.34 240.16 275.49 256.67 300.73 238.6 301.86 218.66"/><polygon class="cls-8" points="292.38 195.63 305.91 200.36 320.81 224.15 300.73 238.6 286.46 220.2 292.38 195.63"/><polygon class="cls-4" points="269.67 186.33 270.18 203.5 286.46 220.2 305.91 200.36 277.86 154.62 269.67 186.33"/><polygon class="cls-9" points="189.65 186.59 178.92 195.93 191.34 233.44 196.25 238.54 205.47 228.72 202.65 194.45 189.65 186.59"/><polygon class="cls-18" points="209.22 218.96 210.28 228.43 200.45 241.08 190.75 240.83 191.34 233.44 196.87 233.15 203.49 224.61 199.97 196.84 210.7 194.3 209.22 218.96"/><polygon class="cls-11" points="126.65 164.33 111.9 162.88 84.89 148.85 79.19 132.62 84.87 129.89 94.21 145.82 130.49 151.52 126.65 164.33"/><polygon class="cls-15" points="238.91 180.08 206.98 197.42 209.72 229.16 225.48 240.78 267.34 240.16 265.2 233.47 241.94 223.24 238.91 180.08"/><polygon class="cls-4" points="266.98 193.65 270.18 203.5 265.2 233.47 229.78 233.92 217.44 223.62 216.09 198.1 266.98 193.65"/><polygon class="cls-5" points="272.91 140.27 302.15 136.2 290.85 153.02 272.91 140.27"/><polygon class="cls-19" points="261.84 116.34 275.44 126.64 290.85 153.02 278.29 154.41 265.33 160.59 254.25 148.59 251.53 136.55 261.84 116.34"/><polygon class="cls-5" points="252.38 126.23 254.36 141.09 275.44 128.42 284.19 56.67 265.9 65.81 252.38 126.23"/><polygon class="cls-9" points="247.49 149.88 262.28 147.59 277.86 154.62 270.18 203.5 216.09 198.1 213.28 184.35 222.46 160.86 247.49 149.88"/><polygon class="cls-19" points="200.67 133.48 193.04 155.94 198.17 161.95 203.81 156.21 216.69 145.3 223.02 121.7 200.67 133.48"/><polygon class="cls-3" points="133.26 190.25 121.64 185.76 111.9 162.88 130.49 151.52 145.46 176.56 133.26 190.25"/><polygon class="cls-20" points="210.25 154.42 203.51 149.97 193.04 155.94 178.92 195.93 199.97 196.84 202.65 194.45 212.13 163.19 210.25 154.42"/><polygon class="cls-21" points="211.79 145.05 203.51 149.97 209 163.34 199.97 196.84 206.98 197.42 210.7 194.3 221.43 152.89 211.79 145.05"/><polygon class="cls-18" points="252.28 138.33 255.69 144.61 262.28 147.59 223.84 165.85 216.09 198.1 206.98 197.42 218.86 154.37 218.83 151.44 252.28 138.33"/><polygon class="cls-3" points="217.23 140.92 236.18 153.55 255.69 144.61 265.72 98.88 259.82 64.5 256.1 42.07 245.09 52.8 217.23 140.92"/><polygon class="cls-19" points="264.74 70.99 257.66 69.96 255.12 53.38 260.04 53.91 264.74 70.99"/><polygon class="cls-10" points="240.63 111.71 223.8 136.96 244.59 136.43 236.18 153.55 218.86 160.94 203.51 126.42 240.63 111.71"/><polygon class="cls-10" points="258.6 84.85 255.25 88.03 265.72 98.88 267.49 90.84 258.6 84.85"/><polygon class="cls-11" points="261.15 62.36 263.17 67.71 257.66 69.96 255.25 88.03 267.49 90.84 272 70.29 261.15 62.36"/><polygon class="cls-2" points="221.63 16.32 251.09 8.66 262.71 13.77 284.19 56.67 272 70.29 263.17 67.71 253.94 51.29 244.61 54.19 221.63 16.32"/><path class="cls-5" d="M223.3,15.88l27.79-7.22,11.62,5.11-8.77,37.52s-7,2.87-10.93.26L222.28,17.39Z"/><polygon class="cls-22" points="175.81 38.87 172.38 22.75 197.46 1 240.79 0 251.09 8.66 232.45 24.12 229.57 26.51 178.12 37.19 175.81 38.87"/><polygon class="cls-2" points="170.77 60.16 163.94 55.42 172.38 22.75 182.36 32.98 184.43 38.12 173.42 60.41 170.77 60.16"/><polygon class="cls-5" points="181.06 56.21 173.1 55.2 163.94 55.42 176.64 109.78 181.06 56.21"/><polygon class="cls-11" points="173.1 55.2 176.64 109.78 200.67 136.44 224.33 136.97 248.86 116.98 253.94 51.29 232.45 24.12 182.36 32.98 173.1 55.2"/><path class="cls-3" d="M183,59.19l15,6.36,8.24,6.1,1.92,2.93,3.71-3.13,7-7.26,15.94-6,9.32,2.2c-4.45,4.29-14,11.83-14,11.83s-9.2,13.45-14.41,19.37L209,88l-7.48,3.88-12.14-18.7L176.78,61.77Z"/><polygon class="cls-10" points="266.7 73.31 261.48 72.24 259.93 81.08 266.7 73.31"/><polygon class="cls-8" points="128.62 202.23 158.66 198.72 145.46 176.56 121.64 185.76 128.62 202.23"/><polygon class="cls-18" points="261.81 94.82 257.99 88.66 263.63 84.85 267.49 90.84 261.81 94.82"/><path class="cls-10" d="M208.47,89.34l-7,2.54,6.9,6.37,7.3-6.64S208.19,89.5,208.47,89.34Z"/><polygon class="cls-5" points="218.85 64.19 221.94 60.84 235 56.42 244.11 60.41 235.2 59.3 218.85 64.19"/><polygon class="cls-5" points="198.02 65.55 195.94 62.2 182.61 57.98 176.78 61.77 182.41 60.6 198.02 65.55"/><polygon class="cls-23" points="206.26 71.65 201.5 91.88 215.71 91.61 211.89 71.45 206.26 71.65"/><polygon class="cls-15" points="204.27 106.85 214.67 107.02 226.18 104.81 216.55 112.73 202.91 112.99 193.28 105.74 204.27 106.85"/><polygon class="cls-7" points="193.28 105.74 203.59 108.73 216.12 108.64 226.18 104.81 211.86 103.67 208.03 105.72 204.36 104.07 193.28 105.74"/><polygon class="cls-3" points="195.06 95.76 188.89 106.93 189.07 112.39 185.85 105.14 195.06 95.76"/><polygon class="cls-3" points="224.66 95.13 232.35 105.86 233.06 112.21 235.57 104.25 224.66 95.13"/><polygon class="cls-24" points="213.62 161.38 216.52 159.89 217.98 162.5 215.24 164.4 213.62 161.38"/><polygon class="cls-24" points="217.98 162.5 220.78 160.69 222.45 162.98 220.04 165.11 217.98 162.5"/><polygon class="cls-24" points="222.45 162.98 224.47 160.28 227.67 161.57 225.84 164.46 222.45 162.98"/><polygon class="cls-24" points="227.67 161.57 229.42 158.76 232.76 159.82 231.19 162.84 227.67 161.57"/><polygon class="cls-24" points="232.76 159.82 233.69 156.82 237.23 157.62 236.31 160.85 232.76 159.82"/><polygon class="cls-24" points="245.57 152.49 247.4 149.21 250.9 150.06 249.23 153.55 245.57 152.49"/><polygon class="cls-24" points="237.23 157.62 237.96 154.57 241.24 154.81 240.18 157.89 237.23 157.62"/><polygon class="cls-24" points="241.24 154.87 242.09 151.65 245.57 152.43 244.45 155.9 241.24 154.87"/><polygon class="cls-24" points="250.9 150.03 251.75 146.82 255.23 147.6 254.12 151.06 250.9 150.03"/><polygon class="cls-24" points="255.23 147.57 256.03 145.89 258.86 145.93 257.86 148.94 255.23 147.57"/><polygon class="cls-24" points="210.25 158.59 213.56 158.47 213.62 161.38 210.28 162.14 210.25 158.59"/><polygon class="cls-24" points="208.12 155.07 210.98 155.94 210.25 158.59 207.21 157.91 208.12 155.07"/><polygon class="cls-24" points="206.77 151.18 209.39 152.63 208.12 155.07 205.28 153.77 206.77 151.18"/><polygon class="cls-24" points="205.75 148.61 207.93 149.24 206.76 151.18 204.64 150.81 205.75 148.61"/><path class="cls-25" d="M232.05,71.18a3.66,3.66,0,1,1-3.66-3.66A3.66,3.66,0,0,1,232.05,71.18Z"/><path class="cls-25" d="M194.72,71.67A3.66,3.66,0,1,1,191.06,68,3.66,3.66,0,0,1,194.72,71.67Z"/></svg>