<svg id="Layer_1" data-name="Layer 1" xmlns="http://www.w3.org/2000/svg" viewBox="0 0 400 400"><defs><style>.cls-1{fill:#1c7678;}.cls-1,.cls-10,.cls-11,.cls-12,.cls-13,.cls-14,.cls-15,.cls-16,.cls-17,.cls-18,.cls-19,.cls-2,.cls-20,.cls-21,.cls-22,.cls-23,.cls-24,.cls-25,.cls-26,.cls-27,.cls-3,.cls-4,.cls-5,.cls-6,.cls-7,.cls-8,.cls-9{fill-rule:evenodd;}.cls-2{fill:#6f7173;}.cls-3{fill:#8e8e8e;}.cls-4{fill:#cdcdcc;}.cls-5{fill:#165e60;}.cls-12,.cls-27,.cls-6{fill:#2b2b2b;}.cls-6{opacity:0.1;}.cls-7{fill:#318ea5;}.cls-8{fill:#f4c9b2;}.cls-9{fill:#c1907d;}.cls-10{fill:#3a9fb9;}.cls-11{fill:#27788b;}.cls-12{opacity:0.2;}.cls-13{fill:#fce3d4;}.cls-14{fill:#c2b373;}.cls-15{fill:#a19161;}.cls-16{fill:#8bdfdb;}.cls-17{fill:#50a8a9;}.cls-18{fill:#73cee4;}.cls-19{fill:#5ebfd8;}.cls-20{fill:#a2a2a2;}.cls-21{fill:#848585;}.cls-22{fill:#dcdcdb;}.cls-23{fill:#369395;}.cls-24{fill:#82754d;}.cls-25{fill:#72cacb;}.cls-26{fill:#ffefe7;}</style></defs><title>sentinels_ISFJ_famous_fictional_samwise_gamgee_the_lord_of_the_rings</title><polygon class="cls-1" points="246.38 212.94 268.72 218.3 271.71 248.7 267.9 265.55 239.5 250.56 246.38 212.94"/><polygon class="cls-2" points="252.68 215.1 264.02 208.02 268.72 218.3 278.72 241.69 277.29 248.2 271.71 248.7 252.68 215.1"/><polygon class="cls-3" points="259.83 258.16 267.27 253.14 278.72 241.69 289.92 255.41 296.45 297.46 275.39 297.46 268.36 274.54 259.83 258.16"/><polygon class="cls-4" points="291.28 250.56 278.72 241.69 296.45 297.46 300.14 286.75 291.28 250.56"/><polygon class="cls-5" points="134.15 257.76 126.41 242.12 132.41 231.6 143.03 231.15 134.15 257.76"/><polygon class="cls-6" points="99.86 384.02 195.16 376.23 293.52 386.94 217.92 400.5 99.86 384.02"/><polygon class="cls-7" points="230.97 180.19 235.97 178.88 261.08 177.16 257.25 195.49 247.71 201.31 234.95 195.91 230.95 196.62 229.91 192.4 230.97 180.19"/><polygon class="cls-8" points="246.95 365.38 245.19 337.63 228.53 343.18 220.27 349.74 228.38 368.05 238.65 374.95 246.95 365.38"/><polygon class="cls-9" points="244.54 336.17 216.54 341.31 220.27 349.74 245.19 337.63 244.54 336.17"/><polygon class="cls-10" points="188.04 345.03 206.42 345.56 224.97 323.32 191.52 308.06 157.46 325.2 188.04 345.03"/><polygon class="cls-10" points="160.72 344.69 134.35 345.8 139.52 257.53 147.31 264.52 160.72 344.69"/><polygon class="cls-11" points="188.04 344.99 191.52 308.06 184.81 292.39 150 304.05 148.95 336.5 157.64 338.36 170.67 347.62 188.04 344.99"/><polygon class="cls-12" points="163.1 299.66 150 304.05 149.75 311.83 178.14 314.8 163.1 299.66"/><polygon class="cls-11" points="206.42 345.56 191.52 308.06 195.28 294.21 235.22 299.23 250.23 302.7 247.24 337.21 217.43 343.31 206.42 345.56"/><polygon class="cls-12" points="225.84 298.05 235.22 299.23 250.23 302.7 248.73 319.96 243.15 305.51 203.42 314.29 225.84 298.05"/><polygon class="cls-8" points="185.72 383.42 188.04 345.03 166.37 342.93 159.98 344.72 166.67 362.83 168.23 377.87 185.72 383.42"/><polygon class="cls-9" points="188.04 345.03 157.64 338.39 159.98 344.72 188.04 345.03"/><polygon class="cls-13" points="141.22 382.71 166.67 362.83 185.72 383.42 141.22 382.71"/><polygon class="cls-14" points="148.95 376.67 166.67 362.83 175.85 372.76 175.85 372.76 153.38 380.6 148.95 376.67"/><polygon class="cls-15" points="157.52 369.98 161.66 366.75 162.5 377.41 156.8 379.4 157.52 369.98"/><polygon class="cls-8" points="143.44 371.78 137.54 383.06 156.02 382.94 143.44 371.78"/><polygon class="cls-13" points="220.45 390.97 228.38 368.05 246.95 365.38 257.02 390.97 220.45 390.97"/><polygon class="cls-14" points="222.81 384.14 228.38 368.05 246.95 365.38 254.48 384.52 222.81 384.14"/><polygon class="cls-15" points="222.81 384.14 225.19 377.28 237.28 370.18 251.39 376.66 254.48 384.52 238.65 374.95 222.81 384.14"/><polygon class="cls-8" points="237.86 380.84 220.45 390.97 257.02 390.97 237.86 380.84"/><polygon class="cls-5" points="191.52 308.06 198.96 303.28 211.26 292.06 188.71 278.02 164.14 289.76 182.23 301.84 191.52 308.06"/><polygon class="cls-16" points="137.37 201.65 160.14 195.85 165.01 195.45 171.86 199.13 175.56 201.11 179.23 208.18 180.68 216.22 161.13 219.81 154.43 214.01 137.37 201.65"/><polygon class="cls-16" points="223.96 221.18 214.78 229.93 191.62 227.02 186.61 220.38 194.9 216.88 224.75 193.99 232.41 193.58 239.02 199.47 223.96 221.18"/><polygon class="cls-5" points="242.4 216.44 231.66 226.47 223.96 221.18 239.02 199.47 245.01 203.38 242.4 216.44"/><polygon class="cls-10" points="188.71 278.02 181.73 237.49 191.62 227.02 223.96 221.18 247.65 231.6 236.7 249.77 188.71 278.02"/><polygon class="cls-7" points="203.42 314.29 188.71 278.02 211.72 255.15 242.5 258.48 254.5 290.11 203.42 314.29"/><polygon class="cls-7" points="178.65 314.99 181.8 303.43 188.71 278.02 147.31 264.52 140.23 300.31 178.65 314.99"/><polygon class="cls-7" points="161.13 219.81 153.7 243.85 147.31 264.52 188.71 278.02 191.62 227.02 180.68 216.22 161.13 219.81"/><polygon class="cls-17" points="126.41 242.12 150.25 226.8 151.59 210.73 148.4 206.49 136.01 207.14 131.83 219.02 126.41 242.12"/><polygon class="cls-18" points="134.15 257.76 135.86 236.05 150.25 226.8 152.59 239.65 154.82 256.85 134.15 257.76"/><polygon class="cls-19" points="164.14 289.76 134.15 257.76 152.59 239.65 179.02 257.56 182.13 267.71 172.07 272.6 164.14 289.76"/><polygon class="cls-1" points="161.13 219.81 162.63 246.45 152.59 239.65 150.25 226.8 154.57 217.74 161.13 219.81"/><polygon class="cls-5" points="148.04 207.38 150.25 226.8 161.13 219.81 155.74 201.97 148.66 202.66 148.04 207.38"/><polygon class="cls-9" points="179.16 257.42 194.71 256.87 188.71 278.02 172.07 272.6 179.16 257.42"/><polygon class="cls-9" points="203.22 278.91 188.71 278.02 194.71 256.87 207.48 268.96 211.26 275.94 203.22 278.91"/><polygon class="cls-17" points="245.01 203.38 255.65 215.46 247.67 222.51 237.1 218.81 245.01 203.38"/><polygon class="cls-1" points="223.96 221.18 223.07 243.69 235.92 236.79 242.99 225.79 237.1 218.81 223.96 221.18"/><polygon class="cls-20" points="172.04 218.79 190.83 240.87 180.97 251.36 161.13 219.81 172.04 218.79"/><polygon class="cls-21" points="190.83 240.87 201.96 251.72 187.74 257.12 180.97 251.36 190.83 240.87"/><polygon class="cls-1" points="246.95 365.38 271.92 344.05 267.27 253.14 247.74 254.91 240.94 270.91 246.95 365.38"/><polygon class="cls-18" points="220.07 276.07 210.46 267.54 207.02 270.05 203.22 278.91 212.8 283.71 220.07 276.07"/><polygon class="cls-5" points="223.79 272.43 218.8 277.31 212.8 283.71 209.71 287.98 212.8 296.15 228.57 279.27 223.79 272.43"/><polygon class="cls-4" points="284.39 325.13 256.63 301.22 223.23 284.99 220.69 287.71 270.98 327.59 284.39 325.13"/><polygon class="cls-22" points="282.54 312.09 284.39 325.13 223.23 284.99 226.62 281.36 282.54 312.09"/><polygon class="cls-1" points="141.31 366.45 139.62 263.6 134.15 257.76 125.25 346.19 141.31 366.45"/><polygon class="cls-7" points="130.87 186.22 169.71 183.09 165.01 195.45 155.74 201.97 138.97 207.59 125.84 201.69 130.87 186.22"/><polygon class="cls-11" points="131.83 219.02 125.84 201.69 155.74 201.97 139.94 213.08 131.83 219.02"/><polygon class="cls-11" points="255.65 215.46 259.44 201.01 248.06 189.05 232.41 193.58 255.65 215.46"/><polygon class="cls-17" points="268.72 218.3 255.65 215.46 248.06 189.05 261.08 177.16 281.88 185.42 282.27 204.97 268.72 218.3"/><polygon class="cls-23" points="278.4 189.51 264.08 185.42 255.76 197.69 258.47 205.33 268.34 211.37 278.21 200.71 273.95 193.42 262.92 195.02 273.37 197.15 273.95 201.06 267.95 206.57 260.99 204.26 259.82 196.26 265.82 188.27 278.4 189.51"/><polygon class="cls-8" points="182.13 267.71 190.16 252.52 204.96 256.92 207.02 270.05 188.71 278.02 182.13 267.71"/><polygon class="cls-13" points="209 251.24 201.96 251.72 190.16 252.52 197.33 259.97 207.02 270.05 217.04 262.75 209 251.24"/><polygon class="cls-19" points="209 251.24 217.04 262.75 228.57 279.27 240.94 270.91 252.81 262.9 267.27 253.14 251.6 234.3 235.92 236.79 209 251.24"/><polygon class="cls-18" points="237.1 218.81 236.7 224.9 235.92 236.79 251.54 244.94 267.27 253.14 255.65 215.46 237.1 218.81"/><polygon class="cls-8" points="242.87 125.33 219.56 109.95 204.25 192.79 195.05 216.88 232.41 193.58 239.92 162.62 242.87 125.33"/><polygon class="cls-13" points="131.22 112.59 135.84 168.19 155.82 192.79 204.25 192.79 221.16 169.47 219.36 102.6 168.89 95.17 131.22 112.59"/><polygon class="cls-8" points="143.45 131.42 154.93 141.79 165.37 154.79 171.84 157.03 178.31 154.66 193.69 140.83 203.77 133.36 193.37 129.4 184.14 131.58 174.47 135.06 171.78 138.52 169.22 135.45 161.31 131.4 152.38 129.11 143.45 131.42"/><polygon class="cls-15" points="120.46 137.19 134.52 152.37 132.64 129.7 126.55 127.3 120.46 137.19"/><polygon class="cls-24" points="123.54 122.84 120.46 137.19 132.64 129.7 131.62 117.4 127.86 114.38 123.54 122.84"/><polygon class="cls-15" points="142.28 107.47 131.62 117.4 123.54 122.84 116.04 114.19 124.62 105.48 134.61 100.51 142.28 107.47"/><polygon class="cls-15" points="150.38 107.91 142.23 107.45 134.89 102.38 140.37 80.14 154.22 70.76 162.38 94.59 150.38 107.91"/><polygon class="cls-24" points="123.21 83.57 140.18 82.25 138.33 94.33 142.28 107.47 124.62 105.48 119.37 96.38 123.21 83.57"/><polygon class="cls-14" points="142.43 70.76 123.21 83.57 138.33 94.33 145.43 83.81 154.22 70.76 142.43 70.76"/><polygon class="cls-24" points="183.53 97.32 170.43 109.16 150.38 107.91 154.22 70.76 179.56 78.18 183.53 97.32"/><polygon class="cls-25" points="191.62 227.02 181.36 224.47 161.13 219.81 179.23 208.18 193.41 205.04 194.9 216.88 193.98 219.73 191.62 227.02"/><polygon class="cls-15" points="177.54 58.46 154.22 70.76 183.53 97.32 192.21 92.11 192.4 78.19 197.78 68.32 177.54 58.46"/><polygon class="cls-24" points="218.02 66.92 194.96 59.23 177.54 58.46 192.4 78.19 215.6 78.08 218.02 66.92"/><polygon class="cls-15" points="249.02 87.67 217.69 94.48 192.4 78.19 218.02 66.92 249.02 87.67"/><polygon class="cls-14" points="219.56 109.95 241.42 113.39 249.02 87.67 192.4 78.19 204.23 103.37 219.56 109.95"/><polygon class="cls-15" points="205.97 113.81 219.56 109.95 192.4 78.19 190.1 100.95 197.52 106.89 205.97 113.81"/><polygon class="cls-24" points="190.35 111.5 197.52 106.89 192.4 78.19 183.53 97.32 178.28 105.07 182.66 109.45 190.35 111.5"/><polygon class="cls-15" points="150.38 107.91 152.17 117.39 171.98 118.15 182.66 109.45 183.18 102.27 183.53 97.32 150.38 107.91"/><polygon class="cls-24" points="185.74 122 176.51 122.77 152.17 117.39 182.66 109.45 179.07 115.34 185.74 122"/><polygon class="cls-24" points="257.48 113.55 249.02 87.67 219.56 109.95 224.68 129.43 245.44 128.44 257.48 113.55"/><polygon class="cls-15" points="253.12 133.02 257.48 113.55 224.68 129.43 240.29 138.85 253.12 133.02"/><polygon class="cls-24" points="224.68 147.37 224.68 129.43 253.12 133.02 252.09 140.19 240.07 150.81 224.68 147.37"/><polygon class="cls-15" points="230.32 164.28 224.68 147.37 252.09 140.19 249.51 160.97 230.32 164.28"/><polygon class="cls-9" points="217.12 192.72 204.91 192.79 163.84 192.79 167.48 201.11 179.23 208.18 194.9 216.88 207.79 208.94 217.12 192.72"/><polygon class="cls-26" points="169.22 135.45 165.37 154.79 178.31 154.66 174.47 135.06 169.22 135.45"/><polygon class="cls-9" points="172.04 159.4 165.37 154.79 178.31 154.66 172.04 159.4"/><polygon class="cls-9" points="160.63 168.24 174.85 169.4 190.35 165.68 190.35 167.6 174.73 172.73 161.02 170.55 160.63 168.24"/><polygon class="cls-8" points="157.43 159.53 155.51 168.5 145.77 172.6 157.43 159.53"/><polygon class="cls-8" points="192.28 158.64 193.94 165.55 206.24 169.65 192.28 158.64"/><polygon class="cls-8" points="170.88 177.47 179.59 177.47 174.6 180.41 170.88 177.47"/><polygon class="cls-15" points="143.45 131.42 161.31 131.4 161.29 127.31 144.58 126.81 143.45 131.42"/><polygon class="cls-15" points="183.69 131.53 203.32 133.32 202.91 127.53 183.8 127.31 183.69 131.53"/><path class="cls-27" d="M154.93,136.92a3.91,3.91,0,1,1-3.91,3.91,3.91,3.91,0,0,1,3.91-3.91"/><path class="cls-27" d="M189.78,136.92a3.91,3.91,0,1,1-3.91,3.91,3.91,3.91,0,0,1,3.91-3.91"/></svg>